<?xml version="1.0" encoding="utf-8"?>
<!-- Generator: Adobe Illustrator 22.1.0, SVG Export Plug-In . SVG Version: 6.00 Build 0)  -->
<svg version="1.1" id="Camada_1" xmlns="http://www.w3.org/2000/svg" xmlns:xlink="http://www.w3.org/1999/xlink" x="0px" y="0px"
	 viewBox="0 0 94.3 94.4" style="enable-background:new 0 0 94.3 94.4;" xml:space="preserve">
<style type="text/css">
	.st0{fill:#F1F1F1;}
</style>
<path class="st0" d="M28.1,7.5h53.3c3,0,5.5,2.4,5.5,5.5v41v10.9L71.6,53.9H28.1c-3,0-5.5-2.4-5.5-5.5V13C22.6,9.9,25,7.5,28.1,7.5z
	"/>
<g>
	<path class="st0" d="M12,30.4h2.9v19.1c0,6.7,5.5,12.2,12.2,12.2h41.4l2.3,1.7v8.1c0,3-2.4,5.5-5.5,5.5H21.7L6.5,87.9V77V36
		C6.5,32.9,9,30.4,12,30.4z"/>
</g>
</svg>
