<?xml version="1.0" encoding="utf-8"?>
<!-- Generator: Adobe Illustrator 22.1.0, SVG Export Plug-In . SVG Version: 6.00 Build 0)  -->
<svg version="1.1" id="Camada_1" xmlns="http://www.w3.org/2000/svg" xmlns:xlink="http://www.w3.org/1999/xlink" x="0px" y="0px"
	 viewBox="0 0 94.3 94.4" style="enable-background:new 0 0 94.3 94.4;" xml:space="preserve">
<style type="text/css">
	.st0{fill:#F1F1F1;}
</style>
<path class="st0" d="M24.4,0h63.3c3.6,0,6.5,2.9,6.5,6.5v48.7v13l-18-13H24.4c-3.6,0-6.5-2.9-6.5-6.5V6.5C17.9,2.9,20.8,0,24.4,0z"
	/>
<g>
	<path class="st0" d="M6.5,26.1h3.4v22.7c0,8,6.5,14.5,14.5,14.5h49.2l2.7,2v9.6c0,3.6-2.9,6.5-6.5,6.5H18l-18,13v-13V32.7
		C0,29,2.9,26.1,6.5,26.1z"/>
</g>
</svg>
