<?xml version="1.0" encoding="utf-8"?>
<!-- Generator: Adobe Illustrator 22.1.0, SVG Export Plug-In . SVG Version: 6.00 Build 0)  -->
<svg version="1.1" id="Camada_1" xmlns="http://www.w3.org/2000/svg" xmlns:xlink="http://www.w3.org/1999/xlink" x="0px" y="0px"
	 viewBox="0 0 94.3 94.4" style="enable-background:new 0 0 94.3 94.4;" xml:space="preserve">
<style type="text/css">
	.st0{fill:#F1F1F1;}
	.st1{fill:none;stroke:#F1F1F1;stroke-width:10;stroke-linecap:round;stroke-miterlimit:10;}
	.st2{fill:#FFFFFF;}
</style>
<path class="st0" d="M893.4,0h63.3c3.6,0,6.5,2.9,6.5,6.5v48.7v13l-18-13h-51.8c-3.6,0-6.5-2.9-6.5-6.5V6.5
	C886.9,2.9,889.8,0,893.4,0z"/>
<g>
	<path class="st0" d="M875.5,26.1h3.4v22.7c0,8,6.5,14.5,14.5,14.5h49.2l2.7,2v9.6c0,3.6-2.9,6.5-6.5,6.5H887l-18,13v-13V32.7
		C869,29,871.9,26.1,875.5,26.1z"/>
</g>
<path class="st1" d="M674.8,81.7l17.9-10.3c4.9-2.9,8-8.1,8-13.8V36.9c0-5.7-3-11-8-13.8l-17.9-10.3c-4.9-2.9-11-2.9-16,0L641,23.1
	c-4.9,2.9-8,8.1-8,13.8v20.6c0,5.7,3,11,8,13.8l17.9,10.3C663.8,84.5,669.9,84.5,674.8,81.7z"/>
<g>
	<path class="st2" d="M674.6,61.1h-15.4c-1.3,0-2.3-1.1-2.3-2.3V58c0-0.6,0.2-1.2,0.6-1.6l8.9-9.4c1.3-1.4,2.3-2.7,2.9-3.7
		c0.6-1.1,0.9-2.1,0.9-3c0-1.3-0.3-2.3-1-3.1c-0.7-0.7-1.6-1.1-2.8-1.1c-1.3,0-2.4,0.5-3.1,1.4c-0.4,0.5-0.7,1.1-0.9,1.8
		c-0.3,1-1.2,1.8-2.3,1.8H659c-1.6,0-2.7-1.5-2.3-3c0.2-0.6,0.5-1.3,0.8-1.9c0.9-1.5,2.1-2.6,3.6-3.5c1.6-0.8,3.3-1.3,5.3-1.3
		c3,0,5.4,0.7,7,2.2c1.7,1.5,2.5,3.5,2.5,6.1c0,1.5-0.4,2.9-1.1,4.4c-0.8,1.5-2,3.3-3.9,5.3l-5.2,5.5c-0.5,0.6-0.1,1.5,0.6,1.5h8.2
		c1.3,0,2.3,1.1,2.3,2.3v0C677,60,675.9,61.1,674.6,61.1z"/>
</g>
<path class="st0" d="M89.7,29.7c0-2.1-0.6-4.2-1.6-6c0-0.1,0-0.1-0.1-0.2c0,0-0.1-0.1-0.1-0.1c-1.1-1.8-2.6-3.3-4.4-4.4L53.3,1.6
	c-1.9-1.1-3.9-1.6-6-1.6c0,0-0.1,0-0.1,0c0,0-0.1,0-0.1,0c-2.1,0-4.1,0.6-6,1.6L10.8,19.1c-1.8,1.1-3.3,2.6-4.4,4.4
	c0,0-0.1,0.1-0.1,0.1c0,0,0,0.1-0.1,0.1c-1,1.8-1.6,3.9-1.6,6v34.9c0,2.1,0.6,4.2,1.6,6c0,0,0,0.1,0.1,0.1c0,0,0,0,0,0.1
	c1.1,1.8,2.6,3.4,4.4,4.4L41,92.8c1.8,1.1,3.9,1.6,6,1.6c0.1,0,0.1,0,0.2,0s0.1,0,0.2,0c2.1,0,4.1-0.6,6-1.6l30.2-17.5
	c1.9-1.1,3.4-2.6,4.4-4.4c0,0,0,0,0-0.1c0,0,0-0.1,0.1-0.1c1-1.8,1.6-3.9,1.6-6V29.7z M10.5,65c0-0.1,0-0.2,0-0.3V29.7
	c0-0.1,0-0.2,0-0.3l26.9,15.5c-0.2,0.7-0.3,1.5-0.3,2.3c0,0.8,0.1,1.5,0.3,2.3L10.5,65z M80.6,24.2c0.1,0.1,0.2,0.1,0.3,0.2L54,39.9
	c-1.1-1-2.4-1.8-3.9-2.3v-31c0.1,0,0.2,0.1,0.3,0.1L80.6,24.2z M43.9,6.7c0.1-0.1,0.2-0.1,0.3-0.1v31c-1.5,0.5-2.8,1.2-3.9,2.3
	L13.4,24.4c0.1-0.1,0.2-0.1,0.3-0.2L43.9,6.7z M13.7,70.2c-0.1-0.1-0.2-0.1-0.3-0.2l26.9-15.5c1.1,1,2.4,1.8,3.9,2.3v31
	c-0.1,0-0.2-0.1-0.3-0.1L13.7,70.2z M50.4,87.7c-0.1,0.1-0.2,0.1-0.3,0.1v-31c1.5-0.5,2.8-1.2,3.9-2.3L80.9,70
	c-0.1,0.1-0.2,0.1-0.3,0.2L50.4,87.7z"/>
</svg>
