<?xml version="1.0" encoding="utf-8"?>
<!-- Generator: Adobe Illustrator 22.1.0, SVG Export Plug-In . SVG Version: 6.00 Build 0)  -->
<svg version="1.1" id="Camada_1" xmlns="http://www.w3.org/2000/svg" xmlns:xlink="http://www.w3.org/1999/xlink" x="0px" y="0px"
	 viewBox="0 0 94.3 94.4" style="enable-background:new 0 0 94.3 94.4;" xml:space="preserve">
<style type="text/css">
	.st0{fill:#F1F1F1;}
</style>
<path class="st0" d="M47.1,0C34.9,0,25,9.9,25,22.2c0,10.1,15.2,37.5,20.4,46.6c0.8,1.3,2.7,1.3,3.5,0c5.2-9.1,20.4-36.4,20.4-46.6
	C69.3,9.9,59.4,0,47.1,0z M47.1,30.6c-4.7,0-8.5-3.8-8.5-8.5c0-4.7,3.8-8.5,8.5-8.5c4.7,0,8.5,3.8,8.5,8.5
	C55.6,26.8,51.8,30.6,47.1,30.6z"/>
<polygon class="st0" points="-171.8,80.6 -203.3,80.6 -234.8,80.6 -266.3,80.6 -266.3,66.9 -234.8,66.9 -203.3,66.9 -171.8,66.9 "/>
<rect x="-120.5" y="105.7" class="st0" width="31.5" height="94.4"/>
<g>
	<g>
		<path class="st0" d="M88,62.4L68,50c-3.7,7.7-8.1,15.7-12.1,22.7c-1.8,3.1-5.1,5-8.7,5s-6.9-1.9-8.7-5c-4-7-8.4-15-12.1-22.7
			l-20,12.3c-4.4,2.7-4.4,7.1,0,9.7l32.9,20.3c4.4,2.7,11.4,2.7,15.8,0L88,72.1C92.3,69.4,92.3,65.1,88,62.4z"/>
	</g>
</g>
</svg>
