<?xml version="1.0" encoding="utf-8"?>
<!-- Generator: Adobe Illustrator 22.1.0, SVG Export Plug-In . SVG Version: 6.00 Build 0)  -->
<svg version="1.1" id="Camada_1" xmlns="http://www.w3.org/2000/svg" xmlns:xlink="http://www.w3.org/1999/xlink" x="0px" y="0px"
	 viewBox="0 0 109.2 96.8" style="enable-background:new 0 0 109.2 96.8;" xml:space="preserve">
<style type="text/css">
	.st0{fill:#F1F1F1;}
</style>
<g>
	<path class="st0" d="M100.7,14.4c-5.8-3.4-12.6-2.9-17.8,0.6c0.6,2.1,0.9,4.3,0.9,6.5c0,6.1-2.2,11.8-5.9,16.2
		c-1.2,1.3-2.9,3-3.2,3.2c9,6.1,14.7,18,16.4,34.8C95.9,63.2,95.9,52,87.6,45c7.3,2.2,15.5-0.8,19.5-7.7
		C111.6,29.3,108.8,19,100.7,14.4z"/>
	<path class="st0" d="M17.9,75.3c1.7-16.6,7.3-28.3,16.3-34.4c-0.3-0.3-2.1-1.8-3.1-3.1c-3.7-4.4-6-10.2-6-16.4
		c0-2.3,0.3-4.5,0.9-6.6c-5.2-3.4-11.9-3.7-17.6-0.5c-8.1,4.6-10.8,15-6.1,23c4,6.9,12.2,10,19.5,7.7C13.4,52,13.3,63.1,17.9,75.3z"
		/>
	<path class="st0" d="M59.3,42.2c9.3-2.2,16.3-10.6,16.3-20.6c0-11.7-9.4-21.1-21.1-21.1S33.5,9.9,33.5,21.6
		c0,10,6.9,18.4,16.3,20.6c-14.3,2.6-24.3,17.1-24.3,41.2c0,0,10.4,12.9,29.2,12.9c20.7,0,29.2-12.9,29.2-12.9
		C83.8,59.2,73.1,45.6,59.3,42.2z"/>
</g>
</svg>
