<!-- Generator: Adobe Illustrator 22.1.0, SVG Export Plug-In  -->
<svg version="1.1"
	 xmlns="http://www.w3.org/2000/svg" xmlns:xlink="http://www.w3.org/1999/xlink" xmlns:a="http://ns.adobe.com/AdobeSVGViewerExtensions/3.0/"
	 x="0px" y="0px" width="109.2px" height="96.8px" viewBox="0 0 109.2 96.8" style="enable-background:new 0 0 109.2 96.8;"
	 xml:space="preserve">
<style type="text/css">
	.st0{fill:#F1F1F1;}
</style>
<defs>
</defs>
<g>
	<g>
		<path class="st0" d="M100.4,13.9c-6-3.5-13.1-3-18.5,0.6c0.6,2.2,0.9,4.5,0.9,6.8c0,6.4-2.3,12.3-6.1,16.9c-1.2,1.4-3,3.1-3.3,3.3
			c9.4,6.4,15.3,18.8,17.1,36.2c4.9-12.9,4.9-24.6-3.8-31.9c7.6,2.3,16.1-0.8,20.3-8C111.7,29.5,108.8,18.7,100.4,13.9z"/>
		<path class="st0" d="M18.7,77.4c1.8-17.3,7.6-29.5,17-35.8c-0.3-0.3-2.2-1.9-3.2-3.2c-3.9-4.6-6.3-10.6-6.3-17.1
			c0-2.4,0.3-4.7,0.9-6.9c-5.4-3.5-12.4-3.9-18.3-0.5c-8.4,4.8-11.3,15.6-6.4,24c4.2,7.2,12.7,10.4,20.3,8
			C14,53.1,13.9,64.7,18.7,77.4z"/>
	</g>
	<path class="st0" d="M59.4,42.1c9.4-2.2,16.5-10.7,16.5-20.8C75.9,9.5,66.4,0,54.6,0C42.8,0,33.3,9.5,33.3,21.3
		c0,10.1,7,18.6,16.5,20.8c-14.5,2.6-24.6,17.3-24.6,41.7c0,0,10.5,13,29.5,13c20.9,0,29.5-13,29.5-13
		C84.1,59.3,73.3,45.6,59.4,42.1z"/>
</g>
</svg>
