<?xml version="1.0" encoding="utf-8"?>
<!-- Generator: Adobe Illustrator 22.1.0, SVG Export Plug-In . SVG Version: 6.00 Build 0)  -->
<svg version="1.1" id="Camada_1" xmlns="http://www.w3.org/2000/svg" xmlns:xlink="http://www.w3.org/1999/xlink" x="0px" y="0px"
	 viewBox="0 0 85.1 96.8" style="enable-background:new 0 0 85.1 96.8;" xml:space="preserve">
<style type="text/css">
	.st0{fill:#F1F1F1;}
</style>
<path class="st0" d="M85.1,30.7c0-2.1-0.6-4.2-1.6-6c0-0.1,0-0.1-0.1-0.2l-0.1-0.1c-1.1-1.8-2.6-3.3-4.4-4.4L48.7,2.6
	c-1.9-1.1-3.9-1.6-6-1.6h-0.1h-0.1c-2.1,0-4.1,0.6-6,1.6L6.2,20.1c-1.8,1.1-3.3,2.6-4.4,4.4l-0.1,0.1c0,0,0,0.1-0.1,0.1
	c-1,1.8-1.6,3.9-1.6,6v34.9c0,2.1,0.6,4.2,1.6,6c0,0,0,0.1,0.1,0.1c0,0,0,0,0,0.1c1.1,1.8,2.6,3.4,4.4,4.4l30.3,17.6
	c1.8,1.1,3.9,1.6,6,1.6c0.1,0,0.1,0,0.2,0c0.1,0,0.1,0,0.2,0c2.1,0,4.1-0.6,6-1.6L79,76.3c1.9-1.1,3.4-2.6,4.4-4.4c0,0,0,0,0-0.1
	c0,0,0-0.1,0.1-0.1c1-1.8,1.6-3.9,1.6-6C85.1,65.7,85.1,30.7,85.1,30.7z M7,65.4c0-0.1,0-0.2,0-0.3V31.2c0-0.1,0-0.2,0-0.3l26.1,15
	c-0.2,0.7-0.3,1.5-0.3,2.2s0.1,1.5,0.3,2.2L7,65.4z M74.9,25.9c0.1,0.1,0.2,0.1,0.3,0.2l-26.1,15c-1.1-1-2.3-1.7-3.8-2.2v-30
	c0.1,0,0.2,0.1,0.3,0.1L74.9,25.9z M39.4,9c0.1-0.1,0.2-0.1,0.3-0.1v30c-1.5,0.5-2.7,1.2-3.8,2.2l-26.1-15C9.9,26,10,26,10.1,25.9
	L39.4,9z M10.1,70.5c-0.1-0.1-0.2-0.1-0.3-0.2l26.1-15c1.1,1,2.3,1.7,3.8,2.2v30c-0.1,0-0.2-0.1-0.3-0.1L10.1,70.5z M45.7,87.4
	c-0.1,0.1-0.2,0.1-0.3,0.1v-30c1.5-0.5,2.7-1.2,3.8-2.2l26.1,15c-0.1,0.1-0.2,0.1-0.3,0.2L45.7,87.4z"/>
</svg>
