<!-- Generator: Adobe Illustrator 22.1.0, SVG Export Plug-In  -->
<svg version="1.1"
	 xmlns="http://www.w3.org/2000/svg" xmlns:xlink="http://www.w3.org/1999/xlink" xmlns:a="http://ns.adobe.com/AdobeSVGViewerExtensions/3.0/"
	 x="0px" y="0px" width="105.2px" height="96.8px" viewBox="0 0 105.2 96.8" style="enable-background:new 0 0 105.2 96.8;"
	 xml:space="preserve">
<style type="text/css">
	.st0{fill:#F1F1F1;}
</style>
<defs>
</defs>
<path class="st0" d="M52.6,0C23.6,0,0,23.6,0,52.6c0,18.5,9.6,34.8,24,44.2c-0.1-3.8-0.2-8.1-0.2-12.8c0-19.5,11.2-35.5,25.6-37.6
	c-7.7-1.5-13.5-8.3-13.5-16.4c0-9.2,7.5-16.7,16.7-16.7S69.3,20.7,69.3,30c0,8.1-5.8,14.9-13.5,16.4C70.2,48.5,81.4,64.5,81.4,84
	c0,4.7-0.1,8.9-0.2,12.8c14.4-9.4,24-25.6,24-44.1C105.2,23.6,81.7,0,52.6,0z"/>
</svg>
