<?xml version="1.0" encoding="utf-8"?>
<!-- Generator: Adobe Illustrator 22.1.0, SVG Export Plug-In . SVG Version: 6.00 Build 0)  -->
<svg version="1.1" id="Camada_1" xmlns="http://www.w3.org/2000/svg" xmlns:xlink="http://www.w3.org/1999/xlink" x="0px" y="0px"
	 viewBox="0 0 75 75" style="enable-background:new 0 0 75 75;" xml:space="preserve">
<style type="text/css">
	.st0{fill:#FFFFFF;}
</style>
<g>
	<g>
		<path class="st0" d="M38,70.1c-18.1,0-32.8-14.7-32.8-32.8C5.2,19.3,19.9,4.6,38,4.6c18.1,0,32.8,14.7,32.8,32.8
			C70.8,55.4,56.1,70.1,38,70.1z M38,8.7C22.2,8.7,9.4,21.6,9.4,37.4S22.2,66,38,66s28.6-12.8,28.6-28.6S53.8,8.7,38,8.7z"/>
	</g>
	<g>
		<path class="st0" d="M38,73.4c-18.1,0-32.8-14.7-32.8-32.8S19.9,7.9,38,7.9c18.1,0,32.8,14.7,32.8,32.8S56.1,73.4,38,73.4z M38,12
			C22.2,12,9.4,24.8,9.4,40.6S22.2,69.2,38,69.2s28.6-12.8,28.6-28.6S53.8,12,38,12z"/>
	</g>
	<g>
		<circle cx="38" cy="34.1" r="30.7"/>
		<path class="st0" d="M38,66.9c-18.1,0-32.8-14.7-32.8-32.8C5.2,16.1,19.9,1.4,38,1.4c18.1,0,32.8,14.7,32.8,32.8
			C70.8,52.2,56.1,66.9,38,66.9z M38,5.5C22.2,5.5,9.4,18.3,9.4,34.1S22.2,62.8,38,62.8s28.6-12.8,28.6-28.6S53.8,5.5,38,5.5z"/>
	</g>
	<g>
		<polygon class="st0" points="42.8,34.6 48.7,28.7 48.7,23.9 43.9,23.9 38,29.8 32.1,23.9 27.2,23.9 27.2,28.7 33.2,34.6 
			27.2,40.6 27.2,45.4 32,45.4 38,39.4 43.9,45.3 48.7,45.4 48.7,40.5 		"/>
	</g>
</g>
<g>
</g>
<g>
</g>
<g>
</g>
<g>
</g>
<g>
</g>
<g>
</g>
</svg>
