<?xml version="1.0" encoding="utf-8"?>
<!-- Generator: Adobe Illustrator 22.1.0, SVG Export Plug-In . SVG Version: 6.00 Build 0)  -->
<svg version="1.1" id="Camada_1" xmlns="http://www.w3.org/2000/svg" xmlns:xlink="http://www.w3.org/1999/xlink" x="0px" y="0px"
	 viewBox="0 0 625 625" style="enable-background:new 0 0 625 625;" xml:space="preserve">
<style type="text/css">
	.st0{fill:#92D400;}
	.st1{fill:#FFFFFF;}
</style>
<rect class="st0" width="625" height="625"/>
<g>
	<path class="st1" d="M129.6,327.7h-33l-6.9,19.9H74.3l32.2-85.3h13.3l32.3,85.3h-15.5L129.6,327.7z M100.7,315.8h24.7l-12.4-35.4
		L100.7,315.8z"/>
	<path class="st1" d="M179.8,329.5l13.4-45.4h14.7l-22,63.4h-12.4l-22.1-63.4h14.8L179.8,329.5z"/>
	<path class="st1" d="M243.9,348.7c-9,0-16.3-2.8-21.9-8.5c-5.6-5.7-8.4-13.3-8.4-22.7v-1.8c0-6.3,1.2-12,3.7-17
		c2.4-5,5.9-8.9,10.3-11.6c4.4-2.8,9.3-4.2,14.8-4.2c8.6,0,15.3,2.8,20,8.3c4.7,5.5,7.1,13.3,7.1,23.4v5.7h-41.4
		c0.4,5.2,2.2,9.4,5.2,12.4c3.1,3,6.9,4.6,11.6,4.6c6.5,0,11.8-2.6,15.9-7.9l7.7,7.3c-2.5,3.8-5.9,6.7-10.2,8.8
		C254,347.7,249.2,348.7,243.9,348.7z M242.2,294.4c-3.9,0-7.1,1.4-9.5,4.1c-2.4,2.7-3.9,6.5-4.6,11.4h27.1v-1.1
		c-0.3-4.8-1.6-8.4-3.8-10.8C249.3,295.6,246.2,294.4,242.2,294.4z"/>
	<path class="st1" d="M293.6,284.2l0.4,7.3c4.7-5.7,10.8-8.5,18.5-8.5c13.2,0,19.9,7.6,20.2,22.7v41.9h-14.2v-41.1
		c0-4-0.9-7-2.6-8.9c-1.7-1.9-4.6-2.9-8.5-2.9c-5.7,0-10,2.6-12.8,7.8v45.1h-14.2v-63.4H293.6z"/>
	<path class="st1" d="M365,268.8v15.4h11.2v10.5H365v35.4c0,2.4,0.5,4.2,1.4,5.2c1,1.1,2.7,1.6,5.1,1.6c1.6,0,3.3-0.2,5-0.6v11
		c-3.2,0.9-6.4,1.3-9.4,1.3c-10.9,0-16.4-6-16.4-18.1v-35.9h-10.4v-10.5h10.4v-15.4H365z"/>
	<path class="st1" d="M425.5,341.4c-4.2,4.9-10.1,7.4-17.8,7.4c-6.9,0-12.1-2-15.6-6c-3.5-4-5.3-9.8-5.3-17.5v-41.1H401v40.9
		c0,8,3.3,12.1,10,12.1c6.9,0,11.6-2.5,14-7.4v-45.5h14.2v63.4h-13.4L425.5,341.4z"/>
	<path class="st1" d="M486.9,297.2c-1.9-0.3-3.8-0.5-5.8-0.5c-6.5,0-10.9,2.5-13.2,7.5v43.4h-14.2v-63.4h13.6l0.4,7.1
		c3.4-5.5,8.2-8.3,14.3-8.3c2,0,3.7,0.3,5,0.8L486.9,297.2z"/>
	<path class="st1" d="M532.1,347.6c-0.6-1.2-1.2-3.2-1.6-5.9c-4.5,4.7-10.1,7.1-16.6,7.1c-6.4,0-11.6-1.8-15.6-5.4
		c-4-3.6-6-8.1-6-13.5c0-6.8,2.5-11.9,7.5-15.6c5-3.6,12.2-5.4,21.5-5.4h8.7v-4.2c0-3.3-0.9-5.9-2.8-7.9c-1.8-2-4.6-3-8.4-3
		c-3.2,0-5.9,0.8-8,2.4c-2.1,1.6-3.1,3.7-3.1,6.2h-14.2c0-3.5,1.2-6.7,3.5-9.8c2.3-3,5.4-5.4,9.4-7.1c4-1.7,8.4-2.6,13.3-2.6
		c7.4,0,13.3,1.9,17.8,5.6c4.4,3.7,6.7,9,6.8,15.7v28.6c0,5.7,0.8,10.3,2.4,13.7v1H532.1z M516.4,337.3c2.8,0,5.5-0.7,7.9-2.1
		c2.5-1.4,4.3-3.2,5.6-5.5v-12h-7.7c-5.3,0-9.2,0.9-11.9,2.8c-2.7,1.8-4,4.4-4,7.8c0,2.7,0.9,4.9,2.7,6.5
		C510.9,336.5,513.4,337.3,516.4,337.3z"/>
</g>
<g>
</g>
<g>
</g>
<g>
</g>
<g>
</g>
<g>
</g>
<g>
</g>
</svg>
