<?xml version="1.0" encoding="utf-8"?>
<!-- Generator: Adobe Illustrator 22.1.0, SVG Export Plug-In . SVG Version: 6.00 Build 0)  -->
<svg version="1.1" id="Camada_1" xmlns="http://www.w3.org/2000/svg" xmlns:xlink="http://www.w3.org/1999/xlink" x="0px" y="0px"
	 viewBox="0 0 625 625" style="enable-background:new 0 0 625 625;" xml:space="preserve">
<style type="text/css">
	.st0{fill:#EC6B00;}
	.st1{fill:#FFFFFF;}
</style>
<rect class="st0" width="625" height="625"/>
<g>
	<path class="st1" d="M189.1,319.8c-0.9,9.1-4.2,16.2-10.1,21.3s-13.7,7.6-23.4,7.6c-6.8,0-12.8-1.6-18-4.8
		c-5.2-3.2-9.2-7.8-12-13.7c-2.8-5.9-4.3-12.8-4.4-20.7v-8c0-8,1.4-15.1,4.3-21.3c2.9-6.1,6.9-10.9,12.3-14.2c5.3-3.3,11.5-5,18.5-5
		c9.4,0,17,2.5,22.7,7.6s9.1,12.3,10,21.7h-14.8c-0.7-6.1-2.5-10.6-5.4-13.3c-2.9-2.7-7.1-4.1-12.6-4.1c-6.4,0-11.4,2.4-14.9,7.1
		c-3.5,4.7-5.2,11.6-5.3,20.7v7.6c0,9.2,1.6,16.3,5,21.1c3.3,4.8,8.1,7.3,14.5,7.3c5.8,0,10.2-1.3,13.1-3.9c2.9-2.6,4.8-7,5.6-13.1
		H189.1z"/>
	<path class="st1" d="M198.3,315.3c0-6.2,1.2-11.8,3.7-16.8s5.9-8.8,10.4-11.5c4.5-2.7,9.6-4,15.4-4c8.6,0,15.5,2.8,20.8,8.3
		s8.2,12.8,8.6,21.9l0.1,3.3c0,6.3-1.2,11.8-3.6,16.8s-5.8,8.7-10.3,11.4c-4.5,2.7-9.6,4-15.5,4c-8.9,0-16.1-3-21.5-8.9
		c-5.4-6-8.1-13.9-8.1-23.8V315.3z M212.5,316.5c0,6.5,1.3,11.6,4,15.3s6.4,5.5,11.3,5.5s8.5-1.9,11.2-5.6c2.7-3.8,4-9.2,4-16.5
		c0-6.4-1.4-11.5-4.1-15.2s-6.5-5.6-11.2-5.6c-4.6,0-8.3,1.8-11.1,5.5C213.9,303.7,212.5,309.2,212.5,316.5z"/>
	<path class="st1" d="M302.5,297.2c-1.9-0.3-3.8-0.5-5.8-0.5c-6.5,0-10.9,2.5-13.2,7.5v43.4h-14.2v-63.4h13.6l0.4,7.1
		c3.4-5.5,8.2-8.3,14.3-8.3c2,0,3.7,0.3,5,0.8L302.5,297.2z"/>
	<path class="st1" d="M344.7,297.2c-1.9-0.3-3.8-0.5-5.8-0.5c-6.5,0-10.9,2.5-13.2,7.5v43.4h-14.2v-63.4H325l0.4,7.1
		c3.4-5.5,8.2-8.3,14.3-8.3c2,0,3.7,0.3,5,0.8L344.7,297.2z"/>
	<path class="st1" d="M353.7,267.7c0-2.2,0.7-4,2.1-5.4c1.4-1.4,3.4-2.2,5.9-2.2s4.6,0.7,6,2.2c1.4,1.4,2.1,3.3,2.1,5.4
		c0,2.1-0.7,3.9-2.1,5.4c-1.4,1.4-3.4,2.1-6,2.1s-4.6-0.7-5.9-2.1C354.4,271.6,353.7,269.9,353.7,267.7z M368.8,347.6h-14.2v-63.4
		h14.2V347.6z"/>
	<path class="st1" d="M381.6,315.4c0-9.8,2.3-17.6,6.8-23.5c4.5-5.9,10.6-8.9,18.2-8.9c6.7,0,12.1,2.3,16.3,7v-32.5h14.2v90h-12.9
		l-0.7-6.6c-4.3,5.2-9.9,7.7-17.1,7.7c-7.4,0-13.4-3-18-9C383.9,333.8,381.6,325.7,381.6,315.4z M395.9,316.6
		c0,6.4,1.2,11.5,3.7,15.1c2.5,3.6,6,5.4,10.6,5.4c5.8,0,10.1-2.6,12.8-7.8v-27.1c-2.6-5.1-6.8-7.6-12.7-7.6
		c-4.6,0-8.2,1.8-10.7,5.5C397.1,303.8,395.9,309.3,395.9,316.6z"/>
	<path class="st1" d="M489.9,347.6c-0.6-1.2-1.2-3.2-1.6-5.9c-4.5,4.7-10.1,7.1-16.6,7.1c-6.4,0-11.6-1.8-15.6-5.4
		c-4-3.6-6-8.1-6-13.5c0-6.8,2.5-11.9,7.5-15.6c5-3.6,12.2-5.4,21.5-5.4h8.7v-4.2c0-3.3-0.9-5.9-2.8-7.9c-1.8-2-4.6-3-8.4-3
		c-3.2,0-5.9,0.8-8,2.4c-2.1,1.6-3.1,3.7-3.1,6.2h-14.2c0-3.5,1.2-6.7,3.5-9.8c2.3-3,5.4-5.4,9.4-7.1c4-1.7,8.4-2.6,13.3-2.6
		c7.4,0,13.3,1.9,17.8,5.6c4.4,3.7,6.7,9,6.8,15.7v28.6c0,5.7,0.8,10.3,2.4,13.7v1H489.9z M474.3,337.3c2.8,0,5.5-0.7,7.9-2.1
		c2.5-1.4,4.3-3.2,5.6-5.5v-12h-7.7c-5.3,0-9.2,0.9-11.9,2.8c-2.7,1.8-4,4.4-4,7.8c0,2.7,0.9,4.9,2.7,6.5
		C468.8,336.5,471.2,337.3,474.3,337.3z"/>
</g>
<g>
</g>
<g>
</g>
<g>
</g>
<g>
</g>
<g>
</g>
<g>
</g>
</svg>
