<?xml version="1.0" encoding="utf-8"?>
<!-- Generator: Adobe Illustrator 22.1.0, SVG Export Plug-In . SVG Version: 6.00 Build 0)  -->
<svg version="1.1" id="Camada_1" xmlns="http://www.w3.org/2000/svg" xmlns:xlink="http://www.w3.org/1999/xlink" x="0px" y="0px"
	 viewBox="0 0 1000 618" style="enable-background:new 0 0 1000 618;" xml:space="preserve">
<style type="text/css">
	.st0{fill:#FFFFFF;}
</style>
<path class="st0" d="M500,204.1c-91.7,0-166,74.3-166,166s74.3,166,166,166s166-74.3,166-166S591.7,204.1,500,204.1z M558.8,366.6
	l-20.2,14.7c-3.7,2.7-5.3,7.5-3.9,11.9l7.7,23.8c3.2,9.8-8,17.9-16.3,11.9l-20.2-14.7c-3.7-2.7-8.8-2.7-12.5,0l-20.2,14.7
	c-8.3,6-19.5-2.1-16.3-11.9l7.7-23.8c1.4-4.4-0.1-9.2-3.9-11.9l-20.2-14.7c-8.3-6-4-19.2,6.2-19.2h25c4.6,0,8.7-3,10.1-7.3l7.7-23.8
	c3.2-9.8,17-9.8,20.2,0l7.7,23.8c1.4,4.4,5.5,7.3,10.1,7.3h25C562.8,347.4,567.1,360.6,558.8,366.6z"/>
<path class="st0" d="M500,3.4c-35,0-63.4,28.4-63.4,63.4s28.4,63.4,63.4,63.4s63.4-28.4,63.4-63.4S535,3.4,500,3.4z M501,27.7
	c20.6,0,37.4,16.8,37.4,37.4s-16.8,37.4-37.4,37.4v7.8c0,1.3-1.5,2.1-2.5,1.3l-17.7-12.8c-0.9-0.6-0.9-2,0-2.6l17.7-12.8
	c1.1-0.8,2.5,0,2.5,1.3v7.8c15.1,0,27.4-12.3,27.4-27.4c0-15.1-12.3-27.4-27.4-27.4S473.6,50,473.6,65.1c0,2.8-2.2,5-5,5s-5-2.2-5-5
	C463.6,44.4,480.4,27.7,501,27.7z"/>
<g>
	<path class="st0" d="M394.3,604h-17.4l-3.6,10.5h-8.1l17-45h7l17,45H398L394.3,604z M379.1,597.7h13l-6.5-18.7L379.1,597.7z"/>
	<path class="st0" d="M409.1,597.5c0-5.1,1.2-9.3,3.6-12.4c2.4-3.1,5.6-4.7,9.6-4.7c3.5,0,6.4,1.2,8.6,3.7V567h7.5v47.5h-6.8
		l-0.4-3.5c-2.2,2.7-5.2,4.1-9,4.1c-3.9,0-7.1-1.6-9.5-4.7C410.3,607.2,409.1,602.9,409.1,597.5z M416.6,598.1c0,3.4,0.7,6.1,2,8
		c1.3,1.9,3.2,2.9,5.6,2.9c3.1,0,5.3-1.4,6.7-4.1v-14.3c-1.4-2.7-3.6-4-6.7-4c-2.4,0-4.3,1-5.6,2.9
		C417.3,591.4,416.6,594.3,416.6,598.1z"/>
	<path class="st0" d="M446.2,572.3c0-1.2,0.4-2.1,1.1-2.9c0.7-0.8,1.8-1.1,3.1-1.1c1.4,0,2.4,0.4,3.2,1.1c0.7,0.8,1.1,1.7,1.1,2.9
		c0,1.1-0.4,2.1-1.1,2.8c-0.7,0.8-1.8,1.1-3.2,1.1c-1.4,0-2.4-0.4-3.1-1.1C446.6,574.4,446.2,573.5,446.2,572.3z M454.2,614.5h-7.5
		V581h7.5V614.5z"/>
	<path class="st0" d="M476.1,609.1c1.9,0,3.4-0.5,4.7-1.6s1.9-2.4,2-4h7.1c-0.1,2.1-0.7,4-1.9,5.8c-1.2,1.8-2.9,3.2-4.9,4.3
		c-2.1,1.1-4.3,1.6-6.7,1.6c-4.7,0-8.4-1.5-11.1-4.5c-2.7-3-4.1-7.2-4.1-12.5v-0.8c0-5.1,1.4-9.2,4.1-12.2c2.7-3.1,6.4-4.6,11.1-4.6
		c4,0,7.2,1.2,9.7,3.5c2.5,2.3,3.8,5.4,3.9,9.1h-7.1c-0.1-1.9-0.7-3.5-2-4.7c-1.2-1.2-2.8-1.9-4.7-1.9c-2.4,0-4.3,0.9-5.6,2.6
		c-1.3,1.8-2,4.4-2,8v1.2c0,3.6,0.7,6.3,2,8.1C471.7,608.2,473.6,609.1,476.1,609.1z"/>
	<path class="st0" d="M495.5,572.3c0-1.2,0.4-2.1,1.1-2.9c0.7-0.8,1.8-1.1,3.1-1.1c1.4,0,2.4,0.4,3.2,1.1c0.7,0.8,1.1,1.7,1.1,2.9
		c0,1.1-0.4,2.1-1.1,2.8c-0.7,0.8-1.8,1.1-3.2,1.1c-1.4,0-2.4-0.4-3.1-1.1C495.9,574.4,495.5,573.5,495.5,572.3z M503.5,614.5H496
		V581h7.5V614.5z"/>
	<path class="st0" d="M510.2,597.4c0-3.3,0.6-6.2,1.9-8.9c1.3-2.6,3.1-4.6,5.5-6.1c2.3-1.4,5-2.1,8.1-2.1c4.5,0,8.2,1.5,11,4.4
		s4.3,6.8,4.6,11.6l0,1.8c0,3.3-0.6,6.2-1.9,8.8c-1.3,2.6-3.1,4.6-5.4,6c-2.4,1.4-5.1,2.1-8.2,2.1c-4.7,0-8.5-1.6-11.3-4.7
		c-2.8-3.1-4.2-7.3-4.2-12.6V597.4z M517.8,598.1c0,3.4,0.7,6.1,2.1,8.1c1.4,1.9,3.4,2.9,5.9,2.9c2.5,0,4.5-1,5.9-3
		c1.4-2,2.1-4.9,2.1-8.7c0-3.4-0.7-6.1-2.2-8c-1.5-2-3.4-3-5.9-3c-2.5,0-4.4,1-5.8,2.9C518.5,591.3,517.8,594.2,517.8,598.1z"/>
	<path class="st0" d="M554.6,581l0.2,3.9c2.5-3,5.7-4.5,9.7-4.5c7,0,10.5,4,10.6,12v22.1h-7.5v-21.7c0-2.1-0.5-3.7-1.4-4.7
		c-0.9-1-2.4-1.5-4.5-1.5c-3,0-5.3,1.4-6.8,4.1v23.8h-7.5V581H554.6z"/>
	<path class="st0" d="M602.8,614.5c-0.3-0.6-0.6-1.7-0.9-3.1c-2.4,2.5-5.3,3.7-8.8,3.7c-3.4,0-6.1-1-8.2-2.9
		c-2.1-1.9-3.2-4.3-3.2-7.1c0-3.6,1.3-6.3,4-8.2c2.6-1.9,6.4-2.9,11.4-2.9h4.6v-2.2c0-1.7-0.5-3.1-1.5-4.2c-1-1-2.4-1.6-4.4-1.6
		c-1.7,0-3.1,0.4-4.2,1.3c-1.1,0.9-1.6,1.9-1.6,3.3h-7.5c0-1.8,0.6-3.5,1.8-5.1c1.2-1.6,2.9-2.8,5-3.8c2.1-0.9,4.4-1.4,7-1.4
		c3.9,0,7,1,9.4,3c2.3,2,3.5,4.7,3.6,8.3v15.1c0,3,0.4,5.4,1.3,7.2v0.5H602.8z M594.6,609.1c1.5,0,2.9-0.4,4.2-1.1
		c1.3-0.7,2.3-1.7,3-2.9v-6.3h-4c-2.8,0-4.9,0.5-6.3,1.5c-1.4,1-2.1,2.3-2.1,4.1c0,1.4,0.5,2.6,1.4,3.4
		C591.7,608.6,593,609.1,594.6,609.1z"/>
	<path class="st0" d="M634.6,587.9c-1-0.2-2-0.2-3.1-0.2c-3.4,0-5.8,1.3-7,4v22.9h-7.5V581h7.2l0.2,3.7c1.8-2.9,4.3-4.4,7.5-4.4
		c1.1,0,2,0.1,2.7,0.4L634.6,587.9z"/>
</g>
<g>
	<path class="st0" d="M600.5,43.3v12.1h-5.7V22.8h12.4c3.6,0,6.5,0.9,8.7,2.8s3.2,4.4,3.2,7.5c0,3.2-1,5.7-3.1,7.5
		c-2.1,1.8-5,2.7-8.8,2.7H600.5z M600.5,38.7h6.8c2,0,3.5-0.5,4.6-1.4c1.1-0.9,1.6-2.3,1.6-4.1c0-1.8-0.5-3.2-1.6-4.2
		c-1.1-1.1-2.5-1.6-4.4-1.6h-7V38.7z"/>
	<path class="st0" d="M636.3,36.2c-0.7-0.1-1.5-0.2-2.2-0.2c-2.5,0-4.2,1-5,2.9v16.5h-5.4V31.2h5.2l0.1,2.7c1.3-2.1,3.1-3.2,5.5-3.2
		c0.8,0,1.4,0.1,1.9,0.3L636.3,36.2z"/>
	<path class="st0" d="M637.9,43.1c0-2.4,0.5-4.5,1.4-6.4c0.9-1.9,2.3-3.4,4-4.4c1.7-1,3.7-1.5,5.9-1.5c3.3,0,5.9,1.1,7.9,3.2
		c2,2.1,3.1,4.9,3.3,8.4l0,1.3c0,2.4-0.5,4.5-1.4,6.4s-2.2,3.3-3.9,4.4c-1.7,1-3.7,1.5-5.9,1.5c-3.4,0-6.1-1.1-8.2-3.4
		s-3.1-5.3-3.1-9.1V43.1z M643.3,43.5c0,2.5,0.5,4.4,1.5,5.8s2.5,2.1,4.3,2.1c1.8,0,3.3-0.7,4.3-2.1c1-1.4,1.5-3.5,1.5-6.3
		c0-2.4-0.5-4.4-1.6-5.8c-1.1-1.4-2.5-2.1-4.3-2.1c-1.8,0-3.2,0.7-4.2,2.1S643.3,40.7,643.3,43.5z"/>
	<path class="st0" d="M674.9,51.5c1.4,0,2.5-0.4,3.4-1.2c0.9-0.8,1.4-1.8,1.4-2.9h5.1c-0.1,1.5-0.5,2.9-1.4,4.2
		c-0.9,1.3-2.1,2.3-3.6,3.1s-3.1,1.1-4.9,1.1c-3.4,0-6.1-1.1-8-3.3c-2-2.2-3-5.2-3-9.1v-0.6c0-3.7,1-6.6,3-8.8c2-2.2,4.6-3.3,8-3.3
		c2.9,0,5.2,0.8,7,2.5c1.8,1.7,2.8,3.9,2.8,6.6h-5.1c-0.1-1.4-0.5-2.5-1.4-3.4s-2-1.3-3.4-1.3c-1.8,0-3.1,0.6-4.1,1.9
		c-1,1.3-1.4,3.2-1.5,5.8v0.9c0,2.6,0.5,4.6,1.4,5.9C671.7,50.8,673.1,51.5,674.9,51.5z"/>
	<path class="st0" d="M703.6,53c-1.6,1.9-3.9,2.8-6.8,2.8c-2.6,0-4.6-0.8-6-2.3c-1.3-1.5-2-3.8-2-6.7V31.2h5.4v15.6
		c0,3.1,1.3,4.6,3.8,4.6c2.6,0,4.4-0.9,5.3-2.8V31.2h5.4v24.2h-5.1L703.6,53z"/>
	<path class="st0" d="M727,36.2c-0.7-0.1-1.5-0.2-2.2-0.2c-2.5,0-4.2,1-5,2.9v16.5h-5.4V31.2h5.2l0.1,2.7c1.3-2.1,3.1-3.2,5.5-3.2
		c0.8,0,1.4,0.1,1.9,0.3L727,36.2z"/>
	<path class="st0" d="M744.2,55.4c-0.2-0.5-0.4-1.2-0.6-2.3c-1.7,1.8-3.8,2.7-6.3,2.7c-2.4,0-4.4-0.7-5.9-2.1
		c-1.5-1.4-2.3-3.1-2.3-5.1c0-2.6,1-4.6,2.9-5.9c1.9-1.4,4.7-2.1,8.2-2.1h3.3V39c0-1.3-0.3-2.3-1.1-3c-0.7-0.8-1.8-1.1-3.2-1.1
		c-1.2,0-2.2,0.3-3,0.9c-0.8,0.6-1.2,1.4-1.2,2.4h-5.4c0-1.3,0.4-2.6,1.3-3.7c0.9-1.2,2.1-2.1,3.6-2.7c1.5-0.7,3.2-1,5.1-1
		c2.8,0,5.1,0.7,6.8,2.1c1.7,1.4,2.5,3.4,2.6,6v10.9c0,2.2,0.3,3.9,0.9,5.2v0.4H744.2z M738.3,51.5c1.1,0,2.1-0.3,3-0.8
		c0.9-0.5,1.7-1.2,2.1-2.1V44h-2.9c-2,0-3.5,0.3-4.5,1.1c-1,0.7-1.5,1.7-1.5,3c0,1,0.3,1.9,1,2.5C736.2,51.2,737.1,51.5,738.3,51.5z
		"/>
	<path class="st0" d="M767.2,36.2c-0.7-0.1-1.5-0.2-2.2-0.2c-2.5,0-4.2,1-5,2.9v16.5h-5.4V31.2h5.2l0.1,2.7c1.3-2.1,3.1-3.2,5.5-3.2
		c0.8,0,1.4,0.1,1.9,0.3L767.2,36.2z"/>
	<path class="st0" d="M620.7,100.3H615l-14.5-23.1v23.1h-5.7V67.8h5.7l14.5,23.2V67.8h5.6V100.3z"/>
	<path class="st0" d="M625.8,88c0-2.4,0.5-4.5,1.4-6.4c0.9-1.9,2.3-3.4,4-4.4c1.7-1,3.7-1.5,5.9-1.5c3.3,0,5.9,1.1,7.9,3.2
		s3.1,4.9,3.3,8.4l0,1.3c0,2.4-0.5,4.5-1.4,6.4c-0.9,1.9-2.2,3.3-3.9,4.4c-1.7,1-3.7,1.5-5.9,1.5c-3.4,0-6.1-1.1-8.2-3.4
		s-3.1-5.3-3.1-9.1V88z M631.3,88.5c0,2.5,0.5,4.4,1.5,5.8s2.5,2.1,4.3,2.1c1.8,0,3.3-0.7,4.3-2.1c1-1.4,1.5-3.5,1.5-6.3
		c0-2.4-0.5-4.4-1.6-5.8c-1.1-1.4-2.5-2.1-4.3-2.1c-1.8,0-3.2,0.7-4.2,2.1S631.3,85.7,631.3,88.5z"/>
	<path class="st0" d="M661.1,93.4l5.1-17.3h5.6l-8.4,24.2h-4.7l-8.4-24.2h5.6L661.1,93.4z"/>
	<path class="st0" d="M689.3,100.3c-0.2-0.5-0.4-1.2-0.6-2.3c-1.7,1.8-3.8,2.7-6.3,2.7c-2.4,0-4.4-0.7-5.9-2.1
		c-1.5-1.4-2.3-3.1-2.3-5.1c0-2.6,1-4.6,2.9-5.9c1.9-1.4,4.7-2.1,8.2-2.1h3.3v-1.6c0-1.3-0.3-2.3-1.1-3c-0.7-0.8-1.8-1.1-3.2-1.1
		c-1.2,0-2.2,0.3-3,0.9c-0.8,0.6-1.2,1.4-1.2,2.4h-5.4c0-1.3,0.4-2.6,1.3-3.7c0.9-1.2,2.1-2.1,3.6-2.7s3.2-1,5.1-1
		c2.8,0,5.1,0.7,6.8,2.1c1.7,1.4,2.5,3.4,2.6,6v10.9c0,2.2,0.3,3.9,0.9,5.2v0.4H689.3z M683.4,96.4c1.1,0,2.1-0.3,3-0.8
		c0.9-0.5,1.7-1.2,2.1-2.1v-4.6h-2.9c-2,0-3.5,0.3-4.5,1.1s-1.5,1.7-1.5,3c0,1,0.3,1.9,1,2.5C681.3,96.1,682.2,96.4,683.4,96.4z"/>
	<path class="st0" d="M704.8,76.1l0.2,2.5c1.7-2,4-3,7-3c3.2,0,5.4,1.2,6.6,3.7c1.8-2.5,4.2-3.7,7.4-3.7c2.7,0,4.7,0.7,6,2.2
		c1.3,1.5,2,3.7,2,6.5v15.9h-5.4V84.6c0-1.5-0.3-2.7-1-3.4s-1.8-1.1-3.3-1.1c-1.2,0-2.2,0.3-3,1s-1.3,1.5-1.6,2.6l0,16.6h-5.4V84.4
		c-0.1-2.8-1.5-4.3-4.4-4.3c-2.2,0-3.7,0.9-4.6,2.7v17.5h-5.4V76.1H704.8z"/>
	<path class="st0" d="M750.1,100.7c-3.4,0-6.2-1.1-8.4-3.3s-3.2-5.1-3.2-8.7v-0.7c0-2.4,0.5-4.6,1.4-6.5c0.9-1.9,2.2-3.4,3.9-4.4
		c1.7-1.1,3.6-1.6,5.6-1.6c3.3,0,5.8,1.1,7.6,3.2c1.8,2.1,2.7,5.1,2.7,8.9v2.2H744c0.2,2,0.8,3.6,2,4.7c1.2,1.2,2.6,1.7,4.4,1.7
		c2.5,0,4.5-1,6.1-3l2.9,2.8c-1,1.4-2.3,2.6-3.9,3.4S752.1,100.7,750.1,100.7z M749.5,80c-1.5,0-2.7,0.5-3.6,1.6
		c-0.9,1-1.5,2.5-1.8,4.4h10.3v-0.4c-0.1-1.8-0.6-3.2-1.5-4.1S751,80,749.5,80z"/>
	<path class="st0" d="M769.1,76.1l0.2,2.8c1.8-2.2,4.1-3.2,7-3.2c5,0,7.6,2.9,7.7,8.6v16h-5.4V84.6c0-1.5-0.3-2.7-1-3.4
		s-1.7-1.1-3.3-1.1c-2.2,0-3.8,1-4.9,3v17.2H764V76.1H769.1z"/>
	<path class="st0" d="M796.3,70.2v5.9h4.3v4h-4.3v13.5c0,0.9,0.2,1.6,0.5,2c0.4,0.4,1,0.6,2,0.6c0.6,0,1.3-0.1,1.9-0.2v4.2
		c-1.2,0.3-2.4,0.5-3.6,0.5c-4.2,0-6.3-2.3-6.3-6.9V80.1h-4v-4h4v-5.9H796.3z"/>
	<path class="st0" d="M815.4,100.7c-3.4,0-6.2-1.1-8.4-3.3s-3.2-5.1-3.2-8.7v-0.7c0-2.4,0.5-4.6,1.4-6.5c0.9-1.9,2.2-3.4,3.9-4.4
		c1.7-1.1,3.6-1.6,5.6-1.6c3.3,0,5.8,1.1,7.6,3.2c1.8,2.1,2.7,5.1,2.7,8.9v2.2h-15.8c0.2,2,0.8,3.6,2,4.7c1.2,1.2,2.6,1.7,4.4,1.7
		c2.5,0,4.5-1,6.1-3l2.9,2.8c-1,1.4-2.3,2.6-3.9,3.4S817.4,100.7,815.4,100.7z M814.7,80c-1.5,0-2.7,0.5-3.6,1.6
		c-0.9,1-1.5,2.5-1.8,4.4h10.3v-0.4c-0.1-1.8-0.6-3.2-1.5-4.1C817.4,80.5,816.2,80,814.7,80z"/>
</g>
</svg>
