<?xml version="1.0" encoding="UTF-8"?>
<svg enable-background="new 0 0 792.7 332" version="1.1" viewBox="0 0 792.7 332" xml:space="preserve" xmlns="http://www.w3.org/2000/svg">
<style type="text/css">
	.st0{fill:#FFFFFF;}
</style>
		<path class="st0" d="m295.9 308.9h-18.5l-4.1 11.5h-6l16.8-44.1h5.1l16.9 44.1h-6l-4.2-11.5zm-16.7-4.7h15l-7.5-20.6-7.5 20.6z"/>
		<path class="st0" d="m309.8 303.8c0-5 1.2-9.1 3.6-12.1 2.4-3.1 5.5-4.6 9.4-4.6 3.8 0 6.9 1.3 9.1 3.9v-17h5.6v46.5h-5.1l-0.3-3.5c-2.2 2.7-5.4 4.1-9.4 4.1-3.8 0-6.9-1.6-9.3-4.7s-3.6-7.2-3.6-12.2v-0.4zm5.6 0.6c0 3.7 0.8 6.6 2.3 8.7s3.7 3.1 6.4 3.1c3.6 0 6.1-1.6 7.8-4.8v-15c-1.7-3.1-4.2-4.6-7.7-4.6-2.7 0-4.9 1.1-6.4 3.2-1.6 2.1-2.4 5.3-2.4 9.4z"/>
		<path class="st0" d="m346.2 279c0-0.9 0.3-1.7 0.8-2.3 0.6-0.6 1.4-0.9 2.5-0.9s1.9 0.3 2.5 0.9 0.8 1.4 0.8 2.3-0.3 1.7-0.8 2.3c-0.6 0.6-1.4 0.9-2.5 0.9s-1.9-0.3-2.5-0.9-0.8-1.4-0.8-2.3zm6 41.5h-5.6v-32.8h5.6v32.8z"/>
		<path class="st0" d="m374.3 316.5c2 0 3.7-0.6 5.2-1.8s2.3-2.7 2.5-4.5h5.3c-0.1 1.9-0.7 3.7-1.9 5.4s-2.8 3-4.8 4.1c-2 1-4.1 1.5-6.3 1.5-4.5 0-8-1.5-10.6-4.5s-4-7-4-12.2v-0.9c0-3.2 0.6-6 1.8-8.5s2.9-4.4 5-5.8c2.2-1.4 4.8-2.1 7.8-2.1 3.7 0 6.7 1.1 9.2 3.3 2.4 2.2 3.7 5.1 3.9 8.6h-5.4c-0.2-2.1-1-3.9-2.4-5.2-1.4-1.4-3.2-2-5.3-2-2.8 0-5.1 1-6.6 3.1-1.6 2-2.3 5-2.3 8.9v1.1c0 3.8 0.8 6.7 2.3 8.7 1.5 1.8 3.7 2.8 6.6 2.8z"/>
		<path class="st0" d="m393.7 279c0-0.9 0.3-1.7 0.8-2.3 0.6-0.6 1.4-0.9 2.5-0.9s1.9 0.3 2.5 0.9 0.8 1.4 0.8 2.3-0.3 1.7-0.8 2.3c-0.6 0.6-1.4 0.9-2.5 0.9s-1.9-0.3-2.5-0.9-0.8-1.4-0.8-2.3zm6 41.5h-5.6v-32.8h5.6v32.8z"/>
		<path class="st0" d="m407.2 303.8c0-3.2 0.6-6.1 1.9-8.7s3-4.5 5.3-5.9 4.8-2.1 7.7-2.1c4.5 0 8.1 1.5 10.8 4.6 2.8 3.1 4.1 7.2 4.1 12.3v0.4c0 3.2-0.6 6-1.8 8.6-1.2 2.5-3 4.5-5.2 5.9-2.3 1.4-4.9 2.1-7.8 2.1-4.4 0-8-1.5-10.8-4.6s-4.1-7.2-4.1-12.3v-0.3zm5.6 0.6c0 3.6 0.8 6.5 2.5 8.7s3.9 3.3 6.8 3.3c2.8 0 5.1-1.1 6.8-3.3s2.5-5.4 2.5-9.4c0-3.6-0.9-6.5-2.6-8.7s-4-3.3-6.8-3.3-5 1.1-6.7 3.3-2.5 5.3-2.5 9.4z"/>
		<path class="st0" d="m449.3 287.7l0.2 4.1c2.5-3.1 5.8-4.7 9.8-4.7 6.9 0 10.4 3.9 10.5 11.7v21.6h-5.6v-21.7c0-2.4-0.6-4.1-1.6-5.2-1.1-1.1-2.7-1.7-5-1.7-1.8 0-3.4 0.5-4.8 1.5s-2.4 2.2-3.2 3.8v23.3h-5.6v-32.8h5.3z"/>
		<path class="st0" d="m498.5 320.5c-0.3-0.6-0.6-1.8-0.8-3.5-2.6 2.7-5.7 4.1-9.3 4.1-3.2 0-5.9-0.9-7.9-2.7-2.1-1.8-3.1-4.1-3.1-6.9 0-3.4 1.3-6.1 3.9-7.9 2.6-1.9 6.2-2.8 10.9-2.8h5.4v-2.8c0-2-0.6-3.5-1.8-4.7s-2.9-1.7-5.2-1.7c-2 0-3.7 0.5-5 1.5-1.4 1-2 2.2-2 3.7h-5.6c0-1.6 0.6-3.2 1.7-4.7 1.2-1.5 2.7-2.7 4.7-3.6s4.2-1.3 6.6-1.3c3.8 0 6.7 0.9 8.9 2.8 2.1 1.9 3.2 4.5 3.3 7.8v15.1c0 3 0.4 5.4 1.2 7.2v0.5h-5.9zm-9.3-4.3c1.8 0 3.4-0.5 5-1.4s2.7-2.1 3.4-3.5v-6.7h-4.4c-6.9 0-10.3 2-10.3 6 0 1.8 0.6 3.1 1.8 4.1 1.1 1 2.6 1.5 4.5 1.5z"/>
		<path class="st0" d="m527.8 292.7c-0.8-0.1-1.8-0.2-2.8-0.2-3.7 0-6.2 1.6-7.5 4.7v23.3h-5.5v-32.8h5.4l0.1 3.8c1.8-2.9 4.4-4.4 7.8-4.4 1.1 0 1.9 0.1 2.5 0.4v5.2z"/>
		<path class="st0" d="m604.1 208.7v-28.4h8c2.5 0 4.7 0.5 6.6 1.6s3.4 2.7 4.4 4.7 1.6 4.3 1.6 7v1.8c0 2.7-0.5 5-1.6 7.1s-2.5 3.6-4.4 4.6-4.2 1.6-6.7 1.7h-7.9zm3.7-25.4v22.3h3.9c2.9 0 5.1-0.9 6.7-2.7s2.4-4.4 2.4-7.7v-1.7c0-3.2-0.8-5.7-2.3-7.5s-3.7-2.7-6.5-2.7h-4.2z"/>
		<path class="st0" d="m629.8 182c0-0.6 0.2-1.1 0.5-1.5 0.4-0.4 0.9-0.6 1.6-0.6s1.2 0.2 1.6 0.6 0.5 0.9 0.5 1.5-0.2 1.1-0.5 1.5-0.9 0.6-1.6 0.6-1.2-0.2-1.6-0.6-0.5-0.9-0.5-1.5zm3.9 26.7h-3.6v-21.1h3.6v21.1z"/>
		<path class="st0" d="m651.8 203.1c0-1-0.4-1.7-1.1-2.3s-2-1-3.8-1.4-3.3-0.9-4.4-1.4-1.9-1.2-2.4-2-0.8-1.7-0.8-2.7c0-1.7 0.7-3.2 2.2-4.4s3.3-1.8 5.6-1.8c2.4 0 4.3 0.6 5.8 1.9 1.5 1.2 2.2 2.8 2.2 4.7h-3.6c0-1-0.4-1.8-1.3-2.6-0.8-0.7-1.9-1.1-3.2-1.1s-2.3 0.3-3.1 0.9c-0.7 0.6-1.1 1.3-1.1 2.2s0.3 1.5 1 2c0.7 0.4 1.9 0.9 3.7 1.3s3.3 0.9 4.4 1.4 2 1.2 2.5 2 0.8 1.7 0.8 2.9c0 1.9-0.8 3.4-2.3 4.5s-3.5 1.7-5.9 1.7c-1.7 0-3.2-0.3-4.5-0.9s-2.3-1.4-3.1-2.5-1.1-2.2-1.1-3.5h3.6c0.1 1.2 0.5 2.2 1.5 2.9s2.1 1.1 3.6 1.1c1.4 0 2.5-0.3 3.3-0.8s1.5-1.2 1.5-2.1z"/>
		<path class="st0" d="m677.9 198.4c0 3.2-0.7 5.8-2.2 7.8s-3.5 2.9-6 2.9c-2.6 0-4.6-0.8-6.1-2.4v10.2h-3.6v-29.3h3.3l0.2 2.3c1.5-1.8 3.5-2.7 6.1-2.7 2.5 0 4.5 1 6 2.9s2.2 4.6 2.2 8v0.3zm-3.6-0.4c0-2.4-0.5-4.3-1.5-5.6-1-1.4-2.4-2.1-4.2-2.1-2.2 0-3.8 1-4.9 2.9v10.1c1.1 1.9 2.7 2.9 5 2.9 1.7 0 3.1-0.7 4.1-2.1s1.5-3.4 1.5-6.1z"/>
		<path class="st0" d="m691.3 209.1c-2.9 0-5.2-0.9-7-2.8s-2.7-4.4-2.7-7.5v-0.7c0-2.1 0.4-4 1.2-5.6s1.9-2.9 3.4-3.9c1.4-0.9 3-1.4 4.7-1.4 2.7 0 4.9 0.9 6.4 2.7s2.3 4.4 2.3 7.8v1.5h-14.3c0.1 2.1 0.7 3.8 1.8 5s2.6 1.9 4.4 1.9c1.3 0 2.4-0.3 3.2-0.8s1.7-1.2 2.3-2.1l2.2 1.7c-1.7 2.8-4.4 4.2-7.9 4.2zm-0.5-18.9c-1.5 0-2.7 0.5-3.7 1.6s-1.6 2.5-1.8 4.5h10.6v-0.3c-0.1-1.8-0.6-3.3-1.5-4.3-0.8-1-2-1.5-3.6-1.5z"/>
		<path class="st0" d="m707.1 187.6l0.1 2.7c1.6-2 3.7-3 6.3-3 4.5 0 6.7 2.5 6.8 7.6v14h-3.6v-14c0-1.5-0.4-2.6-1-3.4-0.7-0.7-1.7-1.1-3.2-1.1-1.2 0-2.2 0.3-3.1 0.9s-1.6 1.4-2.1 2.5v15.1h-3.6v-21.1h3.4z"/>
		<path class="st0" d="m738.1 203.1c0-1-0.4-1.7-1.1-2.3s-2-1-3.8-1.4-3.3-0.9-4.4-1.4-1.9-1.2-2.4-2-0.8-1.7-0.8-2.7c0-1.7 0.7-3.2 2.2-4.4s3.3-1.8 5.6-1.8c2.4 0 4.3 0.6 5.8 1.9 1.5 1.2 2.2 2.8 2.2 4.7h-3.6c0-1-0.4-1.8-1.3-2.6-0.8-0.7-1.9-1.1-3.2-1.1s-2.3 0.3-3.1 0.9c-0.7 0.6-1.1 1.3-1.1 2.2s0.3 1.5 1 2c0.7 0.4 1.9 0.9 3.7 1.3s3.3 0.9 4.4 1.4 2 1.2 2.5 2 0.8 1.7 0.8 2.9c0 1.9-0.8 3.4-2.3 4.5s-3.5 1.7-5.9 1.7c-1.7 0-3.2-0.3-4.5-0.9s-2.3-1.4-3.1-2.5-1.1-2.2-1.1-3.5h3.6c0.1 1.2 0.5 2.2 1.5 2.9s2.1 1.1 3.6 1.1c1.4 0 2.5-0.3 3.3-0.8s1.5-1.2 1.5-2.1z"/>
		<path class="st0" d="m759.5 208.7c-0.2-0.4-0.4-1.2-0.5-2.2-1.7 1.7-3.7 2.6-6 2.6-2.1 0-3.8-0.6-5.1-1.8s-2-2.7-2-4.5c0-2.2 0.8-3.9 2.5-5.1s4-1.8 7.1-1.8h3.5v-1.7c0-1.3-0.4-2.3-1.1-3-0.8-0.7-1.9-1.1-3.3-1.1-1.3 0-2.4 0.3-3.2 1-0.9 0.7-1.3 1.4-1.3 2.4h-3.6c0-1.1 0.4-2.1 1.1-3.1s1.8-1.8 3-2.3c1.3-0.6 2.7-0.9 4.2-0.9 2.4 0 4.3 0.6 5.7 1.8s2.1 2.9 2.1 5v9.7c0 1.9 0.2 3.5 0.7 4.6v0.3h-3.8zm-6-2.7c1.1 0 2.2-0.3 3.2-0.9s1.8-1.3 2.2-2.3v-4.3h-2.8c-4.4 0-6.6 1.3-6.6 3.9 0 1.1 0.4 2 1.1 2.7s1.7 0.9 2.9 0.9z"/>
		<path class="st0" d="m778.4 190.8c-0.5-0.1-1.1-0.1-1.8-0.1-2.4 0-4 1-4.8 3v15h-3.6v-21.1h3.5l0.1 2.4c1.2-1.9 2.9-2.8 5-2.8 0.7 0 1.2 0.1 1.6 0.3v3.3z"/>
		<path class="st0" d="m37.9 199.7c-0.4 3-1.5 5.3-3.3 7s-4.4 2.5-7.5 2.5c-3.4 0-6.1-1.2-8.1-3.6s-3-5.6-3-9.7v-2.7c0-2.6 0.5-5 1.4-7s2.3-3.5 4-4.6 3.7-1.6 6-1.6c3 0 5.4 0.8 7.3 2.5 1.8 1.7 2.9 4 3.2 7h-3.8c-0.3-2.3-1-3.9-2.1-4.9s-2.6-1.5-4.6-1.5c-2.4 0-4.3 0.9-5.6 2.7s-2 4.3-2 7.6v2.8c0 3.1 0.6 5.5 1.9 7.4s3.1 2.7 5.4 2.7c2.1 0 3.7-0.5 4.8-1.4s1.9-2.6 2.2-4.9h3.8z"/>
		<path class="st0" d="m41.5 197.9c0-2.1 0.4-3.9 1.2-5.6s1.9-2.9 3.4-3.8 3.1-1.3 5-1.3c2.9 0 5.2 1 7 3s2.7 4.6 2.7 7.9v0.3c0 2.1-0.4 3.9-1.2 5.5s-1.9 2.9-3.4 3.8-3.1 1.4-5 1.4c-2.9 0-5.2-1-7-3s-2.7-4.6-2.7-7.9v-0.3zm3.6 0.5c0 2.3 0.5 4.2 1.6 5.6s2.5 2.1 4.4 2.1c1.8 0 3.3-0.7 4.4-2.2s1.6-3.5 1.6-6c0-2.3-0.5-4.2-1.7-5.6-1.1-1.4-2.6-2.2-4.4-2.2s-3.2 0.7-4.3 2.1c-1 1.5-1.6 3.5-1.6 6.2z"/>
		<path class="st0" d="m68.7 187.6l0.1 2.7c1.6-2 3.7-3 6.3-3 4.5 0 6.7 2.5 6.8 7.6v14h-3.6v-14c0-1.5-0.4-2.6-1-3.4-0.7-0.7-1.7-1.1-3.2-1.1-1.2 0-2.2 0.3-3.1 0.9s-1.6 1.4-2.1 2.5v15.1h-3.6v-21.1h3.4z"/>
		<path class="st0" d="m94.3 203.8l5.2-16.2h3.7l-7.6 21.1h-2.8l-7.7-21.1h3.9l5.3 16.2z"/>
		<path class="st0" d="m115.2 209.1c-2.9 0-5.2-0.9-7-2.8s-2.7-4.4-2.7-7.5v-0.7c0-2.1 0.4-4 1.2-5.6s1.9-2.9 3.4-3.9c1.4-0.9 3-1.4 4.7-1.4 2.7 0 4.9 0.9 6.4 2.7s2.3 4.4 2.3 7.8v1.5h-14.3c0.1 2.1 0.7 3.8 1.8 5s2.6 1.9 4.4 1.9c1.3 0 2.4-0.3 3.2-0.8s1.7-1.2 2.3-2.1l2.2 1.7c-1.7 2.8-4.3 4.2-7.9 4.2zm-0.4-18.9c-1.5 0-2.7 0.5-3.7 1.6s-1.6 2.5-1.8 4.5h10.6v-0.3c-0.1-1.8-0.6-3.3-1.5-4.3s-2.1-1.5-3.6-1.5z"/>
		<path class="st0" d="m137.9 190.8c-0.5-0.1-1.1-0.1-1.8-0.1-2.4 0-4 1-4.8 3v15h-3.6v-21.1h3.5l0.1 2.4c1.2-1.9 2.9-2.8 5-2.8 0.7 0 1.2 0.1 1.6 0.3v3.3z"/>
		<path class="st0" d="m153.5 203.1c0-1-0.4-1.7-1.1-2.3s-2-1-3.8-1.4-3.3-0.9-4.4-1.4-1.9-1.2-2.4-2-0.8-1.7-0.8-2.7c0-1.7 0.7-3.2 2.2-4.4s3.3-1.8 5.6-1.8c2.4 0 4.3 0.6 5.8 1.9 1.5 1.2 2.2 2.8 2.2 4.7h-3.6c0-1-0.4-1.8-1.3-2.6-0.8-0.7-1.9-1.1-3.2-1.1s-2.3 0.3-3.1 0.9c-0.7 0.6-1.1 1.3-1.1 2.2s0.3 1.5 1 2c0.7 0.4 1.9 0.9 3.7 1.3s3.3 0.9 4.4 1.4 2 1.2 2.5 2 0.8 1.7 0.8 2.9c0 1.9-0.8 3.4-2.3 4.5s-3.5 1.7-5.9 1.7c-1.7 0-3.2-0.3-4.5-0.9s-2.3-1.4-3.1-2.5-1.1-2.2-1.1-3.5h3.6c0.1 1.2 0.5 2.2 1.5 2.9s2.1 1.1 3.6 1.1c1.4 0 2.5-0.3 3.3-0.8s1.5-1.2 1.5-2.1z"/>
		<path class="st0" d="m174.9 208.7c-0.2-0.4-0.4-1.2-0.5-2.2-1.7 1.7-3.7 2.6-6 2.6-2.1 0-3.8-0.6-5.1-1.8s-2-2.7-2-4.5c0-2.2 0.8-3.9 2.5-5.1s4-1.8 7.1-1.8h3.5v-1.7c0-1.3-0.4-2.3-1.1-3-0.8-0.7-1.9-1.1-3.3-1.1-1.3 0-2.4 0.3-3.2 1-0.9 0.7-1.3 1.4-1.3 2.4h-3.6c0-1.1 0.4-2.1 1.1-3.1s1.8-1.8 3-2.3c1.3-0.6 2.7-0.9 4.2-0.9 2.4 0 4.3 0.6 5.7 1.8s2.1 2.9 2.1 5v9.7c0 1.9 0.2 3.5 0.7 4.6v0.3h-3.8zm-6-2.7c1.1 0 2.2-0.3 3.2-0.9s1.8-1.3 2.2-2.3v-4.3h-2.8c-4.4 0-6.6 1.3-6.6 3.9 0 1.1 0.4 2 1.1 2.7s1.7 0.9 2.9 0.9z"/>
		<path class="st0" d="m193.8 190.8c-0.5-0.1-1.1-0.1-1.8-0.1-2.4 0-4 1-4.8 3v15h-3.6v-21.1h3.5l0.1 2.4c1.2-1.9 2.9-2.8 5-2.8 0.7 0 1.2 0.1 1.6 0.3v3.3z"/>
		<path class="st0" d="m104.4 3.4c-40.8 0-73.8 33-73.8 73.8s33 73.8 73.8 73.8 73.8-33 73.8-73.8c0-40.7-33.1-73.8-73.8-73.8zm27.9 102.1s-24.1 0.4-27.8 0.1h-0.5c-15.6 0-28.2-12.6-28.2-28.2s12.6-28.2 28.2-28.2 28.2 12.6 28.2 28.2c0 7.8-3.1 14.8-8.2 19.9l8.3 8.2z"/>
		<path class="st0" d="m689.9 3.4c-40.8 0-73.8 33-73.8 73.8s33 73.8 73.8 73.8 73.8-33 73.8-73.8c0-40.7-33.1-73.8-73.8-73.8zm27.9 90.8l-11.1 11.1-16.7-16.7-16.7 16.7-11.3-11.1 16.7-16.7-16.7-16.8 11.1-11.1 16.7 16.7 16.7-16.7 11.1 11.1-16.6 16.7 16.8 16.8z"/>
			<path class="st0" d="m397.6 3.4c-66.2 0-119.8 53.6-119.8 119.8s53.6 119.8 119.8 119.8 119.8-53.6 119.8-119.8-53.7-119.8-119.8-119.8zm0 186.7c-26.2 0-40.7-18-40.7-18 0-33.7 14-54 34-57.6-13.1-3-22.8-14.7-22.8-28.7 0-16.3 13.2-29.5 29.5-29.5s29.5 13.2 29.5 29.5c0 14-9.7 25.7-22.8 28.7 19.1 4.9 34 23.9 34 57.6 0 0-11.8 18-40.7 18z"/>
			<polygon class="st0" points="402.1 133.3 393 133.3 393 147 379.4 147 379.4 156.1 393 156.1 393 169.8 402.1 169.8 402.1 156.1 415.8 156.1 415.8 147 402.1 147"/>
</svg>
