<?xml version="1.0" encoding="utf-8"?>
<!-- Generator: Adobe Illustrator 22.1.0, SVG Export Plug-In . SVG Version: 6.00 Build 0)  -->
<svg version="1.1" id="Camada_1" xmlns="http://www.w3.org/2000/svg" xmlns:xlink="http://www.w3.org/1999/xlink" x="0px" y="0px"
	 viewBox="0 0 625 625" style="enable-background:new 0 0 625 625;" xml:space="preserve">
<style type="text/css">
	.st0{fill:#3C5A99;}
	.st1{fill:#FFFFFF;}
</style>
<rect class="st0" width="625" height="625"/>
<path class="st1" d="M420.2,125.6H207.8c-7.3,0-13.2,5.9-13.2,13.2v212.4c0,7.3,5.9,13.2,13.2,13.2h114.3v-92.5H291v-36h31.1v-26.6
	c0-30.8,18.8-47.6,46.3-47.6c13.2,0,24.5,1,27.8,1.4v32.2l-19.1,0c-15,0-17.9,7.1-17.9,17.5v23H395l-4.6,36h-31v92.5h60.8
	c7.3,0,13.2-5.9,13.2-13.2V138.8C433.4,131.5,427.5,125.6,420.2,125.6z"/>
<g>
</g>
<g>
</g>
<g>
</g>
<g>
</g>
<g>
</g>
<g>
</g>
</svg>
