<?xml version="1.0" encoding="utf-8"?>
<!-- Generator: Adobe Illustrator 22.1.0, SVG Export Plug-In . SVG Version: 6.00 Build 0)  -->
<svg version="1.1" id="Camada_1" xmlns="http://www.w3.org/2000/svg" xmlns:xlink="http://www.w3.org/1999/xlink" x="0px" y="0px"
	 viewBox="0 0 625 625" style="enable-background:new 0 0 625 625;" xml:space="preserve">
<style type="text/css">
	.st0{fill:#FF5000;}
	.st1{fill:#FFFFFF;}
</style>
<rect class="st0" width="625" height="625"/>
<g>
	<path class="st1" d="M251.2,205.3h-40.6V248h-17.5V147.2h64v14.1h-46.5v30h40.6V205.3z"/>
	<path class="st1" d="M288.5,210.7V248H271V147.2h38.6c11.3,0,20.2,2.9,26.8,8.8c6.6,5.9,9.9,13.6,9.9,23.3c0,9.9-3.2,17.6-9.7,23.1
		c-6.5,5.5-15.6,8.2-27.2,8.2H288.5z M288.5,196.5h21c6.2,0,11-1.5,14.3-4.4c3.3-2.9,4.9-7.2,4.9-12.7c0-5.4-1.7-9.8-5-13.1
		s-7.9-4.9-13.7-5h-21.5V196.5z"/>
	<path class="st1" d="M414.4,222.1c0-4.4-1.6-7.8-4.7-10.2c-3.1-2.4-8.7-4.8-16.9-7.3c-8.1-2.4-14.6-5.2-19.4-8.2
		c-9.2-5.8-13.8-13.3-13.8-22.6c0-8.1,3.3-14.8,9.9-20.1c6.6-5.3,15.2-7.9,25.8-7.9c7,0,13.3,1.3,18.8,3.9c5.5,2.6,9.8,6.3,12.9,11
		c3.1,4.8,4.7,10.1,4.7,15.9h-17.4c0-5.3-1.7-9.4-5-12.4c-3.3-3-8-4.5-14.2-4.5c-5.7,0-10.2,1.2-13.3,3.7c-3.2,2.4-4.7,5.9-4.7,10.2
		c0,3.7,1.7,6.8,5.1,9.2c3.4,2.5,9,4.9,16.9,7.2c7.8,2.3,14.1,5,18.9,8c4.8,3,8.2,6.4,10.5,10.2c2.2,3.9,3.3,8.4,3.3,13.5
		c0,8.4-3.2,15.1-9.7,20c-6.4,5-15.2,7.4-26.2,7.4c-7.3,0-14-1.4-20.1-4.1c-6.1-2.7-10.9-6.4-14.3-11.2c-3.4-4.8-5.1-10.3-5.1-16.6
		h17.5c0,5.7,1.9,10.2,5.7,13.3c3.8,3.1,9.2,4.7,16.3,4.7c6.1,0,10.7-1.2,13.7-3.7C412.8,229.4,414.4,226.1,414.4,222.1z"/>
</g>
<g>
	<path class="st1" d="M129.4,375.6h-28.2v28.3h-5.1v-60.4h37.4v4.3h-32.3v23.5h28.2V375.6z"/>
	<path class="st1" d="M142.4,346c0-0.9,0.3-1.7,0.9-2.4c0.6-0.6,1.4-1,2.5-1c1.1,0,1.9,0.3,2.5,1c0.6,0.6,0.9,1.4,0.9,2.4
		c0,0.9-0.3,1.7-0.9,2.4c-0.6,0.6-1.5,0.9-2.5,0.9c-1.1,0-1.9-0.3-2.5-0.9C142.7,347.7,142.4,346.9,142.4,346z M148.3,403.8h-5
		v-44.9h5V403.8z"/>
	<path class="st1" d="M182.5,363.2c-1.1-0.2-2.2-0.3-3.4-0.3c-3.1,0-5.7,0.9-7.9,2.6c-2.1,1.7-3.7,4.2-4.6,7.5v30.8h-4.9v-44.9h4.9
		l0.1,7.1c2.6-5.3,6.8-8,12.7-8c1.4,0,2.5,0.2,3.3,0.5L182.5,363.2z"/>
	<path class="st1" d="M217.3,392.4c0-2.5-1-4.4-3-5.9c-2-1.5-5-2.7-8.9-3.5s-7.1-1.8-9.3-2.9c-2.2-1.1-3.8-2.4-4.9-4
		c-1.1-1.6-1.6-3.5-1.6-5.7c0-3.5,1.5-6.5,4.4-8.8c3-2.3,6.8-3.5,11.4-3.5c5,0,9,1.2,12.1,3.7c3,2.5,4.5,5.7,4.5,9.7h-5
		c0-2.6-1.1-4.8-3.3-6.6c-2.2-1.7-5-2.6-8.3-2.6c-3.3,0-5.9,0.7-7.9,2.2c-2,1.5-3,3.3-3,5.7c0,2.2,0.8,4,2.5,5.2
		c1.6,1.2,4.6,2.4,9,3.4c4.4,1,7.6,2.1,9.8,3.3c2.2,1.2,3.8,2.6,4.8,4.2c1.1,1.6,1.6,3.6,1.6,5.9c0,3.8-1.5,6.8-4.6,9.1
		c-3.1,2.3-7,3.4-12,3.4c-5.2,0-9.5-1.3-12.7-3.8c-3.3-2.5-4.9-5.7-4.9-9.6h5c0.2,2.9,1.4,5.2,3.7,6.8c2.3,1.6,5.2,2.4,8.9,2.4
		c3.5,0,6.3-0.8,8.4-2.3C216.2,396.7,217.3,394.8,217.3,392.4z"/>
	<path class="st1" d="M241.1,347.4v11.5h9.3v4.1h-9.3v30c0,2.5,0.4,4.3,1.3,5.6c0.9,1.2,2.4,1.8,4.5,1.8c0.8,0,2.2-0.1,4-0.4l0.2,4
		c-1.3,0.5-3.1,0.7-5.3,0.7c-3.4,0-5.9-1-7.4-3c-1.5-2-2.3-4.9-2.3-8.7v-30h-8.3v-4.1h8.3v-11.5H241.1z"/>
	<path class="st1" d="M287.7,379.2v24.6h-5.1v-60.4h20.6c6.3,0,11.2,1.6,14.9,4.8c3.6,3.2,5.5,7.6,5.5,13.2c0,5.7-1.8,10.1-5.3,13.1
		c-3.5,3.1-8.6,4.6-15.2,4.6H287.7z M287.7,374.9h15.5c5,0,8.7-1.2,11.3-3.5c2.6-2.4,3.9-5.6,3.9-9.9c0-4.2-1.3-7.5-3.9-10
		c-2.6-2.5-6.3-3.7-11-3.8h-15.8V374.9z"/>
	<path class="st1" d="M350.6,404.7c-3.8,0-7.3-0.9-10.4-2.8c-3.1-1.9-5.5-4.5-7.2-7.9c-1.7-3.4-2.6-7.1-2.6-11.3v-1.8
		c0-4.3,0.8-8.2,2.5-11.7c1.7-3.5,4-6.2,7-8.2s6.2-3,9.7-3c5.5,0,9.8,1.9,13,5.6c3.2,3.7,4.8,8.8,4.8,15.3v2.8h-32v1
		c0,5.1,1.5,9.3,4.4,12.7c2.9,3.4,6.6,5.1,11,5.1c2.7,0,5-0.5,7-1.5c2-1,3.9-2.5,5.5-4.6l3.1,2.4C362.8,402,357.5,404.7,350.6,404.7
		z M349.7,362.3c-3.7,0-6.9,1.4-9.4,4.1c-2.6,2.7-4.1,6.4-4.7,11h26.9v-0.5c-0.1-4.3-1.4-7.8-3.7-10.5
		C356.5,363.7,353.4,362.3,349.7,362.3z"/>
	<path class="st1" d="M397.9,363.2c-1.1-0.2-2.2-0.3-3.4-0.3c-3.1,0-5.7,0.9-7.9,2.6c-2.1,1.7-3.7,4.2-4.6,7.5v30.8h-4.9v-44.9h4.9
		l0.1,7.1c2.6-5.3,6.8-8,12.7-8c1.4,0,2.5,0.2,3.3,0.5L397.9,363.2z"/>
	<path class="st1" d="M432.6,392.4c0-2.5-1-4.4-3-5.9s-5-2.7-8.9-3.5s-7.1-1.8-9.3-2.9c-2.2-1.1-3.8-2.4-4.9-4
		c-1.1-1.6-1.6-3.5-1.6-5.7c0-3.5,1.5-6.5,4.4-8.8c3-2.3,6.8-3.5,11.4-3.5c5,0,9,1.2,12.1,3.7c3,2.5,4.5,5.7,4.5,9.7h-5
		c0-2.6-1.1-4.8-3.3-6.6c-2.2-1.7-5-2.6-8.3-2.6c-3.3,0-5.9,0.7-7.9,2.2c-2,1.5-3,3.3-3,5.7c0,2.2,0.8,4,2.5,5.2
		c1.6,1.2,4.6,2.4,9,3.4c4.4,1,7.6,2.1,9.8,3.3c2.2,1.2,3.8,2.6,4.8,4.2c1.1,1.6,1.6,3.6,1.6,5.9c0,3.8-1.5,6.8-4.6,9.1
		c-3.1,2.3-7,3.4-12,3.4c-5.2,0-9.5-1.3-12.7-3.8c-3.3-2.5-4.9-5.7-4.9-9.6h5c0.2,2.9,1.4,5.2,3.7,6.8c2.3,1.6,5.2,2.4,8.9,2.4
		c3.5,0,6.3-0.8,8.4-2.3C431.5,396.7,432.6,394.8,432.6,392.4z"/>
	<path class="st1" d="M446,380.7c0-4.3,0.8-8.2,2.5-11.7c1.7-3.5,4-6.1,7.1-8.1c3.1-1.9,6.5-2.9,10.4-2.9c6,0,10.8,2.1,14.5,6.3
		c3.7,4.2,5.6,9.7,5.6,16.7v1c0,4.3-0.8,8.3-2.5,11.7c-1.7,3.5-4,6.2-7.1,8c-3,1.9-6.5,2.8-10.4,2.8c-5.9,0-10.8-2.1-14.5-6.3
		c-3.7-4.2-5.6-9.7-5.6-16.7V380.7z M451,382.1c0,5.4,1.4,9.8,4.2,13.2c2.8,3.4,6.4,5.2,10.9,5.2c4.5,0,8.1-1.7,10.9-5.2
		c2.8-3.4,4.2-8,4.2-13.6v-1c0-3.4-0.6-6.6-1.9-9.4c-1.3-2.8-3.1-5.1-5.4-6.6c-2.3-1.6-4.9-2.3-7.9-2.3c-4.4,0-8,1.7-10.8,5.2
		c-2.8,3.5-4.2,8-4.2,13.6V382.1z"/>
	<path class="st1" d="M501.1,358.9l0.2,7.7c1.7-2.8,3.8-4.9,6.3-6.3c2.5-1.5,5.3-2.2,8.3-2.2c4.8,0,8.4,1.4,10.7,4.1
		c2.4,2.7,3.5,6.8,3.6,12.2v29.5h-4.9v-29.5c0-4-0.9-7-2.6-9c-1.7-2-4.4-2.9-8-2.9c-3.1,0-5.8,1-8.2,2.9c-2.4,1.9-4.1,4.5-5.3,7.8
		v30.8h-4.9v-44.9H501.1z"/>
	<path class="st1" d="M208.3,479c0-3.3-1.2-6-3.5-7.9c-2.4-2-6.7-3.8-12.9-5.6c-6.3-1.8-10.8-3.7-13.7-5.7
		c-4.1-2.9-6.1-6.8-6.1-11.5c0-4.6,1.9-8.4,5.7-11.3c3.8-2.9,8.7-4.3,14.6-4.3c4,0,7.6,0.8,10.8,2.3c3.2,1.5,5.6,3.7,7.4,6.5
		c1.7,2.8,2.6,5.9,2.6,9.3H208c0-4.1-1.4-7.5-4.2-10s-6.6-3.8-11.4-3.8c-4.6,0-8.3,1-11,3.1c-2.7,2.1-4.1,4.8-4.1,8.1
		c0,3.1,1.2,5.6,3.7,7.5c2.5,1.9,6.4,3.7,11.8,5.1c5.4,1.5,9.5,3,12.3,4.6c2.8,1.6,4.9,3.5,6.3,5.7s2.1,4.8,2.1,7.8
		c0,4.8-1.9,8.6-5.7,11.5c-3.8,2.9-8.8,4.3-15,4.3c-4.3,0-8.2-0.8-11.7-2.3c-3.6-1.5-6.3-3.7-8.1-6.4c-1.8-2.7-2.8-5.9-2.8-9.4h5.1
		c0,4.3,1.6,7.6,4.8,10.1c3.2,2.5,7.4,3.7,12.7,3.7c4.7,0,8.5-1,11.3-3.1C206.9,485.2,208.3,482.4,208.3,479z"/>
	<path class="st1" d="M228.2,456.5c1.6-2.7,3.7-4.8,6.3-6.2c2.5-1.5,5.3-2.2,8.3-2.2c4.8,0,8.4,1.4,10.7,4.1
		c2.4,2.7,3.5,6.8,3.6,12.2v29.5h-4.9v-29.5c0-4-0.9-7-2.6-9c-1.7-2-4.4-2.9-8-2.9c-3.1,0-5.8,1-8.2,2.9c-2.4,1.9-4.1,4.5-5.3,7.8
		v30.8h-4.9v-63.8h4.9V456.5z"/>
	<path class="st1" d="M267.2,470.7c0-4.3,0.8-8.2,2.5-11.7c1.7-3.5,4-6.1,7.1-8.1c3.1-1.9,6.5-2.9,10.4-2.9c6,0,10.8,2.1,14.5,6.3
		c3.7,4.2,5.6,9.7,5.6,16.7v1c0,4.3-0.8,8.3-2.5,11.7c-1.7,3.5-4,6.2-7.1,8c-3,1.9-6.5,2.8-10.4,2.8c-5.9,0-10.8-2.1-14.5-6.3
		c-3.7-4.2-5.6-9.7-5.6-16.7V470.7z M272.2,472.1c0,5.4,1.4,9.8,4.2,13.2c2.8,3.4,6.4,5.2,10.9,5.2c4.5,0,8.1-1.7,10.9-5.2
		c2.8-3.4,4.2-8,4.2-13.6v-1c0-3.4-0.6-6.6-1.9-9.4c-1.3-2.8-3.1-5.1-5.4-6.6c-2.3-1.6-4.9-2.3-7.9-2.3c-4.4,0-8,1.7-10.8,5.2
		c-2.8,3.5-4.2,8-4.2,13.6V472.1z"/>
	<path class="st1" d="M314.8,470.7c0-4.3,0.8-8.2,2.5-11.7c1.7-3.5,4-6.1,7.1-8.1c3.1-1.9,6.5-2.9,10.4-2.9c6,0,10.8,2.1,14.5,6.3
		c3.7,4.2,5.6,9.7,5.6,16.7v1c0,4.3-0.8,8.3-2.5,11.7c-1.7,3.5-4,6.2-7.1,8c-3,1.9-6.5,2.8-10.4,2.8c-5.9,0-10.8-2.1-14.5-6.3
		c-3.7-4.2-5.6-9.7-5.6-16.7V470.7z M319.8,472.1c0,5.4,1.4,9.8,4.2,13.2c2.8,3.4,6.4,5.2,10.9,5.2c4.5,0,8.1-1.7,10.9-5.2
		c2.8-3.4,4.2-8,4.2-13.6v-1c0-3.4-0.6-6.6-1.9-9.4c-1.3-2.8-3.1-5.1-5.4-6.6c-2.3-1.6-4.9-2.3-7.9-2.3c-4.4,0-8,1.7-10.8,5.2
		c-2.8,3.5-4.2,8-4.2,13.6V472.1z"/>
	<path class="st1" d="M372.9,437.4v11.5h9.3v4.1h-9.3v30c0,2.5,0.4,4.3,1.3,5.6s2.4,1.8,4.5,1.8c0.8,0,2.2-0.1,4-0.4l0.2,4
		c-1.3,0.5-3.1,0.7-5.3,0.7c-3.4,0-5.9-1-7.4-3c-1.5-2-2.3-4.9-2.3-8.7v-30h-8.3v-4.1h8.3v-11.5H372.9z"/>
	<path class="st1" d="M409.9,494.7c-3.8,0-7.3-0.9-10.4-2.8c-3.1-1.9-5.5-4.5-7.2-7.9c-1.7-3.4-2.6-7.1-2.6-11.3v-1.8
		c0-4.3,0.8-8.2,2.5-11.7c1.7-3.5,4-6.2,7-8.2s6.2-3,9.7-3c5.5,0,9.8,1.9,13,5.6c3.2,3.7,4.8,8.8,4.8,15.3v2.8h-32v1
		c0,5.1,1.5,9.3,4.4,12.7c2.9,3.4,6.6,5.1,11,5.1c2.7,0,5-0.5,7-1.5c2-1,3.9-2.5,5.5-4.6l3.1,2.4C422.1,492,416.8,494.7,409.9,494.7
		z M409,452.3c-3.7,0-6.9,1.4-9.4,4.1c-2.6,2.7-4.1,6.4-4.7,11h26.9v-0.5c-0.1-4.3-1.4-7.8-3.7-10.5
		C415.8,453.7,412.7,452.3,409,452.3z"/>
	<path class="st1" d="M457.1,453.2c-1.1-0.2-2.2-0.3-3.4-0.3c-3.1,0-5.7,0.9-7.9,2.6c-2.1,1.7-3.7,4.2-4.6,7.5v30.8h-4.9v-44.9h4.9
		l0.1,7.1c2.6-5.3,6.8-8,12.7-8c1.4,0,2.5,0.2,3.3,0.5L457.1,453.2z"/>
</g>
<g>
</g>
<g>
</g>
<g>
</g>
<g>
</g>
<g>
</g>
<g>
</g>
</svg>
