<?xml version="1.0" encoding="utf-8"?>
<!-- Generator: Adobe Illustrator 22.1.0, SVG Export Plug-In . SVG Version: 6.00 Build 0)  -->
<svg version="1.1" id="Camada_1" xmlns="http://www.w3.org/2000/svg" xmlns:xlink="http://www.w3.org/1999/xlink" x="0px" y="0px"
	 viewBox="0 0 625 625" style="enable-background:new 0 0 625 625;" xml:space="preserve">
<style type="text/css">
	.st0{fill:url(#SVGID_1_);}
	.st1{fill:url(#SVGID_2_);}
	.st2{fill:#FFFFFF;}
</style>
<radialGradient id="SVGID_1_" cx="44.5" cy="578.5" r="528.2561" gradientTransform="matrix(0.6963 -0.7178 0.8684 0.8424 -488.8285 123.1264)" gradientUnits="userSpaceOnUse">
	<stop  offset="0" style="stop-color:#FFDD55"/>
	<stop  offset="0.1" style="stop-color:#FFDD55"/>
	<stop  offset="0.5" style="stop-color:#FF543E"/>
	<stop  offset="1" style="stop-color:#C837AB"/>
</radialGradient>
<rect class="st0" width="625" height="625"/>
<radialGradient id="SVGID_2_" cx="-2.5" cy="0.4779" r="440.5453" gradientTransform="matrix(0.704 0.7102 -0.7971 0.7902 -0.359 1.8757)" gradientUnits="userSpaceOnUse">
	<stop  offset="0" style="stop-color:#3771C8"/>
	<stop  offset="0.128" style="stop-color:#3771C8"/>
	<stop  offset="1" style="stop-color:#6600FF;stop-opacity:0"/>
</radialGradient>
<rect y="0" class="st1" width="625" height="625"/>
<g>
	<path class="st2" d="M381.2,192.5c-1.6-4.1-3.5-7.1-6.6-10.1c-3.1-3.1-6-5-10.1-6.6c-3.1-1.2-7.8-2.6-16.4-3
		c-9.3-0.4-12.1-0.5-35.6-0.5c-2.9,0-5.6,0-7.9,0v0c-16.4,0-19.6,0.1-27.7,0.5c-8.6,0.4-13.3,1.8-16.4,3c-4.1,1.6-7.1,3.5-10.1,6.6
		c-3.1,3.1-5,6-6.6,10.1c-1.2,3.1-2.6,7.8-3,16.4c-0.4,9.3-0.5,12.1-0.5,35.6s0.1,26.3,0.5,35.6c0.4,8.6,1.8,13.3,3,16.4
		c1.6,4.1,3.5,7,6.6,10.1c3.1,3.1,6,5,10.1,6.6c3.1,1.2,7.8,2.6,16.4,3c9.3,0.4,12.1,0.5,35.6,0.5c23.5,0,26.3-0.1,35.6-0.5
		c8.6-0.4,13.3-1.8,16.4-3c4.1-1.6,7-3.5,10.1-6.6c3.1-3.1,5-6,6.6-10.1c1.2-3.1,2.6-7.8,3-16.4c0.4-9.3,0.5-12.1,0.5-35.6
		c0-23.5-0.1-26.3-0.5-35.6C383.8,200.3,382.4,195.6,381.2,192.5z M312.5,289.8c-25,0-45.3-20.3-45.3-45.3c0-25,20.3-45.3,45.3-45.3
		c0,0,0,0,0,0h0c0,0,0,0,0,0c25,0,45.3,20.3,45.3,45.3C357.7,269.5,337.5,289.8,312.5,289.8z M359.5,208c-5.8,0-10.6-4.7-10.6-10.6
		c0-5.8,4.7-10.6,10.6-10.6v0c5.8,0,10.6,4.7,10.6,10.6C370.1,203.3,365.4,208,359.5,208z"/>
	<path class="st2" d="M431.6,176.9c-0.8-9.6-2.4-16-5.7-22.8c-2.7-5.6-5.8-9.7-10.2-14c-7.9-7.5-17.6-12.1-29.1-13.8
		c-5.6-0.8-6.7-1-35.2-1.1h-38.9c-49.8,0-64.4,0.1-67.2,0.3c-10.2,0.9-16.6,2.5-23.5,5.9c-5.3,2.7-9.6,5.7-13.7,10
		c-7.6,7.9-12.2,17.5-13.8,29c-0.8,5.6-1,6.7-1.1,35.2c0,9.5,0,22,0,38.8c0,49.8,0.1,64.4,0.3,67.2c0.8,10,2.4,16.2,5.7,23.1
		c6.3,13.1,18.4,23,32.6,26.6c4.9,1.3,10.4,2,17.3,2.3c3,0.1,33.1,0.2,63.2,0.2s60.3,0,63.2-0.2c8.1-0.4,12.8-1,18-2.4
		c14.3-3.7,26.1-13.4,32.6-26.7c3.2-6.7,4.9-13.2,5.6-22.6c0.2-2.1,0.2-34.8,0.2-67.6C431.9,211.7,431.8,178.9,431.6,176.9z
		 M400.1,280.8c-0.4,9.4-1.9,15.8-4.1,21.4c-2.3,5.8-5.3,10.7-10.2,15.6c-4.9,4.9-9.8,7.9-15.6,10.2c-5.6,2.2-12,3.7-21.4,4.1
		c-9.4,0.4-12.4,0.5-36.3,0.5c-23.9,0-26.9-0.1-36.3-0.5c-9.4-0.4-15.8-1.9-21.4-4.1c-5.8-2.3-10.7-5.3-15.6-10.2
		c-4.9-4.9-7.9-9.8-10.2-15.6c-2.2-5.6-3.7-12-4.1-21.4c-0.4-9.4-0.5-12.4-0.5-36.3s0.1-26.9,0.5-36.3c0.4-9.4,1.9-15.8,4.1-21.4
		c2.3-5.8,5.3-10.7,10.2-15.6c4.9-4.9,9.8-7.9,15.6-10.2c5.6-2.2,12-3.7,21.4-4.1c9.4-0.4,12.4-0.5,36.3-0.5c0,0,0,0,0,0h0
		c0,0,0,0,0,0c23.9,0,26.9,0.1,36.3,0.5c9.4,0.4,15.8,1.9,21.4,4.1c5.8,2.2,10.7,5.3,15.6,10.2c4.9,4.9,7.9,9.8,10.2,15.6
		c2.2,5.6,3.7,12,4.1,21.4c0.4,9.4,0.5,12.4,0.5,36.3S400.5,271.4,400.1,280.8z"/>
	<circle class="st2" cx="312.5" cy="244.5" r="29.4"/>
</g>
<g>
</g>
<g>
</g>
<g>
</g>
<g>
</g>
<g>
</g>
<g>
</g>
</svg>
