<?xml version="1.0" encoding="utf-8"?>
<!-- Generator: Adobe Illustrator 22.1.0, SVG Export Plug-In . SVG Version: 6.00 Build 0)  -->
<svg version="1.1" id="Camada_1" xmlns="http://www.w3.org/2000/svg" xmlns:xlink="http://www.w3.org/1999/xlink" x="0px" y="0px"
	 viewBox="0 0 625 625" style="enable-background:new 0 0 625 625;" xml:space="preserve">
<style type="text/css">
	.st0{fill:#390094;}
	.st1{fill:#FFFFFF;}
</style>
<rect class="st0" width="625" height="625"/>
<g>
	<path class="st1" d="M218.2,335.7h38.7v11.8h-53.6v-85.3h14.8V335.7z"/>
	<path class="st1" d="M304.5,341.4c-4.2,4.9-10.1,7.4-17.8,7.4c-6.9,0-12.1-2-15.6-6c-3.5-4-5.3-9.8-5.3-17.5v-41.1H280v40.9
		c0,8,3.3,12.1,10,12.1c6.9,0,11.6-2.5,14-7.4v-45.5h14.2v63.4h-13.4L304.5,341.4z"/>
	<path class="st1" d="M350.6,268.8v15.4h11.2v10.5h-11.2v35.4c0,2.4,0.5,4.2,1.4,5.2c1,1.1,2.7,1.6,5.1,1.6c1.6,0,3.3-0.2,5-0.6v11
		c-3.2,0.9-6.4,1.3-9.4,1.3c-10.9,0-16.4-6-16.4-18.1v-35.9h-10.4v-10.5h10.4v-15.4H350.6z"/>
	<path class="st1" d="M410.6,347.6c-0.6-1.2-1.2-3.2-1.6-5.9c-4.5,4.7-10.1,7.1-16.6,7.1c-6.4,0-11.6-1.8-15.6-5.4
		c-4-3.6-6-8.1-6-13.5c0-6.8,2.5-11.9,7.5-15.6c5-3.6,12.2-5.4,21.5-5.4h8.7v-4.2c0-3.3-0.9-5.9-2.8-7.9c-1.8-2-4.6-3-8.4-3
		c-3.2,0-5.9,0.8-8,2.4c-2.1,1.6-3.1,3.7-3.1,6.2H372c0-3.5,1.2-6.7,3.5-9.8c2.3-3,5.4-5.4,9.4-7.1c4-1.7,8.4-2.6,13.3-2.6
		c7.4,0,13.3,1.9,17.8,5.6c4.4,3.7,6.7,9,6.8,15.7v28.6c0,5.7,0.8,10.3,2.4,13.7v1H410.6z M394.9,337.3c2.8,0,5.5-0.7,7.9-2.1
		c2.5-1.4,4.3-3.2,5.6-5.5v-12h-7.7c-5.3,0-9.2,0.9-11.9,2.8c-2.7,1.8-4,4.4-4,7.8c0,2.7,0.9,4.9,2.7,6.5
		C389.4,336.5,391.9,337.3,394.9,337.3z"/>
</g>
<g>
</g>
<g>
</g>
<g>
</g>
<g>
</g>
<g>
</g>
<g>
</g>
</svg>
