<?xml version="1.0" encoding="utf-8"?>
<!-- Generator: Adobe Illustrator 22.1.0, SVG Export Plug-In . SVG Version: 6.00 Build 0)  -->
<svg version="1.1" id="Camada_1" xmlns="http://www.w3.org/2000/svg" xmlns:xlink="http://www.w3.org/1999/xlink" x="0px" y="0px"
	 viewBox="0 0 625 625" style="enable-background:new 0 0 625 625;" xml:space="preserve">
<style type="text/css">
	.st0{fill:#0048BA;}
	.st1{fill:#FFFFFF;}
</style>
<rect class="st0" width="625" height="625"/>
<g>
	<path class="st1" d="M113.5,378.7H96v25.2h-5.1v-60.4h19.6c6.4,0,11.5,1.6,15.1,4.7c3.6,3.1,5.4,7.5,5.4,13.1
		c0,3.9-1.1,7.3-3.4,10.2c-2.3,3-5.3,5-9.1,6.1l15.1,25.7v0.5h-5.4L113.5,378.7z M96,374.3h15.6c4.3,0,7.7-1.2,10.3-3.7
		c2.6-2.4,3.9-5.6,3.9-9.5c0-4.3-1.4-7.6-4.1-9.9c-2.7-2.4-6.5-3.5-11.4-3.5H96V374.3z"/>
	<path class="st1" d="M141,380.7c0-4.3,0.8-8.2,2.5-11.7c1.7-3.5,4-6.1,7.1-8.1c3.1-1.9,6.5-2.9,10.4-2.9c6,0,10.8,2.1,14.5,6.3
		c3.7,4.2,5.6,9.7,5.6,16.7v1c0,4.3-0.8,8.3-2.5,11.7c-1.7,3.5-4,6.2-7.1,8c-3,1.9-6.5,2.8-10.4,2.8c-5.9,0-10.8-2.1-14.5-6.3
		c-3.7-4.2-5.6-9.7-5.6-16.7V380.7z M146,382.1c0,5.4,1.4,9.8,4.2,13.2c2.8,3.4,6.4,5.2,10.9,5.2c4.5,0,8.1-1.7,10.9-5.2
		c2.8-3.4,4.2-8,4.2-13.6v-1c0-3.4-0.6-6.6-1.9-9.4c-1.3-2.8-3.1-5.1-5.4-6.6c-2.3-1.6-4.9-2.3-7.9-2.3c-4.4,0-8,1.7-10.8,5.2
		c-2.8,3.5-4.2,8-4.2,13.6V382.1z"/>
	<path class="st1" d="M196.9,403.8h-5v-63.8h5V403.8z"/>
	<path class="st1" d="M227.8,404.7c-3.8,0-7.3-0.9-10.4-2.8c-3.1-1.9-5.5-4.5-7.2-7.9c-1.7-3.4-2.6-7.1-2.6-11.3v-1.8
		c0-4.3,0.8-8.2,2.5-11.7c1.7-3.5,4-6.2,7-8.2s6.2-3,9.7-3c5.5,0,9.8,1.9,13,5.6c3.2,3.7,4.8,8.8,4.8,15.3v2.8h-32v1
		c0,5.1,1.5,9.3,4.4,12.7c2.9,3.4,6.6,5.1,11,5.1c2.7,0,5-0.5,7-1.5c2-1,3.9-2.5,5.5-4.6l3.1,2.4C240,402,234.7,404.7,227.8,404.7z
		 M226.9,362.3c-3.7,0-6.9,1.4-9.4,4.1c-2.6,2.7-4.1,6.4-4.7,11h26.9v-0.5c-0.1-4.3-1.4-7.8-3.7-10.5
		C233.7,363.7,230.6,362.3,226.9,362.3z"/>
	<path class="st1" d="M269.7,379.3h-19.9v-4.2h19.9V379.3z"/>
	<path class="st1" d="M284.9,379.2v24.6h-5.1v-60.4h20.6c6.3,0,11.2,1.6,14.9,4.8c3.6,3.2,5.5,7.6,5.5,13.2c0,5.7-1.8,10.1-5.3,13.1
		c-3.5,3.1-8.6,4.6-15.2,4.6H284.9z M284.9,374.9h15.5c5,0,8.7-1.2,11.3-3.5c2.6-2.4,3.9-5.6,3.9-9.9c0-4.2-1.3-7.5-3.9-10
		c-2.6-2.5-6.3-3.7-11-3.8h-15.8V374.9z"/>
	<path class="st1" d="M336.5,403.8h-5v-63.8h5V403.8z"/>
	<path class="st1" d="M378.3,403.8c-0.5-1.4-0.8-3.5-1-6.3c-1.7,2.3-4,4-6.7,5.3c-2.7,1.2-5.6,1.8-8.6,1.8c-4.3,0-7.8-1.2-10.5-3.6
		c-2.7-2.4-4-5.5-4-9.1c0-4.4,1.8-7.8,5.5-10.4c3.6-2.5,8.7-3.8,15.2-3.8h9v-5.1c0-3.2-1-5.7-3-7.6c-2-1.8-4.9-2.8-8.7-2.8
		c-3.5,0-6.3,0.9-8.6,2.7c-2.3,1.8-3.4,3.9-3.4,6.4l-5,0c0-3.6,1.7-6.7,5-9.3c3.3-2.6,7.4-3.9,12.2-3.9c5,0,9,1.3,11.8,3.8
		c2.9,2.5,4.4,6,4.5,10.5v21.3c0,4.3,0.5,7.6,1.4,9.8v0.5H378.3z M362.7,400.3c3.3,0,6.3-0.8,8.9-2.4c2.6-1.6,4.5-3.7,5.7-6.4v-9.9
		h-8.9c-5,0.1-8.8,1-11.6,2.7c-2.8,1.8-4.2,4.2-4.2,7.2c0,2.5,0.9,4.6,2.8,6.3C357.3,399.4,359.8,400.3,362.7,400.3z"/>
	<path class="st1" d="M409.1,396.7l13.1-37.8h5.4l-19.2,52.5l-1,2.3c-2.5,5.5-6.3,8.2-11.4,8.2c-1.2,0-2.5-0.2-3.8-0.6l0-4.1
		l2.6,0.2c2.4,0,4.4-0.6,5.9-1.8c1.5-1.2,2.8-3.3,3.8-6.2l2.2-6.1l-16.9-44.5h5.4L409.1,396.7z"/>
	<path class="st1" d="M435,346c0-0.9,0.3-1.7,0.9-2.4c0.6-0.6,1.4-1,2.5-1c1.1,0,1.9,0.3,2.5,1c0.6,0.6,0.9,1.4,0.9,2.4
		c0,0.9-0.3,1.7-0.9,2.4c-0.6,0.6-1.5,0.9-2.5,0.9c-1.1,0-1.9-0.3-2.5-0.9C435.3,347.7,435,346.9,435,346z M440.9,403.8h-5v-44.9h5
		V403.8z"/>
	<path class="st1" d="M459.1,358.9l0.2,7.7c1.7-2.8,3.8-4.9,6.3-6.3c2.5-1.5,5.3-2.2,8.3-2.2c4.8,0,8.4,1.4,10.7,4.1
		c2.4,2.7,3.5,6.8,3.6,12.2v29.5h-4.9v-29.5c0-4-0.9-7-2.6-9c-1.7-2-4.4-2.9-8-2.9c-3.1,0-5.8,1-8.2,2.9c-2.4,1.9-4.1,4.5-5.3,7.8
		v30.8h-4.9v-44.9H459.1z"/>
	<path class="st1" d="M499,381c0-7,1.6-12.6,4.7-16.7c3.1-4.1,7.3-6.2,12.7-6.2c6.1,0,10.8,2.4,13.9,7.3l0.2-6.5h4.6v44
		c0,5.8-1.6,10.4-4.9,13.7c-3.2,3.4-7.6,5.1-13.2,5.1c-3.1,0-6.1-0.7-8.9-2.1s-5.1-3.3-6.7-5.6l2.8-3c3.5,4.3,7.7,6.5,12.5,6.5
		c4.2,0,7.4-1.2,9.7-3.7c2.3-2.4,3.5-5.8,3.6-10.2V398c-3.2,4.4-7.8,6.6-13.9,6.6c-5.2,0-9.4-2.1-12.5-6.2s-4.7-9.8-4.7-16.8V381z
		 M504.1,381.8c0,5.7,1.1,10.2,3.4,13.6c2.3,3.3,5.5,5,9.7,5c6.1,0,10.4-2.7,13-8.2v-20.9c-1.2-2.9-2.8-5.1-5-6.6
		c-2.2-1.5-4.8-2.3-7.9-2.3c-4.2,0-7.4,1.6-9.8,4.9C505.2,370.6,504.1,375.5,504.1,381.8z"/>
	<path class="st1" d="M252.3,486.7c-1.8,2.5-4.5,4.5-8.3,5.9c-3.8,1.4-8,2.1-12.7,2.1c-4.7,0-8.9-1.1-12.6-3.4
		c-3.7-2.3-6.5-5.5-8.5-9.6c-2-4.2-3-8.9-3.1-14.3v-7.6c0-8.4,2.1-15,6.4-19.9c4.2-4.9,9.9-7.3,17.1-7.3c6.2,0,11.2,1.6,15,4.8
		c3.8,3.2,6,7.5,6.8,13.1h-5.1c-0.7-4.4-2.6-7.8-5.4-10.1c-2.9-2.3-6.6-3.4-11.2-3.4c-5.6,0-10.1,2-13.4,6c-3.3,4-4.9,9.7-4.9,17
		v7.1c0,4.6,0.8,8.7,2.3,12.2c1.6,3.5,3.8,6.3,6.7,8.2c2.9,1.9,6.3,2.9,10.1,2.9c4.4,0,8.2-0.7,11.3-2.1c2-0.9,3.6-2,4.6-3.2v-15.6
		H231v-4.3h21.3V486.7z"/>
	<path class="st1" d="M294,493.8c-0.5-1.4-0.8-3.5-1-6.3c-1.7,2.3-4,4-6.7,5.3c-2.7,1.2-5.6,1.8-8.6,1.8c-4.3,0-7.8-1.2-10.5-3.6
		c-2.7-2.4-4-5.5-4-9.1c0-4.4,1.8-7.8,5.5-10.4c3.6-2.5,8.7-3.8,15.2-3.8h9v-5.1c0-3.2-1-5.7-3-7.6c-2-1.8-4.9-2.8-8.7-2.8
		c-3.5,0-6.3,0.9-8.6,2.7c-2.3,1.8-3.4,3.9-3.4,6.4l-5,0c0-3.6,1.7-6.7,5-9.3c3.3-2.6,7.4-3.9,12.2-3.9c5,0,9,1.3,11.8,3.8
		c2.9,2.5,4.4,6,4.5,10.5v21.3c0,4.3,0.5,7.6,1.4,9.8v0.5H294z M278.4,490.3c3.3,0,6.3-0.8,8.9-2.4c2.6-1.6,4.5-3.7,5.7-6.4v-9.9
		h-8.9c-5,0.1-8.8,1-11.6,2.7c-2.8,1.8-4.2,4.2-4.2,7.2c0,2.5,0.9,4.6,2.8,6.3C273,489.4,275.4,490.3,278.4,490.3z"/>
	<path class="st1" d="M315.7,448.9l0.2,7.3c1.7-2.7,3.7-4.7,6.2-6.1s5.3-2,8.3-2c7.1,0,11.6,2.9,13.5,8.7c1.6-2.8,3.7-4.9,6.4-6.5
		c2.7-1.5,5.6-2.3,8.9-2.3c9.6,0,14.5,5.3,14.7,15.8v30h-5v-29.6c0-4-0.9-7-2.6-8.9c-1.7-1.9-4.5-2.9-8.3-2.9
		c-3.6,0.1-6.6,1.2-9,3.5c-2.5,2.3-3.8,5-4.1,8.2v29.7h-5v-30c0-3.8-0.9-6.7-2.7-8.6c-1.8-1.9-4.5-2.8-8.2-2.8
		c-3.1,0-5.8,0.9-8.1,2.7c-2.2,1.8-3.9,4.4-5,7.9v30.8h-5v-44.9H315.7z"/>
	<path class="st1" d="M403.9,494.7c-3.8,0-7.3-0.9-10.4-2.8c-3.1-1.9-5.5-4.5-7.2-7.9c-1.7-3.4-2.6-7.1-2.6-11.3v-1.8
		c0-4.3,0.8-8.2,2.5-11.7c1.7-3.5,4-6.2,7-8.2s6.2-3,9.7-3c5.5,0,9.8,1.9,13,5.6c3.2,3.7,4.8,8.8,4.8,15.3v2.8h-32v1
		c0,5.1,1.5,9.3,4.4,12.7c2.9,3.4,6.6,5.1,11,5.1c2.7,0,5-0.5,7-1.5c2-1,3.9-2.5,5.5-4.6l3.1,2.4C416.1,492,410.8,494.7,403.9,494.7
		z M403,452.3c-3.7,0-6.9,1.4-9.4,4.1c-2.6,2.7-4.1,6.4-4.7,11h26.9v-0.5c-0.1-4.3-1.4-7.8-3.7-10.5
		C409.8,453.7,406.7,452.3,403,452.3z"/>
</g>
<g>
	<path class="st1" d="M221.3,209.3h-19.5V248h-17.5V147.2h35.5c11.6,0,20.6,2.6,26.9,7.8c6.3,5.2,9.5,12.8,9.5,22.7
		c0,6.7-1.6,12.4-4.9,16.9c-3.3,4.6-7.8,8-13.6,10.5l22.6,42v0.9h-18.8L221.3,209.3z M201.8,195.1h18c5.9,0,10.5-1.5,13.8-4.5
		c3.3-3,5-7.1,5-12.2c0-5.4-1.5-9.6-4.6-12.5c-3.1-3-7.7-4.5-13.7-4.6h-18.5V195.1z"/>
	<path class="st1" d="M290.3,210.7V248h-17.5V147.2h38.6c11.3,0,20.2,2.9,26.8,8.8c6.6,5.9,9.9,13.6,9.9,23.3
		c0,9.9-3.2,17.6-9.7,23.1c-6.5,5.5-15.6,8.2-27.2,8.2H290.3z M290.3,196.5h21c6.2,0,11-1.5,14.3-4.4c3.3-2.9,4.9-7.2,4.9-12.7
		c0-5.4-1.7-9.8-5-13.1c-3.3-3.3-7.9-4.9-13.7-5h-21.5V196.5z"/>
	<path class="st1" d="M440.7,235c-3.6,4.8-8.7,8.4-15.2,10.8c-6.5,2.4-13.8,3.7-22,3.7c-8.4,0-15.9-1.9-22.4-5.7
		c-6.5-3.8-11.5-9.3-15.1-16.4c-3.5-7.1-5.4-15.5-5.5-25v-7.9c0-15.2,3.6-27.1,10.9-35.7c7.3-8.6,17.5-12.8,30.5-12.8
		c11.2,0,20.1,2.8,26.7,8.3c6.6,5.6,10.6,13.6,11.9,24h-17.2c-1.9-12.1-9-18.2-21.1-18.2c-7.8,0-13.8,2.8-17.9,8.5
		c-4.1,5.6-6.2,13.9-6.3,24.9v7.7c0,10.9,2.3,19.3,6.9,25.4c4.6,6,11,9,19.1,9c9,0,15.3-2,19.1-6.1v-19.7h-20.8v-13.3h38.2V235z"/>
</g>
<g>
</g>
<g>
</g>
<g>
</g>
<g>
</g>
<g>
</g>
<g>
</g>
</svg>
