<?xml version="1.0" encoding="utf-8"?>
<!-- Generator: Adobe Illustrator 22.1.0, SVG Export Plug-In . SVG Version: 6.00 Build 0)  -->
<svg version="1.1" id="Camada_1" xmlns="http://www.w3.org/2000/svg" xmlns:xlink="http://www.w3.org/1999/xlink" x="0px" y="0px"
	 viewBox="0 0 625 625" style="enable-background:new 0 0 625 625;" xml:space="preserve">
<style type="text/css">
	.st0{fill:#E2211C;}
	.st1{fill:#FFFFFF;}
</style>
<rect class="st0" width="625" height="625"/>
<g>
	<path class="st1" d="M152.6,265.6c0-3.8-1.3-6.6-4-8.7c-2.6-2-7.4-4.1-14.3-6.2c-6.9-2.1-12.3-4.4-16.4-6.9
		c-7.8-4.9-11.7-11.3-11.7-19.1c0-6.9,2.8-12.5,8.4-17c5.6-4.5,12.9-6.7,21.8-6.7c5.9,0,11.2,1.1,15.9,3.3c4.6,2.2,8.3,5.3,11,9.3
		c2.7,4,4,8.5,4,13.4h-14.8c0-4.5-1.4-7.9-4.2-10.5c-2.8-2.5-6.8-3.8-12-3.8c-4.8,0-8.6,1-11.3,3.1c-2.7,2.1-4,5-4,8.7
		c0,3.1,1.4,5.7,4.3,7.8c2.9,2.1,7.7,4.1,14.3,6.1c6.6,2,12,4.2,16,6.7c4,2.5,7,5.4,8.8,8.7c1.9,3.3,2.8,7.1,2.8,11.5
		c0,7.1-2.7,12.8-8.2,17c-5.4,4.2-12.8,6.3-22.2,6.3c-6.2,0-11.8-1.1-17-3.4c-5.2-2.3-9.2-5.4-12.1-9.5c-2.9-4-4.3-8.7-4.3-14.1
		h14.8c0,4.8,1.6,8.6,4.8,11.3c3.2,2.7,7.8,4,13.8,4c5.2,0,9-1,11.6-3.1C151.3,271.8,152.6,269,152.6,265.6z"/>
	<path class="st1" d="M217.4,281.4c-4.2,4.9-10.1,7.4-17.8,7.4c-6.9,0-12.1-2-15.6-6c-3.5-4-5.3-9.8-5.3-17.5v-41.1h14.2v40.9
		c0,8,3.3,12.1,10,12.1c6.9,0,11.6-2.5,14-7.4v-45.5h14.2v63.4h-13.4L217.4,281.4z"/>
	<path class="st1" d="M278.9,237.2c-1.9-0.3-3.8-0.5-5.8-0.5c-6.5,0-10.9,2.5-13.2,7.5v43.4h-14.2v-63.4h13.6l0.4,7.1
		c3.4-5.5,8.2-8.3,14.3-8.3c2,0,3.7,0.3,5,0.8L278.9,237.2z"/>
	<path class="st1" d="M311.3,269.5l13.4-45.4h14.7l-22,63.4h-12.4l-22.1-63.4h14.8L311.3,269.5z"/>
	<path class="st1" d="M348.3,207.7c0-2.2,0.7-4,2.1-5.4c1.4-1.4,3.4-2.2,5.9-2.2s4.6,0.7,6,2.2c1.4,1.4,2.1,3.3,2.1,5.4
		c0,2.1-0.7,3.9-2.1,5.4c-1.4,1.4-3.4,2.1-6,2.1s-4.6-0.7-5.9-2.1C349,211.6,348.3,209.9,348.3,207.7z M363.4,287.6h-14.2v-63.4
		h14.2V287.6z"/>
	<path class="st1" d="M401.3,269.5l13.4-45.4h14.7l-22,63.4h-12.4l-22.1-63.4h14.8L401.3,269.5z"/>
	<path class="st1" d="M475.3,287.6c-0.6-1.2-1.2-3.2-1.6-5.9c-4.5,4.7-10.1,7.1-16.6,7.1c-6.4,0-11.6-1.8-15.6-5.4
		c-4-3.6-6-8.1-6-13.5c0-6.8,2.5-11.9,7.5-15.6c5-3.6,12.2-5.4,21.5-5.4h8.7v-4.2c0-3.3-0.9-5.9-2.8-7.9c-1.8-2-4.6-3-8.4-3
		c-3.2,0-5.9,0.8-8,2.4c-2.1,1.6-3.1,3.7-3.1,6.2h-14.2c0-3.5,1.2-6.7,3.5-9.8c2.3-3,5.4-5.4,9.4-7.1c4-1.7,8.4-2.6,13.3-2.6
		c7.4,0,13.3,1.9,17.8,5.6c4.4,3.7,6.7,9,6.8,15.7v28.6c0,5.7,0.8,10.3,2.4,13.7v1H475.3z M459.7,277.3c2.8,0,5.5-0.7,7.9-2.1
		c2.5-1.4,4.3-3.2,5.6-5.5v-12h-7.7c-5.3,0-9.2,0.9-11.9,2.8c-2.7,1.8-4,4.4-4,7.8c0,2.7,0.9,4.9,2.7,6.5
		C454.2,276.5,456.6,277.3,459.7,277.3z"/>
	<path class="st1" d="M517.5,287.6h-14.2v-90h14.2V287.6z"/>
	<path class="st1" d="M215.7,407.6H201v-37.9h-38.1v37.9H148v-85.3h14.8v35.5H201v-35.5h14.8V407.6z"/>
	<path class="st1" d="M229.2,375.3c0-6.2,1.2-11.8,3.7-16.8s5.9-8.8,10.4-11.5c4.5-2.7,9.6-4,15.4-4c8.6,0,15.5,2.8,20.8,8.3
		s8.2,12.8,8.6,21.9l0.1,3.3c0,6.3-1.2,11.8-3.6,16.8s-5.8,8.7-10.3,11.4c-4.5,2.7-9.6,4-15.5,4c-8.9,0-16.1-3-21.5-8.9
		c-5.4-6-8.1-13.9-8.1-23.8V375.3z M243.4,376.5c0,6.5,1.3,11.6,4,15.3s6.4,5.5,11.3,5.5s8.5-1.9,11.2-5.6c2.7-3.8,4-9.2,4-16.5
		c0-6.4-1.4-11.5-4.1-15.2s-6.5-5.6-11.2-5.6c-4.6,0-8.3,1.8-11.1,5.5C244.8,363.7,243.4,369.2,243.4,376.5z"/>
	<path class="st1" d="M333.4,357.2c-1.9-0.3-3.8-0.5-5.8-0.5c-6.5,0-10.9,2.5-13.2,7.5v43.4h-14.2v-63.4h13.6l0.4,7.1
		c3.4-5.5,8.2-8.3,14.3-8.3c2,0,3.7,0.3,5,0.8L333.4,357.2z"/>
	<path class="st1" d="M375.6,357.2c-1.9-0.3-3.8-0.5-5.8-0.5c-6.5,0-10.9,2.5-13.2,7.5v43.4h-14.2v-63.4h13.6l0.4,7.1
		c3.4-5.5,8.2-8.3,14.3-8.3c2,0,3.7,0.3,5,0.8L375.6,357.2z"/>
	<path class="st1" d="M379.8,375.3c0-6.2,1.2-11.8,3.7-16.8s5.9-8.8,10.4-11.5c4.5-2.7,9.6-4,15.4-4c8.6,0,15.5,2.8,20.8,8.3
		s8.2,12.8,8.6,21.9l0.1,3.3c0,6.3-1.2,11.8-3.6,16.8s-5.8,8.7-10.3,11.4c-4.5,2.7-9.6,4-15.5,4c-8.9,0-16.1-3-21.5-8.9
		c-5.4-6-8.1-13.9-8.1-23.8V375.3z M394,376.5c0,6.5,1.3,11.6,4,15.3s6.4,5.5,11.3,5.5s8.5-1.9,11.2-5.6c2.7-3.8,4-9.2,4-16.5
		c0-6.4-1.4-11.5-4.1-15.2s-6.5-5.6-11.2-5.6c-4.6,0-8.3,1.8-11.1,5.5C395.4,363.7,394,369.2,394,376.5z"/>
	<path class="st1" d="M484,357.2c-1.9-0.3-3.8-0.5-5.8-0.5c-6.5,0-10.9,2.5-13.2,7.5v43.4h-14.2v-63.4h13.6l0.4,7.1
		c3.4-5.5,8.2-8.3,14.3-8.3c2,0,3.7,0.3,5,0.8L484,357.2z"/>
</g>
<g>
</g>
<g>
</g>
<g>
</g>
<g>
</g>
<g>
</g>
<g>
</g>
</svg>
