<?xml version="1.0" encoding="utf-8"?>
<!-- Generator: Adobe Illustrator 22.1.0, SVG Export Plug-In . SVG Version: 6.00 Build 0)  -->
<svg version="1.1" id="Camada_1" xmlns="http://www.w3.org/2000/svg" xmlns:xlink="http://www.w3.org/1999/xlink" x="0px" y="0px"
	 viewBox="0 0 625 625" style="enable-background:new 0 0 625 625;" xml:space="preserve">
<style type="text/css">
	.st0{fill:#0084B4;}
	.st1{fill:#FFFFFF;}
</style>
<rect class="st0" width="625" height="625"/>
<path class="st1" d="M431.6,175.7c-8.8,3.9-18.3,6.5-28.2,7.7c10.1-6.1,17.9-15.7,21.6-27.1c-9.5,5.6-20,9.7-31.2,11.9
	c-8.9-9.5-21.7-15.5-35.8-15.5c-27.1,0-49.1,22-49.1,49.1c0,3.8,0.4,7.6,1.3,11.2c-40.8-2-76.9-21.6-101.1-51.3
	c-4.2,7.2-6.6,15.7-6.6,24.7c0,17,8.7,32,21.8,40.8c-8-0.3-15.6-2.5-22.2-6.1c0,0.2,0,0.4,0,0.6c0,23.8,16.9,43.6,39.4,48.1
	c-4.1,1.1-8.5,1.7-12.9,1.7c-3.2,0-6.2-0.3-9.2-0.9c6.2,19.5,24.4,33.7,45.8,34.1c-16.8,13.2-37.9,21-60.9,21c-4,0-7.9-0.2-11.7-0.7
	c21.7,13.9,47.5,22,75.2,22c90.2,0,139.6-74.8,139.6-139.6c0-2.1,0-4.2-0.1-6.3C416.7,194.2,425,185.5,431.6,175.7"/>
<g>
</g>
<g>
</g>
<g>
</g>
<g>
</g>
<g>
</g>
<g>
</g>
</svg>
