<?xml version="1.0" encoding="utf-8"?>
<!-- Generator: Adobe Illustrator 22.1.0, SVG Export Plug-In . SVG Version: 6.00 Build 0)  -->
<svg version="1.1" id="Camada_1" xmlns="http://www.w3.org/2000/svg" xmlns:xlink="http://www.w3.org/1999/xlink" x="0px" y="0px"
	 viewBox="0 0 60 60" style="enable-background:new 0 0 60 60;" xml:space="preserve">
<style type="text/css">
	.st0{fill:#FFFFFF;}
</style>
<path class="st0" d="M35.4,20H16.8c0-7.3,5.9-13.3,13.3-13.3c4.9,0,9.2,2.7,11.5,6.6h7.4C46.1,5.6,38.7,0,30,0C19,0,10,9,10,20
	c0,0,0,0,0,0v35.3c0,2.6,2.1,4.7,4.7,4.7h30.6c2.6,0,4.7-2.1,4.7-4.7V20c0,0,0,0,0,0h-6.8H35.4z M32.8,43.9v4.9
	c0,1.6-1.3,2.9-2.9,2.9h0c-1.6,0-2.9-1.3-2.9-2.9v-4.9c-2.8-1.1-4.7-3.9-4.7-7.1c0-4.2,3.4-7.6,7.6-7.6h0c4.2,0,7.6,3.4,7.6,7.6
	C37.5,40.1,35.6,42.8,32.8,43.9z"/>
</svg>
