<?xml version="1.0" encoding="utf-8"?>
<!-- Generator: Adobe Illustrator 22.1.0, SVG Export Plug-In . SVG Version: 6.00 Build 0)  -->
<svg version="1.1" id="Camada_1" xmlns="http://www.w3.org/2000/svg" xmlns:xlink="http://www.w3.org/1999/xlink" x="0px" y="0px"
	 viewBox="0 0 625 625" style="enable-background:new 0 0 625 625;" xml:space="preserve">
<style type="text/css">
	.st0{fill:url(#SVGID_1_);}
	.st1{fill:url(#SVGID_2_);}
	.st2{fill:#FFFFFF;}
	.st3{fill:url(#SVGID_3_);}
	.st4{fill:url(#SVGID_4_);}
</style>
<radialGradient id="SVGID_1_" cx="44.5" cy="46.5" r="528.2561" gradientTransform="matrix(0.6963 -0.7178 -0.8684 -0.8424 53.9215 649.6264)" gradientUnits="userSpaceOnUse">
	<stop  offset="0" style="stop-color:#FFDD55"/>
	<stop  offset="0.1" style="stop-color:#FFDD55"/>
	<stop  offset="0.5" style="stop-color:#FF543E"/>
	<stop  offset="1" style="stop-color:#C837AB"/>
</radialGradient>
<rect class="st0" width="625" height="625"/>
<linearGradient id="SVGID_2_" gradientUnits="userSpaceOnUse" x1="0" y1="312.5" x2="625" y2="312.5">
	<stop  offset="0" style="stop-color:#20B038"/>
	<stop  offset="1" style="stop-color:#60D66A"/>
</linearGradient>
<rect class="st1" width="625" height="625"/>
<path class="st2" d="M259.1,326.9l3.6,2.1c15.2,9,32.5,13.8,50.3,13.8h0c54.4,0,98.8-44.3,98.8-98.8c0-26.4-10.3-51.2-28.9-69.9
	c-18.7-18.7-43.4-28.9-69.8-29c-54.5,0-98.8,44.3-98.8,98.7c0,18.7,5.2,36.8,15.1,52.6l2.4,3.7l-10,36.4L259.1,326.9z M193.2,365
	l16.9-61.6c-10.4-18-15.9-38.5-15.9-59.4c0-65.5,53.3-118.8,118.9-118.8c31.8,0,61.6,12.4,84.1,34.8c22.4,22.5,34.8,52.3,34.8,84.1
	c0,65.5-53.4,118.8-118.8,118.8c0,0,0,0,0,0H313c-19.9,0-39.4-5-56.8-14.5L193.2,365z"/>
<linearGradient id="SVGID_3_" gradientUnits="userSpaceOnUse" x1="-7.5055" y1="618.173" x2="-1.9469" y2="618.173" gradientTransform="matrix(0 -41.6418 -41.6418 0 26054.3594 48.2998)">
	<stop  offset="0" style="stop-color:#20B038"/>
	<stop  offset="1" style="stop-color:#60D66A"/>
</linearGradient>
<path class="st3" d="M198.3,244.1c0,20.2,5.3,39.9,15.3,57.3l-16.3,59.4l60.8-15.9c16.8,9.1,35.6,14,54.8,14h0
	c63.2,0,114.7-51.5,114.7-114.7c0-30.6-11.9-59.5-33.6-81.1c-21.7-21.7-50.5-33.6-81.2-33.6C249.8,129.4,198.3,180.8,198.3,244.1
	 M313,358.9L313,358.9L313,358.9C313,358.9,313,358.9,313,358.9"/>
<linearGradient id="SVGID_4_" gradientUnits="userSpaceOnUse" x1="-7.3245" y1="618.4093" x2="-1.7659" y2="618.4093" gradientTransform="matrix(0 -43.1345 -43.1345 0 26987.3008 49.0517)">
	<stop  offset="0" style="stop-color:#F9F9F9"/>
	<stop  offset="1" style="stop-color:#FFFFFF"/>
</linearGradient>
<path class="st4" d="M194.2,244c0,20.9,5.5,41.4,15.9,59.4L193.2,365l63-16.5c17.4,9.5,36.9,14.5,56.8,14.5h0.1
	c65.5,0,118.8-53.3,118.8-118.8c0-31.7-12.3-61.6-34.8-84.1c-22.4-22.5-52.3-34.8-84.1-34.8C247.5,125.2,194.2,178.5,194.2,244
	 M231.7,300.3l-2.4-3.7c-9.9-15.7-15.1-33.9-15.1-52.6c0-54.4,44.3-98.7,98.8-98.7c26.4,0,51.2,10.3,69.8,29
	c18.7,18.7,28.9,43.5,28.9,69.9c0,54.4-44.3,98.8-98.8,98.8h0c-17.7,0-35.1-4.8-50.3-13.8l-3.6-2.1l-37.4,9.8L231.7,300.3z
	 M313,362.9L313,362.9L313,362.9C313,362.9,313,362.9,313,362.9"/>
<path class="st2" d="M283.3,194.4c-2.2-4.9-4.6-5-6.7-5.1c-1.7-0.1-3.7-0.1-5.7-0.1c-2,0-5.2,0.7-7.9,3.7
	c-2.7,3-10.4,10.2-10.4,24.8c0,14.6,10.6,28.7,12.1,30.7c1.5,2,20.5,32.9,50.7,44.8c25.1,9.9,30.2,7.9,35.6,7.4
	c5.4-0.5,17.6-7.2,20-14.1c2.5-6.9,2.5-12.9,1.7-14.1c-0.7-1.2-2.7-2-5.7-3.5c-3-1.5-17.6-8.7-20.3-9.7c-2.7-1-4.7-1.5-6.7,1.5
	c-2,3-7.7,9.7-9.4,11.6c-1.7,2-3.5,2.2-6.4,0.7c-3-1.5-12.5-4.6-23.9-14.7c-8.8-7.9-14.8-17.6-16.5-20.6c-1.7-3-0.2-4.6,1.3-6.1
	c1.3-1.3,3-3.5,4.5-5.2c1.5-1.7,2-3,3-5c1-2,0.5-3.7-0.2-5.2C291.8,214.9,286,200.2,283.3,194.4"/>
</svg>
