<svg xmlns="http://www.w3.org/2000/svg" viewBox="0 0 59.54 57.12"><defs><style>.cls-1{fill:#fff;}</style></defs><title>Ativo 2</title><g id="Camada_2" data-name="Camada 2"><g id="Camada_1-2" data-name="Camada 1"><path class="cls-1" d="M34.5,3.44l3.62,11.13A5,5,0,0,0,42.85,18h11.7a5,5,0,0,1,2.93,9L48,33.89a5,5,0,0,0-1.81,5.56l3.62,11.13a5,5,0,0,1-7.66,5.56l-9.47-6.87a5,5,0,0,0-5.85,0l-9.46,6.87a5,5,0,0,1-7.66-5.56l3.61-11.13a5,5,0,0,0-1.8-5.56L2.06,27A5,5,0,0,1,5,18h11.7a5,5,0,0,0,4.73-3.44L25,3.44A5,5,0,0,1,34.5,3.44Z"/></g></g></svg>