<svg xmlns="http://www.w3.org/2000/svg" viewBox="0 0 53.64 62.48"><defs><style>.cls-1{fill:#fff;}</style></defs><title>Ativo 1</title><g id="Camada_2" data-name="Camada 2"><g id="Camada_1-2" data-name="Camada 1"><path class="cls-1" d="M50.35,32.36a3.29,3.29,0,0,0-3.3,3.29,20.23,20.23,0,1,1-20.4-20.22l-3.81,3.8a3.3,3.3,0,0,0,2.33,5.63,3.25,3.25,0,0,0,2.33-1l9.14-9.13a3.31,3.31,0,0,0,0-4.66L27.5,1a3.3,3.3,0,0,0-4.66,4.67l3.23,3.22a26.82,26.82,0,1,0,27.57,26.8A3.29,3.29,0,0,0,50.35,32.36Z"/><path class="cls-1" d="M29,33.14h0a2.76,2.76,0,0,0-.46-.37c-.07-.05-.15-.08-.23-.13a2,2,0,0,0-.29-.15,2.63,2.63,0,0,0-.3-.09l-.26-.08a3.55,3.55,0,0,0-.56-.06H16.15a3,3,0,0,0,0,6h9.42L32.24,45a3,3,0,0,0,4.26,0,3,3,0,0,0,0-4.26Z"/></g></g></svg>