<svg xmlns="http://www.w3.org/2000/svg" viewBox="0 0 75.56 62.02"><defs><style>.cls-1{fill:#fff;}.cls-2{fill:#111;}</style></defs><title>Ativo 3</title><g id="Camada_2" data-name="Camada 2"><g id="Camada_1-2" data-name="Camada 1"><circle class="cls-1" cx="22.98" cy="21.14" r="14.24"/><circle class="cls-1" cx="61.32" cy="14.24" r="14.24"/><path class="cls-2" d="M68.56,12.16H63.4V7a1.56,1.56,0,0,0-1.56-1.56h-1A1.56,1.56,0,0,0,59.24,7v5.16H54.08a1.56,1.56,0,0,0-1.56,1.56v1a1.55,1.55,0,0,0,1.56,1.55h5.16v5.17A1.55,1.55,0,0,0,60.8,23h1a1.55,1.55,0,0,0,1.56-1.55V16.31h5.16a1.55,1.55,0,0,0,1.56-1.55v-1A1.56,1.56,0,0,0,68.56,12.16Z"/><path class="cls-1" d="M23,62a37.14,37.14,0,0,0,23-7.93,23,23,0,0,0-46,0A37.09,37.09,0,0,0,23,62Z"/></g></g></svg>