<?xml version="1.0" encoding="utf-8"?>
<!-- Generator: Adobe Illustrator 22.1.0, SVG Export Plug-In . SVG Version: 6.00 Build 0)  -->
<svg version="1.1" id="Camada_1" xmlns="http://www.w3.org/2000/svg" xmlns:xlink="http://www.w3.org/1999/xlink" x="0px" y="0px"
	 viewBox="0 0 1707 403" style="enable-background:new 0 0 1707 403;" xml:space="preserve">
<style type="text/css">
	.st0{fill:url(#SVGID_1_);}
	.st1{fill:url(#SVGID_2_);}
	.st2{fill:url(#SVGID_3_);}
	.st3{fill:url(#SVGID_4_);}
	.st4{fill:#FFFFFF;}
	.st5{fill:url(#SVGID_5_);}
	.st6{fill:url(#SVGID_6_);}
	.st7{fill:url(#SVGID_7_);}
	.st8{fill:url(#SVGID_8_);}
	.st9{fill:url(#SVGID_9_);}
	.st10{fill:url(#SVGID_10_);}
	.st11{fill:none;stroke:#C2C3C9;stroke-width:5;stroke-miterlimit:10;}
	.st12{fill:url(#SVGID_11_);}
	.st13{fill:url(#SVGID_12_);}
	.st14{fill:url(#SVGID_13_);}
	.st15{fill:#333333;}
	.st16{fill:url(#SVGID_14_);}
	.st17{fill:url(#SVGID_15_);}
	.st18{fill:url(#SVGID_16_);}
	.st19{fill:url(#SVGID_17_);}
	.st20{fill:url(#SVGID_18_);}
	.st21{fill:url(#SVGID_19_);}
	.st22{fill:url(#SVGID_20_);}
	.st23{fill:url(#SVGID_21_);}
	.st24{fill:url(#SVGID_22_);}
	.st25{fill:url(#SVGID_23_);}
	.st26{fill:url(#SVGID_24_);}
	.st27{fill:url(#SVGID_25_);}
	.st28{fill:url(#SVGID_26_);}
	.st29{fill:url(#SVGID_27_);}
	.st30{fill:url(#SVGID_28_);}
	.st31{fill:url(#SVGID_29_);}
	.st32{fill:url(#SVGID_30_);}
	.st33{fill:url(#SVGID_31_);}
	.st34{fill:url(#SVGID_32_);}
	.st35{fill:url(#SVGID_33_);}
	.st36{fill:url(#SVGID_34_);}
	.st37{fill:url(#SVGID_35_);}
	.st38{fill:url(#SVGID_36_);}
	.st39{fill:url(#SVGID_37_);}
	.st40{fill:url(#SVGID_38_);}
	.st41{fill:url(#SVGID_39_);}
	.st42{fill:url(#SVGID_40_);}
	.st43{fill:url(#SVGID_41_);}
	.st44{fill:url(#SVGID_42_);}
	.st45{fill:url(#SVGID_43_);}
	.st46{fill:url(#SVGID_44_);}
	.st47{fill:url(#SVGID_45_);}
	.st48{fill:url(#SVGID_46_);}
	.st49{fill:url(#SVGID_47_);}
	.st50{fill:url(#SVGID_48_);}
	.st51{fill:url(#SVGID_49_);}
	.st52{fill:url(#SVGID_50_);}
	.st53{fill:url(#SVGID_51_);}
	.st54{fill:url(#SVGID_52_);}
	.st55{fill:url(#SVGID_53_);}
	.st56{fill:url(#SVGID_54_);}
	.st57{fill:url(#SVGID_55_);}
	.st58{fill:url(#SVGID_56_);}
	.st59{fill:url(#SVGID_57_);}
	.st60{fill:url(#SVGID_58_);}
	.st61{fill:url(#SVGID_59_);}
	.st62{fill:url(#SVGID_60_);}
	.st63{fill:url(#SVGID_61_);}
	.st64{fill:url(#SVGID_62_);}
	.st65{fill:url(#SVGID_63_);}
	.st66{fill:url(#SVGID_64_);}
	.st67{fill:url(#SVGID_65_);}
	.st68{fill:url(#SVGID_66_);}
	.st69{fill:url(#SVGID_67_);}
	.st70{fill:url(#SVGID_68_);}
	.st71{fill:url(#SVGID_69_);}
	.st72{fill:url(#SVGID_70_);}
	.st73{fill:url(#SVGID_71_);}
	.st74{fill:url(#SVGID_72_);}
	.st75{fill:url(#SVGID_73_);}
	.st76{fill:url(#SVGID_74_);}
	.st77{fill:url(#SVGID_75_);}
	.st78{fill:url(#SVGID_76_);}
	.st79{fill:url(#SVGID_77_);}
	.st80{fill:url(#SVGID_78_);}
	.st81{fill:url(#SVGID_79_);}
	.st82{fill:url(#SVGID_80_);}
	.st83{fill:url(#SVGID_81_);}
	.st84{fill:url(#SVGID_82_);}
	.st85{fill:url(#SVGID_83_);}
	.st86{fill:url(#SVGID_84_);}
	.st87{fill:url(#SVGID_85_);}
	.st88{fill:url(#SVGID_86_);}
	.st89{fill:url(#SVGID_87_);}
	.st90{fill:url(#SVGID_88_);}
	.st91{fill:url(#SVGID_89_);}
	.st92{fill:url(#SVGID_90_);}
	.st93{fill:url(#SVGID_91_);}
	.st94{fill:url(#SVGID_92_);}
	.st95{fill:url(#SVGID_93_);}
	.st96{fill:url(#SVGID_94_);}
	.st97{fill:url(#SVGID_95_);}
	.st98{fill:url(#SVGID_96_);}
	.st99{fill:url(#SVGID_97_);}
	.st100{fill:url(#SVGID_98_);}
	.st101{fill:url(#SVGID_99_);}
	.st102{fill:url(#SVGID_100_);}
	.st103{fill:url(#SVGID_101_);}
	.st104{fill:url(#SVGID_102_);}
	.st105{fill:url(#SVGID_103_);}
	.st106{fill:url(#SVGID_104_);}
	.st107{fill:url(#SVGID_105_);}
	.st108{fill:url(#SVGID_106_);}
	.st109{fill:url(#SVGID_107_);}
	.st110{fill:url(#SVGID_108_);}
	.st111{fill:url(#SVGID_109_);}
	.st112{fill:url(#SVGID_110_);}
	.st113{fill:url(#SVGID_111_);}
	.st114{fill:url(#SVGID_112_);}
	.st115{fill:#EDEEF0;}
	.st116{fill:url(#SVGID_113_);}
	.st117{fill:url(#SVGID_114_);}
	.st118{fill:url(#SVGID_115_);}
	.st119{fill:url(#SVGID_116_);}
	.st120{fill:url(#SVGID_117_);}
	.st121{fill:url(#SVGID_118_);}
	.st122{fill:url(#SVGID_119_);}
	.st123{fill:url(#SVGID_120_);}
</style>
<linearGradient id="SVGID_1_" gradientUnits="userSpaceOnUse" x1="308.9978" y1="201.4988" x2="1707" y2="201.4988">
	<stop  offset="0.62" style="stop-color:#222222"/>
	<stop  offset="0.7657" style="stop-color:#242424"/>
	<stop  offset="0.8182" style="stop-color:#2B2B2B"/>
	<stop  offset="0.8557" style="stop-color:#363636"/>
	<stop  offset="0.8859" style="stop-color:#474747"/>
	<stop  offset="0.9119" style="stop-color:#5D5D5D"/>
	<stop  offset="0.9348" style="stop-color:#797979"/>
	<stop  offset="0.9556" style="stop-color:#999999"/>
	<stop  offset="0.9747" style="stop-color:#BFBFBF"/>
	<stop  offset="0.9916" style="stop-color:#E8E8E8"/>
	<stop  offset="1" style="stop-color:#FFFFFF"/>
</linearGradient>
<polygon class="st0" points="1707,296.2 314.9,296.2 351.8,273 351.8,135 309,106.8 1707,106.8 "/>
<g>
	<path class="st4" d="M464.1,168.8V192h-4.8v-56.9h19.4c5.9,0,10.6,1.5,14,4.5c3.4,3,5.1,7.2,5.1,12.5c0,5.3-1.6,9.5-4.9,12.4
		c-3.3,2.9-8.1,4.4-14.3,4.4H464.1z M464.1,164.7h14.6c4.7,0,8.2-1.1,10.7-3.3c2.4-2.2,3.7-5.3,3.7-9.3c0-3.9-1.2-7.1-3.7-9.4
		c-2.4-2.3-5.9-3.5-10.4-3.6h-14.9V164.7z"/>
	<path class="st4" d="M527,153.7c-1-0.2-2-0.3-3.2-0.3c-2.9,0-5.4,0.8-7.4,2.4c-2,1.6-3.5,4-4.3,7.1v29h-4.6v-42.3h4.6l0.1,6.7
		c2.5-5,6.4-7.5,11.9-7.5c1.3,0,2.3,0.2,3.1,0.5L527,153.7z"/>
	<path class="st4" d="M531,170.2c0-4.1,0.8-7.7,2.4-11c1.6-3.3,3.8-5.8,6.7-7.6c2.9-1.8,6.1-2.7,9.8-2.7c5.6,0,10.2,2,13.7,5.9
		c3.5,3.9,5.2,9.2,5.2,15.7v1c0,4.1-0.8,7.8-2.4,11c-1.6,3.3-3.8,5.8-6.7,7.6c-2.9,1.8-6.1,2.7-9.8,2.7c-5.6,0-10.2-2-13.7-5.9
		c-3.5-3.9-5.3-9.2-5.3-15.7V170.2z M535.7,171.5c0,5.1,1.3,9.2,3.9,12.4s6,4.9,10.3,4.9c4.2,0,7.6-1.6,10.3-4.9s3.9-7.5,3.9-12.8
		v-0.9c0-3.2-0.6-6.2-1.8-8.9c-1.2-2.7-2.9-4.8-5-6.2c-2.2-1.5-4.6-2.2-7.4-2.2c-4.2,0-7.6,1.6-10.2,4.9c-2.6,3.3-3.9,7.5-3.9,12.8
		V171.5z"/>
	<path class="st4" d="M582.6,149.7l0.2,6.9c1.6-2.6,3.5-4.5,5.9-5.7c2.3-1.3,4.9-1.9,7.8-1.9c6.7,0,10.9,2.7,12.7,8.2
		c1.5-2.6,3.5-4.7,6.1-6.1c2.5-1.4,5.3-2.1,8.4-2.1c9.1,0,13.7,4.9,13.9,14.8V192h-4.7v-27.9c0-3.8-0.8-6.6-2.4-8.4
		c-1.6-1.8-4.2-2.7-7.8-2.7c-3.4,0.1-6.2,1.1-8.5,3.3c-2.3,2.1-3.6,4.7-3.9,7.8v28h-4.7v-28.2c0-3.6-0.9-6.3-2.6-8.1
		c-1.7-1.8-4.3-2.7-7.8-2.7c-2.9,0-5.5,0.8-7.6,2.5s-3.7,4.2-4.7,7.5v29h-4.7v-42.3H582.6z"/>
	<path class="st4" d="M646.7,170.2c0-4.1,0.8-7.7,2.4-11c1.6-3.3,3.8-5.8,6.7-7.6c2.9-1.8,6.1-2.7,9.8-2.7c5.6,0,10.2,2,13.7,5.9
		c3.5,3.9,5.2,9.2,5.2,15.7v1c0,4.1-0.8,7.8-2.4,11c-1.6,3.3-3.8,5.8-6.7,7.6c-2.9,1.8-6.1,2.7-9.8,2.7c-5.6,0-10.2-2-13.7-5.9
		c-3.5-3.9-5.3-9.2-5.3-15.7V170.2z M651.4,171.5c0,5.1,1.3,9.2,3.9,12.4s6,4.9,10.3,4.9c4.2,0,7.6-1.6,10.3-4.9s3.9-7.5,3.9-12.8
		v-0.9c0-3.2-0.6-6.2-1.8-8.9c-1.2-2.7-2.9-4.8-5-6.2c-2.2-1.5-4.6-2.2-7.4-2.2c-4.2,0-7.6,1.6-10.2,4.9c-2.6,3.3-3.9,7.5-3.9,12.8
		V171.5z"/>
	<path class="st4" d="M701.3,138.9v10.8h8.8v3.8h-8.8v28.2c0,2.3,0.4,4.1,1.3,5.2c0.8,1.1,2.3,1.7,4.2,1.7c0.8,0,2-0.1,3.8-0.4
		l0.2,3.8c-1.2,0.4-2.9,0.7-5,0.7c-3.2,0-5.5-0.9-7-2.8c-1.5-1.9-2.2-4.6-2.2-8.2v-28.2h-7.8v-3.8h7.8v-10.8H701.3z"/>
	<path class="st4" d="M736.1,192.8c-3.6,0-6.8-0.9-9.7-2.7c-2.9-1.8-5.2-4.2-6.8-7.4c-1.6-3.2-2.4-6.7-2.4-10.6v-1.7
		c0-4.1,0.8-7.7,2.4-11c1.6-3.3,3.8-5.8,6.6-7.7c2.8-1.9,5.9-2.8,9.1-2.8c5.1,0,9.2,1.8,12.2,5.3c3,3.5,4.5,8.3,4.5,14.4v2.6h-30.2
		v0.9c0,4.8,1.4,8.8,4.1,12c2.7,3.2,6.2,4.8,10.4,4.8c2.5,0,4.7-0.5,6.6-1.4c1.9-0.9,3.7-2.4,5.2-4.4l2.9,2.2
		C747.7,190.3,742.7,192.8,736.1,192.8z M735.3,152.9c-3.5,0-6.5,1.3-8.9,3.9c-2.4,2.6-3.9,6-4.4,10.4h25.4v-0.5
		c-0.1-4.1-1.3-7.4-3.5-9.9C741.7,154.2,738.8,152.9,735.3,152.9z"/>
	<path class="st4" d="M778.7,170.5c0-6.6,1.5-11.9,4.4-15.7s6.9-5.8,11.9-5.8c5.8,0,10.1,2.3,13.1,6.9l0.2-6.1h4.4v41.4
		c0,5.4-1.5,9.8-4.6,12.9c-3,3.2-7.2,4.8-12.4,4.8c-2.9,0-5.7-0.7-8.4-2c-2.7-1.3-4.8-3.1-6.3-5.3l2.6-2.8c3.3,4.1,7.2,6.1,11.8,6.1
		c3.9,0,7-1.2,9.1-3.5s3.3-5.5,3.4-9.6v-5.3c-3,4.2-7.4,6.3-13.1,6.3c-4.9,0-8.8-2-11.8-5.9s-4.5-9.2-4.5-15.8V170.5z M783.4,171.3
		c0,5.4,1.1,9.6,3.2,12.8c2.2,3.1,5.2,4.7,9.1,4.7c5.8,0,9.8-2.6,12.2-7.7v-19.6c-1.1-2.7-2.7-4.8-4.7-6.2c-2.1-1.4-4.5-2.1-7.4-2.1
		c-3.9,0-7,1.5-9.2,4.6S783.4,165.3,783.4,171.3z"/>
	<path class="st4" d="M851.6,192c-0.5-1.3-0.8-3.3-0.9-5.9c-1.6,2.1-3.7,3.8-6.3,4.9s-5.2,1.7-8.1,1.7c-4.1,0-7.4-1.1-9.9-3.4
		c-2.5-2.3-3.8-5.1-3.8-8.6c0-4.1,1.7-7.4,5.1-9.8c3.4-2.4,8.2-3.6,14.3-3.6h8.5v-4.8c0-3-0.9-5.4-2.8-7.1c-1.9-1.7-4.6-2.6-8.1-2.6
		c-3.3,0-6,0.8-8.1,2.5c-2.1,1.7-3.2,3.7-3.2,6l-4.7,0c0-3.4,1.6-6.3,4.7-8.7s7-3.7,11.5-3.7c4.7,0,8.4,1.2,11.2,3.5
		c2.7,2.4,4.1,5.6,4.2,9.9v20c0,4.1,0.4,7.1,1.3,9.2v0.5H851.6z M836.9,188.6c3.1,0,5.9-0.8,8.4-2.3c2.5-1.5,4.3-3.5,5.4-6.1V171
		h-8.4c-4.7,0.1-8.3,0.9-10.9,2.6c-2.6,1.7-3.9,3.9-3.9,6.8c0,2.4,0.9,4.3,2.6,5.9S834.1,188.6,836.9,188.6z"/>
	<path class="st4" d="M872,149.7l0.2,6.9c1.6-2.6,3.5-4.5,5.9-5.7c2.3-1.3,4.9-1.9,7.8-1.9c6.7,0,10.9,2.7,12.7,8.2
		c1.5-2.6,3.5-4.7,6.1-6.1c2.5-1.4,5.3-2.1,8.4-2.1c9.1,0,13.7,4.9,13.9,14.8V192h-4.7v-27.9c0-3.8-0.8-6.6-2.4-8.4
		c-1.6-1.8-4.2-2.7-7.8-2.7c-3.4,0.1-6.2,1.1-8.5,3.3c-2.3,2.1-3.6,4.7-3.9,7.8v28h-4.7v-28.2c0-3.6-0.9-6.3-2.6-8.1
		c-1.7-1.8-4.3-2.7-7.8-2.7c-2.9,0-5.5,0.8-7.6,2.5s-3.7,4.2-4.7,7.5v29h-4.7v-42.3H872z"/>
	<path class="st4" d="M955,192.8c-3.6,0-6.8-0.9-9.7-2.7c-2.9-1.8-5.2-4.2-6.8-7.4c-1.6-3.2-2.4-6.7-2.4-10.6v-1.7
		c0-4.1,0.8-7.7,2.4-11c1.6-3.3,3.8-5.8,6.6-7.7c2.8-1.9,5.9-2.8,9.1-2.8c5.1,0,9.2,1.8,12.2,5.3c3,3.5,4.5,8.3,4.5,14.4v2.6h-30.2
		v0.9c0,4.8,1.4,8.8,4.1,12c2.7,3.2,6.2,4.8,10.4,4.8c2.5,0,4.7-0.5,6.6-1.4c1.9-0.9,3.7-2.4,5.2-4.4l2.9,2.2
		C966.6,190.3,961.6,192.8,955,192.8z M954.2,152.9c-3.5,0-6.5,1.3-8.9,3.9c-2.4,2.6-3.9,6-4.4,10.4h25.4v-0.5
		c-0.1-4.1-1.3-7.4-3.5-9.9C960.6,154.2,957.7,152.9,954.2,152.9z"/>
	<path class="st4" d="M1015.8,192.8c-3.6,0-6.8-0.9-9.7-2.7c-2.9-1.8-5.2-4.2-6.8-7.4c-1.6-3.2-2.4-6.7-2.4-10.6v-1.7
		c0-4.1,0.8-7.7,2.4-11c1.6-3.3,3.8-5.8,6.6-7.7c2.8-1.9,5.9-2.8,9.1-2.8c5.1,0,9.2,1.8,12.2,5.3c3,3.5,4.5,8.3,4.5,14.4v2.6h-30.2
		v0.9c0,4.8,1.4,8.8,4.1,12c2.7,3.2,6.2,4.8,10.4,4.8c2.5,0,4.7-0.5,6.6-1.4c1.9-0.9,3.7-2.4,5.2-4.4l2.9,2.2
		C1027.4,190.3,1022.4,192.8,1015.8,192.8z M1015,152.9c-3.5,0-6.5,1.3-8.9,3.9c-2.4,2.6-3.9,6-4.4,10.4h25.4v-0.5
		c-0.1-4.1-1.3-7.4-3.5-9.9C1021.4,154.2,1018.5,152.9,1015,152.9z"/>
	<path class="st4" d="M1054.1,166.9l11.4-17.1h5.5l-14.3,20.7l15,21.5h-5.5l-12-17.9l-12,17.9h-5.5l14.9-21.5l-14.3-20.7h5.5
		L1054.1,166.9z"/>
	<path class="st4" d="M1094.5,188.8c3.3,0,6-0.9,8.2-2.8c2.2-1.8,3.4-4.2,3.6-7.1h4.5c-0.1,2.6-0.9,4.9-2.4,7.1
		c-1.5,2.1-3.5,3.8-5.9,5s-5.1,1.8-7.9,1.8c-5.5,0-9.9-1.9-13.2-5.8c-3.2-3.9-4.9-9-4.9-15.5V170c0-4.2,0.7-7.9,2.2-11.1
		c1.5-3.2,3.5-5.7,6.3-7.4c2.7-1.7,5.9-2.6,9.6-2.6c4.6,0,8.5,1.4,11.5,4.1c3,2.8,4.6,6.4,4.8,10.9h-4.5c-0.2-3.3-1.4-6-3.6-8
		c-2.2-2-4.9-3-8.2-3c-4.2,0-7.5,1.5-9.8,4.6c-2.3,3-3.5,7.3-3.5,12.8v1.4c0,5.4,1.2,9.6,3.5,12.6
		C1087,187.3,1090.3,188.8,1094.5,188.8z"/>
	<path class="st4" d="M1124.8,156.9c1.5-2.5,3.5-4.5,5.9-5.9c2.4-1.4,5-2.1,7.9-2.1c4.5,0,7.9,1.3,10.1,3.8
		c2.2,2.6,3.3,6.4,3.4,11.5V192h-4.6v-27.8c0-3.8-0.8-6.6-2.4-8.4c-1.6-1.8-4.1-2.8-7.6-2.8c-2.9,0-5.4,0.9-7.7,2.7
		c-2.2,1.8-3.9,4.3-4.9,7.3V192h-4.6v-60h4.6V156.9z"/>
	<path class="st4" d="M1190.7,192c-0.5-1.3-0.8-3.3-0.9-5.9c-1.6,2.1-3.7,3.8-6.3,4.9s-5.2,1.7-8.1,1.7c-4.1,0-7.4-1.1-9.9-3.4
		c-2.5-2.3-3.8-5.1-3.8-8.6c0-4.1,1.7-7.4,5.1-9.8c3.4-2.4,8.2-3.6,14.3-3.6h8.5v-4.8c0-3-0.9-5.4-2.8-7.1c-1.9-1.7-4.6-2.6-8.1-2.6
		c-3.3,0-6,0.8-8.1,2.5c-2.1,1.7-3.2,3.7-3.2,6l-4.7,0c0-3.4,1.6-6.3,4.7-8.7s7-3.7,11.5-3.7c4.7,0,8.4,1.2,11.2,3.5
		c2.7,2.4,4.1,5.6,4.2,9.9v20c0,4.1,0.4,7.1,1.3,9.2v0.5H1190.7z M1176,188.6c3.1,0,5.9-0.8,8.4-2.3c2.5-1.5,4.3-3.5,5.4-6.1V171
		h-8.4c-4.7,0.1-8.3,0.9-10.9,2.6c-2.6,1.7-3.9,3.9-3.9,6.8c0,2.4,0.9,4.3,2.6,5.9S1173.2,188.6,1176,188.6z"/>
	<path class="st4" d="M1211.3,149.7l0.2,7.2c1.6-2.6,3.6-4.6,5.9-6c2.4-1.4,5-2.1,7.9-2.1c4.5,0,7.9,1.3,10.1,3.8
		c2.2,2.6,3.3,6.4,3.4,11.5V192h-4.6v-27.8c0-3.8-0.8-6.6-2.4-8.4c-1.6-1.8-4.1-2.8-7.6-2.8c-2.9,0-5.4,0.9-7.7,2.7
		c-2.2,1.8-3.9,4.3-4.9,7.3V192h-4.6v-42.3H1211.3z"/>
	<path class="st4" d="M1249,170.5c0-6.6,1.5-11.9,4.4-15.7s6.9-5.8,11.9-5.8c5.8,0,10.1,2.3,13.1,6.9l0.2-6.1h4.4v41.4
		c0,5.4-1.5,9.8-4.6,12.9c-3,3.2-7.2,4.8-12.4,4.8c-2.9,0-5.7-0.7-8.4-2c-2.7-1.3-4.8-3.1-6.3-5.3l2.6-2.8c3.3,4.1,7.2,6.1,11.8,6.1
		c3.9,0,7-1.2,9.1-3.5s3.3-5.5,3.4-9.6v-5.3c-3,4.2-7.4,6.3-13.1,6.3c-4.9,0-8.8-2-11.8-5.9s-4.5-9.2-4.5-15.8V170.5z M1253.7,171.3
		c0,5.4,1.1,9.6,3.2,12.8c2.2,3.1,5.2,4.7,9.1,4.7c5.8,0,9.8-2.6,12.2-7.7v-19.6c-1.1-2.7-2.7-4.8-4.7-6.2c-2.1-1.4-4.5-2.1-7.4-2.1
		c-3.9,0-7,1.5-9.2,4.6S1253.7,165.3,1253.7,171.3z"/>
	<path class="st4" d="M1294.9,137.5c0-0.9,0.3-1.6,0.9-2.2c0.6-0.6,1.4-0.9,2.3-0.9c1,0,1.8,0.3,2.4,0.9c0.6,0.6,0.9,1.4,0.9,2.2
		s-0.3,1.6-0.9,2.2s-1.4,0.9-2.4,0.9c-1,0-1.8-0.3-2.3-0.9C1295.2,139.1,1294.9,138.4,1294.9,137.5z M1300.4,192h-4.7v-42.3h4.7V192
		z"/>
	<path class="st4" d="M1317.6,149.7l0.2,7.2c1.6-2.6,3.6-4.6,5.9-6c2.4-1.4,5-2.1,7.9-2.1c4.5,0,7.9,1.3,10.1,3.8
		c2.2,2.6,3.3,6.4,3.4,11.5V192h-4.6v-27.8c0-3.8-0.8-6.6-2.4-8.4c-1.6-1.8-4.1-2.8-7.6-2.8c-2.9,0-5.4,0.9-7.7,2.7
		c-2.2,1.8-3.9,4.3-4.9,7.3V192h-4.6v-42.3H1317.6z"/>
	<path class="st4" d="M1355.2,170.5c0-6.6,1.5-11.9,4.4-15.7s6.9-5.8,11.9-5.8c5.8,0,10.1,2.3,13.1,6.9l0.2-6.1h4.4v41.4
		c0,5.4-1.5,9.8-4.6,12.9c-3,3.2-7.2,4.8-12.4,4.8c-2.9,0-5.7-0.7-8.4-2c-2.7-1.3-4.8-3.1-6.3-5.3l2.6-2.8c3.3,4.1,7.2,6.1,11.8,6.1
		c3.9,0,7-1.2,9.1-3.5s3.3-5.5,3.4-9.6v-5.3c-3,4.2-7.4,6.3-13.1,6.3c-4.9,0-8.8-2-11.8-5.9s-4.5-9.2-4.5-15.8V170.5z M1359.9,171.3
		c0,5.4,1.1,9.6,3.2,12.8c2.2,3.1,5.2,4.7,9.1,4.7c5.8,0,9.8-2.6,12.2-7.7v-19.6c-1.1-2.7-2.7-4.8-4.7-6.2c-2.1-1.4-4.5-2.1-7.4-2.1
		c-3.9,0-7,1.5-9.2,4.6S1359.9,165.3,1359.9,171.3z"/>
	<path class="st4" d="M513.6,249c0,4.1-0.9,7.4-2.7,9.8c-1.8,2.4-4.3,3.6-7.3,3.6c-3.7,0-6.5-1.4-8.3-4.1l-0.1,3.6h-2.7v-37.5h2.9
		v14.9c1.9-2.9,4.6-4.3,8.3-4.3c3.1,0,5.6,1.2,7.4,3.6s2.7,5.7,2.7,9.9V249z M510.7,248.5c0-3.5-0.7-6.2-2-8.1
		c-1.4-1.9-3.3-2.8-5.7-2.8c-1.9,0-3.5,0.5-4.8,1.4c-1.3,0.9-2.3,2.3-3,4v11.9c1.5,3.3,4.1,5,7.8,5c2.4,0,4.3-1,5.7-2.9
		C510,255.2,510.7,252.3,510.7,248.5z"/>
	<path class="st4" d="M530.3,262.5c-2.2,0-4.3-0.6-6.1-1.7c-1.8-1.1-3.2-2.6-4.2-4.6c-1-2-1.5-4.2-1.5-6.7v-1c0-2.5,0.5-4.8,1.5-6.9
		c1-2,2.4-3.6,4.1-4.8s3.7-1.7,5.7-1.7c3.2,0,5.7,1.1,7.6,3.3s2.8,5.2,2.8,9v1.6h-18.8v0.6c0,3,0.9,5.5,2.6,7.5c1.7,2,3.9,3,6.5,3
		c1.6,0,2.9-0.3,4.1-0.9c1.2-0.6,2.3-1.5,3.3-2.7l1.8,1.4C537.5,260.9,534.4,262.5,530.3,262.5z M529.8,237.6c-2.2,0-4,0.8-5.6,2.4
		s-2.4,3.8-2.7,6.5h15.8v-0.3c-0.1-2.5-0.8-4.6-2.2-6.2C533.8,238.4,532,237.6,529.8,237.6z"/>
	<path class="st4" d="M550.4,228.8v6.8h5.5v2.4h-5.5v17.6c0,1.5,0.3,2.6,0.8,3.3s1.4,1.1,2.6,1.1c0.5,0,1.3-0.1,2.4-0.2l0.1,2.4
		c-0.8,0.3-1.8,0.4-3.1,0.4c-2,0-3.5-0.6-4.4-1.7c-0.9-1.2-1.4-2.9-1.4-5.1V238h-4.9v-2.4h4.9v-6.8H550.4z"/>
	<path class="st4" d="M568.3,255.9l0.4,2.3l0.6-2.4l6.3-20.2h2.5l6.3,20l0.7,2.8l0.6-2.6l5.4-20.3h3l-7.7,26.4h-2.5l-6.8-20.9
		l-0.3-1.4l-0.3,1.5l-6.7,20.9h-2.5l-7.7-26.4h3L568.3,255.9z"/>
	<path class="st4" d="M609.9,262.5c-2.2,0-4.3-0.6-6.1-1.7c-1.8-1.1-3.2-2.6-4.2-4.6c-1-2-1.5-4.2-1.5-6.7v-1c0-2.5,0.5-4.8,1.5-6.9
		c1-2,2.4-3.6,4.1-4.8s3.7-1.7,5.7-1.7c3.2,0,5.7,1.1,7.6,3.3s2.8,5.2,2.8,9v1.6H601v0.6c0,3,0.9,5.5,2.6,7.5c1.7,2,3.9,3,6.5,3
		c1.6,0,2.9-0.3,4.1-0.9c1.2-0.6,2.3-1.5,3.3-2.7l1.8,1.4C617.1,260.9,614,262.5,609.9,262.5z M609.4,237.6c-2.2,0-4,0.8-5.6,2.4
		s-2.4,3.8-2.7,6.5h15.8v-0.3c-0.1-2.5-0.8-4.6-2.2-6.2C613.4,238.4,611.6,237.6,609.4,237.6z"/>
	<path class="st4" d="M635.7,262.5c-2.2,0-4.3-0.6-6.1-1.7c-1.8-1.1-3.2-2.6-4.2-4.6c-1-2-1.5-4.2-1.5-6.7v-1c0-2.5,0.5-4.8,1.5-6.9
		c1-2,2.4-3.6,4.1-4.8s3.7-1.7,5.7-1.7c3.2,0,5.7,1.1,7.6,3.3s2.8,5.2,2.8,9v1.6h-18.8v0.6c0,3,0.9,5.5,2.6,7.5c1.7,2,3.9,3,6.5,3
		c1.6,0,2.9-0.3,4.1-0.9c1.2-0.6,2.3-1.5,3.3-2.7l1.8,1.4C642.9,260.9,639.8,262.5,635.7,262.5z M635.2,237.6c-2.2,0-4,0.8-5.6,2.4
		s-2.4,3.8-2.7,6.5h15.8v-0.3c-0.1-2.5-0.8-4.6-2.2-6.2C639.2,238.4,637.4,237.6,635.2,237.6z"/>
	<path class="st4" d="M654.1,235.6l0.1,4.5c1-1.6,2.2-2.9,3.7-3.7c1.5-0.9,3.1-1.3,4.9-1.3c2.8,0,4.9,0.8,6.3,2.4
		c1.4,1.6,2.1,4,2.1,7.2V262h-2.9v-17.4c0-2.4-0.5-4.1-1.5-5.3c-1-1.2-2.6-1.7-4.7-1.7c-1.8,0-3.4,0.6-4.8,1.7s-2.4,2.7-3.1,4.6V262
		h-2.9v-26.4H654.1z"/>
	<path class="st4" d="M707.9,258.6c-1.8,2.6-4.6,3.8-8.4,3.8c-2.8,0-5-0.8-6.4-2.5s-2.2-4.1-2.2-7.3v-17.2h2.9v16.8
		c0,5,2,7.5,6.1,7.5c4.2,0,6.9-1.7,8-5.2v-19.1h2.9V262H708L707.9,258.6z"/>
	<path class="st4" d="M734.2,255.3c0-1.4-0.6-2.6-1.7-3.5c-1.2-0.9-2.9-1.6-5.3-2.1s-4.2-1.1-5.5-1.7c-1.3-0.6-2.3-1.4-2.9-2.4
		c-0.6-0.9-0.9-2.1-0.9-3.4c0-2.1,0.9-3.8,2.6-5.2c1.7-1.4,4-2,6.7-2c2.9,0,5.3,0.7,7.1,2.2c1.8,1.5,2.7,3.4,2.7,5.7h-2.9
		c0-1.5-0.6-2.8-1.9-3.9c-1.3-1-2.9-1.5-4.9-1.5c-1.9,0-3.5,0.4-4.6,1.3c-1.2,0.9-1.7,2-1.7,3.3c0,1.3,0.5,2.3,1.5,3.1
		c1,0.7,2.7,1.4,5.3,2c2.6,0.6,4.5,1.2,5.8,1.9c1.3,0.7,2.2,1.5,2.8,2.5c0.6,1,0.9,2.1,0.9,3.5c0,2.2-0.9,4-2.7,5.3
		c-1.8,1.3-4.1,2-7,2c-3.1,0-5.6-0.7-7.5-2.2c-1.9-1.5-2.9-3.4-2.9-5.7h2.9c0.1,1.7,0.8,3,2.2,4c1.3,1,3.1,1.4,5.3,1.4
		c2,0,3.7-0.4,4.9-1.3C733.6,257.8,734.2,256.6,734.2,255.3z"/>
	<path class="st4" d="M754,262.5c-2.2,0-4.3-0.6-6.1-1.7c-1.8-1.1-3.2-2.6-4.2-4.6c-1-2-1.5-4.2-1.5-6.7v-1c0-2.5,0.5-4.8,1.5-6.9
		c1-2,2.4-3.6,4.1-4.8s3.7-1.7,5.7-1.7c3.2,0,5.7,1.1,7.6,3.3c1.9,2.2,2.8,5.2,2.8,9v1.6H745v0.6c0,3,0.9,5.5,2.6,7.5
		c1.7,2,3.9,3,6.5,3c1.6,0,2.9-0.3,4.1-0.9c1.2-0.6,2.3-1.5,3.3-2.7l1.8,1.4C761.2,260.9,758,262.5,754,262.5z M753.4,237.6
		c-2.2,0-4,0.8-5.6,2.4c-1.5,1.6-2.4,3.8-2.7,6.5H761v-0.3c-0.1-2.5-0.8-4.6-2.2-6.2C757.4,238.4,755.6,237.6,753.4,237.6z"/>
	<path class="st4" d="M781.8,238c-0.6-0.1-1.3-0.2-2-0.2c-1.8,0-3.4,0.5-4.6,1.5c-1.3,1-2.2,2.5-2.7,4.4V262h-2.9v-26.4h2.9l0,4.2
		c1.5-3.1,4-4.7,7.4-4.7c0.8,0,1.5,0.1,1.9,0.3L781.8,238z"/>
	<path class="st4" d="M802.2,255.3c0-1.4-0.6-2.6-1.7-3.5c-1.2-0.9-2.9-1.6-5.3-2.1s-4.2-1.1-5.5-1.7c-1.3-0.6-2.3-1.4-2.9-2.4
		c-0.6-0.9-0.9-2.1-0.9-3.4c0-2.1,0.9-3.8,2.6-5.2c1.7-1.4,4-2,6.7-2c2.9,0,5.3,0.7,7.1,2.2c1.8,1.5,2.7,3.4,2.7,5.7h-2.9
		c0-1.5-0.6-2.8-1.9-3.9c-1.3-1-2.9-1.5-4.9-1.5c-1.9,0-3.5,0.4-4.6,1.3c-1.2,0.9-1.7,2-1.7,3.3c0,1.3,0.5,2.3,1.5,3.1
		c1,0.7,2.7,1.4,5.3,2c2.6,0.6,4.5,1.2,5.8,1.9c1.3,0.7,2.2,1.5,2.8,2.5c0.6,1,0.9,2.1,0.9,3.5c0,2.2-0.9,4-2.7,5.3
		c-1.8,1.3-4.1,2-7,2c-3.1,0-5.6-0.7-7.5-2.2c-1.9-1.5-2.9-3.4-2.9-5.7h2.9c0.1,1.7,0.8,3,2.2,4c1.3,1,3.1,1.4,5.3,1.4
		c2,0,3.7-0.4,4.9-1.3C801.6,257.8,802.2,256.6,802.2,255.3z"/>
</g>
<g>
	<path class="st11" d="M187,239c-32.6-22.9-48.5-56.4-35.7-78.4c14-24.2,57-25.5,96.1-2.9c3.9,2.3,7.6,4.7,11.2,7.2"/>
	<linearGradient id="SVGID_2_" gradientUnits="userSpaceOnUse" x1="234.8775" y1="206.3509" x2="282.3341" y2="124.1537">
		<stop  offset="0" style="stop-color:#D57D2F"/>
		<stop  offset="0.2727" style="stop-color:#C52337"/>
		<stop  offset="0.6743" style="stop-color:#8E5199"/>
		<stop  offset="1" style="stop-color:#6590CA"/>
	</linearGradient>
	<path class="st1" d="M258.6,117.8c-26.2,0-47.4,21.2-47.4,47.4c0,26.2,21.2,47.4,47.4,47.4s47.4-21.2,47.4-47.4
		C306.1,139,284.8,117.8,258.6,117.8z M258.6,176.5c-6.2,0-11.2-5-11.2-11.2c0-6.2,5-11.2,11.2-11.2c6.2,0,11.2,5,11.2,11.2
		C269.8,171.4,264.8,176.5,258.6,176.5z"/>
	<g>
		<linearGradient id="SVGID_3_" gradientUnits="userSpaceOnUse" x1="154.2901" y1="318.9817" x2="289.947" y2="84.0171">
			<stop  offset="0" style="stop-color:#D57D2F"/>
			<stop  offset="0.2727" style="stop-color:#C52337"/>
			<stop  offset="0.6743" style="stop-color:#8E5199"/>
			<stop  offset="1" style="stop-color:#6590CA"/>
		</linearGradient>
		<path class="st2" d="M221.8,352.9c-5.7,0-11.3-1.5-16.4-4.4l-102.7-59.7c-10-5.8-16.3-16.7-16.2-28.3l0.3-118.8
			c0-11.6,6.3-22.4,16.4-28.2l103-59.1c10.1-5.8,22.6-5.7,32.6,0.1l102.7,59.7c10,5.8,16.3,16.7,16.2,28.3l-0.3,118.8
			c0,11.6-6.3,22.4-16.4,28.2l-103,59.1C233,351.5,227.4,352.9,221.8,352.9z M222.4,64.3c-3.2,0-6.3,0.8-9.2,2.4l-103,59.1
			c-5.7,3.3-9.2,9.4-9.3,15.9l-0.3,118.8c0,6.6,3.5,12.7,9.2,16l102.7,59.7c5.7,3.3,12.7,3.3,18.4,0l103-59.1
			c5.7-3.3,9.2-9.4,9.3-15.9l0.3-118.8c0-6.6-3.5-12.7-9.2-16L231.7,66.8C228.8,65.1,225.6,64.3,222.4,64.3z"/>
	</g>
	<linearGradient id="SVGID_4_" gradientUnits="userSpaceOnUse" x1="162.3846" y1="278.8438" x2="209.8412" y2="196.6467">
		<stop  offset="0" style="stop-color:#D57D2F"/>
		<stop  offset="0.2727" style="stop-color:#C52337"/>
		<stop  offset="0.6743" style="stop-color:#8E5199"/>
		<stop  offset="1" style="stop-color:#6590CA"/>
	</linearGradient>
	<path class="st3" d="M186.1,190.3c-26.2,0-47.4,21.2-47.4,47.4c0,26.2,21.2,47.4,47.4,47.4s47.4-21.2,47.4-47.4
		C233.6,211.5,212.3,190.3,186.1,190.3z M186.1,248.9c-6.2,0-11.2-5-11.2-11.2c0-6.2,5-11.2,11.2-11.2s11.2,5,11.2,11.2
		C197.3,243.9,192.3,248.9,186.1,248.9z"/>
	<path class="st15" d="M186.1,222.4c-8.5,0-15.4,6.9-15.4,15.4c0,8.5,6.9,15.4,15.4,15.4c8.5,0,15.4-6.9,15.4-15.4
		C201.5,229.3,194.6,222.4,186.1,222.4z M186.1,248.9c-6.2,0-11.2-5-11.2-11.2c0-6.2,5-11.2,11.2-11.2s11.2,5,11.2,11.2
		C197.3,243.9,192.3,248.9,186.1,248.9z"/>
	<path class="st15" d="M258.6,149.9c-8.5,0-15.4,6.9-15.4,15.4c0,8.5,6.9,15.4,15.4,15.4s15.4-6.9,15.4-15.4
		C274,156.8,267.1,149.9,258.6,149.9z M258.6,176.5c-6.2,0-11.2-5-11.2-11.2c0-6.2,5-11.2,11.2-11.2c6.2,0,11.2,5,11.2,11.2
		C269.8,171.4,264.8,176.5,258.6,176.5z"/>
	<path class="st11" d="M258.6,164.9c31.7,22.8,46.9,55.7,34.4,77.5c-14,24.2-57,25.5-96.1,2.9c-3.4-2-6.7-4.1-9.8-6.3"/>
	<path class="st15" d="M279,247.4l10.8-2.6c0.9-0.2,1.8,0.6,1.5,1.5l-2.6,10.8c-0.2,1-1.4,1.3-2.2,0.6l-8.3-8.3
		C277.7,248.9,278,247.7,279,247.4z"/>
	<path class="st15" d="M165.4,154.9l-10.8,2.6c-0.9,0.2-1.8-0.6-1.5-1.5l2.6-10.8c0.2-1,1.4-1.3,2.2-0.6l8.3,8.3
		C166.7,153.5,166.4,154.7,165.4,154.9z"/>
</g>
</svg>
