<?xml version="1.0" encoding="utf-8"?>
<!-- Generator: Adobe Illustrator 22.1.0, SVG Export Plug-In . SVG Version: 6.00 Build 0)  -->
<svg version="1.1" id="Camada_1" xmlns="http://www.w3.org/2000/svg" xmlns:xlink="http://www.w3.org/1999/xlink" x="0px" y="0px"
	 viewBox="0 0 1707 403" style="enable-background:new 0 0 1707 403;" xml:space="preserve">
<style type="text/css">
	.st0{fill:url(#SVGID_1_);}
	.st1{fill:url(#SVGID_2_);}
	.st2{fill:#FFFFFF;}
	.st3{fill:url(#SVGID_3_);}
	.st4{fill:url(#SVGID_4_);}
</style>
<linearGradient id="SVGID_1_" gradientUnits="userSpaceOnUse" x1="309" y1="204.25" x2="1546.0558" y2="204.25">
	<stop  offset="0" style="stop-color:#6D0085"/>
	<stop  offset="1" style="stop-color:#240085"/>
</linearGradient>
<path class="st0" d="M1451.3,299H314.9l36.9-23.3v-138L309,109.5h1142.3c52.3,0,94.7,42.4,94.7,94.7v0
	C1546.1,256.6,1503.6,299,1451.3,299z"/>
<linearGradient id="SVGID_2_" gradientUnits="userSpaceOnUse" x1="176.2617" y1="121.7912" x2="266.3383" y2="277.8088" gradientTransform="matrix(1 0 0 -1 0 404)">
	<stop  offset="0" style="stop-color:#D57D2F"/>
	<stop  offset="0.2727" style="stop-color:#C52337"/>
	<stop  offset="0.6743" style="stop-color:#8E5199"/>
	<stop  offset="1" style="stop-color:#6590CA"/>
</linearGradient>
<path class="st1" d="M131.3,245.6l0.2-83.2c0-6.4,3.4-12.3,9-15.5l72.1-41.4c5.5-3.2,12.3-3.2,17.9,0l71.9,41.8
	c5.5,3.2,8.9,9.1,8.9,15.5l-0.2,83.2c0,6.4-3.4,12.3-9,15.5L230,302.9c-5.5,3.2-12.3,3.2-17.9,0l-71.9-41.8
	C134.6,257.9,131.2,252,131.3,245.6z"/>
<g>
	<path class="st2" d="M221.8,174c0,14.6,15.4,23.8,27.7,16.5l97.8-58.1c-1.8-1.9-3.9-3.6-6.2-5L227.7,59.6c-1.9-1.1-3.8-2-5.9-2.6
		V174z"/>
</g>
<radialGradient id="SVGID_3_" cx="221.2655" cy="199.8" r="137.1105" gradientTransform="matrix(1 0 0 -1 0 404)" gradientUnits="userSpaceOnUse">
	<stop  offset="0" style="stop-color:#F7F7F8"/>
	<stop  offset="1" style="stop-color:#D8D9DD"/>
</radialGradient>
<path class="st3" d="M344.4,266.5l-90.3-52.1c-7.8-4.5-7.8-15.8,0-20.3l90.3-52.1c2.8-1.6,3.7-5.2,2.1-8s-5.2-3.7-8-2.1l-94.2,54.4
	c-7.8,4.5-17.6-1.1-17.6-10.2V62.9c0-3-2.1-5.7-5.1-6c-3.5-0.4-6.5,2.3-6.5,5.8v113.1c0,9-9.8,14.7-17.6,10.2l-93.3-54
	c-2.6-1.5-6-1-7.8,1.4c-2.1,2.9-1.2,6.8,1.7,8.5l90.3,52.1c7.8,4.5,7.8,15.8,0,20.3l-90.3,52.1c-2.8,1.6-3.7,5.2-2.1,8
	s5.2,3.7,8,2.1l94.2-54.4c7.8-4.5,17.6,1.1,17.6,10.2v113.2c0,3,2.1,5.7,5.1,6c3.5,0.4,6.5-2.3,6.5-5.8V232.8
	c0-9,9.8-14.7,17.6-10.2l93.3,53.9c2.6,1.5,6,1,7.8-1.4C348.3,272.2,347.4,268.3,344.4,266.5z"/>
<g>
	
		<linearGradient id="SVGID_4_" gradientUnits="userSpaceOnUse" x1="152.8422" y1="81.4812" x2="290.1573" y2="319.3179" gradientTransform="matrix(1 0 0 -1 0 404)">
		<stop  offset="0" style="stop-color:#D57D2F"/>
		<stop  offset="0.2727" style="stop-color:#C52337"/>
		<stop  offset="0.6743" style="stop-color:#8E5199"/>
		<stop  offset="1" style="stop-color:#6590CA"/>
	</linearGradient>
	<path class="st4" d="M221.2,356.9c-5.7,0-11.5-1.5-16.6-4.5l-104-60.4c-10.2-5.9-16.5-16.9-16.4-28.6l0.3-120.3
		c0-11.8,6.4-22.7,16.6-28.5l104.3-59.9c10.2-5.9,22.8-5.8,33,0.1l104,60.4c10.2,5.9,16.5,16.9,16.4,28.6l-0.3,120.3
		c0,11.8-6.4,22.7-16.6,28.5l-104.3,59.9C232.6,355.4,226.9,356.9,221.2,356.9z M221.9,64.7c-3.2,0-6.4,0.8-9.3,2.5L108.3,127
		c-5.8,3.3-9.4,9.5-9.4,16.1l-0.3,120.3c0,6.6,3.5,12.8,9.3,16.2l104,60.4c5.7,3.3,12.9,3.4,18.7,0l104.3-59.9
		c5.8-3.3,9.4-9.5,9.4-16.1l0.3-120.3c0-6.6-3.5-12.8-9.3-16.2l-104-60.4C228.3,65.5,225.1,64.7,221.9,64.7z"/>
</g>
<g>
	<path class="st2" d="M504.1,182.3c-0.6,5.9-2.8,10.4-6.3,13.6c-3.6,3.1-8.4,4.7-14.3,4.7c-4.2,0-7.9-1-11.1-3.1
		c-3.2-2.1-5.7-5-7.4-8.9c-1.7-3.8-2.6-8.2-2.7-13.1v-7.3c0-5,0.9-9.4,2.6-13.3c1.7-3.9,4.3-6.8,7.5-8.9c3.3-2.1,7.1-3.1,11.3-3.1
		c6,0,10.8,1.6,14.3,4.9c3.5,3.2,5.5,7.7,6.1,13.5h-4.8c-1.2-9.5-6.4-14.3-15.5-14.3c-5.1,0-9.1,1.9-12.2,5.7
		c-3,3.8-4.5,9.1-4.5,15.8v6.9c0,6.5,1.5,11.7,4.4,15.5c2.9,3.9,6.9,5.8,11.9,5.8c5,0,8.7-1.2,11.2-3.6c2.5-2.4,4.1-5.9,4.7-10.7
		H504.1z"/>
	<path class="st2" d="M512,178.3c0-4,0.8-7.6,2.3-10.8c1.6-3.2,3.8-5.7,6.6-7.5c2.8-1.8,6.1-2.7,9.7-2.7c5.6,0,10.1,1.9,13.5,5.8
		c3.4,3.9,5.2,9.1,5.2,15.5v1c0,4-0.8,7.7-2.3,10.9c-1.6,3.2-3.7,5.7-6.6,7.5c-2.8,1.7-6.1,2.6-9.7,2.6c-5.5,0-10-1.9-13.5-5.8
		c-3.5-3.9-5.2-9.1-5.2-15.5V178.3z M516.6,179.6c0,5,1.3,9.1,3.9,12.3c2.6,3.2,6,4.8,10.2,4.8c4.2,0,7.5-1.6,10.1-4.8
		c2.6-3.2,3.9-7.4,3.9-12.7v-0.9c0-3.2-0.6-6.1-1.8-8.8c-1.2-2.6-2.8-4.7-5-6.2c-2.1-1.5-4.6-2.2-7.3-2.2c-4.1,0-7.5,1.6-10.1,4.8
		c-2.6,3.2-3.9,7.5-3.9,12.7V179.6z"/>
	<path class="st2" d="M563.2,158l0.2,7.1c1.6-2.6,3.5-4.5,5.9-5.9c2.3-1.4,4.9-2,7.8-2c4.5,0,7.8,1.3,10,3.8
		c2.2,2.5,3.3,6.3,3.3,11.3v27.4h-4.6v-27.4c0-3.7-0.8-6.5-2.4-8.3c-1.6-1.8-4-2.7-7.5-2.7c-2.9,0-5.4,0.9-7.6,2.7
		c-2.2,1.8-3.8,4.2-4.9,7.2v28.6h-4.6V158H563.2z"/>
	<path class="st2" d="M606.6,158l0.2,7.1c1.6-2.6,3.5-4.5,5.9-5.9c2.3-1.4,4.9-2,7.8-2c4.5,0,7.8,1.3,10,3.8
		c2.2,2.5,3.3,6.3,3.3,11.3v27.4H629v-27.4c0-3.7-0.8-6.5-2.4-8.3c-1.6-1.8-4-2.7-7.5-2.7c-2.9,0-5.4,0.9-7.6,2.7
		c-2.2,1.8-3.8,4.2-4.9,7.2v28.6h-4.6V158H606.6z"/>
	<path class="st2" d="M661.7,200.5c-3.5,0-6.8-0.9-9.6-2.6c-2.9-1.7-5.1-4.2-6.7-7.3c-1.6-3.1-2.4-6.6-2.4-10.5v-1.7
		c0-4,0.8-7.6,2.3-10.8c1.6-3.2,3.7-5.7,6.5-7.6c2.8-1.8,5.8-2.8,9-2.8c5.1,0,9.1,1.7,12.1,5.2c3,3.5,4.5,8.2,4.5,14.2v2.6h-29.8
		v0.9c0,4.7,1.4,8.7,4.1,11.8c2.7,3.2,6.1,4.7,10.2,4.7c2.5,0,4.6-0.4,6.5-1.4c1.9-0.9,3.6-2.3,5.1-4.3l2.9,2.2
		C673.1,198.1,668.2,200.5,661.7,200.5z M660.9,161.2c-3.5,0-6.4,1.3-8.8,3.8s-3.8,6-4.3,10.3h25v-0.5c-0.1-4-1.3-7.3-3.4-9.8
		C667.2,162.5,664.4,161.2,660.9,161.2z"/>
	<path class="st2" d="M701.8,196.7c3.2,0,5.9-0.9,8.1-2.7c2.2-1.8,3.3-4.2,3.5-7h4.4c-0.1,2.5-0.9,4.9-2.4,7
		c-1.5,2.1-3.4,3.7-5.8,4.9c-2.4,1.2-5,1.8-7.8,1.8c-5.5,0-9.8-1.9-13-5.7c-3.2-3.8-4.8-8.9-4.8-15.4v-1.4c0-4.1,0.7-7.8,2.2-10.9
		c1.4-3.2,3.5-5.6,6.2-7.3c2.7-1.7,5.8-2.6,9.4-2.6c4.6,0,8.4,1.4,11.3,4.1c3,2.7,4.6,6.3,4.8,10.8h-4.4c-0.2-3.3-1.4-5.9-3.5-7.9
		s-4.9-3-8.1-3c-4.2,0-7.4,1.5-9.7,4.5s-3.5,7.2-3.5,12.7v1.4c0,5.3,1.2,9.5,3.5,12.5C694.4,195.2,697.6,196.7,701.8,196.7z"/>
	<path class="st2" d="M734.2,147.4V158h8.6v3.8h-8.6v27.8c0,2.3,0.4,4,1.3,5.2c0.8,1.1,2.2,1.7,4.2,1.7c0.8,0,2-0.1,3.7-0.4l0.2,3.7
		c-1.2,0.4-2.9,0.6-4.9,0.6c-3.2,0-5.5-0.9-6.9-2.8c-1.4-1.8-2.2-4.5-2.2-8.1v-27.9h-7.7V158h7.7v-10.7H734.2z"/>
	<path class="st2" d="M775,199.8v-38h-6.9V158h6.9V153c0-4.3,1.1-7.5,3.3-9.8c2.2-2.3,5.2-3.4,9.1-3.4c1.7,0,3.4,0.2,4.9,0.6
		l-0.3,3.8c-1.3-0.3-2.7-0.5-4.2-0.5c-2.5,0-4.5,0.8-5.9,2.4c-1.4,1.6-2.1,3.8-2.1,6.7v5.2h10v3.8h-10v38H775z"/>
	<path class="st2" d="M817.1,162c-1-0.2-2-0.3-3.1-0.3c-2.9,0-5.3,0.8-7.3,2.4c-2,1.6-3.4,3.9-4.3,7v28.7h-4.6V158h4.5l0.1,6.6
		c2.4-4.9,6.4-7.4,11.8-7.4c1.3,0,2.3,0.2,3,0.5L817.1,162z"/>
	<path class="st2" d="M821.1,178.3c0-4,0.8-7.6,2.3-10.8c1.6-3.2,3.8-5.7,6.6-7.5c2.8-1.8,6.1-2.7,9.7-2.7c5.6,0,10.1,1.9,13.5,5.8
		c3.4,3.9,5.2,9.1,5.2,15.5v1c0,4-0.8,7.7-2.3,10.9c-1.6,3.2-3.7,5.7-6.6,7.5c-2.8,1.7-6.1,2.6-9.7,2.6c-5.5,0-10-1.9-13.5-5.8
		c-3.5-3.9-5.2-9.1-5.2-15.5V178.3z M825.7,179.6c0,5,1.3,9.1,3.9,12.3c2.6,3.2,6,4.8,10.2,4.8c4.2,0,7.5-1.6,10.1-4.8
		c2.6-3.2,3.9-7.4,3.9-12.7v-0.9c0-3.2-0.6-6.1-1.8-8.8c-1.2-2.6-2.8-4.7-5-6.2c-2.1-1.5-4.6-2.2-7.3-2.2c-4.1,0-7.5,1.6-10.1,4.8
		c-2.6,3.2-3.9,7.5-3.9,12.7V179.6z"/>
	<path class="st2" d="M872.1,158l0.2,6.8c1.5-2.5,3.5-4.4,5.8-5.7c2.3-1.3,4.9-1.9,7.7-1.9c6.6,0,10.8,2.7,12.5,8.1
		c1.5-2.6,3.5-4.6,6-6c2.5-1.4,5.2-2.1,8.3-2.1c8.9,0,13.5,4.9,13.7,14.7v27.9h-4.6v-27.5c0-3.7-0.8-6.5-2.4-8.3
		c-1.6-1.8-4.2-2.7-7.7-2.7c-3.3,0.1-6.1,1.1-8.4,3.2c-2.3,2.1-3.6,4.6-3.8,7.7v27.6h-4.6v-27.9c0-3.6-0.9-6.2-2.5-8
		c-1.7-1.8-4.2-2.6-7.7-2.6c-2.9,0-5.4,0.8-7.5,2.5c-2.1,1.7-3.6,4.1-4.6,7.4v28.6h-4.6V158H872.1z"/>
	<path class="st2" d="M991.5,199.8h-35.2v-3.5l19.2-21.8c3.2-3.7,5.4-6.7,6.6-9.1s1.9-4.7,1.9-7c0-3.5-1-6.4-3.1-8.4
		c-2.1-2.1-5-3.1-8.6-3.1c-3.8,0-6.8,1.2-9.2,3.6c-2.3,2.4-3.5,5.6-3.5,9.4h-4.6c0-3.2,0.7-6,2.1-8.6c1.4-2.6,3.5-4.6,6.1-6.1
		c2.6-1.5,5.6-2.2,9-2.2c5.1,0,9.2,1.4,12.1,4.1c2.9,2.7,4.3,6.4,4.3,11c0,2.6-0.8,5.5-2.5,8.6c-1.6,3.1-4.5,7-8.6,11.6L962,195.9
		h29.5V199.8z"/>
	<path class="st2" d="M1027.3,147.4V158h8.6v3.8h-8.6v27.8c0,2.3,0.4,4,1.3,5.2c0.8,1.1,2.2,1.7,4.2,1.7c0.8,0,2-0.1,3.7-0.4
		l0.2,3.7c-1.2,0.4-2.9,0.6-4.9,0.6c-3.2,0-5.5-0.9-6.9-2.8c-1.4-1.8-2.2-4.5-2.2-8.1v-27.9h-7.7V158h7.7v-10.7H1027.3z"/>
	<path class="st2" d="M1042.1,178.3c0-4,0.8-7.6,2.3-10.8c1.6-3.2,3.8-5.7,6.6-7.5c2.8-1.8,6.1-2.7,9.7-2.7c5.6,0,10.1,1.9,13.5,5.8
		c3.4,3.9,5.2,9.1,5.2,15.5v1c0,4-0.8,7.7-2.3,10.9c-1.6,3.2-3.7,5.7-6.6,7.5c-2.8,1.7-6.1,2.6-9.7,2.6c-5.5,0-10-1.9-13.5-5.8
		c-3.5-3.9-5.2-9.1-5.2-15.5V178.3z M1046.8,179.6c0,5,1.3,9.1,3.9,12.3c2.6,3.2,6,4.8,10.2,4.8c4.2,0,7.5-1.6,10.1-4.8
		c2.6-3.2,3.9-7.4,3.9-12.7v-0.9c0-3.2-0.6-6.1-1.8-8.8c-1.2-2.6-2.8-4.7-5-6.2c-2.1-1.5-4.6-2.2-7.3-2.2c-4.1,0-7.5,1.6-10.1,4.8
		c-2.6,3.2-3.9,7.5-3.9,12.7V179.6z"/>
	<path class="st2" d="M1134.6,143.2v4h-0.5c-6.7,0-12,2-15.9,5.9c-3.9,4-6,9.4-6.4,16.5c1.5-2.1,3.5-3.8,5.9-5
		c2.4-1.2,5.1-1.8,8-1.8c4.9,0,8.9,1.7,11.8,5.1c2.9,3.4,4.4,7.9,4.4,13.4c0,3.7-0.7,6.9-2,9.9s-3.3,5.2-5.9,6.8
		c-2.5,1.6-5.5,2.4-8.7,2.4c-5.4,0-9.7-1.9-13.1-5.8c-3.4-3.9-5.1-8.9-5.1-15.1V175c0-10.1,2.3-17.8,6.9-23.4
		c4.6-5.5,11.1-8.3,19.5-8.4H1134.6z M1125,166.9c-2.9,0-5.7,0.9-8.2,2.6s-4.2,3.9-5.1,6.6v3.9c0,4.9,1.3,8.9,3.8,11.9
		c2.5,3.1,5.8,4.6,9.8,4.6c3.6,0,6.5-1.4,8.7-4.3c2.2-2.9,3.3-6.4,3.3-10.8c0-4.4-1.1-8-3.3-10.6S1128.8,166.9,1125,166.9z"/>
	<path class="st2" d="M1204.7,179.3c0,6.5-1.4,11.7-4.3,15.5c-2.9,3.8-6.7,5.7-11.6,5.7c-5.7,0-10.1-2-13.1-6v21.3h-4.6V158h4.3
		l0.2,5.9c3-4.4,7.4-6.7,13.1-6.7c5,0,8.9,1.9,11.7,5.7s4.3,9,4.3,15.7V179.3z M1200.1,178.5c0-5.3-1.1-9.5-3.3-12.6
		c-2.2-3.1-5.2-4.6-9.1-4.6c-2.8,0-5.3,0.7-7.3,2c-2,1.4-3.6,3.3-4.7,5.9v20c1.1,2.4,2.7,4.2,4.7,5.5c2.1,1.3,4.5,1.9,7.3,1.9
		c3.9,0,6.9-1.5,9.1-4.6C1199,188.9,1200.1,184.4,1200.1,178.5z"/>
	<path class="st2" d="M1220.1,199.8h-4.6v-59.3h4.6V199.8z"/>
	<path class="st2" d="M1259,199.8c-0.5-1.3-0.8-3.3-0.9-5.8c-1.6,2.1-3.7,3.7-6.2,4.9c-2.5,1.1-5.2,1.7-8,1.7c-4,0-7.3-1.1-9.7-3.4
		c-2.5-2.2-3.7-5.1-3.7-8.5c0-4.1,1.7-7.3,5.1-9.6c3.4-2.4,8.1-3.5,14.1-3.5h8.4v-4.7c0-3-0.9-5.3-2.8-7c-1.8-1.7-4.5-2.6-8-2.6
		c-3.2,0-5.9,0.8-8,2.5c-2.1,1.6-3.2,3.6-3.2,5.9l-4.6,0c0-3.3,1.5-6.2,4.6-8.6c3.1-2.4,6.9-3.6,11.4-3.6c4.7,0,8.3,1.2,11,3.5
		c2.7,2.3,4.1,5.6,4.1,9.7v19.8c0,4,0.4,7.1,1.3,9.1v0.5H1259z M1244.5,196.5c3.1,0,5.8-0.7,8.3-2.2c2.4-1.5,4.2-3.5,5.3-6v-9.2
		h-8.3c-4.6,0.1-8.2,0.9-10.8,2.5c-2.6,1.6-3.9,3.9-3.9,6.7c0,2.3,0.9,4.3,2.6,5.8C1239.4,195.7,1241.7,196.5,1244.5,196.5z"/>
	<path class="st2" d="M1287.6,193.1l12.2-35.1h5l-17.8,48.8l-0.9,2.2c-2.3,5.1-5.8,7.6-10.6,7.6c-1.1,0-2.3-0.2-3.5-0.5l0-3.8
		l2.4,0.2c2.3,0,4.1-0.6,5.5-1.7c1.4-1.1,2.6-3,3.6-5.8l2-5.6l-15.7-41.4h5.1L1287.6,193.1z"/>
	<path class="st2" d="M1327.5,200.5c-3.5,0-6.8-0.9-9.6-2.6c-2.9-1.7-5.1-4.2-6.7-7.3c-1.6-3.1-2.4-6.6-2.4-10.5v-1.7
		c0-4,0.8-7.6,2.3-10.8c1.6-3.2,3.7-5.7,6.5-7.6c2.8-1.8,5.8-2.8,9-2.8c5.1,0,9.1,1.7,12.1,5.2c3,3.5,4.5,8.2,4.5,14.2v2.6h-29.8
		v0.9c0,4.7,1.4,8.7,4.1,11.8c2.7,3.2,6.1,4.7,10.2,4.7c2.5,0,4.6-0.4,6.5-1.4c1.9-0.9,3.6-2.3,5.1-4.3l2.9,2.2
		C1338.9,198.1,1334,200.5,1327.5,200.5z M1326.7,161.2c-3.5,0-6.4,1.3-8.8,3.8s-3.8,6-4.3,10.3h25v-0.5c-0.1-4-1.3-7.3-3.4-9.8
		C1333,162.5,1330.2,161.2,1326.7,161.2z"/>
	<path class="st2" d="M1371.5,162c-1-0.2-2-0.3-3.1-0.3c-2.9,0-5.3,0.8-7.3,2.4c-2,1.6-3.4,3.9-4.3,7v28.7h-4.6V158h4.5l0.1,6.6
		c2.4-4.9,6.4-7.4,11.8-7.4c1.3,0,2.3,0.2,3,0.5L1371.5,162z"/>
	<path class="st2" d="M1403.8,189.2c0-2.3-0.9-4.1-2.8-5.5c-1.8-1.4-4.6-2.5-8.3-3.3c-3.7-0.8-6.6-1.7-8.6-2.7c-2-1-3.6-2.3-4.6-3.7
		s-1.5-3.2-1.5-5.3c0-3.3,1.4-6,4.1-8.2c2.8-2.1,6.3-3.2,10.6-3.2c4.7,0,8.4,1.2,11.2,3.5c2.8,2.3,4.2,5.3,4.2,9h-4.6
		c0-2.4-1-4.5-3.1-6.1c-2-1.6-4.6-2.4-7.7-2.4c-3,0-5.5,0.7-7.3,2c-1.8,1.3-2.8,3.1-2.8,5.3c0,2.1,0.8,3.7,2.3,4.8
		c1.5,1.1,4.3,2.2,8.4,3.1c4.1,1,7.1,2,9.1,3s3.5,2.4,4.5,3.9c1,1.5,1.5,3.4,1.5,5.5c0,3.5-1.4,6.3-4.3,8.4
		c-2.8,2.1-6.6,3.2-11.1,3.2c-4.9,0-8.8-1.2-11.8-3.5c-3-2.4-4.5-5.3-4.5-8.9h4.6c0.2,2.7,1.3,4.8,3.4,6.3c2.1,1.5,4.9,2.3,8.3,2.3
		c3.2,0,5.8-0.7,7.8-2.1C1402.8,193.1,1403.8,191.3,1403.8,189.2z"/>
	<path class="st2" d="M512.8,226v6.6h5.3v2.3h-5.3v17.2c0,1.4,0.3,2.5,0.8,3.2c0.5,0.7,1.4,1.1,2.6,1.1c0.5,0,1.2-0.1,2.3-0.2
		l0.1,2.3c-0.7,0.3-1.8,0.4-3.1,0.4c-2,0-3.4-0.6-4.3-1.7c-0.9-1.1-1.3-2.8-1.3-5v-17.2h-4.7v-2.3h4.7V226H512.8z"/>
	<path class="st2" d="M522,245.1c0-2.5,0.5-4.7,1.4-6.7c1-2,2.3-3.5,4.1-4.6c1.8-1.1,3.7-1.7,6-1.7c3.4,0,6.2,1.2,8.3,3.6
		c2.1,2.4,3.2,5.6,3.2,9.6v0.6c0,2.5-0.5,4.7-1.4,6.7c-1,2-2.3,3.5-4.1,4.6c-1.7,1.1-3.7,1.6-6,1.6c-3.4,0-6.2-1.2-8.3-3.6
		c-2.1-2.4-3.2-5.6-3.2-9.6V245.1z M524.9,245.9c0,3.1,0.8,5.6,2.4,7.6c1.6,2,3.7,3,6.3,3c2.6,0,4.7-1,6.3-3c1.6-2,2.4-4.6,2.4-7.8
		v-0.5c0-2-0.4-3.8-1.1-5.4c-0.7-1.6-1.8-2.9-3.1-3.8s-2.8-1.3-4.5-1.3c-2.5,0-4.6,1-6.2,3c-1.6,2-2.4,4.6-2.4,7.8V245.9z"/>
	<path class="st2" d="M572.4,256.4c2,0,3.7-0.6,5-1.7s2.1-2.6,2.2-4.4h2.7c-0.1,1.6-0.6,3-1.5,4.3c-0.9,1.3-2.1,2.3-3.6,3
		c-1.5,0.7-3.1,1.1-4.8,1.1c-3.4,0-6.1-1.2-8-3.5c-2-2.4-3-5.5-3-9.5V245c0-2.5,0.4-4.8,1.3-6.7c0.9-2,2.2-3.5,3.8-4.5
		c1.7-1.1,3.6-1.6,5.8-1.6c2.8,0,5.2,0.8,7,2.5c1.8,1.7,2.8,3.9,2.9,6.7h-2.7c-0.1-2-0.9-3.6-2.2-4.9s-3-1.9-5-1.9
		c-2.6,0-4.6,0.9-6,2.8c-1.4,1.9-2.1,4.5-2.1,7.8v0.8c0,3.3,0.7,5.9,2.1,7.7C567.8,255.5,569.8,256.4,572.4,256.4z"/>
	<path class="st2" d="M590.8,236.9c0.9-1.5,2.1-2.7,3.6-3.6c1.5-0.8,3.1-1.3,4.8-1.3c2.8,0,4.8,0.8,6.2,2.3c1.4,1.6,2,3.9,2,7v16.9
		h-2.8v-17c0-2.3-0.5-4-1.5-5.1c-1-1.1-2.5-1.7-4.6-1.7c-1.8,0-3.3,0.6-4.7,1.7c-1.4,1.1-2.4,2.6-3,4.5v17.7H588v-36.6h2.8V236.9z"
		/>
	<path class="st2" d="M631.1,258.4c-0.3-0.8-0.5-2-0.5-3.6c-1,1.3-2.3,2.3-3.8,3c-1.5,0.7-3.2,1.1-4.9,1.1c-2.5,0-4.5-0.7-6-2.1
		s-2.3-3.1-2.3-5.2c0-2.5,1-4.5,3.1-6c2.1-1.5,5-2.2,8.7-2.2h5.2v-2.9c0-1.8-0.6-3.3-1.7-4.4c-1.1-1.1-2.8-1.6-5-1.6
		c-2,0-3.6,0.5-4.9,1.5c-1.3,1-2,2.2-2,3.7l-2.9,0c0-2.1,1-3.8,2.9-5.3s4.3-2.3,7-2.3c2.9,0,5.1,0.7,6.8,2.2s2.5,3.4,2.6,6v12.2
		c0,2.5,0.3,4.4,0.8,5.6v0.3H631.1z M622.1,256.3c1.9,0,3.6-0.5,5.1-1.4c1.5-0.9,2.6-2.2,3.3-3.7v-5.7h-5.1c-2.8,0-5.1,0.6-6.7,1.6
		c-1.6,1-2.4,2.4-2.4,4.2c0,1.4,0.5,2.6,1.6,3.6C619,255.8,620.4,256.3,622.1,256.3z"/>
	<path class="st2" d="M645.4,226v6.6h5.3v2.3h-5.3v17.2c0,1.4,0.3,2.5,0.8,3.2c0.5,0.7,1.4,1.1,2.6,1.1c0.5,0,1.2-0.1,2.3-0.2
		l0.1,2.3c-0.7,0.3-1.8,0.4-3.1,0.4c-2,0-3.4-0.6-4.3-1.7c-0.9-1.1-1.3-2.8-1.3-5v-17.2h-4.7v-2.3h4.7V226H645.4z"/>
	<path class="st2" d="M666.9,245.1c0-2.5,0.5-4.7,1.4-6.7c1-2,2.3-3.5,4.1-4.6c1.8-1.1,3.7-1.7,6-1.7c3.4,0,6.2,1.2,8.3,3.6
		c2.1,2.4,3.2,5.6,3.2,9.6v0.6c0,2.5-0.5,4.7-1.4,6.7s-2.3,3.5-4.1,4.6c-1.7,1.1-3.7,1.6-6,1.6c-3.4,0-6.2-1.2-8.3-3.6
		c-2.1-2.4-3.2-5.6-3.2-9.6V245.1z M669.8,245.9c0,3.1,0.8,5.6,2.4,7.6c1.6,2,3.7,3,6.3,3c2.6,0,4.7-1,6.3-3c1.6-2,2.4-4.6,2.4-7.8
		v-0.5c0-2-0.4-3.8-1.1-5.4c-0.7-1.6-1.8-2.9-3.1-3.8c-1.3-0.9-2.8-1.3-4.5-1.3c-2.5,0-4.6,1-6.2,3s-2.4,4.6-2.4,7.8V245.9z"/>
	<path class="st2" d="M707.8,235c-0.6-0.1-1.2-0.2-1.9-0.2c-1.8,0-3.3,0.5-4.5,1.5s-2.1,2.4-2.6,4.3v17.7h-2.8v-25.8h2.8l0,4.1
		c1.5-3.1,3.9-4.6,7.3-4.6c0.8,0,1.4,0.1,1.9,0.3L707.8,235z"/>
	<path class="st2" d="M744.9,245.7c0,4-0.9,7.2-2.7,9.6s-4.2,3.5-7.2,3.5c-3.5,0-6.2-1.2-8.1-3.7v13.2h-2.8v-35.7h2.6l0.1,3.6
		c1.9-2.7,4.6-4.1,8.1-4.1c3.1,0,5.5,1.2,7.3,3.5c1.8,2.3,2.6,5.6,2.6,9.7V245.7z M742,245.2c0-3.3-0.7-5.9-2-7.8
		c-1.4-1.9-3.2-2.9-5.7-2.9c-1.7,0-3.3,0.4-4.5,1.3s-2.2,2.1-2.9,3.7v12.4c0.7,1.5,1.7,2.6,2.9,3.4s2.8,1.2,4.5,1.2
		c2.4,0,4.3-1,5.6-2.9S742,248.9,742,245.2z"/>
	<path class="st2" d="M754.4,258.4h-2.9v-36.6h2.9V258.4z"/>
	<path class="st2" d="M778.4,258.4c-0.3-0.8-0.5-2-0.5-3.6c-1,1.3-2.3,2.3-3.8,3c-1.5,0.7-3.2,1.1-4.9,1.1c-2.5,0-4.5-0.7-6-2.1
		s-2.3-3.1-2.3-5.2c0-2.5,1-4.5,3.1-6c2.1-1.5,5-2.2,8.7-2.2h5.2v-2.9c0-1.8-0.6-3.3-1.7-4.4c-1.1-1.1-2.8-1.6-5-1.6
		c-2,0-3.6,0.5-4.9,1.5c-1.3,1-2,2.2-2,3.7l-2.9,0c0-2.1,1-3.8,2.9-5.3s4.3-2.3,7-2.3c2.9,0,5.1,0.7,6.8,2.2s2.5,3.4,2.6,6v12.2
		c0,2.5,0.3,4.4,0.8,5.6v0.3H778.4z M769.5,256.3c1.9,0,3.6-0.5,5.1-1.4c1.5-0.9,2.6-2.2,3.3-3.7v-5.7h-5.1c-2.8,0-5.1,0.6-6.7,1.6
		c-1.6,1-2.4,2.4-2.4,4.2c0,1.4,0.5,2.6,1.6,3.6C766.4,255.8,767.7,256.3,769.5,256.3z"/>
	<path class="st2" d="M796.1,254.3l7.5-21.7h3.1l-11,30.2l-0.6,1.3c-1.4,3.1-3.6,4.7-6.6,4.7c-0.7,0-1.4-0.1-2.2-0.3l0-2.4l1.5,0.1
		c1.4,0,2.5-0.3,3.4-1c0.9-0.7,1.6-1.9,2.2-3.6l1.3-3.5l-9.7-25.6h3.1L796.1,254.3z"/>
	<path class="st2" d="M822.8,225.1c0-0.5,0.2-1,0.5-1.4c0.3-0.4,0.8-0.6,1.4-0.6c0.6,0,1.1,0.2,1.4,0.6c0.4,0.4,0.5,0.8,0.5,1.4
		c0,0.5-0.2,1-0.5,1.4c-0.4,0.4-0.8,0.5-1.4,0.5c-0.6,0-1.1-0.2-1.4-0.5C823,226.1,822.8,225.7,822.8,225.1z M826.2,258.4h-2.9
		v-25.8h2.9V258.4z"/>
	<path class="st2" d="M836.7,232.6l0.1,4.4c1-1.6,2.2-2.8,3.6-3.6c1.4-0.8,3-1.3,4.8-1.3c2.8,0,4.8,0.8,6.2,2.3c1.4,1.6,2,3.9,2,7
		v16.9h-2.8v-17c0-2.3-0.5-4-1.5-5.1c-1-1.1-2.5-1.7-4.6-1.7c-1.8,0-3.3,0.6-4.7,1.7c-1.4,1.1-2.4,2.6-3,4.5v17.7H834v-25.8H836.7z"
		/>
	<path class="st2" d="M871.5,245.2c0-4,0.9-7.2,2.7-9.6c1.8-2.4,4.2-3.5,7.3-3.5c3.5,0,6.2,1.4,8,4.2l0.1-3.7h2.7v25.3
		c0,3.3-0.9,6-2.8,7.9c-1.9,1.9-4.4,2.9-7.6,2.9c-1.8,0-3.5-0.4-5.1-1.2c-1.6-0.8-2.9-1.9-3.8-3.2l1.6-1.7c2,2.5,4.4,3.7,7.2,3.7
		c2.4,0,4.2-0.7,5.6-2.1c1.3-1.4,2-3.4,2.1-5.9V255c-1.8,2.5-4.5,3.8-8,3.8c-3,0-5.4-1.2-7.2-3.6c-1.8-2.4-2.7-5.6-2.7-9.7V245.2z
		 M874.4,245.7c0,3.3,0.7,5.9,2,7.8c1.3,1.9,3.2,2.8,5.6,2.8c3.5,0,6-1.6,7.5-4.7v-12c-0.7-1.7-1.6-2.9-2.9-3.8
		c-1.3-0.9-2.8-1.3-4.5-1.3c-2.4,0-4.3,0.9-5.6,2.8S874.4,242.1,874.4,245.7z"/>
	<path class="st2" d="M911.7,235c-0.6-0.1-1.2-0.2-1.9-0.2c-1.8,0-3.3,0.5-4.5,1.5s-2.1,2.4-2.6,4.3v17.7h-2.8v-25.8h2.8l0,4.1
		c1.5-3.1,3.9-4.6,7.3-4.6c0.8,0,1.4,0.1,1.9,0.3L911.7,235z"/>
	<path class="st2" d="M914.1,245.1c0-2.5,0.5-4.7,1.4-6.7c1-2,2.3-3.5,4.1-4.6c1.8-1.1,3.7-1.7,6-1.7c3.4,0,6.2,1.2,8.3,3.6
		c2.1,2.4,3.2,5.6,3.2,9.6v0.6c0,2.5-0.5,4.7-1.4,6.7s-2.3,3.5-4.1,4.6c-1.7,1.1-3.7,1.6-6,1.6c-3.4,0-6.2-1.2-8.3-3.6
		c-2.1-2.4-3.2-5.6-3.2-9.6V245.1z M917,245.9c0,3.1,0.8,5.6,2.4,7.6c1.6,2,3.7,3,6.3,3c2.6,0,4.7-1,6.3-3c1.6-2,2.4-4.6,2.4-7.8
		v-0.5c0-2-0.4-3.8-1.1-5.4c-0.7-1.6-1.8-2.9-3.1-3.8c-1.3-0.9-2.8-1.3-4.5-1.3c-2.5,0-4.6,1-6.2,3s-2.4,4.6-2.4,7.8V245.9z"/>
	<path class="st2" d="M959.6,255.1c-1.7,2.5-4.5,3.7-8.2,3.7c-2.8,0-4.8-0.8-6.3-2.4c-1.4-1.6-2.2-4-2.2-7.1v-16.8h2.8V249
		c0,4.9,2,7.4,6,7.4c4.1,0,6.7-1.7,7.8-5.1v-18.7h2.9v25.8h-2.8L959.6,255.1z"/>
	<path class="st2" d="M990.6,245.7c0,4-0.9,7.2-2.7,9.6s-4.2,3.5-7.2,3.5c-3.5,0-6.2-1.2-8.1-3.7v13.2h-2.8v-35.7h2.6l0.1,3.6
		c1.9-2.7,4.6-4.1,8.1-4.1c3.1,0,5.5,1.2,7.3,3.5c1.8,2.3,2.6,5.6,2.6,9.7V245.7z M987.7,245.2c0-3.3-0.7-5.9-2-7.8
		c-1.4-1.9-3.2-2.9-5.7-2.9c-1.7,0-3.3,0.4-4.5,1.3s-2.2,2.1-2.9,3.7v12.4c0.7,1.5,1.7,2.6,2.9,3.4s2.8,1.2,4.5,1.2
		c2.4,0,4.3-1,5.6-2.9S987.7,248.9,987.7,245.2z"/>
</g>
</svg>
