<?xml version="1.0" encoding="utf-8"?>
<!-- Generator: Adobe Illustrator 22.1.0, SVG Export Plug-In . SVG Version: 6.00 Build 0)  -->
<svg version="1.1" id="Camada_1" xmlns="http://www.w3.org/2000/svg" xmlns:xlink="http://www.w3.org/1999/xlink" x="0px" y="0px"
	 viewBox="0 0 1707 403" style="enable-background:new 0 0 1707 403;" xml:space="preserve">
<style type="text/css">
	.st0{fill:url(#SVGID_1_);}
	.st1{fill:url(#SVGID_2_);}
	.st2{fill:url(#SVGID_3_);}
	.st3{fill:url(#SVGID_4_);}
	.st4{fill:#FFFFFF;}
	.st5{fill:url(#SVGID_5_);}
	.st6{fill:url(#SVGID_6_);}
	.st7{fill:url(#SVGID_7_);}
	.st8{fill:url(#SVGID_8_);}
	.st9{fill:url(#SVGID_9_);}
	.st10{fill:url(#SVGID_10_);}
	.st11{fill:none;stroke:#C2C3C9;stroke-width:5;stroke-miterlimit:10;}
	.st12{fill:url(#SVGID_11_);}
	.st13{fill:url(#SVGID_12_);}
	.st14{fill:url(#SVGID_13_);}
	.st15{fill:#333333;}
	.st16{fill:url(#SVGID_14_);}
	.st17{fill:url(#SVGID_15_);}
	.st18{fill:url(#SVGID_16_);}
	.st19{fill:url(#SVGID_17_);}
	.st20{fill:url(#SVGID_18_);}
	.st21{fill:url(#SVGID_19_);}
	.st22{fill:url(#SVGID_20_);}
	.st23{fill:url(#SVGID_21_);}
	.st24{fill:url(#SVGID_22_);}
	.st25{fill:url(#SVGID_23_);}
	.st26{fill:url(#SVGID_24_);}
	.st27{fill:url(#SVGID_25_);}
	.st28{fill:url(#SVGID_26_);}
	.st29{fill:url(#SVGID_27_);}
	.st30{fill:url(#SVGID_28_);}
	.st31{fill:url(#SVGID_29_);}
	.st32{fill:url(#SVGID_30_);}
	.st33{fill:url(#SVGID_31_);}
	.st34{fill:url(#SVGID_32_);}
	.st35{fill:url(#SVGID_33_);}
	.st36{fill:url(#SVGID_34_);}
	.st37{fill:url(#SVGID_35_);}
	.st38{fill:url(#SVGID_36_);}
	.st39{fill:url(#SVGID_37_);}
	.st40{fill:url(#SVGID_38_);}
	.st41{fill:url(#SVGID_39_);}
	.st42{fill:url(#SVGID_40_);}
	.st43{fill:url(#SVGID_41_);}
	.st44{fill:url(#SVGID_42_);}
	.st45{fill:url(#SVGID_43_);}
	.st46{fill:url(#SVGID_44_);}
	.st47{fill:url(#SVGID_45_);}
	.st48{fill:url(#SVGID_46_);}
	.st49{fill:url(#SVGID_47_);}
	.st50{fill:url(#SVGID_48_);}
	.st51{fill:url(#SVGID_49_);}
	.st52{fill:url(#SVGID_50_);}
	.st53{fill:url(#SVGID_51_);}
	.st54{fill:url(#SVGID_52_);}
	.st55{fill:url(#SVGID_53_);}
	.st56{fill:url(#SVGID_54_);}
	.st57{fill:url(#SVGID_55_);}
	.st58{fill:url(#SVGID_56_);}
	.st59{fill:url(#SVGID_57_);}
	.st60{fill:url(#SVGID_58_);}
	.st61{fill:url(#SVGID_59_);}
	.st62{fill:url(#SVGID_60_);}
	.st63{fill:url(#SVGID_61_);}
	.st64{fill:url(#SVGID_62_);}
	.st65{fill:url(#SVGID_63_);}
	.st66{fill:url(#SVGID_64_);}
	.st67{fill:url(#SVGID_65_);}
	.st68{fill:url(#SVGID_66_);}
	.st69{fill:url(#SVGID_67_);}
	.st70{fill:url(#SVGID_68_);}
	.st71{fill:url(#SVGID_69_);}
	.st72{fill:url(#SVGID_70_);}
	.st73{fill:url(#SVGID_71_);}
	.st74{fill:url(#SVGID_72_);}
	.st75{fill:url(#SVGID_73_);}
	.st76{fill:url(#SVGID_74_);}
	.st77{fill:url(#SVGID_75_);}
	.st78{fill:url(#SVGID_76_);}
	.st79{fill:url(#SVGID_77_);}
	.st80{fill:url(#SVGID_78_);}
	.st81{fill:url(#SVGID_79_);}
	.st82{fill:url(#SVGID_80_);}
	.st83{fill:url(#SVGID_81_);}
	.st84{fill:url(#SVGID_82_);}
	.st85{fill:url(#SVGID_83_);}
	.st86{fill:url(#SVGID_84_);}
	.st87{fill:url(#SVGID_85_);}
	.st88{fill:url(#SVGID_86_);}
	.st89{fill:url(#SVGID_87_);}
	.st90{fill:url(#SVGID_88_);}
	.st91{fill:url(#SVGID_89_);}
	.st92{fill:url(#SVGID_90_);}
	.st93{fill:url(#SVGID_91_);}
	.st94{fill:url(#SVGID_92_);}
	.st95{fill:url(#SVGID_93_);}
	.st96{fill:url(#SVGID_94_);}
	.st97{fill:url(#SVGID_95_);}
	.st98{fill:url(#SVGID_96_);}
	.st99{fill:url(#SVGID_97_);}
	.st100{fill:url(#SVGID_98_);}
	.st101{fill:url(#SVGID_99_);}
	.st102{fill:url(#SVGID_100_);}
	.st103{fill:url(#SVGID_101_);}
	.st104{fill:url(#SVGID_102_);}
	.st105{fill:url(#SVGID_103_);}
	.st106{fill:url(#SVGID_104_);}
	.st107{fill:url(#SVGID_105_);}
	.st108{fill:url(#SVGID_106_);}
	.st109{fill:url(#SVGID_107_);}
	.st110{fill:url(#SVGID_108_);}
	.st111{fill:url(#SVGID_109_);}
	.st112{fill:url(#SVGID_110_);}
	.st113{fill:url(#SVGID_111_);}
	.st114{fill:url(#SVGID_112_);}
	.st115{fill:#EDEEF0;}
	.st116{fill:url(#SVGID_113_);}
	.st117{fill:url(#SVGID_114_);}
	.st118{fill:url(#SVGID_115_);}
	.st119{fill:url(#SVGID_116_);}
	.st120{fill:url(#SVGID_117_);}
	.st121{fill:url(#SVGID_118_);}
	.st122{fill:url(#SVGID_119_);}
	.st123{fill:url(#SVGID_120_);}
</style>
<linearGradient id="SVGID_1_" gradientUnits="userSpaceOnUse" x1="308.9978" y1="204.2657" x2="1707" y2="204.2657">
	<stop  offset="0.62" style="stop-color:#222222"/>
	<stop  offset="0.7657" style="stop-color:#242424"/>
	<stop  offset="0.8182" style="stop-color:#2B2B2B"/>
	<stop  offset="0.8557" style="stop-color:#363636"/>
	<stop  offset="0.8859" style="stop-color:#474747"/>
	<stop  offset="0.9119" style="stop-color:#5D5D5D"/>
	<stop  offset="0.9348" style="stop-color:#797979"/>
	<stop  offset="0.9556" style="stop-color:#999999"/>
	<stop  offset="0.9747" style="stop-color:#BFBFBF"/>
	<stop  offset="0.9916" style="stop-color:#E8E8E8"/>
	<stop  offset="1" style="stop-color:#FFFFFF"/>
</linearGradient>
<polygon class="st0" points="1707,299 314.9,299 351.8,275.7 351.8,137.7 309,109.5 1707,109.5 "/>
<g>
	<path class="st4" d="M499.5,176.2c-0.7,6-2.8,10.6-6.4,13.8c-3.6,3.2-8.5,4.8-14.5,4.8c-4.2,0-7.9-1.1-11.2-3.2s-5.7-5.1-7.5-9
		c-1.8-3.9-2.7-8.3-2.7-13.3V162c0-5.1,0.9-9.5,2.7-13.4c1.8-3.9,4.3-6.9,7.6-9c3.3-2.1,7.1-3.2,11.5-3.2c6.1,0,10.9,1.6,14.4,4.9
		c3.5,3.3,5.6,7.8,6.2,13.6h-4.8c-1.2-9.7-6.4-14.5-15.7-14.5c-5.2,0-9.3,1.9-12.3,5.8c-3.1,3.9-4.6,9.2-4.6,16v7
		c0,6.6,1.5,11.8,4.5,15.7c3,3.9,7,5.9,12.1,5.9c5,0,8.8-1.2,11.4-3.6c2.6-2.4,4.1-6,4.7-10.8H499.5z"/>
	<path class="st4" d="M507.5,172.2c0-4.1,0.8-7.7,2.4-11c1.6-3.3,3.8-5.8,6.7-7.6c2.9-1.8,6.1-2.7,9.8-2.7c5.6,0,10.2,2,13.7,5.9
		c3.5,3.9,5.2,9.2,5.2,15.7v1c0,4.1-0.8,7.8-2.4,11c-1.6,3.3-3.8,5.8-6.7,7.6c-2.9,1.8-6.1,2.7-9.8,2.7c-5.6,0-10.2-2-13.7-5.9
		c-3.5-3.9-5.3-9.2-5.3-15.7V172.2z M512.2,173.5c0,5.1,1.3,9.2,3.9,12.4s6,4.9,10.3,4.9c4.2,0,7.6-1.6,10.3-4.9s3.9-7.5,3.9-12.8
		v-0.9c0-3.2-0.6-6.2-1.8-8.9c-1.2-2.7-2.9-4.8-5-6.2c-2.2-1.5-4.6-2.2-7.4-2.2c-4.2,0-7.6,1.6-10.2,4.9c-2.6,3.3-3.9,7.5-3.9,12.8
		V173.5z"/>
	<path class="st4" d="M559.4,151.7l0.2,7.2c1.6-2.6,3.6-4.6,5.9-6c2.4-1.4,5-2.1,7.9-2.1c4.5,0,7.9,1.3,10.1,3.8
		c2.2,2.6,3.3,6.4,3.4,11.5V194h-4.6v-27.8c0-3.8-0.8-6.6-2.4-8.4c-1.6-1.8-4.1-2.8-7.6-2.8c-2.9,0-5.4,0.9-7.7,2.7
		c-2.2,1.8-3.9,4.3-4.9,7.3V194h-4.6v-42.3H559.4z"/>
	<path class="st4" d="M603.3,151.7l0.2,7.2c1.6-2.6,3.6-4.6,5.9-6c2.4-1.4,5-2.1,7.9-2.1c4.5,0,7.9,1.3,10.1,3.8
		c2.2,2.6,3.3,6.4,3.4,11.5V194h-4.6v-27.8c0-3.8-0.8-6.6-2.4-8.4c-1.6-1.8-4.1-2.8-7.6-2.8c-2.9,0-5.4,0.9-7.7,2.7
		c-2.2,1.8-3.9,4.3-4.9,7.3V194h-4.6v-42.3H603.3z"/>
	<path class="st4" d="M659.2,194.8c-3.6,0-6.8-0.9-9.7-2.7c-2.9-1.8-5.2-4.2-6.8-7.4c-1.6-3.2-2.4-6.7-2.4-10.6v-1.7
		c0-4.1,0.8-7.7,2.4-11c1.6-3.3,3.8-5.8,6.6-7.7c2.8-1.9,5.9-2.8,9.1-2.8c5.1,0,9.2,1.8,12.2,5.3c3,3.5,4.5,8.3,4.5,14.4v2.6h-30.2
		v0.9c0,4.8,1.4,8.8,4.1,12c2.7,3.2,6.2,4.8,10.4,4.8c2.5,0,4.7-0.5,6.6-1.4c1.9-0.9,3.7-2.4,5.2-4.4l2.9,2.2
		C670.7,192.3,665.7,194.8,659.2,194.8z M658.3,154.9c-3.5,0-6.5,1.3-8.9,3.9c-2.4,2.6-3.9,6-4.4,10.4h25.4v-0.5
		c-0.1-4.1-1.3-7.4-3.5-9.9C664.7,156.2,661.9,154.9,658.3,154.9z"/>
	<path class="st4" d="M699.8,190.8c3.3,0,6-0.9,8.2-2.8c2.2-1.8,3.4-4.2,3.6-7.1h4.5c-0.1,2.6-0.9,4.9-2.4,7.1
		c-1.5,2.1-3.5,3.8-5.9,5s-5.1,1.8-7.9,1.8c-5.5,0-9.9-1.9-13.2-5.8c-3.2-3.9-4.9-9-4.9-15.5V172c0-4.2,0.7-7.9,2.2-11.1
		c1.5-3.2,3.5-5.7,6.3-7.4c2.7-1.7,5.9-2.6,9.6-2.6c4.6,0,8.5,1.4,11.5,4.1c3,2.8,4.6,6.4,4.8,10.9h-4.5c-0.2-3.3-1.4-6-3.6-8
		c-2.2-2-4.9-3-8.2-3c-4.2,0-7.5,1.5-9.8,4.6c-2.3,3-3.5,7.3-3.5,12.8v1.4c0,5.4,1.2,9.6,3.5,12.6
		C692.2,189.3,695.5,190.8,699.8,190.8z"/>
	<path class="st4" d="M732.6,140.9v10.8h8.8v3.8h-8.8v28.2c0,2.3,0.4,4.1,1.3,5.2c0.8,1.1,2.3,1.7,4.2,1.7c0.8,0,2-0.1,3.8-0.4
		l0.2,3.8c-1.2,0.4-2.9,0.7-5,0.7c-3.2,0-5.5-0.9-7-2.8c-1.5-1.9-2.2-4.6-2.2-8.2v-28.2h-7.8v-3.8h7.8v-10.8H732.6z"/>
	<path class="st4" d="M805.4,194h-35.6v-3.6l19.5-22.1c3.2-3.7,5.5-6.8,6.7-9.2s1.9-4.8,1.9-7.1c0-3.6-1.1-6.4-3.2-8.5
		c-2.1-2.1-5-3.1-8.7-3.1c-3.8,0-6.9,1.2-9.3,3.7c-2.4,2.4-3.5,5.6-3.5,9.5h-4.6c0-3.2,0.7-6.1,2.2-8.8c1.4-2.6,3.5-4.7,6.2-6.2
		c2.7-1.5,5.7-2.2,9.1-2.2c5.2,0,9.3,1.4,12.2,4.1s4.4,6.5,4.4,11.2c0,2.7-0.8,5.6-2.5,8.7c-1.7,3.2-4.6,7.1-8.7,11.8L775.5,190
		h29.9V194z"/>
	<path class="st4" d="M841.6,140.9v10.8h8.8v3.8h-8.8v28.2c0,2.3,0.4,4.1,1.3,5.2c0.8,1.1,2.3,1.7,4.2,1.7c0.8,0,2-0.1,3.8-0.4
		l0.2,3.8c-1.2,0.4-2.9,0.7-5,0.7c-3.2,0-5.5-0.9-7-2.8c-1.5-1.9-2.2-4.6-2.2-8.2v-28.2h-7.8v-3.8h7.8v-10.8H841.6z"/>
	<path class="st4" d="M856.7,172.2c0-4.1,0.8-7.7,2.4-11c1.6-3.3,3.8-5.8,6.7-7.6c2.9-1.8,6.1-2.7,9.8-2.7c5.6,0,10.2,2,13.7,5.9
		c3.5,3.9,5.2,9.2,5.2,15.7v1c0,4.1-0.8,7.8-2.4,11c-1.6,3.3-3.8,5.8-6.7,7.6c-2.9,1.8-6.1,2.7-9.8,2.7c-5.6,0-10.2-2-13.7-5.9
		c-3.5-3.9-5.3-9.2-5.3-15.7V172.2z M861.3,173.5c0,5.1,1.3,9.2,3.9,12.4s6,4.9,10.3,4.9c4.2,0,7.6-1.6,10.3-4.9s3.9-7.5,3.9-12.8
		v-0.9c0-3.2-0.6-6.2-1.8-8.9c-1.2-2.7-2.9-4.8-5-6.2c-2.2-1.5-4.6-2.2-7.4-2.2c-4.2,0-7.6,1.6-10.2,4.9c-2.6,3.3-3.9,7.5-3.9,12.8
		V173.5z"/>
	<path class="st4" d="M950.3,136.7v4.1h-0.5c-6.8,0-12.1,2-16.1,6c-3.9,4-6.1,9.6-6.5,16.7c1.6-2.2,3.6-3.8,6-5
		c2.4-1.2,5.1-1.8,8.1-1.8c5,0,9,1.7,11.9,5.2c3,3.5,4.4,8,4.4,13.5c0,3.7-0.7,7-2.1,10c-1.4,3-3.4,5.3-5.9,6.9
		c-2.6,1.7-5.5,2.5-8.8,2.5c-5.4,0-9.9-2-13.3-5.9c-3.4-3.9-5.1-9-5.1-15.3v-4.7c0-10.2,2.3-18.1,7-23.7c4.6-5.6,11.2-8.4,19.7-8.5
		H950.3z M940.6,160.7c-3,0-5.7,0.9-8.3,2.6c-2.6,1.8-4.3,4-5.1,6.7v4c0,4.9,1.3,9,3.8,12.1s5.8,4.7,9.9,4.7c3.6,0,6.6-1.4,8.8-4.3
		c2.3-2.9,3.4-6.5,3.4-10.9c0-4.5-1.1-8.1-3.4-10.8C947.5,162,944.4,160.7,940.6,160.7z"/>
	<path class="st4" d="M1021.3,173.3c0,6.6-1.5,11.8-4.4,15.7c-2.9,3.9-6.8,5.8-11.7,5.8c-5.8,0-10.2-2-13.3-6.1v21.6h-4.6v-58.5h4.3
		l0.2,6c3-4.5,7.5-6.8,13.2-6.8c5.1,0,9,1.9,11.9,5.7c2.9,3.8,4.3,9.1,4.3,15.9V173.3z M1016.6,172.5c0-5.4-1.1-9.6-3.3-12.8
		c-2.2-3.1-5.3-4.7-9.3-4.7c-2.9,0-5.3,0.7-7.4,2.1c-2.1,1.4-3.6,3.4-4.7,6v20.3c1.1,2.4,2.7,4.3,4.8,5.5c2.1,1.3,4.5,1.9,7.4,1.9
		c3.9,0,7-1.6,9.2-4.7C1015.5,183,1016.6,178.4,1016.6,172.5z"/>
	<path class="st4" d="M1036.8,194h-4.7v-60h4.7V194z"/>
	<path class="st4" d="M1076.2,194c-0.5-1.3-0.8-3.3-0.9-5.9c-1.6,2.1-3.7,3.8-6.3,4.9s-5.2,1.7-8.1,1.7c-4.1,0-7.4-1.1-9.9-3.4
		c-2.5-2.3-3.8-5.1-3.8-8.6c0-4.1,1.7-7.4,5.1-9.8c3.4-2.4,8.2-3.6,14.3-3.6h8.5v-4.8c0-3-0.9-5.4-2.8-7.1c-1.9-1.7-4.6-2.6-8.1-2.6
		c-3.3,0-6,0.8-8.1,2.5c-2.1,1.7-3.2,3.7-3.2,6l-4.7,0c0-3.4,1.6-6.3,4.7-8.7s7-3.7,11.5-3.7c4.7,0,8.4,1.2,11.2,3.5
		c2.7,2.4,4.1,5.6,4.2,9.9v20c0,4.1,0.4,7.1,1.3,9.2v0.5H1076.2z M1061.5,190.6c3.1,0,5.9-0.8,8.4-2.3c2.5-1.5,4.3-3.5,5.4-6.1V173
		h-8.4c-4.7,0.1-8.3,0.9-10.9,2.6c-2.6,1.7-3.9,3.9-3.9,6.8c0,2.4,0.9,4.3,2.6,5.9S1058.7,190.6,1061.5,190.6z"/>
	<path class="st4" d="M1105.2,187.3l12.3-35.5h5l-18,49.5l-0.9,2.2c-2.3,5.1-5.9,7.7-10.7,7.7c-1.1,0-2.3-0.2-3.6-0.5l0-3.9l2.4,0.2
		c2.3,0,4.1-0.6,5.6-1.7c1.4-1.1,2.6-3.1,3.6-5.8l2.1-5.7l-15.9-41.9h5.1L1105.2,187.3z"/>
	<path class="st4" d="M1145.7,194.8c-3.6,0-6.8-0.9-9.7-2.7c-2.9-1.8-5.2-4.2-6.8-7.4c-1.6-3.2-2.4-6.7-2.4-10.6v-1.7
		c0-4.1,0.8-7.7,2.4-11c1.6-3.3,3.8-5.8,6.6-7.7c2.8-1.9,5.9-2.8,9.1-2.8c5.1,0,9.2,1.8,12.2,5.3c3,3.5,4.5,8.3,4.5,14.4v2.6h-30.2
		v0.9c0,4.8,1.4,8.8,4.1,12c2.7,3.2,6.2,4.8,10.4,4.8c2.5,0,4.7-0.5,6.6-1.4c1.9-0.9,3.7-2.4,5.2-4.4l2.9,2.2
		C1157.2,192.3,1152.2,194.8,1145.7,194.8z M1144.8,154.9c-3.5,0-6.5,1.3-8.9,3.9c-2.4,2.6-3.9,6-4.4,10.4h25.4v-0.5
		c-0.1-4.1-1.3-7.4-3.5-9.9C1151.2,156.2,1148.4,154.9,1144.8,154.9z"/>
	<path class="st4" d="M1190.2,155.7c-1-0.2-2-0.3-3.2-0.3c-2.9,0-5.4,0.8-7.4,2.4c-2,1.6-3.5,4-4.3,7.1v29h-4.6v-42.3h4.6l0.1,6.7
		c2.5-5,6.4-7.5,11.9-7.5c1.3,0,2.3,0.2,3.1,0.5L1190.2,155.7z"/>
	<path class="st4" d="M1222.9,183.2c0-2.3-0.9-4.2-2.8-5.6c-1.9-1.4-4.7-2.5-8.4-3.3c-3.8-0.8-6.7-1.7-8.7-2.7
		c-2.1-1-3.6-2.3-4.6-3.8c-1-1.5-1.5-3.3-1.5-5.4c0-3.3,1.4-6.1,4.2-8.3c2.8-2.2,6.4-3.3,10.7-3.3c4.7,0,8.5,1.2,11.3,3.5
		c2.9,2.3,4.3,5.4,4.3,9.1h-4.7c0-2.5-1-4.5-3.1-6.2s-4.7-2.5-7.8-2.5c-3.1,0-5.5,0.7-7.4,2.1c-1.9,1.4-2.8,3.1-2.8,5.3
		c0,2.1,0.8,3.7,2.3,4.9c1.5,1.2,4.4,2.2,8.5,3.2c4.1,1,7.2,2,9.2,3.1c2,1.1,3.6,2.4,4.6,3.9c1,1.5,1.5,3.4,1.5,5.6
		c0,3.6-1.4,6.4-4.3,8.6c-2.9,2.1-6.6,3.2-11.3,3.2c-4.9,0-8.9-1.2-12-3.6c-3.1-2.4-4.6-5.4-4.6-9h4.7c0.2,2.7,1.3,4.9,3.5,6.4
		c2.1,1.5,4.9,2.3,8.4,2.3c3.3,0,5.9-0.7,7.9-2.1C1221.9,187.2,1222.9,185.4,1222.9,183.2z"/>
	<path class="st4" d="M496.9,230.8v6.8h5.5v2.4h-5.5v17.6c0,1.5,0.3,2.6,0.8,3.3s1.4,1.1,2.6,1.1c0.5,0,1.3-0.1,2.4-0.2l0.1,2.4
		c-0.8,0.3-1.8,0.4-3.1,0.4c-2,0-3.5-0.6-4.4-1.7c-0.9-1.2-1.4-2.9-1.4-5.1V240h-4.9v-2.4h4.9v-6.8H496.9z"/>
	<path class="st4" d="M506.3,250.4c0-2.5,0.5-4.8,1.5-6.9s2.4-3.6,4.2-4.7c1.8-1.1,3.8-1.7,6.1-1.7c3.5,0,6.4,1.2,8.5,3.7
		c2.2,2.5,3.3,5.7,3.3,9.8v0.6c0,2.6-0.5,4.9-1.5,6.9c-1,2-2.4,3.6-4.2,4.7c-1.8,1.1-3.8,1.7-6.1,1.7c-3.5,0-6.3-1.2-8.5-3.7
		s-3.3-5.7-3.3-9.8V250.4z M509.3,251.2c0,3.2,0.8,5.7,2.5,7.8s3.8,3,6.4,3c2.6,0,4.8-1,6.4-3s2.5-4.7,2.5-8v-0.6
		c0-2-0.4-3.9-1.1-5.5c-0.7-1.7-1.8-3-3.1-3.9c-1.4-0.9-2.9-1.4-4.6-1.4c-2.6,0-4.7,1-6.4,3.1c-1.6,2-2.5,4.7-2.5,8V251.2z"/>
	<path class="st4" d="M557.9,262c2,0,3.7-0.6,5.1-1.7s2.1-2.6,2.2-4.5h2.8c-0.1,1.6-0.6,3.1-1.5,4.4c-0.9,1.3-2.2,2.4-3.7,3.1
		c-1.5,0.7-3.2,1.1-4.9,1.1c-3.5,0-6.2-1.2-8.2-3.6s-3-5.6-3-9.7v-0.9c0-2.6,0.5-4.9,1.4-6.9c0.9-2,2.2-3.5,3.9-4.6s3.7-1.6,6-1.6
		c2.9,0,5.3,0.9,7.2,2.6s2.9,4,3,6.8h-2.8c-0.1-2.1-0.9-3.7-2.2-5s-3.1-1.9-5.1-1.9c-2.6,0-4.7,1-6.1,2.9s-2.2,4.6-2.2,8v0.9
		c0,3.4,0.7,6,2.2,7.9S555.2,262,557.9,262z"/>
	<path class="st4" d="M576.8,242c1-1.6,2.2-2.8,3.7-3.7c1.5-0.9,3.1-1.3,4.9-1.3c2.8,0,4.9,0.8,6.3,2.4c1.4,1.6,2.1,4,2.1,7.2V264
		h-2.9v-17.4c0-2.4-0.5-4.1-1.5-5.3s-2.6-1.7-4.7-1.7c-1.8,0-3.4,0.6-4.8,1.7c-1.4,1.1-2.4,2.7-3.1,4.6V264h-2.9v-37.5h2.9V242z"/>
	<path class="st4" d="M618,264c-0.3-0.8-0.5-2.1-0.6-3.7c-1,1.3-2.3,2.4-3.9,3.1c-1.6,0.7-3.3,1.1-5,1.1c-2.5,0-4.6-0.7-6.2-2.1
		s-2.4-3.2-2.4-5.4c0-2.6,1.1-4.6,3.2-6.1s5.1-2.2,8.9-2.2h5.3v-3c0-1.9-0.6-3.4-1.7-4.5c-1.2-1.1-2.9-1.6-5.1-1.6
		c-2,0-3.7,0.5-5.1,1.6c-1.3,1-2,2.3-2,3.8l-2.9,0c0-2.1,1-3.9,2.9-5.5s4.4-2.3,7.2-2.3c2.9,0,5.3,0.7,7,2.2
		c1.7,1.5,2.6,3.5,2.6,6.2v12.5c0,2.6,0.3,4.5,0.8,5.7v0.3H618z M608.8,261.9c2,0,3.7-0.5,5.2-1.4s2.7-2.2,3.4-3.8v-5.8h-5.2
		c-2.9,0-5.2,0.6-6.8,1.6c-1.6,1-2.5,2.5-2.5,4.3c0,1.5,0.5,2.7,1.6,3.7S607,261.9,608.8,261.9z"/>
	<path class="st4" d="M632.6,230.8v6.8h5.5v2.4h-5.5v17.6c0,1.5,0.3,2.6,0.8,3.3s1.4,1.1,2.6,1.1c0.5,0,1.3-0.1,2.4-0.2l0.1,2.4
		c-0.8,0.3-1.8,0.4-3.1,0.4c-2,0-3.5-0.6-4.4-1.7c-0.9-1.2-1.4-2.9-1.4-5.1V240h-4.9v-2.4h4.9v-6.8H632.6z"/>
	<path class="st4" d="M654.7,250.4c0-2.5,0.5-4.8,1.5-6.9s2.4-3.6,4.2-4.7c1.8-1.1,3.8-1.7,6.1-1.7c3.5,0,6.4,1.2,8.5,3.7
		c2.2,2.5,3.3,5.7,3.3,9.8v0.6c0,2.6-0.5,4.9-1.5,6.9c-1,2-2.4,3.6-4.2,4.7c-1.8,1.1-3.8,1.7-6.1,1.7c-3.5,0-6.3-1.2-8.5-3.7
		s-3.3-5.7-3.3-9.8V250.4z M657.6,251.2c0,3.2,0.8,5.7,2.5,7.8c1.6,2,3.8,3,6.4,3c2.6,0,4.8-1,6.4-3c1.6-2,2.5-4.7,2.5-8v-0.6
		c0-2-0.4-3.9-1.1-5.5c-0.7-1.7-1.8-3-3.1-3.9c-1.4-0.9-2.9-1.4-4.6-1.4c-2.6,0-4.7,1-6.4,3.1c-1.6,2-2.5,4.7-2.5,8V251.2z"/>
	<path class="st4" d="M696.5,240c-0.6-0.1-1.3-0.2-2-0.2c-1.8,0-3.4,0.5-4.6,1.5c-1.3,1-2.2,2.5-2.7,4.4V264h-2.9v-26.4h2.9l0,4.2
		c1.5-3.1,4-4.7,7.4-4.7c0.8,0,1.5,0.1,1.9,0.3L696.5,240z"/>
	<path class="st4" d="M734.5,251c0,4.1-0.9,7.4-2.7,9.8c-1.8,2.4-4.3,3.6-7.3,3.6c-3.6,0-6.4-1.3-8.3-3.8v13.5h-2.9v-36.6h2.7
		l0.1,3.7c1.9-2.8,4.7-4.2,8.3-4.2c3.2,0,5.6,1.2,7.4,3.6c1.8,2.4,2.7,5.7,2.7,10V251z M731.6,250.5c0-3.4-0.7-6-2.1-8
		c-1.4-2-3.3-2.9-5.8-2.9c-1.8,0-3.3,0.4-4.6,1.3c-1.3,0.9-2.3,2.1-3,3.8v12.7c0.7,1.5,1.7,2.7,3,3.5c1.3,0.8,2.8,1.2,4.6,1.2
		c2.5,0,4.4-1,5.8-2.9C730.9,257.1,731.6,254.3,731.6,250.5z"/>
	<path class="st4" d="M744.3,264h-2.9v-37.5h2.9V264z"/>
	<path class="st4" d="M768.9,264c-0.3-0.8-0.5-2.1-0.6-3.7c-1,1.3-2.3,2.4-3.9,3.1c-1.6,0.7-3.3,1.1-5,1.1c-2.5,0-4.6-0.7-6.2-2.1
		c-1.6-1.4-2.4-3.2-2.4-5.4c0-2.6,1.1-4.6,3.2-6.1c2.1-1.5,5.1-2.2,8.9-2.2h5.3v-3c0-1.9-0.6-3.4-1.7-4.5c-1.2-1.1-2.9-1.6-5.1-1.6
		c-2,0-3.7,0.5-5.1,1.6c-1.3,1-2,2.3-2,3.8l-2.9,0c0-2.1,1-3.9,2.9-5.5s4.4-2.3,7.2-2.3c2.9,0,5.3,0.7,7,2.2
		c1.7,1.5,2.6,3.5,2.6,6.2v12.5c0,2.6,0.3,4.5,0.8,5.7v0.3H768.9z M759.7,261.9c2,0,3.7-0.5,5.2-1.4c1.5-0.9,2.7-2.2,3.4-3.8v-5.8
		h-5.2c-2.9,0-5.2,0.6-6.8,1.6c-1.6,1-2.5,2.5-2.5,4.3c0,1.5,0.5,2.7,1.6,3.7C756.5,261.4,757.9,261.9,759.7,261.9z"/>
	<path class="st4" d="M787,259.8l7.7-22.2h3.1l-11.3,30.9l-0.6,1.4c-1.4,3.2-3.7,4.8-6.7,4.8c-0.7,0-1.4-0.1-2.2-0.3l0-2.4l1.5,0.1
		c1.4,0,2.6-0.4,3.5-1.1c0.9-0.7,1.6-1.9,2.3-3.6l1.3-3.6l-10-26.2h3.2L787,259.8z"/>
	<path class="st4" d="M814.4,229.9c0-0.5,0.2-1,0.5-1.4c0.4-0.4,0.8-0.6,1.5-0.6c0.6,0,1.1,0.2,1.5,0.6c0.4,0.4,0.5,0.8,0.5,1.4
		c0,0.6-0.2,1-0.5,1.4c-0.4,0.4-0.9,0.6-1.5,0.6c-0.6,0-1.1-0.2-1.5-0.6C814.5,230.9,814.4,230.5,814.4,229.9z M817.8,264h-2.9
		v-26.4h2.9V264z"/>
	<path class="st4" d="M828.5,237.6l0.1,4.5c1-1.6,2.2-2.9,3.7-3.7c1.5-0.9,3.1-1.3,4.9-1.3c2.8,0,4.9,0.8,6.3,2.4
		c1.4,1.6,2.1,4,2.1,7.2V264h-2.9v-17.4c0-2.4-0.5-4.1-1.5-5.3c-1-1.2-2.6-1.7-4.7-1.7c-1.8,0-3.4,0.6-4.8,1.7
		c-1.4,1.1-2.4,2.7-3.1,4.6V264h-2.9v-26.4H828.5z"/>
	<path class="st4" d="M864.2,250.5c0-4.1,0.9-7.4,2.7-9.8c1.8-2.4,4.3-3.6,7.5-3.6c3.6,0,6.3,1.4,8.2,4.3l0.1-3.8h2.7v25.9
		c0,3.4-1,6.1-2.9,8.1c-1.9,2-4.5,3-7.7,3c-1.8,0-3.6-0.4-5.3-1.2c-1.7-0.8-3-1.9-3.9-3.3l1.6-1.8c2.1,2.5,4.5,3.8,7.4,3.8
		c2.4,0,4.3-0.7,5.7-2.2s2.1-3.4,2.1-6v-3.3c-1.9,2.6-4.6,3.9-8.2,3.9c-3.1,0-5.5-1.2-7.4-3.7s-2.8-5.7-2.8-9.9V250.5z M867.1,251
		c0,3.4,0.7,6,2,8c1.4,1.9,3.3,2.9,5.7,2.9c3.6,0,6.1-1.6,7.6-4.8v-12.3c-0.7-1.7-1.7-3-3-3.9c-1.3-0.9-2.8-1.3-4.6-1.3
		c-2.5,0-4.4,1-5.7,2.9S867.1,247.3,867.1,251z"/>
	<path class="st4" d="M905.3,240c-0.6-0.1-1.3-0.2-2-0.2c-1.8,0-3.4,0.5-4.6,1.5c-1.3,1-2.2,2.5-2.7,4.4V264h-2.9v-26.4h2.9l0,4.2
		c1.5-3.1,4-4.7,7.4-4.7c0.8,0,1.5,0.1,1.9,0.3L905.3,240z"/>
	<path class="st4" d="M907.8,250.4c0-2.5,0.5-4.8,1.5-6.9c1-2,2.4-3.6,4.2-4.7c1.8-1.1,3.8-1.7,6.1-1.7c3.5,0,6.4,1.2,8.5,3.7
		c2.2,2.5,3.3,5.7,3.3,9.8v0.6c0,2.6-0.5,4.9-1.5,6.9c-1,2-2.4,3.6-4.2,4.7c-1.8,1.1-3.8,1.7-6.1,1.7c-3.5,0-6.3-1.2-8.5-3.7
		c-2.2-2.5-3.3-5.7-3.3-9.8V250.4z M910.7,251.2c0,3.2,0.8,5.7,2.5,7.8c1.6,2,3.8,3,6.4,3c2.6,0,4.8-1,6.4-3c1.6-2,2.5-4.7,2.5-8
		v-0.6c0-2-0.4-3.9-1.1-5.5c-0.7-1.7-1.8-3-3.1-3.9c-1.4-0.9-2.9-1.4-4.6-1.4c-2.6,0-4.7,1-6.4,3.1c-1.6,2-2.5,4.7-2.5,8V251.2z"/>
	<path class="st4" d="M954.4,260.6c-1.8,2.6-4.6,3.8-8.4,3.8c-2.8,0-5-0.8-6.4-2.5s-2.2-4.1-2.2-7.3v-17.2h2.9v16.8
		c0,5,2,7.5,6.1,7.5c4.2,0,6.9-1.8,8-5.2v-19.1h2.9V264h-2.8L954.4,260.6z"/>
	<path class="st4" d="M986.1,251c0,4.1-0.9,7.4-2.7,9.8c-1.8,2.4-4.3,3.6-7.3,3.6c-3.6,0-6.4-1.3-8.3-3.8v13.5h-2.9v-36.6h2.7
		l0.1,3.7c1.9-2.8,4.7-4.2,8.3-4.2c3.2,0,5.6,1.2,7.4,3.6c1.8,2.4,2.7,5.7,2.7,10V251z M983.2,250.5c0-3.4-0.7-6-2.1-8
		c-1.4-2-3.3-2.9-5.8-2.9c-1.8,0-3.3,0.4-4.6,1.3c-1.3,0.9-2.3,2.1-3,3.8v12.7c0.7,1.5,1.7,2.7,3,3.5c1.3,0.8,2.8,1.2,4.6,1.2
		c2.5,0,4.4-1,5.8-2.9C982.5,257.1,983.2,254.3,983.2,250.5z"/>
</g>
<linearGradient id="SVGID_2_" gradientUnits="userSpaceOnUse" x1="176.2675" y1="282.2218" x2="266.2834" y2="126.3095">
	<stop  offset="0" style="stop-color:#D57D2F"/>
	<stop  offset="0.2727" style="stop-color:#C52337"/>
	<stop  offset="0.6743" style="stop-color:#8E5199"/>
	<stop  offset="1" style="stop-color:#6590CA"/>
</linearGradient>
<path class="st1" d="M131.3,245.6l0.2-83.2c0-6.4,3.4-12.3,9-15.5l72.1-41.4c5.5-3.2,12.3-3.2,17.9,0l71.9,41.8
	c5.5,3.2,8.9,9.1,8.9,15.5l-0.2,83.2c0,6.4-3.4,12.3-9,15.5l-72.1,41.4c-5.5,3.2-12.3,3.2-17.9,0l-71.9-41.8
	C134.6,257.9,131.2,252,131.3,245.6z"/>
<g>
	<path class="st4" d="M221.8,174c0,14.6,15.4,23.8,27.7,16.5l97.8-58.1c-1.8-1.9-3.9-3.6-6.2-5L227.7,59.6c-1.9-1.1-3.8-2-5.9-2.6
		V174z"/>
</g>
<radialGradient id="SVGID_3_" cx="221.2755" cy="204.2657" r="137.1548" gradientUnits="userSpaceOnUse">
	<stop  offset="0" style="stop-color:#F7F7F8"/>
	<stop  offset="1" style="stop-color:#D8D9DD"/>
</radialGradient>
<path class="st2" d="M344.4,266.5l-90.3-52.1c-7.8-4.5-7.8-15.8,0-20.3l90.3-52.1c2.8-1.6,3.7-5.2,2.1-8s-5.2-3.7-8-2.1l-94.2,54.4
	c-7.8,4.5-17.6-1.1-17.6-10.2V62.9c0-3-2.1-5.7-5.1-6c-3.5-0.4-6.5,2.3-6.5,5.8v113.1c0,9-9.8,14.7-17.6,10.2L104.2,132
	c-2.6-1.5-6-1-7.8,1.4c-2.1,2.9-1.2,6.8,1.7,8.5l90.3,52.1c7.8,4.5,7.8,15.8,0,20.3l-90.3,52.1c-2.8,1.6-3.7,5.2-2.1,8
	c1.6,2.8,5.2,3.7,8,2.1l94.2-54.4c7.8-4.5,17.6,1.1,17.6,10.2v113.2c0,3,2.1,5.7,5.1,6c3.5,0.4,6.5-2.3,6.5-5.8V232.8
	c0-9,9.8-14.7,17.6-10.2l93.3,53.9c2.6,1.5,6,1,7.8-1.4C348.3,272.2,347.4,268.3,344.4,266.5z"/>
<g>
	<linearGradient id="SVGID_4_" gradientUnits="userSpaceOnUse" x1="152.8793" y1="322.562" x2="290.2105" y2="84.6974">
		<stop  offset="0" style="stop-color:#D57D2F"/>
		<stop  offset="0.2727" style="stop-color:#C52337"/>
		<stop  offset="0.6743" style="stop-color:#8E5199"/>
		<stop  offset="1" style="stop-color:#6590CA"/>
	</linearGradient>
	<path class="st3" d="M221.2,356.9c-5.7,0-11.5-1.5-16.6-4.5l-104-60.4c-10.2-5.9-16.5-16.9-16.4-28.6l0.3-120.3
		c0-11.8,6.4-22.7,16.6-28.5l104.3-59.9c10.2-5.9,22.8-5.8,33,0.1l104,60.4c10.2,5.9,16.5,16.9,16.4,28.6l-0.3,120.3
		c0,11.8-6.4,22.7-16.6,28.5l-104.3,59.9C232.6,355.4,226.9,356.9,221.2,356.9z M221.9,64.7c-3.2,0-6.4,0.8-9.3,2.5L108.3,127
		c-5.8,3.3-9.4,9.5-9.4,16.1l-0.3,120.3c0,6.6,3.5,12.8,9.3,16.2l104,60.4c5.7,3.3,12.9,3.4,18.7,0l104.3-59.9
		c5.8-3.3,9.4-9.5,9.4-16.1l0.3-120.3c0-6.6-3.5-12.8-9.3-16.2l-104-60.4C228.3,65.5,225.1,64.7,221.9,64.7z"/>
</g>
</svg>
