<?xml version="1.0" encoding="utf-8"?>
<!-- Generator: Adobe Illustrator 22.1.0, SVG Export Plug-In . SVG Version: 6.00 Build 0)  -->
<svg version="1.1" id="Camada_1" xmlns="http://www.w3.org/2000/svg" xmlns:xlink="http://www.w3.org/1999/xlink" x="0px" y="0px"
	 viewBox="0 0 1707 403" style="enable-background:new 0 0 1707 403;" xml:space="preserve">
<style type="text/css">
	.st0{fill:url(#SVGID_1_);}
	.st1{fill:#FFFFFF;}
	.st2{fill:url(#SVGID_2_);}
	.st3{fill:url(#SVGID_3_);}
	.st4{fill:url(#SVGID_4_);}
	.st5{fill:url(#SVGID_5_);}
	.st6{fill:url(#SVGID_6_);}
	.st7{fill:url(#SVGID_7_);}
</style>
<linearGradient id="SVGID_1_" gradientUnits="userSpaceOnUse" x1="1038.149" y1="-24.4153" x2="966.2079" y2="383.5835" gradientTransform="matrix(1 0 0 -1 0 404)">
	<stop  offset="0" style="stop-color:#89D162"/>
	<stop  offset="1" style="stop-color:#0069AA"/>
</linearGradient>
<path class="st0" d="M1612.3,325.7H314.9l36.9-23.2v-138L309,136.3h1303.3c52.3,0,94.7,42.4,94.7,94.7v0
	C1707,283.3,1664.6,325.7,1612.3,325.7z"/>
<g>
	<path class="st1" d="M499.5,205.6c-0.7,6-2.8,10.6-6.4,13.8s-8.5,4.8-14.5,4.8c-4.2,0-7.9-1.1-11.2-3.2s-5.7-5.1-7.5-9
		s-2.7-8.3-2.7-13.3v-7.4c0-5.1,0.9-9.5,2.7-13.4c1.8-3.9,4.3-6.9,7.6-9c3.3-2.1,7.1-3.2,11.5-3.2c6.1,0,10.9,1.6,14.4,4.9
		c3.5,3.3,5.6,7.8,6.2,13.6h-4.8c-1.2-9.7-6.4-14.5-15.7-14.5c-5.2,0-9.3,1.9-12.3,5.8c-3.1,3.9-4.6,9.2-4.6,16v7
		c0,6.6,1.5,11.8,4.5,15.7s7,5.9,12.1,5.9c5,0,8.8-1.2,11.4-3.6c2.6-2.4,4.1-6,4.7-10.8h4.6V205.6z"/>
	<path class="st1" d="M507.5,201.6c0-4.1,0.8-7.7,2.4-11s3.8-5.8,6.7-7.6c2.9-1.8,6.1-2.7,9.8-2.7c5.6,0,10.2,2,13.7,5.9
		s5.2,9.2,5.2,15.7v1c0,4.1-0.8,7.8-2.4,11c-1.6,3.3-3.8,5.8-6.7,7.6s-6.1,2.7-9.8,2.7c-5.6,0-10.2-2-13.7-5.9s-5.3-9.2-5.3-15.7v-1
		H507.5z M512.2,202.9c0,5.1,1.3,9.2,3.9,12.4s6,4.9,10.3,4.9c4.2,0,7.6-1.6,10.3-4.9s3.9-7.5,3.9-12.8v-0.9c0-3.2-0.6-6.2-1.8-8.9
		s-2.9-4.8-5-6.2c-2.2-1.5-4.6-2.2-7.4-2.2c-4.2,0-7.6,1.6-10.2,4.9c-2.6,3.3-3.9,7.5-3.9,12.8L512.2,202.9L512.2,202.9z"/>
	<path class="st1" d="M559.4,181.1l0.2,7.2c1.6-2.6,3.6-4.6,5.9-6c2.4-1.4,5-2.1,7.9-2.1c4.5,0,7.9,1.3,10.1,3.8
		c2.2,2.6,3.3,6.4,3.4,11.5v27.7h-4.6v-27.8c0-3.8-0.8-6.6-2.4-8.4c-1.6-1.8-4.1-2.8-7.6-2.8c-2.9,0-5.4,0.9-7.7,2.7
		c-2.2,1.8-3.9,4.3-4.9,7.3v28.9h-4.6v-42.3h4.3V181.1z"/>
	<path class="st1" d="M603.3,181.1l0.2,7.2c1.6-2.6,3.6-4.6,5.9-6c2.4-1.4,5-2.1,7.9-2.1c4.5,0,7.9,1.3,10.1,3.8
		c2.2,2.6,3.3,6.4,3.4,11.5v27.7h-4.6v-27.8c0-3.8-0.8-6.6-2.4-8.4c-1.6-1.8-4.1-2.8-7.6-2.8c-2.9,0-5.4,0.9-7.7,2.7
		c-2.2,1.8-3.9,4.3-4.9,7.3v28.9H599v-42.3h4.3V181.1z"/>
	<path class="st1" d="M659.2,224.1c-3.6,0-6.8-0.9-9.7-2.7s-5.2-4.2-6.8-7.4s-2.4-6.7-2.4-10.6v-1.7c0-4.1,0.8-7.7,2.4-11
		c1.6-3.3,3.8-5.8,6.6-7.7s5.9-2.8,9.1-2.8c5.1,0,9.2,1.8,12.2,5.3s4.5,8.3,4.5,14.4v2.6h-30.2v0.9c0,4.8,1.4,8.8,4.1,12
		c2.7,3.2,6.2,4.8,10.4,4.8c2.5,0,4.7-0.5,6.6-1.4c1.9-0.9,3.7-2.4,5.2-4.4l2.9,2.2C670.7,221.6,665.7,224.1,659.2,224.1z
		 M658.3,184.3c-3.5,0-6.5,1.3-8.9,3.9c-2.4,2.6-3.9,6-4.4,10.4h25.4V198c-0.1-4.1-1.3-7.4-3.5-9.9
		C664.7,185.6,661.9,184.3,658.3,184.3z"/>
	<path class="st1" d="M699.8,220.2c3.3,0,6-0.9,8.2-2.8c2.2-1.8,3.4-4.2,3.6-7.1h4.5c-0.1,2.6-0.9,4.9-2.4,7.1
		c-1.5,2.1-3.5,3.8-5.9,5s-5.1,1.8-7.9,1.8c-5.5,0-9.9-1.9-13.2-5.8c-3.2-3.9-4.9-9-4.9-15.5v-1.4c0-4.2,0.7-7.9,2.2-11.1
		c1.5-3.2,3.5-5.7,6.3-7.4c2.7-1.7,5.9-2.6,9.6-2.6c4.6,0,8.5,1.4,11.5,4.1c3,2.8,4.6,6.4,4.8,10.9h-4.5c-0.2-3.3-1.4-6-3.6-8
		c-2.2-2-4.9-3-8.2-3c-4.2,0-7.5,1.5-9.8,4.6c-2.3,3-3.5,7.3-3.5,12.8v1.4c0,5.4,1.2,9.6,3.5,12.6
		C692.2,218.7,695.5,220.2,699.8,220.2z"/>
	<path class="st1" d="M732.6,170.3v10.8h8.8v3.8h-8.8v28.2c0,2.3,0.4,4.1,1.3,5.2c0.8,1.1,2.3,1.7,4.2,1.7c0.8,0,2-0.1,3.8-0.4
		l0.2,3.8c-1.2,0.4-2.9,0.7-5,0.7c-3.2,0-5.5-0.9-7-2.8c-1.5-1.9-2.2-4.6-2.2-8.2v-28.2h-7.8v-3.8h7.8v-10.8H732.6z"/>
	<path class="st1" d="M767.9,201.6c0-4.1,0.8-7.7,2.4-11c1.6-3.3,3.8-5.8,6.7-7.6s6.1-2.7,9.8-2.7c5.6,0,10.2,2,13.7,5.9
		s5.2,9.2,5.2,15.7v1c0,4.1-0.8,7.8-2.4,11c-1.6,3.3-3.8,5.8-6.7,7.6s-6.1,2.7-9.8,2.7c-5.6,0-10.2-2-13.7-5.9s-5.3-9.2-5.3-15.7
		L767.9,201.6L767.9,201.6z M772.6,202.9c0,5.1,1.3,9.2,3.9,12.4s6,4.9,10.3,4.9c4.2,0,7.6-1.6,10.3-4.9s3.9-7.5,3.9-12.8v-0.9
		c0-3.2-0.6-6.2-1.8-8.9s-2.9-4.8-5-6.2c-2.2-1.5-4.6-2.2-7.4-2.2c-4.2,0-7.6,1.6-10.2,4.9c-2.6,3.3-3.9,7.5-3.9,12.8L772.6,202.9
		L772.6,202.9z"/>
	<path class="st1" d="M819.8,181.1l0.2,7.2c1.6-2.6,3.6-4.6,5.9-6c2.4-1.4,5-2.1,7.9-2.1c4.5,0,7.9,1.3,10.1,3.8
		c2.2,2.6,3.3,6.4,3.4,11.5v27.7h-4.6v-27.8c0-3.8-0.8-6.6-2.4-8.4c-1.6-1.8-4.1-2.8-7.6-2.8c-2.9,0-5.4,0.9-7.7,2.7
		c-2.2,1.8-3.9,4.3-4.9,7.3v28.9h-4.6v-42.3h4.3V181.1z"/>
	<path class="st1" d="M875.6,224.1c-3.6,0-6.8-0.9-9.7-2.7s-5.2-4.2-6.8-7.4s-2.4-6.7-2.4-10.6v-1.7c0-4.1,0.8-7.7,2.4-11
		c1.6-3.3,3.8-5.8,6.6-7.7s5.9-2.8,9.1-2.8c5.1,0,9.2,1.8,12.2,5.3s4.5,8.3,4.5,14.4v2.6h-30.2v0.9c0,4.8,1.4,8.8,4.1,12
		c2.7,3.2,6.2,4.8,10.4,4.8c2.5,0,4.7-0.5,6.6-1.4c1.9-0.9,3.7-2.4,5.2-4.4l2.9,2.2C887.2,221.6,882.2,224.1,875.6,224.1z
		 M874.8,184.3c-3.5,0-6.5,1.3-8.9,3.9c-2.4,2.6-3.9,6-4.4,10.4h25.4V198c-0.1-4.1-1.3-7.4-3.5-9.9
		C881.2,185.6,878.3,184.3,874.8,184.3z"/>
	<path class="st1" d="M918.2,201.8c0-6.6,1.5-11.9,4.4-15.7s6.9-5.8,11.9-5.8c5.8,0,10.1,2.3,13.1,6.9l0.2-6.1h4.4v41.4
		c0,5.4-1.5,9.8-4.6,12.9c-3,3.2-7.2,4.8-12.4,4.8c-2.9,0-5.7-0.7-8.4-2s-4.8-3.1-6.3-5.3l2.6-2.8c3.3,4.1,7.2,6.1,11.8,6.1
		c3.9,0,7-1.2,9.1-3.5s3.3-5.5,3.4-9.6v-5.3c-3,4.2-7.4,6.3-13.1,6.3c-4.9,0-8.8-2-11.8-5.9s-4.5-9.2-4.5-15.8v-0.6H918.2z
		 M922.9,202.6c0,5.4,1.1,9.6,3.2,12.8c2.2,3.1,5.2,4.7,9.1,4.7c5.8,0,9.8-2.6,12.2-7.7v-19.6c-1.1-2.7-2.7-4.8-4.7-6.2
		c-2.1-1.4-4.5-2.1-7.4-2.1c-3.9,0-7,1.5-9.2,4.6S922.9,196.6,922.9,202.6z"/>
	<path class="st1" d="M991.1,223.4c-0.5-1.3-0.8-3.3-0.9-5.9c-1.6,2.1-3.7,3.8-6.3,4.9s-5.2,1.7-8.1,1.7c-4.1,0-7.4-1.1-9.9-3.4
		c-2.5-2.3-3.8-5.1-3.8-8.6c0-4.1,1.7-7.4,5.1-9.8c3.4-2.4,8.2-3.6,14.3-3.6h8.5V194c0-3-0.9-5.4-2.8-7.1c-1.9-1.7-4.6-2.6-8.1-2.6
		c-3.3,0-6,0.8-8.1,2.5s-3.2,3.7-3.2,6h-4.7c0-3.4,1.6-6.3,4.7-8.7s7-3.7,11.5-3.7c4.7,0,8.4,1.2,11.2,3.5c2.7,2.4,4.1,5.6,4.2,9.9
		v20c0,4.1,0.4,7.1,1.3,9.2v0.5L991.1,223.4L991.1,223.4z M976.4,220c3.1,0,5.9-0.8,8.4-2.3s4.3-3.5,5.4-6.1v-9.3h-8.4
		c-4.7,0.1-8.3,0.9-10.9,2.6c-2.6,1.7-3.9,3.9-3.9,6.8c0,2.4,0.9,4.3,2.6,5.9S973.6,220,976.4,220z"/>
	<path class="st1" d="M1011.5,181.1l0.2,6.9c1.6-2.6,3.5-4.5,5.9-5.7c2.3-1.3,4.9-1.9,7.8-1.9c6.7,0,10.9,2.7,12.7,8.2
		c1.5-2.6,3.5-4.7,6.1-6.1c2.5-1.4,5.3-2.1,8.4-2.1c9.1,0,13.7,4.9,13.9,14.8v28.2h-4.7v-27.9c0-3.8-0.8-6.6-2.4-8.4
		c-1.6-1.8-4.2-2.7-7.8-2.7c-3.4,0.1-6.2,1.1-8.5,3.3c-2.3,2.1-3.6,4.7-3.9,7.8v28h-4.7v-28.2c0-3.6-0.9-6.3-2.6-8.1
		s-4.3-2.7-7.8-2.7c-2.9,0-5.5,0.8-7.6,2.5s-3.7,4.2-4.7,7.5v29h-4.7v-42.3h4.4V181.1z"/>
	<path class="st1" d="M1094.5,224.1c-3.6,0-6.8-0.9-9.7-2.7c-2.9-1.8-5.2-4.2-6.8-7.4c-1.6-3.2-2.4-6.7-2.4-10.6v-1.7
		c0-4.1,0.8-7.7,2.4-11s3.8-5.8,6.6-7.7c2.8-1.9,5.9-2.8,9.1-2.8c5.1,0,9.2,1.8,12.2,5.3s4.5,8.3,4.5,14.4v2.6h-30.2v0.9
		c0,4.8,1.4,8.8,4.1,12s6.2,4.8,10.4,4.8c2.5,0,4.7-0.5,6.6-1.4s3.7-2.4,5.2-4.4l2.9,2.2C1106.1,221.6,1101.1,224.1,1094.5,224.1z
		 M1093.7,184.3c-3.5,0-6.5,1.3-8.9,3.9c-2.4,2.6-3.9,6-4.4,10.4h25.4V198c-0.1-4.1-1.3-7.4-3.5-9.9S1097.2,184.3,1093.7,184.3z"/>
	<path class="st1" d="M1139,185.1c-1-0.2-2-0.3-3.2-0.3c-2.9,0-5.4,0.8-7.4,2.4c-2,1.6-3.5,4-4.3,7.1v29h-4.6V181h4.6l0.1,6.7
		c2.5-5,6.4-7.5,11.9-7.5c1.3,0,2.3,0.2,3.1,0.5L1139,185.1z"/>
	<path class="st1" d="M1173.1,170.3v10.8h8.8v3.8h-8.8v28.2c0,2.3,0.4,4.1,1.3,5.2c0.8,1.1,2.3,1.7,4.2,1.7c0.8,0,2-0.1,3.8-0.4
		l0.2,3.8c-1.2,0.4-2.9,0.7-5,0.7c-3.2,0-5.5-0.9-7-2.8c-1.5-1.9-2.2-4.6-2.2-8.2v-28.2h-7.8v-3.8h7.8v-10.8H1173.1z"/>
	<path class="st1" d="M1188.2,201.6c0-4.1,0.8-7.7,2.4-11s3.8-5.8,6.7-7.6c2.9-1.8,6.1-2.7,9.8-2.7c5.6,0,10.2,2,13.7,5.9
		s5.2,9.2,5.2,15.7v1c0,4.1-0.8,7.8-2.4,11c-1.6,3.3-3.8,5.8-6.7,7.6c-2.9,1.8-6.1,2.7-9.8,2.7c-5.6,0-10.2-2-13.7-5.9
		s-5.3-9.2-5.3-15.7v-1H1188.2z M1192.9,202.9c0,5.1,1.3,9.2,3.9,12.4s6,4.9,10.3,4.9c4.2,0,7.6-1.6,10.3-4.9s3.9-7.5,3.9-12.8v-0.9
		c0-3.2-0.6-6.2-1.8-8.9c-1.2-2.7-2.9-4.8-5-6.2c-2.2-1.5-4.6-2.2-7.4-2.2c-4.2,0-7.6,1.6-10.2,4.9c-2.6,3.3-3.9,7.5-3.9,12.8v0.9
		H1192.9z"/>
	<path class="st1" d="M1281.7,223.4c-0.5-1.3-0.8-3.3-0.9-5.9c-1.6,2.1-3.7,3.8-6.3,4.9s-5.2,1.7-8.1,1.7c-4.1,0-7.4-1.1-9.9-3.4
		c-2.5-2.3-3.8-5.1-3.8-8.6c0-4.1,1.7-7.4,5.1-9.8c3.4-2.4,8.2-3.6,14.3-3.6h8.5V194c0-3-0.9-5.4-2.8-7.1c-1.9-1.7-4.6-2.6-8.1-2.6
		c-3.3,0-6,0.8-8.1,2.5s-3.2,3.7-3.2,6h-4.7c0-3.4,1.6-6.3,4.7-8.7s7-3.7,11.5-3.7c4.7,0,8.4,1.2,11.2,3.5c2.7,2.4,4.1,5.6,4.2,9.9
		v20c0,4.1,0.4,7.1,1.3,9.2v0.5L1281.7,223.4L1281.7,223.4z M1267,220c3.1,0,5.9-0.8,8.4-2.3s4.3-3.5,5.4-6.1v-9.3h-8.4
		c-4.7,0.1-8.3,0.9-10.9,2.6c-2.6,1.7-3.9,3.9-3.9,6.8c0,2.4,0.9,4.3,2.6,5.9S1264.2,220,1267,220z"/>
	<path class="st1" d="M1302.4,181.1l0.2,7.2c1.6-2.6,3.6-4.6,5.9-6c2.4-1.4,5-2.1,7.9-2.1c4.5,0,7.9,1.3,10.1,3.8
		c2.2,2.6,3.3,6.4,3.4,11.5v27.7h-4.6v-27.8c0-3.8-0.8-6.6-2.4-8.4c-1.6-1.8-4.1-2.8-7.6-2.8c-2.9,0-5.4,0.9-7.7,2.7
		c-2.2,1.8-3.9,4.3-4.9,7.3v28.9h-4.6v-42.3h4.3V181.1z"/>
	<path class="st1" d="M1339.3,201.6c0-4.1,0.8-7.7,2.4-11s3.8-5.8,6.7-7.6c2.9-1.8,6.1-2.7,9.8-2.7c5.6,0,10.2,2,13.7,5.9
		s5.2,9.2,5.2,15.7v1c0,4.1-0.8,7.8-2.4,11c-1.6,3.3-3.8,5.8-6.7,7.6c-2.9,1.8-6.1,2.7-9.8,2.7c-5.6,0-10.2-2-13.7-5.9
		s-5.3-9.2-5.3-15.7v-1H1339.3z M1344,202.9c0,5.1,1.3,9.2,3.9,12.4s6,4.9,10.3,4.9c4.2,0,7.6-1.6,10.3-4.9s3.9-7.5,3.9-12.8v-0.9
		c0-3.2-0.6-6.2-1.8-8.9c-1.2-2.7-2.9-4.8-5-6.2c-2.2-1.5-4.6-2.2-7.4-2.2c-4.2,0-7.6,1.6-10.2,4.9c-2.6,3.3-3.9,7.5-3.9,12.8v0.9
		H1344z"/>
	<path class="st1" d="M1393.9,170.3v10.8h8.8v3.8h-8.8v28.2c0,2.3,0.4,4.1,1.3,5.2c0.8,1.1,2.3,1.7,4.2,1.7c0.8,0,2-0.1,3.8-0.4
		l0.2,3.8c-1.2,0.4-2.9,0.7-5,0.7c-3.2,0-5.5-0.9-7-2.8c-1.5-1.9-2.2-4.6-2.2-8.2v-28.2h-7.8v-3.8h7.8v-10.8H1393.9z"/>
	<path class="st1" d="M1417,188.2c1.5-2.5,3.5-4.5,5.9-5.9s5-2.1,7.9-2.1c4.5,0,7.9,1.3,10.1,3.8c2.2,2.6,3.3,6.4,3.4,11.5v27.7
		h-4.6v-27.8c0-3.8-0.8-6.6-2.4-8.4c-1.6-1.8-4.1-2.8-7.6-2.8c-2.9,0-5.4,0.9-7.7,2.7c-2.2,1.8-3.9,4.3-4.9,7.3v28.9h-4.6v-60h4.6
		v25.1H1417z"/>
	<path class="st1" d="M1472.6,224.1c-3.6,0-6.8-0.9-9.7-2.7c-2.9-1.8-5.2-4.2-6.8-7.4c-1.6-3.2-2.4-6.7-2.4-10.6v-1.7
		c0-4.1,0.8-7.7,2.4-11s3.8-5.8,6.6-7.7c2.8-1.9,5.9-2.8,9.1-2.8c5.1,0,9.2,1.8,12.2,5.3s4.5,8.3,4.5,14.4v2.6h-30.2v0.9
		c0,4.8,1.4,8.8,4.1,12s6.2,4.8,10.4,4.8c2.5,0,4.7-0.5,6.6-1.4s3.7-2.4,5.2-4.4l2.9,2.2C1484.2,221.6,1479.2,224.1,1472.6,224.1z
		 M1471.8,184.3c-3.5,0-6.5,1.3-8.9,3.9c-2.4,2.6-3.9,6-4.4,10.4h25.4V198c-0.1-4.1-1.3-7.4-3.5-9.9
		C1478.2,185.6,1475.3,184.3,1471.8,184.3z"/>
	<path class="st1" d="M1517.1,185.1c-1-0.2-2-0.3-3.2-0.3c-2.9,0-5.4,0.8-7.4,2.4c-2,1.6-3.5,4-4.3,7.1v29h-4.6V181h4.6l0.1,6.7
		c2.5-5,6.4-7.5,11.9-7.5c1.3,0,2.3,0.2,3.1,0.5L1517.1,185.1z"/>
	<path class="st1" d="M513.6,280.4c0,4.1-0.9,7.4-2.7,9.8s-4.3,3.6-7.3,3.6c-3.7,0-6.5-1.4-8.3-4.1l-0.1,3.6h-2.7v-37.5h2.9v14.9
		c1.9-2.9,4.6-4.3,8.3-4.3c3.1,0,5.6,1.2,7.4,3.6c1.8,2.4,2.7,5.7,2.7,9.9v0.5H513.6z M510.7,279.9c0-3.5-0.7-6.2-2-8.1
		c-1.4-1.9-3.3-2.8-5.7-2.8c-1.9,0-3.5,0.5-4.8,1.4s-2.3,2.3-3,4v11.9c1.5,3.3,4.1,5,7.8,5c2.4,0,4.3-1,5.7-2.9
		S510.7,283.7,510.7,279.9z"/>
	<path class="st1" d="M528.2,289.2l7.7-22.2h3.1l-11.3,30.9l-0.6,1.4c-1.4,3.2-3.7,4.8-6.7,4.8c-0.7,0-1.4-0.1-2.2-0.3v-2.4l1.5,0.1
		c1.4,0,2.6-0.4,3.5-1.1s1.6-1.9,2.3-3.6l1.3-3.6l-10-26.2h3.2L528.2,289.2z"/>
	<path class="st1" d="M560.3,260.2v6.8h5.5v2.4h-5.5V287c0,1.5,0.3,2.6,0.8,3.3s1.4,1.1,2.6,1.1c0.5,0,1.3-0.1,2.4-0.2l0.1,2.4
		c-0.8,0.3-1.8,0.4-3.1,0.4c-2,0-3.5-0.6-4.4-1.7c-0.9-1.2-1.4-2.9-1.4-5.1v-17.6h-4.9v-2.4h4.9v-6.8h3V260.2z"/>
	<path class="st1" d="M574.7,271.4c1-1.6,2.2-2.8,3.7-3.7c1.5-0.9,3.1-1.3,4.9-1.3c2.8,0,4.9,0.8,6.3,2.4c1.4,1.6,2.1,4,2.1,7.2
		v17.3h-2.9V276c0-2.4-0.5-4.1-1.5-5.3c-1-1.2-2.6-1.7-4.7-1.7c-1.8,0-3.4,0.6-4.8,1.7c-1.4,1.1-2.4,2.7-3.1,4.6v18.1h-2.9v-37.5
		h2.9V271.4z"/>
	<path class="st1" d="M609.5,293.8c-2.2,0-4.3-0.6-6.1-1.7s-3.2-2.6-4.2-4.6s-1.5-4.2-1.5-6.7v-1c0-2.5,0.5-4.8,1.5-6.9
		c1-2,2.4-3.6,4.1-4.8c1.8-1.2,3.7-1.7,5.7-1.7c3.2,0,5.7,1.1,7.6,3.3c1.9,2.2,2.8,5.2,2.8,9v1.6h-18.8v0.6c0,3,0.9,5.5,2.6,7.5
		c1.7,2,3.9,3,6.5,3c1.6,0,2.9-0.3,4.1-0.9c1.2-0.6,2.3-1.5,3.3-2.7l1.8,1.4C616.7,292.3,613.5,293.8,609.5,293.8z M608.9,268.9
		c-2.2,0-4,0.8-5.6,2.4s-2.4,3.8-2.7,6.5h15.8v-0.3c-0.1-2.5-0.8-4.6-2.2-6.2C612.9,269.7,611.1,268.9,608.9,268.9z"/>
	<path class="st1" d="M641.8,260.2v6.8h5.5v2.4h-5.5V287c0,1.5,0.3,2.6,0.8,3.3s1.4,1.1,2.6,1.1c0.5,0,1.3-0.1,2.4-0.2l0.1,2.4
		c-0.8,0.3-1.8,0.4-3.1,0.4c-2,0-3.5-0.6-4.4-1.7c-0.9-1.2-1.4-2.9-1.4-5.1v-17.6H634v-2.4h4.9v-6.8h2.9V260.2z"/>
	<path class="st1" d="M656.2,271.4c1-1.6,2.2-2.8,3.7-3.7c1.5-0.9,3.1-1.3,4.9-1.3c2.8,0,4.9,0.8,6.3,2.4c1.4,1.6,2.1,4,2.1,7.2
		v17.3h-2.9V276c0-2.4-0.5-4.1-1.5-5.3c-1-1.2-2.6-1.7-4.7-1.7c-1.8,0-3.4,0.6-4.8,1.7c-1.4,1.1-2.4,2.7-3.1,4.6v18.1h-2.9v-37.5
		h2.9V271.4z"/>
	<path class="st1" d="M680.5,259.3c0-0.6,0.2-1,0.5-1.4c0.4-0.4,0.8-0.6,1.5-0.6c0.6,0,1.1,0.2,1.5,0.6s0.5,0.8,0.5,1.4
		s-0.2,1-0.5,1.4c-0.4,0.4-0.9,0.6-1.5,0.6s-1.1-0.2-1.5-0.6C680.7,260.3,680.5,259.9,680.5,259.3z M684,293.4h-2.9V267h2.9V293.4z"
		/>
	<path class="st1" d="M694.7,266.9l0.1,4.5c1-1.6,2.2-2.9,3.7-3.7c1.5-0.9,3.1-1.3,4.9-1.3c2.8,0,4.9,0.8,6.3,2.4
		c1.4,1.6,2.1,4,2.1,7.2v17.3h-2.9V276c0-2.4-0.5-4.1-1.5-5.3c-1-1.2-2.6-1.7-4.7-1.7c-1.8,0-3.4,0.6-4.8,1.7
		c-1.4,1.1-2.4,2.7-3.1,4.6v18.1h-2.9V267h2.8V266.9z"/>
	<path class="st1" d="M718.2,279.9c0-4.1,0.9-7.4,2.7-9.8s4.3-3.6,7.5-3.6c3.6,0,6.3,1.4,8.2,4.3l0.1-3.8h2.7v25.9
		c0,3.4-1,6.1-2.9,8.1s-4.5,3-7.7,3c-1.8,0-3.6-0.4-5.3-1.2c-1.7-0.8-3-1.9-3.9-3.3l1.6-1.8c2.1,2.5,4.5,3.8,7.4,3.8
		c2.4,0,4.3-0.7,5.7-2.2s2.1-3.4,2.1-6V290c-1.9,2.6-4.6,3.9-8.2,3.9c-3.1,0-5.5-1.2-7.4-3.7s-2.8-5.7-2.8-9.9v-0.4H718.2z
		 M721.2,280.4c0,3.4,0.7,6,2,8c1.4,1.9,3.3,2.9,5.7,2.9c3.6,0,6.1-1.6,7.6-4.8v-12.3c-0.7-1.7-1.7-3-3-3.9s-2.8-1.3-4.6-1.3
		c-2.5,0-4.4,1-5.7,2.9S721.2,276.7,721.2,280.4z"/>
	<path class="st1" d="M762.9,286.6c0-1.4-0.6-2.6-1.7-3.5c-1.2-0.9-2.9-1.6-5.3-2.1c-2.3-0.5-4.2-1.1-5.5-1.7s-2.3-1.4-2.9-2.4
		c-0.6-0.9-0.9-2.1-0.9-3.4c0-2.1,0.9-3.8,2.6-5.2c1.7-1.4,4-2,6.7-2c2.9,0,5.3,0.7,7.1,2.2s2.7,3.4,2.7,5.7h-2.9
		c0-1.5-0.6-2.8-1.9-3.9c-1.3-1-2.9-1.5-4.9-1.5c-1.9,0-3.5,0.4-4.6,1.3c-1.2,0.9-1.7,2-1.7,3.3s0.5,2.3,1.5,3.1
		c1,0.7,2.7,1.4,5.3,2s4.5,1.2,5.8,1.9c1.3,0.7,2.2,1.5,2.8,2.5s0.9,2.1,0.9,3.5c0,2.2-0.9,4-2.7,5.3s-4.1,2-7,2
		c-3.1,0-5.6-0.7-7.5-2.2s-2.9-3.4-2.9-5.7h2.9c0.1,1.7,0.8,3,2.2,4c1.3,1,3.1,1.4,5.3,1.4c2,0,3.7-0.4,4.9-1.3
		C762.3,289.1,762.9,288,762.9,286.6z"/>
	<path class="st1" d="M789.1,260.2v6.8h5.5v2.4h-5.5V287c0,1.5,0.3,2.6,0.8,3.3c0.5,0.7,1.4,1.1,2.6,1.1c0.5,0,1.3-0.1,2.4-0.2
		l0.1,2.4c-0.8,0.3-1.8,0.4-3.1,0.4c-2,0-3.5-0.6-4.4-1.7c-0.9-1.2-1.4-2.9-1.4-5.1v-17.6h-4.9v-2.4h4.9v-6.8h3V260.2z"/>
	<path class="st1" d="M803.6,271.4c1-1.6,2.2-2.8,3.7-3.7c1.5-0.9,3.1-1.3,4.9-1.3c2.8,0,4.9,0.8,6.3,2.4c1.4,1.6,2.1,4,2.1,7.2
		v17.3h-2.9V276c0-2.4-0.5-4.1-1.5-5.3c-1-1.2-2.6-1.7-4.7-1.7c-1.8,0-3.4,0.6-4.8,1.7c-1.4,1.1-2.4,2.7-3.1,4.6v18.1h-2.9v-37.5
		h2.9V271.4z"/>
	<path class="st1" d="M838.3,293.8c-2.2,0-4.3-0.6-6.1-1.7s-3.2-2.6-4.2-4.6s-1.5-4.2-1.5-6.7v-1c0-2.5,0.5-4.8,1.5-6.9
		c1-2,2.4-3.6,4.1-4.8c1.8-1.2,3.7-1.7,5.7-1.7c3.2,0,5.7,1.1,7.6,3.3c1.9,2.2,2.8,5.2,2.8,9v1.6h-18.8v0.6c0,3,0.9,5.5,2.6,7.5
		c1.7,2,3.9,3,6.5,3c1.6,0,2.9-0.3,4.1-0.9c1.2-0.6,2.3-1.5,3.3-2.7l1.8,1.4C845.5,292.3,842.4,293.8,838.3,293.8z M837.8,268.9
		c-2.2,0-4,0.8-5.6,2.4c-1.5,1.6-2.4,3.8-2.7,6.5h15.8v-0.3c-0.1-2.5-0.8-4.6-2.2-6.2C841.8,269.7,840,268.9,837.8,268.9z"/>
	<path class="st1" d="M862,289.2l7.7-22.2h3.1l-11.3,30.9l-0.6,1.4c-1.4,3.2-3.7,4.8-6.7,4.8c-0.7,0-1.4-0.1-2.2-0.3v-2.4l1.5,0.1
		c1.4,0,2.6-0.4,3.5-1.1s1.6-1.9,2.3-3.6l1.3-3.6l-10-26.2h3.2L862,289.2z"/>
	<path class="st1" d="M892.4,271.4c1-1.6,2.2-2.8,3.7-3.7c1.5-0.9,3.1-1.3,4.9-1.3c2.8,0,4.9,0.8,6.3,2.4c1.4,1.6,2.1,4,2.1,7.2
		v17.3h-2.9V276c0-2.4-0.5-4.1-1.5-5.3c-1-1.2-2.6-1.7-4.7-1.7c-1.8,0-3.4,0.6-4.8,1.7c-1.4,1.1-2.4,2.7-3.1,4.6v18.1h-2.9v-37.5
		h2.9V271.4z"/>
	<path class="st1" d="M933.6,293.4c-0.3-0.8-0.5-2.1-0.6-3.7c-1,1.3-2.3,2.4-3.9,3.1c-1.6,0.7-3.3,1.1-5,1.1c-2.5,0-4.6-0.7-6.2-2.1
		c-1.6-1.4-2.4-3.2-2.4-5.4c0-2.6,1.1-4.6,3.2-6.1c2.1-1.5,5.1-2.2,8.9-2.2h5.3v-3c0-1.9-0.6-3.4-1.7-4.5c-1.2-1.1-2.9-1.6-5.1-1.6
		c-2,0-3.7,0.5-5.1,1.6c-1.3,1-2,2.3-2,3.8h-2.9c0-2.1,1-3.9,2.9-5.5s4.4-2.3,7.2-2.3c2.9,0,5.3,0.7,7,2.2s2.6,3.5,2.6,6.2v12.5
		c0,2.6,0.3,4.5,0.8,5.7v0.3h-3V293.4z M924.5,291.3c2,0,3.7-0.5,5.2-1.4s2.7-2.2,3.4-3.8v-5.8h-5.2c-2.9,0-5.2,0.6-6.8,1.6
		s-2.5,2.5-2.5,4.3c0,1.5,0.5,2.7,1.6,3.7C921.3,290.8,922.7,291.3,924.5,291.3z"/>
	<path class="st1" d="M951.6,289.3l8-22.4h3l-9.9,26.4h-2.4l-9.9-26.4h3L951.6,289.3z"/>
	<path class="st1" d="M977.3,293.8c-2.2,0-4.3-0.6-6.1-1.7s-3.2-2.6-4.2-4.6s-1.5-4.2-1.5-6.7v-1c0-2.5,0.5-4.8,1.5-6.9
		c1-2,2.4-3.6,4.1-4.8c1.8-1.2,3.7-1.7,5.7-1.7c3.2,0,5.7,1.1,7.6,3.3c1.9,2.2,2.8,5.2,2.8,9v1.6h-18.8v0.6c0,3,0.9,5.5,2.6,7.5
		c1.7,2,3.9,3,6.5,3c1.6,0,2.9-0.3,4.1-0.9c1.2-0.6,2.3-1.5,3.3-2.7l1.8,1.4C984.6,292.3,981.4,293.8,977.3,293.8z M976.8,268.9
		c-2.2,0-4,0.8-5.6,2.4c-1.5,1.6-2.4,3.8-2.7,6.5h15.8v-0.3c-0.1-2.5-0.8-4.6-2.2-6.2C980.8,269.7,979,268.9,976.8,268.9z"/>
	<path class="st1" d="M1004.9,259.3c0-0.6,0.2-1,0.5-1.4c0.4-0.4,0.8-0.6,1.5-0.6c0.6,0,1.1,0.2,1.5,0.6s0.5,0.8,0.5,1.4
		s-0.2,1-0.5,1.4c-0.4,0.4-0.9,0.6-1.5,0.6s-1.1-0.2-1.5-0.6C1005.1,260.3,1004.9,259.9,1004.9,259.3z M1008.4,293.4h-2.9V267h2.9
		V293.4z"/>
	<path class="st1" d="M1019.1,266.9l0.1,4.5c1-1.6,2.2-2.9,3.7-3.7c1.5-0.9,3.1-1.3,4.9-1.3c2.8,0,4.9,0.8,6.3,2.4s2.1,4,2.1,7.2
		v17.3h-2.9V276c0-2.4-0.5-4.1-1.5-5.3c-1-1.2-2.6-1.7-4.7-1.7c-1.8,0-3.4,0.6-4.8,1.7c-1.4,1.1-2.4,2.7-3.1,4.6v18.1h-2.9V267h2.8
		V266.9z"/>
	<path class="st1" d="M1065.7,291.4c2,0,3.7-0.6,5.1-1.7s2.1-2.6,2.2-4.5h2.8c-0.1,1.6-0.6,3.1-1.5,4.4s-2.2,2.4-3.7,3.1
		s-3.2,1.1-4.9,1.1c-3.5,0-6.2-1.2-8.2-3.6s-3-5.6-3-9.7v-0.9c0-2.6,0.5-4.9,1.4-6.9s2.2-3.5,3.9-4.6c1.7-1.1,3.7-1.6,6-1.6
		c2.9,0,5.3,0.9,7.2,2.6c1.9,1.7,2.9,4,3,6.8h-2.8c-0.1-2.1-0.9-3.7-2.2-5c-1.4-1.3-3.1-1.9-5.1-1.9c-2.6,0-4.7,1-6.1,2.9
		c-1.5,1.9-2.2,4.6-2.2,8v0.9c0,3.4,0.7,6,2.2,7.9C1061,290.4,1063.1,291.4,1065.7,291.4z"/>
	<path class="st1" d="M1080.1,279.8c0-2.5,0.5-4.8,1.5-6.9c1-2,2.4-3.6,4.2-4.7c1.8-1.1,3.8-1.7,6.1-1.7c3.5,0,6.4,1.2,8.5,3.7
		c2.2,2.5,3.3,5.7,3.3,9.8v0.6c0,2.6-0.5,4.9-1.5,6.9s-2.4,3.6-4.2,4.7c-1.8,1.1-3.8,1.7-6.1,1.7c-3.5,0-6.3-1.2-8.5-3.7
		s-3.3-5.7-3.3-9.8V279.8z M1083,280.6c0,3.2,0.8,5.7,2.5,7.8c1.6,2,3.8,3,6.4,3s4.8-1,6.4-3s2.5-4.7,2.5-8v-0.6
		c0-2-0.4-3.9-1.1-5.5c-0.7-1.7-1.8-3-3.1-3.9c-1.4-0.9-2.9-1.4-4.6-1.4c-2.6,0-4.7,1-6.4,3.1c-1.6,2-2.5,4.7-2.5,8v0.5H1083z"/>
	<path class="st1" d="M1112.4,266.9l0.1,4.3c1-1.6,2.2-2.8,3.7-3.6c1.5-0.8,3.1-1.2,4.9-1.2c4.2,0,6.8,1.7,7.9,5.1
		c0.9-1.6,2.2-2.9,3.8-3.8c1.6-0.9,3.3-1.3,5.2-1.3c5.7,0,8.6,3.1,8.7,9.3v17.6h-2.9v-17.4c0-2.4-0.5-4.1-1.5-5.2s-2.6-1.7-4.9-1.7
		c-2.1,0-3.9,0.7-5.3,2s-2.3,2.9-2.4,4.8v17.5h-2.9v-17.6c0-2.3-0.5-4-1.6-5.1c-1-1.1-2.7-1.7-4.8-1.7c-1.8,0-3.4,0.5-4.7,1.6
		s-2.3,2.6-2.9,4.7v18.1h-2.9v-26.4L1112.4,266.9L1112.4,266.9z"/>
	<path class="st1" d="M1156.7,266.9l0.1,4.3c1-1.6,2.2-2.8,3.7-3.6c1.5-0.8,3.1-1.2,4.9-1.2c4.2,0,6.8,1.7,7.9,5.1
		c0.9-1.6,2.2-2.9,3.8-3.8c1.6-0.9,3.3-1.3,5.2-1.3c5.7,0,8.6,3.1,8.7,9.3v17.6h-2.9v-17.4c0-2.4-0.5-4.1-1.5-5.2s-2.6-1.7-4.9-1.7
		c-2.1,0-3.9,0.7-5.3,2s-2.3,2.9-2.4,4.8v17.5h-2.9v-17.6c0-2.3-0.5-4-1.6-5.1c-1-1.1-2.7-1.7-4.8-1.7c-1.8,0-3.4,0.5-4.7,1.6
		s-2.3,2.6-2.9,4.7v18.1h-2.9v-26.4L1156.7,266.9L1156.7,266.9z"/>
	<path class="st1" d="M1196.7,279.8c0-2.5,0.5-4.8,1.5-6.9c1-2,2.4-3.6,4.2-4.7c1.8-1.1,3.8-1.7,6.1-1.7c3.5,0,6.4,1.2,8.5,3.7
		c2.2,2.5,3.3,5.7,3.3,9.8v0.6c0,2.6-0.5,4.9-1.5,6.9s-2.4,3.6-4.2,4.7c-1.8,1.1-3.8,1.7-6.1,1.7c-3.5,0-6.3-1.2-8.5-3.7
		s-3.3-5.7-3.3-9.8V279.8z M1199.6,280.6c0,3.2,0.8,5.7,2.5,7.8c1.6,2,3.8,3,6.4,3s4.8-1,6.4-3s2.5-4.7,2.5-8v-0.6
		c0-2-0.4-3.9-1.1-5.5c-0.7-1.7-1.8-3-3.1-3.9c-1.4-0.9-2.9-1.4-4.6-1.4c-2.6,0-4.7,1-6.4,3.1c-1.6,2-2.5,4.7-2.5,8v0.5H1199.6z"/>
	<path class="st1" d="M1229.1,266.9l0.1,4.5c1-1.6,2.2-2.9,3.7-3.7c1.5-0.9,3.1-1.3,4.9-1.3c2.8,0,4.9,0.8,6.3,2.4s2.1,4,2.1,7.2
		v17.3h-2.9V276c0-2.4-0.5-4.1-1.5-5.3c-1-1.2-2.6-1.7-4.7-1.7c-1.8,0-3.4,0.6-4.8,1.7s-2.4,2.7-3.1,4.6v18.1h-2.9V267h2.8V266.9z"
		/>
</g>
<g>
	
		<linearGradient id="SVGID_2_" gradientUnits="userSpaceOnUse" x1="346.8761" y1="95.2896" x2="282.9151" y2="206.0733" gradientTransform="matrix(1 0 0 -1 0 404)">
		<stop  offset="0" style="stop-color:#D57D2F"/>
		<stop  offset="0.2727" style="stop-color:#C52337"/>
		<stop  offset="0.6743" style="stop-color:#8E5199"/>
		<stop  offset="1" style="stop-color:#6590CA"/>
	</linearGradient>
	<path class="st2" d="M352.7,196.7c-14.2-0.4-23.3-8.9-39.1-8.9c-17,0-25.2,5.3-41.3,21.2l0,0c-7.5,7.4-15,18.6-21.1,31.7
		c-0.7,1.9-1.1,3.5-1.1,4.9c0,0.8,0.2,1.6,0.5,2.2c0.7,1.4,1.9,1.8,2.4,1.9l9.4,2h0.1c2.8,0.6,4.8,3.1,4.8,5.9v4.8
		c0,2.9,1.8,4.5,4.6,4.5h8.9c1.8,0,5,1.1,3.3,5.4c-1.5,3.9-5.9,7.7-12,10.8c-2.8,1.2-4.8,2.9-4.8,5.9c0,5.7,3,10.4,6.6,10.4h9.7
		c15.4,0,15.5,23.3,14.8,33.7c-0.1,1.8,1.9,2.9,3.4,1.9c14.6-10.5,50.9-32.4,50.9-32.4 M312.2,226.2c0-1.6,1.3-2.9,2.9-2.9h5.1
		c1.6,0,2.9,1.3,2.9,2.9v6.7c0,0.5-0.1,1-0.4,1.5l-1.7,2.8c-0.5,0.9-1.5,1.4-2.5,1.4h-1.8c-1,0-2-0.5-2.5-1.4l-1.7-2.8
		c-0.3-0.4-0.4-1-0.4-1.5v-6.7H312.2z M311,247.2l-2.8,1.7c-0.4,0.3-1,0.4-1.5,0.4H300c-1.6,0-2.9-1.3-2.9-2.9v-5.1
		c0-1.6,1.3-2.9,2.9-2.9h6.7c0.5,0,1,0.1,1.5,0.4l2.8,1.7c0.9,0.5,1.4,1.5,1.4,2.5v1.8C312.4,245.7,311.9,246.7,311,247.2z
		 M323.1,261.4c0,1.6-1.3,2.9-2.9,2.9h-5.1c-1.6,0-2.9-1.3-2.9-2.9v-6.7c0-0.5,0.1-1,0.4-1.5l1.7-2.8c0.5-0.9,1.5-1.4,2.5-1.4h1.8
		c1,0,2,0.5,2.5,1.4l1.7,2.8c0.3,0.4,0.4,1,0.4,1.5v6.7H323.1z M338,246.4c0,1.6-1.3,2.9-2.9,2.9h-6.7c-0.5,0-1-0.1-1.5-0.4
		l-2.8-1.7c-0.9-0.5-1.4-1.5-1.4-2.5v-1.8c0-1,0.5-2,1.4-2.5l2.8-1.7c0.4-0.3,1-0.4,1.5-0.4h6.7c1.6,0,2.9,1.3,2.9,2.9V246.4z"/>
	
		<linearGradient id="SVGID_3_" gradientUnits="userSpaceOnUse" x1="100.0151" y1="95.2707" x2="163.976" y2="206.0544" gradientTransform="matrix(1 0 0 -1 0 404)">
		<stop  offset="0" style="stop-color:#D57D2F"/>
		<stop  offset="0.2727" style="stop-color:#C52337"/>
		<stop  offset="0.6743" style="stop-color:#8E5199"/>
		<stop  offset="1" style="stop-color:#6590CA"/>
	</linearGradient>
	<path class="st3" d="M94.3,302.4c0,0,36.3,21.9,50.9,32.4c1.5,1.1,3.5,0,3.4-1.9c-0.7-10.4-0.6-33.7,14.8-33.7h9.7
		c3.7,0,6.6-4.7,6.6-10.4c0-3-2-4.7-4.8-5.9c-6.2-3-10.5-6.9-12-10.8c-1.7-4.3,1.5-5.4,3.3-5.4h8.9c2.8,0,4.6-1.6,4.6-4.5v-4.8
		c0-2.8,2-5.3,4.8-5.9h0.1l9.4-2c0.5-0.1,1.7-0.5,2.4-1.9c0.3-0.6,0.5-1.4,0.5-2.2c0-1.4-0.3-3.1-1.1-4.9
		c-6.1-13.1-13.6-24.3-21.1-31.7l0,0c-16.1-15.9-24.3-21.2-41.3-21.2c-15.8,0-24.9,8.6-39.1,8.9 M134.8,233c0,0.5-0.1,1-0.4,1.5
		l-1.7,2.8c-0.5,0.9-1.5,1.4-2.5,1.4h-1.8c-1,0-2-0.5-2.5-1.4l-1.7-2.8c-0.3-0.4-0.4-1-0.4-1.5v-6.7c0-1.6,1.3-2.9,2.9-2.9h5.1
		c1.6,0,2.9,1.3,2.9,2.9L134.8,233L134.8,233z M134.5,244.7v-1.8c0-1,0.5-2,1.4-2.5l2.8-1.7c0.4-0.3,1-0.4,1.5-0.4h6.7
		c1.6,0,2.9,1.3,2.9,2.9v5.1c0,1.6-1.3,2.9-2.9,2.9h-6.7c-0.5,0-1-0.1-1.5-0.4l-2.8-1.7C135,246.7,134.5,245.7,134.5,244.7z
		 M123.9,254.6c0-0.5,0.1-1,0.4-1.5l1.7-2.8c0.5-0.9,1.5-1.4,2.5-1.4h1.8c1,0,2,0.5,2.5,1.4l1.7,2.8c0.3,0.4,0.4,1,0.4,1.5v6.7
		c0,1.6-1.3,2.9-2.9,2.9h-5.1c-1.6,0-2.9-1.3-2.9-2.9L123.9,254.6L123.9,254.6z M108.9,241.3c0-1.6,1.3-2.9,2.9-2.9h6.7
		c0.5,0,1,0.1,1.5,0.4l2.8,1.7c0.9,0.5,1.4,1.5,1.4,2.5v1.8c0,1-0.5,2-1.4,2.5L120,249c-0.4,0.3-1,0.4-1.5,0.4h-6.7
		c-1.6,0-2.9-1.3-2.9-2.9V241.3z"/>
	<g>
		
			<linearGradient id="SVGID_4_" gradientUnits="userSpaceOnUse" x1="156.3716" y1="54.3302" x2="290.6284" y2="286.8698" gradientTransform="matrix(1 0 0 -1 0 404)">
			<stop  offset="0" style="stop-color:#D57D2F"/>
			<stop  offset="0.2727" style="stop-color:#C52337"/>
			<stop  offset="0.6743" style="stop-color:#8E5199"/>
			<stop  offset="1" style="stop-color:#6590CA"/>
		</linearGradient>
		<path class="st4" d="M223.2,383.3c-5.6,0-11.2-1.5-16.2-4.4l-101.7-59.1c-9.9-5.8-16.1-16.5-16.1-28l0.3-117.6
			c0-11.5,6.2-22.2,16.2-27.9l102-58.5c10-5.7,22.3-5.7,32.3,0.1L341.7,147c9.9,5.8,16.1,16.5,16.1,28l-0.3,117.6
			c0,11.5-6.2,22.2-16.2,27.9l-102,58.5C234.3,381.9,228.7,383.3,223.2,383.3z M223.8,97.6c-3.1,0-6.3,0.8-9.1,2.4l-102,58.5
			c-5.6,3.2-9.1,9.3-9.2,15.8l-0.3,117.6c0,6.5,3.5,12.6,9.1,15.8L214,366.8c5.6,3.3,12.6,3.3,18.2,0l102-58.5
			c5.6-3.2,9.1-9.3,9.2-15.8l0.3-117.6c0-6.5-3.5-12.6-9.1-15.8L233,100C230.1,98.4,227,97.6,223.8,97.6z"/>
	</g>
	<g>
		
			<linearGradient id="SVGID_5_" gradientUnits="userSpaceOnUse" x1="222.05" y1="218.9019" x2="222.05" y2="384.3" gradientTransform="matrix(1 0 0 -1 0 404)">
			<stop  offset="0" style="stop-color:#D8D9DD"/>
			<stop  offset="1" style="stop-color:#FFFFFF"/>
		</linearGradient>
		<path class="st5" d="M315.1,107.8c0-5.2-2.9-9.8-7.1-12.2c1.7-2.3,2.6-5.1,2.6-8.1c0-6.1-4-11.3-9.5-13.2c0-0.2,0-0.4,0-0.7
			c0-10.9-7.7-20-18-22.1c0-0.2,0-0.3,0-0.5c0-7.7-6.3-14-14-14c-1.2,0-2.4,0.2-3.5,0.5c-3.8-7.2-11.3-12-20-12
			c-3.4,0-6.6,0.8-9.5,2.1c-4.1-4.8-10.3-7.9-17.1-7.9c-7.9,0-14.8,4-18.9,10.2c-3.7-2.7-8.4-4.4-13.3-4.4
			c-11.1,0-20.4,8.1-22.3,18.7c-1.6-0.4-3.3-0.6-5-0.6c-12.5,0-22.6,10.1-22.6,22.6c0,1.8,0.2,3.6,0.6,5.3
			c-5.2,4.1-8.5,10.5-8.5,17.7c0,6.5,2.7,12.3,7.1,16.4c-3.2,2.6-5.2,6.5-5.2,10.8c0,7.2,5.4,13.1,12.4,13.9
			c0.1,0.2,0.2,0.4,0.2,0.6c-1.2,2.1-1.9,4.5-1.9,7c0,7.5,5.9,13.6,13.3,13.9c2.3,4.6,7,7.8,12.5,7.8c3.9,0,7.4-1.6,10-4.2
			c-0.2,2.8,0.9,5.6,3.3,7.5c1.4,1.1,3.1,1.7,4.8,1.8c-0.4,0.3-0.7,0.6-1,1c-1.8,2.3-1.4,5.7,0.9,7.5c0.1,0.1,0.1,0.1,0.2,0.2
			c-0.3,0.2-0.5,0.4-0.8,0.7c-1,1.3-0.9,3.2,0.3,4.4c-0.9,0.1-1.8,0.5-2.4,1.3c-1.1,1.4-0.9,3.5,0.6,4.6c1.4,1.1,3.5,0.9,4.6-0.6
			c0.3-0.4,0.5-0.9,0.6-1.4c1.4,0.7,3.1,0.3,4.1-0.9c0.6-0.7,0.8-1.6,0.7-2.4c1.8,0.2,3.7-0.5,4.9-2c1.5-1.9,1.5-4.5,0.1-6.4
			c2-0.4,3.9-1.4,5.3-3.2c2.6-3.4,2.3-8-0.4-11.1c2.8-0.2,5.3-1.2,7.4-2.8c3.6,2.4,7.9,3.8,12.5,3.8c5.4,0,10.3-1.9,14.1-5
			c1.5,2.2,3.6,3.9,6.1,4.9c0.4,4,3.5,7.1,7.4,7.7c-0.1,0.4-0.1,0.7-0.1,1.1c0,2.5,1.7,4.6,4,5.2c0,0.2,0,0.3,0,0.5
			c0,1.8,0.9,3.3,2.2,4.3c-0.3,1-0.2,2.2,0.5,3.1c1.1,1.4,3,1.6,4.4,0.7c0.1,0.9,0.5,1.7,1.3,2.3c1.4,1.1,3.5,0.9,4.6-0.6
			c1.1-1.4,0.9-3.5-0.6-4.6c-0.2-0.2-0.4-0.3-0.7-0.4c0.3-0.2,0.5-0.4,0.8-0.7c1.1-1.4,0.9-3.5-0.6-4.6c-0.3-0.3-0.7-0.5-1.1-0.6
			c1.5-0.9,2.5-2.6,2.5-4.5c0-1.4-0.5-2.6-1.3-3.5c1.6-1.6,2.5-3.7,2.5-6.1c0-0.5-0.1-1-0.1-1.5h0.1c4.1,0,7.8-1.8,10.3-4.6
			c1.8,0.5,3.7,0.7,5.7,0.7c12.5,0,22.6-10.1,22.6-22.6c0-2.7-0.5-5.3-1.4-7.7C311.6,118.6,315.1,113.6,315.1,107.8z"/>
		
			<linearGradient id="SVGID_6_" gradientUnits="userSpaceOnUse" x1="124.1" y1="301.75" x2="320.1264" y2="301.75" gradientTransform="matrix(1 0 0 -1 0 404)">
			<stop  offset="0" style="stop-color:#D57D2F"/>
			<stop  offset="0.2727" style="stop-color:#C52337"/>
			<stop  offset="0.6743" style="stop-color:#8E5199"/>
			<stop  offset="1" style="stop-color:#6590CA"/>
		</linearGradient>
		<path class="st6" d="M219.1,19.7c6.9,0,13,3.1,17.1,7.9c2.9-1.3,6.1-2.1,9.5-2.1c8.7,0,16.2,4.9,20,12c1.1-0.3,2.3-0.5,3.5-0.5
			c7.7,0,14,6.3,14,14c0,0.2,0,0.3,0,0.5c10.3,2.1,18,11.2,18,22.1c0,0.2,0,0.4,0,0.7c5.5,1.9,9.5,7.1,9.5,13.2c0,3-1,5.8-2.6,8.1
			c4.3,2.4,7.1,6.9,7.1,12.2c0,5.8-3.6,10.8-8.6,12.9c0.9,2.4,1.4,5,1.4,7.7c0,12.5-10.1,22.6-22.6,22.6c-2,0-3.9-0.3-5.7-0.7
			c-2.6,2.8-6.2,4.6-10.3,4.6h-0.1c0.1,0.5,0.1,1,0.1,1.5c0,2.4-1,4.5-2.5,6.1c0.8,0.9,1.3,2.2,1.3,3.5c0,1.9-1,3.6-2.5,4.5
			c0.4,0.1,0.8,0.3,1.1,0.6c1.4,1.1,1.7,3.2,0.6,4.6c-0.2,0.3-0.5,0.5-0.8,0.7c0.2,0.1,0.5,0.2,0.7,0.4c1.4,1.1,1.7,3.2,0.6,4.6
			c-0.6,0.8-1.6,1.3-2.6,1.3c-0.7,0-1.4-0.2-2-0.7c-0.7-0.6-1.2-1.4-1.3-2.3c-0.6,0.4-1.2,0.6-1.8,0.6c-1,0-1.9-0.4-2.6-1.2
			c-0.7-0.9-0.9-2.1-0.5-3.1c-1.3-1-2.2-2.5-2.2-4.3c0-0.2,0-0.3,0-0.5c-2.3-0.6-4-2.7-4-5.2c0-0.4,0-0.7,0.1-1.1
			c-3.9-0.5-7-3.7-7.4-7.7c-2.5-1-4.6-2.8-6.1-4.9c-3.9,3.1-8.8,5-14.1,5c-4.6,0-8.9-1.4-12.5-3.8c-2.1,1.6-4.6,2.6-7.4,2.8
			c2.8,3,3,7.7,0.4,11.1c-1.4,1.7-3.3,2.8-5.3,3.2c1.4,1.9,1.4,4.5-0.1,6.4c-1.1,1.4-2.6,2.1-4.2,2.1c-0.2,0-0.4,0-0.7,0
			c0.1,0.8-0.1,1.7-0.7,2.4c-0.6,0.8-1.6,1.3-2.6,1.3c-0.5,0-1-0.1-1.5-0.3c-0.1,0.5-0.3,1-0.6,1.4c-0.6,0.8-1.6,1.3-2.6,1.3
			c-0.7,0-1.4-0.2-2-0.7c-1.4-1.1-1.7-3.2-0.6-4.6c0.6-0.8,1.5-1.2,2.4-1.3c-1.2-1.2-1.3-3-0.3-4.4c0.2-0.3,0.5-0.5,0.8-0.7
			c-0.1-0.1-0.1-0.1-0.2-0.2c-2.3-1.8-2.7-5.2-0.9-7.5c0.3-0.4,0.7-0.7,1-1c-1.7-0.1-3.4-0.7-4.8-1.8c-2.4-1.8-3.5-4.7-3.3-7.5
			c-2.5,2.6-6.1,4.2-10,4.2c-5.5,0-10.2-3.2-12.5-7.8c-7.4-0.3-13.3-6.4-13.3-13.9c0-2.6,0.7-5,1.9-7c-0.1-0.2-0.2-0.4-0.2-0.6
			c-7-0.8-12.4-6.7-12.4-13.9c0-4.4,2-8.3,5.2-10.8c-4.3-4.1-7.1-9.9-7.1-16.4c0-7.2,3.3-13.5,8.5-17.7c-0.4-1.7-0.6-3.5-0.6-5.3
			c0-12.5,10.1-22.6,22.6-22.6c1.7,0,3.4,0.2,5,0.6c1.8-10.6,11.1-18.7,22.3-18.7c5,0,9.6,1.6,13.3,4.4
			C204.3,23.7,211.2,19.7,219.1,19.7 M219.1,14.7c-7.7,0-14.9,3.2-20,8.6c-3.8-1.9-7.9-2.8-12.2-2.8c-11.8,0-22.1,7.4-25.9,18.2
			c-0.4,0-0.9,0-1.3,0C144.4,38.6,132,51,132,66.2c0,1.1,0.1,2.3,0.2,3.4c-5.2,5.2-8.1,12.1-8.1,19.5c0,6,1.9,11.6,5.3,16.3
			c-2.2,3.2-3.5,6.9-3.5,10.9c0,7.6,4.5,14.3,11.2,17.3c-0.3,1.4-0.5,2.8-0.5,4.2c0,9.2,6.5,16.9,15.3,18.6
			c3.5,5.1,9.3,8.1,15.6,8.1c2.4,0,4.8-0.5,7-1.3c0.8,1.4,1.9,2.6,3.2,3.6c0.3,0.2,0.5,0.4,0.8,0.6c-0.1,0.9-0.2,1.9,0,2.8
			c0.2,1.2,0.5,2.4,1.1,3.5c-0.2,0.8-0.3,1.6-0.3,2.4c-0.1,0.1-0.2,0.3-0.3,0.4c-1.4,1.7-2,3.9-1.7,6.1c0.3,2.2,1.4,4.2,3.1,5.5
			c1.4,1.1,3.3,1.7,5.1,1.7c2.2,0,4.3-0.9,5.8-2.4c2.1-0.3,4.1-1.4,5.4-3.1c0.2-0.3,0.5-0.6,0.7-1c1.9-0.6,3.6-1.8,4.9-3.5
			c1.5-1.9,2.2-4.3,2.2-6.6c1.2-0.8,2.3-1.8,3.2-3c2.5-3.2,3.3-7.2,2.6-10.9c0.1-0.1,0.3-0.1,0.4-0.2c3.8,1.9,8.1,2.9,12.4,2.9
			c4.7,0,9.3-1.2,13.4-3.5c0.8,0.7,1.6,1.3,2.5,1.8c1.2,3.5,3.7,6.4,7,8c0.6,2.4,2.1,4.5,4.1,5.9c0.3,1.2,0.9,2.4,1.7,3.4
			c0.2,1.5,0.8,3,1.8,4.3c1.4,1.8,3.5,2.9,5.7,3.1c0.2,0.3,0.5,0.5,0.8,0.7c1.4,1.1,3.3,1.7,5.1,1.7c2.6,0,5-1.2,6.6-3.2
			c2-2.5,2.2-5.9,1-8.6c0.5-1.9,0.3-3.9-0.5-5.7c0.6-1.3,0.9-2.7,0.9-4.2c0-1.1-0.2-2.1-0.5-3.1c0.6-1.1,1.1-2.3,1.4-3.6
			c2.6-0.7,5.1-1.9,7.2-3.6c1.4,0.2,2.8,0.3,4.2,0.3c15.2,0,27.6-12.4,27.6-27.6c0-1.8-0.2-3.6-0.5-5.3c4.8-3.5,7.8-9.2,7.8-15.3
			c0-5.2-2.1-10.1-5.7-13.6c0.8-2.1,1.2-4.4,1.2-6.7c0-6.9-3.7-13.2-9.6-16.5c-1-10.6-8.2-19.8-18.2-23.4
			c-1.6-8.8-9.4-15.6-18.7-15.6c-0.3,0-0.7,0-1,0c-5.1-7.2-13.5-11.6-22.5-11.6c-2.8,0-5.6,0.4-8.2,1.3
			C232.5,17.2,225.9,14.7,219.1,14.7L219.1,14.7z"/>
	</g>
	
		<linearGradient id="SVGID_7_" gradientUnits="userSpaceOnUse" x1="102.6026" y1="-183.7195" x2="264.5653" y2="-183.7195" gradientTransform="matrix(0.9374 -0.3483 -0.3483 -0.9374 -15.7556 -15.1378)">
		<stop  offset="0" style="stop-color:#D57D2F"/>
		<stop  offset="0.2727" style="stop-color:#C52337"/>
		<stop  offset="0.6743" style="stop-color:#8E5199"/>
		<stop  offset="1" style="stop-color:#6590CA"/>
	</linearGradient>
	<path class="st7" d="M300.8,88c-0.3,0.1-0.6,0.3-0.9,0.5l-18.1-19.6c1.5-1.6,2.1-4,1.3-6.2c-1.1-3.1-4.6-4.6-7.6-3.5
		c-0.6,0.2-1.2,0.6-1.7,1L257.7,43c0.8-1,1.2-2.4,0.7-3.7c-0.7-1.9-2.8-2.9-4.7-2.2c-1.4,0.5-2.3,1.8-2.4,3.2l-21,0.8
		c-0.1-0.5-0.2-1-0.3-1.5c-1.1-3.1-4.6-4.6-7.6-3.5c-3.1,1.1-4.6,4.6-3.5,7.6c0.1,0.2,0.1,0.3,0.2,0.5l-25.9,14.4
		c-0.9-1.3-2.7-1.9-4.3-1.3c-1.5,0.6-2.4,2.1-2.4,3.6l-19.5,3c-0.1-0.3-0.1-0.5-0.2-0.8c-1.1-3.1-4.6-4.6-7.6-3.5
		c-3.1,1.1-4.6,4.6-3.5,7.6c0.8,2.1,2.7,3.5,4.8,3.8l-4.3,16.3l-15.5-2.7c0-0.5,0-1-0.2-1.5c-0.7-1.9-2.8-2.9-4.7-2.2
		c-1.9,0.7-2.9,2.8-2.2,4.7c0.7,1.8,2.5,2.7,4.3,2.3l8,21.6c-2.8,1.3-4.2,4.5-3.1,7.5c1.1,3.1,4.6,4.6,7.6,3.5c1.7-0.6,3-2,3.6-3.7
		l18.7,5c-0.1,0.6-0.1,1.2,0.2,1.9c0.7,1.8,2.5,2.7,4.3,2.3l8.2,22.1c-2.8,1.3-4.2,4.5-3.1,7.5c1.1,3.1,4.6,4.6,7.6,3.5
		c3.1-1.1,4.6-4.6,3.5-7.6c-0.3-0.8-0.8-1.5-1.3-2.1l13.7-15.5l14.4,5.4c-0.2,0.7-0.2,1.5,0.1,2.2c0.7,1.9,2.8,2.9,4.7,2.2
		c1.7-0.6,2.6-2.3,2.4-4l27-6.9c0.7,1.9,2.8,2.9,4.7,2.2c1.9-0.7,2.9-2.8,2.2-4.7c-0.5-1.3-1.6-2.1-2.9-2.3l0.6-14.4
		c0.6,0,1.3-0.1,1.9-0.4c2.1-0.8,3.5-2.7,3.8-4.7L285,110c0,0.4,0.1,0.8,0.2,1.2c0.7,1.9,2.8,2.9,4.7,2.2c1.9-0.7,2.9-2.8,2.2-4.7
		c-0.2-0.6-0.6-1-1-1.4l9.3-12.5c0.9,0.5,2.1,0.7,3.1,0.3c1.9-0.7,2.9-2.8,2.2-4.7C304.8,88.3,302.7,87.3,300.8,88z M264.1,105.2
		c-0.6-1.3-1.5-2.2-2.7-2.8l7.3-16.6l29.7,5.5c0,0.4,0,0.8,0.1,1.2L264.1,105.2z M224.2,136.7l1.4-23c0.2,0,0.4-0.1,0.7-0.2
		c1.1-0.4,1.9-1.4,2.3-2.5l24.3-2.5c0.1,0.4,0.2,0.7,0.3,1.1c0.3,0.8,0.7,1.4,1.2,2L226,137.5C225.5,137.1,224.9,136.8,224.2,136.7z
		 M166.9,66.9l20.6,3.8l-3.1,13.6L166,68.7C166.4,68.2,166.7,67.6,166.9,66.9z M188.3,70.9l9.8,1.8l5.5,7.8l-4.7,9
		c-1.4-0.6-3-0.7-4.5-0.1c-0.9,0.3-1.6,0.8-2.2,1.5l-7.1-6L188.3,70.9z M191.4,64.2c0.2-0.1,0.3-0.2,0.5-0.2l5.5,7.8l-9-1.7l1.3-5.7
		C190.3,64.5,190.9,64.5,191.4,64.2z M221.9,47.2c1.2,0.5,2.6,0.7,4,0.3L236.3,77c-0.7,0.3-1.3,0.9-1.7,1.6L208,73.7L221.9,47.2z
		 M253.8,44.1c0.3,0.1,0.6,0.2,0.9,0.2l1.6,28.4l-15.2,5.9c-0.4-0.7-0.9-1.2-1.5-1.6L253.8,44.1z M272.2,67.3
		c0.2,0.4,0.4,0.7,0.6,1.1l-15.2,13.1l-0.5-8.3L272.2,67.3z M201.3,98.4c1.1-1.6,1.5-3.6,0.8-5.6c-0.5-1.3-1.4-2.3-2.5-3l4.5-8.6
		l18.5,26.1c-0.4,0.3-0.7,0.7-0.9,1.1L201.3,98.4z M236.7,83.8c0.8,0.3,1.6,0.3,2.5,0c1.4-0.5,2.2-1.7,2.4-3.1l14,2.6l-28,24.1
		c-0.2-0.2-0.5-0.4-0.7-0.5L236.7,83.8z M228,108l28.5-24.6l0.4,0.1l1,18.2c-0.5,0.1-0.9,0.2-1.4,0.3c-2.5,0.9-4,3.3-3.9,5.8
		l-24.1,2.5c0-0.5,0-1-0.2-1.5C228.3,108.5,228.2,108.2,228,108z M260.7,102c-0.6-0.2-1.3-0.4-2-0.4l-1-18l10.2,1.9L260.7,102z
		 M257.7,82.9v-0.4L273.3,69c0.4,0.4,0.9,0.8,1.5,1.1l-6.5,14.8L257.7,82.9z M256.8,82.1l-0.6,0.5l-14.7-2.7c0-0.2-0.1-0.4-0.1-0.5
		l14.9-5.9L256.8,82.1z M234.4,79.4c-0.2,0.7-0.2,1.5,0.1,2.3s0.9,1.4,1.5,1.8l-10,23.1c-0.7-0.2-1.6-0.2-2.3,0.1
		c-0.2,0.1-0.3,0.2-0.5,0.2l-18.7-26.4l3.2-6L234.4,79.4z M204,79.7l-4.9-6.9l7.7,1.4L204,79.7z M191.7,91.4c-0.5,0.6-0.8,1.4-1,2.1
		l-7.3-1.3l1.5-6.6L191.7,91.4z M190.6,94.3c-0.1,0.9,0,1.8,0.3,2.7c0.2,0.6,0.5,1.1,0.9,1.6L181,103l2.3-10L190.6,94.3z
		 M192.4,99.2c1.6,1.5,4,2.1,6.2,1.3c0.9-0.3,1.6-0.8,2.2-1.5l20.7,10.2c-0.2,0.6-0.1,1.3,0.1,2L179.8,122c0-0.2-0.1-0.5-0.2-0.7
		c-0.4-1.1-1.3-1.8-2.3-2.2l3.4-15.1L192.4,99.2z M179.8,122.8l42-10.9c0.3,0.5,0.7,1,1.2,1.3l-17.6,19.9l-25.7-9.6
		C179.8,123.2,179.8,123,179.8,122.8z M299.3,89c-0.4,0.4-0.6,0.9-0.8,1.4L269.1,85l6.4-14.6c1.3,0.5,2.7,0.5,4.1,0
		c0.6-0.2,1.2-0.6,1.7-0.9L299.3,89z M273.2,60.7c-1.4,1.5-2,3.8-1.3,5.9l-14.8,5.8l-1.6-28.1c0.2,0,0.5-0.1,0.7-0.2
		c0.3-0.1,0.6-0.3,0.9-0.5L273.2,60.7z M251.3,41.2c0,0.3,0.1,0.5,0.2,0.8c0.3,0.8,0.9,1.5,1.6,1.9l-14.2,33c-0.6-0.2-1.2-0.2-1.8,0
		l-10.4-29.6c2.2-0.9,3.5-3,3.6-5.3L251.3,41.2z M219.4,45c0.5,0.8,1.1,1.4,1.9,1.8l-14,26.8l-8.7-1.6l-5.9-8.4c1.1-1,1.6-2.6,1-4
		c0-0.1-0.1-0.1-0.1-0.2L219.4,45z M186.6,61.7c0,0.1,0,0.2,0.1,0.3c0.4,1.1,1.3,1.8,2.3,2.2l-1.3,5.7l-20.6-3.8
		c0.1-0.5,0.1-1,0.1-1.4L186.6,61.7z M161.2,71.2c0.7,0,1.4-0.1,2.1-0.4c0.9-0.3,1.6-0.8,2.2-1.5l18.8,15.8l-1.6,7l-25.8-4.5
		L161.2,71.2z M156.7,88.3l25.8,4.5l-2.4,10.5l-26,10.6c-0.1-0.3-0.1-0.7-0.3-1c-0.5-1.4-1.6-2.5-2.8-3.2L156.7,88.3z M155.9,88.2
		l-5.6,21.2c-1.2-0.4-2.5-0.5-3.7-0.1l-8-21.6c0.9-0.5,1.6-1.3,1.9-2.3L155.9,88.2z M154.1,116.2c0.1-0.5,0.1-0.9,0.1-1.4l25.7-10.5
		l-3.3,14.6c-0.6-0.1-1.1,0-1.7,0.2c-1,0.4-1.8,1.2-2.1,2.1L154.1,116.2z M191.3,148.9c-1.5-1.1-3.4-1.6-5.3-1l-8.2-22.1
		c0.7-0.4,1.3-0.9,1.6-1.6l25.4,9.5L191.3,148.9z M223.7,113.5c0.3,0.1,0.7,0.2,1.1,0.2l-1.4,22.9c-0.4,0-0.7,0.1-1.1,0.2
		c-0.9,0.3-1.6,1-2,1.8l-14.1-5.3L223.7,113.5z M257.5,127.9c-0.3,0-0.7,0.1-1,0.2c-1.7,0.6-2.6,2.3-2.4,4l-27,6.9
		c-0.1-0.3-0.3-0.6-0.5-0.9l28.3-25.9c0.9,0.7,2,1.2,3.2,1.3L257.5,127.9z M290.3,106.7c-0.9-0.5-2.1-0.7-3.1-0.3
		c-1.3,0.5-2.1,1.6-2.3,2.8l-20.3-1.5c0-0.6-0.1-1.2-0.3-1.8l34.5-12.8c0.2,0.4,0.5,0.8,0.8,1.1L290.3,106.7z"/>
</g>
</svg>
