<?xml version="1.0" encoding="utf-8"?>
<!-- Generator: Adobe Illustrator 22.1.0, SVG Export Plug-In . SVG Version: 6.00 Build 0)  -->
<svg version="1.1" id="Camada_1" xmlns="http://www.w3.org/2000/svg" xmlns:xlink="http://www.w3.org/1999/xlink" x="0px" y="0px"
	 viewBox="0 0 1000 236" style="enable-background:new 0 0 1000 236;" xml:space="preserve">
<style type="text/css">
	.st0{fill:none;}
	.st1{fill:#FFFFFF;}
	.st2{fill:none;stroke:url(#SVGID_1_);stroke-width:3;stroke-linecap:round;stroke-miterlimit:10;stroke-dasharray:0,6;}
	.st3{fill:none;stroke:url(#SVGID_2_);stroke-width:3;stroke-linecap:round;stroke-miterlimit:10;stroke-dasharray:0,6;}
	.st4{fill:none;stroke:url(#SVGID_3_);stroke-width:3;stroke-linecap:round;stroke-miterlimit:10;stroke-dasharray:0,6;}
	.st5{fill:none;stroke:url(#SVGID_4_);stroke-width:3;stroke-linecap:round;stroke-miterlimit:10;stroke-dasharray:0,6;}
	.st6{fill:none;stroke:url(#SVGID_5_);stroke-width:3;stroke-linecap:round;stroke-miterlimit:10;stroke-dasharray:0,6;}
</style>
<rect width="1000" height="236"/>
<g>
	<rect x="52" y="32" class="st0" width="905" height="172"/>
	<path class="st1" d="M70.9,54H58l-2.9,8h-2.5l10.8-28.4h2.3L76.4,62h-2.5L70.9,54z M58.8,52h11.4l-5.7-15.5L58.8,52z"/>
	<path class="st1" d="M82.3,40.9l0.1,3.6c0.8-1.3,1.8-2.3,3-3c1.2-0.7,2.5-1,3.9-1c2.3,0,4,0.6,5.1,1.9c1.1,1.3,1.7,3.2,1.7,5.7V62
		h-2.3V48.1c0-1.9-0.4-3.3-1.2-4.2c-0.8-0.9-2-1.4-3.8-1.4c-1.4,0-2.7,0.5-3.8,1.4s-1.9,2.1-2.5,3.7V62H80V40.9H82.3z"/>
	<path class="st1" d="M108.7,58.6l6.2-17.8h2.5l-9,24.7l-0.5,1.1c-1.2,2.6-2.9,3.8-5.4,3.8c-0.6,0-1.2-0.1-1.8-0.3l0-1.9l1.2,0.1
		c1.1,0,2.1-0.3,2.8-0.8c0.7-0.6,1.3-1.5,1.8-2.9l1-2.9l-8-21h2.6L108.7,58.6z"/>
	<path class="st1" d="M124.6,35.5v5.4h4.4v1.9h-4.4v14.1c0,1.2,0.2,2,0.6,2.6c0.4,0.6,1.1,0.9,2.1,0.9c0.4,0,1-0.1,1.9-0.2l0.1,1.9
		c-0.6,0.2-1.4,0.3-2.5,0.3c-1.6,0-2.8-0.5-3.5-1.4c-0.7-0.9-1.1-2.3-1.1-4.1V42.8h-3.9v-1.9h3.9v-5.4H124.6z"/>
	<path class="st1" d="M136.2,44.4c0.8-1.3,1.8-2.2,2.9-2.9c1.2-0.7,2.5-1,3.9-1c2.3,0,4,0.6,5.1,1.9c1.1,1.3,1.7,3.2,1.7,5.7V62
		h-2.3V48.1c0-1.9-0.4-3.3-1.2-4.2c-0.8-0.9-2-1.4-3.8-1.4c-1.4,0-2.7,0.5-3.8,1.4s-1.9,2.1-2.5,3.7V62h-2.3V32h2.3V44.4z"/>
	<path class="st1" d="M155.7,34.8c0-0.4,0.1-0.8,0.4-1.1c0.3-0.3,0.7-0.5,1.2-0.5c0.5,0,0.9,0.2,1.2,0.5s0.4,0.7,0.4,1.1
		s-0.1,0.8-0.4,1.1s-0.7,0.4-1.2,0.4c-0.5,0-0.9-0.1-1.2-0.4C155.8,35.6,155.7,35.2,155.7,34.8z M158.4,62h-2.3V40.9h2.3V62z"/>
	<path class="st1" d="M167,40.9l0.1,3.6c0.8-1.3,1.8-2.3,3-3c1.2-0.7,2.5-1,3.9-1c2.3,0,4,0.6,5.1,1.9c1.1,1.3,1.7,3.2,1.7,5.7V62
		h-2.3V48.1c0-1.9-0.4-3.3-1.2-4.2c-0.8-0.9-2-1.4-3.8-1.4c-1.4,0-2.7,0.5-3.8,1.4s-1.9,2.1-2.5,3.7V62h-2.3V40.9H167z"/>
	<path class="st1" d="M185.8,51.2c0-3.3,0.7-5.9,2.2-7.9s3.5-2.9,6-2.9c2.9,0,5.1,1.1,6.6,3.4l0.1-3h2.2v20.7c0,2.7-0.8,4.9-2.3,6.5
		s-3.6,2.4-6.2,2.4c-1.5,0-2.9-0.3-4.2-1c-1.3-0.7-2.4-1.5-3.2-2.6l1.3-1.4c1.7,2,3.6,3,5.9,3c2,0,3.5-0.6,4.6-1.7s1.7-2.8,1.7-4.8
		v-2.7c-1.5,2.1-3.7,3.1-6.5,3.1c-2.4,0-4.4-1-5.9-2.9s-2.2-4.6-2.2-7.9V51.2z M188.2,51.6c0,2.7,0.5,4.8,1.6,6.4
		c1.1,1.6,2.6,2.3,4.6,2.3c2.9,0,4.9-1.3,6.1-3.9v-9.8c-0.5-1.4-1.3-2.4-2.4-3.1c-1-0.7-2.3-1.1-3.7-1.1c-2,0-3.5,0.8-4.6,2.3
		S188.2,48.6,188.2,51.6z"/>
	<path class="st1" d="M222.3,35.5v5.4h4.4v1.9h-4.4v14.1c0,1.2,0.2,2,0.6,2.6c0.4,0.6,1.1,0.9,2.1,0.9c0.4,0,1-0.1,1.9-0.2l0.1,1.9
		c-0.6,0.2-1.4,0.3-2.5,0.3c-1.6,0-2.8-0.5-3.5-1.4c-0.7-0.9-1.1-2.3-1.1-4.1V42.8h-3.9v-1.9h3.9v-5.4H222.3z"/>
	<path class="st1" d="M233.8,44.4c0.8-1.3,1.8-2.2,2.9-2.9c1.2-0.7,2.5-1,3.9-1c2.3,0,4,0.6,5.1,1.9c1.1,1.3,1.7,3.2,1.7,5.7V62
		h-2.3V48.1c0-1.9-0.4-3.3-1.2-4.2c-0.8-0.9-2-1.4-3.8-1.4c-1.4,0-2.7,0.5-3.8,1.4s-1.9,2.1-2.5,3.7V62h-2.3V32h2.3V44.4z"/>
	<path class="st1" d="M266.8,62c-0.2-0.7-0.4-1.6-0.4-2.9c-0.8,1.1-1.9,1.9-3.1,2.5s-2.6,0.9-4,0.9c-2,0-3.7-0.6-4.9-1.7
		c-1.3-1.1-1.9-2.6-1.9-4.3c0-2.1,0.9-3.7,2.6-4.9c1.7-1.2,4.1-1.8,7.2-1.8h4.2v-2.4c0-1.5-0.5-2.7-1.4-3.6
		c-0.9-0.9-2.3-1.3-4.1-1.3c-1.6,0-3,0.4-4,1.3c-1.1,0.8-1.6,1.8-1.6,3l-2.3,0c0-1.7,0.8-3.1,2.3-4.4s3.5-1.8,5.8-1.8
		c2.4,0,4.2,0.6,5.6,1.8c1.4,1.2,2.1,2.8,2.1,4.9v10c0,2,0.2,3.6,0.6,4.6V62H266.8z M259.5,60.3c1.6,0,3-0.4,4.2-1.1s2.1-1.8,2.7-3
		v-4.6h-4.2c-2.3,0-4.2,0.5-5.5,1.3c-1.3,0.8-2,2-2,3.4c0,1.2,0.4,2.2,1.3,2.9S258.1,60.3,259.5,60.3z"/>
	<path class="st1" d="M278.5,35.5v5.4h4.4v1.9h-4.4v14.1c0,1.2,0.2,2,0.6,2.6c0.4,0.6,1.1,0.9,2.1,0.9c0.4,0,1-0.1,1.9-0.2l0.1,1.9
		c-0.6,0.2-1.4,0.3-2.5,0.3c-1.6,0-2.8-0.5-3.5-1.4c-0.7-0.9-1.1-2.3-1.1-4.1V42.8h-3.9v-1.9h3.9v-5.4H278.5z"/>
	<path class="st1" d="M301.1,35.5v5.4h4.4v1.9h-4.4v14.1c0,1.2,0.2,2,0.6,2.6c0.4,0.6,1.1,0.9,2.1,0.9c0.4,0,1-0.1,1.9-0.2l0.1,1.9
		c-0.6,0.2-1.4,0.3-2.5,0.3c-1.6,0-2.8-0.5-3.5-1.4c-0.7-0.9-1.1-2.3-1.1-4.1V42.8h-3.9v-1.9h3.9v-5.4H301.1z"/>
	<path class="st1" d="M323.7,62c-0.2-0.7-0.4-1.6-0.4-2.9c-0.8,1.1-1.9,1.9-3.1,2.5s-2.6,0.9-4,0.9c-2,0-3.7-0.6-4.9-1.7
		c-1.3-1.1-1.9-2.6-1.9-4.3c0-2.1,0.9-3.7,2.6-4.9c1.7-1.2,4.1-1.8,7.2-1.8h4.2v-2.4c0-1.5-0.5-2.7-1.4-3.6
		c-0.9-0.9-2.3-1.3-4.1-1.3c-1.6,0-3,0.4-4,1.3c-1.1,0.8-1.6,1.8-1.6,3l-2.3,0c0-1.7,0.8-3.1,2.3-4.4s3.5-1.8,5.8-1.8
		c2.4,0,4.2,0.6,5.6,1.8c1.4,1.2,2.1,2.8,2.1,4.9v10c0,2,0.2,3.6,0.6,4.6V62H323.7z M316.3,60.3c1.6,0,3-0.4,4.2-1.1s2.1-1.8,2.7-3
		v-4.6H319c-2.3,0-4.2,0.5-5.5,1.3c-1.3,0.8-2,2-2,3.4c0,1.2,0.4,2.2,1.3,2.9S314.9,60.3,316.3,60.3z"/>
	<path class="st1" d="M336.8,51.4l-2.7,2.6V62h-2.3V32h2.3v19.2l2.2-2.4l8.1-7.9h2.9l-9,8.9l9.7,12.2h-2.8L336.8,51.4z"/>
	<path class="st1" d="M359.1,62.4c-1.8,0-3.4-0.4-4.9-1.3c-1.5-0.9-2.6-2.1-3.4-3.7c-0.8-1.6-1.2-3.4-1.2-5.3v-0.8
		c0-2,0.4-3.9,1.2-5.5c0.8-1.6,1.9-2.9,3.3-3.8s2.9-1.4,4.6-1.4c2.6,0,4.6,0.9,6.1,2.6s2.3,4.1,2.3,7.2v1.3H352V52
		c0,2.4,0.7,4.4,2.1,6c1.4,1.6,3.1,2.4,5.2,2.4c1.3,0,2.4-0.2,3.3-0.7s1.8-1.2,2.6-2.2l1.5,1.1C364.9,61.1,362.4,62.4,359.1,62.4z
		 M358.7,42.5c-1.8,0-3.2,0.6-4.4,1.9c-1.2,1.3-1.9,3-2.2,5.2h12.7v-0.3c-0.1-2-0.6-3.7-1.7-5S360.5,42.5,358.7,42.5z"/>
	<path class="st1" d="M384.3,56.6c0-1.2-0.5-2.1-1.4-2.8c-0.9-0.7-2.3-1.3-4.2-1.7s-3.3-0.9-4.4-1.4s-1.8-1.1-2.3-1.9
		c-0.5-0.7-0.8-1.6-0.8-2.7c0-1.7,0.7-3,2.1-4.1c1.4-1.1,3.2-1.6,5.4-1.6c2.4,0,4.2,0.6,5.7,1.7s2.1,2.7,2.1,4.6h-2.3
		c0-1.2-0.5-2.3-1.6-3.1s-2.3-1.2-3.9-1.2c-1.5,0-2.8,0.3-3.7,1c-0.9,0.7-1.4,1.6-1.4,2.7c0,1.1,0.4,1.9,1.2,2.5
		c0.8,0.6,2.2,1.1,4.2,1.6s3.6,1,4.6,1.5c1,0.5,1.8,1.2,2.3,2c0.5,0.8,0.7,1.7,0.7,2.8c0,1.8-0.7,3.2-2.2,4.3
		c-1.4,1.1-3.3,1.6-5.6,1.6c-2.5,0-4.5-0.6-6-1.8c-1.5-1.2-2.3-2.7-2.3-4.5h2.3c0.1,1.4,0.7,2.4,1.7,3.2c1.1,0.8,2.5,1.1,4.2,1.1
		c1.6,0,2.9-0.4,3.9-1.1C383.8,58.6,384.3,57.7,384.3,56.6z"/>
	<path class="st1" d="M409.8,62.4c-1.8,0-3.4-0.4-4.9-1.3c-1.5-0.9-2.6-2.1-3.4-3.7c-0.8-1.6-1.2-3.4-1.2-5.3v-0.8
		c0-2,0.4-3.9,1.2-5.5c0.8-1.6,1.9-2.9,3.3-3.8s2.9-1.4,4.6-1.4c2.6,0,4.6,0.9,6.1,2.6s2.3,4.1,2.3,7.2v1.3h-15.1V52
		c0,2.4,0.7,4.4,2.1,6c1.4,1.6,3.1,2.4,5.2,2.4c1.3,0,2.4-0.2,3.3-0.7s1.8-1.2,2.6-2.2l1.5,1.1C415.5,61.1,413,62.4,409.8,62.4z
		 M409.3,42.5c-1.8,0-3.2,0.6-4.4,1.9c-1.2,1.3-1.9,3-2.2,5.2h12.7v-0.3c-0.1-2-0.6-3.7-1.7-5S411.1,42.5,409.3,42.5z"/>
	<path class="st1" d="M424.5,40.9l0.1,3.6c0.8-1.3,1.8-2.3,3-3c1.2-0.7,2.5-1,3.9-1c2.3,0,4,0.6,5.1,1.9c1.1,1.3,1.7,3.2,1.7,5.7V62
		h-2.3V48.1c0-1.9-0.4-3.3-1.2-4.2c-0.8-0.9-2-1.4-3.8-1.4c-1.4,0-2.7,0.5-3.8,1.4s-1.9,2.1-2.5,3.7V62h-2.3V40.9H424.5z"/>
	<path class="st1" d="M442.9,51.1c0-2,0.4-3.9,1.2-5.5c0.8-1.6,1.9-2.9,3.3-3.8c1.4-0.9,3.1-1.4,4.9-1.4c2.8,0,5.1,1,6.8,3
		c1.7,2,2.6,4.6,2.6,7.8v0.5c0,2-0.4,3.9-1.2,5.5c-0.8,1.6-1.9,2.9-3.3,3.8c-1.4,0.9-3.1,1.3-4.9,1.3c-2.8,0-5.1-1-6.8-3
		c-1.8-2-2.6-4.6-2.6-7.8V51.1z M445.3,51.8c0,2.5,0.7,4.6,2,6.2s3,2.4,5.1,2.4c2.1,0,3.8-0.8,5.1-2.4s2-3.8,2-6.4v-0.4
		c0-1.6-0.3-3.1-0.9-4.4c-0.6-1.3-1.4-2.4-2.5-3.1c-1.1-0.7-2.3-1.1-3.7-1.1c-2.1,0-3.8,0.8-5.1,2.5c-1.3,1.6-2,3.8-2,6.4V51.8z"/>
	<path class="st1" d="M480.2,59.3c-1.4,2-3.7,3.1-6.7,3.1c-2.3,0-4-0.7-5.1-2s-1.8-3.2-1.8-5.8V40.9h2.3v13.5c0,4,1.6,6,4.9,6
		c3.4,0,5.5-1.4,6.4-4.2V40.9h2.3V62h-2.3L480.2,59.3z"/>
	<path class="st1" d="M487.7,51.2c0-3.3,0.7-5.9,2.2-7.9s3.5-2.9,6-2.9c2.9,0,5.1,1.1,6.6,3.4l0.1-3h2.2v20.7c0,2.7-0.8,4.9-2.3,6.5
		s-3.6,2.4-6.2,2.4c-1.5,0-2.9-0.3-4.2-1s-2.4-1.5-3.2-2.6l1.3-1.4c1.7,2,3.6,3,5.9,3c2,0,3.5-0.6,4.6-1.7s1.7-2.8,1.7-4.8v-2.7
		c-1.5,2.1-3.7,3.1-6.5,3.1c-2.4,0-4.4-1-5.9-2.9s-2.2-4.6-2.2-7.9V51.2z M490,51.6c0,2.7,0.5,4.8,1.6,6.4s2.6,2.3,4.6,2.3
		c2.9,0,4.9-1.3,6.1-3.9v-9.8c-0.5-1.4-1.3-2.4-2.4-3.1s-2.3-1.1-3.7-1.1c-2,0-3.5,0.8-4.6,2.3S490,48.6,490,51.6z"/>
	<path class="st1" d="M513.1,44.4c0.8-1.3,1.8-2.2,2.9-2.9s2.5-1,3.9-1c2.3,0,4,0.6,5.1,1.9s1.7,3.2,1.7,5.7V62h-2.3V48.1
		c0-1.9-0.4-3.3-1.2-4.2s-2-1.4-3.8-1.4c-1.4,0-2.7,0.5-3.8,1.4s-1.9,2.1-2.5,3.7V62h-2.3V32h2.3V44.4z"/>
	<path class="st1" d="M559.5,51.6c0,3.3-0.7,5.9-2.2,7.8s-3.4,2.9-5.9,2.9c-2.9,0-5.1-1-6.6-3v10.8h-2.3V40.9h2.2l0.1,3
		c1.5-2.3,3.7-3.4,6.6-3.4c2.5,0,4.5,1,5.9,2.9s2.2,4.6,2.2,8V51.6z M557.1,51.2c0-2.7-0.6-4.8-1.7-6.4s-2.6-2.3-4.6-2.3
		c-1.4,0-2.7,0.3-3.7,1s-1.8,1.7-2.4,3v10.1c0.6,1.2,1.4,2.1,2.4,2.8s2.3,1,3.7,1c2,0,3.5-0.8,4.6-2.4S557.1,54.2,557.1,51.2z"/>
	<path class="st1" d="M567.3,62h-2.3V32h2.3V62z"/>
	<path class="st1" d="M586.9,62c-0.2-0.7-0.4-1.6-0.4-2.9c-0.8,1.1-1.9,1.9-3.1,2.5s-2.6,0.9-4,0.9c-2,0-3.7-0.6-4.9-1.7
		s-1.9-2.6-1.9-4.3c0-2.1,0.9-3.7,2.6-4.9s4.1-1.8,7.2-1.8h4.2v-2.4c0-1.5-0.5-2.7-1.4-3.6s-2.3-1.3-4.1-1.3c-1.6,0-3,0.4-4,1.3
		s-1.6,1.8-1.6,3l-2.3,0c0-1.7,0.8-3.1,2.3-4.4s3.5-1.8,5.8-1.8c2.4,0,4.2,0.6,5.6,1.8s2.1,2.8,2.1,4.9v10c0,2,0.2,3.6,0.6,4.6V62
		H586.9z M579.6,60.3c1.6,0,3-0.4,4.2-1.1s2.1-1.8,2.7-3v-4.6h-4.2c-2.3,0-4.2,0.5-5.5,1.3s-2,2-2,3.4c0,1.2,0.4,2.2,1.3,2.9
		S578.2,60.3,579.6,60.3z"/>
	<path class="st1" d="M602.8,60.4c1.6,0,3-0.5,4.1-1.4s1.7-2.1,1.8-3.6h2.2c-0.1,1.3-0.5,2.5-1.2,3.5s-1.7,1.9-3,2.5s-2.5,0.9-4,0.9
		c-2.8,0-5-1-6.6-2.9s-2.4-4.5-2.4-7.8V51c0-2.1,0.4-3.9,1.1-5.5s1.8-2.8,3.1-3.7s3-1.3,4.8-1.3c2.3,0,4.2,0.7,5.7,2.1
		s2.3,3.2,2.4,5.4h-2.2c-0.1-1.7-0.7-3-1.8-4s-2.5-1.5-4.1-1.5c-2.1,0-3.7,0.8-4.9,2.3s-1.7,3.7-1.7,6.4v0.7c0,2.7,0.6,4.8,1.7,6.3
		S600.7,60.4,602.8,60.4z"/>
	<path class="st1" d="M623.8,62.4c-1.8,0-3.4-0.4-4.9-1.3s-2.6-2.1-3.4-3.7s-1.2-3.4-1.2-5.3v-0.8c0-2,0.4-3.9,1.2-5.5
		s1.9-2.9,3.3-3.8s2.9-1.4,4.6-1.4c2.6,0,4.6,0.9,6.1,2.6s2.3,4.1,2.3,7.2v1.3h-15.1V52c0,2.4,0.7,4.4,2.1,6s3.1,2.4,5.2,2.4
		c1.3,0,2.4-0.2,3.3-0.7s1.8-1.2,2.6-2.2l1.5,1.1C629.6,61.1,627.1,62.4,623.8,62.4z M623.4,42.5c-1.8,0-3.2,0.6-4.4,1.9
		s-1.9,3-2.2,5.2h12.7v-0.3c-0.1-2-0.6-3.7-1.7-5S625.2,42.5,623.4,42.5z"/>
	<path class="st1" d="M645.9,34.8c0-0.4,0.1-0.8,0.4-1.1s0.7-0.5,1.2-0.5s0.9,0.2,1.2,0.5s0.4,0.7,0.4,1.1s-0.1,0.8-0.4,1.1
		s-0.7,0.4-1.2,0.4s-0.9-0.1-1.2-0.4S645.9,35.2,645.9,34.8z M648.6,62h-2.3V40.9h2.3V62z"/>
	<path class="st1" d="M657.2,40.9l0.1,3.6c0.8-1.3,1.8-2.3,3-3s2.5-1,3.9-1c2.3,0,4,0.6,5.1,1.9s1.7,3.2,1.7,5.7V62h-2.3V48.1
		c0-1.9-0.4-3.3-1.2-4.2s-2-1.4-3.8-1.4c-1.4,0-2.7,0.5-3.8,1.4s-1.9,2.1-2.5,3.7V62H655V40.9H657.2z"/>
	<path class="st1" d="M703.7,51.6c0,3.3-0.7,5.9-2.2,7.8s-3.4,2.9-5.9,2.9c-2.9,0-5.1-1-6.6-3v10.8h-2.3V40.9h2.2l0.1,3
		c1.5-2.3,3.7-3.4,6.6-3.4c2.5,0,4.5,1,5.9,2.9s2.2,4.6,2.2,8V51.6z M701.3,51.2c0-2.7-0.6-4.8-1.7-6.4s-2.6-2.3-4.6-2.3
		c-1.4,0-2.7,0.3-3.7,1s-1.8,1.7-2.4,3v10.1c0.6,1.2,1.4,2.1,2.4,2.8s2.3,1,3.7,1c2,0,3.5-0.8,4.6-2.4S701.3,54.2,701.3,51.2z"/>
	<path class="st1" d="M717,62.4c-1.8,0-3.4-0.4-4.9-1.3s-2.6-2.1-3.4-3.7s-1.2-3.4-1.2-5.3v-0.8c0-2,0.4-3.9,1.2-5.5
		s1.9-2.9,3.3-3.8s2.9-1.4,4.6-1.4c2.6,0,4.6,0.9,6.1,2.6s2.3,4.1,2.3,7.2v1.3h-15.1V52c0,2.4,0.7,4.4,2.1,6s3.1,2.4,5.2,2.4
		c1.3,0,2.4-0.2,3.3-0.7s1.8-1.2,2.6-2.2l1.5,1.1C722.8,61.1,720.3,62.4,717,62.4z M716.6,42.5c-1.8,0-3.2,0.6-4.4,1.9
		s-1.9,3-2.2,5.2h12.7v-0.3c-0.1-2-0.6-3.7-1.7-5S718.4,42.5,716.6,42.5z"/>
	<path class="st1" d="M728.2,51.1c0-2,0.4-3.9,1.2-5.5s1.9-2.9,3.3-3.8s3.1-1.4,4.9-1.4c2.8,0,5.1,1,6.8,3s2.6,4.6,2.6,7.8v0.5
		c0,2-0.4,3.9-1.2,5.5s-1.9,2.9-3.3,3.8s-3.1,1.3-4.9,1.3c-2.8,0-5.1-1-6.8-3s-2.6-4.6-2.6-7.8V51.1z M730.6,51.8
		c0,2.5,0.7,4.6,2,6.2s3,2.4,5.1,2.4c2.1,0,3.8-0.8,5.1-2.4s2-3.8,2-6.4v-0.4c0-1.6-0.3-3.1-0.9-4.4s-1.4-2.4-2.5-3.1
		s-2.3-1.1-3.7-1.1c-2.1,0-3.8,0.8-5.1,2.5s-2,3.8-2,6.4V51.8z"/>
	<path class="st1" d="M768.9,51.6c0,3.3-0.7,5.9-2.2,7.8s-3.4,2.9-5.9,2.9c-2.9,0-5.1-1-6.6-3v10.8h-2.3V40.9h2.2l0.1,3
		c1.5-2.3,3.7-3.4,6.6-3.4c2.5,0,4.5,1,5.9,2.9s2.2,4.6,2.2,8V51.6z M766.6,51.2c0-2.7-0.6-4.8-1.7-6.4s-2.6-2.3-4.6-2.3
		c-1.4,0-2.7,0.3-3.7,1s-1.8,1.7-2.4,3v10.1c0.6,1.2,1.4,2.1,2.4,2.8s2.3,1,3.7,1c2,0,3.5-0.8,4.6-2.4S766.6,54.2,766.6,51.2z"/>
	<path class="st1" d="M776.7,62h-2.3V32h2.3V62z"/>
	<path class="st1" d="M791.2,62.4c-1.8,0-3.4-0.4-4.9-1.3s-2.6-2.1-3.4-3.7s-1.2-3.4-1.2-5.3v-0.8c0-2,0.4-3.9,1.2-5.5
		s1.9-2.9,3.3-3.8s2.9-1.4,4.6-1.4c2.6,0,4.6,0.9,6.1,2.6s2.3,4.1,2.3,7.2v1.3h-15.1V52c0,2.4,0.7,4.4,2.1,6s3.1,2.4,5.2,2.4
		c1.3,0,2.4-0.2,3.3-0.7s1.8-1.2,2.6-2.2l1.5,1.1C797,61.1,794.5,62.4,791.2,62.4z M790.8,42.5c-1.8,0-3.2,0.6-4.4,1.9
		s-1.9,3-2.2,5.2h12.7v-0.3c-0.1-2-0.6-3.7-1.7-5S792.6,42.5,790.8,42.5z"/>
	<path class="st1" d="M57.7,107h-2.3V77h2.3V107z"/>
	<path class="st1" d="M63.9,79.8c0-0.4,0.1-0.8,0.4-1.1c0.3-0.3,0.7-0.5,1.2-0.5c0.5,0,0.9,0.2,1.2,0.5s0.4,0.7,0.4,1.1
		s-0.1,0.8-0.4,1.1s-0.7,0.4-1.2,0.4c-0.5,0-0.9-0.1-1.2-0.4C64,80.6,63.9,80.2,63.9,79.8z M66.6,107h-2.3V85.9h2.3V107z"/>
	<path class="st1" d="M79.6,103.8L86,85.9h2.4L80.5,107h-1.9l-7.9-21.1h2.4L79.6,103.8z"/>
	<path class="st1" d="M100.1,107.4c-1.8,0-3.4-0.4-4.9-1.3c-1.5-0.9-2.6-2.1-3.4-3.7c-0.8-1.6-1.2-3.4-1.2-5.3v-0.8
		c0-2,0.4-3.9,1.2-5.5c0.8-1.6,1.9-2.9,3.3-3.8s2.9-1.4,4.6-1.4c2.6,0,4.6,0.9,6.1,2.6s2.3,4.1,2.3,7.2v1.3H93V97
		c0,2.4,0.7,4.4,2.1,6c1.4,1.6,3.1,2.4,5.2,2.4c1.3,0,2.4-0.2,3.3-0.7s1.8-1.2,2.6-2.2l1.5,1.1C105.9,106.1,103.4,107.4,100.1,107.4
		z M99.7,87.5c-1.8,0-3.2,0.6-4.4,1.9c-1.2,1.3-1.9,3-2.2,5.2h12.7v-0.3c-0.1-2-0.6-3.7-1.7-5S101.5,87.5,99.7,87.5z"/>
	<path class="st1" d="M125.3,101.6c0-1.2-0.5-2.1-1.4-2.8c-0.9-0.7-2.3-1.3-4.2-1.7s-3.3-0.9-4.4-1.4s-1.8-1.1-2.3-1.9
		c-0.5-0.7-0.8-1.6-0.8-2.7c0-1.7,0.7-3,2.1-4.1c1.4-1.1,3.2-1.6,5.4-1.6c2.4,0,4.2,0.6,5.7,1.7s2.1,2.7,2.1,4.6h-2.3
		c0-1.2-0.5-2.3-1.6-3.1s-2.3-1.2-3.9-1.2c-1.5,0-2.8,0.3-3.7,1c-0.9,0.7-1.4,1.6-1.4,2.7c0,1.1,0.4,1.9,1.2,2.5
		c0.8,0.6,2.2,1.1,4.2,1.6s3.6,1,4.6,1.5c1,0.5,1.8,1.2,2.3,2c0.5,0.8,0.7,1.7,0.7,2.8c0,1.8-0.7,3.2-2.2,4.3
		c-1.4,1.1-3.3,1.6-5.6,1.6c-2.5,0-4.5-0.6-6-1.8c-1.5-1.2-2.3-2.7-2.3-4.5h2.3c0.1,1.4,0.7,2.4,1.7,3.2c1.1,0.8,2.5,1.1,4.2,1.1
		c1.6,0,2.9-0.4,3.9-1.1C124.8,103.6,125.3,102.7,125.3,101.6z"/>
	<path class="st1" d="M150.4,105.4c1.6,0,3-0.5,4.1-1.4c1.1-0.9,1.7-2.1,1.8-3.6h2.2c-0.1,1.3-0.5,2.5-1.2,3.5s-1.7,1.9-3,2.5
		s-2.5,0.9-4,0.9c-2.8,0-5-1-6.6-2.9s-2.4-4.5-2.4-7.8V96c0-2.1,0.4-3.9,1.1-5.5c0.7-1.6,1.8-2.8,3.1-3.7c1.4-0.9,3-1.3,4.8-1.3
		c2.3,0,4.2,0.7,5.7,2.1s2.3,3.2,2.4,5.4h-2.2c-0.1-1.7-0.7-3-1.8-4c-1.1-1-2.5-1.5-4.1-1.5c-2.1,0-3.7,0.8-4.9,2.3
		c-1.2,1.5-1.7,3.7-1.7,6.4v0.7c0,2.7,0.6,4.8,1.7,6.3C146.7,104.7,148.3,105.4,150.4,105.4z"/>
	<path class="st1" d="M176.6,107c-0.2-0.7-0.4-1.6-0.4-2.9c-0.8,1.1-1.9,1.9-3.1,2.5s-2.6,0.9-4,0.9c-2,0-3.7-0.6-4.9-1.7
		c-1.3-1.1-1.9-2.6-1.9-4.3c0-2.1,0.9-3.7,2.6-4.9c1.7-1.2,4.1-1.8,7.2-1.8h4.2v-2.4c0-1.5-0.5-2.7-1.4-3.6
		c-0.9-0.9-2.3-1.3-4.1-1.3c-1.6,0-3,0.4-4,1.3c-1.1,0.8-1.6,1.8-1.6,3l-2.3,0c0-1.7,0.8-3.1,2.3-4.4s3.5-1.8,5.8-1.8
		c2.4,0,4.2,0.6,5.6,1.8c1.4,1.2,2.1,2.8,2.1,4.9v10c0,2,0.2,3.6,0.6,4.6v0.2H176.6z M169.2,105.3c1.6,0,3-0.4,4.2-1.1
		s2.1-1.8,2.7-3v-4.6h-4.2c-2.3,0-4.2,0.5-5.5,1.3c-1.3,0.8-2,2-2,3.4c0,1.2,0.4,2.2,1.3,2.9S167.8,105.3,169.2,105.3z"/>
	<path class="st1" d="M186.9,85.9l0.1,3.6c0.8-1.3,1.8-2.3,3-3c1.2-0.7,2.5-1,3.9-1c2.3,0,4,0.6,5.1,1.9c1.1,1.3,1.7,3.2,1.7,5.7
		V107h-2.3V93.1c0-1.9-0.4-3.3-1.2-4.2c-0.8-0.9-2-1.4-3.8-1.4c-1.4,0-2.7,0.5-3.8,1.4s-1.9,2.1-2.5,3.7V107h-2.3V85.9H186.9z"/>
	<path class="st1" d="M233.3,96.6c0,3.3-0.7,5.9-2.2,7.8c-1.5,1.9-3.4,2.9-5.9,2.9c-2.9,0-5.2-1.1-6.7-3.3l-0.1,2.9h-2.2V77h2.3
		v11.9c1.5-2.3,3.7-3.5,6.6-3.5c2.5,0,4.5,1,5.9,2.9c1.5,1.9,2.2,4.6,2.2,8V96.6z M231,96.2c0-2.8-0.5-4.9-1.6-6.5
		c-1.1-1.5-2.6-2.3-4.6-2.3c-1.5,0-2.8,0.4-3.8,1.1c-1,0.7-1.8,1.8-2.4,3.2v9.5c1.2,2.7,3.2,4,6.2,4c1.9,0,3.4-0.8,4.5-2.3
		C230.5,101.6,231,99.3,231,96.2z"/>
	<path class="st1" d="M246.7,107.4c-1.8,0-3.4-0.4-4.9-1.3c-1.5-0.9-2.6-2.1-3.4-3.7c-0.8-1.6-1.2-3.4-1.2-5.3v-0.8
		c0-2,0.4-3.9,1.2-5.5c0.8-1.6,1.9-2.9,3.3-3.8s2.9-1.4,4.6-1.4c2.6,0,4.6,0.9,6.1,2.6s2.3,4.1,2.3,7.2v1.3h-15.1V97
		c0,2.4,0.7,4.4,2.1,6c1.4,1.6,3.1,2.4,5.2,2.4c1.3,0,2.4-0.2,3.3-0.7s1.8-1.2,2.6-2.2l1.5,1.1C252.4,106.1,250,107.4,246.7,107.4z
		 M246.3,87.5c-1.8,0-3.2,0.6-4.4,1.9c-1.2,1.3-1.9,3-2.2,5.2h12.7v-0.3c-0.1-2-0.6-3.7-1.7-5S248,87.5,246.3,87.5z"/>
	<path class="st1" d="M282.5,104.3c-1.4,2-3.7,3.1-6.7,3.1c-2.3,0-4-0.7-5.1-2s-1.8-3.2-1.8-5.8V85.9h2.3v13.5c0,4,1.6,6,4.9,6
		c3.4,0,5.5-1.4,6.4-4.2V85.9h2.3V107h-2.3L282.5,104.3z"/>
	<path class="st1" d="M303.5,101.6c0-1.2-0.5-2.1-1.4-2.8c-0.9-0.7-2.3-1.3-4.2-1.7s-3.3-0.9-4.4-1.4s-1.8-1.1-2.3-1.9
		c-0.5-0.7-0.8-1.6-0.8-2.7c0-1.7,0.7-3,2.1-4.1c1.4-1.1,3.2-1.6,5.4-1.6c2.4,0,4.2,0.6,5.7,1.7s2.1,2.7,2.1,4.6h-2.3
		c0-1.2-0.5-2.3-1.6-3.1s-2.3-1.2-3.9-1.2c-1.5,0-2.8,0.3-3.7,1c-0.9,0.7-1.4,1.6-1.4,2.7c0,1.1,0.4,1.9,1.2,2.5
		c0.8,0.6,2.2,1.1,4.2,1.6s3.6,1,4.6,1.5c1,0.5,1.8,1.2,2.3,2c0.5,0.8,0.7,1.7,0.7,2.8c0,1.8-0.7,3.2-2.2,4.3
		c-1.4,1.1-3.3,1.6-5.6,1.6c-2.5,0-4.5-0.6-6-1.8c-1.5-1.2-2.3-2.7-2.3-4.5h2.3c0.1,1.4,0.7,2.4,1.7,3.2c1.1,0.8,2.5,1.1,4.2,1.1
		c1.6,0,2.9-0.4,3.9-1.1C303,103.6,303.5,102.7,303.5,101.6z"/>
	<path class="st1" d="M319.3,107.4c-1.8,0-3.4-0.4-4.9-1.3c-1.5-0.9-2.6-2.1-3.4-3.7c-0.8-1.6-1.2-3.4-1.2-5.3v-0.8
		c0-2,0.4-3.9,1.2-5.5c0.8-1.6,1.9-2.9,3.3-3.8s2.9-1.4,4.6-1.4c2.6,0,4.6,0.9,6.1,2.6s2.3,4.1,2.3,7.2v1.3h-15.1V97
		c0,2.4,0.7,4.4,2.1,6c1.4,1.6,3.1,2.4,5.2,2.4c1.3,0,2.4-0.2,3.3-0.7s1.8-1.2,2.6-2.2l1.5,1.1C325.1,106.1,322.6,107.4,319.3,107.4
		z M318.9,87.5c-1.8,0-3.2,0.6-4.4,1.9c-1.2,1.3-1.9,3-2.2,5.2h12.7v-0.3c-0.1-2-0.6-3.7-1.7-5S320.6,87.5,318.9,87.5z"/>
	<path class="st1" d="M330.8,96.2c0-3.3,0.7-5.9,2.2-7.8s3.5-2.9,6-2.9c2.9,0,5,1.1,6.5,3.4V77h2.3v30h-2.2l-0.1-2.8
		c-1.5,2.1-3.7,3.2-6.6,3.2c-2.4,0-4.4-1-5.9-2.9c-1.5-2-2.2-4.6-2.2-7.9V96.2z M333.2,96.6c0,2.7,0.5,4.8,1.6,6.4
		c1.1,1.6,2.6,2.3,4.6,2.3c2.9,0,4.9-1.3,6.1-3.8v-9.9c-1.2-2.7-3.2-4.1-6.1-4.1c-2,0-3.5,0.8-4.6,2.3S333.2,93.6,333.2,96.6z"/>
	<path class="st1" d="M367.4,80.5v5.4h4.4v1.9h-4.4v14.1c0,1.2,0.2,2,0.6,2.6c0.4,0.6,1.1,0.9,2.1,0.9c0.4,0,1-0.1,1.9-0.2l0.1,1.9
		c-0.6,0.2-1.4,0.3-2.5,0.3c-1.6,0-2.8-0.5-3.5-1.4c-0.7-0.9-1.1-2.3-1.1-4.1V87.8h-3.9v-1.9h3.9v-5.4H367.4z"/>
	<path class="st1" d="M374.9,96.1c0-2,0.4-3.9,1.2-5.5c0.8-1.6,1.9-2.9,3.3-3.8c1.4-0.9,3.1-1.4,4.9-1.4c2.8,0,5.1,1,6.8,3
		c1.7,2,2.6,4.6,2.6,7.8v0.5c0,2-0.4,3.9-1.2,5.5c-0.8,1.6-1.9,2.9-3.3,3.8c-1.4,0.9-3.1,1.3-4.9,1.3c-2.8,0-5.1-1-6.8-3
		c-1.8-2-2.6-4.6-2.6-7.8V96.1z M377.3,96.8c0,2.5,0.7,4.6,2,6.2s3,2.4,5.1,2.4c2.1,0,3.8-0.8,5.1-2.4s2-3.8,2-6.4v-0.4
		c0-1.6-0.3-3.1-0.9-4.4c-0.6-1.3-1.4-2.4-2.5-3.1c-1.1-0.7-2.3-1.1-3.7-1.1c-2.1,0-3.8,0.8-5.1,2.5c-1.3,1.6-2,3.8-2,6.4V96.8z"/>
	<path class="st1" d="M416.1,105.4c1.6,0,3-0.5,4.1-1.4c1.1-0.9,1.7-2.1,1.8-3.6h2.2c-0.1,1.3-0.5,2.5-1.2,3.5s-1.7,1.9-3,2.5
		s-2.5,0.9-4,0.9c-2.8,0-5-1-6.6-2.9s-2.4-4.5-2.4-7.8V96c0-2.1,0.4-3.9,1.1-5.5c0.7-1.6,1.8-2.8,3.1-3.7c1.4-0.9,3-1.3,4.8-1.3
		c2.3,0,4.2,0.7,5.7,2.1s2.3,3.2,2.4,5.4H422c-0.1-1.7-0.7-3-1.8-4c-1.1-1-2.5-1.5-4.1-1.5c-2.1,0-3.7,0.8-4.9,2.3
		c-1.2,1.5-1.7,3.7-1.7,6.4v0.7c0,2.7,0.6,4.8,1.7,6.3C412.4,104.7,414,105.4,416.1,105.4z"/>
	<path class="st1" d="M427.6,96.1c0-2,0.4-3.9,1.2-5.5c0.8-1.6,1.9-2.9,3.3-3.8c1.4-0.9,3.1-1.4,4.9-1.4c2.8,0,5.1,1,6.8,3
		c1.7,2,2.6,4.6,2.6,7.8v0.5c0,2-0.4,3.9-1.2,5.5c-0.8,1.6-1.9,2.9-3.3,3.8c-1.4,0.9-3.1,1.3-4.9,1.3c-2.8,0-5.1-1-6.8-3
		c-1.8-2-2.6-4.6-2.6-7.8V96.1z M430,96.8c0,2.5,0.7,4.6,2,6.2s3,2.4,5.1,2.4c2.1,0,3.8-0.8,5.1-2.4s2-3.8,2-6.4v-0.4
		c0-1.6-0.3-3.1-0.9-4.4c-0.6-1.3-1.4-2.4-2.5-3.1c-1.1-0.7-2.3-1.1-3.7-1.1c-2.1,0-3.8,0.8-5.1,2.5c-1.3,1.6-2,3.8-2,6.4V96.8z"/>
	<path class="st1" d="M453.6,85.9l0.1,3.6c0.8-1.3,1.8-2.3,3-3c1.2-0.7,2.5-1,3.9-1c2.3,0,4,0.6,5.1,1.9c1.1,1.3,1.7,3.2,1.7,5.7
		V107h-2.3V93.1c0-1.9-0.4-3.3-1.2-4.2c-0.8-0.9-2-1.4-3.8-1.4c-1.4,0-2.7,0.5-3.8,1.4s-1.9,2.1-2.5,3.7V107h-2.3V85.9H453.6z"/>
	<path class="st1" d="M475.5,85.9l0.1,3.6c0.8-1.3,1.8-2.3,3-3s2.5-1,3.9-1c2.3,0,4,0.6,5.1,1.9s1.7,3.2,1.7,5.7V107h-2.3V93.1
		c0-1.9-0.4-3.3-1.2-4.2s-2-1.4-3.8-1.4c-1.4,0-2.7,0.5-3.8,1.4s-1.9,2.1-2.5,3.7V107h-2.3V85.9H475.5z"/>
	<path class="st1" d="M503.5,107.4c-1.8,0-3.4-0.4-4.9-1.3s-2.6-2.1-3.4-3.7S494,99,494,97v-0.8c0-2,0.4-3.9,1.2-5.5
		s1.9-2.9,3.3-3.8s2.9-1.4,4.6-1.4c2.6,0,4.6,0.9,6.1,2.6s2.3,4.1,2.3,7.2v1.3h-15.1V97c0,2.4,0.7,4.4,2.1,6s3.1,2.4,5.2,2.4
		c1.3,0,2.4-0.2,3.3-0.7s1.8-1.2,2.6-2.2l1.5,1.1C509.2,106.1,506.7,107.4,503.5,107.4z M503,87.5c-1.8,0-3.2,0.6-4.4,1.9
		s-1.9,3-2.2,5.2h12.7v-0.3c-0.1-2-0.6-3.7-1.7-5S504.8,87.5,503,87.5z"/>
	<path class="st1" d="M523.8,105.4c1.6,0,3-0.5,4.1-1.4s1.7-2.1,1.8-3.6h2.2c-0.1,1.3-0.5,2.5-1.2,3.5s-1.7,1.9-3,2.5
		s-2.5,0.9-4,0.9c-2.8,0-5-1-6.6-2.9s-2.4-4.5-2.4-7.8V96c0-2.1,0.4-3.9,1.1-5.5s1.8-2.8,3.1-3.7s3-1.3,4.8-1.3
		c2.3,0,4.2,0.7,5.7,2.1s2.3,3.2,2.4,5.4h-2.2c-0.1-1.7-0.7-3-1.8-4s-2.5-1.5-4.1-1.5c-2.1,0-3.7,0.8-4.9,2.3s-1.7,3.7-1.7,6.4v0.7
		c0,2.7,0.6,4.8,1.7,6.3S521.6,105.4,523.8,105.4z"/>
	<path class="st1" d="M540.2,80.5v5.4h4.4v1.9h-4.4v14.1c0,1.2,0.2,2,0.6,2.6c0.4,0.6,1.1,0.9,2.1,0.9c0.4,0,1-0.1,1.9-0.2l0.1,1.9
		c-0.6,0.2-1.4,0.3-2.5,0.3c-1.6,0-2.8-0.5-3.5-1.4s-1.1-2.3-1.1-4.1V87.8H534v-1.9h3.9v-5.4H540.2z"/>
	<path class="st1" d="M562.8,80.5v5.4h4.4v1.9h-4.4v14.1c0,1.2,0.2,2,0.6,2.6c0.4,0.6,1.1,0.9,2.1,0.9c0.4,0,1-0.1,1.9-0.2l0.1,1.9
		c-0.6,0.2-1.4,0.3-2.5,0.3c-1.6,0-2.8-0.5-3.5-1.4s-1.1-2.3-1.1-4.1V87.8h-3.9v-1.9h3.9v-5.4H562.8z"/>
	<path class="st1" d="M574.3,89.4c0.8-1.3,1.8-2.2,2.9-2.9s2.5-1,3.9-1c2.3,0,4,0.6,5.1,1.9s1.7,3.2,1.7,5.7V107h-2.3V93.1
		c0-1.9-0.4-3.3-1.2-4.2s-2-1.4-3.8-1.4c-1.4,0-2.7,0.5-3.8,1.4s-1.9,2.1-2.5,3.7V107H572V77h2.3V89.4z"/>
	<path class="st1" d="M602.1,107.4c-1.8,0-3.4-0.4-4.9-1.3s-2.6-2.1-3.4-3.7s-1.2-3.4-1.2-5.3v-0.8c0-2,0.4-3.9,1.2-5.5
		s1.9-2.9,3.3-3.8s2.9-1.4,4.6-1.4c2.6,0,4.6,0.9,6.1,2.6s2.3,4.1,2.3,7.2v1.3H595V97c0,2.4,0.7,4.4,2.1,6s3.1,2.4,5.2,2.4
		c1.3,0,2.4-0.2,3.3-0.7s1.8-1.2,2.6-2.2l1.5,1.1C607.9,106.1,605.4,107.4,602.1,107.4z M601.7,87.5c-1.8,0-3.2,0.6-4.4,1.9
		s-1.9,3-2.2,5.2h12.7v-0.3c-0.1-2-0.6-3.7-1.7-5S603.5,87.5,601.7,87.5z"/>
	<path class="st1" d="M616.7,85.9l0.1,3.4c0.8-1.3,1.8-2.2,2.9-2.9s2.5-1,3.9-1c3.3,0,5.4,1.4,6.3,4.1c0.8-1.3,1.8-2.3,3-3
		s2.7-1.1,4.2-1.1c4.5,0,6.8,2.5,6.9,7.4V107h-2.3V93.1c0-1.9-0.4-3.3-1.2-4.2s-2.1-1.4-3.9-1.4c-1.7,0-3.1,0.6-4.3,1.6
		s-1.8,2.4-1.9,3.9v14h-2.3V92.9c0-1.8-0.4-3.2-1.3-4.1s-2.1-1.3-3.9-1.3c-1.5,0-2.7,0.4-3.8,1.3s-1.8,2.1-2.3,3.7V107h-2.3V85.9
		H616.7z"/>
	<path class="st1" d="M649.8,105.6c0-0.5,0.1-0.8,0.4-1.2s0.7-0.5,1.2-0.5s0.9,0.2,1.2,0.5s0.4,0.7,0.4,1.2s-0.1,0.8-0.4,1.1
		s-0.7,0.4-1.2,0.4s-0.9-0.1-1.2-0.4S649.8,106,649.8,105.6z"/>
	<path class="st1" d="M74.9,171.6h-9.1V197h-3.7v-25.4H53v-3.1h22V171.6z"/>
	<path class="st1" d="M82.2,178.4c1.6-2,3.7-2.9,6.3-2.9c4.5,0,6.7,2.5,6.8,7.6v14h-3.6v-14c0-1.5-0.4-2.6-1-3.4s-1.7-1.1-3.2-1.1
		c-1.2,0-2.2,0.3-3.1,0.9c-0.9,0.6-1.6,1.4-2.1,2.5V197h-3.6v-30h3.6V178.4z"/>
	<path class="st1" d="M113.7,197c-0.2-0.4-0.4-1.2-0.5-2.2c-1.7,1.7-3.7,2.6-6,2.6c-2.1,0-3.8-0.6-5.1-1.8c-1.3-1.2-2-2.7-2-4.5
		c0-2.2,0.8-3.9,2.5-5.1c1.7-1.2,4-1.8,7.1-1.8h3.5v-1.7c0-1.3-0.4-2.3-1.1-3c-0.8-0.7-1.9-1.1-3.3-1.1c-1.3,0-2.4,0.3-3.2,1
		c-0.9,0.7-1.3,1.4-1.3,2.4h-3.6c0-1.1,0.4-2.1,1.1-3.1c0.7-1,1.8-1.8,3-2.3c1.3-0.6,2.7-0.9,4.2-0.9c2.4,0,4.3,0.6,5.7,1.8
		c1.4,1.2,2.1,2.9,2.1,5v9.7c0,1.9,0.2,3.5,0.7,4.6v0.3H113.7z M107.7,194.2c1.1,0,2.2-0.3,3.2-0.9s1.8-1.3,2.2-2.3v-4.3h-2.8
		c-4.4,0-6.6,1.3-6.6,3.9c0,1.1,0.4,2,1.1,2.7C105.5,193.9,106.5,194.2,107.7,194.2z"/>
	<path class="st1" d="M127.3,170.7v5.1h3.9v2.8h-3.9v13.1c0,0.8,0.2,1.5,0.5,1.9c0.4,0.4,1,0.6,1.8,0.6c0.4,0,1-0.1,1.7-0.2v2.9
		c-1,0.3-1.9,0.4-2.8,0.4c-1.6,0-2.8-0.5-3.7-1.5s-1.2-2.4-1.2-4.2v-13.1h-3.8v-2.8h3.8v-5.1H127.3z"/>
	<path class="st1" d="M137.7,169.2l-0.4,7.2h-2.5l0-9.4h2.9V169.2z"/>
	<path class="st1" d="M153.2,191.4c0-1-0.4-1.7-1.1-2.3c-0.7-0.5-2-1-3.8-1.4c-1.8-0.4-3.3-0.9-4.4-1.4s-1.9-1.2-2.4-2
		c-0.5-0.8-0.8-1.7-0.8-2.7c0-1.7,0.7-3.2,2.2-4.4s3.3-1.8,5.6-1.8c2.4,0,4.3,0.6,5.8,1.9c1.5,1.2,2.2,2.8,2.2,4.7H153
		c0-1-0.4-1.8-1.3-2.6s-1.9-1.1-3.2-1.1c-1.3,0-2.3,0.3-3.1,0.9s-1.1,1.3-1.1,2.2c0,0.9,0.3,1.5,1,2c0.7,0.4,1.9,0.9,3.7,1.3
		c1.8,0.4,3.3,0.9,4.4,1.4c1.1,0.6,1.9,1.2,2.5,2c0.5,0.8,0.8,1.7,0.8,2.9c0,1.9-0.8,3.4-2.3,4.5c-1.5,1.1-3.5,1.7-5.9,1.7
		c-1.7,0-3.2-0.3-4.5-0.9c-1.3-0.6-2.3-1.4-3.1-2.5c-0.7-1.1-1.1-2.2-1.1-3.5h3.6c0.1,1.2,0.5,2.2,1.5,2.9c0.9,0.7,2.1,1.1,3.6,1.1
		c1.4,0,2.5-0.3,3.3-0.8C152.8,193.1,153.2,192.3,153.2,191.4z"/>
	<path class="st1" d="M190.1,192l4.1-16.2h3.6l-6.2,21.1h-2.9l-5.1-16l-5,16h-2.9l-6.1-21.1h3.6l4.2,15.8l4.9-15.8h2.9L190.1,192z"
		/>
	<path class="st1" d="M205.1,178.4c1.6-2,3.7-2.9,6.3-2.9c4.5,0,6.7,2.5,6.8,7.6v14h-3.6v-14c0-1.5-0.4-2.6-1-3.4s-1.7-1.1-3.2-1.1
		c-1.2,0-2.2,0.3-3.1,0.9c-0.9,0.6-1.6,1.4-2.1,2.5V197h-3.6v-30h3.6V178.4z"/>
	<path class="st1" d="M236.5,197c-0.2-0.4-0.4-1.2-0.5-2.2c-1.7,1.7-3.7,2.6-6,2.6c-2.1,0-3.8-0.6-5.1-1.8c-1.3-1.2-2-2.7-2-4.5
		c0-2.2,0.8-3.9,2.5-5.1c1.7-1.2,4-1.8,7.1-1.8h3.5v-1.7c0-1.3-0.4-2.3-1.1-3c-0.8-0.7-1.9-1.1-3.3-1.1c-1.3,0-2.4,0.3-3.2,1
		c-0.9,0.7-1.3,1.4-1.3,2.4h-3.6c0-1.1,0.4-2.1,1.1-3.1c0.7-1,1.8-1.8,3-2.3c1.3-0.6,2.7-0.9,4.2-0.9c2.4,0,4.3,0.6,5.7,1.8
		c1.4,1.2,2.1,2.9,2.1,5v9.7c0,1.9,0.2,3.5,0.7,4.6v0.3H236.5z M230.5,194.2c1.1,0,2.2-0.3,3.2-0.9s1.8-1.3,2.2-2.3v-4.3h-2.8
		c-4.4,0-6.6,1.3-6.6,3.9c0,1.1,0.4,2,1.1,2.7C228.4,193.9,229.4,194.2,230.5,194.2z"/>
	<path class="st1" d="M250.1,170.7v5.1h3.9v2.8h-3.9v13.1c0,0.8,0.2,1.5,0.5,1.9c0.4,0.4,1,0.6,1.8,0.6c0.4,0,1-0.1,1.7-0.2v2.9
		c-1,0.3-1.9,0.4-2.8,0.4c-1.6,0-2.8-0.5-3.7-1.5s-1.2-2.4-1.2-4.2v-13.1h-3.8v-2.8h3.8v-5.1H250.1z"/>
	<path class="st1" d="M286.9,192l4.1-16.2h3.6l-6.2,21.1h-2.9l-5.1-16l-5,16h-2.9l-6.1-21.1h3.6l4.2,15.8l4.9-15.8h2.9L286.9,192z"
		/>
	<path class="st1" d="M307,197.4c-2.9,0-5.2-0.9-7-2.8s-2.7-4.4-2.7-7.5v-0.7c0-2.1,0.4-4,1.2-5.6s1.9-2.9,3.4-3.9
		c1.4-0.9,3-1.4,4.7-1.4c2.7,0,4.9,0.9,6.4,2.7s2.3,4.4,2.3,7.8v1.5H301c0.1,2.1,0.7,3.8,1.8,5c1.2,1.3,2.6,1.9,4.4,1.9
		c1.3,0,2.4-0.3,3.2-0.8c0.9-0.5,1.7-1.2,2.3-2.1l2.2,1.7C313.2,196,310.6,197.4,307,197.4z M306.6,178.4c-1.5,0-2.7,0.5-3.7,1.6
		c-1,1.1-1.6,2.5-1.8,4.5h10.6v-0.3c-0.1-1.8-0.6-3.3-1.5-4.3C309.3,179,308.1,178.4,306.6,178.4z"/>
	<path class="st1" d="M321.4,169.2l-0.4,7.2h-2.5l0-9.4h2.9V169.2z"/>
	<path class="st1" d="M336.4,179.1c-0.5-0.1-1.1-0.1-1.8-0.1c-2.4,0-4,1-4.8,3v15h-3.6v-21.1h3.5l0.1,2.4c1.2-1.9,2.9-2.8,5-2.8
		c0.7,0,1.2,0.1,1.6,0.3V179.1z"/>
	<path class="st1" d="M348.1,197.4c-2.9,0-5.2-0.9-7-2.8s-2.7-4.4-2.7-7.5v-0.7c0-2.1,0.4-4,1.2-5.6s1.9-2.9,3.4-3.9
		c1.4-0.9,3-1.4,4.7-1.4c2.7,0,4.9,0.9,6.4,2.7s2.3,4.4,2.3,7.8v1.5H342c0.1,2.1,0.7,3.8,1.8,5c1.2,1.3,2.6,1.9,4.4,1.9
		c1.3,0,2.4-0.3,3.2-0.8c0.9-0.5,1.7-1.2,2.3-2.1l2.2,1.7C354.3,196,351.6,197.4,348.1,197.4z M347.6,178.4c-1.5,0-2.7,0.5-3.7,1.6
		c-1,1.1-1.6,2.5-1.8,4.5h10.6v-0.3c-0.1-1.8-0.6-3.3-1.5-4.3C350.4,179,349.2,178.4,347.6,178.4z"/>
	<path class="st1" d="M369.6,186.3c0-3.3,0.8-5.9,2.3-7.9s3.5-2.9,6.1-2.9c2.6,0,4.6,0.9,6,2.7l0.2-2.3h3.3v20.6
		c0,2.7-0.8,4.9-2.4,6.5s-3.8,2.4-6.5,2.4c-1.5,0-3-0.3-4.5-1c-1.5-0.7-2.6-1.5-3.3-2.7l1.9-2.2c1.5,1.9,3.4,2.9,5.7,2.9
		c1.8,0,3.1-0.5,4.1-1.5c1-1,1.5-2.4,1.5-4.2v-1.8c-1.4,1.7-3.4,2.5-5.9,2.5c-2.5,0-4.5-1-6-3C370.3,192.4,369.6,189.7,369.6,186.3z
		 M373.2,186.7c0,2.4,0.5,4.3,1.5,5.6s2.3,2,4.1,2c2.3,0,4-1,5-3.1v-9.6c-1.1-2-2.8-3-5-3c-1.8,0-3.1,0.7-4.1,2.1
		C373.7,182,373.2,184,373.2,186.7z"/>
	<path class="st1" d="M391.9,186.2c0-2.1,0.4-3.9,1.2-5.6c0.8-1.7,1.9-2.9,3.4-3.8c1.5-0.9,3.1-1.3,5-1.3c2.9,0,5.2,1,7,3
		s2.7,4.6,2.7,7.9v0.3c0,2.1-0.4,3.9-1.2,5.5c-0.8,1.6-1.9,2.9-3.4,3.8s-3.1,1.4-5,1.4c-2.9,0-5.2-1-7-3s-2.7-4.6-2.7-7.9V186.2z
		 M395.5,186.7c0,2.3,0.5,4.2,1.6,5.6c1.1,1.4,2.5,2.1,4.4,2.1c1.8,0,3.3-0.7,4.4-2.2c1.1-1.4,1.6-3.5,1.6-6c0-2.3-0.6-4.2-1.7-5.6
		c-1.1-1.4-2.6-2.2-4.4-2.2c-1.8,0-3.2,0.7-4.3,2.1S395.5,184,395.5,186.7z"/>
	<path class="st1" d="M415.7,170.3c0-0.6,0.2-1.1,0.5-1.5c0.4-0.4,0.9-0.6,1.6-0.6s1.2,0.2,1.6,0.6c0.4,0.4,0.5,0.9,0.5,1.5
		s-0.2,1.1-0.5,1.5c-0.4,0.4-0.9,0.6-1.6,0.6s-1.2-0.2-1.6-0.6C415.9,171.3,415.7,170.8,415.7,170.3z M419.6,197H416v-21.1h3.6V197z
		"/>
	<path class="st1" d="M428.8,175.9l0.1,2.7c1.6-2,3.7-3,6.3-3c4.5,0,6.7,2.5,6.8,7.6v14h-3.6v-14c0-1.5-0.4-2.6-1-3.4
		s-1.7-1.1-3.2-1.1c-1.2,0-2.2,0.3-3.1,0.9c-0.9,0.6-1.6,1.4-2.1,2.5V197h-3.6v-21.1H428.8z"/>
	<path class="st1" d="M446.6,186.3c0-3.3,0.8-5.9,2.3-7.9s3.5-2.9,6.1-2.9c2.6,0,4.6,0.9,6,2.7l0.2-2.3h3.3v20.6
		c0,2.7-0.8,4.9-2.4,6.5s-3.8,2.4-6.5,2.4c-1.5,0-3-0.3-4.5-1c-1.5-0.7-2.6-1.5-3.3-2.7l1.9-2.2c1.5,1.9,3.4,2.9,5.7,2.9
		c1.8,0,3.1-0.5,4.1-1.5c1-1,1.5-2.4,1.5-4.2v-1.8c-1.4,1.7-3.4,2.5-5.9,2.5c-2.5,0-4.5-1-6-3C447.4,192.4,446.6,189.7,446.6,186.3z
		 M450.2,186.7c0,2.4,0.5,4.3,1.5,5.6s2.3,2,4.1,2c2.3,0,4-1,5-3.1v-9.6c-1.1-2-2.8-3-5-3c-1.8,0-3.1,0.7-4.1,2.1
		C450.7,182,450.2,184,450.2,186.7z"/>
	<path class="st1" d="M484.7,170.7v5.1h3.9v2.8h-3.9v13.1c0,0.8,0.2,1.5,0.5,1.9c0.4,0.4,1,0.6,1.8,0.6c0.4,0,1-0.1,1.7-0.2v2.9
		c-1,0.3-1.9,0.4-2.8,0.4c-1.6,0-2.8-0.5-3.7-1.5s-1.2-2.4-1.2-4.2v-13.1h-3.8v-2.8h3.8v-5.1H484.7z"/>
	<path class="st1" d="M491.5,186.2c0-2.1,0.4-3.9,1.2-5.6s1.9-2.9,3.4-3.8s3.1-1.3,5-1.3c2.9,0,5.2,1,7,3s2.7,4.6,2.7,7.9v0.3
		c0,2.1-0.4,3.9-1.2,5.5s-1.9,2.9-3.4,3.8s-3.1,1.4-5,1.4c-2.9,0-5.2-1-7-3s-2.7-4.6-2.7-7.9V186.2z M495.1,186.7
		c0,2.3,0.5,4.2,1.6,5.6s2.5,2.1,4.4,2.1c1.8,0,3.3-0.7,4.4-2.2s1.6-3.5,1.6-6c0-2.3-0.5-4.2-1.7-5.6s-2.6-2.2-4.4-2.2
		c-1.8,0-3.2,0.7-4.3,2.1S495.1,184,495.1,186.7z"/>
	<path class="st1" d="M524.3,186.3c0-3.2,0.8-5.8,2.3-7.8s3.5-3,6-3c2.5,0,4.4,0.8,5.9,2.5v-11h3.6v30h-3.3l-0.2-2.3
		c-1.4,1.8-3.5,2.7-6,2.7c-2.4,0-4.4-1-6-3s-2.3-4.6-2.3-7.9V186.3z M527.9,186.7c0,2.4,0.5,4.3,1.5,5.6s2.4,2,4.1,2
		c2.3,0,4-1,5-3.1v-9.7c-1.1-2-2.7-3-5-3c-1.8,0-3.2,0.7-4.1,2.1S527.9,184,527.9,186.7z"/>
	<path class="st1" d="M546.8,186.2c0-2.1,0.4-3.9,1.2-5.6s1.9-2.9,3.4-3.8s3.1-1.3,5-1.3c2.9,0,5.2,1,7,3s2.7,4.6,2.7,7.9v0.3
		c0,2.1-0.4,3.9-1.2,5.5s-1.9,2.9-3.4,3.8s-3.1,1.4-5,1.4c-2.9,0-5.2-1-7-3s-2.7-4.6-2.7-7.9V186.2z M550.4,186.7
		c0,2.3,0.5,4.2,1.6,5.6s2.5,2.1,4.4,2.1c1.8,0,3.3-0.7,4.4-2.2s1.6-3.5,1.6-6c0-2.3-0.5-4.2-1.7-5.6s-2.6-2.2-4.4-2.2
		c-1.8,0-3.2,0.7-4.3,2.1S550.4,184,550.4,186.7z"/>
	<path class="st1" d="M599.2,192l4.1-16.2h3.6l-6.2,21.1h-2.9l-5.1-16l-5,16h-2.9l-6.1-21.1h3.6l4.2,15.8l4.9-15.8h2.9L599.2,192z"
		/>
	<path class="st1" d="M610.5,170.3c0-0.6,0.2-1.1,0.5-1.5s0.9-0.6,1.6-0.6s1.2,0.2,1.6,0.6s0.5,0.9,0.5,1.5s-0.2,1.1-0.5,1.5
		s-0.9,0.6-1.6,0.6s-1.2-0.2-1.6-0.6S610.5,170.8,610.5,170.3z M614.4,197h-3.6v-21.1h3.6V197z"/>
	<path class="st1" d="M625.1,170.7v5.1h3.9v2.8h-3.9v13.1c0,0.8,0.2,1.5,0.5,1.9c0.4,0.4,1,0.6,1.8,0.6c0.4,0,1-0.1,1.7-0.2v2.9
		c-1,0.3-1.9,0.4-2.8,0.4c-1.6,0-2.8-0.5-3.7-1.5s-1.2-2.4-1.2-4.2v-13.1h-3.8v-2.8h3.8v-5.1H625.1z"/>
	<path class="st1" d="M636.9,178.4c1.6-2,3.7-2.9,6.3-2.9c4.5,0,6.7,2.5,6.8,7.6v14h-3.6v-14c0-1.5-0.4-2.6-1-3.4s-1.7-1.1-3.2-1.1
		c-1.2,0-2.2,0.3-3.1,0.9s-1.6,1.4-2.1,2.5V197h-3.6v-30h3.6V178.4z"/>
	<path class="st1" d="M672.2,192.1l5.2-16.2h3.7l-7.6,21.1h-2.8l-7.7-21.1h3.7L672.2,192.1z"/>
	<path class="st1" d="M684.6,170.3c0-0.6,0.2-1.1,0.5-1.5s0.9-0.6,1.6-0.6s1.2,0.2,1.6,0.6s0.5,0.9,0.5,1.5s-0.2,1.1-0.5,1.5
		s-0.9,0.6-1.6,0.6s-1.2-0.2-1.6-0.6S684.6,170.8,684.6,170.3z M688.5,197h-3.6v-21.1h3.6V197z"/>
	<path class="st1" d="M693.4,186.3c0-3.2,0.8-5.8,2.3-7.8s3.5-3,6-3c2.5,0,4.4,0.8,5.9,2.5v-11h3.6v30h-3.3l-0.2-2.3
		c-1.4,1.8-3.5,2.7-6,2.7c-2.4,0-4.4-1-6-3s-2.3-4.6-2.3-7.9V186.3z M697,186.7c0,2.4,0.5,4.3,1.5,5.6s2.4,2,4.1,2c2.3,0,4-1,5-3.1
		v-9.7c-1.1-2-2.7-3-5-3c-1.8,0-3.2,0.7-4.1,2.1S697,184,697,186.7z"/>
	<path class="st1" d="M725.6,197.4c-2.9,0-5.2-0.9-7-2.8s-2.7-4.4-2.7-7.5v-0.7c0-2.1,0.4-4,1.2-5.6s1.9-2.9,3.4-3.9s3-1.4,4.7-1.4
		c2.7,0,4.9,0.9,6.4,2.7s2.3,4.4,2.3,7.8v1.5h-14.3c0.1,2.1,0.7,3.8,1.8,5s2.6,1.9,4.4,1.9c1.3,0,2.4-0.3,3.2-0.8s1.7-1.2,2.3-2.1
		l2.2,1.7C731.8,196,729.2,197.4,725.6,197.4z M725.2,178.4c-1.5,0-2.7,0.5-3.7,1.6s-1.6,2.5-1.8,4.5h10.6v-0.3
		c-0.1-1.8-0.6-3.3-1.5-4.3S726.7,178.4,725.2,178.4z"/>
	<path class="st1" d="M737.1,186.2c0-2.1,0.4-3.9,1.2-5.6s1.9-2.9,3.4-3.8s3.1-1.3,5-1.3c2.9,0,5.2,1,7,3s2.7,4.6,2.7,7.9v0.3
		c0,2.1-0.4,3.9-1.2,5.5s-1.9,2.9-3.4,3.8s-3.1,1.4-5,1.4c-2.9,0-5.2-1-7-3s-2.7-4.6-2.7-7.9V186.2z M740.7,186.7
		c0,2.3,0.5,4.2,1.6,5.6s2.5,2.1,4.4,2.1c1.8,0,3.3-0.7,4.4-2.2s1.6-3.5,1.6-6c0-2.3-0.5-4.2-1.7-5.6s-2.6-2.2-4.4-2.2
		c-1.8,0-3.2,0.7-4.3,2.1S740.7,184,740.7,186.7z"/>
	<path class="st1" d="M760,186.3c0-3.3,0.8-5.9,2.3-7.9s3.5-2.9,6.1-2.9c2.6,0,4.6,0.9,6,2.7l0.2-2.3h3.3v20.6
		c0,2.7-0.8,4.9-2.4,6.5s-3.8,2.4-6.5,2.4c-1.5,0-3-0.3-4.5-1s-2.6-1.5-3.3-2.7l1.9-2.2c1.5,1.9,3.4,2.9,5.7,2.9
		c1.8,0,3.1-0.5,4.1-1.5s1.5-2.4,1.5-4.2v-1.8c-1.4,1.7-3.4,2.5-5.9,2.5c-2.5,0-4.5-1-6-3S760,189.7,760,186.3z M763.6,186.7
		c0,2.4,0.5,4.3,1.5,5.6s2.3,2,4.1,2c2.3,0,4-1,5-3.1v-9.6c-1.1-2-2.8-3-5-3c-1.8,0-3.1,0.7-4.1,2.1S763.6,184,763.6,186.7z"/>
	<path class="st1" d="M796.4,197c-0.2-0.4-0.4-1.2-0.5-2.2c-1.7,1.7-3.7,2.6-6,2.6c-2.1,0-3.8-0.6-5.1-1.8s-2-2.7-2-4.5
		c0-2.2,0.8-3.9,2.5-5.1s4-1.8,7.1-1.8h3.5v-1.7c0-1.3-0.4-2.3-1.1-3s-1.9-1.1-3.3-1.1c-1.3,0-2.4,0.3-3.2,1s-1.3,1.4-1.3,2.4h-3.6
		c0-1.1,0.4-2.1,1.1-3.1s1.8-1.8,3-2.3s2.7-0.9,4.2-0.9c2.4,0,4.3,0.6,5.7,1.8s2.1,2.9,2.1,5v9.7c0,1.9,0.2,3.5,0.7,4.6v0.3H796.4z
		 M790.4,194.2c1.1,0,2.2-0.3,3.2-0.9s1.8-1.3,2.2-2.3v-4.3H793c-4.4,0-6.6,1.3-6.6,3.9c0,1.1,0.4,2,1.1,2.7
		S789.2,194.2,790.4,194.2z"/>
	<path class="st1" d="M808.5,175.9l0.1,2.3c1.5-1.8,3.6-2.7,6.3-2.7c3,0,5,1.1,6,3.4c0.7-1,1.6-1.8,2.7-2.5s2.5-0.9,4-0.9
		c4.6,0,7,2.5,7.1,7.4V197h-3.6v-13.9c0-1.5-0.3-2.6-1-3.4s-1.8-1.1-3.5-1.1c-1.3,0-2.5,0.4-3.3,1.2s-1.4,1.9-1.5,3.2v14H818v-13.8
		c0-3.1-1.5-4.6-4.5-4.6c-2.4,0-4,1-4.9,3V197H805v-21.1H808.5z"/>
	<path class="st1" d="M848.9,197.4c-2.9,0-5.2-0.9-7-2.8s-2.7-4.4-2.7-7.5v-0.7c0-2.1,0.4-4,1.2-5.6s1.9-2.9,3.4-3.9s3-1.4,4.7-1.4
		c2.7,0,4.9,0.9,6.4,2.7s2.3,4.4,2.3,7.8v1.5h-14.3c0.1,2.1,0.7,3.8,1.8,5s2.6,1.9,4.4,1.9c1.3,0,2.4-0.3,3.2-0.8s1.7-1.2,2.3-2.1
		l2.2,1.7C855.1,196,852.4,197.4,848.9,197.4z M848.4,178.4c-1.5,0-2.7,0.5-3.7,1.6s-1.6,2.5-1.8,4.5h10.6v-0.3
		c-0.1-1.8-0.6-3.3-1.5-4.3S850,178.4,848.4,178.4z"/>
	<path class="st1" d="M873.6,191.4c0-1-0.4-1.7-1.1-2.3s-2-1-3.8-1.4s-3.3-0.9-4.4-1.4s-1.9-1.2-2.4-2s-0.8-1.7-0.8-2.7
		c0-1.7,0.7-3.2,2.2-4.4s3.3-1.8,5.6-1.8c2.4,0,4.3,0.6,5.8,1.9s2.2,2.8,2.2,4.7h-3.6c0-1-0.4-1.8-1.3-2.6s-1.9-1.1-3.2-1.1
		c-1.3,0-2.3,0.3-3.1,0.9s-1.1,1.3-1.1,2.2c0,0.9,0.3,1.5,1,2s1.9,0.9,3.7,1.3s3.3,0.9,4.4,1.4s2,1.2,2.5,2s0.8,1.7,0.8,2.9
		c0,1.9-0.8,3.4-2.3,4.5s-3.5,1.7-5.9,1.7c-1.7,0-3.2-0.3-4.5-0.9s-2.3-1.4-3.1-2.5s-1.1-2.2-1.1-3.5h3.6c0.1,1.2,0.5,2.2,1.5,2.9
		s2.1,1.1,3.6,1.1c1.4,0,2.5-0.3,3.3-0.8S873.6,192.3,873.6,191.4z"/>
	<path class="st1" d="M882,195.1c0-0.6,0.2-1.1,0.6-1.6s0.9-0.6,1.7-0.6s1.3,0.2,1.7,0.6s0.6,0.9,0.6,1.6c0,0.6-0.2,1.1-0.6,1.5
		s-0.9,0.6-1.7,0.6s-1.3-0.2-1.7-0.6S882,195.7,882,195.1z"/>
</g>
<linearGradient id="SVGID_1_" gradientUnits="userSpaceOnUse" x1="610.8333" y1="120.6667" x2="754.5" y2="120.6667">
	<stop  offset="0" style="stop-color:#D57D2F"/>
	<stop  offset="0.2727" style="stop-color:#C52337"/>
	<stop  offset="0.6743" style="stop-color:#8E5199"/>
	<stop  offset="1" style="stop-color:#6590CA"/>
</linearGradient>
<path class="st2" d="M753,75v49.3c0,11.6-9.4,21-21,21h-98.7c-11.6,0-21,9.4-21,21v0"/>
<linearGradient id="SVGID_2_" gradientUnits="userSpaceOnUse" x1="656.1667" y1="150.5" x2="936.1667" y2="150.5">
	<stop  offset="0" style="stop-color:#D57D2F"/>
	<stop  offset="0.2727" style="stop-color:#C52337"/>
	<stop  offset="0.6743" style="stop-color:#8E5199"/>
	<stop  offset="1" style="stop-color:#6590CA"/>
</linearGradient>
<path class="st3" d="M657.7,105.7H890c24.7,0,44.7,20,44.7,44.7v0.3c0,24.7-20,44.7-44.7,44.7h0"/>
<linearGradient id="SVGID_3_" gradientUnits="userSpaceOnUse" x1="55" y1="138.5" x2="418.5" y2="138.5">
	<stop  offset="0" style="stop-color:#D57D2F"/>
	<stop  offset="0.2727" style="stop-color:#C52337"/>
	<stop  offset="0.6743" style="stop-color:#8E5199"/>
	<stop  offset="1" style="stop-color:#6590CA"/>
</linearGradient>
<path class="st4" d="M56.5,111.5L56.5,111.5c0,9.7,7.8,17.5,17.5,17.5h325.5c9.7,0,17.5,7.8,17.5,17.5v19"/>
<linearGradient id="SVGID_4_" gradientUnits="userSpaceOnUse" x1="201.5" y1="136.75" x2="454" y2="136.75">
	<stop  offset="0" style="stop-color:#D57D2F"/>
	<stop  offset="0.2727" style="stop-color:#C52337"/>
	<stop  offset="0.6743" style="stop-color:#8E5199"/>
	<stop  offset="1" style="stop-color:#6590CA"/>
</linearGradient>
<path class="st5" d="M452.5,109.5V139c0,6.4-5.1,11.5-11.5,11.5H214.5c-6.4,0-11.5,5.1-11.5,11.5v2"/>
<linearGradient id="SVGID_5_" gradientUnits="userSpaceOnUse" x1="653" y1="34.3333" x2="653" y2="34.3333">
	<stop  offset="0" style="stop-color:#D57D2F"/>
	<stop  offset="0.2727" style="stop-color:#C52337"/>
	<stop  offset="0.6743" style="stop-color:#8E5199"/>
	<stop  offset="1" style="stop-color:#6590CA"/>
</linearGradient>
<path class="st6" d="M653,34.3"/>
<g>
</g>
<g>
</g>
<g>
</g>
<g>
</g>
<g>
</g>
<g>
</g>
</svg>
