<svg id="Camada_1" data-name="Camada 1" xmlns="http://www.w3.org/2000/svg" xmlns:xlink="http://www.w3.org/1999/xlink" viewBox="0 0 2013.65 2521.89"><defs><style>.cls-1,.cls-13,.cls-14,.cls-143,.cls-147,.cls-148,.cls-15,.cls-21,.cls-3,.cls-4,.cls-7{fill:none;}.cls-2{fill:url(#Gradiente_sem_nome_16);}.cls-3{stroke:#fff;stroke-width:4px;}.cls-143,.cls-147,.cls-148,.cls-21,.cls-3,.cls-4{stroke-miterlimit:10;}.cls-13,.cls-14,.cls-143,.cls-147,.cls-148,.cls-15,.cls-4,.cls-7{stroke-width:20px;}.cls-4{stroke:url(#linear-gradient);}.cls-5{fill:url(#linear-gradient-2);}.cls-6{fill:url(#linear-gradient-3);}.cls-13,.cls-14,.cls-15,.cls-7{stroke-linejoin:round;}.cls-7{stroke:url(#linear-gradient-4);}.cls-8{fill:url(#linear-gradient-5);}.cls-9{fill:#fff;}.cls-10{fill:#222;}.cls-11{fill:#444242;}.cls-12{fill:#5b5b5f;}.cls-13,.cls-14,.cls-143,.cls-147,.cls-148,.cls-15,.cls-21{stroke-linecap:round;}.cls-13{stroke:url(#linear-gradient-6);}.cls-14{stroke:url(#linear-gradient-7);}.cls-15{stroke:url(#linear-gradient-8);}.cls-16{fill:#c2c3c9;}.cls-17{fill:url(#linear-gradient-9);}.cls-18{fill:#d8d9dd;}.cls-19{fill:url(#linear-gradient-10);}.cls-20{fill:url(#linear-gradient-11);}.cls-21{stroke:#c2c3c9;stroke-width:12px;}.cls-22{clip-path:url(#clip-path);}.cls-23{fill:#00a0ff;}.cls-24{fill:#00a1ff;}.cls-25{fill:#00a2ff;}.cls-26{fill:#00a3ff;}.cls-27{fill:#00a4ff;}.cls-28{fill:#00a5ff;}.cls-29{fill:#00a6ff;}.cls-30{fill:#00a7ff;}.cls-31{fill:#00a8ff;}.cls-32{fill:#00a9ff;}.cls-33{fill:#0af;}.cls-34{fill:#00abff;}.cls-35{fill:#00acff;}.cls-36{fill:#00adff;}.cls-37{fill:#00aeff;}.cls-38{fill:#00b0ff;}.cls-39{fill:#00b1ff;}.cls-40{fill:#00b2ff;}.cls-41{fill:#00b3ff;}.cls-42{fill:#00b4ff;}.cls-43{fill:#00b5ff;}.cls-44{fill:#00b6ff;}.cls-45{fill:#00b7ff;}.cls-46{fill:#00b8ff;}.cls-47{fill:#00b9ff;}.cls-48{fill:#00baff;}.cls-49{fill:#0bf;}.cls-50{fill:#00bcff;}.cls-51{fill:#00bdff;}.cls-52{fill:#00beff;}.cls-53{fill:#00bfff;}.cls-54{fill:#00c0ff;}.cls-55{fill:#00c1ff;}.cls-56{fill:#00c2ff;}.cls-57{fill:#00c3ff;}.cls-58{fill:#00c4ff;}.cls-59{fill:#00c5ff;}.cls-60{fill:#00c6ff;}.cls-61{fill:#00c7ff;}.cls-62{fill:#00c9ff;}.cls-63{fill:#00caff;}.cls-64{fill:#00cbff;}.cls-65{fill:#0cf;}.cls-66{fill:#00cdff;}.cls-67{fill:#00ceff;}.cls-68{fill:#00cfff;}.cls-69{fill:#00d0ff;}.cls-70{fill:#00d1ff;}.cls-71{fill:#00d2ff;}.cls-72{fill:#00d3ff;}.cls-73{fill:#00d4ff;}.cls-74{fill:#00d5ff;}.cls-75{fill:#00d6ff;}.cls-76{fill:#00d7ff;}.cls-77{fill:#00d9ff;}.cls-78{fill:#00daff;}.cls-79{fill:#00dbff;}.cls-80{fill:#00dcff;}.cls-81{fill:#0df;}.cls-82{fill:#00deff;}.cls-83{fill:#00dfff;}.cls-84{fill:#00e0ff;}.cls-85{fill:#00e2ff;}.cls-86{fill:#00e3ff;}.cls-87{clip-path:url(#clip-path-2);}.cls-88{fill:#ffdf00;}.cls-89{fill:#ffde00;}.cls-90{fill:#fd0;}.cls-91{fill:#ffdc00;}.cls-92{fill:#ffdb00;}.cls-93{fill:#ffda00;}.cls-94{fill:#ffd900;}.cls-95{fill:#ffd800;}.cls-96{fill:gold;}.cls-97{fill:#ffd600;}.cls-98{fill:#ffd500;}.cls-99{fill:#ffd400;}.cls-100{fill:#ffd300;}.cls-101{fill:#ffd200;}.cls-102{fill:#ffd100;}.cls-103{fill:#ffd000;}.cls-104{fill:#ffcf00;}.cls-105{fill:#ffcd00;}.cls-106{fill:#fc0;}.cls-107{fill:#ffcb00;}.cls-108{fill:#ffca00;}.cls-109{fill:#ffc900;}.cls-110{fill:#ffc800;}.cls-111{fill:#ffc700;}.cls-112{fill:#ffc600;}.cls-113{fill:#ffc500;}.cls-114{fill:#ffc400;}.cls-115{fill:#ffc300;}.cls-116{fill:#ffc200;}.cls-117{fill:#ffc100;}.cls-118{fill:#ffc000;}.cls-119{fill:#ffbf00;}.cls-120{fill:#ffbe00;}.cls-121{fill:#ffbd00;}.cls-122{fill:#ffbc00;}.cls-123{fill:#fb0;}.cls-124{clip-path:url(#clip-path-3);}.cls-125{fill:#ff3a44;}.cls-126{fill:#fe3945;}.cls-127{fill:#fd3945;}.cls-128{fill:#fc3846;}.cls-129{fill:#fb3746;}.cls-130{fill:#fa3747;}.cls-131{fill:#f93647;}.cls-132{fill:#f83548;}.cls-133{fill:#f73448;}.cls-134{fill:#f63449;}.cls-135{fill:#f53349;}.cls-136{fill:#f4324a;}.cls-137{fill:#f3324a;}.cls-138{fill:#f2314b;}.cls-139{fill:#f1304b;}.cls-140{fill:#f0304c;}.cls-141{clip-path:url(#clip-path-4);}.cls-142{fill:#00f076;}.cls-143,.cls-147,.cls-148{stroke-dasharray:0 50;}.cls-143{stroke:url(#Gradiente_sem_nome_33);}.cls-144{fill:#002e82;}.cls-145{fill:#70a83b;}.cls-146{opacity:0.8;fill:url(#Gradiente_sem_nome_100);}.cls-147{stroke:url(#Gradiente_sem_nome_102);}.cls-148{stroke:url(#Gradiente_sem_nome_103);}</style><linearGradient id="Gradiente_sem_nome_16" x1="309.22" y1="323.96" x2="575.67" y2="170.12" gradientUnits="userSpaceOnUse"><stop offset="0" stop-color="#eadf84"/><stop offset="0.07" stop-color="#eadc7b"/><stop offset="0.18" stop-color="#ead362"/><stop offset="0.33" stop-color="#eac639"/><stop offset="0.5" stop-color="#eab201"/><stop offset="0.5" stop-color="#eab200"/><stop offset="1" stop-color="#d67600"/></linearGradient><linearGradient id="linear-gradient" x1="316.31" y1="448.98" x2="752.73" y2="448.98" gradientUnits="userSpaceOnUse"><stop offset="0" stop-color="#d57d2f"/><stop offset="0.27" stop-color="#c52337"/><stop offset="0.67" stop-color="#8e5199"/><stop offset="1" stop-color="#6590ca"/></linearGradient><linearGradient id="linear-gradient-2" x1="285.96" y1="208.14" x2="366.66" y2="208.14" xlink:href="#linear-gradient"/><linearGradient id="linear-gradient-3" x1="739.6" y1="657.19" x2="811.12" y2="657.19" xlink:href="#linear-gradient"/><linearGradient id="linear-gradient-4" x1="323.74" y1="486.98" x2="743.32" y2="486.98" xlink:href="#linear-gradient"/><linearGradient id="linear-gradient-5" x1="700.46" y1="318.3" x2="779.97" y2="318.3" xlink:href="#linear-gradient"/><linearGradient id="linear-gradient-6" x1="1380.19" y1="1342.21" x2="1715" y2="1342.21" xlink:href="#linear-gradient"/><linearGradient id="linear-gradient-7" x1="1481.42" y1="1377.45" x2="1889.8" y2="1377.45" xlink:href="#linear-gradient"/><linearGradient id="linear-gradient-8" x1="1337.36" y1="1429.81" x2="1465.71" y2="1429.81" xlink:href="#linear-gradient"/><linearGradient id="linear-gradient-9" x1="1445.97" y1="1027.58" x2="1494.25" y2="943.96" xlink:href="#linear-gradient"/><linearGradient id="linear-gradient-10" x1="1434.77" y1="798.18" x2="1584.85" y2="798.18" xlink:href="#linear-gradient"/><linearGradient id="linear-gradient-11" x1="1523.33" y1="922.25" x2="1571.61" y2="838.63" xlink:href="#linear-gradient"/><clipPath id="clip-path" transform="translate(-102.41 -172.38)"><path class="cls-1" d="M1638.41,821.06a3.81,3.81,0,0,0-.91,2.72v42.74a3.81,3.81,0,0,0,.91,2.72l.14.13,24.23-23.94v-.57l-24.23-23.94Z"/></clipPath><clipPath id="clip-path-2" transform="translate(-102.41 -172.38)"><path class="cls-1" d="M1670.85,853.41l-8.07-8v-.57l8.08-8,.18.1,9.56,5.38c2.73,1.53,2.73,4,0,5.58l-9.56,5.37Z"/></clipPath><clipPath id="clip-path-3" transform="translate(-102.41 -172.38)"><path class="cls-1" d="M1671,853.31l-8.26-8.16-24.37,24.09c.91.94,2.38,1,4.07.11l28.56-16"/></clipPath><clipPath id="clip-path-4" transform="translate(-102.41 -172.38)"><path class="cls-1" d="M1671,837l-28.56-16c-1.69-.93-3.16-.82-4.07.12l24.37,24.09Z"/></clipPath><linearGradient id="Gradiente_sem_nome_33" x1="859.86" y1="2304.88" x2="2116.06" y2="2304.88" gradientTransform="matrix(1, 0, 0, -1, 0, 3175.68)" xlink:href="#linear-gradient"/><linearGradient id="Gradiente_sem_nome_100" x1="155.78" y1="2163.21" x2="864.38" y2="2572.32" gradientUnits="userSpaceOnUse"><stop offset="0" stop-color="#d57d2f"/><stop offset="0.33" stop-color="#c51f37"/><stop offset="0.66" stop-color="#8434d5"/><stop offset="1" stop-color="#004aca"/></linearGradient><linearGradient id="Gradiente_sem_nome_102" x1="102.41" y1="1340.87" x2="891.94" y2="1340.87" gradientUnits="userSpaceOnUse"><stop offset="0" stop-color="#6590ca"/><stop offset="0.33" stop-color="#8e5199"/><stop offset="0.73" stop-color="#c52337"/><stop offset="1" stop-color="#d57d2f"/></linearGradient><linearGradient id="Gradiente_sem_nome_103" x1="965.8" y1="2024.9" x2="1961.04" y2="2024.9" xlink:href="#Gradiente_sem_nome_102"/></defs><title>steps</title><rect class="cls-2" x="354.11" y="92.37" width="176.67" height="309.33"/><path class="cls-3" d="M504.75,333.32h-17a8.36,8.36,0,0,1-8.37-8.36V295.22a8.36,8.36,0,0,0-8.36-8.37h-17" transform="translate(-102.41 -172.38)"/><path class="cls-3" d="M586.05,347.85h10.43a8.37,8.37,0,0,1,8.37,8.37v3.25a8.36,8.36,0,0,0,8.36,8.36h16.13" transform="translate(-102.41 -172.38)"/><path class="cls-3" d="M504.75,347.85h-2a8.36,8.36,0,0,1-8.36-8.36V313.55a8.36,8.36,0,0,1,8.36-8.36h6.72a8.36,8.36,0,0,0,8.36-8.36V269" transform="translate(-102.41 -172.38)"/><path class="cls-3" d="M504.75,362.38h-22a8.36,8.36,0,0,0-8.36,8.37v55.33a8.37,8.37,0,0,1-8.37,8.36H454.1" transform="translate(-102.41 -172.38)"/><path class="cls-3" d="M586.05,333.32h22.68A8.36,8.36,0,0,0,617.1,325V311.89a8.39,8.39,0,0,0-2.45-5.91l-42.92-42.92" transform="translate(-102.41 -172.38)"/><path class="cls-3" d="M586.05,362.38h0a8.36,8.36,0,0,1,8.36,8.37v85a8.36,8.36,0,0,0,8.36,8.36H635.6" transform="translate(-102.41 -172.38)"/><path d="M446.88,260.24V587.73a19.81,19.81,0,0,0,19.81,19.82H624.11a19.82,19.82,0,0,0,19.82-19.82V260.24a19.82,19.82,0,0,0-19.82-19.82H466.69A19.82,19.82,0,0,0,446.88,260.24Zm175.41,307.2H468.51a7,7,0,0,1-7.05-7V276.05a7.05,7.05,0,0,1,7.05-7.05H622.29a7.05,7.05,0,0,1,7.05,7.05V560.4A7,7,0,0,1,622.29,567.44Z" transform="translate(-102.41 -172.38)"/><path class="cls-4" d="M326.31,230.77V640.19a17,17,0,0,0,17,17H752.73" transform="translate(-102.41 -172.38)"/><path class="cls-5" d="M286.8,234.6l34.14-59.12a6.19,6.19,0,0,1,10.73,0l34.15,59.12a6.2,6.2,0,0,1-5.37,9.3H292.17A6.2,6.2,0,0,1,286.8,234.6Z" transform="translate(-102.41 -172.38)"/><path class="cls-6" d="M748.9,696.7,808,662.56a6.2,6.2,0,0,0,0-10.74L748.9,617.68a6.2,6.2,0,0,0-9.3,5.37v68.28A6.2,6.2,0,0,0,748.9,696.7Z" transform="translate(-102.41 -172.38)"/><path class="cls-7" d="M330.81,651.71l168.6-168.6a30.42,30.42,0,0,1,21.51-8.91h50.79a30.43,30.43,0,0,0,21.51-8.91l143-143" transform="translate(-102.41 -172.38)"/><path class="cls-8" d="M761.78,353.45l18-67.1a6.2,6.2,0,0,0-7.59-7.59l-67.1,18a6.19,6.19,0,0,0-2.78,10.36l49.13,49.13A6.2,6.2,0,0,0,761.78,353.45Z" transform="translate(-102.41 -172.38)"/><rect x="415.33" y="155.49" width="55.22" height="39.96"/><rect x="402.34" y="155.49" width="13.04" height="3.63"/><rect class="cls-9" x="402.34" y="159.12" width="13.04" height="3.63"/><rect x="402.34" y="162.76" width="13.04" height="3.63"/><rect class="cls-9" x="402.34" y="166.39" width="13.04" height="3.63"/><rect x="402.34" y="170.02" width="13.04" height="3.63"/><rect class="cls-9" x="402.34" y="173.65" width="13.04" height="3.63"/><rect x="402.34" y="177.29" width="13.04" height="3.63"/><rect class="cls-9" x="402.34" y="180.92" width="13.04" height="3.63"/><rect x="402.34" y="184.55" width="13.04" height="3.63"/><rect x="402.34" y="191.82" width="13.04" height="3.63"/><rect class="cls-9" x="402.34" y="188.18" width="13.04" height="3.63"/><rect x="470.6" y="155.49" width="13.04" height="3.63"/><rect class="cls-9" x="470.6" y="159.12" width="13.04" height="3.63"/><rect x="470.6" y="162.76" width="13.04" height="3.63"/><rect class="cls-9" x="470.6" y="166.39" width="13.04" height="3.63"/><rect x="470.6" y="170.02" width="13.04" height="3.63"/><rect class="cls-9" x="470.6" y="173.65" width="13.04" height="3.63"/><rect x="470.6" y="177.29" width="13.04" height="3.63"/><rect class="cls-9" x="470.6" y="180.92" width="13.04" height="3.63"/><rect x="470.6" y="184.55" width="13.04" height="3.63"/><rect x="470.6" y="191.82" width="13.04" height="3.63"/><rect class="cls-9" x="470.6" y="188.18" width="13.04" height="3.63"/><path class="cls-10" d="M942,362.38h-5.86V298.32l-19.34,7.18V300l24.22-9h1Z" transform="translate(-102.41 -172.38)"/><path class="cls-10" d="M970.65,358.87a4.17,4.17,0,0,1,1.1-2.91,4,4,0,0,1,3-1.19,4.05,4.05,0,0,1,3.08,1.19,4.1,4.1,0,0,1,1.12,2.91,3.77,3.77,0,0,1-1.12,2.81,4.23,4.23,0,0,1-3.08,1.09,4.13,4.13,0,0,1-3-1.09A3.83,3.83,0,0,1,970.65,358.87Z" transform="translate(-102.41 -172.38)"/><path class="cls-10" d="M1059.13,342.41h-32.28l-7.32,20h-6.3l26.9-71.09h5.72l26.9,71.09h-6.25Zm-30.42-5.07h28.51L1043,298.61Z" transform="translate(-102.41 -172.38)"/><path class="cls-10" d="M1124.31,336.51q0,12.35-5.46,19.6a17.44,17.44,0,0,1-14.65,7.25q-10.85,0-16.6-7.62v27h-5.81V309.55h5.42l.29,7.47q5.71-8.44,16.55-8.44,9.48,0,14.87,7.17t5.39,19.93Zm-5.85-1q0-10.11-4.16-16a13.38,13.38,0,0,0-11.57-5.86,15.4,15.4,0,0,0-15.13,10.11V349.1a15.56,15.56,0,0,0,6,6.94,17.38,17.38,0,0,0,9.23,2.39,13.26,13.26,0,0,0,11.5-5.88Q1118.46,346.66,1118.46,335.48Z" transform="translate(-102.41 -172.38)"/><path class="cls-10" d="M1179.73,336.51q0,12.35-5.46,19.6a17.44,17.44,0,0,1-14.65,7.25q-10.84,0-16.6-7.62v27h-5.81V309.55h5.41l.3,7.47q5.71-8.44,16.55-8.44,9.48,0,14.87,7.17t5.39,19.93Zm-5.86-1q0-10.11-4.15-16a13.38,13.38,0,0,0-11.57-5.86A15.4,15.4,0,0,0,1143,323.76V349.1a15.56,15.56,0,0,0,6,6.94,17.35,17.35,0,0,0,9.23,2.39,13.26,13.26,0,0,0,11.5-5.88Q1173.88,346.66,1173.87,335.48Z" transform="translate(-102.41 -172.38)"/><path class="cls-10" d="M1218.36,362.38V291.29h19.87a30.92,30.92,0,0,1,15.67,4,27.45,27.45,0,0,1,10.82,11.4,35.9,35.9,0,0,1,3.88,16.9v6.54a35.77,35.77,0,0,1-3.86,16.89,27.42,27.42,0,0,1-10.86,11.38,31.83,31.83,0,0,1-16.09,4Zm6-66v60.94h13.48q11.23,0,18-7.46t6.78-20.15v-6.26q0-12.27-6.68-19.64t-17.63-7.43Z" transform="translate(-102.41 -172.38)"/><path class="cls-10" d="M1302.93,363.36a22.94,22.94,0,0,1-12.18-3.32,22.66,22.66,0,0,1-8.48-9.25,28.84,28.84,0,0,1-3-13.31v-2.1a31.07,31.07,0,0,1,3-13.72,23.41,23.41,0,0,1,8.23-9.59,20.25,20.25,0,0,1,11.42-3.49q9.63,0,15.26,6.56t5.64,17.95v3.27h-37.69v1.12q0,9,5.15,15a16.36,16.36,0,0,0,13,6,19,19,0,0,0,8.28-1.71,18.42,18.42,0,0,0,6.52-5.47l3.66,2.78Q1315.18,363.36,1302.93,363.36Zm-1.08-49.8a14.6,14.6,0,0,0-11.1,4.83q-4.53,4.83-5.5,13h31.69v-.64q-.24-7.61-4.34-12.4A13.48,13.48,0,0,0,1301.85,313.56Z" transform="translate(-102.41 -172.38)"/><path class="cls-10" d="M1350,354.33,1366,309.55h6l-19.73,52.83h-4.73l-19.83-52.83h6Z" transform="translate(-102.41 -172.38)"/><path class="cls-10" d="M1401.41,363.36a23,23,0,0,1-12.18-3.32,22.63,22.63,0,0,1-8.47-9.25,28.85,28.85,0,0,1-3-13.31v-2.1a31.08,31.08,0,0,1,3-13.72,23.46,23.46,0,0,1,8.22-9.59,20.3,20.3,0,0,1,11.43-3.49q9.62,0,15.26,6.56t5.64,17.95v3.27h-37.7v1.12q0,9,5.15,15a16.4,16.4,0,0,0,13,6,19,19,0,0,0,8.27-1.71,18.25,18.25,0,0,0,6.52-5.47l3.67,2.78Q1413.67,363.36,1401.41,363.36Zm-1.07-49.8a14.62,14.62,0,0,0-11.11,4.83q-4.51,4.83-5.49,13h31.69v-.64c-.17-5.07-1.61-9.21-4.35-12.4A13.45,13.45,0,0,0,1400.34,313.56Z" transform="translate(-102.41 -172.38)"/><path class="cls-10" d="M1439.16,362.38h-5.86v-75h5.86Z" transform="translate(-102.41 -172.38)"/><path class="cls-10" d="M1451.8,335.19a31.08,31.08,0,0,1,3-13.72,22.18,22.18,0,0,1,20.58-12.89q10.54,0,17.09,7.39t6.54,19.61v1.22a31.32,31.32,0,0,1-3,13.79,22,22,0,0,1-8.33,9.45,22.84,22.84,0,0,1-12.25,3.32q-10.5,0-17.07-7.4t-6.57-19.6Zm5.86,1.61q0,9.46,4.91,15.55a16.6,16.6,0,0,0,25.68,0q4.92-6.08,4.91-16v-1.12a27,27,0,0,0-2.24-11.09,18.11,18.11,0,0,0-6.3-7.79,16.17,16.17,0,0,0-9.28-2.75,15.6,15.6,0,0,0-12.74,6.12q-4.93,6.13-4.94,16Z" transform="translate(-102.41 -172.38)"/><path class="cls-10" d="M1553.51,336.51q0,12.35-5.47,19.6a17.4,17.4,0,0,1-14.64,7.25q-10.85,0-16.61-7.62v27H1511V309.55h5.42l.3,7.47q5.71-8.44,16.55-8.44,9.46,0,14.87,7.17t5.39,19.93Zm-5.86-1q0-10.11-4.15-16a13.38,13.38,0,0,0-11.57-5.86,15.43,15.43,0,0,0-15.14,10.11V349.1a15.58,15.58,0,0,0,6,6.94,17.35,17.35,0,0,0,9.23,2.39,13.27,13.27,0,0,0,11.5-5.88Q1547.66,346.66,1547.65,335.48Z" transform="translate(-102.41 -172.38)"/><path class="cls-10" d="M1571.78,309.55l.19,8.6a19.56,19.56,0,0,1,7.32-7.18,20,20,0,0,1,9.77-2.39q12.5,0,15.87,10.25a19.79,19.79,0,0,1,7.57-7.59,20.91,20.91,0,0,1,10.45-2.66q17,0,17.33,18.55v35.25h-5.86V327.57q0-7.08-3.05-10.5t-9.79-3.42a15.57,15.57,0,0,0-10.64,4.08,14.41,14.41,0,0,0-4.84,9.69v35h-5.86V327.13q0-6.78-3.2-10.13t-9.69-3.35a14.73,14.73,0,0,0-9.47,3.15,18.47,18.47,0,0,0-5.86,9.35v36.23h-5.86V309.55Z" transform="translate(-102.41 -172.38)"/><path class="cls-10" d="M1675.54,363.36a23,23,0,0,1-12.19-3.32,22.63,22.63,0,0,1-8.47-9.25,28.85,28.85,0,0,1-3-13.31v-2.1a31.08,31.08,0,0,1,3-13.72,23.41,23.41,0,0,1,8.23-9.59,20.25,20.25,0,0,1,11.42-3.49q9.61,0,15.26,6.56t5.64,17.95v3.27h-37.7v1.12q0,9,5.16,15a16.36,16.36,0,0,0,13,6,19.08,19.08,0,0,0,8.28-1.71,18.3,18.3,0,0,0,6.51-5.47l3.67,2.78Q1687.79,363.36,1675.54,363.36Zm-1.08-49.8a14.62,14.62,0,0,0-11.11,4.83q-4.51,4.83-5.49,13h31.69v-.64q-.24-7.61-4.35-12.4A13.45,13.45,0,0,0,1674.46,313.56Z" transform="translate(-102.41 -172.38)"/><path class="cls-10" d="M1712.3,309.55l.2,9a20.93,20.93,0,0,1,7.42-7.45,19.25,19.25,0,0,1,9.81-2.56q8.51,0,12.65,4.78t4.2,14.36v34.66h-5.81V327.67q0-7.08-3-10.55t-9.45-3.47a14.78,14.78,0,0,0-9.6,3.4,19.84,19.84,0,0,0-6.17,9.15v36.18h-5.81V309.55Z" transform="translate(-102.41 -172.38)"/><path class="cls-10" d="M1770.75,296v13.52h10.94v4.79h-10.94v35.24c0,2.93.53,5.12,1.59,6.55s2.82,2.15,5.29,2.15a35.61,35.61,0,0,0,4.74-.49l.25,4.75a19.13,19.13,0,0,1-6.25.82q-6,0-8.75-3.49t-2.73-10.28V314.34h-9.72v-4.79h9.72V296Z" transform="translate(-102.41 -172.38)"/><path class="cls-10" d="M455.82,1005.29H411.29v-4.49l24.36-27.64a63.4,63.4,0,0,0,8.4-11.52,19.29,19.29,0,0,0,2.35-8.84q0-6.74-4-10.67t-10.89-3.93A15.35,15.35,0,0,0,420,942.79q-4.43,4.59-4.42,11.91h-5.81a22.26,22.26,0,0,1,2.71-10.93,19.4,19.4,0,0,1,7.71-7.74,22.94,22.94,0,0,1,11.4-2.81q9.76,0,15.26,5.13t5.49,14a23.67,23.67,0,0,1-3.1,10.89q-3.09,5.91-10.91,14.75l-19.82,22.41h37.35Z" transform="translate(-102.41 -172.38)"/><path class="cls-10" d="M467.1,1001.77a4.16,4.16,0,0,1,1.1-2.9,3.93,3.93,0,0,1,3.05-1.2,4,4,0,0,1,3.08,1.2,4.13,4.13,0,0,1,1.12,2.9,3.79,3.79,0,0,1-1.12,2.81,4.24,4.24,0,0,1-3.08,1.1,4.13,4.13,0,0,1-3.05-1.1A3.81,3.81,0,0,1,467.1,1001.77Z" transform="translate(-102.41 -172.38)"/><path class="cls-10" d="M555.58,985.32H523.3l-7.32,20h-6.3l26.9-71.09h5.71l26.91,71.09H563Zm-30.42-5.08h28.51l-14.26-38.72Z" transform="translate(-102.41 -172.38)"/><path class="cls-10" d="M620.76,979.41q0,12.36-5.47,19.61a17.42,17.42,0,0,1-14.65,7.25q-10.83,0-16.6-7.62v26.95h-5.81V952.46h5.42l.29,7.47q5.71-8.45,16.56-8.45,9.46,0,14.87,7.18t5.39,19.92Zm-5.86-1q0-10.11-4.15-16a13.37,13.37,0,0,0-11.57-5.86A15.43,15.43,0,0,0,584,966.67V992a15.44,15.44,0,0,0,6,6.93,17.27,17.27,0,0,0,9.23,2.4,13.29,13.29,0,0,0,11.5-5.89Q614.91,989.57,614.9,978.39Z" transform="translate(-102.41 -172.38)"/><path class="cls-10" d="M676.18,979.41q0,12.36-5.47,19.61a17.42,17.42,0,0,1-14.65,7.25q-10.83,0-16.6-7.62v26.95h-5.81V952.46h5.42l.29,7.47q5.71-8.45,16.56-8.45,9.47,0,14.87,7.18t5.39,19.92Zm-5.86-1q0-10.11-4.15-16a13.37,13.37,0,0,0-11.57-5.86,15.43,15.43,0,0,0-15.14,10.11V992a15.44,15.44,0,0,0,6,6.93,17.27,17.27,0,0,0,9.23,2.4,13.29,13.29,0,0,0,11.5-5.89Q670.33,989.57,670.32,978.39Z" transform="translate(-102.41 -172.38)"/><path class="cls-10" d="M714.8,1005.29V934.2h19.88a30.84,30.84,0,0,1,15.67,4,27.52,27.52,0,0,1,10.82,11.4,36,36,0,0,1,3.88,16.89V973a36,36,0,0,1-3.86,16.9,27.48,27.48,0,0,1-10.86,11.38,31.88,31.88,0,0,1-16.09,4Zm6-66v60.94h13.48q11.22,0,18-7.45t6.79-20.16v-6.25q0-12.27-6.69-19.65t-17.63-7.43Z" transform="translate(-102.41 -172.38)"/><path class="cls-10" d="M799.37,1006.27a23,23,0,0,1-12.18-3.32,22.66,22.66,0,0,1-8.47-9.26,28.8,28.8,0,0,1-3-13.3v-2.1a31.08,31.08,0,0,1,3-13.72,23.56,23.56,0,0,1,8.22-9.6,20.38,20.38,0,0,1,11.43-3.49q9.62,0,15.26,6.57T819.2,976v3.27H781.5v1.13q0,9,5.15,15a16.41,16.41,0,0,0,13,6,19,19,0,0,0,8.27-1.71,18.35,18.35,0,0,0,6.52-5.47l3.67,2.78Q811.63,1006.27,799.37,1006.27Zm-1.07-49.81a14.6,14.6,0,0,0-11.11,4.84q-4.52,4.83-5.49,13h31.69v-.63q-.24-7.62-4.35-12.4A13.46,13.46,0,0,0,798.3,956.46Z" transform="translate(-102.41 -172.38)"/><path class="cls-10" d="M873.06,979.41q0,12.36-5.47,19.61a17.44,17.44,0,0,1-14.65,7.25q-10.85,0-16.6-7.62v26.95h-5.81V952.46H836l.29,7.47q5.71-8.45,16.55-8.45,9.48,0,14.87,7.18t5.4,19.92Zm-5.86-1q0-10.11-4.15-16a13.39,13.39,0,0,0-11.58-5.86,15.43,15.43,0,0,0-15.13,10.11V992a15.48,15.48,0,0,0,6,6.93,17.29,17.29,0,0,0,9.23,2.4,13.27,13.27,0,0,0,11.5-5.89Q867.2,989.57,867.2,978.39Z" transform="translate(-102.41 -172.38)"/><path class="cls-10" d="M892.54,1005.29h-5.86v-75h5.86Z" transform="translate(-102.41 -172.38)"/><path class="cls-10" d="M905.19,978.09a31.07,31.07,0,0,1,2.95-13.72,22.22,22.22,0,0,1,20.58-12.89q10.54,0,17.09,7.4t6.54,19.6v1.22a31.36,31.36,0,0,1-3,13.8,22.15,22.15,0,0,1-8.33,9.45,22.84,22.84,0,0,1-12.25,3.32q-10.5,0-17.07-7.4t-6.56-19.61ZM911,979.7q0,9.48,4.91,15.56a16.61,16.61,0,0,0,25.69,0q4.9-6.09,4.9-16v-1.13A27,27,0,0,0,944.3,967a18.11,18.11,0,0,0-6.3-7.79,16.1,16.1,0,0,0-9.28-2.76A15.61,15.61,0,0,0,916,962.59q-4.93,6.13-4.94,16Z" transform="translate(-102.41 -172.38)"/><path class="cls-10" d="M980.43,996.89l15.43-44.43h6.3l-22.56,61.81-1.17,2.74q-4.35,9.62-13.43,9.62a16.21,16.21,0,0,1-4.49-.69l0-4.83,3,.29a10.77,10.77,0,0,0,7-2.12c1.78-1.42,3.28-3.85,4.52-7.3l2.59-7.13-19.92-52.39H964Z" transform="translate(-102.41 -172.38)"/><path class="cls-10" d="M1016.51,952.46l.2,8.59a19.57,19.57,0,0,1,7.32-7.18,20.16,20.16,0,0,1,9.77-2.39q12.5,0,15.87,10.26a19.88,19.88,0,0,1,7.57-7.6,21,21,0,0,1,10.45-2.66q17,0,17.33,18.56v35.25h-5.86V970.48q0-7.08-3.05-10.5t-9.79-3.42a15.57,15.57,0,0,0-10.65,4.08,14.4,14.4,0,0,0-4.83,9.69v35H1045V970q0-6.79-3.2-10.14t-9.69-3.34a14.71,14.71,0,0,0-9.47,3.15,18.47,18.47,0,0,0-5.86,9.35v36.23h-5.86V952.46Z" transform="translate(-102.41 -172.38)"/><path class="cls-10" d="M1120.27,1006.27a23,23,0,0,1-12.18-3.32,22.66,22.66,0,0,1-8.47-9.26,28.8,28.8,0,0,1-3-13.3v-2.1a31.08,31.08,0,0,1,3-13.72,23.48,23.48,0,0,1,8.22-9.6,20.38,20.38,0,0,1,11.43-3.49q9.61,0,15.26,6.57T1140.1,976v3.27h-37.7v1.13q0,9,5.15,15a16.41,16.41,0,0,0,13,6,19,19,0,0,0,8.27-1.71,18.35,18.35,0,0,0,6.52-5.47l3.66,2.78Q1132.54,1006.27,1120.27,1006.27Zm-1.07-49.81a14.58,14.58,0,0,0-11.11,4.84q-4.52,4.83-5.49,13h31.69v-.63q-.26-7.62-4.35-12.4A13.47,13.47,0,0,0,1119.2,956.46Z" transform="translate(-102.41 -172.38)"/><path class="cls-10" d="M1157,952.46l.2,9a20.82,20.82,0,0,1,7.42-7.44,19.26,19.26,0,0,1,9.81-2.57q8.51,0,12.65,4.79t4.2,14.35v34.67h-5.81V970.57q-.06-7.08-3-10.54t-9.44-3.47a14.78,14.78,0,0,0-9.6,3.39,20,20,0,0,0-6.18,9.16v36.18h-5.81V952.46Z" transform="translate(-102.41 -172.38)"/><path class="cls-10" d="M1215.49,938.93v13.53h10.93v4.78h-10.93v35.25q0,4.39,1.58,6.55t5.3,2.15a35.61,35.61,0,0,0,4.74-.49l.24,4.74a19,19,0,0,1-6.25.83q-6,0-8.74-3.49t-2.73-10.28V957.24h-9.72v-4.78h9.72V938.93Z" transform="translate(-102.41 -172.38)"/><path class="cls-10" d="M1237.31,1018.57l-3.46-2.54a21.29,21.29,0,0,0,4.59-12.35v-7.57h5.71v6.1Q1244.15,1012.37,1237.31,1018.57Z" transform="translate(-102.41 -172.38)"/><path class="cls-10" d="M344,1125.29V1054.2h19.88a30.84,30.84,0,0,1,15.67,4,27.52,27.52,0,0,1,10.82,11.4,36,36,0,0,1,3.88,16.89V1093a36,36,0,0,1-3.86,16.9,27.48,27.48,0,0,1-10.86,11.38,31.85,31.85,0,0,1-16.09,4Zm6-66v60.94h13.48q11.22,0,18-7.45t6.79-20.16v-6.25q0-12.27-6.69-19.65t-17.62-7.43Z" transform="translate(-102.41 -172.38)"/><path class="cls-10" d="M428.52,1126.27a23,23,0,0,1-12.18-3.32,22.66,22.66,0,0,1-8.47-9.26,28.8,28.8,0,0,1-3-13.3v-2.1a31.08,31.08,0,0,1,3-13.72A23.56,23.56,0,0,1,416,1075a20.38,20.38,0,0,1,11.43-3.49q9.62,0,15.26,6.57t5.64,17.94v3.27h-37.7v1.13q0,9,5.16,15a16.37,16.37,0,0,0,13,6,19.08,19.08,0,0,0,8.28-1.71,18.41,18.41,0,0,0,6.51-5.47l3.67,2.78Q440.78,1126.27,428.52,1126.27Zm-1.07-49.81a14.6,14.6,0,0,0-11.11,4.84q-4.51,4.83-5.49,13h31.69v-.63q-.24-7.62-4.35-12.4A13.46,13.46,0,0,0,427.45,1076.46Z" transform="translate(-102.41 -172.38)"/><path class="cls-10" d="M466.27,1125.29h-5.86v-75h5.86Z" transform="translate(-102.41 -172.38)"/><path class="cls-10" d="M481.8,1057.2a3.9,3.9,0,0,1,1.07-2.79,3.83,3.83,0,0,1,2.93-1.14,3.89,3.89,0,0,1,2.95,1.14,3.84,3.84,0,0,1,1.1,2.79,3.78,3.78,0,0,1-1.1,2.77,4,4,0,0,1-2.95,1.11,3.89,3.89,0,0,1-2.93-1.11A3.83,3.83,0,0,1,481.8,1057.2Zm6.88,68.09h-5.86v-52.83h5.86Z" transform="translate(-102.41 -172.38)"/><path class="cls-10" d="M521,1117.23l16.06-44.77h6l-19.73,52.83h-4.74l-19.82-52.83h6Z" transform="translate(-102.41 -172.38)"/><path class="cls-10" d="M572.47,1126.27a23,23,0,0,1-12.18-3.32,22.59,22.59,0,0,1-8.47-9.26,28.8,28.8,0,0,1-3-13.3v-2.1a31.07,31.07,0,0,1,3-13.72A23.51,23.51,0,0,1,560,1075a20.36,20.36,0,0,1,11.43-3.49q9.61,0,15.25,6.57t5.64,17.94v3.27H554.6v1.13q0,9,5.15,15a16.39,16.39,0,0,0,13,6,19,19,0,0,0,8.28-1.71,18.43,18.43,0,0,0,6.52-5.47l3.66,2.78Q584.72,1126.27,572.47,1126.27Zm-1.07-49.81a14.58,14.58,0,0,0-11.11,4.84q-4.51,4.83-5.5,13h31.69v-.63q-.24-7.62-4.34-12.4A13.49,13.49,0,0,0,571.4,1076.46Z" transform="translate(-102.41 -172.38)"/><path class="cls-10" d="M628.09,1077.44a21.71,21.71,0,0,0-4-.34,14.22,14.22,0,0,0-9.25,3.05,16.7,16.7,0,0,0-5.4,8.86v36.28h-5.81v-52.83h5.71l.1,8.4q4.63-9.37,14.89-9.38a9.48,9.48,0,0,1,3.86.64Z" transform="translate(-102.41 -172.38)"/><path class="cls-10" d="M654.94,1116.89l15.43-44.43h6.3l-22.56,61.81-1.17,2.74q-4.35,9.62-13.43,9.62a16.21,16.21,0,0,1-4.49-.69l0-4.83,3,.29a10.82,10.82,0,0,0,7-2.12q2.65-2.13,4.51-7.3l2.59-7.13-19.92-52.39h6.39Z" transform="translate(-102.41 -172.38)"/><path class="cls-10" d="M706.8,1098.09a31.07,31.07,0,0,1,3-13.72,22.22,22.22,0,0,1,20.58-12.89q10.54,0,17.09,7.4t6.54,19.6v1.22a31.36,31.36,0,0,1-3,13.8,22.13,22.13,0,0,1-8.32,9.45,22.9,22.9,0,0,1-12.26,3.32q-10.5,0-17.07-7.4t-6.56-19.61Zm5.86,1.61q0,9.48,4.9,15.56a16.61,16.61,0,0,0,25.69,0q4.9-6.09,4.9-16v-1.13a27,27,0,0,0-2.24-11.08,18.11,18.11,0,0,0-6.3-7.79,16.1,16.1,0,0,0-9.28-2.76,15.61,15.61,0,0,0-12.74,6.13q-4.94,6.14-4.93,16Z" transform="translate(-102.41 -172.38)"/><path class="cls-10" d="M770.22,1125.29v-48h-8.74v-4.78h8.74v-6.4q0-8.1,4.13-12.45t11.5-4.35a22.44,22.44,0,0,1,6.2.83l-.44,4.84a22.81,22.81,0,0,0-5.32-.59,9.58,9.58,0,0,0-7.52,3q-2.68,3-2.69,8.55v6.56h12.6v4.78h-12.6v48Z" transform="translate(-102.41 -172.38)"/><path class="cls-10" d="M830.82,1096.34v29h-6V1054.2H849q11.09,0,17.51,5.66t6.42,15.58q0,10-6.18,15.45t-17.89,5.45Zm0-5.08H849q8.75,0,13.33-4.16t4.59-11.59q0-7.38-4.56-11.76t-13-4.48h-18.6Z" transform="translate(-102.41 -172.38)"/><path class="cls-10" d="M904.84,1126.27a23,23,0,0,1-12.18-3.32,22.66,22.66,0,0,1-8.47-9.26,28.8,28.8,0,0,1-3-13.3v-2.1a31.08,31.08,0,0,1,3-13.72,23.48,23.48,0,0,1,8.22-9.6,20.38,20.38,0,0,1,11.43-3.49q9.62,0,15.26,6.57t5.64,17.94v3.27H887v1.13q0,9,5.15,15a16.41,16.41,0,0,0,13,6,19,19,0,0,0,8.27-1.71,18.35,18.35,0,0,0,6.52-5.47l3.66,2.78Q917.11,1126.27,904.84,1126.27Zm-1.07-49.81a14.58,14.58,0,0,0-11.11,4.84q-4.51,4.83-5.49,13h31.69v-.63c-.17-5.08-1.61-9.21-4.35-12.4A13.46,13.46,0,0,0,903.77,1076.46Z" transform="translate(-102.41 -172.38)"/><path class="cls-10" d="M960.46,1077.44a21.71,21.71,0,0,0-4-.34,14.24,14.24,0,0,0-9.25,3.05,16.76,16.76,0,0,0-5.4,8.86v36.28H936v-52.83h5.72l.09,8.4q4.65-9.37,14.9-9.38a9.46,9.46,0,0,1,3.85.64Z" transform="translate(-102.41 -172.38)"/><path class="cls-10" d="M982.24,1098.68l-6.69,6.44v20.17h-5.86v-75h5.86v48l5.51-6,20.22-19.87h7.37l-22.41,22.26,24.36,30.57h-7Z" transform="translate(-102.41 -172.38)"/><path class="cls-10" d="M1050.3,1111.86a8.33,8.33,0,0,0-3.49-7q-3.49-2.64-10.52-4.13a47.46,47.46,0,0,1-10.91-3.41,14.61,14.61,0,0,1-5.77-4.72,11.76,11.76,0,0,1-1.88-6.73,12.59,12.59,0,0,1,5.23-10.33q5.22-4.08,13.38-4.08,8.84,0,14.18,4.37a14,14,0,0,1,5.35,11.4H1050a9.45,9.45,0,0,0-3.88-7.71,15.28,15.28,0,0,0-9.79-3.08q-5.76,0-9.26,2.57a7.91,7.91,0,0,0-3.49,6.66,7.2,7.2,0,0,0,2.91,6.13q2.91,2.17,10.59,4a49.54,49.54,0,0,1,11.53,3.86,14.93,14.93,0,0,1,5.69,4.93,13.57,13.57,0,0,1-3.54,17.67q-5.4,4-14.09,4-9.23,0-15-4.47a13.76,13.76,0,0,1-5.73-11.3h5.86a10.13,10.13,0,0,0,4.32,8q4,2.85,10.52,2.86,6.1,0,9.86-2.69A8,8,0,0,0,1050.3,1111.86Z" transform="translate(-102.41 -172.38)"/><path class="cls-10" d="M1127,1125.29a27.79,27.79,0,0,1-1.12-7.37,20.23,20.23,0,0,1-7.84,6.17,24,24,0,0,1-10.08,2.18q-7.62,0-12.33-4.25a13.83,13.83,0,0,1-4.71-10.74,14.13,14.13,0,0,1,6.42-12.21q6.42-4.5,17.89-4.49h10.6v-6a11.58,11.58,0,0,0-3.49-8.91q-3.49-3.24-10.18-3.25a16,16,0,0,0-10.11,3.13,9.27,9.27,0,0,0-4,7.52l-5.86,0q0-6.3,5.86-10.91a22.51,22.51,0,0,1,14.4-4.62q8.83,0,13.94,4.42t5.25,12.33v25q0,7.66,1.61,11.47v.59Zm-18.36-4.2a19.62,19.62,0,0,0,10.48-2.83,16.69,16.69,0,0,0,6.71-7.57v-11.62h-10.45q-8.74.11-13.67,3.2a9.6,9.6,0,0,0-4.93,8.52,9.46,9.46,0,0,0,3.29,7.37A12.45,12.45,0,0,0,1108.6,1121.09Z" transform="translate(-102.41 -172.38)"/><path class="cls-10" d="M1152.74,1072.46l.2,9a20.9,20.9,0,0,1,7.42-7.44,19.26,19.26,0,0,1,9.81-2.57q8.5,0,12.65,4.79t4.2,14.35v34.67h-5.81v-34.72q0-7.08-3-10.54t-9.45-3.47a14.82,14.82,0,0,0-9.6,3.39,19.92,19.92,0,0,0-6.17,9.16v36.18h-5.81v-52.83Z" transform="translate(-102.41 -172.38)"/><path class="cls-10" d="M1199.76,1098.39q0-12.32,5.5-19.61a17.68,17.68,0,0,1,14.91-7.3q10.69,0,16.31,8.45v-29.64h5.81v75h-5.46l-.25-7q-5.61,8-16.5,8a17.6,17.6,0,0,1-14.72-7.35q-5.59-7.35-5.6-19.85Zm5.91,1q0,10.11,4.06,15.94a13.11,13.11,0,0,0,11.42,5.84q10.78,0,15.33-9.52v-24.81q-4.53-10.3-15.23-10.3a13.27,13.27,0,0,0-11.48,5.79Q1205.68,1088.13,1205.67,1099.41Z" transform="translate(-102.41 -172.38)"/><path class="cls-10" d="M301.52,1227.81a11.49,11.49,0,0,0-4.15-9.35q-4.14-3.45-15.18-6.54t-16.12-6.77q-7.21-5.18-7.22-13.57a15.89,15.89,0,0,1,6.71-13.26q6.72-5.1,17.16-5.1a28.48,28.48,0,0,1,12.67,2.73,20.81,20.81,0,0,1,8.67,7.62,20,20,0,0,1,3.08,10.89h-6.06a15,15,0,0,0-5-11.73q-5-4.43-13.38-4.43-8.14,0-13,3.64a11.36,11.36,0,0,0-4.84,9.51,10.78,10.78,0,0,0,4.35,8.86q4.33,3.42,13.91,6t14.51,5.42a20.74,20.74,0,0,1,7.42,6.71,16.81,16.81,0,0,1,2.49,9.23,16.08,16.08,0,0,1-6.72,13.48q-6.71,5.07-17.7,5.08a34.68,34.68,0,0,1-13.79-2.69,21.07,21.07,0,0,1-9.52-7.52A19.37,19.37,0,0,1,256.6,1225h6a14.18,14.18,0,0,0,5.61,11.86q5.63,4.35,14.94,4.35,8.31,0,13.33-3.66A11.43,11.43,0,0,0,301.52,1227.81Z" transform="translate(-102.41 -172.38)"/><path class="cls-10" d="M339.61,1246.27a23,23,0,0,1-12.18-3.32,22.68,22.68,0,0,1-8.48-9.26,28.92,28.92,0,0,1-3-13.3v-2.1a31.07,31.07,0,0,1,2.95-13.72,23.51,23.51,0,0,1,8.23-9.6,20.33,20.33,0,0,1,11.42-3.49q9.63,0,15.26,6.57t5.64,17.94v3.27H321.74v1.13q0,9,5.15,15a16.37,16.37,0,0,0,13,6,19,19,0,0,0,8.28-1.71,18.52,18.52,0,0,0,6.52-5.47l3.66,2.78Q351.86,1246.27,339.61,1246.27Zm-1.08-49.81a14.57,14.57,0,0,0-11.1,4.84q-4.51,4.83-5.5,13h31.69v-.63q-.24-7.62-4.34-12.4A13.49,13.49,0,0,0,338.53,1196.46Z" transform="translate(-102.41 -172.38)"/><path class="cls-10" d="M386.63,1237.23l16.06-44.77h6L389,1245.29h-4.73l-19.83-52.83h6Z" transform="translate(-102.41 -172.38)"/><path class="cls-10" d="M438.1,1246.27a23,23,0,0,1-12.19-3.32,22.66,22.66,0,0,1-8.47-9.26,28.8,28.8,0,0,1-3-13.3v-2.1a31.08,31.08,0,0,1,3-13.72,23.51,23.51,0,0,1,8.23-9.6,20.33,20.33,0,0,1,11.42-3.49q9.62,0,15.26,6.57t5.64,17.94v3.27h-37.7v1.13q0,9,5.16,15a16.37,16.37,0,0,0,13,6,19.08,19.08,0,0,0,8.28-1.71,18.41,18.41,0,0,0,6.51-5.47l3.67,2.78Q450.35,1246.27,438.1,1246.27ZM437,1196.46a14.6,14.6,0,0,0-11.11,4.84q-4.52,4.83-5.49,13h31.69v-.63q-.24-7.62-4.35-12.4A13.46,13.46,0,0,0,437,1196.46Z" transform="translate(-102.41 -172.38)"/><path class="cls-10" d="M493.71,1197.44a21.68,21.68,0,0,0-3.95-.34,14.24,14.24,0,0,0-9.26,3.05,16.69,16.69,0,0,0-5.39,8.86v36.28H469.3v-52.83H475l.1,8.4q4.63-9.37,14.89-9.38a9.51,9.51,0,0,1,3.86.64Z" transform="translate(-102.41 -172.38)"/><path class="cls-10" d="M534.34,1245.29a27.32,27.32,0,0,1-1.13-7.37,20.27,20.27,0,0,1-7.83,6.17,24,24,0,0,1-10.09,2.18q-7.62,0-12.33-4.25a13.83,13.83,0,0,1-4.71-10.74,14.13,14.13,0,0,1,6.42-12.21q6.42-4.5,17.9-4.49h10.59v-6a11.58,11.58,0,0,0-3.49-8.91q-3.49-3.24-10.18-3.25a16,16,0,0,0-10.11,3.13,9.27,9.27,0,0,0-4,7.52l-5.86,0q0-6.3,5.86-10.91a22.55,22.55,0,0,1,14.4-4.62q8.85,0,14,4.42t5.24,12.33v25q0,7.66,1.62,11.47v.59Zm-18.36-4.2a19.61,19.61,0,0,0,10.47-2.83,16.64,16.64,0,0,0,6.71-7.57v-11.62H522.71q-8.73.11-13.67,3.2a9.6,9.6,0,0,0-4.93,8.52,9.43,9.43,0,0,0,3.3,7.37A12.41,12.41,0,0,0,516,1241.09Z" transform="translate(-102.41 -172.38)"/><path class="cls-10" d="M561.09,1245.29h-5.86v-75h5.86Z" transform="translate(-102.41 -172.38)"/><path class="cls-10" d="M610.6,1174.2l26.23,62.74,26.31-62.74h8v71.09h-6v-31l.48-31.73-26.46,62.69h-4.64l-26.37-62.45.49,31.3v31.15h-6V1174.2Z" transform="translate(-102.41 -172.38)"/><path class="cls-10" d="M721.15,1245.29a27.79,27.79,0,0,1-1.12-7.37,20.23,20.23,0,0,1-7.84,6.17,24,24,0,0,1-10.08,2.18q-7.62,0-12.33-4.25a13.83,13.83,0,0,1-4.71-10.74,14.13,14.13,0,0,1,6.42-12.21q6.42-4.5,17.89-4.49H720v-6a11.58,11.58,0,0,0-3.49-8.91q-3.5-3.24-10.18-3.25a16,16,0,0,0-10.11,3.13,9.27,9.27,0,0,0-4,7.52l-5.86,0q0-6.3,5.86-10.91a22.51,22.51,0,0,1,14.4-4.62q8.83,0,13.94,4.42t5.25,12.33v25q0,7.66,1.61,11.47v.59Zm-18.36-4.2a19.62,19.62,0,0,0,10.48-2.83,16.69,16.69,0,0,0,6.71-7.57v-11.62H709.53q-8.74.11-13.67,3.2a9.6,9.6,0,0,0-4.93,8.52,9.46,9.46,0,0,0,3.29,7.37A12.45,12.45,0,0,0,702.79,1241.09Z" transform="translate(-102.41 -172.38)"/><path class="cls-10" d="M765.78,1197.44a21.6,21.6,0,0,0-3.95-.34,14.26,14.26,0,0,0-9.26,3.05,16.69,16.69,0,0,0-5.39,8.86v36.28h-5.81v-52.83h5.71l.1,8.4q4.64-9.37,14.89-9.38a9.51,9.51,0,0,1,3.86.64Z" transform="translate(-102.41 -172.38)"/><path class="cls-10" d="M787.56,1218.68l-6.69,6.44v20.17H775v-75h5.86v48l5.52-6,20.21-19.87H814l-22.41,22.26,24.37,30.57h-7Z" transform="translate(-102.41 -172.38)"/><path class="cls-10" d="M843.47,1246.27a23,23,0,0,1-12.19-3.32,22.66,22.66,0,0,1-8.47-9.26,28.8,28.8,0,0,1-3-13.3v-2.1a31.08,31.08,0,0,1,3-13.72A23.51,23.51,0,0,1,831,1195a20.33,20.33,0,0,1,11.42-3.49q9.61,0,15.26,6.57t5.64,17.94v3.27H825.6v1.13q0,9,5.15,15a16.37,16.37,0,0,0,13,6,19.05,19.05,0,0,0,8.28-1.71,18.52,18.52,0,0,0,6.52-5.47l3.66,2.78Q855.72,1246.27,843.47,1246.27Zm-1.08-49.81a14.6,14.6,0,0,0-11.11,4.84q-4.51,4.83-5.49,13h31.69v-.63q-.24-7.62-4.35-12.4A13.46,13.46,0,0,0,842.39,1196.46Z" transform="translate(-102.41 -172.38)"/><path class="cls-10" d="M883.75,1178.93v13.53h10.94v4.78H883.75v35.25q0,4.4,1.59,6.55c1,1.43,2.82,2.15,5.29,2.15a35.61,35.61,0,0,0,4.74-.49l.24,4.74a19,19,0,0,1-6.25.83q-6,0-8.74-3.49t-2.73-10.28v-35.26h-9.72v-4.78h9.72v-13.53Z" transform="translate(-102.41 -172.38)"/><path class="cls-10" d="M972.71,1227.81a11.49,11.49,0,0,0-4.15-9.35q-4.14-3.45-15.18-6.54t-16.11-6.77Q930,1200,930,1191.58a15.91,15.91,0,0,1,6.71-13.26q6.72-5.1,17.17-5.1a28.51,28.51,0,0,1,12.67,2.73,20.84,20.84,0,0,1,8.66,7.62,20,20,0,0,1,3.08,10.89h-6.06a15,15,0,0,0-5-11.73q-5-4.43-13.37-4.43-8.16,0-13,3.64a11.36,11.36,0,0,0-4.84,9.51,10.78,10.78,0,0,0,4.35,8.86q4.35,3.42,13.91,6t14.51,5.42a20.74,20.74,0,0,1,7.42,6.71,16.81,16.81,0,0,1,2.49,9.23,16.09,16.09,0,0,1-6.71,13.48q-6.72,5.07-17.71,5.08a34.68,34.68,0,0,1-13.79-2.69,21.07,21.07,0,0,1-9.52-7.52,19.37,19.37,0,0,1-3.25-11.08h6a14.18,14.18,0,0,0,5.61,11.86q5.63,4.35,14.94,4.35,8.31,0,13.34-3.66A11.45,11.45,0,0,0,972.71,1227.81Z" transform="translate(-102.41 -172.38)"/><path class="cls-10" d="M999.42,1178.93v13.53h10.94v4.78H999.42v35.25q0,4.4,1.59,6.55c1.06,1.43,2.82,2.15,5.3,2.15a35.66,35.66,0,0,0,4.73-.49l.25,4.74a19,19,0,0,1-6.25.83q-6,0-8.74-3.49t-2.74-10.28v-35.26h-9.71v-4.78h9.71v-13.53Z" transform="translate(-102.41 -172.38)"/><path class="cls-10" d="M1056.45,1238.6q-5.27,7.67-16.84,7.67-8.44,0-12.84-4.91t-4.5-14.53v-34.37h5.82v33.64q0,15.09,12.2,15.09,12.7,0,16.07-10.5v-38.23h5.86v52.83h-5.67Z" transform="translate(-102.41 -172.38)"/><path class="cls-10" d="M1075.06,1218.39q0-12.32,5.49-19.61a17.7,17.7,0,0,1,14.92-7.3q10.69,0,16.31,8.45v-29.64h5.81v75h-5.47l-.25-7q-5.61,8-16.5,8a17.61,17.61,0,0,1-14.72-7.35q-5.6-7.35-5.59-19.85Zm5.91,1q0,10.11,4,15.94a13.11,13.11,0,0,0,11.42,5.84q10.8,0,15.34-9.52v-24.81q-4.54-10.3-15.24-10.3a13.26,13.26,0,0,0-11.47,5.79Q1081,1208.13,1081,1219.41Z" transform="translate(-102.41 -172.38)"/><path class="cls-10" d="M1132.63,1177.2a3.9,3.9,0,0,1,1.07-2.79,3.83,3.83,0,0,1,2.93-1.14,3.89,3.89,0,0,1,2.95,1.14,3.84,3.84,0,0,1,1.1,2.79,3.78,3.78,0,0,1-1.1,2.77,4,4,0,0,1-2.95,1.11,3.89,3.89,0,0,1-2.93-1.11A3.83,3.83,0,0,1,1132.63,1177.2Zm6.88,68.09h-5.86v-52.83h5.86Z" transform="translate(-102.41 -172.38)"/><path class="cls-10" d="M1175.84,1246.27a23,23,0,0,1-12.18-3.32,22.68,22.68,0,0,1-8.48-9.26,28.92,28.92,0,0,1-3-13.3v-2.1a31.07,31.07,0,0,1,2.95-13.72,23.51,23.51,0,0,1,8.23-9.6,20.33,20.33,0,0,1,11.42-3.49q9.63,0,15.26,6.57t5.64,17.94v3.27H1158v1.13q0,9,5.15,15a16.37,16.37,0,0,0,13,6,19,19,0,0,0,8.28-1.71,18.52,18.52,0,0,0,6.52-5.47l3.66,2.78Q1188.09,1246.27,1175.84,1246.27Zm-1.08-49.81a14.57,14.57,0,0,0-11.1,4.84q-4.53,4.83-5.5,13h31.69v-.63q-.24-7.62-4.34-12.4A13.49,13.49,0,0,0,1174.76,1196.46Z" transform="translate(-102.41 -172.38)"/><path class="cls-10" d="M1238.68,1231.86a8.33,8.33,0,0,0-3.49-7q-3.5-2.64-10.52-4.13a47.73,47.73,0,0,1-10.92-3.41,14.65,14.65,0,0,1-5.76-4.72,11.76,11.76,0,0,1-1.88-6.73,12.56,12.56,0,0,1,5.23-10.33q5.22-4.08,13.38-4.08,8.83,0,14.18,4.37a14.06,14.06,0,0,1,5.35,11.4h-5.86a9.47,9.47,0,0,0-3.88-7.71,15.3,15.3,0,0,0-9.79-3.08c-3.85,0-6.93.86-9.26,2.57a7.89,7.89,0,0,0-3.49,6.66,7.2,7.2,0,0,0,2.91,6.13c1.93,1.45,5.47,2.77,10.59,4a49.54,49.54,0,0,1,11.53,3.86,14.82,14.82,0,0,1,5.68,4.93,13.54,13.54,0,0,1-3.54,17.67q-5.39,4-14.08,4-9.22,0-15-4.47a13.77,13.77,0,0,1-5.74-11.3h5.86a10.17,10.17,0,0,0,4.33,8q4,2.85,10.52,2.86,6.11,0,9.86-2.69A8,8,0,0,0,1238.68,1231.86Z" transform="translate(-102.41 -172.38)"/><path class="cls-10" d="M949.51,1701.49h6.06a20.32,20.32,0,0,0,8.79-1.78,13.46,13.46,0,0,0,5.74-4.89,13.05,13.05,0,0,0,2-7.15q0-6.84-3.85-10.69t-11.09-3.86a15.84,15.84,0,0,0-11.2,4,13.72,13.72,0,0,0-4.37,10.62H935.7a18.93,18.93,0,0,1,2.78-10.08,18.67,18.67,0,0,1,7.71-7.06,24,24,0,0,1,10.94-2.49q9.68,0,15.24,5.27t5.56,14.46a15.4,15.4,0,0,1-3.24,9.44,19.41,19.41,0,0,1-8.92,6.47,18.32,18.32,0,0,1,10.06,6.38,17.31,17.31,0,0,1,3.42,10.76q0,9.13-6,14.7t-15.91,5.57a26.62,26.62,0,0,1-11.65-2.54,18.83,18.83,0,0,1-11.11-17.73h5.86a14.2,14.2,0,0,0,4.74,11.06q4.72,4.27,12.16,4.27t11.79-3.88q4.22-3.88,4.22-11.25,0-7.12-4.56-10.89t-13.46-3.76h-5.86Z" transform="translate(-102.41 -172.38)"/><path class="cls-10" d="M992.34,1736.69a4.1,4.1,0,0,1,1.1-2.9,3.93,3.93,0,0,1,3-1.2,4,4,0,0,1,3.07,1.2,4.08,4.08,0,0,1,1.13,2.9,3.76,3.76,0,0,1-1.13,2.81,4.21,4.21,0,0,1-3.07,1.1,4.13,4.13,0,0,1-3-1.1A3.77,3.77,0,0,1,992.34,1736.69Z" transform="translate(-102.41 -172.38)"/><path class="cls-10" d="M1082.67,1722.73a11.49,11.49,0,0,0-4.15-9.35q-4.15-3.45-15.19-6.54t-16.11-6.77q-7.23-5.17-7.23-13.57a15.9,15.9,0,0,1,6.72-13.26q6.7-5.1,17.16-5.1a28.51,28.51,0,0,1,12.67,2.73,20.81,20.81,0,0,1,8.67,7.62,20,20,0,0,1,3.07,10.89h-6a15,15,0,0,0-5-11.73q-5-4.43-13.38-4.43-8.16,0-13,3.64a11.37,11.37,0,0,0-4.83,9.51,10.8,10.8,0,0,0,4.34,8.86q4.35,3.42,13.92,6t14.5,5.42a20.66,20.66,0,0,1,7.42,6.71,16.81,16.81,0,0,1,2.49,9.23,16.07,16.07,0,0,1-6.71,13.48q-6.72,5.07-17.7,5.08a34.68,34.68,0,0,1-13.79-2.69A21.1,21.1,0,0,1,1041,1731a19.44,19.44,0,0,1-3.24-11.08h6a14.16,14.16,0,0,0,5.62,11.86q5.61,4.35,14.94,4.35,8.3,0,13.33-3.66A11.47,11.47,0,0,0,1082.67,1722.73Z" transform="translate(-102.41 -172.38)"/><path class="cls-10" d="M1142.78,1714.33q0,12.36-5.47,19.61a17.44,17.44,0,0,1-14.65,7.25q-10.85,0-16.6-7.62v27h-5.81v-73.14h5.42l.29,7.47q5.71-8.44,16.55-8.45,9.48,0,14.87,7.18t5.4,19.92Zm-5.86-1q0-10.11-4.15-16a13.39,13.39,0,0,0-11.58-5.86,15.43,15.43,0,0,0-15.13,10.11v25.34a15.48,15.48,0,0,0,6,6.93,17.29,17.29,0,0,0,9.23,2.39,13.26,13.26,0,0,0,11.5-5.88Q1136.92,1724.49,1136.92,1713.31Z" transform="translate(-102.41 -172.38)"/><path class="cls-10" d="M1180.13,1692.36a21.71,21.71,0,0,0-4-.34,14.24,14.24,0,0,0-9.25,3,16.69,16.69,0,0,0-5.39,8.86v36.28h-5.81v-52.83h5.71l.1,8.4q4.63-9.37,14.89-9.38a9.51,9.51,0,0,1,3.86.64Z" transform="translate(-102.41 -172.38)"/><path class="cls-10" d="M1208.89,1741.19a23,23,0,0,1-12.18-3.32,22.59,22.59,0,0,1-8.47-9.26,28.8,28.8,0,0,1-3-13.3v-2.1a31.07,31.07,0,0,1,3-13.72,23.51,23.51,0,0,1,8.23-9.6,20.36,20.36,0,0,1,11.43-3.49q9.62,0,15.25,6.57t5.64,17.94v3.27H1191v1.13q0,9,5.15,15a16.36,16.36,0,0,0,13,6,19,19,0,0,0,8.28-1.7,18.43,18.43,0,0,0,6.52-5.47l3.66,2.78Q1221.14,1741.19,1208.89,1741.19Zm-1.07-49.81a14.58,14.58,0,0,0-11.11,4.84q-4.51,4.83-5.5,13h31.69v-.63q-.24-7.62-4.34-12.4A13.49,13.49,0,0,0,1207.82,1691.38Z" transform="translate(-102.41 -172.38)"/><path class="cls-10" d="M1273.44,1740.21a27.39,27.39,0,0,1-1.12-7.37,20.31,20.31,0,0,1-7.84,6.17,24,24,0,0,1-10.08,2.18q-7.62,0-12.33-4.25a13.83,13.83,0,0,1-4.71-10.74,14.13,14.13,0,0,1,6.42-12.21q6.42-4.5,17.89-4.49h10.6v-6a11.58,11.58,0,0,0-3.49-8.91q-3.49-3.24-10.18-3.25a15.9,15.9,0,0,0-10.11,3.13,9.27,9.27,0,0,0-4,7.52l-5.86,0q0-6.3,5.86-10.91a22.51,22.51,0,0,1,14.4-4.62q8.83,0,13.94,4.42t5.25,12.33v25q0,7.66,1.61,11.47v.59Zm-18.36-4.2a19.56,19.56,0,0,0,10.47-2.83,16.66,16.66,0,0,0,6.72-7.57V1714h-10.45q-8.74.09-13.67,3.2a9.58,9.58,0,0,0-4.93,8.52,9.42,9.42,0,0,0,3.29,7.37A12.45,12.45,0,0,0,1255.08,1736Z" transform="translate(-102.41 -172.38)"/><path class="cls-10" d="M1291.31,1713.31q0-12.32,5.49-19.61a17.69,17.69,0,0,1,14.92-7.3q10.69,0,16.31,8.45v-29.64h5.81v75h-5.47l-.24-7q-5.62,8-16.51,8a17.62,17.62,0,0,1-14.72-7.35q-5.6-7.35-5.59-19.85Zm5.91,1q0,10.11,4,15.94a13.11,13.11,0,0,0,11.43,5.84q10.79,0,15.33-9.52v-24.81q-4.54-10.3-15.23-10.3a13.27,13.27,0,0,0-11.48,5.79Q1297.22,1703,1297.22,1714.33Z" transform="translate(-102.41 -172.38)"/><path class="cls-10" d="M1373.2,1672.12a3.9,3.9,0,0,1,1.07-2.79,3.83,3.83,0,0,1,2.93-1.14,3.89,3.89,0,0,1,3,1.14,3.84,3.84,0,0,1,1.1,2.79,3.74,3.74,0,0,1-1.1,2.76,3.92,3.92,0,0,1-3,1.12,3.86,3.86,0,0,1-2.93-1.12A3.79,3.79,0,0,1,1373.2,1672.12Zm6.88,68.09h-5.86v-52.83h5.86Z" transform="translate(-102.41 -172.38)"/><path class="cls-10" d="M1405,1673.85v13.53H1416v4.78H1405v35.25q0,4.39,1.59,6.55c1.06,1.43,2.82,2.15,5.3,2.15a35.66,35.66,0,0,0,4.73-.49l.25,4.74a19.05,19.05,0,0,1-6.25.83q-6,0-8.74-3.49t-2.74-10.28v-35.26h-9.71v-4.78h9.71v-13.53Z" transform="translate(-102.41 -172.38)"/><path class="cls-10" d="M1461.48,1673.85v13.53h10.94v4.78h-10.94v35.25q0,4.39,1.58,6.55t5.3,2.15a35.61,35.61,0,0,0,4.74-.49l.24,4.74a19,19,0,0,1-6.25.83q-6,0-8.74-3.49t-2.73-10.28v-35.26h-9.72v-4.78h9.72v-13.53Z" transform="translate(-102.41 -172.38)"/><path class="cls-10" d="M1480.33,1713a31.07,31.07,0,0,1,3-13.72,22.18,22.18,0,0,1,20.58-12.89q10.55,0,17.09,7.4t6.54,19.6v1.22a31.4,31.4,0,0,1-3,13.8,22.15,22.15,0,0,1-8.33,9.45,22.84,22.84,0,0,1-12.25,3.32q-10.5,0-17.07-7.4t-6.56-19.61Zm5.85,1.61q0,9.48,4.91,15.56a16.63,16.63,0,0,0,25.69,0q4.9-6.09,4.9-16V1713a27,27,0,0,0-2.24-11.08,18.11,18.11,0,0,0-6.3-7.79,16.1,16.1,0,0,0-9.28-2.76,15.58,15.58,0,0,0-12.74,6.13q-4.93,6.13-4.94,16Z" transform="translate(-102.41 -172.38)"/><path class="cls-10" d="M1573,1673.85v13.53h10.94v4.78H1573v35.25q0,4.39,1.59,6.55c1.06,1.43,2.82,2.15,5.3,2.15a35.66,35.66,0,0,0,4.73-.49l.25,4.74a19.05,19.05,0,0,1-6.25.83q-6,0-8.74-3.49t-2.74-10.28v-35.26h-9.71v-4.78h9.71v-13.53Z" transform="translate(-102.41 -172.38)"/><path class="cls-10" d="M1601.81,1696.31a20.66,20.66,0,0,1,7.37-7.32,19.3,19.3,0,0,1,9.82-2.59q8.49,0,12.64,4.79t4.2,14.35v34.67H1630v-34.72q0-7.08-3-10.54t-9.45-3.47a14.78,14.78,0,0,0-9.59,3.39,19.86,19.86,0,0,0-6.18,9.16v36.18H1596v-75h5.81Z" transform="translate(-102.41 -172.38)"/><path class="cls-10" d="M1671.34,1741.19a23,23,0,0,1-12.18-3.32,22.59,22.59,0,0,1-8.47-9.26,28.8,28.8,0,0,1-3-13.3v-2.1a31.07,31.07,0,0,1,2.95-13.72,23.58,23.58,0,0,1,8.23-9.6,20.38,20.38,0,0,1,11.43-3.49q9.62,0,15.26,6.57t5.64,17.94v3.27h-37.7v1.13q0,9,5.15,15a16.38,16.38,0,0,0,13,6,19,19,0,0,0,8.28-1.7,18.43,18.43,0,0,0,6.52-5.47l3.66,2.78Q1683.61,1741.19,1671.34,1741.19Zm-1.07-49.81a14.58,14.58,0,0,0-11.11,4.84q-4.52,4.83-5.49,13h31.68v-.63q-.24-7.62-4.34-12.4A13.49,13.49,0,0,0,1670.27,1691.38Z" transform="translate(-102.41 -172.38)"/><path class="cls-10" d="M1739.5,1728.05l.88,4.54,1.18-4.78,12.69-40.43h5l12.55,40.09,1.37,5.56,1.12-5.12,10.84-40.53h6.06l-15.39,52.83h-5l-13.57-41.89-.64-2.89-.63,2.93-13.33,41.85h-5l-15.33-52.83h6Z" transform="translate(-102.41 -172.38)"/><path class="cls-10" d="M1799,1713a31.07,31.07,0,0,1,3-13.72,22.18,22.18,0,0,1,20.58-12.89q10.55,0,17.09,7.4t6.54,19.6v1.22a31.4,31.4,0,0,1-3,13.8,22.13,22.13,0,0,1-8.32,9.45,22.9,22.9,0,0,1-12.26,3.32q-10.5,0-17.07-7.4t-6.56-19.61Zm5.86,1.61q0,9.48,4.9,15.56a16.63,16.63,0,0,0,25.69,0q4.9-6.09,4.9-16V1713a27,27,0,0,0-2.24-11.08,18.11,18.11,0,0,0-6.3-7.79,16.1,16.1,0,0,0-9.28-2.76,15.58,15.58,0,0,0-12.74,6.13q-4.93,6.13-4.93,16Z" transform="translate(-102.41 -172.38)"/><path class="cls-10" d="M1882.67,1692.36a21.71,21.71,0,0,0-4-.34,14.24,14.24,0,0,0-9.25,3,16.69,16.69,0,0,0-5.39,8.86v36.28h-5.82v-52.83H1864l.1,8.4q4.64-9.37,14.89-9.38a9.54,9.54,0,0,1,3.86.64Z" transform="translate(-102.41 -172.38)"/><path class="cls-10" d="M1898.44,1740.21h-5.86v-75h5.86Z" transform="translate(-102.41 -172.38)"/><path class="cls-10" d="M1912,1713.31q0-12.32,5.49-19.61a17.66,17.66,0,0,1,14.92-7.3q10.68,0,16.3,8.45v-29.64h5.82v75H1949l-.25-7q-5.61,8-16.5,8a17.6,17.6,0,0,1-14.72-7.35q-5.6-7.35-5.59-19.85Zm5.9,1q0,10.11,4.06,15.94a13.11,13.11,0,0,0,11.42,5.84q10.8,0,15.33-9.52v-24.81q-4.53-10.3-15.23-10.3a13.24,13.24,0,0,0-11.47,5.79Q1917.87,1703,1917.87,1714.33Z" transform="translate(-102.41 -172.38)"/><path class="cls-10" d="M1048.71,1822.75l.55,2.81.72-3,7.88-25.07h3.08l7.78,24.86.85,3.45.7-3.18,6.72-25.13h3.75l-9.53,32.76h-3.09l-8.42-26-.39-1.78-.39,1.81-8.27,26h-3.09l-9.5-32.76h3.72Z" transform="translate(-102.41 -172.38)"/><path class="cls-10" d="M1087.4,1788.07a2.41,2.41,0,0,1,.67-1.73,2.37,2.37,0,0,1,1.81-.71,2.46,2.46,0,0,1,1.84.71,2.53,2.53,0,0,1,0,3.45,2.48,2.48,0,0,1-1.84.69,2.33,2.33,0,0,1-2.48-2.41Zm4.27,42.22H1088v-32.76h3.63Z" transform="translate(-102.41 -172.38)"/><path class="cls-10" d="M1107.14,1789.15v8.38h6.78v3h-6.78v21.85a6.88,6.88,0,0,0,1,4.06,3.82,3.82,0,0,0,3.29,1.33,23,23,0,0,0,2.94-.3l.15,2.94a11.86,11.86,0,0,1-3.88.51q-3.72,0-5.42-2.16t-1.69-6.37V1800.5h-6v-3h6v-8.38Z" transform="translate(-102.41 -172.38)"/><path class="cls-10" d="M1125,1803.07a12.82,12.82,0,0,1,4.57-4.54,12,12,0,0,1,6.09-1.6c3.51,0,6.12,1,7.84,3s2.58,4.95,2.6,8.9v21.5h-3.6v-21.53q0-4.38-1.86-6.54c-1.22-1.43-3.18-2.15-5.86-2.15a9.2,9.2,0,0,0-6,2.11,12.36,12.36,0,0,0-3.83,5.67v22.44h-3.6v-46.5h3.6Z" transform="translate(-102.41 -172.38)"/><path class="cls-10" d="M1190.15,1822a5.18,5.18,0,0,0-2.16-4.33,16.81,16.81,0,0,0-6.53-2.56,29.53,29.53,0,0,1-6.76-2.11,9.07,9.07,0,0,1-3.58-2.93,7.32,7.32,0,0,1-1.16-4.17,7.8,7.8,0,0,1,3.24-6.41,13.1,13.1,0,0,1,8.29-2.52,13.47,13.47,0,0,1,8.8,2.71,8.67,8.67,0,0,1,3.31,7.06H1190a5.86,5.86,0,0,0-2.41-4.78,10.84,10.84,0,0,0-11.8-.32,4.9,4.9,0,0,0-2.17,4.14,4.45,4.45,0,0,0,1.8,3.79c1.2.9,3.39,1.73,6.57,2.47a31.56,31.56,0,0,1,7.15,2.39,9.24,9.24,0,0,1,3.52,3.06,8.42,8.42,0,0,1-2.19,11,14.26,14.26,0,0,1-8.74,2.48,14.63,14.63,0,0,1-9.27-2.77,8.5,8.5,0,0,1-3.56-7h3.63a6.31,6.31,0,0,0,2.68,5,11,11,0,0,0,6.52,1.77,10.31,10.31,0,0,0,6.12-1.66A5,5,0,0,0,1190.15,1822Z" transform="translate(-102.41 -172.38)"/><path class="cls-10" d="M1207.56,1789.15v8.38h6.78v3h-6.78v21.85a6.88,6.88,0,0,0,1,4.06,3.82,3.82,0,0,0,3.29,1.33,22.72,22.72,0,0,0,2.93-.3l.15,2.94a11.83,11.83,0,0,1-3.87.51q-3.72,0-5.42-2.16t-1.7-6.37V1800.5h-6v-3h6v-8.38Z" transform="translate(-102.41 -172.38)"/><path class="cls-10" d="M1237,1800.62a13.55,13.55,0,0,0-2.45-.21,8.87,8.87,0,0,0-5.74,1.89,10.39,10.39,0,0,0-3.34,5.49v22.5h-3.6v-32.76h3.54l.06,5.21a9.62,9.62,0,0,1,9.23-5.81,6,6,0,0,1,2.39.39Z" transform="translate(-102.41 -172.38)"/><path class="cls-10" d="M1240.1,1813.42a19.28,19.28,0,0,1,1.83-8.5,13.75,13.75,0,0,1,12.76-8,13.48,13.48,0,0,1,10.6,4.58q4.05,4.59,4.06,12.16v.75a19.37,19.37,0,0,1-1.84,8.56,13.65,13.65,0,0,1-5.16,5.85,14.08,14.08,0,0,1-7.6,2.06,13.51,13.51,0,0,1-10.58-4.58q-4.07-4.59-4.07-12.16Zm3.63,1a14.88,14.88,0,0,0,3,9.65,10.31,10.31,0,0,0,15.92,0q3-3.78,3-10v-.7a16.64,16.64,0,0,0-1.39-6.87,11.28,11.28,0,0,0-3.9-4.83,10,10,0,0,0-5.76-1.71,9.69,9.69,0,0,0-7.9,3.8q-3.06,3.81-3.06,10Z" transform="translate(-102.41 -172.38)"/><path class="cls-10" d="M1280.27,1797.53l.13,5.6a12.86,12.86,0,0,1,4.6-4.61,11.92,11.92,0,0,1,6.08-1.59c3.51,0,6.13,1,7.84,3s2.59,4.95,2.61,8.9v21.5h-3.61v-21.53q0-4.38-1.86-6.54t-5.86-2.15a9.2,9.2,0,0,0-6,2.11,12.27,12.27,0,0,0-3.82,5.67v22.44h-3.61v-32.76Z" transform="translate(-102.41 -172.38)"/><path class="cls-10" d="M1309.43,1813.61q0-7.69,3.4-12.19a11,11,0,0,1,9.25-4.49,11.39,11.39,0,0,1,10.17,5.32l.19-4.72h3.39v32.09q0,6.33-3.55,10t-9.59,3.69a14.72,14.72,0,0,1-6.53-1.52,12.64,12.64,0,0,1-4.89-4.08l2-2.18c2.57,3.15,5.61,4.73,9.15,4.73a9.33,9.33,0,0,0,7.08-2.68,10.71,10.71,0,0,0,2.63-7.43v-4.12q-3.48,4.85-10.14,4.84a10.92,10.92,0,0,1-9.14-4.54q-3.45-4.55-3.45-12.26Zm3.66.63q0,6.27,2.51,9.89a8.14,8.14,0,0,0,7.09,3.61,9.66,9.66,0,0,0,9.47-6v-15.23a10.31,10.31,0,0,0-3.66-4.8,9.86,9.86,0,0,0-5.75-1.65,8.24,8.24,0,0,0-7.12,3.59Q1313.1,1807.25,1313.09,1814.24Z" transform="translate(-102.41 -172.38)"/><path class="cls-10" d="M1381,1830.29a17.33,17.33,0,0,1-.69-4.57,12.67,12.67,0,0,1-4.86,3.83,15,15,0,0,1-6.25,1.34,11,11,0,0,1-7.65-2.63,8.62,8.62,0,0,1-2.92-6.66,8.78,8.78,0,0,1,4-7.57q4-2.79,11.1-2.79h6.57v-3.72a7.14,7.14,0,0,0-2.17-5.52c-1.44-1.34-3.54-2-6.31-2a9.91,9.91,0,0,0-6.27,1.94,5.77,5.77,0,0,0-2.48,4.66l-3.63,0a8.41,8.41,0,0,1,3.63-6.76,14,14,0,0,1,8.93-2.86q5.49,0,8.65,2.74a9.84,9.84,0,0,1,3.25,7.64v15.5a19.09,19.09,0,0,0,1,7.11v.37Zm-11.38-2.61a12.14,12.14,0,0,0,6.49-1.75,10.38,10.38,0,0,0,4.17-4.69V1814h-6.48q-5.41.06-8.48,2a6,6,0,0,0-3,5.29,5.87,5.87,0,0,0,2,4.57A7.69,7.69,0,0,0,1369.64,1827.68Z" transform="translate(-102.41 -172.38)"/><path class="cls-10" d="M1397,1797.53l.12,5.6a12.86,12.86,0,0,1,4.6-4.61,12,12,0,0,1,6.09-1.59c3.51,0,6.12,1,7.84,3s2.58,4.95,2.6,8.9v21.5h-3.6v-21.53q0-4.38-1.86-6.54c-1.22-1.43-3.18-2.15-5.86-2.15a9.2,9.2,0,0,0-6,2.11,12.29,12.29,0,0,0-3.83,5.67v22.44h-3.6v-32.76Z" transform="translate(-102.41 -172.38)"/><path class="cls-10" d="M1426.16,1813.61q0-7.63,3.41-12.16a11,11,0,0,1,9.25-4.52,11.38,11.38,0,0,1,10.11,5.23v-18.37h3.6v46.5h-3.39l-.15-4.36q-3.48,5-10.23,5a10.93,10.93,0,0,1-9.13-4.55q-3.47-4.56-3.47-12.31Zm3.67.63q0,6.27,2.51,9.89a8.11,8.11,0,0,0,7.08,3.61,9.75,9.75,0,0,0,9.51-5.9v-15.38q-2.82-6.39-9.45-6.39a8.21,8.21,0,0,0-7.11,3.59Q1429.82,1807.25,1429.83,1814.24Z" transform="translate(-102.41 -172.38)"/><path class="cls-10" d="M1497.82,1830.29a17.26,17.26,0,0,1-.7-4.57,12.67,12.67,0,0,1-4.86,3.83,15,15,0,0,1-6.25,1.34,11,11,0,0,1-7.64-2.63,8.58,8.58,0,0,1-2.92-6.66,8.76,8.76,0,0,1,4-7.57q4-2.79,11.09-2.79h6.57v-3.72a7.17,7.17,0,0,0-2.16-5.52c-1.44-1.34-3.55-2-6.31-2a9.88,9.88,0,0,0-6.27,1.94,5.74,5.74,0,0,0-2.48,4.66l-3.64,0a8.42,8.42,0,0,1,3.64-6.76,14,14,0,0,1,8.93-2.86q5.48,0,8.64,2.74a9.84,9.84,0,0,1,3.26,7.64v15.5a19.34,19.34,0,0,0,1,7.11v.37Zm-11.38-2.61a12.16,12.16,0,0,0,6.49-1.75,10.35,10.35,0,0,0,4.16-4.69V1814h-6.48q-5.41.06-8.47,2a6,6,0,0,0-3.06,5.29,5.87,5.87,0,0,0,2,4.57A7.73,7.73,0,0,0,1486.44,1827.68Z" transform="translate(-102.41 -172.38)"/><path class="cls-10" d="M1530,1822a5.18,5.18,0,0,0-2.16-4.33,16.81,16.81,0,0,0-6.53-2.56,29.64,29.64,0,0,1-6.77-2.11,9.1,9.1,0,0,1-3.57-2.93,7.32,7.32,0,0,1-1.16-4.17,7.8,7.8,0,0,1,3.24-6.41,13.1,13.1,0,0,1,8.29-2.52,13.47,13.47,0,0,1,8.8,2.71,8.67,8.67,0,0,1,3.31,7.06h-3.63a5.86,5.86,0,0,0-2.41-4.78,10.84,10.84,0,0,0-11.8-.32,4.9,4.9,0,0,0-2.17,4.14,4.45,4.45,0,0,0,1.8,3.79c1.2.9,3.39,1.73,6.57,2.47a31.27,31.27,0,0,1,7.14,2.39,9.27,9.27,0,0,1,3.53,3.06,8.42,8.42,0,0,1-2.19,11,14.26,14.26,0,0,1-8.74,2.48,14.63,14.63,0,0,1-9.27-2.77,8.5,8.5,0,0,1-3.56-7h3.63a6.28,6.28,0,0,0,2.68,5,10.94,10.94,0,0,0,6.52,1.77,10.31,10.31,0,0,0,6.12-1.66A5,5,0,0,0,1530,1822Z" transform="translate(-102.41 -172.38)"/><path class="cls-10" d="M1561.36,1822a5.18,5.18,0,0,0-2.16-4.33,16.75,16.75,0,0,0-6.53-2.56,29.53,29.53,0,0,1-6.76-2.11,9,9,0,0,1-3.57-2.93,7.25,7.25,0,0,1-1.17-4.17,7.8,7.8,0,0,1,3.24-6.41,13.11,13.11,0,0,1,8.3-2.52,13.44,13.44,0,0,1,8.79,2.71,8.67,8.67,0,0,1,3.31,7.06h-3.63a5.87,5.87,0,0,0-2.4-4.78,10.86,10.86,0,0,0-11.81-.32,4.93,4.93,0,0,0-2.17,4.14,4.43,4.43,0,0,0,1.81,3.79c1.2.9,3.39,1.73,6.56,2.47a31.56,31.56,0,0,1,7.15,2.39,9.35,9.35,0,0,1,3.53,3.06,8.41,8.41,0,0,1-2.2,11,14.25,14.25,0,0,1-8.73,2.48,14.64,14.64,0,0,1-9.28-2.77,8.52,8.52,0,0,1-3.56-7h3.63a6.31,6.31,0,0,0,2.68,5,11,11,0,0,0,6.53,1.77,10.27,10.27,0,0,0,6.11-1.66A5,5,0,0,0,1561.36,1822Z" transform="translate(-102.41 -172.38)"/><path class="cls-10" d="M1585.82,1830.89a14.15,14.15,0,0,1-7.55-2.06,14,14,0,0,1-5.25-5.73,17.89,17.89,0,0,1-1.88-8.25v-1.3A19.29,19.29,0,0,1,1573,1805a14.56,14.56,0,0,1,5.1-6,12.63,12.63,0,0,1,7.09-2.16,11.81,11.81,0,0,1,9.46,4.07q3.5,4.07,3.5,11.12v2h-23.38v.7a13.74,13.74,0,0,0,3.2,9.28,10.16,10.16,0,0,0,8,3.7,11.93,11.93,0,0,0,5.13-1,11.41,11.41,0,0,0,4-3.4l2.27,1.73Q1593.42,1830.9,1585.82,1830.89Zm-.66-30.88a9.05,9.05,0,0,0-6.89,3,13.8,13.8,0,0,0-3.4,8h19.64v-.39a12,12,0,0,0-2.69-7.69A8.36,8.36,0,0,0,1585.16,1800Z" transform="translate(-102.41 -172.38)"/><path class="cls-10" d="M1620.31,1800.62a13.75,13.75,0,0,0-2.46-.21,8.83,8.83,0,0,0-5.73,1.89,10.34,10.34,0,0,0-3.35,5.49v22.5h-3.6v-32.76h3.54l.06,5.21a9.63,9.63,0,0,1,9.23-5.81,6.06,6.06,0,0,1,2.4.39Z" transform="translate(-102.41 -172.38)"/><path class="cls-10" d="M1633.17,1789.15v8.38H1640v3h-6.78v21.85a6.8,6.8,0,0,0,1,4.06,3.8,3.8,0,0,0,3.28,1.33,22.83,22.83,0,0,0,2.94-.3l.15,2.94a11.86,11.86,0,0,1-3.88.51q-3.72,0-5.42-2.16t-1.69-6.37V1800.5h-6v-3h6v-8.38Z" transform="translate(-102.41 -172.38)"/><path class="cls-10" d="M1647.25,1788.07a2.41,2.41,0,0,1,.67-1.73,2.36,2.36,0,0,1,1.81-.71,2.42,2.42,0,0,1,1.83.71,2.53,2.53,0,0,1,0,3.45,2.44,2.44,0,0,1-1.83.69,2.33,2.33,0,0,1-2.48-2.41Zm4.27,42.22h-3.64v-32.76h3.64Z" transform="translate(-102.41 -172.38)"/><path class="cls-10" d="M1671.56,1825.29l10-27.76h3.72L1673,1830.29h-2.93l-12.3-32.76h3.73Z" transform="translate(-102.41 -172.38)"/><path class="cls-10" d="M1703.47,1830.89a14.16,14.16,0,0,1-7.56-2.06,14,14,0,0,1-5.25-5.73,17.89,17.89,0,0,1-1.88-8.25v-1.3a19.16,19.16,0,0,1,1.84-8.51,14.56,14.56,0,0,1,5.1-6,12.6,12.6,0,0,1,7.08-2.16,11.8,11.8,0,0,1,9.46,4.07q3.49,4.07,3.5,11.12v2h-23.37v.7a13.73,13.73,0,0,0,3.19,9.28,10.16,10.16,0,0,0,8,3.7,11.87,11.87,0,0,0,5.13-1,11.41,11.41,0,0,0,4-3.4l2.27,1.73Q1711.07,1830.9,1703.47,1830.89Zm-.67-30.88a9.07,9.07,0,0,0-6.89,3,13.86,13.86,0,0,0-3.4,8h19.65v-.39a12.05,12.05,0,0,0-2.7-7.69A8.34,8.34,0,0,0,1702.8,1800Z" transform="translate(-102.41 -172.38)"/><path class="cls-10" d="M1061.55,1904.69a17.26,17.26,0,0,1-.7-4.57A12.67,12.67,0,0,1,1056,1904a15,15,0,0,1-6.25,1.34,11,11,0,0,1-7.64-2.63,8.58,8.58,0,0,1-2.92-6.66,8.76,8.76,0,0,1,4-7.57q4-2.79,11.09-2.78h6.57v-3.73a7.17,7.17,0,0,0-2.16-5.52q-2.17-2-6.31-2a9.88,9.88,0,0,0-6.27,1.94,5.74,5.74,0,0,0-2.48,4.66l-3.64,0a8.39,8.39,0,0,1,3.64-6.76,14,14,0,0,1,8.93-2.86q5.48,0,8.64,2.74a9.8,9.8,0,0,1,3.25,7.64v15.5a19.3,19.3,0,0,0,1,7.11v.37Zm-11.38-2.61a12.16,12.16,0,0,0,6.49-1.75,10.35,10.35,0,0,0,4.16-4.69v-7.21h-6.48q-5.41.06-8.47,2a6,6,0,0,0-3.06,5.29,5.87,5.87,0,0,0,2,4.57A7.73,7.73,0,0,0,1050.17,1902.08Z" transform="translate(-102.41 -172.38)"/><path class="cls-10" d="M1072.63,1888q0-7.63,3.41-12.16a10.93,10.93,0,0,1,9.24-4.52,11.38,11.38,0,0,1,10.11,5.23v-18.37H1099v46.5h-3.39l-.15-4.36q-3.49,5-10.24,5a10.93,10.93,0,0,1-9.12-4.55q-3.48-4.56-3.47-12.31Zm3.66.63q0,6.27,2.51,9.89a8.14,8.14,0,0,0,7.09,3.61,9.73,9.73,0,0,0,9.5-5.9v-15.38q-2.81-6.39-9.44-6.39a8.24,8.24,0,0,0-7.12,3.59Q1076.3,1881.65,1076.29,1888.64Z" transform="translate(-102.41 -172.38)"/><path class="cls-10" d="M1118.74,1899.69l10-27.76h3.72l-12.23,32.76h-2.94L1105,1871.93h3.72Z" transform="translate(-102.41 -172.38)"/><path class="cls-10" d="M1150.64,1905.29a14.15,14.15,0,0,1-7.55-2.06,14,14,0,0,1-5.25-5.73,17.92,17.92,0,0,1-1.88-8.25V1888a19.29,19.29,0,0,1,1.83-8.51,14.56,14.56,0,0,1,5.1-6,12.61,12.61,0,0,1,7.09-2.16,11.81,11.81,0,0,1,9.46,4.07q3.49,4.06,3.49,11.12v2h-23.37v.7a13.74,13.74,0,0,0,3.2,9.28,10.17,10.17,0,0,0,8,3.71,12,12,0,0,0,5.14-1.06,11.41,11.41,0,0,0,4-3.4l2.27,1.73Q1158.23,1905.3,1150.64,1905.29Zm-.66-30.88a9.05,9.05,0,0,0-6.89,3,13.87,13.87,0,0,0-3.41,8h19.65v-.39a12,12,0,0,0-2.69-7.69A8.36,8.36,0,0,0,1150,1874.41Z" transform="translate(-102.41 -172.38)"/><path class="cls-10" d="M1185.12,1875a13.55,13.55,0,0,0-2.45-.21,8.83,8.83,0,0,0-5.73,1.89,10.34,10.34,0,0,0-3.35,5.49v22.5H1170v-32.76h3.54l.06,5.21a9.63,9.63,0,0,1,9.23-5.81,6.06,6.06,0,0,1,2.4.39Z" transform="translate(-102.41 -172.38)"/><path class="cls-10" d="M1198,1863.55v8.38h6.78v3H1198v21.85a6.8,6.8,0,0,0,1,4.06,3.8,3.8,0,0,0,3.28,1.33,22.83,22.83,0,0,0,2.94-.3l.15,2.94a11.86,11.86,0,0,1-3.88.51q-3.72,0-5.42-2.16c-1.13-1.44-1.69-3.57-1.69-6.37V1874.9h-6v-3h6v-8.38Z" transform="translate(-102.41 -172.38)"/><path class="cls-10" d="M1212.07,1862.47a2.44,2.44,0,0,1,.66-1.73,2.51,2.51,0,0,1,4.33,1.73,2.35,2.35,0,0,1-.68,1.72,2.49,2.49,0,0,1-4.31-1.72Zm4.27,42.22h-3.64v-32.76h3.64Z" transform="translate(-102.41 -172.38)"/><path class="cls-10" d="M1245.79,1896.36a5.18,5.18,0,0,0-2.16-4.33,16.75,16.75,0,0,0-6.53-2.56,29.53,29.53,0,0,1-6.76-2.11,9,9,0,0,1-3.57-2.93,7.25,7.25,0,0,1-1.17-4.17,7.8,7.8,0,0,1,3.24-6.41,13.1,13.1,0,0,1,8.29-2.52,13.5,13.5,0,0,1,8.8,2.7,8.71,8.71,0,0,1,3.31,7.07h-3.63a5.87,5.87,0,0,0-2.4-4.78,10.86,10.86,0,0,0-11.81-.32,4.93,4.93,0,0,0-2.17,4.14,4.43,4.43,0,0,0,1.81,3.79c1.2.9,3.39,1.73,6.56,2.47a31.56,31.56,0,0,1,7.15,2.39,9.35,9.35,0,0,1,3.53,3.06,8.41,8.41,0,0,1-2.2,11,14.25,14.25,0,0,1-8.73,2.48,14.64,14.64,0,0,1-9.28-2.77,8.52,8.52,0,0,1-3.56-7h3.63a6.31,6.31,0,0,0,2.68,5,11,11,0,0,0,6.53,1.78,10.28,10.28,0,0,0,6.11-1.67A5,5,0,0,0,1245.79,1896.36Z" transform="translate(-102.41 -172.38)"/><path class="cls-10" d="M1257.36,1862.47a2.44,2.44,0,0,1,.66-1.73,2.51,2.51,0,0,1,4.33,1.73,2.35,2.35,0,0,1-.68,1.72,2.49,2.49,0,0,1-4.31-1.72Zm4.27,42.22H1258v-32.76h3.64Z" transform="translate(-102.41 -172.38)"/><path class="cls-10" d="M1274.92,1871.93l.12,5.6a13,13,0,0,1,4.6-4.62,12,12,0,0,1,6.08-1.58q5.28,0,7.84,3t2.61,8.9v21.5h-3.6v-21.53q0-4.38-1.87-6.54t-5.85-2.15a9.18,9.18,0,0,0-5.95,2.11,12.21,12.21,0,0,0-3.83,5.67v22.44h-3.61v-32.76Z" transform="translate(-102.41 -172.38)"/><path class="cls-10" d="M1304.07,1888q0-7.69,3.41-12.19a11,11,0,0,1,9.24-4.49,11.41,11.41,0,0,1,10.18,5.32l.18-4.72h3.39V1904q0,6.33-3.54,10a12.7,12.7,0,0,1-9.6,3.7,14.53,14.53,0,0,1-6.52-1.53,12.64,12.64,0,0,1-4.89-4.08l2-2.18c2.57,3.15,5.61,4.73,9.15,4.73a9.32,9.32,0,0,0,7.08-2.68,10.66,10.66,0,0,0,2.63-7.43v-4.12q-3.48,4.85-10.14,4.84a10.92,10.92,0,0,1-9.14-4.54q-3.45-4.55-3.45-12.26Zm3.66.63q0,6.27,2.52,9.89a8.11,8.11,0,0,0,7.08,3.61,9.66,9.66,0,0,0,9.47-6v-15.23a10.24,10.24,0,0,0-3.66-4.8,9.86,9.86,0,0,0-5.75-1.65,8.21,8.21,0,0,0-7.11,3.59Q1307.73,1881.65,1307.73,1888.64Z" transform="translate(-102.41 -172.38)"/><path class="cls-10" d="M1367.1,1902.24a9.57,9.57,0,0,0,6.34-2.14,7.48,7.48,0,0,0,2.77-5.52h3.48a10.24,10.24,0,0,1-1.87,5.46,11.72,11.72,0,0,1-4.59,3.86,13.8,13.8,0,0,1-6.13,1.39,12.64,12.64,0,0,1-10.22-4.48q-3.77-4.49-3.77-12v-1.09a20.43,20.43,0,0,1,1.7-8.56,13.08,13.08,0,0,1,4.86-5.76,13.41,13.41,0,0,1,7.4-2,12.66,12.66,0,0,1,8.88,3.2,11.71,11.71,0,0,1,3.74,8.45h-3.48a8.78,8.78,0,0,0-9.14-8.57,9,9,0,0,0-7.62,3.55q-2.7,3.54-2.7,9.93V1889q0,6.25,2.7,9.77A9.12,9.12,0,0,0,1367.1,1902.24Z" transform="translate(-102.41 -172.38)"/><path class="cls-10" d="M1407.6,1904.69a17.33,17.33,0,0,1-.69-4.57,12.67,12.67,0,0,1-4.86,3.83,15,15,0,0,1-6.25,1.34,11,11,0,0,1-7.65-2.63,8.62,8.62,0,0,1-2.92-6.66,8.78,8.78,0,0,1,4-7.57q4-2.79,11.1-2.78h6.57v-3.73a7.14,7.14,0,0,0-2.17-5.52q-2.16-2-6.31-2a9.91,9.91,0,0,0-6.27,1.94,5.77,5.77,0,0,0-2.48,4.66l-3.63,0a8.41,8.41,0,0,1,3.63-6.76,14,14,0,0,1,8.93-2.86q5.49,0,8.65,2.74a9.84,9.84,0,0,1,3.25,7.64v15.5a19.09,19.09,0,0,0,1,7.11v.37Zm-11.38-2.61a12.14,12.14,0,0,0,6.49-1.75,10.38,10.38,0,0,0,4.17-4.69v-7.21h-6.48q-5.42.06-8.48,2a6,6,0,0,0-3.05,5.29,5.87,5.87,0,0,0,2,4.57A7.69,7.69,0,0,0,1396.22,1902.08Z" transform="translate(-102.41 -172.38)"/><path class="cls-10" d="M1423.44,1871.93l.12,5.33a12.08,12.08,0,0,1,4.54-4.45,12.43,12.43,0,0,1,6.05-1.48q7.75,0,9.84,6.35a12.34,12.34,0,0,1,4.7-4.7,13,13,0,0,1,6.47-1.65q10.54,0,10.75,11.5v21.86h-3.63V1883.1q0-4.38-1.89-6.51c-1.24-1.41-3.27-2.12-6.07-2.12a9.65,9.65,0,0,0-6.6,2.53,8.93,8.93,0,0,0-3,6v21.68h-3.63v-21.86q0-4.21-2-6.28c-1.3-1.38-3.3-2.08-6-2.08a9.1,9.1,0,0,0-5.87,2,11.48,11.48,0,0,0-3.63,5.79v22.47H1420v-32.76Z" transform="translate(-102.41 -172.38)"/><path class="cls-10" d="M1501.42,1888.64q0,7.66-3.39,12.16a10.81,10.81,0,0,1-9.08,4.49q-6.72,0-10.29-4.72v16.71h-3.61v-45.35h3.36l.19,4.63a11.62,11.62,0,0,1,10.26-5.23,10.9,10.9,0,0,1,9.22,4.45q3.35,4.44,3.34,12.35Zm-3.63-.63q0-6.27-2.57-9.9a8.32,8.32,0,0,0-7.18-3.64,9.57,9.57,0,0,0-9.38,6.27v15.71a9.53,9.53,0,0,0,3.72,4.3,10.71,10.71,0,0,0,5.72,1.49,8.22,8.22,0,0,0,7.13-3.65Q1497.8,1894.95,1497.79,1888Z" transform="translate(-102.41 -172.38)"/><path class="cls-10" d="M1530.12,1904.69a17.68,17.68,0,0,1-.7-4.57,12.72,12.72,0,0,1-4.85,3.83,15,15,0,0,1-6.26,1.34,11,11,0,0,1-7.64-2.63,8.58,8.58,0,0,1-2.92-6.66,8.78,8.78,0,0,1,4-7.57q4-2.79,11.1-2.78h6.56v-3.73a7.17,7.17,0,0,0-2.16-5.52c-1.44-1.35-3.55-2-6.31-2a9.9,9.9,0,0,0-6.27,1.94,5.77,5.77,0,0,0-2.48,4.66l-3.63,0a8.41,8.41,0,0,1,3.63-6.76,14,14,0,0,1,8.93-2.86q5.48,0,8.64,2.74a9.81,9.81,0,0,1,3.26,7.64v15.5a19.09,19.09,0,0,0,1,7.11v.37Zm-11.38-2.61a12.14,12.14,0,0,0,6.49-1.75,10.3,10.3,0,0,0,4.16-4.69v-7.21h-6.47c-3.62,0-6.44.7-8.48,2a6,6,0,0,0-3.06,5.29,5.87,5.87,0,0,0,2,4.57A7.73,7.73,0,0,0,1518.74,1902.08Z" transform="translate(-102.41 -172.38)"/><path class="cls-10" d="M1542.44,1862.47a2.41,2.41,0,0,1,.67-1.73,2.37,2.37,0,0,1,1.81-.71,2.46,2.46,0,0,1,1.84.71,2.53,2.53,0,0,1,0,3.45,2.48,2.48,0,0,1-1.84.69,2.33,2.33,0,0,1-2.48-2.41Zm4.27,42.22h-3.63v-32.76h3.63Z" transform="translate(-102.41 -172.38)"/><path class="cls-10" d="M1555.1,1888q0-7.69,3.4-12.19a11,11,0,0,1,9.25-4.49,11.39,11.39,0,0,1,10.17,5.32l.18-4.72h3.4V1904q0,6.33-3.55,10a12.68,12.68,0,0,1-9.59,3.7,14.6,14.6,0,0,1-6.53-1.53,12.64,12.64,0,0,1-4.89-4.08l2-2.18q3.84,4.72,9.14,4.73a9.34,9.34,0,0,0,7.09-2.68,10.71,10.71,0,0,0,2.63-7.43v-4.12q-3.48,4.85-10.14,4.84a10.92,10.92,0,0,1-9.14-4.54q-3.45-4.55-3.45-12.26Zm3.66.63q0,6.27,2.51,9.89a8.14,8.14,0,0,0,7.09,3.61,9.67,9.67,0,0,0,9.47-6v-15.23a10.37,10.37,0,0,0-3.66-4.8,9.88,9.88,0,0,0-5.75-1.65,8.24,8.24,0,0,0-7.12,3.59Q1558.77,1881.65,1558.76,1888.64Z" transform="translate(-102.41 -172.38)"/><path class="cls-10" d="M1594.39,1871.93l.12,5.6a13,13,0,0,1,4.6-4.62,12.07,12.07,0,0,1,6.09-1.58q5.27,0,7.84,3t2.6,8.9v21.5H1612v-21.53q0-4.38-1.86-6.54c-1.22-1.43-3.18-2.15-5.86-2.15a9.2,9.2,0,0,0-6,2.11,12.36,12.36,0,0,0-3.83,5.67v22.44h-3.6v-32.76Z" transform="translate(-102.41 -172.38)"/><path class="cls-10" d="M1644.62,1896.36a5.18,5.18,0,0,0-2.17-4.33,16.76,16.76,0,0,0-6.52-2.56,29.64,29.64,0,0,1-6.77-2.11,9.1,9.1,0,0,1-3.57-2.93,7.25,7.25,0,0,1-1.17-4.17,7.8,7.8,0,0,1,3.24-6.41,13.13,13.13,0,0,1,8.3-2.52,13.49,13.49,0,0,1,8.79,2.7,8.72,8.72,0,0,1,3.32,7.07h-3.64a5.87,5.87,0,0,0-2.4-4.78,10.86,10.86,0,0,0-11.81-.32,4.92,4.92,0,0,0-2.16,4.14,4.45,4.45,0,0,0,1.8,3.79c1.2.9,3.39,1.73,6.57,2.47a31.27,31.27,0,0,1,7.14,2.39,9.27,9.27,0,0,1,3.53,3.06,8.41,8.41,0,0,1-2.2,11,14.25,14.25,0,0,1-8.73,2.48,14.64,14.64,0,0,1-9.28-2.77,8.52,8.52,0,0,1-3.56-7H1627a6.3,6.3,0,0,0,2.67,5,11,11,0,0,0,6.53,1.78,10.28,10.28,0,0,0,6.11-1.67A5,5,0,0,0,1644.62,1896.36Z" transform="translate(-102.41 -172.38)"/><rect class="cls-11" x="1417.11" y="1035.51" width="185.4" height="32.42"/><rect class="cls-12" x="1417.11" y="756.65" width="185.4" height="23.28"/><path d="M1513.35,926.43v327.49a19.82,19.82,0,0,0,19.82,19.82h157.42a19.81,19.81,0,0,0,19.81-19.82V926.43a19.81,19.81,0,0,0-19.81-19.81H1533.17A19.81,19.81,0,0,0,1513.35,926.43Zm175.42,307.21H1535a7,7,0,0,1-7-7.05V942.24a7,7,0,0,1,7-7h153.78a7,7,0,0,1,7,7v284.35A7,7,0,0,1,1688.77,1233.64Z" transform="translate(-102.41 -172.38)"/><path class="cls-13" d="M1548.7,1372.25H1675a29.91,29.91,0,0,0,30-30h0a29.91,29.91,0,0,0-30-30H1470.28a43.77,43.77,0,0,0-31.15,12.79l-48.94,46.72" transform="translate(-102.41 -172.38)"/><path class="cls-14" d="M1491.42,1468.47l219.69-27.81a54.26,54.26,0,0,0,20.58-7.79l134-91.21c13.9-8.9,18.35-27.26,9.45-41.16h0c-8.9-13.91-27.25-18.36-41.16-9.46l-117.35,74c-7.79,4.45-16.13,7.23-25,7.23h-143" transform="translate(-102.41 -172.38)"/><path class="cls-15" d="M1347.36,1351.11h17.8a21.09,21.09,0,0,1,18.91,11.13l68.41,112.35c8.9,15-1.67,33.93-18.91,33.93h0" transform="translate(-102.41 -172.38)"/><rect class="cls-16" x="1434.77" y="924.76" width="150.08" height="16.69"/><rect class="cls-17" x="1434.77" y="950.43" width="70.68" height="70.68"/><rect class="cls-18" x="1512.13" y="950.43" width="70.68" height="70.68"/><rect class="cls-16" x="1434.77" y="819.43" width="150.08" height="16.69"/><rect class="cls-19" x="1434.77" y="789.83" width="150.08" height="16.69"/><rect class="cls-18" x="1434.77" y="845.1" width="70.68" height="70.68"/><rect class="cls-20" x="1512.13" y="845.1" width="70.68" height="70.68"/><path class="cls-21" d="M1808.43,1010.1a95.5,95.5,0,0,1,0,150.13" transform="translate(-102.41 -172.38)"/><path class="cls-21" d="M1779,1038.77a59,59,0,0,1,0,92.78" transform="translate(-102.41 -172.38)"/><path class="cls-21" d="M1418.76,1160.23a95.5,95.5,0,0,1,0-150.13" transform="translate(-102.41 -172.38)"/><path class="cls-21" d="M1448.15,1131.55a59,59,0,0,1,0-92.78" transform="translate(-102.41 -172.38)"/><path d="M1580,844.88c-.06-7.1,5.82-10.55,6.09-10.71a13.09,13.09,0,0,0-10.3-5.57c-4.34-.46-8.54,2.59-10.75,2.59s-5.65-2.55-9.31-2.47a13.71,13.71,0,0,0-11.54,7c-5,8.64-1.27,21.34,3.51,28.32,2.4,3.42,5.19,7.24,8.85,7.11s4.92-2.28,9.23-2.28,5.54,2.28,9.27,2.19,6.26-3.43,8.57-6.89a28.59,28.59,0,0,0,3.92-8A12.35,12.35,0,0,1,1580,844.88Z" transform="translate(-102.41 -172.38)"/><path d="M1572.93,824a12.54,12.54,0,0,0,2.87-9,12.79,12.79,0,0,0-8.27,4.28c-1.78,2.08-3.37,5.48-3,8.67C1567.7,828.19,1570.92,826.37,1572.93,824Z" transform="translate(-102.41 -172.38)"/><g id="g48"><g id="path64"><g class="cls-22"><polygon class="cls-23" points="1555.79 696.98 1560.37 692.45 1560.37 696.98 1555.79 696.98"/><polygon class="cls-23" points="1555.57 696.98 1560.37 692.24 1560.37 692.45 1555.79 696.98 1555.57 696.98"/><polygon class="cls-24" points="1555.35 696.98 1560.37 692.03 1560.37 692.24 1555.57 696.98 1555.35 696.98"/><polygon class="cls-24" points="1554.78 696.98 1560.37 691.46 1560.37 692.03 1555.35 696.98 1554.78 696.98"/><polygon class="cls-25" points="1554.2 696.98 1560.37 690.89 1560.37 691.46 1554.78 696.98 1554.2 696.98"/><polygon class="cls-26" points="1553.63 696.98 1560.37 690.33 1560.37 690.89 1554.2 696.98 1553.63 696.98"/><polygon class="cls-27" points="1553.06 696.98 1560.37 689.76 1560.37 690.33 1553.63 696.98 1553.06 696.98"/><polygon class="cls-28" points="1552.48 696.98 1560.37 689.19 1560.37 689.76 1553.06 696.98 1552.48 696.98"/><polygon class="cls-29" points="1551.91 696.98 1560.37 688.62 1560.37 689.19 1552.48 696.98 1551.91 696.98"/><polygon class="cls-30" points="1551.34 696.98 1560.37 688.06 1560.37 688.62 1551.91 696.98 1551.34 696.98"/><polygon class="cls-31" points="1550.76 696.98 1560.37 687.49 1560.37 688.06 1551.34 696.98 1550.76 696.98"/><polygon class="cls-32" points="1550.19 696.98 1560.37 686.92 1560.37 687.49 1550.76 696.98 1550.19 696.98"/><polygon class="cls-33" points="1549.62 696.98 1560.37 686.36 1560.37 686.92 1550.19 696.98 1549.62 696.98"/><polygon class="cls-34" points="1549.04 696.98 1560.37 685.79 1560.37 686.36 1549.62 696.98 1549.04 696.98"/><polygon class="cls-35" points="1548.47 696.98 1560.37 685.22 1560.37 685.79 1549.04 696.98 1548.47 696.98"/><polygon class="cls-36" points="1547.89 696.98 1560.37 684.65 1560.37 685.22 1548.47 696.98 1547.89 696.98"/><polygon class="cls-37" points="1547.32 696.98 1560.37 684.09 1560.37 684.65 1547.89 696.98 1547.32 696.98"/><polygon class="cls-38" points="1546.75 696.98 1560.37 683.52 1560.37 684.09 1547.32 696.98 1546.75 696.98"/><polygon class="cls-39" points="1546.17 696.98 1560.37 682.95 1560.37 683.52 1546.75 696.98 1546.17 696.98"/><polygon class="cls-40" points="1545.6 696.98 1560.37 682.39 1560.37 682.95 1546.17 696.98 1545.6 696.98"/><polygon class="cls-41" points="1545.03 696.98 1560.37 681.82 1560.37 682.39 1545.6 696.98 1545.03 696.98"/><polygon class="cls-42" points="1544.45 696.98 1560.37 681.25 1560.37 681.82 1545.03 696.98 1544.45 696.98"/><polygon class="cls-43" points="1543.88 696.98 1560.37 680.69 1560.37 681.25 1544.45 696.98 1543.88 696.98"/><polygon class="cls-44" points="1543.31 696.98 1560.37 680.12 1560.37 680.69 1543.88 696.98 1543.31 696.98"/><polygon class="cls-45" points="1542.73 696.98 1560.37 679.55 1560.37 680.12 1543.31 696.98 1542.73 696.98"/><polygon class="cls-46" points="1542.16 696.98 1560.37 678.99 1560.37 679.55 1542.73 696.98 1542.16 696.98"/><polygon class="cls-47" points="1541.58 696.98 1560.37 678.42 1560.37 678.99 1542.16 696.98 1541.58 696.98"/><polygon class="cls-48" points="1541.01 696.98 1560.37 677.85 1560.37 678.42 1541.58 696.98 1541.01 696.98"/><polygon class="cls-49" points="1540.44 696.98 1560.37 677.28 1560.37 677.85 1541.01 696.98 1540.44 696.98"/><polygon class="cls-50" points="1539.86 696.98 1560.37 676.72 1560.37 677.28 1540.44 696.98 1539.86 696.98"/><polygon class="cls-51" points="1539.29 696.98 1560.37 676.15 1560.37 676.72 1539.86 696.98 1539.29 696.98"/><polygon class="cls-52" points="1538.71 696.98 1560.37 675.58 1560.37 676.15 1539.29 696.98 1538.71 696.98"/><polygon class="cls-52" points="1537.89 696.98 1560.37 674.77 1560.37 675.58 1538.71 696.98 1537.89 696.98"/><polygon class="cls-53" points="1537.06 696.98 1560.37 673.95 1560.37 674.77 1537.89 696.98 1537.06 696.98"/><polygon class="cls-54" points="1536.23 696.98 1560.37 673.13 1560.37 673.95 1537.06 696.98 1536.23 696.98"/><polygon class="cls-55" points="1535.41 696.98 1560.37 672.31 1560.37 673.13 1536.23 696.98 1535.41 696.98"/><polygon class="cls-56" points="1535.09 696.48 1560.37 671.5 1560.37 672.31 1535.41 696.98 1535.09 696.98 1535.09 696.48"/><polygon class="cls-57" points="1535.09 695.66 1560.37 670.68 1560.37 671.5 1535.09 696.48 1535.09 695.66"/><polygon class="cls-58" points="1535.09 694.84 1560.37 669.86 1560.37 670.68 1535.09 695.66 1535.09 694.84"/><polygon class="cls-59" points="1535.09 694.03 1560.05 669.36 1560.37 669.68 1560.37 669.86 1535.09 694.84 1535.09 694.03"/><polygon class="cls-60" points="1535.09 693.21 1559.63 668.95 1560.05 669.36 1535.09 694.03 1535.09 693.21"/><polygon class="cls-61" points="1535.09 692.39 1559.22 668.54 1559.63 668.95 1535.09 693.21 1535.09 692.39"/><polygon class="cls-62" points="1535.09 691.57 1558.81 668.13 1559.22 668.54 1535.09 692.39 1535.09 691.57"/><polygon class="cls-63" points="1535.09 690.76 1558.39 667.73 1558.81 668.13 1535.09 691.57 1535.09 690.76"/><polygon class="cls-64" points="1535.09 689.94 1557.98 667.32 1558.39 667.73 1535.09 690.76 1535.09 689.94"/><polygon class="cls-65" points="1535.09 689.12 1557.56 666.91 1557.98 667.32 1535.09 689.94 1535.09 689.12"/><polygon class="cls-66" points="1535.09 688.3 1557.15 666.5 1557.56 666.91 1535.09 689.12 1535.09 688.3"/><polygon class="cls-67" points="1535.09 687.49 1556.74 666.09 1557.15 666.5 1535.09 688.3 1535.09 687.49"/><polygon class="cls-68" points="1535.09 686.67 1556.32 665.68 1556.74 666.09 1535.09 687.49 1535.09 686.67"/><polygon class="cls-69" points="1535.09 685.85 1555.91 665.27 1556.32 665.68 1535.09 686.67 1535.09 685.85"/><polygon class="cls-70" points="1535.09 685.03 1555.5 664.86 1555.91 665.27 1535.09 685.85 1535.09 685.03"/><polygon class="cls-71" points="1535.09 684.22 1555.08 664.45 1555.5 664.86 1535.09 685.03 1535.09 684.22"/><polygon class="cls-71" points="1535.09 682.98 1554.46 663.84 1555.08 664.45 1535.09 684.22 1535.09 682.98"/><polygon class="cls-72" points="1535.09 681.74 1553.83 663.22 1554.46 663.84 1535.09 682.98 1535.09 681.74"/><polygon class="cls-73" points="1535.09 680.5 1553.2 662.6 1553.83 663.22 1535.09 681.74 1535.09 680.5"/><polygon class="cls-74" points="1535.09 679.26 1552.58 661.98 1553.2 662.6 1535.09 680.5 1535.09 679.26"/><polygon class="cls-75" points="1535.09 678.02 1551.95 661.36 1552.58 661.98 1535.09 679.26 1535.09 678.02"/><polygon class="cls-76" points="1535.09 676.78 1551.32 660.74 1551.95 661.36 1535.09 678.02 1535.09 676.78"/><polygon class="cls-77" points="1535.09 675.55 1550.7 660.12 1551.32 660.74 1535.09 676.78 1535.09 675.55"/><polygon class="cls-78" points="1535.09 674.31 1550.07 659.5 1550.7 660.12 1535.09 675.55 1535.09 674.31"/><polygon class="cls-79" points="1535.09 673.07 1549.44 658.88 1550.07 659.5 1535.09 674.31 1535.09 673.07"/><polygon class="cls-80" points="1535.09 671.83 1548.82 658.26 1549.44 658.88 1535.09 673.07 1535.09 671.83"/><polygon class="cls-81" points="1535.09 670.59 1548.19 657.64 1548.82 658.26 1535.09 671.83 1535.09 670.59"/><polygon class="cls-82" points="1535.09 669.36 1547.57 657.02 1548.19 657.64 1535.09 670.59 1535.09 669.36"/><polygon class="cls-83" points="1535.09 668.12 1546.94 656.4 1547.57 657.02 1535.09 669.36 1535.09 668.12"/><polygon class="cls-83" points="1535.09 664.23 1544.97 654.46 1546.94 656.4 1535.09 668.12 1535.09 664.23"/><polygon class="cls-84" points="1535.09 660.35 1543.01 652.52 1544.97 654.46 1535.09 664.23 1535.09 660.35"/><polygon class="cls-85" points="1535.09 656.46 1541.04 650.58 1543.01 652.52 1535.09 660.35 1535.09 656.46"/><polygon class="cls-86" points="1535.09 652.58 1539.08 648.63 1541.04 650.58 1535.09 656.46 1535.09 652.58"/><polygon class="cls-86" points="1538.98 648.54 1539.08 648.63 1535.09 652.58 1535.09 648.54 1538.98 648.54"/></g></g></g><g id="g66"><g id="path78"><g class="cls-87"><rect class="cls-88" x="1580.64" y="664.5" width="0.28" height="16.53"/><rect class="cls-89" x="1580.09" y="664.5" width="0.55" height="16.53"/><rect class="cls-90" x="1579.54" y="664.5" width="0.55" height="16.53"/><rect class="cls-91" x="1578.98" y="664.5" width="0.55" height="16.53"/><rect class="cls-92" x="1578.43" y="664.5" width="0.55" height="16.53"/><rect class="cls-93" x="1577.88" y="664.5" width="0.55" height="16.53"/><rect class="cls-94" x="1577.33" y="664.5" width="0.55" height="16.53"/><rect class="cls-95" x="1576.77" y="664.5" width="0.55" height="16.53"/><rect class="cls-96" x="1576.22" y="664.5" width="0.55" height="16.53"/><rect class="cls-97" x="1575.67" y="664.5" width="0.55" height="16.53"/><rect class="cls-98" x="1575.12" y="664.5" width="0.55" height="16.53"/><rect class="cls-99" x="1574.56" y="664.5" width="0.55" height="16.53"/><rect class="cls-100" x="1574.01" y="664.5" width="0.55" height="16.53"/><rect class="cls-101" x="1573.46" y="664.5" width="0.55" height="16.53"/><rect class="cls-102" x="1572.91" y="664.5" width="0.55" height="16.53"/><rect class="cls-103" x="1572.35" y="664.5" width="0.55" height="16.53"/><rect class="cls-104" x="1571.8" y="664.5" width="0.55" height="16.53"/><rect class="cls-105" x="1571.25" y="664.5" width="0.55" height="16.53"/><rect class="cls-106" x="1570.7" y="664.5" width="0.55" height="16.53"/><rect class="cls-107" x="1570.14" y="664.5" width="0.55" height="16.53"/><rect class="cls-108" x="1569.59" y="664.5" width="0.55" height="16.53"/><rect class="cls-109" x="1569.04" y="664.5" width="0.55" height="16.53"/><rect class="cls-110" x="1568.49" y="664.5" width="0.55" height="16.53"/><rect class="cls-111" x="1567.94" y="664.5" width="0.55" height="16.53"/><rect class="cls-112" x="1567.38" y="664.5" width="0.55" height="16.53"/><rect class="cls-113" x="1566.83" y="664.5" width="0.55" height="16.53"/><rect class="cls-114" x="1566.28" y="664.5" width="0.55" height="16.53"/><rect class="cls-115" x="1565.73" y="664.5" width="0.55" height="16.53"/><rect class="cls-116" x="1565.17" y="664.5" width="0.55" height="16.53"/><rect class="cls-117" x="1564.62" y="664.5" width="0.55" height="16.53"/><rect class="cls-118" x="1564.07" y="664.5" width="0.55" height="16.53"/><rect class="cls-119" x="1563.52" y="664.5" width="0.55" height="16.53"/><rect class="cls-120" x="1562.96" y="664.5" width="0.55" height="16.53"/><rect class="cls-121" x="1562.41" y="664.5" width="0.55" height="16.53"/><rect class="cls-121" x="1561.69" y="664.5" width="0.72" height="16.53"/><rect class="cls-122" x="1560.96" y="664.5" width="0.72" height="16.53"/><rect class="cls-123" x="1560.37" y="664.5" width="0.6" height="16.53"/></g></g></g><g id="g80"><g id="path88"><g class="cls-124"><polygon class="cls-125" points="1536 696.14 1559.65 672.76 1563.2 672.76 1568.63 678.12 1568.63 697.91 1536 697.91 1536 696.14"/><polygon class="cls-125" points="1536 694.67 1558.16 672.76 1559.65 672.76 1536 696.14 1536 694.67"/><polygon class="cls-126" points="1536 693.21 1556.68 672.76 1558.16 672.76 1536 694.67 1536 693.21"/><polygon class="cls-127" points="1536 691.74 1555.2 672.76 1556.68 672.76 1536 693.21 1536 691.74"/><polygon class="cls-128" points="1536 690.27 1553.71 672.76 1555.2 672.76 1536 691.74 1536 690.27"/><polygon class="cls-129" points="1536 688.81 1552.23 672.76 1553.71 672.76 1536 690.27 1536 688.81"/><polygon class="cls-130" points="1536 687.34 1550.75 672.76 1552.23 672.76 1536 688.81 1536 687.34"/><polygon class="cls-131" points="1536 685.88 1549.26 672.76 1550.75 672.76 1536 687.34 1536 685.88"/><polygon class="cls-132" points="1536 684.41 1547.78 672.76 1549.26 672.76 1536 685.88 1536 684.41"/><polygon class="cls-133" points="1536 682.94 1546.3 672.76 1547.78 672.76 1536 684.41 1536 682.94"/><polygon class="cls-134" points="1536 681.48 1544.81 672.76 1546.3 672.76 1536 682.94 1536 681.48"/><polygon class="cls-135" points="1536 680.01 1543.33 672.76 1544.81 672.76 1536 681.48 1536 680.01"/><polygon class="cls-136" points="1536 678.54 1541.85 672.76 1543.33 672.76 1536 680.01 1536 678.54"/><polygon class="cls-137" points="1536 677.08 1540.36 672.76 1541.85 672.76 1536 678.54 1536 677.08"/><polygon class="cls-138" points="1536 675.61 1538.88 672.76 1540.36 672.76 1536 677.08 1536 675.61"/><polygon class="cls-139" points="1536 674.15 1537.4 672.76 1538.88 672.76 1536 675.61 1536 674.15"/><polygon class="cls-140" points="1537.4 672.76 1536 674.15 1536 672.76 1537.4 672.76"/></g></g></g><g id="g90"><g id="path104"><g class="cls-141"><polygon class="cls-142" points="1568.63 667.4 1563.2 672.76 1536 672.76 1536 647.63 1568.63 647.63 1568.63 667.4"/></g></g></g><path class="cls-143" d="M869.86,657.19H1892.45c118,0,213.61,95.64,213.61,213.61h0c0,118-95.64,213.61-213.61,213.61" transform="translate(-102.41 -172.38)"/><circle class="cls-144" cx="435.65" cy="2090.87" r="378.18"/><path class="cls-145" d="M537.09,2597.58c10.91-22.77-21.41-41-37.56-52.65-25-17.91-14.53-25.31-45.24-10.55-24.69,11.87-62.7-23-101.33-33.07-31.83-8.3-32-27.13-35.17-55.2-5.6-49.55,1.66-55.84,59.85-65.72,14.35-2.43,29.62,9.58,45.61,5.94,12.74-2.9,22.1-16.71,33.08-22.62,19.53-10.51,53.79-21.71,65.58-40.28,13.38-21.07,4.6-54.94,10.58-79,7.59-30.63,32.34-49.74,35.23-80.38,1.43-15.2-11.61-67-20.41-79.21-16.92-23.51-20.37-21.25-51.46-11.48C440,2090.86,399.41,2121.44,342,2090c-26-14.22-59.34-34.65-81.77-62.81-13.28-16.69-38.92-15.73-51.27,1.66a406.39,406.39,0,0,0-45.79,83.9,401.35,401.35,0,0,0-20,64.2c-8.84,40.6-6.45,36.84,8.25,63.78,13.06,24,28.86,63.54,45.13,86.46,20.69,29.13,57.36,29,66.88,66.65,7.17,28.4-18.72,59.88-3.24,87,8.44,14.82,27.34,11,36.56,22.57,5.79,7.28,11.4,34.87,14.39,41.75,5.25,12,18.11,60.44,24.42,67.83,23.86,27.95,85.12,42.17,132.4,48.85,15.39,2.18,30.47-6.66,35.44-21.39C508.87,2624.49,529,2614.48,537.09,2597.58Z" transform="translate(-102.41 -172.38)"/><path class="cls-145" d="M653.17,2068.22c-.34,15.21,16.67,77.31,27.45,87.27,36.8,34,69.7-28.45,97-28.93,46.79-.83,33.21,43.43,50,70.54,20,32.39,47.56,33.06,77.77,31.74a32.17,32.17,0,0,0,30.27-37.94c-18.4-100.37-75.18-191.38-157-252.33a32.13,32.13,0,0,0-47,10c-10.44,18.28-20.69,36-35.68,52.75C676.18,2023.26,653.91,2034.62,653.17,2068.22Z" transform="translate(-102.41 -172.38)"/><path class="cls-1" d="M538.06,2641.44a378.21,378.21,0,0,0,108.79-15.89c-7.65-20.7,10.7-48.77.34-69-10.5-20.51-40.82-21.91-57.19-35.76-15.8-13.39-24.29-40.47-20.67-62.43,5.87-35.57,48.13-35.66,43.17-75.18-3.4-27.16-26.65-38.87-15.17-68.13,5.82-14.82,24.82-40.84,37.07-51.39,16.67-14.34,43-18.38,65.51-13.33,37.09,8.32,23.6,45.42,58.78,55.45,42.08,12,78.7-16.36,110.42,21.26,11.82,14,21.34,30.6,30.48,47.55a378,378,0,0,0,16.66-111.32c0-208.86-169.32-378.18-378.19-378.18s-378.18,169.32-378.18,378.18S329.2,2641.44,538.06,2641.44Z" transform="translate(-102.41 -172.38)"/><path class="cls-145" d="M777.16,2311.35c-38.59-11-23.79-51.71-64.49-60.83-24.71-5.55-53.59-1.12-71.87,14.62-13.44,11.57-34.28,40.12-40.67,56.38-12.6,32.1,12.91,44.95,16.65,74.74,5.43,43.36-40.92,43.46-47.37,82.49-4,24.08,5.34,53.8,22.68,68.49,18,15.2,51.22,16.73,62.74,39.24,3,5.8,3.79,12.2,3.53,18.88-1.09,27.89,27.82,46.91,53.08,35a416.22,416.22,0,0,0,215-237.55,37,37,0,0,0-2.79-30.61c-7.65-13.4-15.83-26.24-25.37-37.56C863.51,2293.4,823.33,2324.51,777.16,2311.35Z" transform="translate(-102.41 -172.38)"/><path class="cls-18" d="M333.94,1960c14.31,10.24,29.05,6.25,47,5.49,51.45-2.19,50.48,18.22,94.33,41.09,14.6,7.61,65.3,15.07,77.32-.43,7.58-9.78-5.24-21.1-1.44-34.92,4.84-17.65,13.37-16.84,27.54-21.68,42.8-14.63,61.19-2.36,88.08-40.19l.15-.22a18,18,0,0,0-8.68-27.41,364.91,364.91,0,0,0-328,42.88,18,18,0,0,0-4.84,24.71C328.92,1954.66,332.07,1958.66,333.94,1960Z" transform="translate(-102.41 -172.38)"/><path class="cls-146" d="M975.8,2263.87c0,237.7-192.69,430.4-430.4,430.4S115,2501.57,115,2263.87,508.71,2580.94,975.8,2263.87Z" transform="translate(-102.41 -172.38)"/><path class="cls-147" d="M881.94,1711.17H556.35a130.46,130.46,0,0,1-130.46-130.46V1579a130.46,130.46,0,0,0-130.46-130.46H242.87a130.46,130.46,0,0,1-130.46-130.47V1101A130.46,130.46,0,0,1,242.87,970.56H366.66" transform="translate(-102.41 -172.38)"/><path class="cls-148" d="M1951,1785.93h0c0,144.54-116.19,262.24-260.73,264.08l-334.14,4.15a264,264,0,0,0-147.7,47.45L975.8,2263.87" transform="translate(-102.41 -172.38)"/></svg>