<svg id="Camada_1" data-name="Camada 1" xmlns="http://www.w3.org/2000/svg" xmlns:xlink="http://www.w3.org/1999/xlink" viewBox="0 0 2058.2 3873.47"><defs><style>.cls-1,.cls-10,.cls-145,.cls-146,.cls-147,.cls-16,.cls-17,.cls-18,.cls-23,.cls-6,.cls-7{fill:none;}.cls-2{fill:#002e82;}.cls-3{fill:#70a83b;}.cls-4{fill:#d8d9dd;}.cls-5{fill:url(#Gradiente_sem_nome_16);}.cls-6{stroke:#fff;stroke-width:4px;}.cls-145,.cls-146,.cls-147,.cls-23,.cls-6,.cls-7{stroke-miterlimit:10;}.cls-10,.cls-145,.cls-146,.cls-147,.cls-16,.cls-17,.cls-18,.cls-7{stroke-width:20px;}.cls-7{stroke:url(#linear-gradient);}.cls-8{fill:url(#linear-gradient-2);}.cls-9{fill:url(#linear-gradient-3);}.cls-10,.cls-16,.cls-17,.cls-18{stroke-linejoin:round;}.cls-10{stroke:url(#linear-gradient-4);}.cls-11{fill:url(#linear-gradient-5);}.cls-12{fill:#fff;}.cls-13{fill:#222;}.cls-14{fill:#444242;}.cls-15{fill:#5b5b5f;}.cls-145,.cls-146,.cls-147,.cls-16,.cls-17,.cls-18,.cls-23{stroke-linecap:round;}.cls-16{stroke:url(#linear-gradient-6);}.cls-17{stroke:url(#linear-gradient-7);}.cls-18{stroke:url(#linear-gradient-8);}.cls-19{fill:#c2c3c9;}.cls-20{fill:url(#linear-gradient-9);}.cls-21{fill:url(#linear-gradient-10);}.cls-22{fill:url(#linear-gradient-11);}.cls-23{stroke:#c2c3c9;stroke-width:12px;}.cls-24{clip-path:url(#clip-path);}.cls-25{fill:#00a0ff;}.cls-26{fill:#00a1ff;}.cls-27{fill:#00a2ff;}.cls-28{fill:#00a3ff;}.cls-29{fill:#00a4ff;}.cls-30{fill:#00a5ff;}.cls-31{fill:#00a6ff;}.cls-32{fill:#00a7ff;}.cls-33{fill:#00a8ff;}.cls-34{fill:#00a9ff;}.cls-35{fill:#0af;}.cls-36{fill:#00abff;}.cls-37{fill:#00acff;}.cls-38{fill:#00adff;}.cls-39{fill:#00aeff;}.cls-40{fill:#00b0ff;}.cls-41{fill:#00b1ff;}.cls-42{fill:#00b2ff;}.cls-43{fill:#00b3ff;}.cls-44{fill:#00b4ff;}.cls-45{fill:#00b5ff;}.cls-46{fill:#00b6ff;}.cls-47{fill:#00b7ff;}.cls-48{fill:#00b8ff;}.cls-49{fill:#00b9ff;}.cls-50{fill:#00baff;}.cls-51{fill:#0bf;}.cls-52{fill:#00bcff;}.cls-53{fill:#00bdff;}.cls-54{fill:#00beff;}.cls-55{fill:#00bfff;}.cls-56{fill:#00c0ff;}.cls-57{fill:#00c1ff;}.cls-58{fill:#00c2ff;}.cls-59{fill:#00c3ff;}.cls-60{fill:#00c4ff;}.cls-61{fill:#00c5ff;}.cls-62{fill:#00c6ff;}.cls-63{fill:#00c7ff;}.cls-64{fill:#00c9ff;}.cls-65{fill:#00caff;}.cls-66{fill:#00cbff;}.cls-67{fill:#0cf;}.cls-68{fill:#00cdff;}.cls-69{fill:#00ceff;}.cls-70{fill:#00cfff;}.cls-71{fill:#00d0ff;}.cls-72{fill:#00d1ff;}.cls-73{fill:#00d2ff;}.cls-74{fill:#00d3ff;}.cls-75{fill:#00d4ff;}.cls-76{fill:#00d5ff;}.cls-77{fill:#00d6ff;}.cls-78{fill:#00d7ff;}.cls-79{fill:#00d9ff;}.cls-80{fill:#00daff;}.cls-81{fill:#00dbff;}.cls-82{fill:#00dcff;}.cls-83{fill:#0df;}.cls-84{fill:#00deff;}.cls-85{fill:#00dfff;}.cls-86{fill:#00e0ff;}.cls-87{fill:#00e2ff;}.cls-88{fill:#00e3ff;}.cls-89{clip-path:url(#clip-path-2);}.cls-90{fill:#ffdf00;}.cls-91{fill:#ffde00;}.cls-92{fill:#fd0;}.cls-93{fill:#ffdc00;}.cls-94{fill:#ffdb00;}.cls-95{fill:#ffda00;}.cls-96{fill:#ffd900;}.cls-97{fill:#ffd800;}.cls-98{fill:gold;}.cls-99{fill:#ffd600;}.cls-100{fill:#ffd500;}.cls-101{fill:#ffd400;}.cls-102{fill:#ffd300;}.cls-103{fill:#ffd200;}.cls-104{fill:#ffd100;}.cls-105{fill:#ffd000;}.cls-106{fill:#ffcf00;}.cls-107{fill:#ffcd00;}.cls-108{fill:#fc0;}.cls-109{fill:#ffcb00;}.cls-110{fill:#ffca00;}.cls-111{fill:#ffc900;}.cls-112{fill:#ffc800;}.cls-113{fill:#ffc700;}.cls-114{fill:#ffc600;}.cls-115{fill:#ffc500;}.cls-116{fill:#ffc400;}.cls-117{fill:#ffc300;}.cls-118{fill:#ffc200;}.cls-119{fill:#ffc100;}.cls-120{fill:#ffc000;}.cls-121{fill:#ffbf00;}.cls-122{fill:#ffbe00;}.cls-123{fill:#ffbd00;}.cls-124{fill:#ffbc00;}.cls-125{fill:#fb0;}.cls-126{clip-path:url(#clip-path-3);}.cls-127{fill:#ff3a44;}.cls-128{fill:#fe3945;}.cls-129{fill:#fd3945;}.cls-130{fill:#fc3846;}.cls-131{fill:#fb3746;}.cls-132{fill:#fa3747;}.cls-133{fill:#f93647;}.cls-134{fill:#f83548;}.cls-135{fill:#f73448;}.cls-136{fill:#f63449;}.cls-137{fill:#f53349;}.cls-138{fill:#f4324a;}.cls-139{fill:#f3324a;}.cls-140{fill:#f2314b;}.cls-141{fill:#f1304b;}.cls-142{fill:#f0304c;}.cls-143{clip-path:url(#clip-path-4);}.cls-144{fill:#00f076;}.cls-145,.cls-146,.cls-147{stroke-dasharray:0 50;}.cls-145{stroke:url(#Gradiente_sem_nome_33);}.cls-146{stroke:url(#Gradiente_sem_nome_33-2);}.cls-147{stroke:url(#Gradiente_sem_nome_33-3);}.cls-148{opacity:0.8;fill:url(#Gradiente_sem_nome_100);}</style><linearGradient id="Gradiente_sem_nome_16" x1="906.37" y1="520.5" x2="1172.82" y2="366.66" gradientUnits="userSpaceOnUse"><stop offset="0" stop-color="#eadf84"/><stop offset="0.07" stop-color="#eadc7b"/><stop offset="0.18" stop-color="#ead362"/><stop offset="0.33" stop-color="#eac639"/><stop offset="0.5" stop-color="#eab201"/><stop offset="0.5" stop-color="#eab200"/><stop offset="1" stop-color="#d67600"/></linearGradient><linearGradient id="linear-gradient" x1="868.91" y1="630.13" x2="1305.33" y2="630.13" gradientUnits="userSpaceOnUse"><stop offset="0" stop-color="#d57d2f"/><stop offset="0.27" stop-color="#c52337"/><stop offset="0.67" stop-color="#8e5199"/><stop offset="1" stop-color="#6590ca"/></linearGradient><linearGradient id="linear-gradient-2" x1="838.57" y1="389.29" x2="919.26" y2="389.29" xlink:href="#linear-gradient"/><linearGradient id="linear-gradient-3" x1="1292.2" y1="838.34" x2="1363.72" y2="838.34" xlink:href="#linear-gradient"/><linearGradient id="linear-gradient-4" x1="876.35" y1="668.14" x2="1295.93" y2="668.14" xlink:href="#linear-gradient"/><linearGradient id="linear-gradient-5" x1="1253.07" y1="499.45" x2="1332.57" y2="499.45" xlink:href="#linear-gradient"/><linearGradient id="linear-gradient-6" x1="867.75" y1="1960.43" x2="1202.56" y2="1960.43" xlink:href="#linear-gradient"/><linearGradient id="linear-gradient-7" x1="968.98" y1="1995.68" x2="1377.36" y2="1995.68" xlink:href="#linear-gradient"/><linearGradient id="linear-gradient-8" x1="824.92" y1="2048.04" x2="953.27" y2="2048.04" xlink:href="#linear-gradient"/><linearGradient id="linear-gradient-9" x1="978.08" y1="1661.19" x2="1026.36" y2="1577.57" xlink:href="#linear-gradient"/><linearGradient id="linear-gradient-10" x1="966.88" y1="1431.79" x2="1116.96" y2="1431.79" xlink:href="#linear-gradient"/><linearGradient id="linear-gradient-11" x1="1055.45" y1="1555.86" x2="1103.73" y2="1472.24" xlink:href="#linear-gradient"/><clipPath id="clip-path" transform="translate(-57.86 -157)"><path class="cls-1" d="M1126,1439.29a3.83,3.83,0,0,0-.91,2.71v42.74a3.85,3.85,0,0,0,.91,2.72l.14.13,24.23-23.94v-.57l-24.23-23.93Z"/></clipPath><clipPath id="clip-path-2" transform="translate(-57.86 -157)"><path class="cls-1" d="M1158.41,1471.63l-8.07-8v-.57l8.08-8,.18.11,9.57,5.37c2.73,1.53,2.73,4,0,5.58l-9.57,5.37Z"/></clipPath><clipPath id="clip-path-3" transform="translate(-57.86 -157)"><path class="cls-1" d="M1158.6,1471.53l-8.26-8.16L1126,1487.46c.91.94,2.39,1,4.07.11l28.56-16"/></clipPath><clipPath id="clip-path-4" transform="translate(-57.86 -157)"><path class="cls-1" d="M1158.6,1455.21l-28.56-16c-1.68-.93-3.16-.82-4.07.13l24.37,24.08Z"/></clipPath><linearGradient id="Gradiente_sem_nome_33" x1="1402.07" y1="2541.83" x2="2116.06" y2="2541.83" gradientTransform="matrix(1, 0, 0, -1, 0, 3537.99)" xlink:href="#linear-gradient"/><linearGradient id="Gradiente_sem_nome_33-2" x1="57.86" y1="1787.36" x2="514.06" y2="1787.36" xlink:href="#linear-gradient"/><linearGradient id="Gradiente_sem_nome_33-3" x1="1304.22" y1="2592.46" x2="1740.73" y2="2592.46" xlink:href="#linear-gradient"/><linearGradient id="Gradiente_sem_nome_100" x1="442.57" y1="3168.36" x2="1592.9" y2="3832.5" gradientUnits="userSpaceOnUse"><stop offset="0" stop-color="#d57d2f"/><stop offset="0.33" stop-color="#c51f37"/><stop offset="0.66" stop-color="#8434d5"/><stop offset="1" stop-color="#004aca"/></linearGradient></defs><title>steps</title><circle class="cls-2" cx="1005.3" cy="3173.77" r="613.93"/><path class="cls-3" d="M1061.58,3873.51c17.71-37-34.75-66.65-61-85.47-40.52-29.08-23.58-41.1-73.43-17.13-40.09,19.27-101.8-37.35-164.5-53.69-51.68-13.46-51.95-44-57.1-89.6-9.09-80.45,2.7-90.66,97.16-106.69,23.29-3.95,48.08,15.55,74,9.64,20.67-4.7,35.88-27.13,53.7-36.73,31.7-17.06,87.32-35.23,106.46-65.38,21.71-34.2,7.47-89.2,17.17-128.33,12.32-49.72,52.5-80.75,57.19-130.48,2.33-24.68-18.84-108.74-33.13-128.59-27.47-38.17-33.07-34.49-83.53-18.64-90.75,28.5-156.57,78.13-249.7,27.09-42.12-23.09-96.33-56.26-132.74-102C590.63,2920.45,549,2922,529,2950.23a660.49,660.49,0,0,0-74.33,136.2,652.27,652.27,0,0,0-32.4,104.22c-14.36,65.91-10.47,59.8,13.39,103.54,21.21,38.89,46.86,103.15,73.27,140.35,33.58,47.3,93.12,47,108.57,108.21,11.64,46.1-30.4,97.2-5.27,141.3,13.7,24,44.39,17.81,59.36,36.63,9.4,11.83,18.5,56.61,23.36,67.78,8.52,19.55,29.39,98.11,39.64,110.11,38.74,45.37,138.18,68.46,214.93,79.3,25,3.54,49.47-10.8,57.54-34.72C1015.77,3917.2,1048.44,3900.94,1061.58,3873.51Z" transform="translate(-57.86 -157)"/><path class="cls-3" d="M1250,3014.16c-.54,24.7,27.06,125.5,44.57,141.67,59.75,55.22,113.15-46.18,157.38-47,76-1.34,53.92,70.49,81.15,114.52,32.52,52.57,77.21,53.66,126.26,51.52a52.25,52.25,0,0,0,49.14-61.6c-29.87-162.93-122-310.68-254.94-409.62-25.07-18.66-60.85-11-76.34,16.15-17,29.68-33.59,58.4-57.93,85.63C1287.38,2941.17,1251.21,2959.62,1250,3014.16Z" transform="translate(-57.86 -157)"/><path class="cls-1" d="M1063.16,3944.7a614,614,0,0,0,176.6-25.79c-12.43-33.6,17.37-79.17.55-112-17-33.3-66.26-35.57-92.83-58.06-25.67-21.73-39.44-65.7-33.56-101.34,9.53-57.74,78.13-57.9,70.08-122-5.53-44.08-43.27-63.1-24.63-110.59,9.45-24.07,40.29-66.31,60.17-83.43,27.06-23.29,69.78-29.84,106.35-21.64,60.22,13.51,38.32,73.74,95.43,90,68.32,19.47,127.76-26.55,179.25,34.51,19.19,22.76,34.65,49.69,49.48,77.2a613.56,613.56,0,0,0,27-180.71c0-339.07-274.87-613.94-613.93-613.94S449.22,2991.7,449.22,3330.77,724.09,3944.7,1063.16,3944.7Z" transform="translate(-57.86 -157)"/><path class="cls-3" d="M1451.31,3408.84c-62.66-17.85-38.64-83.93-104.7-98.75-40.12-9-87-1.81-116.68,23.74-21.81,18.78-55.65,65.13-66,91.53-20.45,52.11,20.95,73,27,121.33,8.83,70.39-66.43,70.56-76.89,133.9-6.45,39.11,8.66,87.36,36.82,111.19,29.15,24.68,83.14,27.17,101.84,63.7,4.83,9.43,6.16,19.8,5.73,30.65-1.77,45.29,45.17,76.16,86.18,56.88,162.13-76.23,288.91-215.21,349.06-385.63a60,60,0,0,0-4.53-49.7c-12.42-21.76-25.69-42.6-41.18-61C1591.47,3379.71,1526.26,3430.2,1451.31,3408.84Z" transform="translate(-57.86 -157)"/><path class="cls-4" d="M731.78,2838.47c23.25,16.62,47.17,10.14,76.33,8.9,83.51-3.55,81.94,29.57,153.13,66.7,23.7,12.36,106,24.47,125.51-.69,12.32-15.88-8.5-34.25-2.34-56.68,7.87-28.66,21.71-27.34,44.71-35.2,69.49-23.76,99.33-3.83,143-65.25l.25-.36a29.25,29.25,0,0,0-14.09-44.49A592.31,592.31,0,0,0,725.81,2781a29.23,29.23,0,0,0-7.86,40.11C723.64,2829.81,728.76,2836.3,731.78,2838.47Z" transform="translate(-57.86 -157)"/><rect class="cls-5" x="951.26" y="288.91" width="176.67" height="309.33"/><path class="cls-6" d="M1057.36,514.48h-17a8.36,8.36,0,0,1-8.36-8.36V476.37a8.36,8.36,0,0,0-8.36-8.36h-17" transform="translate(-57.86 -157)"/><path class="cls-6" d="M1138.65,529h10.44a8.36,8.36,0,0,1,8.36,8.36v3.25a8.36,8.36,0,0,0,8.36,8.37h16.13" transform="translate(-57.86 -157)"/><path class="cls-6" d="M1057.36,529h-2a8.36,8.36,0,0,1-8.36-8.36V494.7a8.36,8.36,0,0,1,8.36-8.36H1062a8.36,8.36,0,0,0,8.36-8.36V450.15" transform="translate(-57.86 -157)"/><path class="cls-6" d="M1057.36,543.54h-22a8.36,8.36,0,0,0-8.36,8.36v55.33a8.36,8.36,0,0,1-8.36,8.36H1006.7" transform="translate(-57.86 -157)"/><path class="cls-6" d="M1138.65,514.48h22.69a8.37,8.37,0,0,0,8.36-8.36V493a8.37,8.37,0,0,0-2.45-5.91l-42.92-42.92" transform="translate(-57.86 -157)"/><path class="cls-6" d="M1138.65,543.54h0a8.36,8.36,0,0,1,8.36,8.36v85a8.36,8.36,0,0,0,8.36,8.36h32.83" transform="translate(-57.86 -157)"/><path d="M999.48,441.39v327.5a19.81,19.81,0,0,0,19.81,19.81h157.42a19.81,19.81,0,0,0,19.82-19.81V441.39a19.81,19.81,0,0,0-19.82-19.81H1019.29A19.81,19.81,0,0,0,999.48,441.39ZM1174.9,748.6H1021.11a7,7,0,0,1-7-7.05V457.2a7,7,0,0,1,7-7.05H1174.9a7,7,0,0,1,7,7.05V741.55A7,7,0,0,1,1174.9,748.6Z" transform="translate(-57.86 -157)"/><path class="cls-7" d="M878.91,411.92V821.34a17,17,0,0,0,17,17h409.42" transform="translate(-57.86 -157)"/><path class="cls-8" d="M839.41,415.76l34.13-59.13a6.2,6.2,0,0,1,10.74,0l34.14,59.13a6.2,6.2,0,0,1-5.37,9.29H844.77A6.19,6.19,0,0,1,839.41,415.76Z" transform="translate(-57.86 -157)"/><path class="cls-9" d="M1301.5,877.85l59.12-34.14a6.19,6.19,0,0,0,0-10.73l-59.12-34.14a6.2,6.2,0,0,0-9.3,5.36v68.28A6.2,6.2,0,0,0,1301.5,877.85Z" transform="translate(-57.86 -157)"/><path class="cls-10" d="M883.42,832.86,1052,664.26a30.43,30.43,0,0,1,21.51-8.91h50.78a30.39,30.39,0,0,0,21.51-8.91l143-143" transform="translate(-57.86 -157)"/><path class="cls-11" d="M1314.38,534.61l18-67.1a6.2,6.2,0,0,0-7.59-7.59l-67.11,18a6.2,6.2,0,0,0-2.77,10.37L1304,537.38A6.2,6.2,0,0,0,1314.38,534.61Z" transform="translate(-57.86 -157)"/><rect x="1012.49" y="352.03" width="55.22" height="39.96"/><rect x="999.49" y="352.03" width="13.04" height="3.63"/><rect class="cls-12" x="999.49" y="355.66" width="13.04" height="3.63"/><rect x="999.49" y="359.3" width="13.04" height="3.63"/><rect class="cls-12" x="999.49" y="362.93" width="13.04" height="3.63"/><rect x="999.49" y="366.56" width="13.04" height="3.63"/><rect class="cls-12" x="999.49" y="370.19" width="13.04" height="3.63"/><rect x="999.49" y="373.83" width="13.04" height="3.63"/><rect class="cls-12" x="999.49" y="377.46" width="13.04" height="3.63"/><rect x="999.49" y="381.09" width="13.04" height="3.63"/><rect x="999.49" y="388.36" width="13.04" height="3.63"/><rect class="cls-12" x="999.49" y="384.72" width="13.04" height="3.63"/><rect x="1067.75" y="352.03" width="13.04" height="3.63"/><rect class="cls-12" x="1067.75" y="355.66" width="13.04" height="3.63"/><rect x="1067.75" y="359.3" width="13.04" height="3.63"/><rect class="cls-12" x="1067.75" y="362.93" width="13.04" height="3.63"/><rect x="1067.75" y="366.56" width="13.04" height="3.63"/><rect class="cls-12" x="1067.75" y="370.19" width="13.04" height="3.63"/><rect x="1067.75" y="373.83" width="13.04" height="3.63"/><rect class="cls-12" x="1067.75" y="377.46" width="13.04" height="3.63"/><rect x="1067.75" y="381.09" width="13.04" height="3.63"/><rect x="1067.75" y="388.36" width="13.04" height="3.63"/><rect class="cls-12" x="1067.75" y="384.72" width="13.04" height="3.63"/><path class="cls-13" d="M696,232h-5.85V167.93l-19.34,7.18v-5.47l24.22-9h1Z" transform="translate(-57.86 -157)"/><path class="cls-13" d="M724.63,228.48a4.08,4.08,0,0,1,1.1-2.9,3.93,3.93,0,0,1,3-1.2,4,4,0,0,1,3.07,1.2,4.06,4.06,0,0,1,1.13,2.9,3.76,3.76,0,0,1-1.13,2.81,4.19,4.19,0,0,1-3.07,1.1,4.13,4.13,0,0,1-3-1.1A3.77,3.77,0,0,1,724.63,228.48Z" transform="translate(-57.86 -157)"/><path class="cls-13" d="M813.1,212H780.83l-7.33,20h-6.29l26.9-71.1h5.71L826.73,232h-6.25ZM782.68,207H811.2l-14.26-38.72Z" transform="translate(-57.86 -157)"/><path class="cls-13" d="M878.29,206.12q0,12.34-5.47,19.6A17.41,17.41,0,0,1,858.17,233q-10.83,0-16.6-7.61v26.95h-5.81V179.16h5.42l.29,7.48q5.71-8.46,16.56-8.45,9.47,0,14.86,7.18t5.4,19.92Zm-5.86-1q0-10.11-4.15-16a13.37,13.37,0,0,0-11.57-5.86,15.4,15.4,0,0,0-15.14,10.1v25.35a15.54,15.54,0,0,0,6,6.93,17.35,17.35,0,0,0,9.23,2.39,13.25,13.25,0,0,0,11.49-5.88Q872.43,216.28,872.43,205.09Z" transform="translate(-57.86 -157)"/><path class="cls-13" d="M933.71,206.12q0,12.34-5.47,19.6A17.41,17.41,0,0,1,913.59,233q-10.83,0-16.6-7.61v26.95h-5.81V179.16h5.42l.29,7.48q5.72-8.46,16.56-8.45,9.46,0,14.86,7.18t5.4,19.92Zm-5.86-1q0-10.11-4.15-16a13.37,13.37,0,0,0-11.57-5.86A15.4,15.4,0,0,0,897,193.37v25.35a15.54,15.54,0,0,0,6,6.93,17.35,17.35,0,0,0,9.23,2.39,13.25,13.25,0,0,0,11.49-5.88Q927.85,216.28,927.85,205.09Z" transform="translate(-57.86 -157)"/><path class="cls-13" d="M972.33,232V160.9h19.88a30.94,30.94,0,0,1,15.67,4,27.64,27.64,0,0,1,10.82,11.4,36,36,0,0,1,3.88,16.9v6.54a36,36,0,0,1-3.86,16.9A27.45,27.45,0,0,1,1007.86,228a31.89,31.89,0,0,1-16.09,4Zm6-66v60.94h13.48q11.22,0,18-7.45t6.79-20.16v-6.26q0-12.26-6.69-19.64T992.3,166Z" transform="translate(-57.86 -157)"/><path class="cls-13" d="M1056.9,233a22.87,22.87,0,0,1-12.18-3.32,22.63,22.63,0,0,1-8.47-9.25,28.85,28.85,0,0,1-3-13.31V205a31.11,31.11,0,0,1,3-13.72,23.52,23.52,0,0,1,8.22-9.59,20.3,20.3,0,0,1,11.43-3.49q9.62,0,15.26,6.57t5.64,17.94V206H1039v1.12q0,9,5.15,15a16.4,16.4,0,0,0,13,6,19,19,0,0,0,8.27-1.71,18.25,18.25,0,0,0,6.52-5.47l3.66,2.79Q1069.17,233,1056.9,233Zm-1.07-49.8a14.61,14.61,0,0,0-11.11,4.83q-4.52,4.84-5.49,13h31.69v-.63c-.17-5.08-1.61-9.22-4.35-12.41A13.45,13.45,0,0,0,1055.83,183.17Z" transform="translate(-57.86 -157)"/><path class="cls-13" d="M1103.92,223.94,1120,179.16h6L1106.27,232h-4.74l-19.82-52.84h6Z" transform="translate(-57.86 -157)"/><path class="cls-13" d="M1155.39,233a22.87,22.87,0,0,1-12.18-3.32,22.57,22.57,0,0,1-8.47-9.25,28.85,28.85,0,0,1-3-13.31V205a31.1,31.1,0,0,1,3-13.72,23.54,23.54,0,0,1,8.23-9.59,20.28,20.28,0,0,1,11.43-3.49q9.62,0,15.25,6.57t5.64,17.94V206h-37.69v1.12q0,9,5.15,15a16.36,16.36,0,0,0,13,6,19,19,0,0,0,8.28-1.71,18.33,18.33,0,0,0,6.52-5.47l3.66,2.79Q1167.64,233,1155.39,233Zm-1.07-49.8a14.61,14.61,0,0,0-11.11,4.83q-4.51,4.84-5.5,13h31.69v-.63q-.24-7.62-4.34-12.41A13.48,13.48,0,0,0,1154.32,183.17Z" transform="translate(-57.86 -157)"/><path class="cls-13" d="M1193.13,232h-5.86V157h5.86Z" transform="translate(-57.86 -157)"/><path class="cls-13" d="M1205.78,204.8a31.07,31.07,0,0,1,3-13.72,22.18,22.18,0,0,1,20.59-12.89q10.54,0,17.09,7.4t6.54,19.6v1.22a31.32,31.32,0,0,1-3,13.79,22,22,0,0,1-8.32,9.45,22.78,22.78,0,0,1-12.26,3.32q-10.5,0-17.06-7.39T1205.78,206Zm5.86,1.61q0,9.48,4.91,15.55a16.6,16.6,0,0,0,25.68,0q4.9-6.08,4.91-16V204.8a26.79,26.79,0,0,0-2.25-11.08,18.05,18.05,0,0,0-6.3-7.79,16.07,16.07,0,0,0-9.27-2.76,15.61,15.61,0,0,0-12.75,6.13q-4.93,6.12-4.93,16Z" transform="translate(-57.86 -157)"/><path class="cls-13" d="M1307.49,206.12q0,12.34-5.47,19.6a17.41,17.41,0,0,1-14.65,7.25q-10.83,0-16.6-7.61v26.95H1265V179.16h5.42l.29,7.48q5.71-8.46,16.56-8.45,9.46,0,14.86,7.18t5.4,19.92Zm-5.86-1q0-10.11-4.15-16a13.38,13.38,0,0,0-11.57-5.86,15.4,15.4,0,0,0-15.14,10.1v25.35a15.54,15.54,0,0,0,6,6.93A17.34,17.34,0,0,0,1286,228a13.26,13.26,0,0,0,11.5-5.88Q1301.63,216.28,1301.63,205.09Z" transform="translate(-57.86 -157)"/><path class="cls-13" d="M1325.75,179.16l.2,8.6a19.57,19.57,0,0,1,7.32-7.18,20.16,20.16,0,0,1,9.77-2.39q12.49,0,15.87,10.25a19.76,19.76,0,0,1,7.56-7.59,21,21,0,0,1,10.45-2.66q17,0,17.34,18.55V232h-5.86V197.18q-.06-7.08-3.05-10.5t-9.79-3.41a15.56,15.56,0,0,0-10.65,4.07,14.4,14.4,0,0,0-4.83,9.7v35h-5.86V196.74q-.06-6.78-3.2-10.13t-9.69-3.34a14.76,14.76,0,0,0-9.48,3.15,18.41,18.41,0,0,0-5.85,9.35V232h-5.86V179.16Z" transform="translate(-57.86 -157)"/><path class="cls-13" d="M1429.51,233a22.87,22.87,0,0,1-12.18-3.32,22.57,22.57,0,0,1-8.47-9.25,28.85,28.85,0,0,1-3-13.31V205a31.1,31.1,0,0,1,3-13.72,23.62,23.62,0,0,1,8.23-9.59,20.28,20.28,0,0,1,11.43-3.49q9.61,0,15.26,6.57t5.63,17.94V206h-37.69v1.12q0,9,5.15,15a16.38,16.38,0,0,0,13,6,19,19,0,0,0,8.28-1.71,18.33,18.33,0,0,0,6.52-5.47l3.66,2.79Q1441.78,233,1429.51,233Zm-1.07-49.8a14.61,14.61,0,0,0-11.11,4.83q-4.51,4.84-5.5,13h31.69v-.63q-.24-7.62-4.34-12.41A13.48,13.48,0,0,0,1428.44,183.17Z" transform="translate(-57.86 -157)"/><path class="cls-13" d="M1466.28,179.16l.19,9a21,21,0,0,1,7.43-7.45,19.25,19.25,0,0,1,9.81-2.56q8.49,0,12.65,4.78t4.2,14.36V232h-5.81V197.28q-.06-7.08-3-10.55t-9.45-3.46a14.78,14.78,0,0,0-9.59,3.39,19.93,19.93,0,0,0-6.18,9.15V232h-5.81V179.16Z" transform="translate(-57.86 -157)"/><path class="cls-13" d="M1524.73,165.64v13.52h10.93V184h-10.93v35.24c0,2.94.52,5.12,1.58,6.55s2.83,2.15,5.3,2.15a36.93,36.93,0,0,0,4.74-.48l.24,4.74a19,19,0,0,1-6.25.82q-6,0-8.74-3.49t-2.73-10.28V184h-9.72v-4.79h9.72V165.64Z" transform="translate(-57.86 -157)"/><path class="cls-13" d="M354.12,1186.44H309.59V1182L334,1154.31a63.4,63.4,0,0,0,8.4-11.52,19.13,19.13,0,0,0,2.35-8.84q0-6.73-4-10.67t-10.89-3.93a15.35,15.35,0,0,0-11.59,4.59q-4.42,4.59-4.42,11.92H308a22.29,22.29,0,0,1,2.71-10.94,19.4,19.4,0,0,1,7.71-7.74,22.94,22.94,0,0,1,11.4-2.81q9.76,0,15.26,5.13t5.49,14a23.64,23.64,0,0,1-3.1,10.89q-3.09,5.91-10.91,14.75l-19.82,22.41h37.35Z" transform="translate(-57.86 -157)"/><path class="cls-13" d="M365.4,1182.93a4.17,4.17,0,0,1,1.1-2.91,4,4,0,0,1,3.05-1.19,4.05,4.05,0,0,1,3.08,1.19,4.14,4.14,0,0,1,1.12,2.91,3.81,3.81,0,0,1-1.12,2.81,4.23,4.23,0,0,1-3.08,1.09,4.13,4.13,0,0,1-3.05-1.09A3.83,3.83,0,0,1,365.4,1182.93Z" transform="translate(-57.86 -157)"/><path class="cls-13" d="M453.88,1166.47H421.6l-7.32,20H408l26.9-71.09h5.71l26.91,71.09h-6.25Zm-30.42-5.08H452l-14.26-38.72Z" transform="translate(-57.86 -157)"/><path class="cls-13" d="M519.06,1160.56q0,12.36-5.47,19.61a17.42,17.42,0,0,1-14.65,7.25q-10.83,0-16.6-7.62v27h-5.81v-73.15H482l.3,7.47q5.7-8.44,16.55-8.45,9.46,0,14.87,7.18t5.39,19.92Zm-5.86-1q0-10.11-4.15-16a13.4,13.4,0,0,0-11.57-5.86,15.43,15.43,0,0,0-15.14,10.11v25.34a15.52,15.52,0,0,0,6,6.94,17.35,17.35,0,0,0,9.23,2.39,13.25,13.25,0,0,0,11.5-5.89Q513.2,1170.72,513.2,1159.54Z" transform="translate(-57.86 -157)"/><path class="cls-13" d="M574.48,1160.56q0,12.36-5.47,19.61a17.42,17.42,0,0,1-14.65,7.25q-10.83,0-16.6-7.62v27H532v-73.15h5.42l.3,7.47q5.7-8.44,16.55-8.45,9.46,0,14.87,7.18t5.39,19.92Zm-5.86-1q0-10.11-4.15-16a13.4,13.4,0,0,0-11.57-5.86,15.43,15.43,0,0,0-15.14,10.11v25.34a15.52,15.52,0,0,0,6,6.94,17.35,17.35,0,0,0,9.23,2.39,13.25,13.25,0,0,0,11.5-5.89Q568.63,1170.72,568.62,1159.54Z" transform="translate(-57.86 -157)"/><path class="cls-13" d="M613.1,1186.44v-71.09H633a30.94,30.94,0,0,1,15.67,4,27.52,27.52,0,0,1,10.82,11.4,36,36,0,0,1,3.88,16.89v6.55a35.89,35.89,0,0,1-3.86,16.89,27.42,27.42,0,0,1-10.86,11.38,31.85,31.85,0,0,1-16.09,4Zm6-66v60.94h13.48q11.22,0,18-7.46t6.79-20.15v-6.26q0-12.27-6.69-19.64t-17.62-7.43Z" transform="translate(-57.86 -157)"/><path class="cls-13" d="M697.67,1187.42a23,23,0,0,1-12.18-3.32,22.63,22.63,0,0,1-8.47-9.25,28.85,28.85,0,0,1-3-13.31v-2.1a31.08,31.08,0,0,1,3-13.72,23.46,23.46,0,0,1,8.22-9.59,20.31,20.31,0,0,1,11.43-3.5q9.61,0,15.26,6.57t5.64,18v3.27H679.8v1.12q0,9,5.16,15a16.39,16.39,0,0,0,13,6,19.08,19.08,0,0,0,8.28-1.71,18.3,18.3,0,0,0,6.51-5.47l3.67,2.78Q709.93,1187.42,697.67,1187.42Zm-1.07-49.8a14.62,14.62,0,0,0-11.11,4.83q-4.51,4.83-5.49,13h31.69v-.64q-.24-7.62-4.35-12.4A13.45,13.45,0,0,0,696.6,1137.62Z" transform="translate(-57.86 -157)"/><path class="cls-13" d="M771.36,1160.56q0,12.36-5.47,19.61a17.44,17.44,0,0,1-14.65,7.25q-10.85,0-16.6-7.62v27h-5.81v-73.15h5.42l.29,7.47q5.72-8.44,16.55-8.45,9.48,0,14.87,7.18t5.4,19.92Zm-5.86-1q0-10.11-4.15-16a13.41,13.41,0,0,0-11.58-5.86,15.43,15.43,0,0,0-15.13,10.11v25.34a15.56,15.56,0,0,0,6,6.94,17.38,17.38,0,0,0,9.23,2.39,13.24,13.24,0,0,0,11.5-5.89Q765.5,1170.72,765.5,1159.54Z" transform="translate(-57.86 -157)"/><path class="cls-13" d="M790.84,1186.44H785v-75h5.86Z" transform="translate(-57.86 -157)"/><path class="cls-13" d="M803.49,1159.25a31,31,0,0,1,3-13.72,22.21,22.21,0,0,1,20.58-12.9q10.54,0,17.09,7.4t6.54,19.61v1.22a31.32,31.32,0,0,1-2.95,13.79,22,22,0,0,1-8.33,9.45,22.84,22.84,0,0,1-12.25,3.32q-10.5,0-17.07-7.4t-6.56-19.6Zm5.85,1.61q0,9.47,4.91,15.55a16.61,16.61,0,0,0,25.69,0q4.9-6.08,4.9-16v-1.12a27,27,0,0,0-2.24-11.09,18.11,18.11,0,0,0-6.3-7.79,16.17,16.17,0,0,0-9.28-2.75,15.6,15.6,0,0,0-12.74,6.12q-4.93,6.13-4.94,16Z" transform="translate(-57.86 -157)"/><path class="cls-13" d="M878.73,1178l15.43-44.43h6.3l-22.56,61.82-1.17,2.73q-4.35,9.61-13.43,9.62a16.55,16.55,0,0,1-4.49-.68l0-4.84,3,.3a10.78,10.78,0,0,0,7-2.13c1.78-1.41,3.28-3.85,4.52-7.3l2.59-7.13-19.92-52.39h6.39Z" transform="translate(-57.86 -157)"/><path class="cls-13" d="M914.81,1133.61l.2,8.6a19.49,19.49,0,0,1,7.32-7.18,20.06,20.06,0,0,1,9.77-2.4q12.49,0,15.87,10.26a19.79,19.79,0,0,1,7.57-7.59,20.89,20.89,0,0,1,10.45-2.67q17,0,17.33,18.56v35.25h-5.86v-34.81q0-7.08-3.05-10.5t-9.79-3.42a15.62,15.62,0,0,0-10.65,4.08,14.4,14.4,0,0,0-4.83,9.69v35h-5.86v-35.25q0-6.8-3.2-10.13t-9.69-3.35a14.71,14.71,0,0,0-9.47,3.15,18.47,18.47,0,0,0-5.86,9.35v36.23H909.2v-52.83Z" transform="translate(-57.86 -157)"/><path class="cls-13" d="M1018.57,1187.42a23,23,0,0,1-12.18-3.32,22.63,22.63,0,0,1-8.47-9.25,28.85,28.85,0,0,1-3-13.31v-2.1a31.08,31.08,0,0,1,3-13.72,23.39,23.39,0,0,1,8.22-9.59,20.31,20.31,0,0,1,11.43-3.5q9.62,0,15.26,6.57t5.64,18v3.27h-37.7v1.12q0,9,5.15,15a16.43,16.43,0,0,0,13,6,19,19,0,0,0,8.27-1.71,18.25,18.25,0,0,0,6.52-5.47l3.66,2.78Q1030.84,1187.42,1018.57,1187.42Zm-1.07-49.8a14.61,14.61,0,0,0-11.11,4.83q-4.51,4.83-5.49,13h31.69v-.64c-.17-5.08-1.61-9.21-4.35-12.4A13.45,13.45,0,0,0,1017.5,1137.62Z" transform="translate(-57.86 -157)"/><path class="cls-13" d="M1055.34,1133.61l.2,9a21,21,0,0,1,7.42-7.44,19.26,19.26,0,0,1,9.81-2.57q8.51,0,12.65,4.79t4.2,14.36v34.66h-5.81v-34.71q-.06-7.08-3-10.55t-9.44-3.47a14.74,14.74,0,0,0-9.6,3.4,19.93,19.93,0,0,0-6.18,9.15v36.18h-5.81v-52.83Z" transform="translate(-57.86 -157)"/><path class="cls-13" d="M1113.79,1120.09v13.52h10.94v4.79h-10.94v35.24c0,2.93.53,5.12,1.58,6.55s2.83,2.15,5.3,2.15a35.61,35.61,0,0,0,4.74-.49l.24,4.75a19,19,0,0,1-6.25.82q-6,0-8.74-3.49t-2.73-10.28V1138.4h-9.72v-4.79h9.72v-13.52Z" transform="translate(-57.86 -157)"/><path class="cls-13" d="M1135.61,1199.72l-3.46-2.53a21.32,21.32,0,0,0,4.59-12.36v-7.57h5.71v6.11Q1142.45,1193.53,1135.61,1199.72Z" transform="translate(-57.86 -157)"/><path class="cls-13" d="M1181.66,1186.44v-71.09h19.87a31,31,0,0,1,15.68,4,27.49,27.49,0,0,1,10.81,11.4,35.88,35.88,0,0,1,3.88,16.89v6.55a35.89,35.89,0,0,1-3.85,16.89,27.5,27.5,0,0,1-10.87,11.38,31.83,31.83,0,0,1-16.09,4Zm6-66v60.94h13.47q11.23,0,18-7.46t6.79-20.15v-6.26q0-12.27-6.69-19.64t-17.63-7.43Z" transform="translate(-57.86 -157)"/><path class="cls-13" d="M1266.23,1187.42a23,23,0,0,1-12.18-3.32,22.57,22.57,0,0,1-8.47-9.25,28.85,28.85,0,0,1-3-13.31v-2.1a31.07,31.07,0,0,1,3-13.72,23.41,23.41,0,0,1,8.23-9.59,20.29,20.29,0,0,1,11.43-3.5q9.61,0,15.25,6.57t5.64,18v3.27h-37.69v1.12q0,9,5.15,15a16.39,16.39,0,0,0,13,6,19,19,0,0,0,8.28-1.71,18.33,18.33,0,0,0,6.52-5.47l3.66,2.78Q1278.48,1187.42,1266.23,1187.42Zm-1.07-49.8a14.61,14.61,0,0,0-11.11,4.83q-4.52,4.83-5.5,13h31.69v-.64q-.24-7.62-4.34-12.4A13.48,13.48,0,0,0,1265.16,1137.62Z" transform="translate(-57.86 -157)"/><path class="cls-13" d="M1304,1186.44h-5.86v-75H1304Z" transform="translate(-57.86 -157)"/><path class="cls-13" d="M1319.5,1118.35a3.9,3.9,0,0,1,1.08-2.79,3.81,3.81,0,0,1,2.92-1.14,3.84,3.84,0,0,1,4.06,3.93,3.82,3.82,0,0,1-1.1,2.77,4,4,0,0,1-3,1.11,3.76,3.76,0,0,1-4-3.88Zm6.89,68.09h-5.86v-52.83h5.86Z" transform="translate(-57.86 -157)"/><path class="cls-13" d="M1358.71,1178.39l16.06-44.78h6l-19.73,52.83h-4.73l-19.83-52.83h6Z" transform="translate(-57.86 -157)"/><path class="cls-13" d="M1410.17,1187.42a23,23,0,0,1-12.18-3.32,22.63,22.63,0,0,1-8.47-9.25,28.85,28.85,0,0,1-3-13.31v-2.1a31.08,31.08,0,0,1,3-13.72,23.46,23.46,0,0,1,8.22-9.59,20.31,20.31,0,0,1,11.43-3.5q9.62,0,15.26,6.57t5.64,18v3.27h-37.7v1.12q0,9,5.16,15a16.39,16.39,0,0,0,13,6,19.08,19.08,0,0,0,8.28-1.71,18.3,18.3,0,0,0,6.51-5.47l3.67,2.78Q1422.43,1187.42,1410.17,1187.42Zm-1.07-49.8a14.62,14.62,0,0,0-11.11,4.83q-4.52,4.83-5.49,13h31.69v-.64q-.24-7.62-4.35-12.4A13.45,13.45,0,0,0,1409.1,1137.62Z" transform="translate(-57.86 -157)"/><path class="cls-13" d="M1465.79,1138.59a21.71,21.71,0,0,0-4-.34,14.29,14.29,0,0,0-9.25,3,16.73,16.73,0,0,0-5.39,8.86v36.28h-5.81v-52.83h5.71l.1,8.4q4.63-9.37,14.89-9.38a9.68,9.68,0,0,1,3.86.64Z" transform="translate(-57.86 -157)"/><path class="cls-13" d="M1492.65,1178l15.43-44.43h6.29l-22.55,61.82-1.18,2.73q-4.34,9.61-13.42,9.62a16.68,16.68,0,0,1-4.5-.68l0-4.84,3,.3a10.79,10.79,0,0,0,7-2.13c1.77-1.41,3.28-3.85,4.52-7.3l2.58-7.13-19.92-52.39h6.4Z" transform="translate(-57.86 -157)"/><path class="cls-13" d="M1544.5,1159.25a31,31,0,0,1,3-13.72,22.18,22.18,0,0,1,20.58-12.9q10.55,0,17.09,7.4t6.54,19.61v1.22a31.32,31.32,0,0,1-3,13.79,22,22,0,0,1-8.32,9.45,22.87,22.87,0,0,1-12.26,3.32,21.75,21.75,0,0,1-17.06-7.4q-6.57-7.39-6.57-19.6Zm5.86,1.61q0,9.47,4.91,15.55a16.6,16.6,0,0,0,25.68,0q4.9-6.08,4.91-16v-1.12a26.88,26.88,0,0,0-2.25-11.09,18.11,18.11,0,0,0-6.3-7.79,16.14,16.14,0,0,0-9.27-2.75,15.63,15.63,0,0,0-12.75,6.12q-4.93,6.13-4.93,16Z" transform="translate(-57.86 -157)"/><path class="cls-13" d="M1607.93,1186.44v-48h-8.74v-4.79h8.74v-6.4q0-8.1,4.12-12.45t11.5-4.34a22.4,22.4,0,0,1,6.2.82l-.43,4.84a22.92,22.92,0,0,0-5.33-.58,9.55,9.55,0,0,0-7.52,3q-2.68,3-2.68,8.54v6.56h12.6v4.79h-12.6v48Z" transform="translate(-57.86 -157)"/><path class="cls-13" d="M1668.52,1157.49v29h-6v-71.09h24.22q11.09,0,17.5,5.66t6.42,15.58q0,10-6.17,15.45t-17.9,5.45Zm0-5.08h18.22q8.73,0,13.33-4.16t4.59-11.59q0-7.38-4.57-11.76t-13-4.47h-18.61Z" transform="translate(-57.86 -157)"/><path class="cls-13" d="M1742.55,1187.42a22.94,22.94,0,0,1-12.18-3.32,22.66,22.66,0,0,1-8.48-9.25,28.84,28.84,0,0,1-3-13.31v-2.1a31.07,31.07,0,0,1,3-13.72,23.41,23.41,0,0,1,8.23-9.59,20.26,20.26,0,0,1,11.42-3.5q9.63,0,15.26,6.57t5.64,18v3.27h-37.69v1.12q0,9,5.15,15a16.39,16.39,0,0,0,13,6,19,19,0,0,0,8.28-1.71,18.42,18.42,0,0,0,6.52-5.47l3.66,2.78Q1754.8,1187.42,1742.55,1187.42Zm-1.08-49.8a14.6,14.6,0,0,0-11.1,4.83q-4.53,4.83-5.5,13h31.69v-.64q-.24-7.62-4.34-12.4A13.48,13.48,0,0,0,1741.47,1137.62Z" transform="translate(-57.86 -157)"/><path class="cls-13" d="M1798.16,1138.59a21.52,21.52,0,0,0-4-.34,14.27,14.27,0,0,0-9.25,3,16.68,16.68,0,0,0-5.4,8.86v36.28h-5.81v-52.83h5.71l.1,8.4q4.64-9.37,14.89-9.38a9.65,9.65,0,0,1,3.86.64Z" transform="translate(-57.86 -157)"/><path class="cls-13" d="M1819.94,1159.83l-6.69,6.45v20.16h-5.86v-75h5.86v48l5.52-6,20.21-19.87h7.38l-22.42,22.27,24.37,30.56h-7Z" transform="translate(-57.86 -157)"/><path class="cls-13" d="M1888,1173a8.36,8.36,0,0,0-3.49-7q-3.49-2.62-10.53-4.12a47.73,47.73,0,0,1-10.91-3.42,14.57,14.57,0,0,1-5.76-4.71,11.71,11.71,0,0,1-1.88-6.74,12.58,12.58,0,0,1,5.22-10.33q5.23-4.08,13.38-4.08,8.84,0,14.19,4.37a14.05,14.05,0,0,1,5.34,11.41h-5.86a9.45,9.45,0,0,0-3.88-7.72,15.28,15.28,0,0,0-9.79-3.07q-5.76,0-9.25,2.56a7.9,7.9,0,0,0-3.49,6.66,7.22,7.22,0,0,0,2.9,6.13q2.91,2.17,10.6,4a49.73,49.73,0,0,1,11.52,3.86,14.94,14.94,0,0,1,5.69,4.93,13.55,13.55,0,0,1-3.54,17.68q-5.4,4-14.09,4-9.23,0-15-4.47a13.73,13.73,0,0,1-5.74-11.3h5.86a10.16,10.16,0,0,0,4.32,8q4,2.86,10.52,2.86,6.11,0,9.87-2.69A8.07,8.07,0,0,0,1888,1173Z" transform="translate(-57.86 -157)"/><path class="cls-13" d="M549,1306.44a27.72,27.72,0,0,1-1.12-7.37,20.35,20.35,0,0,1-7.84,6.18,24,24,0,0,1-10.08,2.17q-7.62,0-12.33-4.25a13.83,13.83,0,0,1-4.71-10.74,14.16,14.16,0,0,1,6.42-12.21q6.42-4.48,17.89-4.49h10.6v-6a11.58,11.58,0,0,0-3.49-8.91q-3.5-3.24-10.18-3.24a16,16,0,0,0-10.11,3.12,9.27,9.27,0,0,0-4,7.52l-5.86,0q0-6.3,5.86-10.91a22.51,22.51,0,0,1,14.4-4.62q8.84,0,13.94,4.42t5.25,12.33v25q0,7.66,1.61,11.48v.58Zm-18.36-4.2a19.62,19.62,0,0,0,10.48-2.83,16.69,16.69,0,0,0,6.71-7.57v-11.62H537.42q-8.74.1-13.67,3.2a9.6,9.6,0,0,0-4.93,8.52,9.46,9.46,0,0,0,3.29,7.37A12.4,12.4,0,0,0,530.68,1302.24Z" transform="translate(-57.86 -157)"/><path class="cls-13" d="M574.82,1253.61l.2,9a21,21,0,0,1,7.42-7.44,19.26,19.26,0,0,1,9.81-2.57q8.5,0,12.65,4.79t4.2,14.36v34.66h-5.81v-34.71q0-7.08-3-10.55t-9.45-3.47a14.78,14.78,0,0,0-9.6,3.4,19.84,19.84,0,0,0-6.17,9.15v36.18h-5.81v-52.83Z" transform="translate(-57.86 -157)"/><path class="cls-13" d="M621.84,1279.54q0-12.3,5.5-19.61a17.68,17.68,0,0,1,14.91-7.3q10.69,0,16.31,8.45v-29.64h5.81v75h-5.46l-.25-7q-5.61,8-16.5,8a17.6,17.6,0,0,1-14.72-7.35q-5.6-7.35-5.6-19.85Zm5.91,1q0,10.11,4.06,16a13.1,13.1,0,0,0,11.42,5.83q10.78,0,15.33-9.52V1268q-4.53-10.3-15.23-10.31a13.27,13.27,0,0,0-11.48,5.79Q627.76,1269.29,627.75,1280.56Z" transform="translate(-57.86 -157)"/><path class="cls-13" d="M745.67,1289a11.5,11.5,0,0,0-4.15-9.35q-4.15-3.43-15.18-6.54t-16.12-6.76q-7.22-5.18-7.22-13.58a15.88,15.88,0,0,1,6.71-13.25q6.72-5.12,17.16-5.11a28.35,28.35,0,0,1,12.67,2.74,20.72,20.72,0,0,1,8.67,7.61,20,20,0,0,1,3.08,10.89h-6.06a15,15,0,0,0-5-11.73q-5-4.43-13.38-4.43-8.14,0-13,3.64a11.36,11.36,0,0,0-4.84,9.52,10.75,10.75,0,0,0,4.35,8.85q4.33,3.42,13.91,6t14.51,5.42a20.67,20.67,0,0,1,7.42,6.72,16.79,16.79,0,0,1,2.49,9.23,16.06,16.06,0,0,1-6.72,13.47q-6.71,5.09-17.7,5.08a34.68,34.68,0,0,1-13.79-2.69,21,21,0,0,1-9.52-7.52,19.35,19.35,0,0,1-3.25-11.08h6a14.21,14.21,0,0,0,5.61,11.87q5.63,4.34,14.94,4.34,8.31,0,13.33-3.66A11.43,11.43,0,0,0,745.67,1289Z" transform="translate(-57.86 -157)"/><path class="cls-13" d="M783.76,1307.42a23,23,0,0,1-12.18-3.32,22.66,22.66,0,0,1-8.48-9.25,29,29,0,0,1-3-13.31v-2.1a31.07,31.07,0,0,1,2.95-13.72,23.41,23.41,0,0,1,8.23-9.59,20.26,20.26,0,0,1,11.42-3.5q9.63,0,15.26,6.57t5.64,18v3.27H765.89v1.12q0,9,5.15,15a16.39,16.39,0,0,0,13,6,19,19,0,0,0,8.28-1.71,18.42,18.42,0,0,0,6.52-5.47l3.66,2.78Q796,1307.42,783.76,1307.42Zm-1.08-49.8a14.6,14.6,0,0,0-11.1,4.83q-4.53,4.83-5.5,13h31.69v-.64q-.24-7.62-4.34-12.4A13.48,13.48,0,0,0,782.68,1257.62Z" transform="translate(-57.86 -157)"/><path class="cls-13" d="M830.78,1298.39l16.06-44.78h6l-19.73,52.83h-4.73l-19.83-52.83h6Z" transform="translate(-57.86 -157)"/><path class="cls-13" d="M882.25,1307.42a23,23,0,0,1-12.19-3.32,22.63,22.63,0,0,1-8.47-9.25,28.85,28.85,0,0,1-3-13.31v-2.1a31.08,31.08,0,0,1,3-13.72,23.41,23.41,0,0,1,8.23-9.59,20.26,20.26,0,0,1,11.42-3.5q9.62,0,15.26,6.57t5.64,18v3.27h-37.7v1.12q0,9,5.16,15a16.39,16.39,0,0,0,13,6,19.08,19.08,0,0,0,8.28-1.71,18.3,18.3,0,0,0,6.51-5.47l3.67,2.78Q894.5,1307.42,882.25,1307.42Zm-1.08-49.8a14.62,14.62,0,0,0-11.11,4.83q-4.51,4.83-5.49,13h31.69v-.64q-.24-7.62-4.35-12.4A13.45,13.45,0,0,0,881.17,1257.62Z" transform="translate(-57.86 -157)"/><path class="cls-13" d="M937.86,1258.59a21.68,21.68,0,0,0-4-.34,14.3,14.3,0,0,0-9.26,3,16.73,16.73,0,0,0-5.39,8.86v36.28h-5.81v-52.83h5.71l.1,8.4q4.63-9.37,14.89-9.38a9.68,9.68,0,0,1,3.86.64Z" transform="translate(-57.86 -157)"/><path class="cls-13" d="M978.49,1306.44a27.25,27.25,0,0,1-1.13-7.37,20.39,20.39,0,0,1-7.83,6.18,24,24,0,0,1-10.09,2.17q-7.62,0-12.33-4.25a13.83,13.83,0,0,1-4.71-10.74,14.16,14.16,0,0,1,6.42-12.21q6.42-4.48,17.9-4.49h10.59v-6a11.58,11.58,0,0,0-3.49-8.91q-3.5-3.24-10.18-3.24a16,16,0,0,0-10.11,3.12,9.27,9.27,0,0,0-4,7.52l-5.86,0q0-6.3,5.86-10.91a22.55,22.55,0,0,1,14.4-4.62q8.85,0,13.94,4.42t5.25,12.33v25q0,7.66,1.62,11.48v.58Zm-18.36-4.2a19.61,19.61,0,0,0,10.47-2.83,16.64,16.64,0,0,0,6.71-7.57v-11.62H966.86q-8.73.1-13.67,3.2a9.6,9.6,0,0,0-4.93,8.52,9.43,9.43,0,0,0,3.3,7.37A12.37,12.37,0,0,0,960.13,1302.24Z" transform="translate(-57.86 -157)"/><path class="cls-13" d="M1005.24,1306.44h-5.86v-75h5.86Z" transform="translate(-57.86 -157)"/><path class="cls-13" d="M1054.75,1235.35l26.23,62.74,26.31-62.74h8v71.09h-6v-31l.48-31.74-26.46,62.69h-4.64L1052.31,1244l.49,31.3v31.15h-6v-71.09Z" transform="translate(-57.86 -157)"/><path class="cls-13" d="M1165.3,1306.44a27.72,27.72,0,0,1-1.12-7.37,20.35,20.35,0,0,1-7.84,6.18,24,24,0,0,1-10.08,2.17q-7.62,0-12.33-4.25a13.83,13.83,0,0,1-4.71-10.74,14.16,14.16,0,0,1,6.42-12.21q6.42-4.48,17.89-4.49h10.6v-6a11.58,11.58,0,0,0-3.49-8.91q-3.5-3.24-10.18-3.24a16,16,0,0,0-10.11,3.12,9.27,9.27,0,0,0-4,7.52l-5.86,0q0-6.3,5.86-10.91a22.51,22.51,0,0,1,14.4-4.62q8.84,0,13.94,4.42t5.25,12.33v25q0,7.66,1.61,11.48v.58Zm-18.36-4.2a19.62,19.62,0,0,0,10.48-2.83,16.69,16.69,0,0,0,6.71-7.57v-11.62h-10.45q-8.75.1-13.67,3.2a9.6,9.6,0,0,0-4.93,8.52,9.46,9.46,0,0,0,3.29,7.37A12.4,12.4,0,0,0,1146.94,1302.24Z" transform="translate(-57.86 -157)"/><path class="cls-13" d="M1209.93,1258.59a21.68,21.68,0,0,0-4-.34,14.32,14.32,0,0,0-9.26,3,16.73,16.73,0,0,0-5.39,8.86v36.28h-5.81v-52.83h5.71l.1,8.4q4.64-9.37,14.89-9.38a9.68,9.68,0,0,1,3.86.64Z" transform="translate(-57.86 -157)"/><path class="cls-13" d="M1231.71,1279.83l-6.69,6.45v20.16h-5.86v-75H1225v48l5.52-6,20.21-19.87h7.37l-22.41,22.27,24.37,30.56h-7Z" transform="translate(-57.86 -157)"/><path class="cls-13" d="M1287.62,1307.42a23,23,0,0,1-12.19-3.32,22.63,22.63,0,0,1-8.47-9.25,28.85,28.85,0,0,1-3-13.31v-2.1a31.08,31.08,0,0,1,3-13.72,23.41,23.41,0,0,1,8.23-9.59,20.26,20.26,0,0,1,11.42-3.5q9.62,0,15.26,6.57t5.64,18v3.27h-37.69v1.12q0,9,5.15,15a16.39,16.39,0,0,0,13,6,19.05,19.05,0,0,0,8.28-1.71,18.42,18.42,0,0,0,6.52-5.47l3.66,2.78Q1299.87,1307.42,1287.62,1307.42Zm-1.08-49.8a14.62,14.62,0,0,0-11.11,4.83q-4.52,4.83-5.49,13h31.69v-.64q-.24-7.62-4.35-12.4A13.45,13.45,0,0,0,1286.54,1257.62Z" transform="translate(-57.86 -157)"/><path class="cls-13" d="M1327.9,1240.09v13.52h10.94v4.79H1327.9v35.24c0,2.93.53,5.12,1.59,6.55s2.82,2.15,5.29,2.15a35.61,35.61,0,0,0,4.74-.49l.24,4.75a19,19,0,0,1-6.25.82q-6,0-8.74-3.49t-2.73-10.28V1258.4h-9.72v-4.79H1322v-13.52Z" transform="translate(-57.86 -157)"/><path class="cls-13" d="M1416.86,1289a11.5,11.5,0,0,0-4.15-9.35q-4.14-3.43-15.18-6.54t-16.11-6.76q-7.23-5.18-7.23-13.58a15.91,15.91,0,0,1,6.71-13.25q6.72-5.12,17.17-5.11a28.38,28.38,0,0,1,12.67,2.74,20.75,20.75,0,0,1,8.66,7.61,20,20,0,0,1,3.08,10.89h-6.06a15,15,0,0,0-5-11.73q-5-4.43-13.37-4.43-8.16,0-13,3.64a11.36,11.36,0,0,0-4.84,9.52,10.75,10.75,0,0,0,4.35,8.85q4.35,3.42,13.91,6t14.51,5.42a20.67,20.67,0,0,1,7.42,6.72,16.79,16.79,0,0,1,2.49,9.23,16.07,16.07,0,0,1-6.71,13.47q-6.72,5.09-17.71,5.08a34.68,34.68,0,0,1-13.79-2.69,21,21,0,0,1-9.52-7.52,19.35,19.35,0,0,1-3.25-11.08h6a14.21,14.21,0,0,0,5.61,11.87q5.63,4.34,14.94,4.34,8.31,0,13.33-3.66A11.43,11.43,0,0,0,1416.86,1289Z" transform="translate(-57.86 -157)"/><path class="cls-13" d="M1443.57,1240.09v13.52h10.94v4.79h-10.94v35.24c0,2.93.53,5.12,1.59,6.55s2.82,2.15,5.3,2.15a35.66,35.66,0,0,0,4.73-.49l.25,4.75a19,19,0,0,1-6.25.82q-6,0-8.74-3.49t-2.74-10.28V1258.4H1428v-4.79h9.71v-13.52Z" transform="translate(-57.86 -157)"/><path class="cls-13" d="M1500.6,1299.75q-5.26,7.66-16.84,7.67-8.44,0-12.84-4.91t-4.5-14.52v-34.38h5.82v33.64q0,15.09,12.2,15.09,12.7,0,16.07-10.5v-38.23h5.86v52.83h-5.67Z" transform="translate(-57.86 -157)"/><path class="cls-13" d="M1519.21,1279.54q0-12.3,5.49-19.61a17.69,17.69,0,0,1,14.92-7.3q10.7,0,16.31,8.45v-29.64h5.81v75h-5.47l-.25-7q-5.61,8-16.5,8a17.61,17.61,0,0,1-14.72-7.35q-5.6-7.35-5.59-19.85Zm5.91,1q0,10.11,4.05,16a13.1,13.1,0,0,0,11.42,5.83q10.8,0,15.34-9.52V1268q-4.54-10.3-15.24-10.31a13.26,13.26,0,0,0-11.47,5.79Q1525.11,1269.29,1525.12,1280.56Z" transform="translate(-57.86 -157)"/><path class="cls-13" d="M1576.78,1238.35a3.9,3.9,0,0,1,1.07-2.79,3.83,3.83,0,0,1,2.93-1.14,3.89,3.89,0,0,1,3,1.14,3.84,3.84,0,0,1,1.1,2.79,3.78,3.78,0,0,1-1.1,2.77,4,4,0,0,1-3,1.11,3.89,3.89,0,0,1-2.93-1.11A3.83,3.83,0,0,1,1576.78,1238.35Zm6.88,68.09h-5.86v-52.83h5.86Z" transform="translate(-57.86 -157)"/><path class="cls-13" d="M1620,1307.42a23,23,0,0,1-12.18-3.32,22.66,22.66,0,0,1-8.48-9.25,29,29,0,0,1-3-13.31v-2.1a31.07,31.07,0,0,1,3-13.72,23.41,23.41,0,0,1,8.23-9.59,20.27,20.27,0,0,1,11.43-3.5q9.61,0,15.25,6.57t5.64,18v3.27h-37.69v1.12q0,9,5.15,15a16.39,16.39,0,0,0,13,6,19,19,0,0,0,8.28-1.71,18.33,18.33,0,0,0,6.52-5.47l3.66,2.78Q1632.24,1307.42,1620,1307.42Zm-1.07-49.8a14.61,14.61,0,0,0-11.11,4.83q-4.53,4.83-5.5,13H1634v-.64q-.24-7.62-4.34-12.4A13.48,13.48,0,0,0,1618.92,1257.62Z" transform="translate(-57.86 -157)"/><path class="cls-13" d="M1682.83,1293a8.33,8.33,0,0,0-3.49-7q-3.49-2.62-10.52-4.12a47.68,47.68,0,0,1-10.92-3.42,14.72,14.72,0,0,1-5.76-4.71,11.79,11.79,0,0,1-1.88-6.74,12.56,12.56,0,0,1,5.23-10.33q5.22-4.08,13.38-4.08,8.84,0,14.18,4.37a14,14,0,0,1,5.35,11.41h-5.86a9.48,9.48,0,0,0-3.88-7.72,15.3,15.3,0,0,0-9.79-3.07c-3.85,0-6.93.85-9.26,2.56a7.93,7.93,0,0,0-3.49,6.66A7.2,7.2,0,0,0,1659,1273c1.93,1.45,5.47,2.78,10.59,4a50,50,0,0,1,11.53,3.86,14.91,14.91,0,0,1,5.68,4.93,13.55,13.55,0,0,1-3.54,17.68q-5.38,4-14.08,4-9.23,0-15-4.47a13.76,13.76,0,0,1-5.74-11.3h5.86a10.14,10.14,0,0,0,4.33,8q4,2.86,10.52,2.86,6.11,0,9.86-2.69A8,8,0,0,0,1682.83,1293Z" transform="translate(-57.86 -157)"/><path class="cls-13" d="M592.45,2403.66h6a20.4,20.4,0,0,0,8.79-1.78A13.4,13.4,0,0,0,613,2397a13,13,0,0,0,2-7.15q0-6.84-3.86-10.69t-11.08-3.86a15.87,15.87,0,0,0-11.21,4,13.76,13.76,0,0,0-4.37,10.62h-5.86a19,19,0,0,1,2.79-10.09,18.65,18.65,0,0,1,7.71-7,23.92,23.92,0,0,1,10.94-2.49q9.66,0,15.23,5.27t5.57,14.46a15.35,15.35,0,0,1-3.25,9.44,19.4,19.4,0,0,1-8.91,6.47,18.31,18.31,0,0,1,10.06,6.37,17.36,17.36,0,0,1,3.42,10.77q0,9.13-6,14.7t-15.92,5.57a26.61,26.61,0,0,1-11.64-2.54,18.79,18.79,0,0,1-11.11-17.73h5.86a14.22,14.22,0,0,0,4.73,11.06q4.74,4.28,12.16,4.27,7.58,0,11.79-3.88t4.23-11.25q0-7.14-4.57-10.89t-13.45-3.76h-5.86Z" transform="translate(-57.86 -157)"/><path class="cls-13" d="M635.27,2438.86a4.14,4.14,0,0,1,1.1-2.9,3.93,3.93,0,0,1,3-1.2,4,4,0,0,1,3.08,1.2,4.07,4.07,0,0,1,1.12,2.9,3.75,3.75,0,0,1-1.12,2.81,4.24,4.24,0,0,1-3.08,1.1,4.13,4.13,0,0,1-3-1.1A3.81,3.81,0,0,1,635.27,2438.86Z" transform="translate(-57.86 -157)"/><path class="cls-13" d="M725.6,2424.9a11.49,11.49,0,0,0-4.15-9.35q-4.14-3.45-15.18-6.55t-16.11-6.76q-7.23-5.17-7.23-13.57a15.91,15.91,0,0,1,6.71-13.26q6.72-5.1,17.17-5.1a28.51,28.51,0,0,1,12.67,2.73,20.78,20.78,0,0,1,8.66,7.62,20,20,0,0,1,3.08,10.89h-6.05a14.93,14.93,0,0,0-5-11.73q-5-4.44-13.37-4.43-8.16,0-13,3.64a11.36,11.36,0,0,0-4.84,9.51,10.75,10.75,0,0,0,4.35,8.85q4.35,3.43,13.92,6t14.5,5.43a20.74,20.74,0,0,1,7.42,6.71,16.81,16.81,0,0,1,2.49,9.23,16.09,16.09,0,0,1-6.71,13.48q-6.72,5.07-17.7,5.08a34.7,34.7,0,0,1-13.8-2.69,21.07,21.07,0,0,1-9.52-7.52,19.37,19.37,0,0,1-3.25-11.08h6a14.2,14.2,0,0,0,5.61,11.86q5.63,4.35,15,4.35,8.29,0,13.33-3.66A11.47,11.47,0,0,0,725.6,2424.9Z" transform="translate(-57.86 -157)"/><path class="cls-13" d="M785.71,2416.5q0,12.36-5.47,19.6a17.41,17.41,0,0,1-14.65,7.26q-10.83,0-16.6-7.62v27h-5.81v-73.14h5.42l.3,7.47q5.7-8.45,16.55-8.45,9.46,0,14.87,7.18t5.39,19.92Zm-5.86-1q0-10.11-4.15-16a13.37,13.37,0,0,0-11.57-5.86A15.43,15.43,0,0,0,749,2403.76v25.34a15.44,15.44,0,0,0,6,6.93,17.26,17.26,0,0,0,9.23,2.39,13.27,13.27,0,0,0,11.5-5.88Q779.86,2426.66,779.85,2415.48Z" transform="translate(-57.86 -157)"/><path class="cls-13" d="M823.07,2394.53a21.71,21.71,0,0,0-4-.34,14.22,14.22,0,0,0-9.25,3,16.7,16.7,0,0,0-5.4,8.86v36.28h-5.81v-52.83h5.71l.1,8.4q4.63-9.37,14.89-9.38a9.48,9.48,0,0,1,3.86.64Z" transform="translate(-57.86 -157)"/><path class="cls-13" d="M851.83,2443.36a23,23,0,0,1-12.19-3.32,22.66,22.66,0,0,1-8.47-9.26,28.8,28.8,0,0,1-3-13.3v-2.1a31.08,31.08,0,0,1,3-13.72,23.51,23.51,0,0,1,8.23-9.6,20.25,20.25,0,0,1,11.42-3.49q9.62,0,15.26,6.57t5.64,17.94v3.27H834v1.13q0,9,5.16,15a16.36,16.36,0,0,0,13,6,19.23,19.23,0,0,0,8.28-1.7,18.41,18.41,0,0,0,6.51-5.47l3.67,2.78Q864.08,2443.36,851.83,2443.36Zm-1.08-49.81a14.6,14.6,0,0,0-11.11,4.84q-4.51,4.83-5.49,13h31.69v-.63q-.24-7.62-4.35-12.4A13.46,13.46,0,0,0,850.75,2393.55Z" transform="translate(-57.86 -157)"/><path class="cls-13" d="M916.38,2442.38a27.72,27.72,0,0,1-1.13-7.37,20.37,20.37,0,0,1-7.83,6.17,24,24,0,0,1-10.09,2.18q-7.62,0-12.33-4.25a13.85,13.85,0,0,1-4.71-10.74,14.13,14.13,0,0,1,6.42-12.21q6.42-4.5,17.9-4.49H915.2v-6q0-5.67-3.49-8.91t-10.18-3.25a15.9,15.9,0,0,0-10.11,3.13,9.27,9.27,0,0,0-4,7.52l-5.86-.05q0-6.3,5.86-10.92a22.61,22.61,0,0,1,14.41-4.61q8.83,0,13.94,4.42t5.24,12.33v25q0,7.66,1.62,11.47v.59Zm-18.36-4.2a19.61,19.61,0,0,0,10.47-2.83,16.64,16.64,0,0,0,6.71-7.57v-11.62H904.75q-8.73.09-13.67,3.2a9.58,9.58,0,0,0-4.93,8.52,9.43,9.43,0,0,0,3.3,7.37A12.41,12.41,0,0,0,898,2438.18Z" transform="translate(-57.86 -157)"/><path class="cls-13" d="M934.25,2415.48q0-12.32,5.49-19.61a17.66,17.66,0,0,1,14.92-7.3q10.7,0,16.31,8.45v-29.64h5.81v75h-5.47l-.25-7q-5.61,8-16.5,8a17.6,17.6,0,0,1-14.72-7.35q-5.6-7.35-5.59-19.85Zm5.91,1q0,10.11,4.05,15.94a13.11,13.11,0,0,0,11.42,5.84q10.8,0,15.34-9.52V2404q-4.54-10.3-15.24-10.3a13.27,13.27,0,0,0-11.47,5.78Q940.15,2405.22,940.16,2416.5Z" transform="translate(-57.86 -157)"/><path class="cls-13" d="M1016.13,2374.29a3.9,3.9,0,0,1,1.08-2.79,3.82,3.82,0,0,1,2.93-1.14,3.84,3.84,0,0,1,4.05,3.93,3.78,3.78,0,0,1-1.1,2.76,3.93,3.93,0,0,1-3,1.12,3.84,3.84,0,0,1-2.93-1.12A3.8,3.8,0,0,1,1016.13,2374.29Zm6.89,68.09h-5.86v-52.83H1023Z" transform="translate(-57.86 -157)"/><path class="cls-13" d="M1048,2376v13.53h10.94v4.78H1048v35.25q0,4.4,1.58,6.55t5.3,2.15a37.43,37.43,0,0,0,4.74-.49l.24,4.74a19,19,0,0,1-6.25.83q-6,0-8.74-3.5t-2.73-10.27v-35.26h-9.72v-4.78h9.72V2376Z" transform="translate(-57.86 -157)"/><path class="cls-13" d="M1104.41,2376v13.53h10.94v4.78h-10.94v35.25q0,4.4,1.59,6.55c1.06,1.43,2.82,2.15,5.3,2.15a37.49,37.49,0,0,0,4.73-.49l.25,4.74a19,19,0,0,1-6.25.83q-6,0-8.74-3.5t-2.74-10.27v-35.26h-9.71v-4.78h9.71V2376Z" transform="translate(-57.86 -157)"/><path class="cls-13" d="M1123.26,2415.18a31.21,31.21,0,0,1,3-13.72,22.18,22.18,0,0,1,20.59-12.89q10.54,0,17.09,7.4t6.54,19.6v1.22a31.4,31.4,0,0,1-3,13.8,22.13,22.13,0,0,1-8.32,9.45,22.87,22.87,0,0,1-12.26,3.32,21.75,21.75,0,0,1-17.06-7.4q-6.57-7.39-6.57-19.61Zm5.86,1.61q0,9.48,4.91,15.55a16.6,16.6,0,0,0,25.68,0q4.9-6.08,4.91-16v-1.13a26.79,26.79,0,0,0-2.25-11.08,18.05,18.05,0,0,0-6.3-7.79,16.07,16.07,0,0,0-9.27-2.76,15.61,15.61,0,0,0-12.75,6.13q-4.93,6.12-4.93,16Z" transform="translate(-57.86 -157)"/><path class="cls-13" d="M1215.89,2376v13.53h10.94v4.78h-10.94v35.25q0,4.4,1.58,6.55t5.3,2.15a37.43,37.43,0,0,0,4.74-.49l.24,4.74a19,19,0,0,1-6.25.83q-6,0-8.74-3.5t-2.73-10.27v-35.26h-9.72v-4.78H1210V2376Z" transform="translate(-57.86 -157)"/><path class="cls-13" d="M1244.75,2398.48a20.5,20.5,0,0,1,7.37-7.32,19.24,19.24,0,0,1,9.81-2.59q8.5,0,12.65,4.79t4.2,14.35v34.67H1273v-34.72q-.06-7.08-3-10.54t-9.44-3.47a14.8,14.8,0,0,0-9.6,3.39,19.92,19.92,0,0,0-6.17,9.16v36.18h-5.82v-75h5.82Z" transform="translate(-57.86 -157)"/><path class="cls-13" d="M1314.28,2443.36a23,23,0,0,1-12.19-3.32,22.66,22.66,0,0,1-8.47-9.26,28.8,28.8,0,0,1-3-13.3v-2.1a31.08,31.08,0,0,1,3-13.72,23.51,23.51,0,0,1,8.23-9.6,20.25,20.25,0,0,1,11.42-3.49q9.61,0,15.26,6.57t5.64,17.94v3.27h-37.69v1.13q0,9,5.15,15a16.36,16.36,0,0,0,13,6,19.2,19.2,0,0,0,8.28-1.7,18.52,18.52,0,0,0,6.52-5.47L1333,2434Q1326.53,2443.36,1314.28,2443.36Zm-1.08-49.81a14.6,14.6,0,0,0-11.11,4.84q-4.52,4.83-5.49,13h31.69v-.63q-.24-7.62-4.35-12.4A13.46,13.46,0,0,0,1313.2,2393.55Z" transform="translate(-57.86 -157)"/><path class="cls-13" d="M1382.44,2430.22l.88,4.54,1.17-4.78,12.7-40.43h5l12.55,40.09,1.36,5.56,1.13-5.13,10.84-40.52h6l-15.38,52.83h-5l-13.57-41.9-.64-2.88-.63,2.93-13.33,41.85h-5l-15.33-52.83h6Z" transform="translate(-57.86 -157)"/><path class="cls-13" d="M1442,2415.18a31.08,31.08,0,0,1,3-13.72,22.18,22.18,0,0,1,20.58-12.89q10.55,0,17.09,7.4t6.54,19.6v1.22a31.54,31.54,0,0,1-3,13.8,22.15,22.15,0,0,1-8.33,9.45,22.87,22.87,0,0,1-12.26,3.32,21.76,21.76,0,0,1-17.06-7.4q-6.57-7.39-6.57-19.61Zm5.86,1.61q0,9.48,4.91,15.55a16.6,16.6,0,0,0,25.68,0q4.9-6.08,4.91-16v-1.13a26.79,26.79,0,0,0-2.25-11.08,17.91,17.91,0,0,0-6.3-7.79,16.07,16.07,0,0,0-9.27-2.76,15.61,15.61,0,0,0-12.75,6.13q-4.93,6.12-4.93,16Z" transform="translate(-57.86 -157)"/><path class="cls-13" d="M1525.6,2394.53a21.52,21.52,0,0,0-3.95-.34,14.22,14.22,0,0,0-9.25,3,16.7,16.7,0,0,0-5.4,8.86v36.28h-5.81v-52.83h5.71l.1,8.4q4.63-9.37,14.89-9.38a9.48,9.48,0,0,1,3.86.64Z" transform="translate(-57.86 -157)"/><path class="cls-13" d="M1541.38,2442.38h-5.86v-75h5.86Z" transform="translate(-57.86 -157)"/><path class="cls-13" d="M1554.9,2415.48q0-12.32,5.49-19.61a17.69,17.69,0,0,1,14.92-7.3q10.7,0,16.31,8.45v-29.64h5.81v75H1592l-.24-7q-5.62,8-16.51,8a17.62,17.62,0,0,1-14.72-7.35q-5.6-7.35-5.59-19.85Zm5.91,1q0,10.11,4,15.94a13.11,13.11,0,0,0,11.43,5.84q10.79,0,15.33-9.52V2404q-4.55-10.3-15.23-10.3a13.29,13.29,0,0,0-11.48,5.78Q1560.82,2405.22,1560.81,2416.5Z" transform="translate(-57.86 -157)"/><path class="cls-13" d="M589.67,2524.92l.54,2.81.73-3,7.87-25.07h3.09l7.78,24.86.84,3.45.7-3.18,6.72-25.13h3.76l-9.54,32.76h-3.09l-8.41-26-.4-1.78-.39,1.81-8.27,25.95h-3.08L579,2499.7h3.72Z" transform="translate(-57.86 -157)"/><path class="cls-13" d="M628.36,2490.24a2.44,2.44,0,0,1,.66-1.73,2.39,2.39,0,0,1,1.82-.71,2.38,2.38,0,0,1,2.51,2.44,2.35,2.35,0,0,1-.68,1.71,2.43,2.43,0,0,1-1.83.7,2.33,2.33,0,0,1-2.48-2.41Zm4.26,42.22H629V2499.7h3.63Z" transform="translate(-57.86 -157)"/><path class="cls-13" d="M648.09,2491.31v8.39h6.79v3h-6.79v21.85a6.8,6.8,0,0,0,1,4.06,3.8,3.8,0,0,0,3.28,1.33,22.67,22.67,0,0,0,2.94-.3l.15,2.94a11.83,11.83,0,0,1-3.87.51c-2.49,0-4.29-.72-5.42-2.16s-1.7-3.57-1.7-6.38v-21.85h-6v-3h6v-8.39Z" transform="translate(-57.86 -157)"/><path class="cls-13" d="M666,2505.24a12.74,12.74,0,0,1,4.57-4.54,11.93,11.93,0,0,1,6.08-1.6c3.51,0,6.13,1,7.84,3s2.59,5,2.61,8.9v21.5h-3.61v-21.53q0-4.38-1.86-6.54t-5.86-2.15a9.14,9.14,0,0,0-6,2.11A12.27,12.27,0,0,0,666,2510v22.44h-3.61V2486H666Z" transform="translate(-57.86 -157)"/><path class="cls-13" d="M731.1,2524.13a5.18,5.18,0,0,0-2.16-4.33,16.76,16.76,0,0,0-6.52-2.56,28.93,28.93,0,0,1-6.77-2.12,8.93,8.93,0,0,1-3.57-2.92,7.25,7.25,0,0,1-1.17-4.17,7.8,7.8,0,0,1,3.24-6.41,13.11,13.11,0,0,1,8.3-2.52,13.49,13.49,0,0,1,8.79,2.7,8.72,8.72,0,0,1,3.32,7.07h-3.64a5.87,5.87,0,0,0-2.4-4.78,10.86,10.86,0,0,0-11.81-.32,4.92,4.92,0,0,0-2.17,4.13,4.44,4.44,0,0,0,1.81,3.8q1.8,1.35,6.56,2.47a31.38,31.38,0,0,1,7.15,2.39,9.35,9.35,0,0,1,3.53,3.06,8.41,8.41,0,0,1-2.2,11,14.32,14.32,0,0,1-8.73,2.48,14.64,14.64,0,0,1-9.28-2.77,8.54,8.54,0,0,1-3.56-7h3.63a6.34,6.34,0,0,0,2.68,4.95,11,11,0,0,0,6.53,1.77,10.27,10.27,0,0,0,6.11-1.66A5,5,0,0,0,731.1,2524.13Z" transform="translate(-57.86 -157)"/><path class="cls-13" d="M748.51,2491.31v8.39h6.78v3h-6.78v21.85a6.8,6.8,0,0,0,1,4.06,3.8,3.8,0,0,0,3.28,1.33,22.83,22.83,0,0,0,2.94-.3l.15,2.94a11.86,11.86,0,0,1-3.88.51q-3.72,0-5.42-2.16c-1.13-1.45-1.69-3.57-1.69-6.38v-21.85h-6v-3h6v-8.39Z" transform="translate(-57.86 -157)"/><path class="cls-13" d="M777.94,2502.79a13.75,13.75,0,0,0-2.46-.21,8.83,8.83,0,0,0-5.73,1.89,10.34,10.34,0,0,0-3.35,5.49v22.5h-3.6V2499.7h3.54l.06,5.21a9.63,9.63,0,0,1,9.24-5.81,6,6,0,0,1,2.39.39Z" transform="translate(-57.86 -157)"/><path class="cls-13" d="M781.06,2515.59a19.28,19.28,0,0,1,1.83-8.5,13.73,13.73,0,0,1,12.76-8,13.44,13.44,0,0,1,10.59,4.58q4.07,4.59,4.06,12.16v.75a19.43,19.43,0,0,1-1.83,8.55,13.62,13.62,0,0,1-5.16,5.86,14.11,14.11,0,0,1-7.6,2.06,13.5,13.5,0,0,1-10.58-4.58q-4.08-4.59-4.07-12.16Zm3.63,1a14.83,14.83,0,0,0,3,9.64,10.29,10.29,0,0,0,15.92,0q3-3.77,3.05-9.94v-.7a16.64,16.64,0,0,0-1.4-6.87,11.15,11.15,0,0,0-3.9-4.83,10,10,0,0,0-5.75-1.71,9.67,9.67,0,0,0-7.9,3.8q-3.06,3.81-3.06,9.95Z" transform="translate(-57.86 -157)"/><path class="cls-13" d="M821.23,2499.7l.12,5.6a13,13,0,0,1,4.6-4.62,12,12,0,0,1,6.09-1.58c3.51,0,6.12,1,7.84,3s2.58,5,2.6,8.9v21.5h-3.6v-21.53q0-4.38-1.86-6.54t-5.86-2.15a9.14,9.14,0,0,0-5.95,2.11,12.29,12.29,0,0,0-3.83,5.67v22.44h-3.6V2499.7Z" transform="translate(-57.86 -157)"/><path class="cls-13" d="M850.38,2515.78q0-7.7,3.41-12.19a11,11,0,0,1,9.25-4.49,11.39,11.39,0,0,1,10.17,5.32l.18-4.72h3.39v32.09q0,6.33-3.54,10t-9.6,3.69a14.68,14.68,0,0,1-6.52-1.52,12.64,12.64,0,0,1-4.89-4.08l2-2.18q3.84,4.72,9.14,4.73a9.3,9.3,0,0,0,7.08-2.68,10.67,10.67,0,0,0,2.64-7.43v-4.12c-2.32,3.23-5.71,4.84-10.14,4.84a10.92,10.92,0,0,1-9.15-4.54q-3.45-4.55-3.45-12.26Zm3.66.63q0,6.27,2.52,9.89a8.11,8.11,0,0,0,7.08,3.61,9.68,9.68,0,0,0,9.48-6v-15.23a10.32,10.32,0,0,0-3.67-4.8,9.86,9.86,0,0,0-5.75-1.65,8.21,8.21,0,0,0-7.11,3.59Q854,2509.42,854,2516.41Z" transform="translate(-57.86 -157)"/><path class="cls-13" d="M922,2532.46a16.85,16.85,0,0,1-.7-4.57,12.56,12.56,0,0,1-4.86,3.82,14.82,14.82,0,0,1-6.25,1.35,11,11,0,0,1-7.64-2.63,8.58,8.58,0,0,1-2.92-6.66,8.76,8.76,0,0,1,4-7.57q4-2.79,11.09-2.79h6.57v-3.72a7.17,7.17,0,0,0-2.16-5.52c-1.45-1.35-3.55-2-6.32-2a9.87,9.87,0,0,0-6.26,1.94,5.74,5.74,0,0,0-2.48,4.66l-3.64,0A8.39,8.39,0,0,1,904,2502a14,14,0,0,1,8.93-2.86q5.47,0,8.64,2.73a9.84,9.84,0,0,1,3.25,7.65V2525a19.3,19.3,0,0,0,1,7.11v.37Zm-11.38-2.61a12.16,12.16,0,0,0,6.49-1.75,10.33,10.33,0,0,0,4.16-4.7v-7.2h-6.48c-3.61,0-6.44.7-8.47,2a6,6,0,0,0-3.06,5.29,5.87,5.87,0,0,0,2,4.57A7.71,7.71,0,0,0,910.6,2529.85Z" transform="translate(-57.86 -157)"/><path class="cls-13" d="M938,2499.7l.12,5.6a13,13,0,0,1,4.61-4.62,11.91,11.91,0,0,1,6.08-1.58c3.51,0,6.12,1,7.84,3s2.58,5,2.6,8.9v21.5h-3.6v-21.53q0-4.38-1.86-6.54t-5.86-2.15a9.14,9.14,0,0,0-5.95,2.11,12.36,12.36,0,0,0-3.83,5.67v22.44h-3.6V2499.7Z" transform="translate(-57.86 -157)"/><path class="cls-13" d="M967.12,2515.78q0-7.64,3.4-12.16a11,11,0,0,1,9.25-4.52,11.38,11.38,0,0,1,10.11,5.23V2486h3.6v46.5h-3.39l-.15-4.36q-3.48,5-10.23,5a10.94,10.94,0,0,1-9.13-4.55q-3.47-4.56-3.46-12.31Zm3.66.63q0,6.27,2.51,9.89a8.14,8.14,0,0,0,7.09,3.61,9.74,9.74,0,0,0,9.5-5.9v-15.38q-2.82-6.39-9.44-6.39a8.24,8.24,0,0,0-7.12,3.59Q970.79,2509.42,970.78,2516.41Z" transform="translate(-57.86 -157)"/><path class="cls-13" d="M1038.77,2532.46a17.33,17.33,0,0,1-.69-4.57,12.56,12.56,0,0,1-4.86,3.82,14.86,14.86,0,0,1-6.25,1.35,11,11,0,0,1-7.65-2.63,8.58,8.58,0,0,1-2.92-6.66,8.78,8.78,0,0,1,4-7.57c2.66-1.86,6.35-2.79,11.1-2.79h6.57v-3.72a7.18,7.18,0,0,0-2.17-5.52c-1.44-1.35-3.55-2-6.31-2a9.91,9.91,0,0,0-6.27,1.94,5.77,5.77,0,0,0-2.48,4.66l-3.63,0a8.41,8.41,0,0,1,3.63-6.76,14,14,0,0,1,8.93-2.86c3.65,0,6.54.91,8.64,2.73a9.85,9.85,0,0,1,3.26,7.65V2525a19.09,19.09,0,0,0,1,7.11v.37Zm-11.38-2.61a12.14,12.14,0,0,0,6.49-1.75,10.35,10.35,0,0,0,4.17-4.7v-7.2h-6.48c-3.62,0-6.44.7-8.48,2a6,6,0,0,0-3.06,5.29,5.88,5.88,0,0,0,2.05,4.57A7.69,7.69,0,0,0,1027.39,2529.85Z" transform="translate(-57.86 -157)"/><path class="cls-13" d="M1070.92,2524.13a5.18,5.18,0,0,0-2.16-4.33,16.75,16.75,0,0,0-6.53-2.56,29,29,0,0,1-6.76-2.12,8.86,8.86,0,0,1-3.57-2.92,7.25,7.25,0,0,1-1.17-4.17,7.8,7.8,0,0,1,3.24-6.41,13.11,13.11,0,0,1,8.3-2.52,13.49,13.49,0,0,1,8.79,2.7,8.71,8.71,0,0,1,3.31,7.07h-3.63a5.87,5.87,0,0,0-2.4-4.78,10.86,10.86,0,0,0-11.81-.32,4.92,4.92,0,0,0-2.17,4.13,4.44,4.44,0,0,0,1.81,3.8q1.8,1.35,6.56,2.47a31.56,31.56,0,0,1,7.15,2.39,9.35,9.35,0,0,1,3.53,3.06,8.41,8.41,0,0,1-2.2,11,14.32,14.32,0,0,1-8.73,2.48,14.64,14.64,0,0,1-9.28-2.77,8.54,8.54,0,0,1-3.56-7h3.63a6.31,6.31,0,0,0,2.68,4.95,11,11,0,0,0,6.53,1.77,10.27,10.27,0,0,0,6.11-1.66A5,5,0,0,0,1070.92,2524.13Z" transform="translate(-57.86 -157)"/><path class="cls-13" d="M1102.32,2524.13a5.16,5.16,0,0,0-2.17-4.33,16.76,16.76,0,0,0-6.52-2.56,29.09,29.09,0,0,1-6.77-2.12,9,9,0,0,1-3.57-2.92,7.25,7.25,0,0,1-1.17-4.17,7.8,7.8,0,0,1,3.24-6.41,13.13,13.13,0,0,1,8.3-2.52,13.49,13.49,0,0,1,8.79,2.7,8.72,8.72,0,0,1,3.32,7.07h-3.63a5.88,5.88,0,0,0-2.41-4.78,10.86,10.86,0,0,0-11.81-.32,4.91,4.91,0,0,0-2.16,4.13,4.45,4.45,0,0,0,1.8,3.8q1.8,1.35,6.57,2.47a31.27,31.27,0,0,1,7.14,2.39,9.27,9.27,0,0,1,3.53,3.06,8.41,8.41,0,0,1-2.2,11,14.32,14.32,0,0,1-8.73,2.48,14.66,14.66,0,0,1-9.28-2.77,8.54,8.54,0,0,1-3.56-7h3.64a6.28,6.28,0,0,0,2.68,4.95,10.94,10.94,0,0,0,6.52,1.77,10.33,10.33,0,0,0,6.12-1.66A5,5,0,0,0,1102.32,2524.13Z" transform="translate(-57.86 -157)"/><path class="cls-13" d="M1126.78,2533.06a14.16,14.16,0,0,1-7.56-2.06,14,14,0,0,1-5.25-5.73,18,18,0,0,1-1.88-8.25v-1.3a19.29,19.29,0,0,1,1.84-8.51,14.56,14.56,0,0,1,5.1-5.95,12.6,12.6,0,0,1,7.08-2.16,11.8,11.8,0,0,1,9.46,4.07q3.5,4.07,3.5,11.12v2H1115.7v.7a13.73,13.73,0,0,0,3.19,9.28,10.16,10.16,0,0,0,8,3.7,11.73,11.73,0,0,0,5.13-1.06,11.27,11.27,0,0,0,4-3.39l2.27,1.73Q1134.38,2533.06,1126.78,2533.06Zm-.67-30.88a9.07,9.07,0,0,0-6.89,3,13.86,13.86,0,0,0-3.4,8.05h19.65v-.39a12.05,12.05,0,0,0-2.7-7.69A8.33,8.33,0,0,0,1126.11,2502.18Z" transform="translate(-57.86 -157)"/><path class="cls-13" d="M1161.26,2502.79a13.71,13.71,0,0,0-2.45-.21,8.85,8.85,0,0,0-5.74,1.89,10.41,10.41,0,0,0-3.35,5.49v22.5h-3.6V2499.7h3.54l.06,5.21a9.63,9.63,0,0,1,9.24-5.81,6,6,0,0,1,2.39.39Z" transform="translate(-57.86 -157)"/><path class="cls-13" d="M1174.12,2491.31v8.39h6.79v3h-6.79v21.85a6.8,6.8,0,0,0,1,4.06,3.8,3.8,0,0,0,3.28,1.33,22.67,22.67,0,0,0,2.94-.3l.15,2.94a11.83,11.83,0,0,1-3.87.51c-2.49,0-4.29-.72-5.42-2.16s-1.7-3.57-1.7-6.38v-21.85h-6v-3h6v-8.39Z" transform="translate(-57.86 -157)"/><path class="cls-13" d="M1188.2,2490.24a2.41,2.41,0,0,1,.67-1.73,2.37,2.37,0,0,1,1.81-.71,2.46,2.46,0,0,1,1.84.71,2.42,2.42,0,0,1,.68,1.73,2.35,2.35,0,0,1-.68,1.71,2.45,2.45,0,0,1-1.84.7,2.35,2.35,0,0,1-2.48-2.41Zm4.27,42.22h-3.63V2499.7h3.63Z" transform="translate(-57.86 -157)"/><path class="cls-13" d="M1212.51,2527.46l10-27.76h3.73L1214,2532.46H1211l-12.29-32.76h3.72Z" transform="translate(-57.86 -157)"/><path class="cls-13" d="M1244.42,2533.06a14.07,14.07,0,0,1-12.81-7.79,18,18,0,0,1-1.87-8.25v-1.3a19.29,19.29,0,0,1,1.83-8.51,14.56,14.56,0,0,1,5.1-5.95,12.6,12.6,0,0,1,7.08-2.16,11.8,11.8,0,0,1,9.46,4.07q3.51,4.07,3.5,11.12v2h-23.37v.7a13.73,13.73,0,0,0,3.19,9.28,10.16,10.16,0,0,0,8,3.7,11.73,11.73,0,0,0,5.13-1.06,11.19,11.19,0,0,0,4-3.39l2.27,1.73Q1252,2533.06,1244.42,2533.06Zm-.67-30.88a9,9,0,0,0-6.88,3,13.8,13.8,0,0,0-3.41,8.05h19.65v-.39a12,12,0,0,0-2.7-7.69A8.33,8.33,0,0,0,1243.75,2502.18Z" transform="translate(-57.86 -157)"/><path class="cls-13" d="M602.5,2606.86a17.34,17.34,0,0,1-.69-4.58,12.56,12.56,0,0,1-4.86,3.83,14.89,14.89,0,0,1-6.25,1.35,11,11,0,0,1-7.65-2.63,8.58,8.58,0,0,1-2.92-6.66,8.78,8.78,0,0,1,4-7.57c2.66-1.86,6.35-2.79,11.1-2.79h6.57v-3.72a7.18,7.18,0,0,0-2.17-5.52c-1.44-1.35-3.55-2-6.31-2a9.91,9.91,0,0,0-6.27,1.94,5.77,5.77,0,0,0-2.48,4.66l-3.63,0a8.41,8.41,0,0,1,3.63-6.76,14,14,0,0,1,8.93-2.87c3.65,0,6.54.92,8.64,2.74a9.85,9.85,0,0,1,3.26,7.65v15.5a19.09,19.09,0,0,0,1,7.11v.37Zm-11.38-2.61a12.14,12.14,0,0,0,6.49-1.75,10.35,10.35,0,0,0,4.17-4.7v-7.2H595.3c-3.62,0-6.44.7-8.48,2a5.94,5.94,0,0,0-3.06,5.28,5.85,5.85,0,0,0,2,4.58A7.69,7.69,0,0,0,591.12,2604.25Z" transform="translate(-57.86 -157)"/><path class="cls-13" d="M613.58,2590.18q0-7.63,3.41-12.16a11,11,0,0,1,9.25-4.53,11.39,11.39,0,0,1,10.11,5.24v-18.37H640v46.5h-3.39l-.15-4.36q-3.48,5-10.23,5a10.93,10.93,0,0,1-9.13-4.55q-3.46-4.56-3.47-12.31Zm3.67.63q0,6.27,2.51,9.89a8.11,8.11,0,0,0,7.08,3.61,9.75,9.75,0,0,0,9.51-5.9V2583q-2.82-6.39-9.45-6.39a8.21,8.21,0,0,0-7.11,3.59Q617.24,2583.81,617.25,2590.81Z" transform="translate(-57.86 -157)"/><path class="cls-13" d="M659.69,2601.86l10-27.76h3.72l-12.23,32.76h-2.93l-12.3-32.76h3.73Z" transform="translate(-57.86 -157)"/><path class="cls-13" d="M691.6,2607.46a14.16,14.16,0,0,1-7.56-2.06,14,14,0,0,1-5.25-5.73,18,18,0,0,1-1.88-8.25v-1.31a19.14,19.14,0,0,1,1.84-8.5,14.56,14.56,0,0,1,5.1-6,12.61,12.61,0,0,1,7.08-2.17,11.81,11.81,0,0,1,9.46,4.08q3.5,4.07,3.5,11.12v2H680.52v.7a13.73,13.73,0,0,0,3.19,9.28,10.16,10.16,0,0,0,8,3.7,11.73,11.73,0,0,0,5.13-1.06,11.27,11.27,0,0,0,4-3.39l2.27,1.73Q699.2,2607.46,691.6,2607.46Zm-.67-30.88a9.07,9.07,0,0,0-6.89,3,13.86,13.86,0,0,0-3.4,8.05h19.65v-.39a12.05,12.05,0,0,0-2.7-7.69A8.33,8.33,0,0,0,690.93,2576.58Z" transform="translate(-57.86 -157)"/><path class="cls-13" d="M726.08,2577.19a13.71,13.71,0,0,0-2.45-.21,8.85,8.85,0,0,0-5.74,1.89,10.41,10.41,0,0,0-3.35,5.49v22.5h-3.6V2574.1h3.54l.06,5.21a9.64,9.64,0,0,1,9.24-5.82,6,6,0,0,1,2.39.4Z" transform="translate(-57.86 -157)"/><path class="cls-13" d="M738.94,2565.71v8.39h6.79v3h-6.79v21.85a6.8,6.8,0,0,0,1,4.06,3.8,3.8,0,0,0,3.28,1.33,22.67,22.67,0,0,0,2.94-.3l.15,2.94a11.83,11.83,0,0,1-3.87.51c-2.49,0-4.29-.72-5.42-2.16s-1.7-3.57-1.7-6.38v-21.85h-6v-3h6v-8.39Z" transform="translate(-57.86 -157)"/><path class="cls-13" d="M753,2564.64a2.41,2.41,0,0,1,.67-1.73,2.37,2.37,0,0,1,1.81-.71,2.46,2.46,0,0,1,1.84.71,2.42,2.42,0,0,1,.68,1.73,2.35,2.35,0,0,1-.68,1.71,2.45,2.45,0,0,1-1.84.7,2.35,2.35,0,0,1-2.48-2.41Zm4.27,42.22h-3.63V2574.1h3.63Z" transform="translate(-57.86 -157)"/><path class="cls-13" d="M786.75,2598.53a5.17,5.17,0,0,0-2.17-4.33,16.76,16.76,0,0,0-6.52-2.56,29.09,29.09,0,0,1-6.77-2.12,9,9,0,0,1-3.57-2.92,7.25,7.25,0,0,1-1.17-4.17,7.8,7.8,0,0,1,3.24-6.41,13.13,13.13,0,0,1,8.3-2.53,13.5,13.5,0,0,1,8.79,2.71,8.72,8.72,0,0,1,3.32,7.07h-3.64a5.87,5.87,0,0,0-2.4-4.78,10.86,10.86,0,0,0-11.81-.32,4.91,4.91,0,0,0-2.16,4.13,4.45,4.45,0,0,0,1.8,3.8q1.8,1.35,6.57,2.47a30.79,30.79,0,0,1,7.14,2.39,9.27,9.27,0,0,1,3.53,3.06,8.41,8.41,0,0,1-2.2,11,14.32,14.32,0,0,1-8.73,2.48,14.66,14.66,0,0,1-9.28-2.77,8.52,8.52,0,0,1-3.56-7h3.64a6.28,6.28,0,0,0,2.68,5,10.94,10.94,0,0,0,6.52,1.77,10.33,10.33,0,0,0,6.12-1.66A5,5,0,0,0,786.75,2598.53Z" transform="translate(-57.86 -157)"/><path class="cls-13" d="M798.31,2564.64a2.41,2.41,0,0,1,.67-1.73,2.37,2.37,0,0,1,1.81-.71,2.42,2.42,0,0,1,1.83.71,2.38,2.38,0,0,1,.69,1.73,2.32,2.32,0,0,1-.69,1.71,2.41,2.41,0,0,1-1.83.7,2.35,2.35,0,0,1-2.48-2.41Zm4.27,42.22H799V2574.1h3.63Z" transform="translate(-57.86 -157)"/><path class="cls-13" d="M815.87,2574.1l.12,5.6a13,13,0,0,1,4.6-4.62,12,12,0,0,1,6.09-1.59q5.27,0,7.84,3t2.6,8.9v21.5h-3.6v-21.53q0-4.38-1.86-6.54c-1.22-1.43-3.18-2.15-5.86-2.15a9.2,9.2,0,0,0-5.95,2.11,12.36,12.36,0,0,0-3.83,5.67v22.44h-3.6V2574.1Z" transform="translate(-57.86 -157)"/><path class="cls-13" d="M845,2590.18q0-7.69,3.41-12.19a11,11,0,0,1,9.25-4.5,11.39,11.39,0,0,1,10.17,5.33l.18-4.72h3.39v32.09q0,6.33-3.54,10t-9.6,3.69a14.68,14.68,0,0,1-6.52-1.52,12.64,12.64,0,0,1-4.89-4.08l2-2.18q3.84,4.73,9.14,4.73a9.3,9.3,0,0,0,7.08-2.68,10.68,10.68,0,0,0,2.64-7.44v-4.11q-3.48,4.85-10.14,4.84a10.92,10.92,0,0,1-9.15-4.54q-3.45-4.55-3.45-12.26Zm3.67.63q0,6.27,2.51,9.89a8.11,8.11,0,0,0,7.08,3.61,9.7,9.7,0,0,0,9.48-6v-15.23a10.37,10.37,0,0,0-3.66-4.8,9.92,9.92,0,0,0-5.76-1.65,8.23,8.23,0,0,0-7.11,3.59Q848.68,2583.81,848.69,2590.81Z" transform="translate(-57.86 -157)"/><path class="cls-13" d="M908.05,2604.4a9.57,9.57,0,0,0,6.34-2.13,7.48,7.48,0,0,0,2.77-5.53h3.49a10.37,10.37,0,0,1-1.88,5.47,11.8,11.8,0,0,1-4.59,3.86,13.8,13.8,0,0,1-6.13,1.39,12.62,12.62,0,0,1-10.21-4.48q-3.78-4.49-3.77-12.05v-1.09a20.51,20.51,0,0,1,1.69-8.57,13.11,13.11,0,0,1,4.86-5.75,13.44,13.44,0,0,1,7.4-2,12.64,12.64,0,0,1,8.89,3.21,11.75,11.75,0,0,1,3.74,8.45h-3.49a8.76,8.76,0,0,0-9.14-8.57,9,9,0,0,0-7.61,3.54q-2.71,3.55-2.71,9.93v1.06q0,6.27,2.71,9.78A9.08,9.08,0,0,0,908.05,2604.4Z" transform="translate(-57.86 -157)"/><path class="cls-13" d="M948.56,2606.86a16.87,16.87,0,0,1-.7-4.58,12.49,12.49,0,0,1-4.86,3.83,14.82,14.82,0,0,1-6.25,1.35,11,11,0,0,1-7.64-2.63,8.58,8.58,0,0,1-2.92-6.66,8.76,8.76,0,0,1,4-7.57q4-2.79,11.09-2.79h6.57v-3.72a7.17,7.17,0,0,0-2.16-5.52c-1.45-1.35-3.55-2-6.32-2a9.87,9.87,0,0,0-6.26,1.94,5.74,5.74,0,0,0-2.48,4.66l-3.64,0a8.39,8.39,0,0,1,3.64-6.76,14,14,0,0,1,8.93-2.87c3.65,0,6.53.92,8.64,2.74a9.84,9.84,0,0,1,3.25,7.65v15.5a19.3,19.3,0,0,0,1,7.11v.37Zm-11.38-2.61a12.16,12.16,0,0,0,6.49-1.75,10.33,10.33,0,0,0,4.16-4.7v-7.2h-6.48c-3.61,0-6.44.7-8.47,2a5.94,5.94,0,0,0-3.06,5.28,5.87,5.87,0,0,0,2,4.58A7.73,7.73,0,0,0,937.18,2604.25Z" transform="translate(-57.86 -157)"/><path class="cls-13" d="M964.39,2574.1l.12,5.33a12.15,12.15,0,0,1,4.54-4.45,12.48,12.48,0,0,1,6.06-1.49q7.74,0,9.84,6.36a12.27,12.27,0,0,1,4.69-4.71,13.12,13.12,0,0,1,6.48-1.65q10.53,0,10.74,11.51v21.86h-3.63v-21.59q0-4.38-1.89-6.51c-1.24-1.41-3.27-2.12-6.07-2.12a9.69,9.69,0,0,0-6.6,2.53,8.93,8.93,0,0,0-3,6v21.68H982V2585q0-4.22-2-6.28c-1.3-1.39-3.31-2.08-6-2.08a9.08,9.08,0,0,0-5.87,2,11.43,11.43,0,0,0-3.64,5.79v22.47h-3.63V2574.1Z" transform="translate(-57.86 -157)"/><path class="cls-13" d="M1042.38,2590.81q0,7.67-3.4,12.16a10.8,10.8,0,0,1-9.08,4.49q-6.72,0-10.29-4.72v16.71H1016V2574.1h3.36l.18,4.63a11.62,11.62,0,0,1,10.26-5.24,10.91,10.91,0,0,1,9.22,4.45q3.35,4.45,3.35,12.36Zm-3.64-.63q0-6.27-2.57-9.9a8.3,8.3,0,0,0-7.18-3.64,9.57,9.57,0,0,0-9.38,6.27v15.71a9.65,9.65,0,0,0,3.72,4.3,10.74,10.74,0,0,0,5.73,1.48,8.2,8.2,0,0,0,7.12-3.64Q1038.75,2597.1,1038.74,2590.18Z" transform="translate(-57.86 -157)"/><path class="cls-13" d="M1071.07,2606.86a17.34,17.34,0,0,1-.69-4.58,12.49,12.49,0,0,1-4.86,3.83,14.86,14.86,0,0,1-6.25,1.35,11,11,0,0,1-7.65-2.63,8.62,8.62,0,0,1-2.92-6.66,8.78,8.78,0,0,1,4-7.57q4-2.79,11.1-2.79h6.57v-3.72a7.14,7.14,0,0,0-2.17-5.52q-2.16-2-6.31-2a9.91,9.91,0,0,0-6.27,1.94,5.77,5.77,0,0,0-2.48,4.66l-3.63,0a8.41,8.41,0,0,1,3.63-6.76,14,14,0,0,1,8.93-2.87c3.66,0,6.54.92,8.65,2.74a9.84,9.84,0,0,1,3.25,7.65v15.5a19.09,19.09,0,0,0,1,7.11v.37Zm-11.38-2.61a12.2,12.2,0,0,0,6.5-1.75,10.38,10.38,0,0,0,4.16-4.7v-7.2h-6.48q-5.41.06-8.48,2a5.94,5.94,0,0,0-3.05,5.28,5.87,5.87,0,0,0,2,4.58A7.69,7.69,0,0,0,1059.69,2604.25Z" transform="translate(-57.86 -157)"/><path class="cls-13" d="M1083.4,2564.64a2.44,2.44,0,0,1,.66-1.73,2.39,2.39,0,0,1,1.82-.71,2.38,2.38,0,0,1,2.51,2.44,2.35,2.35,0,0,1-.68,1.71,2.43,2.43,0,0,1-1.83.7,2.33,2.33,0,0,1-2.48-2.41Zm4.26,42.22H1084V2574.1h3.63Z" transform="translate(-57.86 -157)"/><path class="cls-13" d="M1096.05,2590.18q0-7.69,3.41-12.19a11,11,0,0,1,9.24-4.5,11.42,11.42,0,0,1,10.18,5.33l.18-4.72h3.39v32.09q0,6.33-3.54,10c-2.37,2.46-5.56,3.69-9.6,3.69a14.65,14.65,0,0,1-6.52-1.52,12.64,12.64,0,0,1-4.89-4.08l2-2.18q3.84,4.73,9.14,4.73a9.32,9.32,0,0,0,7.08-2.68,10.72,10.72,0,0,0,2.64-7.44v-4.11q-3.49,4.85-10.15,4.84a10.92,10.92,0,0,1-9.14-4.54q-3.45-4.55-3.45-12.26Zm3.66.63q0,6.27,2.52,9.89a8.11,8.11,0,0,0,7.08,3.61,9.7,9.7,0,0,0,9.48-6v-15.23a10.32,10.32,0,0,0-3.67-4.8,9.86,9.86,0,0,0-5.75-1.65,8.21,8.21,0,0,0-7.11,3.59Q1099.71,2583.81,1099.71,2590.81Z" transform="translate(-57.86 -157)"/><path class="cls-13" d="M1135.34,2574.1l.13,5.6a13,13,0,0,1,4.6-4.62,11.92,11.92,0,0,1,6.08-1.59c3.51,0,6.13,1,7.84,3s2.59,4.95,2.61,8.9v21.5H1153v-21.53q0-4.38-1.86-6.54t-5.86-2.15a9.15,9.15,0,0,0-5.94,2.11,12.21,12.21,0,0,0-3.83,5.67v22.44h-3.61V2574.1Z" transform="translate(-57.86 -157)"/><path class="cls-13" d="M1185.57,2598.53a5.15,5.15,0,0,0-2.17-4.33,16.69,16.69,0,0,0-6.52-2.56,29.09,29.09,0,0,1-6.77-2.12,9,9,0,0,1-3.57-2.92,7.25,7.25,0,0,1-1.16-4.17,7.8,7.8,0,0,1,3.24-6.41,13.08,13.08,0,0,1,8.29-2.53,13.54,13.54,0,0,1,8.8,2.71,8.74,8.74,0,0,1,3.31,7.07h-3.63a5.88,5.88,0,0,0-2.41-4.78,10.86,10.86,0,0,0-11.81-.32,4.91,4.91,0,0,0-2.16,4.13,4.45,4.45,0,0,0,1.8,3.8q1.8,1.35,6.57,2.47a30.79,30.79,0,0,1,7.14,2.39,9.27,9.27,0,0,1,3.53,3.06,8.42,8.42,0,0,1-2.19,11,14.35,14.35,0,0,1-8.74,2.48,14.66,14.66,0,0,1-9.28-2.77,8.51,8.51,0,0,1-3.55-7h3.63a6.28,6.28,0,0,0,2.68,5,10.94,10.94,0,0,0,6.52,1.77,10.33,10.33,0,0,0,6.12-1.66A5,5,0,0,0,1185.57,2598.53Z" transform="translate(-57.86 -157)"/><rect class="cls-14" x="949.22" y="1669.12" width="185.4" height="32.42"/><rect class="cls-15" x="949.22" y="1390.26" width="185.4" height="23.28"/><path d="M1000.91,1544.65v327.5a19.82,19.82,0,0,0,19.82,19.81h157.42a19.82,19.82,0,0,0,19.82-19.81v-327.5a19.82,19.82,0,0,0-19.82-19.81H1020.73A19.82,19.82,0,0,0,1000.91,1544.65Zm175.42,307.21H1022.55a7.05,7.05,0,0,1-7-7V1560.46a7,7,0,0,1,7-7h153.78a7,7,0,0,1,7.05,7v284.35A7.05,7.05,0,0,1,1176.33,1851.86Z" transform="translate(-57.86 -157)"/><path class="cls-16" d="M1036.27,1990.47h126.25a29.91,29.91,0,0,0,30-30h0a29.91,29.91,0,0,0-30-30H957.84a43.73,43.73,0,0,0-31.14,12.79l-49,46.72" transform="translate(-57.86 -157)"/><path class="cls-17" d="M979,2086.69l219.7-27.81a54.47,54.47,0,0,0,20.58-7.78l134-91.22c13.9-8.9,18.35-27.26,9.45-41.16h0c-8.89-13.91-27.25-18.35-41.15-9.46l-117.36,74c-7.79,4.45-16.13,7.23-25,7.23H1036.27" transform="translate(-57.86 -157)"/><path class="cls-18" d="M834.92,1969.33h17.8a21.09,21.09,0,0,1,18.91,11.13L940,2092.81c8.9,15-1.66,33.93-18.91,33.93h0" transform="translate(-57.86 -157)"/><rect class="cls-19" x="966.88" y="1558.37" width="150.08" height="16.69"/><rect class="cls-20" x="966.88" y="1584.04" width="70.68" height="70.68"/><rect class="cls-4" x="1044.24" y="1584.04" width="70.68" height="70.68"/><rect class="cls-19" x="966.88" y="1453.04" width="150.08" height="16.69"/><rect class="cls-21" x="966.88" y="1423.44" width="150.08" height="16.69"/><rect class="cls-4" x="966.88" y="1478.7" width="70.68" height="70.68"/><rect class="cls-22" x="1044.24" y="1478.7" width="70.68" height="70.68"/><path class="cls-23" d="M1296,1628.32a95.49,95.49,0,0,1,0,150.13" transform="translate(-57.86 -157)"/><path class="cls-23" d="M1266.6,1657a59,59,0,0,1,0,92.79" transform="translate(-57.86 -157)"/><path class="cls-23" d="M906.32,1778.45a95.5,95.5,0,0,1,0-150.13" transform="translate(-57.86 -157)"/><path class="cls-23" d="M935.71,1749.78a59,59,0,0,1,0-92.79" transform="translate(-57.86 -157)"/><path d="M1067.54,1463.1c-.07-7.1,5.81-10.55,6.08-10.71a13.09,13.09,0,0,0-10.3-5.57c-4.33-.45-8.54,2.59-10.74,2.59s-5.65-2.54-9.32-2.47a13.71,13.71,0,0,0-11.54,7c-5,8.64-1.27,21.34,3.52,28.32,2.39,3.42,5.18,7.24,8.84,7.11s4.92-2.28,9.24-2.28,5.53,2.28,9.26,2.19,6.26-3.43,8.57-6.88a28.08,28.08,0,0,0,3.92-8A12.37,12.37,0,0,1,1067.54,1463.1Z" transform="translate(-57.86 -157)"/><path d="M1060.49,1442.23a12.64,12.64,0,0,0,2.88-9,12.79,12.79,0,0,0-8.28,4.28c-1.78,2.08-3.36,5.48-2.95,8.68C1055.27,1446.41,1058.48,1444.6,1060.49,1442.23Z" transform="translate(-57.86 -157)"/><g id="g48"><g id="path64"><g class="cls-24"><polygon class="cls-25" points="1087.9 1330.59 1092.48 1326.06 1092.48 1330.59 1087.9 1330.59"/><polygon class="cls-25" points="1087.68 1330.59 1092.48 1325.85 1092.48 1326.06 1087.9 1330.59 1087.68 1330.59"/><polygon class="cls-26" points="1087.47 1330.59 1092.48 1325.63 1092.48 1325.85 1087.68 1330.59 1087.47 1330.59"/><polygon class="cls-26" points="1086.89 1330.59 1092.48 1325.07 1092.48 1325.63 1087.47 1330.59 1086.89 1330.59"/><polygon class="cls-27" points="1086.32 1330.59 1092.48 1324.5 1092.48 1325.07 1086.89 1330.59 1086.32 1330.59"/><polygon class="cls-28" points="1085.74 1330.59 1092.48 1323.93 1092.48 1324.5 1086.32 1330.59 1085.74 1330.59"/><polygon class="cls-29" points="1085.17 1330.59 1092.48 1323.37 1092.48 1323.93 1085.74 1330.59 1085.17 1330.59"/><polygon class="cls-30" points="1084.6 1330.59 1092.48 1322.8 1092.48 1323.37 1085.17 1330.59 1084.6 1330.59"/><polygon class="cls-31" points="1084.02 1330.59 1092.48 1322.23 1092.48 1322.8 1084.6 1330.59 1084.02 1330.59"/><polygon class="cls-32" points="1083.45 1330.59 1092.48 1321.67 1092.48 1322.23 1084.02 1330.59 1083.45 1330.59"/><polygon class="cls-33" points="1082.88 1330.59 1092.48 1321.1 1092.48 1321.67 1083.45 1330.59 1082.88 1330.59"/><polygon class="cls-34" points="1082.3 1330.59 1092.48 1320.53 1092.48 1321.1 1082.88 1330.59 1082.3 1330.59"/><polygon class="cls-35" points="1081.73 1330.59 1092.48 1319.96 1092.48 1320.53 1082.3 1330.59 1081.73 1330.59"/><polygon class="cls-36" points="1081.16 1330.59 1092.48 1319.4 1092.48 1319.96 1081.73 1330.59 1081.16 1330.59"/><polygon class="cls-37" points="1080.58 1330.59 1092.48 1318.83 1092.48 1319.4 1081.16 1330.59 1080.58 1330.59"/><polygon class="cls-38" points="1080.01 1330.59 1092.48 1318.26 1092.48 1318.83 1080.58 1330.59 1080.01 1330.59"/><polygon class="cls-39" points="1079.43 1330.59 1092.48 1317.7 1092.48 1318.26 1080.01 1330.59 1079.43 1330.59"/><polygon class="cls-40" points="1078.86 1330.59 1092.48 1317.13 1092.48 1317.7 1079.43 1330.59 1078.86 1330.59"/><polygon class="cls-41" points="1078.29 1330.59 1092.48 1316.56 1092.48 1317.13 1078.86 1330.59 1078.29 1330.59"/><polygon class="cls-42" points="1077.71 1330.59 1092.48 1316 1092.48 1316.56 1078.29 1330.59 1077.71 1330.59"/><polygon class="cls-43" points="1077.14 1330.59 1092.48 1315.43 1092.48 1316 1077.71 1330.59 1077.14 1330.59"/><polygon class="cls-44" points="1076.57 1330.59 1092.48 1314.86 1092.48 1315.43 1077.14 1330.59 1076.57 1330.59"/><polygon class="cls-45" points="1075.99 1330.59 1092.48 1314.3 1092.48 1314.86 1076.57 1330.59 1075.99 1330.59"/><polygon class="cls-46" points="1075.42 1330.59 1092.48 1313.73 1092.48 1314.3 1075.99 1330.59 1075.42 1330.59"/><polygon class="cls-47" points="1074.85 1330.59 1092.48 1313.16 1092.48 1313.73 1075.42 1330.59 1074.85 1330.59"/><polygon class="cls-48" points="1074.27 1330.59 1092.48 1312.59 1092.48 1313.16 1074.85 1330.59 1074.27 1330.59"/><polygon class="cls-49" points="1073.7 1330.59 1092.48 1312.03 1092.48 1312.59 1074.27 1330.59 1073.7 1330.59"/><polygon class="cls-50" points="1073.13 1330.59 1092.48 1311.46 1092.48 1312.03 1073.7 1330.59 1073.13 1330.59"/><polygon class="cls-51" points="1072.55 1330.59 1092.48 1310.89 1092.48 1311.46 1073.13 1330.59 1072.55 1330.59"/><polygon class="cls-52" points="1071.98 1330.59 1092.48 1310.33 1092.48 1310.89 1072.55 1330.59 1071.98 1330.59"/><polygon class="cls-53" points="1071.4 1330.59 1092.48 1309.76 1092.48 1310.33 1071.98 1330.59 1071.4 1330.59"/><polygon class="cls-54" points="1070.83 1330.59 1092.48 1309.19 1092.48 1309.76 1071.4 1330.59 1070.83 1330.59"/><polygon class="cls-54" points="1070 1330.59 1092.48 1308.37 1092.48 1309.19 1070.83 1330.59 1070 1330.59"/><polygon class="cls-55" points="1069.18 1330.59 1092.48 1307.56 1092.48 1308.37 1070 1330.59 1069.18 1330.59"/><polygon class="cls-56" points="1068.35 1330.59 1092.48 1306.74 1092.48 1307.56 1069.18 1330.59 1068.35 1330.59"/><polygon class="cls-57" points="1067.52 1330.59 1092.48 1305.92 1092.48 1306.74 1068.35 1330.59 1067.52 1330.59"/><polygon class="cls-58" points="1067.2 1330.09 1092.48 1305.1 1092.48 1305.92 1067.52 1330.59 1067.2 1330.59 1067.2 1330.09"/><polygon class="cls-59" points="1067.2 1329.27 1092.48 1304.29 1092.48 1305.1 1067.2 1330.09 1067.2 1329.27"/><polygon class="cls-60" points="1067.2 1328.45 1092.48 1303.47 1092.48 1304.29 1067.2 1329.27 1067.2 1328.45"/><polygon class="cls-61" points="1067.2 1327.63 1092.16 1302.97 1092.48 1303.29 1092.48 1303.47 1067.2 1328.45 1067.2 1327.63"/><polygon class="cls-62" points="1067.2 1326.82 1091.75 1302.56 1092.16 1302.97 1067.2 1327.63 1067.2 1326.82"/><polygon class="cls-63" points="1067.2 1326 1091.33 1302.15 1091.75 1302.56 1067.2 1326.82 1067.2 1326"/><polygon class="cls-64" points="1067.2 1325.18 1090.92 1301.74 1091.33 1302.15 1067.2 1326 1067.2 1325.18"/><polygon class="cls-65" points="1067.2 1324.37 1090.51 1301.33 1090.92 1301.74 1067.2 1325.18 1067.2 1324.37"/><polygon class="cls-66" points="1067.2 1323.55 1090.09 1300.92 1090.51 1301.33 1067.2 1324.37 1067.2 1323.55"/><polygon class="cls-67" points="1067.2 1322.73 1089.68 1300.52 1090.09 1300.92 1067.2 1323.55 1067.2 1322.73"/><polygon class="cls-68" points="1067.2 1321.91 1089.27 1300.11 1089.68 1300.52 1067.2 1322.73 1067.2 1321.91"/><polygon class="cls-69" points="1067.2 1321.1 1088.85 1299.7 1089.27 1300.11 1067.2 1321.91 1067.2 1321.1"/><polygon class="cls-70" points="1067.2 1320.28 1088.44 1299.29 1088.85 1299.7 1067.2 1321.1 1067.2 1320.28"/><polygon class="cls-71" points="1067.2 1319.46 1088.03 1298.88 1088.44 1299.29 1067.2 1320.28 1067.2 1319.46"/><polygon class="cls-72" points="1067.2 1318.64 1087.61 1298.47 1088.03 1298.88 1067.2 1319.46 1067.2 1318.64"/><polygon class="cls-73" points="1067.2 1317.82 1087.2 1298.06 1087.61 1298.47 1067.2 1318.64 1067.2 1317.82"/><polygon class="cls-73" points="1067.2 1316.59 1086.57 1297.44 1087.2 1298.06 1067.2 1317.82 1067.2 1316.59"/><polygon class="cls-74" points="1067.2 1315.35 1085.94 1296.83 1086.57 1297.44 1067.2 1316.59 1067.2 1315.35"/><polygon class="cls-75" points="1067.2 1314.11 1085.32 1296.2 1085.94 1296.83 1067.2 1315.35 1067.2 1314.11"/><polygon class="cls-76" points="1067.2 1312.87 1084.69 1295.59 1085.32 1296.2 1067.2 1314.11 1067.2 1312.87"/><polygon class="cls-77" points="1067.2 1311.63 1084.07 1294.97 1084.69 1295.59 1067.2 1312.87 1067.2 1311.63"/><polygon class="cls-78" points="1067.2 1310.39 1083.44 1294.35 1084.07 1294.97 1067.2 1311.63 1067.2 1310.39"/><polygon class="cls-79" points="1067.2 1309.16 1082.81 1293.73 1083.44 1294.35 1067.2 1310.39 1067.2 1309.16"/><polygon class="cls-80" points="1067.2 1307.92 1082.19 1293.11 1082.81 1293.73 1067.2 1309.16 1067.2 1307.92"/><polygon class="cls-81" points="1067.2 1306.68 1081.56 1292.49 1082.19 1293.11 1067.2 1307.92 1067.2 1306.68"/><polygon class="cls-82" points="1067.2 1305.44 1080.93 1291.87 1081.56 1292.49 1067.2 1306.68 1067.2 1305.44"/><polygon class="cls-83" points="1067.2 1304.2 1080.31 1291.25 1080.93 1291.87 1067.2 1305.44 1067.2 1304.2"/><polygon class="cls-84" points="1067.2 1302.96 1079.68 1290.63 1080.31 1291.25 1067.2 1304.2 1067.2 1302.96"/><polygon class="cls-85" points="1067.2 1301.72 1079.05 1290.01 1079.68 1290.63 1067.2 1302.96 1067.2 1301.72"/><polygon class="cls-85" points="1067.2 1297.84 1077.09 1288.07 1079.05 1290.01 1067.2 1301.72 1067.2 1297.84"/><polygon class="cls-86" points="1067.2 1293.95 1075.12 1286.13 1077.09 1288.07 1067.2 1297.84 1067.2 1293.95"/><polygon class="cls-87" points="1067.2 1290.07 1073.16 1284.19 1075.12 1286.13 1067.2 1293.95 1067.2 1290.07"/><polygon class="cls-88" points="1067.2 1286.18 1071.19 1282.24 1073.16 1284.19 1067.2 1290.07 1067.2 1286.18"/><polygon class="cls-88" points="1071.1 1282.15 1071.19 1282.24 1067.2 1286.18 1067.2 1282.15 1071.1 1282.15"/></g></g></g><g id="g66"><g id="path78"><g class="cls-89"><rect class="cls-90" x="1112.76" y="1298.1" width="0.28" height="16.53"/><rect class="cls-91" x="1112.2" y="1298.1" width="0.55" height="16.53"/><rect class="cls-92" x="1111.65" y="1298.1" width="0.55" height="16.53"/><rect class="cls-93" x="1111.1" y="1298.1" width="0.55" height="16.53"/><rect class="cls-94" x="1110.55" y="1298.1" width="0.55" height="16.53"/><rect class="cls-95" x="1109.99" y="1298.1" width="0.55" height="16.53"/><rect class="cls-96" x="1109.44" y="1298.1" width="0.55" height="16.53"/><rect class="cls-97" x="1108.89" y="1298.1" width="0.55" height="16.53"/><rect class="cls-98" x="1108.34" y="1298.1" width="0.55" height="16.53"/><rect class="cls-99" x="1107.78" y="1298.1" width="0.55" height="16.53"/><rect class="cls-100" x="1107.23" y="1298.1" width="0.55" height="16.53"/><rect class="cls-101" x="1106.68" y="1298.1" width="0.55" height="16.53"/><rect class="cls-102" x="1106.13" y="1298.1" width="0.55" height="16.53"/><rect class="cls-103" x="1105.57" y="1298.1" width="0.55" height="16.53"/><rect class="cls-104" x="1105.02" y="1298.1" width="0.55" height="16.53"/><rect class="cls-105" x="1104.47" y="1298.1" width="0.55" height="16.53"/><rect class="cls-106" x="1103.92" y="1298.1" width="0.55" height="16.53"/><rect class="cls-107" x="1103.36" y="1298.1" width="0.55" height="16.53"/><rect class="cls-108" x="1102.81" y="1298.1" width="0.55" height="16.53"/><rect class="cls-109" x="1102.26" y="1298.1" width="0.55" height="16.53"/><rect class="cls-110" x="1101.71" y="1298.1" width="0.55" height="16.53"/><rect class="cls-111" x="1101.15" y="1298.1" width="0.55" height="16.53"/><rect class="cls-112" x="1100.6" y="1298.1" width="0.55" height="16.53"/><rect class="cls-113" x="1100.05" y="1298.1" width="0.55" height="16.53"/><rect class="cls-114" x="1099.5" y="1298.1" width="0.55" height="16.53"/><rect class="cls-115" x="1098.94" y="1298.1" width="0.55" height="16.53"/><rect class="cls-116" x="1098.39" y="1298.1" width="0.55" height="16.53"/><rect class="cls-117" x="1097.84" y="1298.1" width="0.55" height="16.53"/><rect class="cls-118" x="1097.29" y="1298.1" width="0.55" height="16.53"/><rect class="cls-119" x="1096.74" y="1298.1" width="0.55" height="16.53"/><rect class="cls-120" x="1096.18" y="1298.1" width="0.55" height="16.53"/><rect class="cls-121" x="1095.63" y="1298.1" width="0.55" height="16.53"/><rect class="cls-122" x="1095.08" y="1298.1" width="0.55" height="16.53"/><rect class="cls-123" x="1094.53" y="1298.1" width="0.55" height="16.53"/><rect class="cls-123" x="1093.8" y="1298.1" width="0.72" height="16.53"/><rect class="cls-124" x="1093.08" y="1298.1" width="0.72" height="16.53"/><rect class="cls-125" x="1092.48" y="1298.1" width="0.6" height="16.53"/></g></g></g><g id="g80"><g id="path88"><g class="cls-126"><polygon class="cls-127" points="1068.11 1329.75 1091.76 1306.37 1095.32 1306.37 1100.74 1311.73 1100.74 1331.52 1068.11 1331.52 1068.11 1329.75"/><polygon class="cls-127" points="1068.11 1328.28 1090.28 1306.37 1091.76 1306.37 1068.11 1329.75 1068.11 1328.28"/><polygon class="cls-128" points="1068.11 1326.81 1088.79 1306.37 1090.28 1306.37 1068.11 1328.28 1068.11 1326.81"/><polygon class="cls-129" points="1068.11 1325.35 1087.31 1306.37 1088.79 1306.37 1068.11 1326.81 1068.11 1325.35"/><polygon class="cls-130" points="1068.11 1323.88 1085.83 1306.37 1087.31 1306.37 1068.11 1325.35 1068.11 1323.88"/><polygon class="cls-131" points="1068.11 1322.42 1084.34 1306.37 1085.83 1306.37 1068.11 1323.88 1068.11 1322.42"/><polygon class="cls-132" points="1068.11 1320.95 1082.86 1306.37 1084.34 1306.37 1068.11 1322.42 1068.11 1320.95"/><polygon class="cls-133" points="1068.11 1319.48 1081.38 1306.37 1082.86 1306.37 1068.11 1320.95 1068.11 1319.48"/><polygon class="cls-134" points="1068.11 1318.02 1079.89 1306.37 1081.38 1306.37 1068.11 1319.48 1068.11 1318.02"/><polygon class="cls-135" points="1068.11 1316.55 1078.41 1306.37 1079.89 1306.37 1068.11 1318.02 1068.11 1316.55"/><polygon class="cls-136" points="1068.11 1315.09 1076.93 1306.37 1078.41 1306.37 1068.11 1316.55 1068.11 1315.09"/><polygon class="cls-137" points="1068.11 1313.62 1075.44 1306.37 1076.93 1306.37 1068.11 1315.09 1068.11 1313.62"/><polygon class="cls-138" points="1068.11 1312.15 1073.96 1306.37 1075.44 1306.37 1068.11 1313.62 1068.11 1312.15"/><polygon class="cls-139" points="1068.11 1310.69 1072.48 1306.37 1073.96 1306.37 1068.11 1312.15 1068.11 1310.69"/><polygon class="cls-140" points="1068.11 1309.22 1070.99 1306.37 1072.48 1306.37 1068.11 1310.69 1068.11 1309.22"/><polygon class="cls-141" points="1068.11 1307.76 1069.51 1306.37 1070.99 1306.37 1068.11 1309.22 1068.11 1307.76"/><polygon class="cls-142" points="1069.51 1306.37 1068.11 1307.76 1068.11 1306.37 1069.51 1306.37"/></g></g></g><g id="g90"><g id="path104"><g class="cls-143"><polygon class="cls-144" points="1100.74 1301.01 1095.32 1306.37 1068.11 1306.37 1068.11 1281.23 1100.74 1281.23 1100.74 1301.01"/></g></g></g><path class="cls-145" d="M1412.07,838.34h536.71a157.22,157.22,0,0,1,157.28,157.28v1.06A157.22,157.22,0,0,1,1948.78,1154h0" transform="translate(-57.86 -157)"/><path class="cls-146" d="M228.49,1160.15H213.26a145.4,145.4,0,0,0-145.4,145.41v292.51a145.4,145.4,0,0,0,145.4,145.4h0a145.4,145.4,0,0,1,145.4,145.4v380.29a145.4,145.4,0,0,0,145.4,145.4" transform="translate(-57.86 -157)"/><path class="cls-147" d="M1665,2414.56h0c66.31,0,90.75,87.17,34.09,121.64l-384.89,234.16" transform="translate(-57.86 -157)"/><path class="cls-148" d="M1773.77,3331.77c0,385.88-312.82,698.7-698.7,698.7s-698.7-312.82-698.7-698.7S1015.5,3846.49,1773.77,3331.77Z" transform="translate(-57.86 -157)"/></svg>