<svg id="Camada_1" data-name="Camada 1" xmlns="http://www.w3.org/2000/svg" viewBox="0 0 1000 382"><defs><style>.cls-1{fill:#fff;}.cls-2{fill:#aaa;}</style></defs><title>thank_you</title><rect class="cls-1" width="1000" height="382"/><path d="M286.84,143.92H255.78v82.15h-3.16V143.92H221.56v-3.16h65.28Z"/><path d="M303.3,177.44a26.48,26.48,0,0,1,9.14-11.66,22.53,22.53,0,0,1,13.36-4.28q10.2,0,15.15,5.77t5,17.43v41.37h-3.17V184.62q-.06-10.19-4.16-15.07t-13-4.89a19.7,19.7,0,0,0-14.21,5.83,29.56,29.56,0,0,0-8.12,15v40.57h-3.16v-90h3.16Z"/><path d="M406.78,226.07a44.08,44.08,0,0,1-1.17-11.6,25.52,25.52,0,0,1-10.26,9.43,31.68,31.68,0,0,1-14.71,3.34q-8.77,0-14.15-4.78A15.89,15.89,0,0,1,361.13,210q0-8.73,7.88-14T390,190.68h15.65v-9.26q0-8-5-12.36t-14.33-4.4q-8.67,0-14.47,4.46c-3.87,3-5.8,6.64-5.8,11l-3.17-.12q0-7.72,6.8-13.12t16.64-5.39q10.25,0,16.29,5.13t6.21,14.44v30.29q0,10.44,1.64,14.18v.53Zm-26.14-2a28.46,28.46,0,0,0,15.33-4,24.67,24.67,0,0,0,9.64-11.19V193.84H391q-13.6,0-20.8,5.39-5.87,4.4-5.86,11a12.57,12.57,0,0,0,4.63,9.84A17.13,17.13,0,0,0,380.64,224.08Z"/><path d="M432.32,177.44a26.48,26.48,0,0,1,9.14-11.66,22.55,22.55,0,0,1,13.36-4.28q10.2,0,15.15,5.77t5,17.43v41.37h-3.16V184.62q-.06-10.19-4.16-15.07t-13-4.89a19.7,19.7,0,0,0-14.21,5.83,29.63,29.63,0,0,0-8.12,15v40.57h-3.16v-63.4h3.16Z"/><path d="M507.32,191.79l-.11.12-9.2,7.91v26.25h-3.17v-90H498v60.29l7.44-7,28.83-26.66h4.51l-29.12,27,30.94,36.39H536.5Z"/><path d="M599.73,221.15l.41-1.18,21.91-57.3h3.52l-28.36,74.41-1.41,3.52q-4.57,11.07-15.12,11.07A11.41,11.41,0,0,1,576,251l-.06-3a15.83,15.83,0,0,0,4.27.53,12.1,12.1,0,0,0,8.27-2.89q3.27-2.9,5.68-9.44L598,225.72l-25.26-63.05h3.46Z"/><path d="M632,193.14a37.19,37.19,0,0,1,3.49-16.32,26.82,26.82,0,0,1,9.84-11.28,26.3,26.3,0,0,1,14.39-4,26.08,26.08,0,0,1,24.17,15.06,36.87,36.87,0,0,1,3.6,16.23v2.81A37.3,37.3,0,0,1,684,212a26.66,26.66,0,0,1-9.81,11.25,26.27,26.27,0,0,1-14.38,4,26.2,26.2,0,0,1-24.26-15.15A36.66,36.66,0,0,1,632,196Zm3.17,2.46a33.32,33.32,0,0,0,3.13,14.5A24.65,24.65,0,0,0,647,220.38a22.67,22.67,0,0,0,12.81,3.7,22,22,0,0,0,17.66-8.15q6.82-8.15,6.83-21v-1.82a33,33,0,0,0-3.17-14.42,25.1,25.1,0,0,0-8.76-10.34,22.39,22.39,0,0,0-12.68-3.72,22,22,0,0,0-17.7,8.26q-6.86,8.27-6.85,20.8Z"/><path d="M745.27,226.07V215.81a20.65,20.65,0,0,1-8.2,8.35q-5.39,3.08-13.65,3.08-10.38,0-15.56-6.06t-5.3-17.67V162.67h3.16v41q.12,10.08,4.57,15.26t13,5.19q9.09,0,14.77-4.28t7.2-12.54V162.67h3.23v63.4Z"/><path d="M767,223.2a3.21,3.21,0,0,1,.94-2.32,3.05,3.05,0,0,1,2.28-1,3.29,3.29,0,0,1,3.29,3.28,3.06,3.06,0,0,1-1,2.28,3.21,3.21,0,0,1-2.32.94A3.21,3.21,0,0,1,767,223.2Zm4.34-20.63h-3.17V140.76h3.17Z"/><path class="cls-2" d="M560.53,301.88H553.9v-1.4h6.63Z"/><path class="cls-2" d="M572.47,301.87v8.2h-1.7V289.93h6.86a7.25,7.25,0,0,1,5,1.6,6.3,6.3,0,0,1,.07,8.79,7.46,7.46,0,0,1-5.08,1.55Zm0-1.44h5.16a5.44,5.44,0,0,0,3.77-1.18,4.21,4.21,0,0,0,1.3-3.29,4.41,4.41,0,0,0-1.29-3.33,5.18,5.18,0,0,0-3.67-1.26h-5.27Z"/><path class="cls-2" d="M589.68,310.07H588V288.82h1.66Z"/><path class="cls-2" d="M603.62,310.07a7.83,7.83,0,0,1-.32-2.09,5.72,5.72,0,0,1-2.22,1.75,6.81,6.81,0,0,1-2.86.62,5,5,0,0,1-3.49-1.21,3.9,3.9,0,0,1-1.33-3,4,4,0,0,1,1.82-3.46,8.72,8.72,0,0,1,5.07-1.27h3v-1.7a3.28,3.28,0,0,0-1-2.53,4.11,4.11,0,0,0-2.89-.92,4.52,4.52,0,0,0-2.86.89,2.61,2.61,0,0,0-1.13,2.13l-1.66,0a3.83,3.83,0,0,1,1.66-3.09,6.38,6.38,0,0,1,4.08-1.31,5.82,5.82,0,0,1,4,1.26,4.47,4.47,0,0,1,1.48,3.49v7.08a8.85,8.85,0,0,0,.46,3.25v.17Zm-5.2-1.19a5.62,5.62,0,0,0,3-.8,4.76,4.76,0,0,0,1.9-2.15v-3.29h-3a7.44,7.44,0,0,0-3.88.91,2.71,2.71,0,0,0-1.39,2.41,2.68,2.68,0,0,0,.93,2.09A3.53,3.53,0,0,0,598.42,308.88Z"/><path class="cls-2" d="M613.88,307.69l4.38-12.59H620l-6.39,17.51-.33.78a4,4,0,0,1-3.81,2.72,4.61,4.61,0,0,1-1.27-.19v-1.37l.85.08a3.09,3.09,0,0,0,2-.6,4.57,4.57,0,0,0,1.27-2.07l.74-2-5.65-14.84h1.82Z"/><path class="cls-2" d="M624.11,295.1l0,2.44a5.56,5.56,0,0,1,2.08-2,5.7,5.7,0,0,1,2.76-.68c2.37,0,3.86,1,4.5,2.91a5.67,5.67,0,0,1,2.14-2.15,6,6,0,0,1,3-.76c3.2,0,4.84,1.76,4.91,5.26v10h-1.66v-9.86a4.47,4.47,0,0,0-.87-3,3.54,3.54,0,0,0-2.77-1,4.44,4.44,0,0,0-3,1.16,4.06,4.06,0,0,0-1.37,2.74v9.91h-1.66v-10a4.13,4.13,0,0,0-.9-2.87,3.62,3.62,0,0,0-2.75-.95,4.13,4.13,0,0,0-2.68.9,5.17,5.17,0,0,0-1.66,2.64v10.27h-1.66v-15Z"/><path class="cls-2" d="M657.16,310.07a7.45,7.45,0,0,1-.32-2.09,5.72,5.72,0,0,1-2.22,1.75,6.81,6.81,0,0,1-2.86.62,5,5,0,0,1-3.49-1.21,3.91,3.91,0,0,1-1.34-3,4,4,0,0,1,1.82-3.46,8.72,8.72,0,0,1,5.07-1.27h3v-1.7a3.28,3.28,0,0,0-1-2.53,4.08,4.08,0,0,0-2.88-.92,4.5,4.5,0,0,0-2.86.89,2.63,2.63,0,0,0-1.14,2.13l-1.66,0a3.86,3.86,0,0,1,1.66-3.09,6.41,6.41,0,0,1,4.08-1.31,5.8,5.8,0,0,1,4,1.26,4.47,4.47,0,0,1,1.49,3.49v7.08a8.64,8.64,0,0,0,.46,3.25v.17Zm-5.2-1.19a5.59,5.59,0,0,0,3-.8,4.7,4.7,0,0,0,1.9-2.15v-3.29h-3a7.37,7.37,0,0,0-3.87.91,2.72,2.72,0,0,0-1.4,2.41,2.65,2.65,0,0,0,.94,2.09A3.53,3.53,0,0,0,652,308.88Z"/><path class="cls-2" d="M665.46,291.27v3.83h3.09v1.36h-3.09v10a3.15,3.15,0,0,0,.45,1.86,1.76,1.76,0,0,0,1.5.61,11,11,0,0,0,1.34-.14l.07,1.34a5.31,5.31,0,0,1-1.77.24,3,3,0,0,1-2.48-1,4.65,4.65,0,0,1-.77-2.92v-10H661V295.1h2.76v-3.83Z"/><path class="cls-2" d="M677.52,309a4.39,4.39,0,0,0,2.9-1,3.4,3.4,0,0,0,1.26-2.52h1.59a4.72,4.72,0,0,1-.85,2.5,5.4,5.4,0,0,1-2.1,1.76,6.35,6.35,0,0,1-2.8.64,5.8,5.8,0,0,1-4.67-2.05,8.28,8.28,0,0,1-1.72-5.51v-.5a9.44,9.44,0,0,1,.77-3.91,6.06,6.06,0,0,1,2.22-2.63,6.13,6.13,0,0,1,3.39-.93,5.77,5.77,0,0,1,4.06,1.47,5.34,5.34,0,0,1,1.7,3.86h-1.59a4,4,0,0,0-4.17-3.91,4.11,4.11,0,0,0-3.48,1.61,7.32,7.32,0,0,0-1.24,4.54v.49a7.12,7.12,0,0,0,1.24,4.46A4.15,4.15,0,0,0,677.52,309Z"/><path class="cls-2" d="M688.23,297.63a5.83,5.83,0,0,1,2.09-2.07,5.43,5.43,0,0,1,2.78-.74,4.51,4.51,0,0,1,3.58,1.36,6.14,6.14,0,0,1,1.19,4.07v9.82h-1.65v-9.84a4.55,4.55,0,0,0-.85-3,3.32,3.32,0,0,0-2.67-1,4.19,4.19,0,0,0-2.72,1,5.62,5.62,0,0,0-1.75,2.6v10.25h-1.65V288.82h1.65Z"/><path class="cls-2" d="M722.52,291.37h-6.9v18.7h-1.7v-18.7H707v-1.44h15.49Z"/><path class="cls-2" d="M729.81,310.35a6.48,6.48,0,0,1-3.45-1,6.34,6.34,0,0,1-2.4-2.62,8.17,8.17,0,0,1-.86-3.77v-.59a8.78,8.78,0,0,1,.84-3.89,6.67,6.67,0,0,1,2.33-2.72,5.72,5.72,0,0,1,3.24-1,5.42,5.42,0,0,1,4.32,1.86,7.59,7.59,0,0,1,1.6,5.09v.93H724.75V303a6.23,6.23,0,0,0,1.46,4.24,4.63,4.63,0,0,0,3.67,1.7,5.26,5.26,0,0,0,2.34-.49,5,5,0,0,0,1.85-1.55l1,.79A6,6,0,0,1,729.81,310.35Zm-.3-14.11a4.13,4.13,0,0,0-3.15,1.36,6.34,6.34,0,0,0-1.56,3.68h9v-.18a5.54,5.54,0,0,0-1.23-3.51A3.83,3.83,0,0,0,729.51,296.24Z"/><path class="cls-2" d="M748.1,310.07a7.83,7.83,0,0,1-.32-2.09,5.72,5.72,0,0,1-2.22,1.75,6.81,6.81,0,0,1-2.86.62,5,5,0,0,1-3.49-1.21,3.9,3.9,0,0,1-1.33-3,4,4,0,0,1,1.81-3.46,8.76,8.76,0,0,1,5.07-1.27h3v-1.7a3.28,3.28,0,0,0-1-2.53,4.11,4.11,0,0,0-2.89-.92,4.52,4.52,0,0,0-2.86.89,2.61,2.61,0,0,0-1.13,2.13l-1.66,0a3.83,3.83,0,0,1,1.66-3.09,6.38,6.38,0,0,1,4.08-1.31,5.82,5.82,0,0,1,3.95,1.26,4.5,4.5,0,0,1,1.48,3.49v7.08a8.85,8.85,0,0,0,.46,3.25v.17Zm-5.2-1.19a5.59,5.59,0,0,0,3-.8,4.72,4.72,0,0,0,1.91-2.15v-3.29h-3a7.41,7.41,0,0,0-3.88.91,2.71,2.71,0,0,0-1.39,2.41,2.68,2.68,0,0,0,.93,2.09A3.53,3.53,0,0,0,742.9,308.88Z"/><path class="cls-2" d="M755.33,295.1l.06,2.44a5.46,5.46,0,0,1,2.07-2,5.74,5.74,0,0,1,2.77-.68q3.54,0,4.5,2.91a5.6,5.6,0,0,1,2.14-2.15,6,6,0,0,1,3-.76c3.21,0,4.85,1.76,4.91,5.26v10h-1.66v-9.86a4.53,4.53,0,0,0-.86-3,3.56,3.56,0,0,0-2.78-1,4.41,4.41,0,0,0-3,1.16,4.06,4.06,0,0,0-1.37,2.74v9.91H763.4v-10a4.08,4.08,0,0,0-.91-2.87,3.6,3.6,0,0,0-2.74-.95,4.16,4.16,0,0,0-2.69.9,5.24,5.24,0,0,0-1.66,2.64v10.27h-1.66v-15Z"/></svg>