<svg id="Camada_1" data-name="Camada 1" xmlns="http://www.w3.org/2000/svg" viewBox="0 0 1000 382"><defs><style>.cls-1{fill:#fff;}.cls-2{fill:#aaa;}</style></defs><title>thank_you</title><rect class="cls-1" width="1000" height="382"/><path d="M286.84,143.92H255.78v82.15h-3.16V143.92H221.56v-3.16h65.28Z"/><path d="M303.3,177.44a26.48,26.48,0,0,1,9.14-11.66,22.53,22.53,0,0,1,13.36-4.28q10.2,0,15.15,5.77t5,17.43v41.37h-3.17V184.62q-.06-10.19-4.16-15.07t-13-4.89a19.7,19.7,0,0,0-14.21,5.83,29.56,29.56,0,0,0-8.12,15v40.57h-3.16v-90h3.16Z"/><path d="M406.78,226.07a44.08,44.08,0,0,1-1.17-11.6,25.52,25.52,0,0,1-10.26,9.43,31.68,31.68,0,0,1-14.71,3.34q-8.77,0-14.15-4.78A15.89,15.89,0,0,1,361.13,210q0-8.73,7.88-14T390,190.68h15.65v-9.26q0-8-5-12.36t-14.33-4.4q-8.67,0-14.47,4.46c-3.87,3-5.8,6.64-5.8,11l-3.17-.12q0-7.72,6.8-13.12t16.64-5.39q10.25,0,16.29,5.13t6.21,14.44v30.29q0,10.44,1.64,14.18v.53Zm-26.14-2a28.46,28.46,0,0,0,15.33-4,24.67,24.67,0,0,0,9.64-11.19V193.84H391q-13.6,0-20.8,5.39-5.87,4.4-5.86,11a12.57,12.57,0,0,0,4.63,9.84A17.13,17.13,0,0,0,380.64,224.08Z"/><path d="M432.32,177.44a26.48,26.48,0,0,1,9.14-11.66,22.55,22.55,0,0,1,13.36-4.28q10.2,0,15.15,5.77t5,17.43v41.37h-3.16V184.62q-.06-10.19-4.16-15.07t-13-4.89a19.7,19.7,0,0,0-14.21,5.83,29.63,29.63,0,0,0-8.12,15v40.57h-3.16v-63.4h3.16Z"/><path d="M507.32,191.79l-.11.12-9.2,7.91v26.25h-3.17v-90H498v60.29l7.44-7,28.83-26.66h4.51l-29.12,27,30.94,36.39H536.5Z"/><path d="M599.73,221.15l.41-1.18,21.91-57.3h3.52l-28.36,74.41-1.41,3.52q-4.57,11.07-15.12,11.07A11.41,11.41,0,0,1,576,251l-.06-3a15.83,15.83,0,0,0,4.27.53,12.1,12.1,0,0,0,8.27-2.89q3.27-2.9,5.68-9.44L598,225.72l-25.26-63.05h3.46Z"/><path d="M632,193.14a37.19,37.19,0,0,1,3.49-16.32,26.82,26.82,0,0,1,9.84-11.28,26.3,26.3,0,0,1,14.39-4,26.08,26.08,0,0,1,24.17,15.06,36.87,36.87,0,0,1,3.6,16.23v2.81A37.3,37.3,0,0,1,684,212a26.66,26.66,0,0,1-9.81,11.25,26.27,26.27,0,0,1-14.38,4,26.2,26.2,0,0,1-24.26-15.15A36.66,36.66,0,0,1,632,196Zm3.17,2.46a33.32,33.32,0,0,0,3.13,14.5A24.65,24.65,0,0,0,647,220.38a22.67,22.67,0,0,0,12.81,3.7,22,22,0,0,0,17.66-8.15q6.82-8.15,6.83-21v-1.82a33,33,0,0,0-3.17-14.42,25.1,25.1,0,0,0-8.76-10.34,22.39,22.39,0,0,0-12.68-3.72,22,22,0,0,0-17.7,8.26q-6.86,8.27-6.85,20.8Z"/><path d="M745.27,226.07V215.81a20.65,20.65,0,0,1-8.2,8.35q-5.39,3.08-13.65,3.08-10.38,0-15.56-6.06t-5.3-17.67V162.67h3.16v41q.12,10.08,4.57,15.26t13,5.19q9.09,0,14.77-4.28t7.2-12.54V162.67h3.23v63.4Z"/><path d="M767,223.2a3.21,3.21,0,0,1,.94-2.32,3.05,3.05,0,0,1,2.28-1,3.29,3.29,0,0,1,3.29,3.28,3.06,3.06,0,0,1-1,2.28,3.21,3.21,0,0,1-2.32.94A3.21,3.21,0,0,1,767,223.2Zm4.34-20.63h-3.17V140.76h3.17Z"/><path class="cls-2" d="M561.39,301.23h-6.51v-.75h6.51Z"/><path class="cls-2" d="M572.73,301.56v8.51H572V289.93h6.3a6.9,6.9,0,0,1,4.79,1.55,5.56,5.56,0,0,1,1.71,4.33,5.4,5.4,0,0,1-1.67,4.23,7,7,0,0,1-4.74,1.52Zm0-.75h5.55a6.26,6.26,0,0,0,4.24-1.31,4.6,4.6,0,0,0,1.51-3.67,4.83,4.83,0,0,0-1.51-3.79,6.12,6.12,0,0,0-4.24-1.37h-5.55Z"/><path class="cls-2" d="M589.54,310.07h-.75V288.82h.75Z"/><path class="cls-2" d="M604.12,310.07a10.16,10.16,0,0,1-.28-2.74,6.05,6.05,0,0,1-2.42,2.23,7.55,7.55,0,0,1-3.47.79,4.84,4.84,0,0,1-3.34-1.13,3.73,3.73,0,0,1-1.27-2.94,3.78,3.78,0,0,1,1.86-3.3,8.93,8.93,0,0,1,4.95-1.27h3.69v-2.18a3.66,3.66,0,0,0-1.18-2.92,5,5,0,0,0-3.38-1,5.44,5.44,0,0,0-3.42,1.05,3.18,3.18,0,0,0-1.37,2.6l-.75,0a3.84,3.84,0,0,1,1.61-3.1,6.12,6.12,0,0,1,3.93-1.28,5.77,5.77,0,0,1,3.84,1.21,4.37,4.37,0,0,1,1.47,3.41v7.16a9.49,9.49,0,0,0,.39,3.34v.13ZM598,309.6a6.71,6.71,0,0,0,3.62-.94,5.86,5.86,0,0,0,2.27-2.64v-3.56h-3.46a8.09,8.09,0,0,0-4.91,1.27,3.13,3.13,0,0,0-1.38,2.59,3,3,0,0,0,1.09,2.32A4,4,0,0,0,598,309.6Z"/><path class="cls-2" d="M613.77,308.91l.1-.28L619,295.1h.84l-6.7,17.57-.33.83a3.69,3.69,0,0,1-3.57,2.61,2.82,2.82,0,0,1-1.11-.15v-.72a3.44,3.44,0,0,0,1,.13,2.84,2.84,0,0,0,2-.69,5.45,5.45,0,0,0,1.34-2.22l.91-2.47-6-14.89h.82Z"/><path class="cls-2" d="M633.43,310.07h-.75V300a4.93,4.93,0,0,0-1-3.35,4,4,0,0,0-3.11-1.1,4.78,4.78,0,0,0-4,2.17,7.54,7.54,0,0,0-1.23,2.88v9.45h-.76v-15h.76v3.54a6.25,6.25,0,0,1,2.18-2.82,5.72,5.72,0,0,1,6.2-.17,4.11,4.11,0,0,1,1.57,2.72,5.44,5.44,0,0,1,2.16-2.58,6,6,0,0,1,3.35-1,4.52,4.52,0,0,1,3.6,1.37,6.22,6.22,0,0,1,1.2,4.11v9.77h-.75v-9.7a5.62,5.62,0,0,0-1-3.65,3.79,3.79,0,0,0-3.11-1.15,5.21,5.21,0,0,0-4.31,2.17,4.62,4.62,0,0,0-1,2.38Z"/><path class="cls-2" d="M657.79,310.07a10.66,10.66,0,0,1-.27-2.74,6.05,6.05,0,0,1-2.42,2.23,7.62,7.62,0,0,1-3.48.79,4.86,4.86,0,0,1-3.34-1.13,3.95,3.95,0,0,1,.6-6.24,8.92,8.92,0,0,1,4.94-1.27h3.7v-2.18a3.67,3.67,0,0,0-1.19-2.92,5,5,0,0,0-3.38-1,5.48,5.48,0,0,0-3.42,1.05,3.18,3.18,0,0,0-1.37,2.6l-.74,0a3.83,3.83,0,0,1,1.6-3.1,6.12,6.12,0,0,1,3.93-1.28A5.8,5.8,0,0,1,656.8,296a4.33,4.33,0,0,1,1.46,3.41v7.16a9.49,9.49,0,0,0,.39,3.34v.13Zm-6.17-.47a6.68,6.68,0,0,0,3.62-.94,5.88,5.88,0,0,0,2.28-2.64v-3.56h-3.46a8.07,8.07,0,0,0-4.91,1.27,3.12,3.12,0,0,0-1.39,2.59,3,3,0,0,0,1.1,2.32A4,4,0,0,0,651.62,309.6Z"/><path class="cls-2" d="M664.75,291.06v4h3.4v.75h-3.4v10.63a4.23,4.23,0,0,0,.52,2.36,2,2,0,0,0,1.74.76,9.88,9.88,0,0,0,1.48-.13l.12.71a5,5,0,0,1-1.56.17,2.8,2.8,0,0,1-2.34-.91,4.74,4.74,0,0,1-.72-2.86V295.85h-2.77v-.75H664v-4Z"/><path class="cls-2" d="M677.12,309.6a5.12,5.12,0,0,0,3.35-1.08,4,4,0,0,0,1.45-3h.75A4.7,4.7,0,0,1,681,309a5.74,5.74,0,0,1-3.87,1.33,5.44,5.44,0,0,1-4.46-2,8.44,8.44,0,0,1-1.66-5.52v-.5a8.3,8.3,0,0,1,1.66-5.43,5.41,5.41,0,0,1,4.43-2,5.57,5.57,0,0,1,3.93,1.43,5.24,5.24,0,0,1,1.65,3.79h-.75a4.57,4.57,0,0,0-1.42-3.25,4.85,4.85,0,0,0-3.41-1.22,4.68,4.68,0,0,0-3.92,1.81,7.88,7.88,0,0,0-1.42,5v.49a7.73,7.73,0,0,0,1.43,4.93A4.79,4.79,0,0,0,677.12,309.6Z"/><path class="cls-2" d="M687.16,298.59a6.29,6.29,0,0,1,2.16-2.76,5.35,5.35,0,0,1,3.15-1,4.46,4.46,0,0,1,3.58,1.37,6.22,6.22,0,0,1,1.18,4.11v9.77h-.74v-9.79a5.5,5.5,0,0,0-1-3.56,3.81,3.81,0,0,0-3.07-1.15,4.63,4.63,0,0,0-3.35,1.38,6.88,6.88,0,0,0-1.92,3.54v9.58h-.75V288.82h.75Z"/><path class="cls-2" d="M721.94,290.67h-7.33v19.4h-.75v-19.4h-7.33v-.74h15.41Z"/><path class="cls-2" d="M729.09,310.35a6,6,0,0,1-3.33-1,6.64,6.64,0,0,1-2.37-2.68,8.26,8.26,0,0,1-.86-3.77v-.63a8.71,8.71,0,0,1,.83-3.8,6.68,6.68,0,0,1,2.29-2.7,5.6,5.6,0,0,1,3.16-1,5.25,5.25,0,0,1,4.1,1.79,6.78,6.78,0,0,1,1.59,4.69v.79H723.28v.81a7.56,7.56,0,0,0,.77,3.38,6,6,0,0,0,2.12,2.43,5.2,5.2,0,0,0,2.92.89,6,6,0,0,0,2.57-.5,5.25,5.25,0,0,0,1.87-1.55l.53.37A5.64,5.64,0,0,1,729.09,310.35Zm-.28-14.78a4.86,4.86,0,0,0-3.7,1.63,6.9,6.9,0,0,0-1.79,4.14h10.43v-.18a6.32,6.32,0,0,0-.64-2.83,5,5,0,0,0-1.77-2A4.51,4.51,0,0,0,728.81,295.57Z"/><path class="cls-2" d="M747.66,310.07a10.16,10.16,0,0,1-.28-2.74,6.05,6.05,0,0,1-2.42,2.23,7.58,7.58,0,0,1-3.47.79,4.87,4.87,0,0,1-3.35-1.13,3.95,3.95,0,0,1,.6-6.24,8.93,8.93,0,0,1,5-1.27h3.69v-2.18a3.7,3.7,0,0,0-1.18-2.92,5,5,0,0,0-3.39-1,5.43,5.43,0,0,0-3.41,1.05,3.15,3.15,0,0,0-1.37,2.6l-.75,0a3.85,3.85,0,0,1,1.6-3.1,6.14,6.14,0,0,1,3.93-1.28,5.78,5.78,0,0,1,3.85,1.21,4.37,4.37,0,0,1,1.47,3.41v7.16a9.56,9.56,0,0,0,.38,3.34v.13Zm-6.17-.47a6.67,6.67,0,0,0,3.61-.94,5.88,5.88,0,0,0,2.28-2.64v-3.56h-3.46a8.07,8.07,0,0,0-4.91,1.27,3.13,3.13,0,0,0-1.38,2.59,3,3,0,0,0,1.09,2.32A4,4,0,0,0,741.49,309.6Z"/><path class="cls-2" d="M763.65,310.07h-.75V300a5,5,0,0,0-1-3.35,4,4,0,0,0-3.1-1.1,4.75,4.75,0,0,0-4,2.17,7.24,7.24,0,0,0-1.23,2.88v9.45h-.76v-15h.76v3.54a6.3,6.3,0,0,1,2.17-2.82,5.72,5.72,0,0,1,6.2-.17,4.12,4.12,0,0,1,1.58,2.72,5.47,5.47,0,0,1,2.15-2.58,6,6,0,0,1,3.35-1,4.5,4.5,0,0,1,3.6,1.37,6.22,6.22,0,0,1,1.2,4.11v9.77h-.75v-9.7a5.62,5.62,0,0,0-1-3.65,3.75,3.75,0,0,0-3.1-1.15,5.22,5.22,0,0,0-4.32,2.17,4.52,4.52,0,0,0-1,2.38Z"/></svg>