<?xml version="1.0" encoding="UTF-8"?>
<svg enable-background="new 0 0 618 857.3" version="1.1" viewBox="0 0 618 857.3" xml:space="preserve" xmlns="http://www.w3.org/2000/svg">
<style type="text/css">
	.st0{fill:#F8F8FF;}
	.st1{fill:url(#f);}
	.st2{fill:none;stroke:url(#i);stroke-width:10;stroke-linecap:round;stroke-miterlimit:10;}
	.st3{fill:none;stroke:url(#h);stroke-width:10;stroke-linecap:round;stroke-miterlimit:10;}
	.st4{fill:none;stroke:url(#e);stroke-width:10;stroke-linecap:round;stroke-miterlimit:10;}
	.st5{fill:none;stroke:url(#d);stroke-width:10;stroke-linecap:round;stroke-miterlimit:10;stroke-dasharray:0,19.4794;}
	.st6{fill:none;stroke:url(#c);stroke-width:10;stroke-linecap:round;stroke-miterlimit:10;}
	.st7{fill:none;stroke:url(#g);stroke-width:10;stroke-miterlimit:10;}
	.st8{fill:none;stroke:url(#b);stroke-width:10;stroke-miterlimit:10;}
	.st9{fill:none;stroke:url(#a);stroke-width:10;stroke-linecap:round;stroke-miterlimit:10;stroke-dasharray:0,15.3654;}
	.st10{fill:#222222;}
	.st11{fill:url(#SVGID_10_);}
</style>
	<path class="st0" d="m553.6 576.7h-317.6s22.7-7.7 22.7-27.3c0-19.7-22.7-27.3-22.7-27.3h317.6c15.1 0 27.3 12.2 27.3 27.3 0 15-12.2 27.3-27.3 27.3z"/>
	<path class="st0" d="m553.6 333.4h-317.6s22.7-7.7 22.7-27.3-22.7-27.3-22.7-27.3h317.6c15.1 0 27.3 12.2 27.3 27.3s-12.2 27.3-27.3 27.3z"/>
<path class="st0" d="m550.7 93.2h-297.4l-17.3-60.6h314.7c16.7 0 30.3 13.5 30.3 30.3-0.1 16.7-13.6 30.3-30.3 30.3z"/>
<linearGradient id="f" x1="177.34" x2="294.66" y1="254.51" y2="137.19" gradientUnits="userSpaceOnUse">
	<stop stop-color="#D57D2F" offset="0"/>
	<stop stop-color="#C52337" offset=".33"/>
	<stop stop-color="#8E5199" offset=".66"/>
	<stop stop-color="#6590CA" offset="1"/>
</linearGradient>
<line x1="236" x2="236" y1="85.6" y2="306.1" fill="none" stroke="url(#f)" stroke-linecap="round" stroke-miterlimit="10" stroke-width="10"/>
<linearGradient id="i" x1="177.34" x2="294.66" y1="497.7" y2="380.38" gradientUnits="userSpaceOnUse">
	<stop stop-color="#D57D2F" offset="0"/>
	<stop stop-color="#C52337" offset=".33"/>
	<stop stop-color="#8E5199" offset=".66"/>
	<stop stop-color="#6590CA" offset="1"/>
</linearGradient>
<line class="st2" x1="236" x2="236" y1="328.8" y2="549.3"/>
		<linearGradient id="h" x1="115.59" x2="239.54" y1="692.4" y2="568.45" gradientUnits="userSpaceOnUse">
			<stop stop-color="#D57D2F" offset="0"/>
			<stop stop-color="#C52337" offset=".33"/>
			<stop stop-color="#8E5199" offset=".66"/>
			<stop stop-color="#6590CA" offset="1"/>
		</linearGradient>
		<line class="st3" x1="236" x2="236" y1="572" y2="572"/>
		<linearGradient id="e" x1="176.46" x2="300.41" y1="753.27" y2="629.32" gradientUnits="userSpaceOnUse">
			<stop stop-color="#D57D2F" offset="0"/>
			<stop stop-color="#C52337" offset=".33"/>
			<stop stop-color="#8E5199" offset=".66"/>
			<stop stop-color="#6590CA" offset="1"/>
		</linearGradient>
			<line x1="236" x2="236" y1="591.5" y2="796" fill="none" stroke="url(#e)" stroke-dasharray="0,19.4794" stroke-linecap="round" stroke-miterlimit="10" stroke-width="10"/>
		<linearGradient id="d" x1="232.46" x2="356.41" y1="809.27" y2="685.32" gradientUnits="userSpaceOnUse">
			<stop stop-color="#D57D2F" offset="0"/>
			<stop stop-color="#C52337" offset=".33"/>
			<stop stop-color="#8E5199" offset=".66"/>
			<stop stop-color="#6590CA" offset="1"/>
		</linearGradient>
			<line x1="236" x2="236" y1="805.7" y2="805.7" fill="none" stroke="url(#d)" stroke-linecap="round" stroke-miterlimit="10" stroke-width="10"/>
<linearGradient id="c" x1="216.41" x2="255.59" y1="325.68" y2="286.51" gradientUnits="userSpaceOnUse">
	<stop stop-color="#D57D2F" offset="0"/>
	<stop stop-color="#C52337" offset=".33"/>
	<stop stop-color="#8E5199" offset=".66"/>
	<stop stop-color="#6590CA" offset="1"/>
</linearGradient>
<circle cx="236" cy="306.1" r="22.7" fill="none" stroke="url(#c)" stroke-miterlimit="10" stroke-width="10"/>
<linearGradient id="g" x1="216.41" x2="255.59" y1="568.87" y2="529.7" gradientUnits="userSpaceOnUse">
	<stop stop-color="#D57D2F" offset="0"/>
	<stop stop-color="#C52337" offset=".33"/>
	<stop stop-color="#8E5199" offset=".66"/>
	<stop stop-color="#6590CA" offset="1"/>
</linearGradient>
<circle class="st7" cx="236" cy="549.3" r="22.7"/>
	<linearGradient id="b" x1="218.63" x2="253.37" y1="823.11" y2="788.36" gradientUnits="userSpaceOnUse">
		<stop stop-color="#D57D2F" offset="0"/>
		<stop stop-color="#C52337" offset=".33"/>
		<stop stop-color="#8E5199" offset=".66"/>
		<stop stop-color="#6590CA" offset="1"/>
	</linearGradient>
		<ellipse transform="matrix(.3827 -.9239 .9239 .3827 -598.72 715.43)" cx="236" cy="805.7" rx="19.6" ry="19.6" fill="none" stroke="url(#b)" stroke-dasharray="0,15.3654" stroke-linecap="round" stroke-miterlimit="10" stroke-width="10"/>
	<path class="st10" d="m141.8 80.6h-11.3v-1.1l6.2-7c1-1.2 1.7-2.2 2.1-2.9 0.4-0.8 0.6-1.5 0.6-2.2 0-1.1-0.3-2-1-2.7s-1.6-1-2.8-1-2.2 0.4-2.9 1.2-1.1 1.8-1.1 3h-1.5c0-1 0.2-1.9 0.7-2.8 0.5-0.8 1.1-1.5 2-2s1.8-0.7 2.9-0.7c1.6 0 2.9 0.4 3.9 1.3 0.9 0.9 1.4 2 1.4 3.5 0 0.8-0.3 1.8-0.8 2.8s-1.4 2.2-2.8 3.7l-5 5.7h9.5v1.2z"/>
	<path class="st10" d="m155.4 73.1c0 2.5-0.5 4.5-1.4 5.8s-2.3 2-4.1 2-3.1-0.6-4.1-1.9c-0.9-1.3-1.4-3.2-1.5-5.6v-3.2c0-2.5 0.5-4.4 1.4-5.8 0.9-1.3 2.3-2 4.1-2s3.1 0.6 4.1 1.9c0.9 1.3 1.4 3.1 1.5 5.6v3.2zm-1.5-3.2c0-2.1-0.3-3.6-1-4.7s-1.7-1.6-3-1.6-2.3 0.5-3 1.5-1 2.6-1 4.6v3.5c0 2.1 0.3 3.6 1 4.7s1.7 1.6 3 1.6 2.3-0.5 3-1.6 1-2.6 1-4.7v-3.3z"/>
	<path class="st10" d="M165.5,80.6H164V64.4l-4.9,1.8v-1.4l6.1-2.3h0.2V80.6z"/>
	<path class="st10" d="m183.7 63.5l-7.7 17.1h-1.5l7.6-16.7h-10.2v-1.3h11.8v0.9z"/>
	<path class="st10" d="m141.8 317.6h-11.3v-1.1l6.2-7c1-1.2 1.7-2.2 2.1-2.9 0.4-0.8 0.6-1.5 0.6-2.2 0-1.1-0.3-2-1-2.7s-1.6-1-2.8-1-2.2 0.4-2.9 1.2-1.1 1.8-1.1 3h-1.5c0-1 0.2-1.9 0.7-2.8 0.5-0.8 1.1-1.5 2-2s1.8-0.7 2.9-0.7c1.6 0 2.9 0.4 3.9 1.3 0.9 0.9 1.4 2 1.4 3.5 0 0.8-0.3 1.8-0.8 2.8s-1.4 2.2-2.8 3.7l-5 5.7h9.5v1.2z"/>
	<path class="st10" d="m155.4 310.1c0 2.5-0.5 4.5-1.4 5.8s-2.3 2-4.1 2-3.1-0.6-4.1-1.9c-0.9-1.3-1.4-3.2-1.5-5.6v-3.2c0-2.5 0.5-4.4 1.4-5.8s2.3-2 4.1-2 3.1 0.6 4.1 1.9c0.9 1.3 1.4 3.1 1.5 5.6v3.2zm-1.5-3.2c0-2.1-0.3-3.6-1-4.7s-1.7-1.6-3-1.6-2.3 0.5-3 1.5-1 2.6-1 4.6v3.5c0 2.1 0.3 3.6 1 4.7s1.7 1.6 3 1.6 2.3-0.5 3-1.6 1-2.6 1-4.7v-3.3z"/>
	<path class="st10" d="m165.5 317.6h-1.5v-16.2l-4.9 1.8v-1.4l6.1-2.3h0.2v18.1z"/>
	<path class="st10" d="m183.2 304.2c0 0.9-0.3 1.8-0.8 2.5s-1.3 1.3-2.2 1.6c1 0.4 1.9 0.9 2.5 1.7s0.9 1.7 0.9 2.7c0 1.5-0.5 2.8-1.6 3.7-1 0.9-2.4 1.4-4.2 1.4-1.7 0-3.1-0.4-4.2-1.3s-1.6-2.1-1.6-3.7c0-1 0.3-1.9 0.9-2.7s1.4-1.4 2.5-1.7c-0.9-0.3-1.6-0.9-2.1-1.6s-0.8-1.6-0.8-2.5c0-1.5 0.5-2.7 1.4-3.6 1-0.9 2.2-1.3 3.8-1.3s2.9 0.4 3.8 1.3c1.2 0.9 1.7 2.1 1.7 3.5zm-1 8.6c0-1.1-0.4-2-1.2-2.8-0.8-0.7-1.8-1.1-3.1-1.1-1.2 0-2.3 0.4-3.1 1.1s-1.2 1.6-1.2 2.8 0.4 2.1 1.2 2.7 1.8 1 3.1 1 2.3-0.3 3.1-1c0.8-0.6 1.2-1.5 1.2-2.7zm-0.5-8.6c0-1-0.4-1.9-1.1-2.6s-1.6-1-2.7-1-2 0.3-2.7 1-1 1.5-1 2.6 0.3 1.9 1 2.5 1.6 1 2.7 1 2-0.3 2.7-1c0.8-0.6 1.1-1.4 1.1-2.5z"/>
	<path class="st10" d="m141.8 564.6h-11.3v-1.1l6.2-7c1-1.2 1.7-2.2 2.1-2.9 0.4-0.8 0.6-1.5 0.6-2.2 0-1.1-0.3-2-1-2.7s-1.6-1-2.8-1-2.2 0.4-2.9 1.2-1.1 1.8-1.1 3h-1.5c0-1 0.2-1.9 0.7-2.8 0.5-0.8 1.1-1.5 2-2 0.8-0.5 1.8-0.7 2.9-0.7 1.6 0 2.9 0.4 3.9 1.3 0.9 0.9 1.4 2 1.4 3.5 0 0.8-0.3 1.8-0.8 2.8s-1.4 2.2-2.8 3.7l-5 5.7h9.5v1.2z"/>
	<path class="st10" d="m155.4 557.1c0 2.5-0.5 4.5-1.4 5.8s-2.3 2-4.1 2-3.1-0.6-4.1-1.9c-0.9-1.3-1.4-3.2-1.5-5.6v-3.2c0-2.5 0.5-4.4 1.4-5.8s2.3-2 4.1-2 3.1 0.6 4.1 1.9c0.9 1.3 1.4 3.1 1.5 5.6v3.2zm-1.5-3.2c0-2.1-0.3-3.6-1-4.7s-1.7-1.6-3-1.6-2.3 0.5-3 1.5-1 2.6-1 4.6v3.5c0 2.1 0.3 3.6 1 4.7s1.7 1.6 3 1.6 2.3-0.5 3-1.6 1-2.6 1-4.7v-3.3z"/>
	<path class="st10" d="m165.5 564.6h-1.5v-16.2l-4.9 1.8v-1.4l6.1-2.3h0.2v18.1z"/>
	<path class="st10" d="m181.8 556.3c-0.5 0.8-1.2 1.4-2 1.8s-1.6 0.6-2.5 0.6c-1 0-1.9-0.3-2.7-0.8s-1.4-1.3-1.8-2.2-0.6-1.9-0.6-3.1 0.2-2.3 0.7-3.2c0.5-1 1.1-1.7 1.9-2.3 0.8-0.5 1.8-0.8 2.8-0.8 1.8 0 3.2 0.6 4.2 1.9s1.5 3.1 1.5 5.4v1.3c0 3.2-0.7 5.7-2.1 7.3s-3.5 2.4-6.3 2.4h-0.3v-1.3h0.5c2.2 0 3.8-0.6 4.9-1.8 1.2-1.1 1.8-2.8 1.8-5.2zm-4.3 1.1c1 0 1.9-0.3 2.7-0.9s1.3-1.4 1.7-2.3v-0.9c0-1.8-0.4-3.2-1.1-4.3-0.8-1-1.8-1.5-3.1-1.5-1.2 0-2.1 0.5-2.9 1.4s-1.1 2.1-1.1 3.6c0 1.4 0.4 2.5 1.1 3.4s1.6 1.5 2.7 1.5z"/>
	<path class="st10" d="m297.4 64.9v7h-2.4v-17.9h6.6c2 0 3.5 0.5 4.6 1.5s1.7 2.3 1.7 4-0.5 3.1-1.6 4-2.7 1.4-4.7 1.4h-4.2zm0-1.9h4.3c1.3 0 2.2-0.3 2.9-0.9s1-1.5 1-2.6-0.3-1.9-1-2.6c-0.7-0.6-1.6-1-2.8-1h-4.4v7.1z"/>
	<path class="st10" d="M313.1,72h-2.3V53h2.3V72z"/>
	<path class="st10" d="m325.1 72c-0.1-0.3-0.2-0.7-0.3-1.4-1.1 1.1-2.3 1.7-3.8 1.7-1.3 0-2.4-0.4-3.2-1.1s-1.3-1.7-1.3-2.8c0-1.4 0.5-2.5 1.6-3.2 1.1-0.8 2.5-1.2 4.5-1.2h2.2v-1.1c0-0.8-0.2-1.4-0.7-1.9s-1.2-0.7-2.1-0.7c-0.8 0-1.5 0.2-2.1 0.6s-0.8 0.9-0.8 1.5h-2.3c0-0.7 0.2-1.3 0.7-1.9s1.1-1.1 1.9-1.5 1.7-0.5 2.7-0.5c1.5 0 2.7 0.4 3.6 1.2s1.3 1.8 1.4 3.2v6.2c0 1.2 0.2 2.2 0.5 2.9h-2.5zm-3.8-1.8c0.7 0 1.4-0.2 2-0.6s1.1-0.9 1.4-1.4v-2.7h-1.8c-2.8 0-4.2 0.8-4.2 2.5 0 0.7 0.2 1.3 0.7 1.7 0.5 0.3 1.1 0.5 1.9 0.5z"/>
	<path class="st10" d="m334.8 68.6l3.1-10h2.4l-5.3 15.4c-0.8 2.2-2.2 3.3-4 3.3h-0.4l-0.9-0.2v-1.9h0.6c0.8 0 1.4-0.2 1.8-0.5s0.8-0.9 1.1-1.7l0.5-1.4-4.8-13.2h2.5l3.4 10.2z"/>
	<path class="st10" d="m344.5 58.6l0.1 1.5c1-1.2 2.3-1.7 4-1.7 1.9 0 3.1 0.7 3.8 2.2 0.4-0.6 1-1.2 1.7-1.6s1.6-0.6 2.5-0.6c2.9 0 4.4 1.6 4.5 4.7v9h-2.3v-8.8c0-1-0.2-1.7-0.7-2.1-0.4-0.5-1.2-0.7-2.2-0.7-0.8 0-1.6 0.3-2.1 0.8-0.6 0.5-0.9 1.2-1 2v8.7h-2.3v-8.8c0-1.9-1-2.9-2.9-2.9-1.5 0-2.5 0.6-3.1 1.9v9.8h-2.3v-13.4h2.3z"/>
	<path class="st10" d="m372.8 72c-0.1-0.3-0.2-0.7-0.3-1.4-1.1 1.1-2.3 1.7-3.8 1.7-1.3 0-2.4-0.4-3.2-1.1s-1.3-1.7-1.3-2.8c0-1.4 0.5-2.5 1.6-3.2 1.1-0.8 2.5-1.2 4.5-1.2h2.2v-1.1c0-0.8-0.2-1.4-0.7-1.9s-1.2-0.7-2.1-0.7c-0.8 0-1.5 0.2-2.1 0.6s-0.8 0.9-0.8 1.5h-2.3c0-0.7 0.2-1.3 0.7-1.9s1.1-1.1 1.9-1.5 1.7-0.5 2.7-0.5c1.5 0 2.7 0.4 3.6 1.2s1.3 1.8 1.4 3.2v6.2c0 1.2 0.2 2.2 0.5 2.9h-2.5zm-3.8-1.8c0.7 0 1.4-0.2 2-0.6s1.1-0.9 1.4-1.4v-2.7h-1.8c-2.8 0-4.2 0.8-4.2 2.5 0 0.7 0.2 1.3 0.7 1.7 0.6 0.3 1.2 0.5 1.9 0.5z"/>
	<path class="st10" d="m381.5 55.3v3.2h2.5v1.8h-2.5v8.3c0 0.5 0.1 0.9 0.3 1.2s0.6 0.4 1.1 0.4c0.3 0 0.6 0 1.1-0.1v1.9c-0.6 0.2-1.2 0.2-1.8 0.2-1 0-1.8-0.3-2.3-0.9s-0.8-1.5-0.8-2.6v-8.3h-2.4v-1.8h2.4v-3.2h2.4z"/>
	<path class="st10" d="m392 70.3c0.8 0 1.5-0.2 2.1-0.7s0.9-1.1 1-1.9h2.2c0 0.8-0.3 1.5-0.8 2.2s-1.1 1.2-1.9 1.7c-0.8 0.4-1.7 0.6-2.6 0.6-1.8 0-3.3-0.6-4.3-1.8-1.1-1.2-1.6-2.9-1.6-5v-0.4c0-1.3 0.2-2.5 0.7-3.5s1.2-1.8 2.1-2.4 2-0.8 3.2-0.8c1.5 0 2.7 0.4 3.7 1.3s1.5 2.1 1.6 3.5h-2.2c-0.1-0.9-0.4-1.6-1-2.1-0.6-0.6-1.3-0.8-2.2-0.8-1.2 0-2.1 0.4-2.7 1.3s-1 2-1 3.6v0.4c0 1.5 0.3 2.7 1 3.6 0.6 0.8 1.5 1.2 2.7 1.2z"/>
	<path class="st10" d="m402.2 60.2c1-1.2 2.3-1.9 4-1.9 2.8 0 4.3 1.6 4.3 4.8v8.9h-2.3v-8.9c0-1-0.2-1.7-0.7-2.1s-1.1-0.7-2-0.7c-0.7 0-1.4 0.2-2 0.6s-1 0.9-1.3 1.6v9.5h-2.3v-19h2.3v7.2z"/>
	<path class="st10" d="M423,72h-2.4V54h2.4V72z"/>
	<path class="st10" d="m426.4 65.2c0-2.1 0.5-3.7 1.5-5s2.2-1.9 3.8-1.9 2.8 0.5 3.7 1.6v-7h2.3v19h-2.1l-0.1-1.4c-0.9 1.1-2.2 1.7-3.8 1.7s-2.8-0.6-3.8-1.9-1.5-2.9-1.5-5v-0.1zm2.3 0.2c0 1.5 0.3 2.7 0.9 3.6s1.5 1.3 2.6 1.3c1.5 0 2.5-0.7 3.2-2v-6.1c-0.7-1.3-1.7-1.9-3.2-1.9-1.1 0-2 0.4-2.6 1.3-0.6 0.8-0.9 2.1-0.9 3.8z"/>
	<path class="st10" d="m446.8 72.2c-1.8 0-3.3-0.6-4.4-1.8s-1.7-2.8-1.7-4.8v-0.4c0-1.3 0.3-2.5 0.8-3.6 0.5-1 1.2-1.9 2.1-2.4 0.9-0.6 1.9-0.9 3-0.9 1.7 0 3.1 0.6 4.1 1.7s1.4 2.8 1.4 4.9v1h-9.1c0 1.3 0.4 2.4 1.2 3.2 0.7 0.8 1.7 1.2 2.8 1.2 0.8 0 1.5-0.2 2.1-0.5s1.1-0.8 1.5-1.3l1.4 1.1c-1.3 1.7-2.9 2.6-5.2 2.6zm-0.3-12c-0.9 0-1.7 0.3-2.3 1s-1 1.6-1.2 2.8h6.7v-0.2c-0.1-1.2-0.4-2.1-0.9-2.7s-1.3-0.9-2.3-0.9z"/>
	<path class="st10" d="m462.9 72c-0.1-0.3-0.2-0.7-0.3-1.4-1.1 1.1-2.3 1.7-3.8 1.7-1.3 0-2.4-0.4-3.2-1.1s-1.3-1.7-1.3-2.8c0-1.4 0.5-2.5 1.6-3.2 1.1-0.8 2.5-1.2 4.5-1.2h2.2v-1.1c0-0.8-0.2-1.4-0.7-1.9s-1.2-0.7-2.1-0.7c-0.8 0-1.5 0.2-2.1 0.6s-0.8 0.9-0.8 1.5h-2.3c0-0.7 0.2-1.3 0.7-1.9s1.1-1.1 1.9-1.5 1.7-0.5 2.7-0.5c1.5 0 2.7 0.4 3.6 1.2s1.3 1.8 1.4 3.2v6.2c0 1.2 0.2 2.2 0.5 2.9h-2.5zm-3.8-1.8c0.7 0 1.4-0.2 2-0.6s1.1-0.9 1.4-1.4v-2.7h-1.8c-2.8 0-4.2 0.8-4.2 2.5 0 0.7 0.2 1.3 0.7 1.7 0.6 0.3 1.2 0.5 1.9 0.5z"/>
	<path class="st10" d="m474.7 55c0-0.4 0.1-0.7 0.3-0.9 0.2-0.3 0.6-0.4 1-0.4s0.8 0.1 1 0.4 0.3 0.6 0.3 0.9-0.1 0.7-0.3 0.9-0.6 0.4-1 0.4-0.8-0.1-1-0.4c-0.1-0.2-0.3-0.5-0.3-0.9zm2.5 17h-2.3v-13.4h2.3v13.4z"/>
	<path class="st10" d="m488.7 68.4c0-0.6-0.2-1.1-0.7-1.4s-1.3-0.6-2.4-0.9c-1.2-0.2-2.1-0.5-2.8-0.9-0.7-0.3-1.2-0.8-1.5-1.2-0.3-0.5-0.5-1-0.5-1.7 0-1.1 0.5-2 1.4-2.8s2.1-1.1 3.6-1.1 2.7 0.4 3.7 1.2c0.9 0.8 1.4 1.8 1.4 3h-2.3c0-0.6-0.3-1.2-0.8-1.6-0.5-0.5-1.2-0.7-2-0.7s-1.5 0.2-2 0.5c-0.5 0.4-0.7 0.8-0.7 1.4s0.2 1 0.7 1.2c0.4 0.3 1.2 0.5 2.4 0.8 1.1 0.3 2.1 0.6 2.8 0.9s1.2 0.8 1.6 1.3c0.3 0.5 0.5 1.1 0.5 1.8 0 1.2-0.5 2.2-1.4 2.9-1 0.7-2.2 1.1-3.7 1.1-1.1 0-2-0.2-2.8-0.6s-1.5-0.9-1.9-1.6c-0.5-0.7-0.7-1.4-0.7-2.2h2.3c0 0.8 0.3 1.4 0.9 1.8 0.6 0.5 1.3 0.7 2.3 0.7 0.9 0 1.6-0.2 2.1-0.5 0.2-0.3 0.5-0.8 0.5-1.4z"/>
	<path class="st10" d="m500.6 72v-18h5.9c2 0 3.4 0.4 4.4 1.2s1.5 2 1.5 3.6c0 0.8-0.2 1.6-0.7 2.2s-1.1 1.1-2 1.5c1 0.3 1.7 0.8 2.3 1.6s0.8 1.7 0.8 2.7c0 1.6-0.5 2.9-1.6 3.8-1 0.9-2.5 1.4-4.4 1.4h-6.2zm2.3-10.4h3.6c1 0 1.9-0.3 2.5-0.8s0.9-1.2 0.9-2.1c0-1-0.3-1.7-0.9-2.2s-1.5-0.7-2.6-0.7h-3.5v5.8zm0 1.9v6.5h3.9c1.1 0 2-0.3 2.6-0.9s1-1.4 1-2.4c0-2.2-1.2-3.3-3.5-3.3h-4z"/>
	<path class="st10" d="m515.4 65.1c0-1.3 0.3-2.5 0.8-3.5s1.2-1.9 2.2-2.4c0.9-0.6 2-0.9 3.1-0.9 1.8 0 3.3 0.6 4.4 1.9s1.7 2.9 1.7 5v0.2c0 1.3-0.2 2.5-0.7 3.5s-1.2 1.8-2.1 2.4-2 0.9-3.2 0.9c-1.8 0-3.3-0.6-4.4-1.9s-1.7-2.9-1.7-5v-0.2zm2.3 0.3c0 1.5 0.3 2.7 1 3.6s1.6 1.3 2.8 1.3 2.1-0.5 2.8-1.4 1-2.2 1-3.8c0-1.5-0.3-2.7-1-3.6s-1.6-1.4-2.8-1.4c-1.1 0-2 0.4-2.7 1.3s-1.1 2.3-1.1 4z"/>
	<path class="st10" d="m536.9 60.6c-0.3-0.1-0.7-0.1-1.1-0.1-1.5 0-2.5 0.6-3.1 1.9v9.6h-2.3v-13.4h2.2v1.5c0.8-1.2 1.8-1.8 3.2-1.8 0.4 0 0.8 0.1 1 0.2v2.1z"/>
	<path class="st10" d="m541.1 58.6l0.1 1.7c1-1.3 2.4-1.9 4-1.9 2.8 0 4.3 1.6 4.3 4.8v8.8h-2.3v-8.9c0-1-0.2-1.7-0.7-2.1s-1.1-0.7-2-0.7c-0.7 0-1.4 0.2-2 0.6s-1 0.9-1.3 1.6v9.5h-2.2v-13.4h2.1z"/>
	<path class="st10" d="m301 311.1l5.1-14.9h2.6l-6.7 18h-2l-6.7-18h2.6l5.1 14.9z"/>
	<path class="st10" d="m310.8 297.4c0-0.4 0.1-0.7 0.3-0.9 0.2-0.3 0.6-0.4 1-0.4s0.8 0.1 1 0.4 0.3 0.6 0.3 0.9-0.1 0.7-0.3 0.9-0.6 0.4-1 0.4-0.8-0.1-1-0.4-0.3-0.6-0.3-0.9zm2.5 16.9h-2.3v-13.4h2.3v13.4z"/>
	<path class="st10" d="m324.7 310.7c0-0.6-0.2-1.1-0.7-1.4s-1.3-0.6-2.4-0.9c-1.2-0.2-2.1-0.5-2.8-0.9-0.7-0.3-1.2-0.8-1.5-1.2-0.3-0.5-0.5-1-0.5-1.7 0-1.1 0.5-2 1.4-2.8s2.1-1.1 3.6-1.1 2.7 0.4 3.7 1.2c0.9 0.8 1.4 1.8 1.4 3h-2.3c0-0.6-0.3-1.2-0.8-1.6-0.5-0.5-1.2-0.7-2-0.7s-1.5 0.2-2 0.5-0.7 0.8-0.7 1.4 0.2 1 0.7 1.2c0.4 0.3 1.2 0.5 2.4 0.8 1.1 0.3 2.1 0.6 2.8 0.9s1.2 0.8 1.6 1.3c0.3 0.5 0.5 1.1 0.5 1.8 0 1.2-0.5 2.2-1.4 2.9-1 0.7-2.2 1.1-3.7 1.1-1.1 0-2-0.2-2.8-0.6s-1.5-0.9-1.9-1.6-0.7-1.4-0.7-2.2h2.3c0 0.8 0.3 1.4 0.9 1.8s1.3 0.7 2.3 0.7c0.9 0 1.6-0.2 2.1-0.5 0.3-0.3 0.5-0.8 0.5-1.4z"/>
	<path class="st10" d="m338.3 313c-0.9 1-2.2 1.6-3.9 1.6-1.4 0-2.5-0.4-3.3-1.2s-1.1-2.1-1.1-3.7v-8.7h2.3v8.6c0 2 0.8 3 2.5 3s2.9-0.7 3.5-2v-9.7h2.3v13.4h-2.2l-0.1-1.3z"/>
	<path class="st10" d="m352.2 314.3c-0.1-0.3-0.2-0.7-0.3-1.4-1.1 1.1-2.3 1.7-3.8 1.7-1.3 0-2.4-0.4-3.2-1.1s-1.3-1.7-1.3-2.8c0-1.4 0.5-2.5 1.6-3.2 1.1-0.8 2.5-1.2 4.5-1.2h2.2v-1.1c0-0.8-0.2-1.4-0.7-1.9s-1.2-0.7-2.1-0.7c-0.8 0-1.5 0.2-2.1 0.6s-0.8 0.9-0.8 1.5h-2.3c0-0.7 0.2-1.3 0.7-1.9s1.1-1.1 1.9-1.5 1.7-0.5 2.7-0.5c1.5 0 2.7 0.4 3.6 1.2s1.3 1.8 1.4 3.2v6.2c0 1.2 0.2 2.2 0.5 2.9v0.2h-2.5zm-3.8-1.8c0.7 0 1.4-0.2 2-0.6s1.1-0.9 1.4-1.4v-2.7h-1.8c-2.8 0-4.2 0.8-4.2 2.5 0 0.7 0.2 1.3 0.7 1.7 0.6 0.3 1.2 0.5 1.9 0.5z"/>
	<path class="st10" d="m360.2 314.3h-2.3v-19h2.3v19z"/>
	<path class="st10" d="m372.9 307.2v7h-2.4v-18h6.6c2 0 3.5 0.5 4.6 1.5s1.7 2.3 1.7 4-0.5 3.1-1.6 4-2.7 1.4-4.7 1.4h-4.2zm0-1.9h4.3c1.3 0 2.2-0.3 2.9-0.9s1-1.5 1-2.6-0.3-1.9-1-2.6-1.6-1-2.8-1h-4.4v7.1z"/>
	<path class="st10" d="m392.6 303c-0.3-0.1-0.7-0.1-1.1-0.1-1.5 0-2.5 0.6-3.1 1.9v9.5h-2.3v-13.4h2.2v1.5c0.8-1.2 1.8-1.8 3.2-1.8 0.4 0 0.8 0.1 1 0.2v2.2z"/>
	<path class="st10" d="m393.8 307.5c0-1.3 0.3-2.5 0.8-3.5s1.2-1.9 2.2-2.4 2-0.9 3.1-0.9c1.8 0 3.3 0.6 4.4 1.9s1.7 2.9 1.7 5v0.2c0 1.3-0.2 2.5-0.7 3.5s-1.2 1.8-2.1 2.4-2 0.9-3.2 0.9c-1.8 0-3.3-0.6-4.4-1.9s-1.7-2.9-1.7-5v-0.2zm2.3 0.2c0 1.5 0.3 2.7 1 3.6s1.6 1.3 2.8 1.3 2.1-0.5 2.8-1.4 1-2.2 1-3.8c0-1.5-0.3-2.7-1-3.6s-1.6-1.4-2.8-1.4c-1.1 0-2 0.4-2.7 1.3-0.7 1.1-1.1 2.4-1.1 4z"/>
	<path class="st10" d="m412 297.7v3.2h2.5v1.8h-2.5v8.3c0 0.5 0.1 0.9 0.3 1.2s0.6 0.4 1.1 0.4c0.3 0 0.6 0 1.1-0.1v1.8c-0.6 0.2-1.2 0.2-1.8 0.2-1 0-1.8-0.3-2.3-0.9s-0.8-1.5-0.8-2.6v-8.3h-2.4v-1.8h2.4v-3.2h2.4z"/>
	<path class="st10" d="m416.3 307.5c0-1.3 0.3-2.5 0.8-3.5s1.2-1.9 2.2-2.4 2-0.9 3.1-0.9c1.8 0 3.3 0.6 4.4 1.9s1.7 2.9 1.7 5v0.2c0 1.3-0.2 2.5-0.7 3.5s-1.2 1.8-2.1 2.4-2 0.9-3.2 0.9c-1.8 0-3.3-0.6-4.4-1.9s-1.7-2.9-1.7-5v-0.2zm2.3 0.2c0 1.5 0.3 2.7 1 3.6s1.6 1.3 2.8 1.3 2.1-0.5 2.8-1.4 1-2.2 1-3.8c0-1.5-0.3-2.7-1-3.6s-1.6-1.4-2.8-1.4c-1.1 0-2 0.4-2.7 1.3-0.7 1.1-1.1 2.4-1.1 4z"/>
	<path class="st10" d="m434.5 297.7v3.2h2.5v1.8h-2.5v8.3c0 0.5 0.1 0.9 0.3 1.2s0.6 0.4 1.1 0.4c0.3 0 0.6 0 1.1-0.1v1.8c-0.6 0.2-1.2 0.2-1.8 0.2-1 0-1.8-0.3-2.3-0.9s-0.8-1.5-0.8-2.6v-8.3h-2.4v-1.8h2.4v-3.2h2.4z"/>
	<path class="st10" d="m444 310.9l3.1-10h2.4l-5.4 15.4c-0.8 2.2-2.2 3.3-4 3.3h-0.4l-0.9-0.2v-1.9h0.6c0.8 0 1.4-0.2 1.8-0.5s0.8-0.9 1.1-1.7l0.5-1.4-4.8-13.2h2.5l3.5 10.2z"/>
	<path class="st10" d="m462.9 307.7c0 2-0.5 3.7-1.4 4.9s-2.2 1.9-3.8 1.9-2.9-0.5-3.8-1.5v6.4h-2.3v-18.5h2.1l0.1 1.5c0.9-1.2 2.2-1.7 3.9-1.7 1.6 0 2.9 0.6 3.8 1.8s1.4 2.9 1.4 5.1v0.1zm-2.3-0.2c0-1.5-0.3-2.7-1-3.6-0.6-0.9-1.5-1.3-2.6-1.3-1.4 0-2.4 0.6-3.1 1.8v6.4c0.7 1.2 1.7 1.8 3.1 1.8 1.1 0 2-0.4 2.6-1.3 0.7-0.8 1-2.1 1-3.8z"/>
	<path class="st10" d="m471.4 314.5c-1.8 0-3.3-0.6-4.4-1.8s-1.7-2.8-1.7-4.8v-0.4c0-1.3 0.3-2.5 0.8-3.6 0.5-1 1.2-1.9 2.1-2.4 0.9-0.6 1.9-0.9 3-0.9 1.7 0 3.1 0.6 4.1 1.7s1.4 2.8 1.4 4.9v1h-9.1c0 1.3 0.4 2.4 1.2 3.2 0.7 0.8 1.7 1.2 2.8 1.2 0.8 0 1.5-0.2 2.1-0.5s1.1-0.8 1.5-1.3l1.4 1.1c-1.3 1.8-3 2.6-5.2 2.6zm-0.3-12c-0.9 0-1.7 0.3-2.3 1s-1 1.6-1.2 2.8h6.7v-0.2c-0.1-1.2-0.4-2.1-0.9-2.7-0.6-0.5-1.4-0.9-2.3-0.9z"/>
	<path class="st10" d="m487 310.7c0-0.6-0.2-1.1-0.7-1.4s-1.3-0.6-2.4-0.9c-1.2-0.2-2.1-0.5-2.8-0.9-0.7-0.3-1.2-0.8-1.5-1.2-0.3-0.5-0.5-1-0.5-1.7 0-1.1 0.5-2 1.4-2.8s2.1-1.1 3.6-1.1 2.7 0.4 3.7 1.2c0.9 0.8 1.4 1.8 1.4 3h-2.3c0-0.6-0.3-1.2-0.8-1.6-0.5-0.5-1.2-0.7-2-0.7s-1.5 0.2-2 0.5-0.7 0.8-0.7 1.4 0.2 1 0.7 1.2c0.4 0.3 1.2 0.5 2.4 0.8 1.1 0.3 2.1 0.6 2.8 0.9s1.2 0.8 1.6 1.3c0.3 0.5 0.5 1.1 0.5 1.8 0 1.2-0.5 2.2-1.4 2.9-1 0.7-2.2 1.1-3.7 1.1-1.1 0-2-0.2-2.8-0.6s-1.5-0.9-1.9-1.6-0.7-1.4-0.7-2.2h2.3c0 0.8 0.3 1.4 0.9 1.8s1.3 0.7 2.3 0.7c0.9 0 1.6-0.2 2.1-0.5 0.3-0.3 0.5-0.8 0.5-1.4z"/>
	<path class="st10" d="M297.4,555h8.5v1.9H295v-18h2.4V555z"/>
	<path class="st10" d="m316.6 557c-0.1-0.3-0.2-0.7-0.3-1.4-1.1 1.1-2.3 1.7-3.8 1.7-1.3 0-2.4-0.4-3.2-1.1s-1.3-1.7-1.3-2.8c0-1.4 0.5-2.5 1.6-3.2 1.1-0.8 2.5-1.2 4.5-1.2h2.2v-1.1c0-0.8-0.2-1.4-0.7-1.9s-1.2-0.7-2.1-0.7c-0.8 0-1.5 0.2-2.1 0.6s-0.8 0.9-0.8 1.5h-2.3c0-0.7 0.2-1.3 0.7-1.9s1.1-1.1 1.9-1.5 1.7-0.5 2.7-0.5c1.5 0 2.7 0.4 3.6 1.2s1.3 1.8 1.4 3.2v6.2c0 1.2 0.2 2.2 0.5 2.9v0.2h-2.5zm-3.8-1.8c0.7 0 1.4-0.2 2-0.6s1.1-0.9 1.4-1.4v-2.7h-1.8c-2.8 0-4.2 0.8-4.2 2.5 0 0.7 0.2 1.3 0.7 1.7 0.5 0.3 1.1 0.5 1.9 0.5z"/>
	<path class="st10" d="m330.3 555.6c-0.9 1-2.2 1.6-3.9 1.6-1.4 0-2.5-0.4-3.3-1.2-0.7-0.8-1.1-2.1-1.1-3.7v-8.7h2.3v8.6c0 2 0.8 3 2.5 3s2.9-0.7 3.5-2v-9.7h2.3v13.5h-2.2l-0.1-1.4z"/>
	<path class="st10" d="m338.2 543.6l0.1 1.7c1-1.3 2.4-1.9 4-1.9 2.8 0 4.3 1.6 4.3 4.8v8.8h-2.3v-8.9c0-1-0.2-1.7-0.7-2.1s-1.1-0.7-2-0.7c-0.7 0-1.4 0.2-2 0.6s-1 0.9-1.3 1.6v9.5h-2.3v-13.4h2.2z"/>
	<path class="st10" d="m355.4 555.3c0.8 0 1.5-0.2 2.1-0.7s0.9-1.1 1-1.9h2.2c0 0.8-0.3 1.5-0.8 2.2s-1.1 1.2-1.9 1.7c-0.8 0.4-1.7 0.6-2.6 0.6-1.8 0-3.3-0.6-4.3-1.8-1.1-1.2-1.6-2.9-1.6-5v-0.4c0-1.3 0.2-2.5 0.7-3.5s1.2-1.8 2.1-2.4 2-0.8 3.2-0.8c1.5 0 2.7 0.4 3.7 1.3s1.5 2.1 1.6 3.5h-2.2c-0.1-0.9-0.4-1.6-1-2.1-0.6-0.6-1.3-0.8-2.2-0.8-1.2 0-2.1 0.4-2.7 1.3s-1 2-1 3.6v0.4c0 1.5 0.3 2.7 1 3.6 0.6 0.8 1.5 1.2 2.7 1.2z"/>
	<path class="st10" d="m365.6 545.2c1-1.2 2.3-1.9 4-1.9 2.8 0 4.3 1.6 4.3 4.8v8.8h-2.3v-8.9c0-1-0.2-1.7-0.7-2.1s-1.1-0.7-2-0.7c-0.7 0-1.4 0.2-2 0.6s-1 0.9-1.3 1.6v9.5h-2.3v-19h2.3v7.3z"/>
	<path class="st10" d="m382.9 550.1c0-1.3 0.3-2.5 0.8-3.5s1.2-1.9 2.2-2.4c0.9-0.6 2-0.9 3.1-0.9 1.8 0 3.3 0.6 4.4 1.9s1.7 2.9 1.7 5v0.2c0 1.3-0.2 2.5-0.7 3.5s-1.2 1.8-2.1 2.4-2 0.9-3.2 0.9c-1.8 0-3.3-0.6-4.4-1.9s-1.7-2.9-1.7-5v-0.2zm2.3 0.3c0 1.5 0.3 2.7 1 3.6s1.6 1.3 2.8 1.3 2.1-0.5 2.8-1.4 1-2.2 1-3.8c0-1.5-0.3-2.7-1-3.6s-1.6-1.4-2.8-1.4c-1.1 0-2 0.4-2.7 1.3s-1.1 2.3-1.1 4z"/>
	<path class="st10" d="m400.1 543.6l0.1 1.7c1-1.3 2.4-1.9 4-1.9 2.8 0 4.3 1.6 4.3 4.8v8.8h-2.3v-8.9c0-1-0.2-1.7-0.7-2.1s-1.1-0.7-2-0.7c-0.7 0-1.4 0.2-2 0.6s-1 0.9-1.3 1.6v9.5h-2.3v-13.4h2.2z"/>
	<path class="st10" d="m421.1 557h-2.4v-18h2.4v18z"/>
	<path class="st10" d="m427.2 543.6l0.1 1.7c1-1.3 2.4-1.9 4-1.9 2.8 0 4.3 1.6 4.3 4.8v8.8h-2.3v-8.9c0-1-0.2-1.7-0.7-2.1s-1.1-0.7-2-0.7c-0.7 0-1.4 0.2-2 0.6s-1 0.9-1.3 1.6v9.5h-2.3v-13.4h2.2z"/>
	<path class="st10" d="m438.5 550.2c0-2.1 0.5-3.7 1.5-5s2.2-1.9 3.8-1.9 2.8 0.5 3.7 1.6v-7h2.3v19h-2.1l-0.1-1.4c-0.9 1.1-2.2 1.7-3.8 1.7s-2.8-0.6-3.8-1.9-1.5-2.9-1.5-5v-0.1zm2.3 0.2c0 1.5 0.3 2.7 0.9 3.6s1.5 1.3 2.6 1.3c1.5 0 2.5-0.7 3.2-2v-6.1c-0.7-1.3-1.7-1.9-3.2-1.9-1.1 0-2 0.4-2.6 1.3-0.6 0.8-0.9 2.1-0.9 3.8z"/>
	<path class="st10" d="m453.3 540c0-0.4 0.1-0.7 0.3-0.9 0.2-0.3 0.6-0.4 1-0.4s0.8 0.1 1 0.4 0.3 0.6 0.3 0.9-0.1 0.7-0.3 0.9-0.6 0.4-1 0.4-0.8-0.1-1-0.4c-0.2-0.2-0.3-0.5-0.3-0.9zm2.5 17h-2.3v-13.4h2.3v13.4z"/>
	<path class="st10" d="m465 557.2c-1.8 0-3.3-0.6-4.4-1.8s-1.7-2.8-1.7-4.8v-0.4c0-1.3 0.3-2.5 0.8-3.6 0.5-1 1.2-1.9 2.1-2.4 0.9-0.6 1.9-0.9 3-0.9 1.7 0 3.1 0.6 4.1 1.7s1.4 2.8 1.4 4.9v1h-9.1c0 1.3 0.4 2.4 1.2 3.2 0.7 0.8 1.7 1.2 2.8 1.2 0.8 0 1.5-0.2 2.1-0.5s1.1-0.8 1.5-1.3l1.4 1.1c-1.3 1.7-2.9 2.6-5.2 2.6zm-0.3-12c-0.9 0-1.7 0.3-2.3 1s-1 1.6-1.2 2.8h6.7v-0.2c-0.1-1.2-0.4-2.1-0.9-2.7s-1.3-0.9-2.3-0.9z"/>
	<path class="st10" d="m472.3 550.2c0-2.1 0.5-3.7 1.4-5s2.2-1.8 3.8-1.8 2.9 0.6 3.8 1.7l0.1-1.5h2.1v13.1c0 1.7-0.5 3.1-1.5 4.1s-2.4 1.5-4.1 1.5c-1 0-1.9-0.2-2.8-0.6s-1.6-1-2.1-1.7l1.2-1.4c1 1.2 2.2 1.8 3.6 1.8 1.1 0 2-0.3 2.6-0.9s0.9-1.5 0.9-2.6v-1.1c-0.9 1.1-2.2 1.6-3.7 1.6-1.6 0-2.8-0.6-3.8-1.9-1-1.4-1.5-3.2-1.5-5.3zm2.3 0.2c0 1.5 0.3 2.7 0.9 3.6s1.5 1.3 2.6 1.3c1.4 0 2.5-0.7 3.2-2v-6.1c-0.7-1.3-1.8-1.9-3.2-1.9-1.1 0-2 0.4-2.6 1.3-0.5 0.8-0.9 2.1-0.9 3.8z"/>
	<path class="st10" d="m486.5 550.1c0-1.3 0.3-2.5 0.8-3.5s1.2-1.9 2.2-2.4c0.9-0.6 2-0.9 3.1-0.9 1.8 0 3.3 0.6 4.4 1.9s1.7 2.9 1.7 5v0.2c0 1.3-0.2 2.5-0.7 3.5s-1.2 1.8-2.1 2.4-2 0.9-3.2 0.9c-1.8 0-3.3-0.6-4.4-1.9s-1.7-2.9-1.7-5v-0.2zm2.3 0.3c0 1.5 0.3 2.7 1 3.6s1.6 1.3 2.8 1.3 2.1-0.5 2.8-1.4 1-2.2 1-3.8c0-1.5-0.3-2.7-1-3.6s-1.6-1.4-2.8-1.4c-1.1 0-2 0.4-2.7 1.3s-1.1 2.3-1.1 4z"/>
	<path class="st10" d="m501 550.2c0-2.1 0.5-3.7 1.4-5s2.2-1.8 3.8-1.8 2.9 0.6 3.8 1.7l0.1-1.5h2.1v13.1c0 1.7-0.5 3.1-1.5 4.1s-2.4 1.5-4.1 1.5c-1 0-1.9-0.2-2.8-0.6s-1.6-1-2.1-1.7l1.2-1.4c1 1.2 2.2 1.8 3.6 1.8 1.1 0 2-0.3 2.6-0.9s0.9-1.5 0.9-2.6v-1.1c-0.9 1.1-2.2 1.6-3.7 1.6-1.6 0-2.8-0.6-3.8-1.9-1-1.4-1.5-3.2-1.5-5.3zm2.3 0.2c0 1.5 0.3 2.7 0.9 3.6s1.5 1.3 2.6 1.3c1.4 0 2.5-0.7 3.2-2v-6.1c-0.7-1.3-1.8-1.9-3.2-1.9-1.1 0-2 0.4-2.6 1.3-0.6 0.8-0.9 2.1-0.9 3.8z"/>
	<path class="st10" d="m515.1 550.1c0-1.3 0.3-2.5 0.8-3.5s1.2-1.9 2.2-2.4c0.9-0.6 2-0.9 3.1-0.9 1.8 0 3.3 0.6 4.4 1.9s1.7 2.9 1.7 5v0.2c0 1.3-0.2 2.5-0.7 3.5s-1.2 1.8-2.1 2.4-2 0.9-3.2 0.9c-1.8 0-3.3-0.6-4.4-1.9s-1.7-2.9-1.7-5v-0.2zm2.3 0.3c0 1.5 0.3 2.7 1 3.6s1.6 1.3 2.8 1.3 2.1-0.5 2.8-1.4 1-2.2 1-3.8c0-1.5-0.3-2.7-1-3.6s-1.6-1.4-2.8-1.4c-1.1 0-2 0.4-2.7 1.3s-1.1 2.3-1.1 4z"/>
	<path class="st10" d="m301.6 159.2h-5.5v5.8h-1.7v-13h8.1v1.4h-6.4v4.5h5.5v1.3z"/>
	<path class="st10" d="m308.2 165.1c-1.3 0-2.4-0.4-3.2-1.3s-1.2-2-1.2-3.5v-0.3c0-1 0.2-1.8 0.6-2.6s0.9-1.3 1.5-1.8c0.7-0.4 1.4-0.6 2.1-0.6 1.3 0 2.2 0.4 2.9 1.2s1 2 1 3.6v0.7h-6.6c0 1 0.3 1.7 0.8 2.3s1.2 0.9 2 0.9c0.6 0 1.1-0.1 1.5-0.4 0.4-0.2 0.8-0.6 1.1-0.9l1 0.8c-0.7 1.3-1.9 1.9-3.5 1.9zm-0.2-8.6c-0.7 0-1.2 0.2-1.7 0.7s-0.7 1.2-0.8 2h4.9v-0.1c0-0.8-0.3-1.5-0.7-2-0.5-0.4-1.1-0.6-1.7-0.6z"/>
	<path class="st10" d="m319.8 165c-0.1-0.2-0.2-0.5-0.2-1-0.8 0.8-1.7 1.2-2.8 1.2-1 0-1.7-0.3-2.3-0.8s-0.9-1.2-0.9-2.1c0-1 0.4-1.8 1.2-2.3 0.8-0.6 1.8-0.8 3.2-0.8h1.6v-0.8c0-0.6-0.2-1-0.5-1.4-0.3-0.3-0.9-0.5-1.5-0.5s-1.1 0.1-1.5 0.4-0.6 0.7-0.6 1.1h-1.7c0-0.5 0.2-1 0.5-1.4 0.3-0.5 0.8-0.8 1.4-1.1s1.2-0.4 1.9-0.4c1.1 0 2 0.3 2.6 0.8 0.6 0.6 1 1.3 1 2.3v4.5c0 0.9 0.1 1.6 0.3 2.1v0.1h-1.7zm-2.7-1.3c0.5 0 1-0.1 1.5-0.4s0.8-0.6 1-1v-2h-1.3c-2 0-3 0.6-3 1.8 0 0.5 0.2 0.9 0.5 1.2 0.3 0.2 0.7 0.4 1.3 0.4z"/>
	<path class="st10" d="m326.1 152.9v2.3h1.8v1.3h-1.8v6c0 0.4 0.1 0.7 0.2 0.9 0.2 0.2 0.4 0.3 0.8 0.3 0.2 0 0.5 0 0.8-0.1v1.3c-0.4 0.1-0.9 0.2-1.3 0.2-0.7 0-1.3-0.2-1.7-0.7s-0.6-1.1-0.6-1.9v-6h-1.8v-1.3h1.8v-2.3h1.8z"/>
	<path class="st10" d="m335.8 164c-0.6 0.8-1.6 1.1-2.8 1.1-1 0-1.8-0.3-2.4-0.9s-0.8-1.5-0.8-2.7v-6.3h1.7v6.3c0 1.5 0.6 2.2 1.8 2.2 1.3 0 2.1-0.5 2.5-1.4v-7h1.7v9.7h-1.6l-0.1-1z"/>
	<path class="st10" d="m344.6 156.8c-0.3 0-0.5-0.1-0.8-0.1-1.1 0-1.8 0.5-2.2 1.4v6.9h-1.7v-9.7h1.6v1.1c0.5-0.9 1.3-1.3 2.3-1.3 0.3 0 0.6 0 0.7 0.1v1.6z"/>
	<path class="st10" d="m350 165.1c-1.3 0-2.4-0.4-3.2-1.3s-1.2-2-1.2-3.5v-0.3c0-1 0.2-1.8 0.6-2.6s0.9-1.3 1.5-1.8c0.7-0.4 1.4-0.6 2.1-0.6 1.3 0 2.2 0.4 2.9 1.2s1 2 1 3.6v0.7h-6.6c0 1 0.3 1.7 0.8 2.3s1.2 0.9 2 0.9c0.6 0 1.1-0.1 1.5-0.4 0.4-0.2 0.8-0.6 1.1-0.9l1 0.8c-0.7 1.3-1.9 1.9-3.5 1.9zm-0.2-8.6c-0.7 0-1.2 0.2-1.7 0.7s-0.7 1.2-0.8 2h4.9v-0.1c0-0.8-0.3-1.5-0.7-2-0.5-0.4-1-0.6-1.7-0.6z"/>
	<path class="st10" d="m361.3 162.4c0-0.4-0.2-0.8-0.5-1s-0.9-0.5-1.8-0.6c-0.8-0.2-1.5-0.4-2-0.6-0.5-0.3-0.9-0.5-1.1-0.9-0.2-0.3-0.4-0.8-0.4-1.2 0-0.8 0.3-1.5 1-2s1.5-0.8 2.6-0.8 2 0.3 2.7 0.9 1 1.3 1 2.2h-1.7c0-0.5-0.2-0.8-0.6-1.2s-0.9-0.5-1.5-0.5-1.1 0.1-1.4 0.4-0.5 0.6-0.5 1 0.2 0.7 0.5 0.9 0.9 0.4 1.7 0.6 1.5 0.4 2 0.7 0.9 0.6 1.1 0.9c0.2 0.4 0.4 0.8 0.4 1.3 0 0.9-0.3 1.6-1 2.1s-1.6 0.8-2.7 0.8c-0.8 0-1.5-0.1-2.1-0.4s-1.1-0.7-1.4-1.1-0.5-1-0.5-1.6h1.7c0 0.6 0.3 1 0.7 1.3s1 0.5 1.6 0.5 1.1-0.1 1.5-0.4c0.5-0.5 0.7-0.9 0.7-1.3z"/>
	<path class="st10" d="m379.5 160.8c-0.2 1.4-0.7 2.4-1.5 3.2-0.9 0.7-2 1.1-3.4 1.1-1.5 0-2.8-0.6-3.7-1.7s-1.4-2.6-1.4-4.4v-1.3c0-1.2 0.2-2.3 0.6-3.2s1-1.6 1.8-2.1 1.7-0.7 2.8-0.7c1.4 0 2.5 0.4 3.3 1.2s1.3 1.8 1.5 3.2h-1.7c-0.1-1-0.5-1.8-1-2.3s-1.2-0.7-2.1-0.7c-1.1 0-2 0.4-2.6 1.2s-0.9 2-0.9 3.5v1.3c0 1.4 0.3 2.5 0.9 3.4 0.6 0.8 1.4 1.3 2.5 1.3 1 0 1.7-0.2 2.2-0.6s0.8-1.2 1-2.3h1.7z"/>
	<path class="st10" d="m381.1 160c0-0.9 0.2-1.8 0.6-2.6s0.9-1.3 1.6-1.8 1.4-0.6 2.3-0.6c1.3 0 2.4 0.5 3.2 1.4s1.2 2.1 1.2 3.6v0.1c0 0.9-0.2 1.8-0.5 2.5-0.4 0.7-0.9 1.3-1.5 1.8-0.7 0.4-1.4 0.6-2.3 0.6-1.3 0-2.4-0.5-3.2-1.4s-1.2-2.1-1.2-3.6zm1.7 0.2c0 1.1 0.3 1.9 0.7 2.6s1.2 1 2 1 1.5-0.3 2-1 0.7-1.6 0.7-2.8c0-1.1-0.3-1.9-0.8-2.6s-1.2-1-2-1-1.5 0.3-2 1-0.6 1.6-0.6 2.8z"/>
	<path class="st10" d="m393.6 155.3l0.1 1.2c0.7-0.9 1.7-1.4 2.9-1.4 2 0 3.1 1.2 3.1 3.5v6.4h-1.7v-6.4c0-0.7-0.2-1.2-0.5-1.5s-0.8-0.5-1.5-0.5c-0.5 0-1 0.1-1.4 0.4s-0.7 0.7-0.9 1.1v6.9h-1.7v-9.7h1.6z"/>
	<path class="st10" d="m406 163.8c0.6 0 1.1-0.2 1.5-0.5s0.7-0.8 0.7-1.3h1.6c0 0.6-0.2 1.1-0.6 1.6s-0.8 0.9-1.4 1.2-1.2 0.4-1.9 0.4c-1.3 0-2.4-0.4-3.1-1.3-0.8-0.9-1.2-2.1-1.2-3.6v-0.3c0-0.9 0.2-1.8 0.5-2.5s0.8-1.3 1.5-1.7c0.6-0.4 1.4-0.6 2.3-0.6 1.1 0 2 0.3 2.7 1s1.1 1.5 1.2 2.5h-1.6c0-0.6-0.3-1.1-0.7-1.5s-1-0.6-1.6-0.6c-0.8 0-1.5 0.3-2 0.9s-0.7 1.5-0.7 2.6v0.3c0 1.1 0.2 2 0.7 2.6 0.6 0.5 1.3 0.8 2.1 0.8z"/>
	<path class="st10" d="m415.8 165.1c-1.3 0-2.4-0.4-3.2-1.3s-1.2-2-1.2-3.5v-0.3c0-1 0.2-1.8 0.6-2.6s0.9-1.3 1.5-1.8c0.7-0.4 1.4-0.6 2.1-0.6 1.3 0 2.2 0.4 2.9 1.2s1 2 1 3.6v0.7h-6.5c0 1 0.3 1.7 0.8 2.3s1.2 0.9 2 0.9c0.6 0 1.1-0.1 1.5-0.4 0.4-0.2 0.8-0.6 1.1-0.9l1 0.8c-0.8 1.3-2 1.9-3.6 1.9zm-0.3-8.6c-0.7 0-1.2 0.2-1.7 0.7s-0.7 1.2-0.8 2h4.9v-0.1c0-0.8-0.3-1.5-0.7-2-0.4-0.4-1-0.6-1.7-0.6z"/>
	<path class="st10" d="m429.6 160.2c0 1.5-0.3 2.7-1 3.6s-1.6 1.4-2.7 1.4c-1.2 0-2.1-0.4-2.8-1.1v4.7h-1.7v-13.4h1.5l0.1 1.1c0.7-0.8 1.6-1.3 2.8-1.3s2.1 0.4 2.8 1.3 1 2.1 1 3.7zm-1.6-0.2c0-1.1-0.2-2-0.7-2.6s-1.1-0.9-1.9-0.9c-1 0-1.8 0.4-2.3 1.3v4.6c0.5 0.9 1.3 1.3 2.3 1.3 0.8 0 1.4-0.3 1.9-0.9 0.4-0.6 0.7-1.5 0.7-2.8z"/>
	<path class="st10" d="m434 152.9v2.3h1.8v1.3h-1.8v6c0 0.4 0.1 0.7 0.2 0.9 0.2 0.2 0.4 0.3 0.8 0.3 0.2 0 0.5 0 0.8-0.1v1.3c-0.4 0.1-0.9 0.2-1.3 0.2-0.7 0-1.3-0.2-1.7-0.7s-0.6-1.1-0.6-1.9v-6h-1.8v-1.3h1.8v-2.3h1.8z"/>
	<path class="st10" d="m443.7 164c-0.6 0.8-1.6 1.1-2.8 1.1-1 0-1.8-0.3-2.4-0.9s-0.8-1.5-0.8-2.7v-6.3h1.7v6.3c0 1.5 0.6 2.2 1.8 2.2 1.3 0 2.1-0.5 2.5-1.4v-7h1.7v9.7h-1.6l-0.1-1z"/>
	<path class="st10" d="m453.8 165c-0.1-0.2-0.2-0.5-0.2-1-0.8 0.8-1.7 1.2-2.8 1.2-1 0-1.7-0.3-2.3-0.8s-0.9-1.2-0.9-2.1c0-1 0.4-1.8 1.2-2.3 0.8-0.6 1.8-0.8 3.2-0.8h1.6v-0.8c0-0.6-0.2-1-0.5-1.4-0.3-0.3-0.9-0.5-1.5-0.5s-1.1 0.1-1.5 0.4-0.6 0.7-0.6 1.1h-1.7c0-0.5 0.2-1 0.5-1.4 0.3-0.5 0.8-0.8 1.4-1.1s1.2-0.4 1.9-0.4c1.1 0 2 0.3 2.6 0.8 0.6 0.6 1 1.3 1 2.3v4.5c0 0.9 0.1 1.6 0.3 2.1v0.1h-1.7zm-2.8-1.3c0.5 0 1-0.1 1.5-0.4s0.8-0.6 1-1v-2h-1.3c-2 0-3 0.6-3 1.8 0 0.5 0.2 0.9 0.5 1.2 0.4 0.2 0.8 0.4 1.3 0.4z"/>
	<path class="st10" d="M459.6,165h-1.7v-13.7h1.7V165z"/>
	<path class="st10" d="m462.2 152.7c0-0.3 0.1-0.5 0.2-0.7 0.2-0.2 0.4-0.3 0.7-0.3s0.6 0.1 0.7 0.3c0.2 0.2 0.3 0.4 0.3 0.7s-0.1 0.5-0.3 0.7-0.4 0.3-0.7 0.3-0.6-0.1-0.7-0.3-0.2-0.4-0.2-0.7zm1.8 12.3h-1.7v-9.7h1.7v9.7z"/>
	<path class="st10" d="m468.2 163.6h5.7v1.4h-7.7v-1.2l5.3-7.1h-5.3v-1.4h7.3v1.2l-5.3 7.1z"/>
	<path class="st10" d="m481.7 165c-0.1-0.2-0.2-0.5-0.2-1-0.8 0.8-1.7 1.2-2.8 1.2-1 0-1.7-0.3-2.3-0.8s-0.9-1.2-0.9-2.1c0-1 0.4-1.8 1.2-2.3 0.8-0.6 1.8-0.8 3.2-0.8h1.6v-0.8c0-0.6-0.2-1-0.5-1.4-0.3-0.3-0.9-0.5-1.5-0.5s-1.1 0.1-1.5 0.4-0.6 0.7-0.6 1.1h-1.7c0-0.5 0.2-1 0.5-1.4 0.3-0.5 0.8-0.8 1.4-1.1s1.2-0.4 1.9-0.4c1.1 0 2 0.3 2.6 0.8 0.6 0.6 1 1.3 1 2.3v4.5c0 0.9 0.1 1.6 0.3 2.1v0.1h-1.7zm-2.7-1.3c0.5 0 1-0.1 1.5-0.4s0.8-0.6 1-1v-2h-1.3c-2 0-3 0.6-3 1.8 0 0.5 0.2 0.9 0.5 1.2 0.3 0.2 0.8 0.4 1.3 0.4z"/>
	<path class="st10" d="m488 152.9v2.3h1.8v1.3h-1.8v6c0 0.4 0.1 0.7 0.2 0.9 0.2 0.2 0.4 0.3 0.8 0.3 0.2 0 0.5 0 0.8-0.1v1.3c-0.4 0.1-0.9 0.2-1.3 0.2-0.7 0-1.3-0.2-1.7-0.7s-0.6-1.1-0.6-1.9v-6h-1.8v-1.3h1.8v-2.3h1.8z"/>
	<path class="st10" d="m491.7 152.7c0-0.3 0.1-0.5 0.2-0.7 0.2-0.2 0.4-0.3 0.7-0.3s0.6 0.1 0.7 0.3c0.2 0.2 0.3 0.4 0.3 0.7s-0.1 0.5-0.3 0.7-0.4 0.3-0.7 0.3-0.6-0.1-0.7-0.3-0.2-0.4-0.2-0.7zm1.8 12.3h-1.7v-9.7h1.7v9.7z"/>
	<path class="st10" d="m495.7 160c0-0.9 0.2-1.8 0.6-2.6s0.9-1.3 1.6-1.8 1.4-0.6 2.3-0.6c1.3 0 2.4 0.5 3.2 1.4s1.2 2.1 1.2 3.6v0.1c0 0.9-0.2 1.8-0.5 2.5-0.4 0.7-0.9 1.3-1.5 1.8-0.7 0.4-1.4 0.6-2.3 0.6-1.3 0-2.4-0.5-3.2-1.4s-1.2-2.1-1.2-3.6zm1.7 0.2c0 1.1 0.3 1.9 0.7 2.6s1.2 1 2 1 1.5-0.3 2-1 0.7-1.6 0.7-2.8c0-1.1-0.3-1.9-0.8-2.6s-1.2-1-2-1-1.5 0.3-2 1-0.6 1.6-0.6 2.8z"/>
	<path class="st10" d="m508.2 155.3l0.1 1.2c0.7-0.9 1.7-1.4 2.9-1.4 2 0 3.1 1.2 3.1 3.5v6.4h-1.7v-6.4c0-0.7-0.2-1.2-0.5-1.5s-0.8-0.5-1.5-0.5c-0.5 0-1 0.1-1.4 0.4s-0.7 0.7-0.9 1.1v6.9h-1.7v-9.7h1.6z"/>
	<path class="st10" d="m296.3 195.9h-1.7v-13h1.7v13z"/>
	<path class="st10" d="m300.8 186.2l0.1 1.2c0.7-0.9 1.7-1.4 2.9-1.4 2 0 3.1 1.2 3.1 3.5v6.4h-1.7v-6.4c0-0.7-0.2-1.2-0.5-1.5s-0.8-0.5-1.5-0.5c-0.5 0-1 0.1-1.4 0.4s-0.7 0.7-0.9 1.1v6.9h-1.7v-9.7h1.6z"/>
	<path class="st10" d="m311.5 183.8v2.3h1.8v1.3h-1.8v6c0 0.4 0.1 0.7 0.2 0.9 0.2 0.2 0.4 0.3 0.8 0.3 0.2 0 0.5 0 0.8-0.1v1.3c-0.4 0.1-0.9 0.2-1.3 0.2-0.7 0-1.3-0.2-1.7-0.7s-0.6-1.1-0.6-1.9v-6h-1.8v-1.3h1.8v-2.3h1.8z"/>
	<path class="st10" d="m319.3 196c-1.3 0-2.4-0.4-3.2-1.3s-1.2-2-1.2-3.5v-0.2c0-1 0.2-1.8 0.6-2.6s0.9-1.3 1.5-1.8c0.7-0.4 1.4-0.6 2.1-0.6 1.3 0 2.2 0.4 2.9 1.2s1 2 1 3.6v0.7h-6.6c0 1 0.3 1.7 0.8 2.3s1.2 0.9 2 0.9c0.6 0 1.1-0.1 1.5-0.4 0.4-0.2 0.8-0.6 1.1-0.9l1 0.8c-0.7 1.2-1.9 1.8-3.5 1.8zm-0.2-8.7c-0.7 0-1.2 0.2-1.7 0.7s-0.7 1.2-0.8 2h4.9c0-0.8-0.3-1.5-0.7-2-0.5-0.4-1-0.7-1.7-0.7z"/>
	<path class="st10" d="m329.7 187.7c-0.3 0-0.5-0.1-0.8-0.1-1.1 0-1.8 0.5-2.2 1.4v6.9h-1.7v-9.7h1.6v1.1c0.5-0.9 1.3-1.3 2.3-1.3 0.3 0 0.6 0 0.7 0.1v1.6z"/>
	<path class="st10" d="m332.1 195.9v-8.4h-1.5v-1.3h1.5v-1c0-1 0.3-1.8 0.8-2.4s1.3-0.9 2.4-0.9c0.4 0 0.8 0.1 1.1 0.2l-0.1 1.3c-0.3-0.1-0.6-0.1-0.9-0.1-0.5 0-1 0.2-1.2 0.5-0.3 0.3-0.4 0.8-0.4 1.4v1h2.1v1.3h-2.1v8.4h-1.7z"/>
	<path class="st10" d="m343.7 195.9c-0.1-0.2-0.2-0.5-0.2-1-0.8 0.8-1.7 1.2-2.8 1.2-1 0-1.7-0.3-2.3-0.8s-0.9-1.2-0.9-2.1c0-1 0.4-1.8 1.2-2.3 0.8-0.6 1.8-0.8 3.2-0.8h1.6v-0.8c0-0.6-0.2-1-0.5-1.4-0.3-0.3-0.9-0.5-1.5-0.5s-1.1 0.1-1.5 0.4-0.6 0.7-0.6 1.1h-1.7c0-0.5 0.2-1 0.5-1.4 0.3-0.5 0.8-0.8 1.4-1.1s1.2-0.4 1.9-0.4c1.1 0 2 0.3 2.6 0.8 0.6 0.6 1 1.3 1 2.3v4.5c0 0.9 0.1 1.6 0.3 2.1v0.1h-1.7zm-2.8-1.3c0.5 0 1-0.1 1.5-0.4s0.8-0.6 1-1v-2h-1.3c-2 0-3 0.6-3 1.8 0 0.5 0.2 0.9 0.5 1.2 0.3 0.2 0.8 0.4 1.3 0.4z"/>
	<path class="st10" d="m351.5 194.7c0.6 0 1.1-0.2 1.5-0.5s0.7-0.8 0.7-1.3h1.6c0 0.6-0.2 1.1-0.6 1.6s-0.8 0.9-1.4 1.2-1.2 0.4-1.9 0.4c-1.3 0-2.4-0.4-3.1-1.3-0.8-0.9-1.2-2.1-1.2-3.6v-0.3c0-0.9 0.2-1.8 0.5-2.5s0.8-1.3 1.5-1.7c0.6-0.4 1.4-0.6 2.3-0.6 1.1 0 2 0.3 2.7 1s1.1 1.5 1.2 2.5h-1.6c0-0.6-0.3-1.1-0.7-1.5s-1-0.6-1.6-0.6c-0.8 0-1.5 0.3-2 0.9s-0.7 1.5-0.7 2.6v0.3c0 1.1 0.2 2 0.7 2.6 0.6 0.5 1.3 0.8 2.1 0.8z"/>
	<path class="st10" d="m361.3 196c-1.3 0-2.4-0.4-3.2-1.3s-1.2-2-1.2-3.5v-0.2c0-1 0.2-1.8 0.6-2.6s0.9-1.3 1.5-1.8c0.7-0.4 1.4-0.6 2.1-0.6 1.3 0 2.2 0.4 2.9 1.2s1 2 1 3.6v0.7h-6.6c0 1 0.3 1.7 0.8 2.3s1.2 0.9 2 0.9c0.6 0 1.1-0.1 1.5-0.4 0.4-0.2 0.8-0.6 1.1-0.9l1 0.8c-0.7 1.2-1.9 1.8-3.5 1.8zm-0.2-8.7c-0.7 0-1.2 0.2-1.7 0.7s-0.7 1.2-0.8 2h4.9c0-0.8-0.3-1.5-0.7-2-0.5-0.4-1-0.7-1.7-0.7z"/>
	<path class="st10" d="m371.8 195.9v-13h3.7c1.1 0 2.1 0.3 3 0.8s1.5 1.2 2 2.1 0.7 2 0.7 3.2v0.8c0 1.2-0.2 2.3-0.7 3.2s-1.2 1.6-2 2.1-1.9 0.7-3.1 0.8h-3.6zm1.7-11.7v10.2h1.8c1.3 0 2.4-0.4 3.1-1.2s1.1-2 1.1-3.5v-0.8c0-1.5-0.3-2.6-1-3.5-0.7-0.8-1.7-1.2-3-1.2h-2z"/>
	<path class="st10" d="m387.5 196c-1.3 0-2.4-0.4-3.2-1.3s-1.2-2-1.2-3.5v-0.2c0-1 0.2-1.8 0.6-2.6s0.9-1.3 1.5-1.8c0.7-0.4 1.4-0.6 2.1-0.6 1.3 0 2.2 0.4 2.9 1.2s1 2 1 3.6v0.7h-6.6c0 1 0.3 1.7 0.8 2.3s1.2 0.9 2 0.9c0.6 0 1.1-0.1 1.5-0.4 0.4-0.2 0.8-0.6 1.1-0.9l1 0.8c-0.6 1.2-1.8 1.8-3.5 1.8zm-0.2-8.7c-0.7 0-1.2 0.2-1.7 0.7s-0.7 1.2-0.8 2h4.9c0-0.8-0.3-1.5-0.7-2-0.4-0.4-1-0.7-1.7-0.7z"/>
	<path class="st10" d="m398.9 193.3c0-0.4-0.2-0.8-0.5-1s-0.9-0.5-1.8-0.6c-0.8-0.2-1.5-0.4-2-0.6-0.5-0.3-0.9-0.5-1.1-0.9-0.2-0.3-0.4-0.8-0.4-1.2 0-0.8 0.3-1.5 1-2s1.5-0.8 2.6-0.8 2 0.3 2.7 0.9 1 1.3 1 2.2h-1.7c0-0.5-0.2-0.8-0.6-1.2s-0.9-0.5-1.5-0.5-1.1 0.1-1.4 0.4-0.5 0.6-0.5 1 0.2 0.7 0.5 0.9 0.9 0.4 1.7 0.6 1.5 0.4 2 0.7 0.9 0.6 1.1 0.9c0.2 0.4 0.4 0.8 0.4 1.3 0 0.9-0.3 1.6-1 2.1s-1.6 0.8-2.7 0.8c-0.8 0-1.5-0.1-2.1-0.4s-1.1-0.7-1.4-1.1-0.5-1-0.5-1.6h1.7c0 0.6 0.3 1 0.7 1.3s1 0.5 1.6 0.5 1.1-0.1 1.5-0.4c0.5-0.6 0.7-0.9 0.7-1.3z"/>
	<path class="st10" d="m402.7 183.6c0-0.3 0.1-0.5 0.2-0.7 0.2-0.2 0.4-0.3 0.7-0.3s0.6 0.1 0.7 0.3c0.2 0.2 0.3 0.4 0.3 0.7s-0.1 0.5-0.3 0.7-0.4 0.3-0.7 0.3-0.6-0.1-0.7-0.3-0.2-0.4-0.2-0.7zm1.8 12.3h-1.7v-9.7h1.7v9.7z"/>
	<path class="st10" d="m406.7 190.9c0-1.5 0.3-2.7 1-3.6s1.6-1.3 2.8-1.3 2.1 0.4 2.8 1.3l0.1-1.1h1.5v9.5c0 1.3-0.4 2.2-1.1 3-0.7 0.7-1.7 1.1-3 1.1-0.7 0-1.4-0.1-2-0.4-0.7-0.3-1.2-0.7-1.5-1.2l0.9-1c0.7 0.9 1.6 1.3 2.6 1.3 0.8 0 1.4-0.2 1.9-0.7s0.7-1.1 0.7-1.9v-0.8c-0.7 0.8-1.6 1.1-2.7 1.1s-2.1-0.5-2.8-1.4c-0.8-1.1-1.2-2.3-1.2-3.9zm1.7 0.2c0 1.1 0.2 1.9 0.7 2.6 0.4 0.6 1.1 0.9 1.9 0.9 1 0 1.8-0.5 2.3-1.4v-4.4c-0.5-0.9-1.3-1.4-2.3-1.4-0.8 0-1.4 0.3-1.9 0.9-0.5 0.7-0.7 1.6-0.7 2.8z"/>
	<path class="st10" d="m419 186.2l0.1 1.2c0.7-0.9 1.7-1.4 2.9-1.4 2 0 3.1 1.2 3.1 3.5v6.4h-1.7v-6.4c0-0.7-0.2-1.2-0.5-1.5s-0.8-0.5-1.5-0.5c-0.5 0-1 0.1-1.4 0.4s-0.7 0.7-0.9 1.1v6.9h-1.7v-9.7h1.6z"/>
	<path class="st10" d="m436.2 190c-1.5-0.4-2.5-0.9-3.2-1.6-0.7-0.6-1-1.4-1-2.3 0-1 0.4-1.9 1.2-2.5s1.9-1 3.2-1c0.9 0 1.7 0.2 2.4 0.5s1.2 0.8 1.6 1.4 0.6 1.3 0.6 2h-1.7c0-0.8-0.3-1.4-0.8-1.9s-1.2-0.7-2.1-0.7c-0.8 0-1.5 0.2-2 0.6s-0.7 0.9-0.7 1.6c0 0.5 0.2 1 0.7 1.3 0.5 0.4 1.2 0.7 2.3 1s1.9 0.6 2.5 1 1.1 0.8 1.4 1.3 0.4 1.1 0.4 1.7c0 1.1-0.4 1.9-1.2 2.5s-1.9 1-3.3 1c-0.9 0-1.7-0.2-2.5-0.5s-1.4-0.8-1.8-1.4-0.6-1.3-0.6-2h1.7c0 0.8 0.3 1.4 0.9 1.9s1.4 0.7 2.3 0.7 1.6-0.2 2.1-0.6 0.7-0.9 0.7-1.5-0.2-1.1-0.7-1.5-1.3-0.6-2.4-1z"/>
	<path class="st10" d="m445.2 183.8v2.3h1.8v1.3h-1.8v6c0 0.4 0.1 0.7 0.2 0.9 0.2 0.2 0.4 0.3 0.8 0.3 0.2 0 0.5 0 0.8-0.1v1.3c-0.4 0.1-0.9 0.2-1.3 0.2-0.7 0-1.3-0.2-1.7-0.7s-0.6-1.1-0.6-1.9v-6h-1.8v-1.3h1.8v-2.3h1.8z"/>
	<path class="st10" d="m454.9 194.9c-0.6 0.8-1.6 1.1-2.8 1.1-1 0-1.8-0.3-2.4-0.9s-0.8-1.5-0.8-2.7v-6.3h1.7v6.3c0 1.5 0.6 2.2 1.8 2.2 1.3 0 2.1-0.5 2.5-1.4v-7h1.7v9.7h-1.6l-0.1-1z"/>
	<path class="st10" d="m458.6 190.9c0-1.5 0.4-2.7 1.1-3.6s1.6-1.4 2.8-1.4c1.1 0 2 0.4 2.7 1.2v-5h1.7v13.7h-1.5l-0.1-1c-0.7 0.8-1.6 1.2-2.8 1.2-1.1 0-2-0.5-2.7-1.4s-1.1-2.1-1.1-3.6v-0.1zm1.7 0.2c0 1.1 0.2 2 0.7 2.6s1.1 0.9 1.9 0.9c1 0 1.8-0.5 2.3-1.4v-4.4c-0.5-0.9-1.3-1.4-2.3-1.4-0.8 0-1.4 0.3-1.9 0.9-0.5 0.7-0.7 1.6-0.7 2.8z"/>
	<path class="st10" d="m472.5 193.4l2.3-7.3h1.8l-3.9 11.2c-0.6 1.6-1.6 2.4-2.9 2.4h-0.3l-0.6-0.1v-1.3h0.4c0.6 0 1-0.1 1.3-0.3s0.6-0.6 0.8-1.2l0.4-1-3.5-9.6h1.8l2.4 7.2z"/>
	<path class="st10" d="m294.5 396.3v-13h3.7c1.1 0 2.1 0.3 3 0.8s1.5 1.2 2 2.1 0.7 2 0.7 3.2v0.8c0 1.2-0.2 2.3-0.7 3.2s-1.2 1.6-2 2.1-1.9 0.7-3.1 0.8h-3.6zm1.7-11.6v10.2h1.8c1.3 0 2.4-0.4 3.1-1.2s1.1-2 1.1-3.5v-0.8c0-1.5-0.3-2.6-1-3.5-0.7-0.8-1.7-1.2-3-1.2h-2z"/>
	<path class="st10" d="m310.2 396.5c-1.3 0-2.4-0.4-3.2-1.3s-1.2-2-1.2-3.5v-0.3c0-1 0.2-1.8 0.6-2.6s0.9-1.3 1.5-1.8c0.7-0.4 1.4-0.6 2.1-0.6 1.3 0 2.2 0.4 2.9 1.2s1 2 1 3.6v0.7h-6.6c0 1 0.3 1.7 0.8 2.3s1.2 0.9 2 0.9c0.6 0 1.1-0.1 1.5-0.4 0.4-0.2 0.8-0.6 1.1-0.9l1 0.8c-0.6 1.3-1.8 1.9-3.5 1.9zm-0.2-8.7c-0.7 0-1.2 0.2-1.7 0.7s-0.7 1.2-0.8 2h4.9v-0.1c0-0.8-0.3-1.5-0.7-2-0.4-0.3-1-0.6-1.7-0.6z"/>
	<path class="st10" d="m319 394.1l2.4-7.4h1.7l-3.5 9.7h-1.3l-3.5-9.7h1.7l2.5 7.4z"/>
	<path class="st10" d="m328.6 396.5c-1.3 0-2.4-0.4-3.2-1.3s-1.2-2-1.2-3.5v-0.3c0-1 0.2-1.8 0.6-2.6s0.9-1.3 1.5-1.8c0.7-0.4 1.4-0.6 2.1-0.6 1.3 0 2.2 0.4 2.9 1.2s1 2 1 3.6v0.7h-6.6c0 1 0.3 1.7 0.8 2.3s1.2 0.9 2 0.9c0.6 0 1.1-0.1 1.5-0.4 0.4-0.2 0.8-0.6 1.1-0.9l1 0.8c-0.7 1.3-1.9 1.9-3.5 1.9zm-0.2-8.7c-0.7 0-1.2 0.2-1.7 0.7s-0.7 1.2-0.8 2h4.9v-0.1c0-0.8-0.3-1.5-0.7-2-0.5-0.3-1-0.6-1.7-0.6z"/>
	<path class="st10" d="m336.1 396.3h-1.7v-13.7h1.7v13.7z"/>
	<path class="st10" d="m338.3 391.4c0-0.9 0.2-1.8 0.6-2.6s0.9-1.3 1.6-1.8 1.4-0.6 2.3-0.6c1.3 0 2.4 0.5 3.2 1.4s1.2 2.1 1.2 3.6v0.1c0 0.9-0.2 1.8-0.5 2.5-0.4 0.7-0.9 1.3-1.5 1.8-0.7 0.4-1.4 0.6-2.3 0.6-1.3 0-2.4-0.5-3.2-1.4s-1.2-2.1-1.2-3.6zm1.7 0.2c0 1.1 0.3 1.9 0.7 2.6s1.2 1 2 1 1.5-0.3 2-1 0.7-1.6 0.7-2.8c0-1.1-0.3-1.9-0.8-2.6s-1.2-1-2-1-1.5 0.3-2 1-0.6 1.6-0.6 2.8z"/>
	<path class="st10" d="m357.4 391.6c0 1.5-0.3 2.7-1 3.6s-1.6 1.4-2.7 1.4c-1.2 0-2.1-0.4-2.8-1.1v4.7h-1.7v-13.4h1.5l0.1 1.1c0.7-0.8 1.6-1.3 2.8-1.3s2.1 0.4 2.8 1.3 1 2.1 1 3.7zm-1.7-0.2c0-1.1-0.2-2-0.7-2.6s-1.1-0.9-1.9-0.9c-1 0-1.8 0.4-2.3 1.3v4.6c0.5 0.9 1.3 1.3 2.3 1.3 0.8 0 1.4-0.3 1.9-0.9s0.7-1.5 0.7-2.8z"/>
	<path class="st10" d="m361 386.7v1.1c0.7-0.8 1.7-1.3 2.9-1.3 1.4 0 2.3 0.5 2.8 1.6 0.3-0.5 0.7-0.8 1.3-1.1 0.5-0.3 1.1-0.4 1.8-0.4 2.1 0 3.2 1.1 3.2 3.4v6.5h-1.7v-6.4c0-0.7-0.2-1.2-0.5-1.6-0.3-0.3-0.8-0.5-1.6-0.5-0.6 0-1.1 0.2-1.5 0.6s-0.6 0.9-0.7 1.5v6.4h-1.7v-6.5c0-1.4-0.7-2.1-2.1-2.1-1.1 0-1.8 0.5-2.2 1.4v7.1h-1.7v-9.7h1.7z"/>
	<path class="st10" d="m379.6 396.5c-1.3 0-2.4-0.4-3.2-1.3s-1.2-2-1.2-3.5v-0.3c0-1 0.2-1.8 0.6-2.6s0.9-1.3 1.5-1.8c0.7-0.4 1.4-0.6 2.1-0.6 1.3 0 2.2 0.4 2.9 1.2s1 2 1 3.6v0.7h-6.6c0 1 0.3 1.7 0.8 2.3s1.2 0.9 2 0.9c0.6 0 1.1-0.1 1.5-0.4 0.4-0.2 0.8-0.6 1.1-0.9l1 0.8c-0.7 1.3-1.9 1.9-3.5 1.9zm-0.3-8.7c-0.7 0-1.2 0.2-1.7 0.7s-0.7 1.2-0.8 2h4.9v-0.1c0-0.8-0.3-1.5-0.7-2-0.4-0.3-1-0.6-1.7-0.6z"/>
	<path class="st10" d="m386.8 386.7l0.1 1.2c0.7-0.9 1.7-1.4 2.9-1.4 2 0 3.1 1.2 3.1 3.5v6.4h-1.7v-6.4c0-0.7-0.2-1.2-0.5-1.5s-0.8-0.5-1.5-0.5c-0.5 0-1 0.1-1.4 0.4s-0.7 0.7-0.9 1.1v6.9h-1.7v-9.7h1.6z"/>
	<path class="st10" d="m397.6 384.3v2.3h1.8v1.3h-1.8v6c0 0.4 0.1 0.7 0.2 0.9 0.2 0.2 0.4 0.3 0.8 0.3 0.2 0 0.5 0 0.8-0.1v1.3c-0.4 0.1-0.9 0.2-1.3 0.2-0.7 0-1.3-0.2-1.7-0.7s-0.6-1.1-0.6-1.9v-6h-1.8v-1.3h1.8v-2.3h1.8z"/>
	<path class="st10" d="m405.4 391.4c0-0.9 0.2-1.8 0.6-2.6s0.9-1.3 1.6-1.8 1.4-0.6 2.3-0.6c1.3 0 2.4 0.5 3.2 1.4s1.2 2.1 1.2 3.6v0.1c0 0.9-0.2 1.8-0.5 2.5-0.4 0.7-0.9 1.3-1.5 1.8-0.7 0.4-1.4 0.6-2.3 0.6-1.3 0-2.4-0.5-3.2-1.4s-1.2-2.1-1.2-3.6zm1.7 0.2c0 1.1 0.3 1.9 0.7 2.6s1.2 1 2 1 1.5-0.3 2-1 0.7-1.6 0.7-2.8c0-1.1-0.3-1.9-0.8-2.6s-1.2-1-2-1-1.5 0.3-2 1-0.6 1.6-0.6 2.8z"/>
	<path class="st10" d="m417.1 396.3v-8.4h-1.5v-1.3h1.5v-1c0-1 0.3-1.8 0.8-2.4s1.3-0.9 2.4-0.9c0.4 0 0.8 0.1 1.1 0.2l-0.1 1.3c-0.3-0.1-0.6-0.1-0.9-0.1-0.5 0-1 0.2-1.2 0.5-0.3 0.3-0.4 0.8-0.4 1.4v1h2.1v1.3h-2.1v8.4h-1.7z"/>
	<path class="st10" d="m428.8 386.7v1.1c0.7-0.8 1.7-1.3 2.9-1.3 1.4 0 2.3 0.5 2.8 1.6 0.3-0.5 0.7-0.8 1.3-1.1 0.5-0.3 1.1-0.4 1.8-0.4 2.1 0 3.2 1.1 3.2 3.4v6.5h-1.7v-6.4c0-0.7-0.2-1.2-0.5-1.6-0.3-0.3-0.8-0.5-1.6-0.5-0.6 0-1.1 0.2-1.5 0.6s-0.6 0.9-0.7 1.5v6.4h-1.7v-6.5c0-1.4-0.7-2.1-2.1-2.1-1.1 0-1.8 0.5-2.2 1.4v7.1h-1.7v-9.7h1.7z"/>
	<path class="st10" d="m449.3 396.3c-0.1-0.2-0.2-0.5-0.2-1-0.8 0.8-1.7 1.2-2.8 1.2-1 0-1.7-0.3-2.3-0.8s-0.9-1.2-0.9-2.1c0-1 0.4-1.8 1.2-2.3 0.8-0.6 1.8-0.8 3.2-0.8h1.6v-0.8c0-0.6-0.2-1-0.5-1.4-0.3-0.3-0.9-0.5-1.5-0.5s-1.1 0.1-1.5 0.4-0.6 0.7-0.6 1.1h-1.7c0-0.5 0.2-1 0.5-1.4 0.3-0.5 0.8-0.8 1.4-1.1s1.2-0.4 1.9-0.4c1.1 0 2 0.3 2.6 0.8 0.6 0.6 1 1.3 1 2.3v4.5c0 0.9 0.1 1.6 0.3 2.1v0.1h-1.7zm-2.8-1.2c0.5 0 1-0.1 1.5-0.4s0.8-0.6 1-1v-2h-1.3c-2 0-3 0.6-3 1.8 0 0.5 0.2 0.9 0.5 1.2 0.3 0.2 0.8 0.4 1.3 0.4z"/>
	<path class="st10" d="m454.8 386.7l0.1 1.2c0.7-0.9 1.7-1.4 2.9-1.4 2 0 3.1 1.2 3.1 3.5v6.4h-1.7v-6.4c0-0.7-0.2-1.2-0.5-1.5s-0.8-0.5-1.5-0.5c-0.5 0-1 0.1-1.4 0.4s-0.7 0.7-0.9 1.1v6.9h-1.7v-9.7h1.6z"/>
	<path class="st10" d="m466.6 393.9l2.3-7.3h1.8l-3.9 11.2c-0.6 1.6-1.6 2.4-2.9 2.4h-0.3l-0.6-0.1v-1.3h0.4c0.6 0 1-0.1 1.3-0.3s0.6-0.6 0.8-1.2l0.4-1-3.5-9.6h1.8l2.4 7.2z"/>
	<path class="st10" d="m479.8 394.1l2.4-7.4h1.7l-3.5 9.7h-1.3l-3.5-9.7h1.7l2.5 7.4z"/>
	<path class="st10" d="m489.4 396.5c-1.3 0-2.4-0.4-3.2-1.3s-1.2-2-1.2-3.5v-0.3c0-1 0.2-1.8 0.6-2.6s0.9-1.3 1.5-1.8c0.7-0.4 1.4-0.6 2.1-0.6 1.3 0 2.2 0.4 2.9 1.2s1 2 1 3.6v0.7h-6.6c0 1 0.3 1.7 0.8 2.3s1.2 0.9 2 0.9c0.6 0 1.1-0.1 1.5-0.4 0.4-0.2 0.8-0.6 1.1-0.9l1 0.8c-0.7 1.3-1.9 1.9-3.5 1.9zm-0.2-8.7c-0.7 0-1.2 0.2-1.7 0.7s-0.7 1.2-0.8 2h4.9v-0.1c0-0.8-0.3-1.5-0.7-2-0.5-0.3-1-0.6-1.7-0.6z"/>
	<path class="st10" d="m499.7 388.1c-0.3 0-0.5-0.1-0.8-0.1-1.1 0-1.8 0.5-2.2 1.4v6.9h-1.7v-9.7h1.6v1.1c0.5-0.9 1.3-1.3 2.3-1.3 0.3 0 0.6 0 0.7 0.1v1.6z"/>
	<path class="st10" d="m506.9 393.8c0-0.4-0.2-0.8-0.5-1s-0.9-0.5-1.8-0.6c-0.8-0.2-1.5-0.4-2-0.6-0.5-0.3-0.9-0.5-1.1-0.9-0.2-0.3-0.4-0.8-0.4-1.2 0-0.8 0.3-1.5 1-2s1.5-0.8 2.6-0.8 2 0.3 2.7 0.9 1 1.3 1 2.2h-1.7c0-0.5-0.2-0.8-0.6-1.2s-0.9-0.5-1.5-0.5-1.1 0.1-1.4 0.4-0.5 0.6-0.5 1 0.2 0.7 0.5 0.9 0.9 0.4 1.7 0.6 1.5 0.4 2 0.7 0.9 0.6 1.1 0.9c0.2 0.4 0.4 0.8 0.4 1.3 0 0.9-0.3 1.6-1 2.1s-1.6 0.8-2.7 0.8c-0.8 0-1.5-0.1-2.1-0.4s-1.1-0.7-1.4-1.1-0.5-1-0.5-1.6h1.7c0 0.6 0.3 1 0.7 1.3s1 0.5 1.6 0.5 1.1-0.1 1.5-0.4c0.5-0.6 0.7-0.9 0.7-1.3z"/>
	<path class="st10" d="m510.7 384.1c0-0.3 0.1-0.5 0.2-0.7 0.2-0.2 0.4-0.3 0.7-0.3s0.6 0.1 0.7 0.3c0.2 0.2 0.3 0.4 0.3 0.7s-0.1 0.5-0.3 0.7-0.4 0.3-0.7 0.3-0.6-0.1-0.7-0.3-0.2-0.5-0.2-0.7zm1.8 12.2h-1.7v-9.7h1.7v9.7z"/>
	<path class="st10" d="m514.7 391.4c0-0.9 0.2-1.8 0.6-2.6s0.9-1.3 1.6-1.8 1.4-0.6 2.3-0.6c1.3 0 2.4 0.5 3.2 1.4s1.2 2.1 1.2 3.6v0.1c0 0.9-0.2 1.8-0.5 2.5-0.4 0.7-0.9 1.3-1.5 1.8-0.7 0.4-1.4 0.6-2.3 0.6-1.3 0-2.4-0.5-3.2-1.4s-1.2-2.1-1.2-3.6zm1.7 0.2c0 1.1 0.3 1.9 0.7 2.6s1.2 1 2 1 1.5-0.3 2-1 0.7-1.6 0.7-2.8c0-1.1-0.3-1.9-0.8-2.6s-1.2-1-2-1-1.5 0.3-2 1-0.6 1.6-0.6 2.8z"/>
	<path class="st10" d="m527.2 386.7l0.1 1.2c0.7-0.9 1.7-1.4 2.9-1.4 2 0 3.1 1.2 3.1 3.5v6.4h-1.7v-6.4c0-0.7-0.2-1.2-0.5-1.5s-0.8-0.5-1.5-0.5c-0.5 0-1 0.1-1.4 0.4s-0.7 0.7-0.9 1.1v6.9h-1.7v-9.7h1.6z"/>
	<path class="st10" d="m541.4 393.8c0-0.4-0.2-0.8-0.5-1s-0.9-0.5-1.8-0.6c-0.8-0.2-1.5-0.4-2-0.6-0.5-0.3-0.9-0.5-1.1-0.9-0.2-0.3-0.4-0.8-0.4-1.2 0-0.8 0.3-1.5 1-2s1.5-0.8 2.6-0.8 2 0.3 2.7 0.9 1 1.3 1 2.2h-1.7c0-0.5-0.2-0.8-0.6-1.2s-0.9-0.5-1.5-0.5-1.1 0.1-1.4 0.4-0.5 0.6-0.5 1 0.2 0.7 0.5 0.9 0.9 0.4 1.7 0.6 1.5 0.4 2 0.7 0.9 0.6 1.1 0.9c0.2 0.4 0.4 0.8 0.4 1.3 0 0.9-0.3 1.6-1 2.1s-1.6 0.8-2.7 0.8c-0.8 0-1.5-0.1-2.1-0.4s-1.1-0.7-1.4-1.1-0.5-1-0.5-1.6h1.7c0 0.6 0.3 1 0.7 1.3s1 0.5 1.6 0.5 1.1-0.1 1.5-0.4c0.5-0.6 0.7-0.9 0.7-1.3z"/>
	<path class="st10" d="m294.2 406.1c0-0.3 0.1-0.5 0.2-0.7 0.2-0.2 0.4-0.3 0.7-0.3s0.6 0.1 0.7 0.3c0.2 0.2 0.3 0.4 0.3 0.7s-0.1 0.5-0.3 0.7-0.4 0.3-0.7 0.3-0.6-0.1-0.7-0.3-0.2-0.5-0.2-0.7zm1.8 12.2h-1.7v-9.7h1.7v9.7z"/>
	<path class="st10" d="m300.2 408.6l0.1 1.2c0.7-0.9 1.7-1.4 2.9-1.4 2 0 3.1 1.2 3.1 3.5v6.4h-1.7v-6.4c0-0.7-0.2-1.2-0.5-1.5s-0.8-0.5-1.5-0.5c-0.5 0-1 0.1-1.4 0.4s-0.7 0.7-0.9 1.1v6.9h-1.7v-9.7h1.6z"/>
	<path class="st10" d="m323.6 418.3h-1.7v-6h-6.6v6h-1.7v-13h1.7v5.6h6.6v-5.6h1.7v13z"/>
	<path class="st10" d="m335.4 406.7h-4.2v11.6h-1.7v-11.6h-4.2v-1.4h10.1v1.4z"/>
	<path class="st10" d="m339.5 405.3l4.3 10.6 4.3-10.6h2.2v13h-1.7v-5.1l0.2-5.5-4.3 10.6h-1.3l-4.3-10.5 0.2 5.4v5.1h-1.7v-13h2.1z"/>
	<path class="st10" d="m355 416.9h6.2v1.4h-7.9v-13h1.7v11.6z"/>
	<path class="st10" d="m362.9 420.9l-0.9-0.6c0.6-0.8 0.9-1.6 0.9-2.4v-1.5h1.6v1.3c0 0.6-0.1 1.2-0.4 1.8s-0.8 1.1-1.2 1.4z"/>
	<path class="st10" d="m380.9 414.2c-0.2 1.4-0.7 2.4-1.5 3.2-0.9 0.7-2 1.1-3.4 1.1-1.5 0-2.8-0.6-3.7-1.7s-1.4-2.6-1.4-4.4v-1.3c0-1.2 0.2-2.3 0.6-3.2s1-1.6 1.8-2.1 1.7-0.7 2.8-0.7c1.4 0 2.5 0.4 3.3 1.2s1.3 1.8 1.5 3.2h-1.7c-0.1-1-0.5-1.8-1-2.3s-1.2-0.7-2.1-0.7c-1.1 0-2 0.4-2.6 1.2s-0.9 2-0.9 3.5v1.3c0 1.4 0.3 2.5 0.9 3.4 0.6 0.8 1.4 1.3 2.5 1.3 1 0 1.7-0.2 2.2-0.6s0.8-1.2 1-2.3h1.7z"/>
	<path class="st10" d="m387.1 412.5c-1.5-0.4-2.5-0.9-3.2-1.6-0.7-0.6-1-1.4-1-2.3 0-1 0.4-1.9 1.2-2.5s1.9-1 3.2-1c0.9 0 1.7 0.2 2.4 0.5s1.2 0.8 1.6 1.4 0.6 1.3 0.6 2h-1.7c0-0.8-0.3-1.4-0.8-1.9s-1.2-0.7-2.1-0.7c-0.8 0-1.5 0.2-2 0.6s-0.7 0.9-0.7 1.6c0 0.5 0.2 1 0.7 1.3 0.5 0.4 1.2 0.7 2.3 1s1.9 0.6 2.5 1 1.1 0.8 1.4 1.3 0.4 1.1 0.4 1.7c0 1.1-0.4 1.9-1.2 2.5s-1.9 1-3.3 1c-0.9 0-1.7-0.2-2.5-0.5s-1.4-0.8-1.8-1.4-0.6-1.3-0.6-2h1.7c0 0.8 0.3 1.4 0.9 1.9s1.4 0.7 2.3 0.7 1.6-0.2 2.1-0.6 0.7-0.9 0.7-1.5-0.2-1.1-0.7-1.5c-0.4-0.3-1.3-0.6-2.4-1z"/>
	<path class="st10" d="m397.9 412.5c-1.5-0.4-2.5-0.9-3.2-1.6-0.7-0.6-1-1.4-1-2.3 0-1 0.4-1.9 1.2-2.5s1.9-1 3.2-1c0.9 0 1.7 0.2 2.4 0.5s1.2 0.8 1.6 1.4 0.6 1.3 0.6 2h-1.7c0-0.8-0.3-1.4-0.8-1.9s-1.2-0.7-2.1-0.7c-0.8 0-1.5 0.2-2 0.6s-0.7 0.9-0.7 1.6c0 0.5 0.2 1 0.7 1.3 0.5 0.4 1.2 0.7 2.3 1s1.9 0.6 2.5 1 1.1 0.8 1.4 1.3 0.4 1.1 0.4 1.7c0 1.1-0.4 1.9-1.2 2.5s-1.9 1-3.3 1c-0.9 0-1.7-0.2-2.5-0.5s-1.4-0.8-1.8-1.4-0.6-1.3-0.6-2h1.7c0 0.8 0.3 1.4 0.9 1.9s1.4 0.7 2.3 0.7 1.6-0.2 2.1-0.6 0.7-0.9 0.7-1.5-0.2-1.1-0.7-1.5c-0.4-0.3-1.2-0.6-2.4-1z"/>
	<path class="st10" d="m415.2 418.3c-0.1-0.2-0.2-0.5-0.2-1-0.8 0.8-1.7 1.2-2.8 1.2-1 0-1.7-0.3-2.3-0.8s-0.9-1.2-0.9-2.1c0-1 0.4-1.8 1.2-2.3 0.8-0.6 1.8-0.8 3.2-0.8h1.6v-0.8c0-0.6-0.2-1-0.5-1.4-0.3-0.3-0.9-0.5-1.5-0.5s-1.1 0.1-1.5 0.4-0.6 0.7-0.6 1.1h-1.7c0-0.5 0.2-1 0.5-1.4 0.3-0.5 0.8-0.8 1.4-1.1s1.2-0.4 1.9-0.4c1.1 0 2 0.3 2.6 0.8 0.6 0.6 1 1.3 1 2.3v4.5c0 0.9 0.1 1.6 0.3 2.1v0.1h-1.7zm-2.7-1.2c0.5 0 1-0.1 1.5-0.4s0.8-0.6 1-1v-2h-1.3c-2 0-3 0.6-3 1.8 0 0.5 0.2 0.9 0.5 1.2 0.3 0.2 0.7 0.4 1.3 0.4z"/>
	<path class="st10" d="m420.8 408.6l0.1 1.2c0.7-0.9 1.7-1.4 2.9-1.4 2 0 3.1 1.2 3.1 3.5v6.4h-1.7v-6.4c0-0.7-0.2-1.2-0.5-1.5s-0.8-0.5-1.5-0.5c-0.5 0-1 0.1-1.4 0.4s-0.7 0.7-0.9 1.1v6.9h-1.7v-9.7h1.6z"/>
	<path class="st10" d="m428.9 413.4c0-1.5 0.4-2.7 1.1-3.6s1.6-1.4 2.8-1.4c1.1 0 2 0.4 2.7 1.2v-5h1.7v13.7h-1.5l-0.1-1c-0.7 0.8-1.6 1.2-2.8 1.2-1.1 0-2-0.5-2.7-1.4s-1.1-2.1-1.1-3.6v-0.1zm1.7 0.2c0 1.1 0.2 2 0.7 2.6s1.1 0.9 1.9 0.9c1 0 1.8-0.5 2.3-1.4v-4.4c-0.5-0.9-1.3-1.4-2.3-1.4-0.8 0-1.4 0.3-1.9 0.9s-0.7 1.6-0.7 2.8z"/>
	<path class="st10" d="m449.9 405.3h1.7v9.2c0 1.2-0.4 2.2-1.1 2.9s-1.7 1.1-3 1.1-2.3-0.3-3-1-1.1-1.6-1.1-2.8h1.7c0 0.7 0.2 1.3 0.6 1.7s1 0.6 1.8 0.6c0.7 0 1.3-0.2 1.7-0.7 0.4-0.4 0.7-1.1 0.7-1.9v-9.1z"/>
	<path class="st10" d="m460.3 418.3c-0.1-0.2-0.2-0.5-0.2-1-0.8 0.8-1.7 1.2-2.8 1.2-1 0-1.7-0.3-2.3-0.8s-0.9-1.2-0.9-2.1c0-1 0.4-1.8 1.2-2.3 0.8-0.6 1.8-0.8 3.2-0.8h1.6v-0.8c0-0.6-0.2-1-0.5-1.4-0.3-0.3-0.9-0.5-1.5-0.5s-1.1 0.1-1.5 0.4-0.6 0.7-0.6 1.1h-1.7c0-0.5 0.2-1 0.5-1.4 0.3-0.5 0.8-0.8 1.4-1.1s1.2-0.4 1.9-0.4c1.1 0 2 0.3 2.6 0.8 0.6 0.6 1 1.3 1 2.3v4.5c0 0.9 0.1 1.6 0.3 2.1v0.1h-1.7zm-2.7-1.2c0.5 0 1-0.1 1.5-0.4s0.8-0.6 1-1v-2h-1.3c-2 0-3 0.6-3 1.8 0 0.5 0.2 0.9 0.5 1.2 0.3 0.2 0.7 0.4 1.3 0.4z"/>
	<path class="st10" d="m467.4 416.1l2.4-7.4h1.7l-3.5 9.7h-1.3l-3.5-9.7h1.7l2.5 7.4z"/>
	<path class="st10" d="m478.9 418.3c-0.1-0.2-0.2-0.5-0.2-1-0.8 0.8-1.7 1.2-2.8 1.2-1 0-1.7-0.3-2.3-0.8s-0.9-1.2-0.9-2.1c0-1 0.4-1.8 1.2-2.3 0.8-0.6 1.8-0.8 3.2-0.8h1.6v-0.8c0-0.6-0.2-1-0.5-1.4-0.3-0.3-0.9-0.5-1.5-0.5s-1.1 0.1-1.5 0.4-0.6 0.7-0.6 1.1h-1.7c0-0.5 0.2-1 0.5-1.4 0.3-0.5 0.8-0.8 1.4-1.1s1.2-0.4 1.9-0.4c1.1 0 2 0.3 2.6 0.8 0.6 0.6 1 1.3 1 2.3v4.5c0 0.9 0.1 1.6 0.3 2.1v0.1h-1.7zm-2.8-1.2c0.5 0 1-0.1 1.5-0.4s0.8-0.6 1-1v-2h-1.3c-2 0-3 0.6-3 1.8 0 0.5 0.2 0.9 0.5 1.2 0.3 0.2 0.8 0.4 1.3 0.4z"/>
	<path class="st10" d="m487 412.5c-1.5-0.4-2.5-0.9-3.2-1.6-0.7-0.6-1-1.4-1-2.3 0-1 0.4-1.9 1.2-2.5s1.9-1 3.2-1c0.9 0 1.7 0.2 2.4 0.5s1.2 0.8 1.6 1.4 0.6 1.3 0.6 2h-1.7c0-0.8-0.3-1.4-0.8-1.9s-1.2-0.7-2.1-0.7c-0.8 0-1.5 0.2-2 0.6s-0.7 0.9-0.7 1.6c0 0.5 0.2 1 0.7 1.3 0.5 0.4 1.2 0.7 2.3 1s1.9 0.6 2.5 1 1.1 0.8 1.4 1.3 0.4 1.1 0.4 1.7c0 1.1-0.4 1.9-1.2 2.5s-1.9 1-3.3 1c-0.9 0-1.7-0.2-2.5-0.5s-1.4-0.8-1.8-1.4-0.6-1.3-0.6-2h1.7c0 0.8 0.3 1.4 0.9 1.9s1.4 0.7 2.3 0.7 1.6-0.2 2.1-0.6 0.7-0.9 0.7-1.5-0.2-1.1-0.7-1.5c-0.4-0.3-1.3-0.6-2.4-1z"/>
	<path class="st10" d="m497.6 417.2c0.6 0 1.1-0.2 1.5-0.5 0.4-0.4 0.7-0.8 0.7-1.3h1.6c0 0.6-0.2 1.1-0.6 1.6s-0.8 0.9-1.4 1.2-1.2 0.4-1.9 0.4c-1.3 0-2.4-0.4-3.1-1.3s-1.2-2.1-1.2-3.6v-0.3c0-0.9 0.2-1.8 0.5-2.5s0.8-1.3 1.5-1.7c0.6-0.4 1.4-0.6 2.3-0.6 1.1 0 2 0.3 2.7 1s1.1 1.5 1.2 2.5h-1.6c0-0.6-0.3-1.1-0.7-1.5s-1-0.6-1.6-0.6c-0.8 0-1.5 0.3-2 0.9s-0.7 1.5-0.7 2.6v0.3c0 1.1 0.2 2 0.7 2.6 0.6 0.5 1.3 0.8 2.1 0.8z"/>
	<path class="st10" d="m508 410.1c-0.3 0-0.5-0.1-0.8-0.1-1.1 0-1.8 0.5-2.2 1.4v6.9h-1.7v-9.7h1.6v1.1c0.5-0.9 1.3-1.3 2.3-1.3 0.3 0 0.6 0 0.7 0.1v1.6z"/>
	<path class="st10" d="m509.6 406.1c0-0.3 0.1-0.5 0.2-0.7 0.2-0.2 0.4-0.3 0.7-0.3s0.6 0.1 0.7 0.3c0.2 0.2 0.3 0.4 0.3 0.7s-0.1 0.5-0.3 0.7-0.4 0.3-0.7 0.3-0.6-0.1-0.7-0.3c-0.2-0.2-0.2-0.5-0.2-0.7zm1.7 12.2h-1.7v-9.7h1.7v9.7z"/>
	<path class="st10" d="m522.2 413.6c0 1.5-0.3 2.7-1 3.6s-1.6 1.4-2.7 1.4c-1.2 0-2.1-0.4-2.8-1.1v4.7h-1.7v-13.4h1.5l0.1 1.1c0.7-0.8 1.6-1.3 2.8-1.3s2.1 0.4 2.8 1.3 1 2.1 1 3.7zm-1.7-0.2c0-1.1-0.2-2-0.7-2.6s-1.1-0.9-1.9-0.9c-1 0-1.8 0.4-2.3 1.3v4.6c0.5 0.9 1.3 1.3 2.3 1.3 0.8 0 1.4-0.3 1.9-0.9s0.7-1.6 0.7-2.8z"/>
	<path class="st10" d="m526.5 406.3v2.3h1.8v1.3h-1.8v6c0 0.4 0.1 0.7 0.2 0.9 0.2 0.2 0.4 0.3 0.8 0.3 0.2 0 0.5 0 0.8-0.1v1.3c-0.4 0.1-0.9 0.2-1.3 0.2-0.7 0-1.3-0.2-1.7-0.7s-0.6-1.1-0.6-1.9v-6h-1.8v-1.3h1.8v-2.3h1.8z"/>
	<path class="st10" d="m299.2 454.4h-3.1v5.3h-1.7v-13h4.3c1.5 0 2.6 0.3 3.4 1s1.2 1.6 1.2 2.9c0 0.8-0.2 1.5-0.7 2.1-0.4 0.6-1 1.1-1.8 1.4l3.1 5.5v0.1h-1.8l-2.9-5.3zm-3-1.4h2.6c0.9 0 1.5-0.2 2-0.7 0.5-0.4 0.8-1 0.8-1.8s-0.2-1.4-0.7-1.9c-0.5-0.4-1.2-0.6-2.1-0.7h-2.6v5.1z"/>
	<path class="st10" d="m309.5 459.8c-1.3 0-2.4-0.4-3.2-1.3s-1.2-2-1.2-3.5v-0.3c0-1 0.2-1.8 0.6-2.6s0.9-1.3 1.5-1.8 1.4-0.6 2.1-0.6c1.3 0 2.2 0.4 2.9 1.2s1 2 1 3.6v0.7h-6.6c0 1 0.3 1.7 0.8 2.3s1.2 0.9 2 0.9c0.6 0 1.1-0.1 1.5-0.4 0.4-0.2 0.8-0.6 1.1-0.9l1 0.8c-0.7 1.3-1.9 1.9-3.5 1.9zm-0.2-8.6c-0.7 0-1.2 0.2-1.7 0.7s-0.7 1.2-0.8 2h4.9v-0.1c0-0.8-0.3-1.5-0.7-2-0.5-0.4-1-0.6-1.7-0.6z"/>
	<path class="st10" d="m316 459.7v-8.4h-1.5v-1.3h1.5v-1c0-1 0.3-1.8 0.8-2.4 0.6-0.6 1.3-0.9 2.4-0.9 0.4 0 0.8 0.1 1.1 0.2l-0.1 1.3c-0.3-0.1-0.6-0.1-0.9-0.1-0.5 0-1 0.2-1.2 0.5-0.3 0.3-0.4 0.8-0.4 1.4v1h2.1v1.3h-2.1v8.4h-1.7z"/>
	<path class="st10" d="m321.6 447.4c0-0.3 0.1-0.5 0.2-0.7 0.2-0.2 0.4-0.3 0.7-0.3s0.6 0.1 0.7 0.3c0.2 0.2 0.3 0.4 0.3 0.7s-0.1 0.5-0.3 0.7-0.4 0.3-0.7 0.3-0.6-0.1-0.7-0.3-0.2-0.4-0.2-0.7zm1.8 12.3h-1.7v-9.7h1.7v9.7z"/>
	<path class="st10" d="m327.6 450l0.1 1.2c0.7-0.9 1.7-1.4 2.9-1.4 2 0 3.1 1.2 3.1 3.5v6.4h-1.7v-6.4c0-0.7-0.2-1.2-0.5-1.5s-0.8-0.5-1.5-0.5c-0.5 0-1 0.1-1.4 0.4s-0.7 0.7-0.9 1.1v6.9h-1.7v-9.7h1.6z"/>
	<path class="st10" d="m340.1 459.8c-1.3 0-2.4-0.4-3.2-1.3s-1.2-2-1.2-3.5v-0.3c0-1 0.2-1.8 0.6-2.6s0.9-1.3 1.5-1.8 1.4-0.6 2.1-0.6c1.3 0 2.2 0.4 2.9 1.2s1 2 1 3.6v0.7h-6.6c0 1 0.3 1.7 0.8 2.3s1.2 0.9 2 0.9c0.6 0 1.1-0.1 1.5-0.4 0.4-0.2 0.8-0.6 1.1-0.9l1 0.8c-0.6 1.3-1.8 1.9-3.5 1.9zm-0.2-8.6c-0.7 0-1.2 0.2-1.7 0.7s-0.7 1.2-0.8 2h4.9v-0.1c0-0.8-0.3-1.5-0.7-2-0.4-0.4-1-0.6-1.7-0.6z"/>
	<path class="st10" d="m347.4 450v1.1c0.7-0.8 1.7-1.3 2.9-1.3 1.4 0 2.3 0.5 2.8 1.6 0.3-0.5 0.7-0.8 1.3-1.1 0.5-0.3 1.1-0.4 1.8-0.4 2.1 0 3.2 1.1 3.2 3.4v6.5h-1.7v-6.4c0-0.7-0.2-1.2-0.5-1.6-0.3-0.3-0.8-0.5-1.6-0.5-0.6 0-1.1 0.2-1.5 0.5-0.4 0.4-0.6 0.9-0.7 1.5v6.4h-1.7v-6.3c0-1.4-0.7-2.1-2.1-2.1-1.1 0-1.8 0.5-2.2 1.4v7.1h-1.7v-9.8h1.7z"/>
	<path class="st10" d="m365.9 459.8c-1.3 0-2.4-0.4-3.2-1.3s-1.2-2-1.2-3.5v-0.3c0-1 0.2-1.8 0.6-2.6s0.9-1.3 1.5-1.8 1.4-0.6 2.1-0.6c1.3 0 2.2 0.4 2.9 1.2s1 2 1 3.6v0.7h-6.6c0 1 0.3 1.7 0.8 2.3s1.2 0.9 2 0.9c0.6 0 1.1-0.1 1.5-0.4 0.4-0.2 0.8-0.6 1.1-0.9l1 0.8c-0.6 1.3-1.9 1.9-3.5 1.9zm-0.2-8.6c-0.7 0-1.2 0.2-1.7 0.7s-0.7 1.2-0.8 2h4.9v-0.1c0-0.8-0.3-1.5-0.7-2-0.5-0.4-1-0.6-1.7-0.6z"/>
	<path class="st10" d="m373.2 450l0.1 1.2c0.7-0.9 1.7-1.4 2.9-1.4 2 0 3.1 1.2 3.1 3.5v6.4h-1.7v-6.4c0-0.7-0.2-1.2-0.5-1.5s-0.8-0.5-1.5-0.5c-0.5 0-1 0.1-1.4 0.4s-0.7 0.7-0.9 1.1v6.9h-1.7v-9.7h1.6z"/>
	<path class="st10" d="m384 447.6v2.3h1.8v1.3h-1.8v6c0 0.4 0.1 0.7 0.2 0.9s0.4 0.3 0.8 0.3c0.2 0 0.5 0 0.8-0.1v1.3c-0.4 0.1-0.9 0.2-1.3 0.2-0.7 0-1.3-0.2-1.7-0.7s-0.6-1.1-0.6-1.9v-6h-1.8v-1.2h1.8v-2.3h1.8z"/>
	<path class="st10" d="m391.8 454.7c0-0.9 0.2-1.8 0.6-2.6s0.9-1.3 1.6-1.8c0.7-0.4 1.4-0.6 2.3-0.6 1.3 0 2.4 0.5 3.2 1.4s1.2 2.1 1.2 3.6v0.1c0 0.9-0.2 1.8-0.5 2.5-0.4 0.7-0.9 1.3-1.5 1.8-0.7 0.4-1.4 0.6-2.3 0.6-1.3 0-2.4-0.5-3.2-1.4s-1.2-2.1-1.2-3.6zm1.7 0.2c0 1.1 0.3 1.9 0.7 2.6s1.2 1 2 1 1.5-0.3 2-1 0.7-1.6 0.7-2.8c0-1.1-0.3-1.9-0.8-2.6s-1.2-1-2-1-1.5 0.3-2 1-0.6 1.6-0.6 2.8z"/>
	<path class="st10" d="m403.5 459.7v-8.4h-1.5v-1.3h1.5v-1c0-1 0.3-1.8 0.8-2.4 0.6-0.6 1.3-0.9 2.4-0.9 0.4 0 0.8 0.1 1.1 0.2l-0.1 1.3c-0.3-0.1-0.6-0.1-0.9-0.1-0.5 0-1 0.2-1.2 0.5-0.3 0.3-0.4 0.8-0.4 1.4v1h2.1v1.3h-2.1v8.4h-1.7z"/>
	<path class="st10" d="m415.8 447.6v2.3h1.8v1.3h-1.8v6c0 0.4 0.1 0.7 0.2 0.9s0.4 0.3 0.8 0.3c0.2 0 0.5 0 0.8-0.1v1.3c-0.4 0.1-0.9 0.2-1.3 0.2-0.7 0-1.3-0.2-1.7-0.7s-0.6-1.1-0.6-1.9v-6h-1.8v-1.2h1.8v-2.3h1.8z"/>
	<path class="st10" d="m421.2 451.2c0.7-0.9 1.7-1.4 2.9-1.4 2 0 3.1 1.2 3.1 3.5v6.4h-1.7v-6.4c0-0.7-0.2-1.2-0.5-1.5s-0.8-0.5-1.5-0.5c-0.5 0-1 0.1-1.4 0.4s-0.7 0.7-0.9 1.1v6.9h-1.7v-13.7h1.7v5.2z"/>
	<path class="st10" d="m433.7 459.8c-1.3 0-2.4-0.4-3.2-1.3s-1.2-2-1.2-3.5v-0.3c0-1 0.2-1.8 0.6-2.6s0.9-1.3 1.5-1.8 1.4-0.6 2.1-0.6c1.3 0 2.2 0.4 2.9 1.2s1 2 1 3.6v0.7h-6.6c0 1 0.3 1.7 0.8 2.3s1.2 0.9 2 0.9c0.6 0 1.1-0.1 1.5-0.4 0.4-0.2 0.8-0.6 1.1-0.9l1 0.8c-0.7 1.3-1.9 1.9-3.5 1.9zm-0.2-8.6c-0.7 0-1.2 0.2-1.7 0.7s-0.7 1.2-0.8 2h4.9v-0.1c0-0.8-0.3-1.5-0.7-2-0.5-0.4-1-0.6-1.7-0.6z"/>
	<path class="st10" d="m452.1 454.9c0 1.5-0.3 2.7-1 3.6s-1.6 1.4-2.7 1.4c-1.2 0-2.1-0.4-2.8-1.1v4.7h-1.7v-13.5h1.5l0.1 1.1c0.7-0.8 1.6-1.3 2.8-1.3s2.1 0.4 2.8 1.3 1 2.1 1 3.7v0.1zm-1.6-0.2c0-1.1-0.2-2-0.7-2.6s-1.1-0.9-1.9-0.9c-1 0-1.8 0.4-2.3 1.3v4.6c0.5 0.9 1.3 1.3 2.3 1.3 0.8 0 1.4-0.3 1.9-0.9 0.4-0.6 0.7-1.5 0.7-2.8z"/>
	<path class="st10" d="m458.9 451.5c-0.3 0-0.5-0.1-0.8-0.1-1.1 0-1.8 0.5-2.2 1.4v6.9h-1.7v-9.7h1.6v1.1c0.5-0.9 1.3-1.3 2.3-1.3 0.3 0 0.6 0 0.7 0.1v1.6z"/>
	<path class="st10" d="m459.8 454.7c0-0.9 0.2-1.8 0.6-2.6s0.9-1.3 1.6-1.8c0.7-0.4 1.4-0.6 2.3-0.6 1.3 0 2.4 0.5 3.2 1.4s1.2 2.1 1.2 3.6v0.1c0 0.9-0.2 1.8-0.5 2.5-0.4 0.7-0.9 1.3-1.5 1.8-0.7 0.4-1.4 0.6-2.3 0.6-1.3 0-2.4-0.5-3.2-1.4s-1.2-2.1-1.2-3.6zm1.7 0.2c0 1.1 0.3 1.9 0.7 2.6s1.2 1 2 1 1.5-0.3 2-1 0.7-1.6 0.7-2.8c0-1.1-0.3-1.9-0.8-2.6s-1.2-1-2-1-1.5 0.3-2 1-0.6 1.6-0.6 2.8z"/>
	<path class="st10" d="m472.4 450v10.8c0 1.9-0.8 2.8-2.5 2.8-0.4 0-0.7-0.1-1-0.2v-1.3c0.2 0 0.4 0.1 0.8 0.1s0.7-0.1 0.8-0.3c0.2-0.2 0.3-0.5 0.3-1v-10.9h1.6zm-1.8-2.6c0-0.3 0.1-0.5 0.2-0.7s0.4-0.3 0.7-0.3 0.6 0.1 0.7 0.3c0.2 0.2 0.3 0.4 0.3 0.7s-0.1 0.5-0.3 0.7-0.4 0.3-0.7 0.3-0.6-0.1-0.7-0.3-0.2-0.4-0.2-0.7z"/>
	<path class="st10" d="m479.1 459.8c-1.3 0-2.4-0.4-3.2-1.3s-1.2-2-1.2-3.5v-0.3c0-1 0.2-1.8 0.6-2.6s0.9-1.3 1.5-1.8 1.4-0.6 2.1-0.6c1.3 0 2.2 0.4 2.9 1.2s1 2 1 3.6v0.7h-6.6c0 1 0.3 1.7 0.8 2.3s1.2 0.9 2 0.9c0.6 0 1.1-0.1 1.5-0.4 0.4-0.2 0.8-0.6 1.1-0.9l1 0.8c-0.7 1.3-1.9 1.9-3.5 1.9zm-0.2-8.6c-0.7 0-1.2 0.2-1.7 0.7s-0.7 1.2-0.8 2h4.9v-0.1c0-0.8-0.3-1.5-0.7-2-0.5-0.4-1-0.6-1.7-0.6z"/>
	<path class="st10" d="m488.7 458.5c0.6 0 1.1-0.2 1.5-0.5 0.4-0.4 0.7-0.8 0.7-1.3h1.6c0 0.6-0.2 1.1-0.6 1.6s-0.8 0.9-1.4 1.2-1.2 0.4-1.9 0.4c-1.3 0-2.4-0.4-3.1-1.3-0.8-0.9-1.2-2.1-1.2-3.6v-0.3c0-0.9 0.2-1.8 0.5-2.5s0.8-1.3 1.5-1.7c0.6-0.4 1.4-0.6 2.3-0.6 1.1 0 2 0.3 2.7 1s1.1 1.5 1.2 2.5h-1.6c0-0.6-0.3-1.1-0.7-1.5s-1-0.6-1.6-0.6c-0.8 0-1.5 0.3-2 0.9s-0.7 1.5-0.7 2.6v0.3c0 1.1 0.2 2 0.7 2.6 0.5 0.5 1.2 0.8 2.1 0.8z"/>
	<path class="st10" d="m496.6 447.6v2.3h1.8v1.3h-1.8v6c0 0.4 0.1 0.7 0.2 0.9s0.4 0.3 0.8 0.3c0.2 0 0.5 0 0.8-0.1v1.3c-0.4 0.1-0.9 0.2-1.3 0.2-0.7 0-1.3-0.2-1.7-0.7s-0.6-1.1-0.6-1.9v-6h-1.8v-1.2h1.8v-2.3h1.8z"/>
	<path class="st10" d="m303.3 730.9c-0.1-0.4-0.2-1-0.3-1.9-0.5 0.7-1.2 1.2-2 1.6s-1.7 0.6-2.6 0.6c-1.3 0-2.3-0.4-3.1-1.1s-1.2-1.6-1.2-2.7c0-1.3 0.5-2.3 1.6-3.1s2.6-1.1 4.5-1.1h2.7v-1.5c0-1-0.3-1.7-0.9-2.3s-1.4-0.8-2.6-0.8c-1 0-1.9 0.3-2.6 0.8s-1 1.2-1 1.9h-1.5c0-1.1 0.5-2 1.5-2.8s2.2-1.2 3.6-1.2c1.5 0 2.7 0.4 3.5 1.1 0.9 0.7 1.3 1.8 1.3 3.1v6.3c0 1.3 0.1 2.3 0.4 2.9v0.1h-1.3zm-4.6-1.1c1 0 1.9-0.2 2.7-0.7s1.3-1.1 1.7-1.9v-2.9h-2.6c-1.5 0-2.6 0.3-3.5 0.8-0.8 0.5-1.2 1.2-1.2 2.2 0 0.8 0.3 1.4 0.8 1.9 0.5 0.3 1.2 0.6 2.1 0.6z"/>
	<path class="st10" d="m309.9 717.5v2.3c0.5-0.8 1.1-1.5 1.9-1.9s1.6-0.6 2.5-0.6c1.4 0 2.5 0.4 3.2 1.2s1.1 2 1.1 3.6v8.8h-1.5v-8.8c0-1.2-0.3-2.1-0.8-2.7s-1.3-0.9-2.4-0.9c-0.9 0-1.7 0.3-2.4 0.9s-1.2 1.3-1.6 2.3v9.2h-1.5v-13.4h1.5z"/>
	<path class="st10" d="m321.8 724c0-2.1 0.5-3.7 1.4-5s2.2-1.8 3.8-1.8c1.8 0 3.2 0.7 4.1 2.1v-7.5h1.5v19h-1.4l-0.1-1.8c-0.9 1.4-2.3 2-4.2 2-1.5 0-2.8-0.6-3.7-1.9-0.9-1.2-1.4-2.9-1.4-5v-0.1zm1.5 0.3c0 1.7 0.3 3.1 1 4s1.6 1.5 2.9 1.5c1.8 0 3.1-0.8 3.9-2.4v-6.3c-0.8-1.7-2.1-2.6-3.9-2.6-1.2 0-2.2 0.5-2.9 1.5s-1 2.4-1 4.3z"/>
	<path class="st10" d="m344.9 714v3.4h2.8v1.2h-2.8v8.9c0 0.7 0.1 1.3 0.4 1.7s0.7 0.5 1.3 0.5c0.2 0 0.6 0 1.2-0.1l0.1 1.2c-0.4 0.1-0.9 0.2-1.6 0.2-1 0-1.8-0.3-2.2-0.9s-0.7-1.5-0.7-2.6v-8.9h-2.4v-1.2h2.5v-3.4h1.4z"/>
	<path class="st10" d="m352.2 719.7c0.5-0.8 1.1-1.4 1.9-1.9 0.8-0.4 1.6-0.7 2.5-0.7 1.4 0 2.5 0.4 3.2 1.2s1.1 2 1.1 3.6v8.8h-1.5v-8.8c0-1.2-0.3-2.1-0.8-2.7s-1.3-0.9-2.4-0.9c-0.9 0-1.7 0.3-2.4 0.9s-1.2 1.3-1.6 2.3v9.2h-1.5v-19h1.5v8z"/>
	<path class="st10" d="m373.1 730.9c-0.1-0.4-0.2-1-0.3-1.9-0.5 0.7-1.2 1.2-2 1.6s-1.7 0.6-2.6 0.6c-1.3 0-2.3-0.4-3.1-1.1s-1.2-1.6-1.2-2.7c0-1.3 0.5-2.3 1.6-3.1s2.6-1.1 4.5-1.1h2.7v-1.5c0-1-0.3-1.7-0.9-2.3s-1.4-0.8-2.6-0.8c-1 0-1.9 0.3-2.6 0.8s-1 1.2-1 1.9h-1.5c0-1.1 0.5-2 1.5-2.8s2.2-1.2 3.6-1.2c1.5 0 2.7 0.4 3.5 1.1 0.9 0.7 1.3 1.8 1.3 3.1v6.3c0 1.3 0.1 2.3 0.4 2.9v0.1h-1.3zm-4.7-1.1c1 0 1.9-0.2 2.7-0.7s1.3-1.1 1.7-1.9v-2.9h-2.6c-1.5 0-2.6 0.3-3.5 0.8-0.8 0.5-1.2 1.2-1.2 2.2 0 0.8 0.3 1.4 0.8 1.9 0.5 0.3 1.2 0.6 2.1 0.6z"/>
	<path class="st10" d="m380.5 714v3.4h2.8v1.2h-2.8v8.9c0 0.7 0.1 1.3 0.4 1.7s0.7 0.5 1.3 0.5c0.2 0 0.6 0 1.2-0.1l0.1 1.2c-0.4 0.1-0.9 0.2-1.6 0.2-1 0-1.8-0.3-2.2-0.9s-0.7-1.5-0.7-2.6v-8.9h-2.5v-1.2h2.5v-3.4h1.5z"/>
	<path class="st10" d="m386.1 717.3l-0.9-0.6c0.7-1 1.1-2 1.2-3.1v-1.6h1.5v1.2c-0.1 1.6-0.7 3-1.8 4.1z"/>
	<path class="st10" d="m397.5 727.5c0-0.7-0.3-1.3-0.9-1.8-0.6-0.4-1.5-0.8-2.7-1-1.2-0.3-2.1-0.5-2.8-0.9-0.7-0.3-1.1-0.7-1.5-1.2-0.3-0.5-0.5-1-0.5-1.7 0-1.1 0.4-1.9 1.3-2.6s2-1 3.4-1c1.5 0 2.7 0.4 3.6 1.1s1.4 1.7 1.4 2.9h-1.5c0-0.8-0.3-1.4-1-2-0.7-0.5-1.5-0.8-2.5-0.8s-1.8 0.2-2.3 0.6c-0.6 0.4-0.9 1-0.9 1.7s0.2 1.2 0.7 1.6 1.4 0.7 2.7 1 2.3 0.6 2.9 1c0.6 0.3 1.1 0.8 1.4 1.2s0.5 1.1 0.5 1.8c0 1.1-0.5 2-1.4 2.7s-2.1 1-3.6 1c-1.6 0-2.8-0.4-3.8-1.1-1-0.8-1.5-1.7-1.5-2.9h1.5c0.1 0.9 0.4 1.5 1.1 2s1.6 0.7 2.7 0.7c1 0 1.9-0.2 2.5-0.7 0.9-0.4 1.2-0.9 1.2-1.6z"/>
	<path class="st10" d="m411.7 727.8l0.2 1.2 0.3-1.2 3.2-10.2h1.3l3.2 10.2 0.3 1.4 0.3-1.3 2.7-10.3h1.5l-3.9 13.4h-1.3l-3.4-10.6-0.2-0.7-0.2 0.7-3.4 10.6h-1.3l-3.9-13.4h1.5l3.1 10.2z"/>
	<path class="st10" d="m429 719.7c0.5-0.8 1.1-1.4 1.9-1.9 0.8-0.4 1.6-0.7 2.5-0.7 1.4 0 2.5 0.4 3.2 1.2s1.1 2 1.1 3.6v8.8h-1.5v-8.8c0-1.2-0.3-2.1-0.8-2.7s-1.3-0.9-2.4-0.9c-0.9 0-1.7 0.3-2.4 0.9s-1.2 1.3-1.6 2.3v9.2h-1.5v-19h1.5v8z"/>
	<path class="st10" d="m446.6 731.1c-1.1 0-2.2-0.3-3.1-0.8-0.9-0.6-1.6-1.3-2.1-2.3s-0.8-2.1-0.8-3.4v-0.6c0-1.3 0.2-2.4 0.7-3.5 0.5-1 1.2-1.8 2.1-2.4s1.9-0.9 2.9-0.9c1.6 0 2.9 0.6 3.9 1.7s1.4 2.6 1.4 4.5v0.8h-9.5v0.3c0 1.5 0.4 2.8 1.3 3.8s2 1.5 3.3 1.5c0.8 0 1.5-0.1 2.1-0.4s1.2-0.8 1.7-1.4l0.9 0.7c-1.1 1.6-2.7 2.4-4.8 2.4zm-0.2-12.6c-1.1 0-2.1 0.4-2.8 1.2s-1.2 1.9-1.4 3.3h8v-0.2c0-1.3-0.4-2.3-1.1-3.1s-1.6-1.2-2.7-1.2z"/>
	<path class="st10" d="m460.7 718.7c-0.3-0.1-0.6-0.1-1-0.1-0.9 0-1.7 0.3-2.3 0.8s-1.1 1.3-1.4 2.2v9.2h-1.5v-13.4h1.4v2.1c0.8-1.6 2-2.4 3.8-2.4 0.4 0 0.7 0.1 1 0.2v1.4z"/>
	<path class="st10" d="m468 731.1c-1.1 0-2.2-0.3-3.1-0.8-0.9-0.6-1.6-1.3-2.1-2.3s-0.8-2.1-0.8-3.4v-0.6c0-1.3 0.2-2.4 0.7-3.5 0.5-1 1.2-1.8 2.1-2.4s1.9-0.9 2.9-0.9c1.6 0 2.9 0.6 3.9 1.7s1.4 2.6 1.4 4.5v0.8h-9.5v0.3c0 1.5 0.4 2.8 1.3 3.8s2 1.5 3.3 1.5c0.8 0 1.5-0.1 2.1-0.4s1.2-0.8 1.7-1.4l0.9 0.7c-1.1 1.6-2.7 2.4-4.8 2.4zm-0.3-12.6c-1.1 0-2.1 0.4-2.8 1.2s-1.2 1.9-1.4 3.3h8v-0.2c0-1.3-0.4-2.3-1.1-3.1-0.6-0.8-1.5-1.2-2.7-1.2z"/>
	<path class="st10" d="m486.3 728.7l3.9-11.3h1.6l-5.7 15.7-0.3 0.7c-0.7 1.6-1.9 2.4-3.4 2.4-0.4 0-0.7-0.1-1.1-0.2v-1.2l0.8 0.1c0.7 0 1.3-0.2 1.8-0.5s0.8-1 1.1-1.8l0.7-1.8-5-13.3h1.6l4 11.2z"/>
	<path class="st10" d="m493.1 724c0-1.3 0.2-2.4 0.7-3.5 0.5-1 1.2-1.8 2.1-2.4s1.9-0.9 3.1-0.9c1.8 0 3.2 0.6 4.3 1.9s1.7 2.9 1.7 5v0.3c0 1.3-0.2 2.5-0.7 3.5s-1.2 1.8-2.1 2.4-1.9 0.8-3.1 0.8c-1.8 0-3.2-0.6-4.3-1.9s-1.7-2.9-1.7-5v-0.2zm1.5 0.4c0 1.6 0.4 2.9 1.2 3.9s1.9 1.5 3.3 1.5c1.3 0 2.4-0.5 3.2-1.5s1.2-2.4 1.2-4.1v-0.2c0-1-0.2-2-0.6-2.8s-0.9-1.5-1.6-2-1.5-0.7-2.4-0.7c-1.3 0-2.4 0.5-3.2 1.6s-1.2 2.4-1.2 4.1v0.2z"/>
	<path class="st10" d="m516.7 729.2c-0.9 1.3-2.3 1.9-4.3 1.9-1.4 0-2.5-0.4-3.3-1.2-0.7-0.8-1.1-2.1-1.1-3.7v-8.7h1.5v8.5c0 2.5 1 3.8 3.1 3.8s3.5-0.9 4.1-2.7v-9.7h1.5v13.4h-1.4l-0.1-1.6z"/>
	<path class="st10" d="m299.8 760.3c1 0 1.9-0.3 2.6-0.9s1.1-1.3 1.1-2.3h1.4c0 0.8-0.3 1.6-0.8 2.2s-1.1 1.2-1.9 1.6-1.6 0.6-2.5 0.6c-1.8 0-3.1-0.6-4.2-1.8-1-1.2-1.5-2.9-1.5-4.9v-0.4c0-1.3 0.2-2.5 0.7-3.5s1.1-1.8 2-2.3c0.9-0.6 1.9-0.8 3-0.8 1.5 0 2.7 0.4 3.6 1.3s1.5 2 1.5 3.5h-1.4c-0.1-1-0.4-1.9-1.1-2.5s-1.6-1-2.6-1c-1.3 0-2.4 0.5-3.1 1.4s-1.1 2.3-1.1 4.1v0.4c0 1.7 0.4 3 1.1 4 0.8 0.8 1.9 1.3 3.2 1.3z"/>
	<path class="st10" d="m316.4 761.3c-0.1-0.4-0.2-1-0.3-1.9-0.5 0.7-1.2 1.2-2 1.6s-1.7 0.6-2.6 0.6c-1.3 0-2.3-0.4-3.1-1.1s-1.2-1.6-1.2-2.7c0-1.3 0.5-2.3 1.6-3.1s2.6-1.1 4.5-1.1h2.7v-1.6c0-1-0.3-1.7-0.9-2.3s-1.4-0.8-2.6-0.8c-1 0-1.9 0.3-2.6 0.8s-1 1.2-1 1.9h-1.5c0-1.1 0.5-2 1.5-2.8s2.2-1.2 3.6-1.2c1.5 0 2.7 0.4 3.5 1.1 0.9 0.7 1.3 1.8 1.3 3.1v6.3c0 1.3 0.1 2.3 0.4 2.9v0.1h-1.3zm-4.7-1.1c1 0 1.9-0.2 2.7-0.7s1.3-1.1 1.7-1.9v-2.9h-2.6c-1.5 0-2.6 0.3-3.5 0.8-0.8 0.5-1.2 1.2-1.2 2.2 0 0.8 0.3 1.4 0.8 1.9 0.5 0.3 1.2 0.6 2.1 0.6z"/>
	<path class="st10" d="m322.9 747.9v2.3c0.5-0.8 1.1-1.5 1.9-1.9s1.6-0.6 2.5-0.6c1.4 0 2.5 0.4 3.2 1.2s1.1 2 1.1 3.6v8.8h-1.5v-8.8c0-1.2-0.3-2.1-0.8-2.7s-1.3-0.9-2.4-0.9c-0.9 0-1.7 0.3-2.4 0.9s-1.2 1.3-1.6 2.3v9.2h-1.5v-13.4h1.5z"/>
	<path class="st10" d="m352.3 754.7c0 2.1-0.5 3.7-1.4 5-0.9 1.2-2.2 1.8-3.7 1.8-1.9 0-3.3-0.7-4.2-2.1l-0.1 1.8h-1.4v-19h1.5v7.6c0.9-1.5 2.3-2.2 4.2-2.2 1.6 0 2.8 0.6 3.8 1.8 0.9 1.2 1.4 2.9 1.4 5v0.3zm-1.4-0.3c0-1.8-0.3-3.1-1-4.1s-1.6-1.4-2.9-1.4c-0.9 0-1.8 0.2-2.4 0.7s-1.2 1.1-1.5 2v6c0.7 1.7 2.1 2.5 3.9 2.5 1.2 0 2.2-0.5 2.9-1.4s1-2.3 1-4.3z"/>
	<path class="st10" d="m360.8 761.5c-1.1 0-2.2-0.3-3.1-0.8-0.9-0.6-1.6-1.3-2.1-2.3s-0.8-2.1-0.8-3.4v-0.5c0-1.3 0.2-2.4 0.7-3.5 0.5-1 1.2-1.8 2.1-2.4s1.9-0.9 2.9-0.9c1.6 0 2.9 0.6 3.9 1.7s1.4 2.6 1.4 4.5v0.8h-9.5v0.3c0 1.5 0.4 2.8 1.3 3.8s2 1.5 3.3 1.5c0.8 0 1.5-0.1 2.1-0.4s1.2-0.8 1.7-1.4l0.9 0.7c-1.2 1.5-2.7 2.3-4.8 2.3zm-0.3-12.6c-1.1 0-2.1 0.4-2.8 1.2s-1.2 1.9-1.4 3.3h8v-0.2c0-1.3-0.4-2.3-1.1-3.1-0.6-0.8-1.6-1.2-2.7-1.2z"/>
	<path class="st10" d="m385.6 754.7c0 2.1-0.5 3.7-1.4 5-0.9 1.2-2.2 1.8-3.7 1.8-1.8 0-3.2-0.6-4.2-1.9v6.8h-1.5v-18.5h1.4l0.1 1.9c1-1.4 2.4-2.1 4.2-2.1 1.6 0 2.9 0.6 3.8 1.8s1.4 2.9 1.4 5v0.2zm-1.5-0.3c0-1.7-0.4-3.1-1.1-4-0.7-1-1.7-1.5-2.9-1.5-0.9 0-1.7 0.2-2.3 0.7s-1.2 1.1-1.5 1.9v6.4c0.4 0.8 0.9 1.4 1.5 1.8 0.7 0.4 1.4 0.6 2.3 0.6 1.2 0 2.2-0.5 2.9-1.5 0.8-1 1.1-2.5 1.1-4.4z"/>
	<path class="st10" d="m397.3 761.3c-0.1-0.4-0.2-1-0.3-1.9-0.5 0.7-1.2 1.2-2 1.6s-1.7 0.6-2.6 0.6c-1.3 0-2.3-0.4-3.1-1.1s-1.2-1.6-1.2-2.7c0-1.3 0.5-2.3 1.6-3.1s2.6-1.1 4.5-1.1h2.7v-1.6c0-1-0.3-1.7-0.9-2.3s-1.4-0.8-2.6-0.8c-1 0-1.9 0.3-2.6 0.8s-1 1.2-1 1.9h-1.5c0-1.1 0.5-2 1.5-2.8s2.2-1.2 3.6-1.2c1.5 0 2.7 0.4 3.5 1.1 0.9 0.7 1.3 1.8 1.3 3.1v6.3c0 1.3 0.1 2.3 0.4 2.9v0.1h-1.3zm-4.6-1.1c1 0 1.9-0.2 2.7-0.7s1.3-1.1 1.7-1.9v-2.9h-2.6c-1.5 0-2.6 0.3-3.5 0.8-0.8 0.5-1.2 1.2-1.2 2.2 0 0.8 0.3 1.4 0.8 1.9 0.5 0.3 1.2 0.6 2.1 0.6z"/>
	<path class="st10" d="m408.7 749.1c-0.3-0.1-0.6-0.1-1-0.1-0.9 0-1.7 0.3-2.3 0.8s-1.1 1.3-1.4 2.2v9.2h-1.5v-13.4h1.4v2.1c0.8-1.6 2-2.4 3.8-2.4 0.4 0 0.7 0.1 1 0.2v1.4z"/>
	<path class="st10" d="m413.9 744.4v3.4h2.8v1.2h-2.8v8.9c0 0.7 0.1 1.3 0.4 1.7s0.7 0.5 1.3 0.5c0.2 0 0.6 0 1.2-0.1l0.1 1.2c-0.4 0.1-0.9 0.2-1.6 0.2-1 0-1.8-0.3-2.2-0.9s-0.7-1.5-0.7-2.6v-8.9h-2.4v-1.2h2.5v-3.4h1.4z"/>
	<path class="st10" d="m425.1 754.4c0-1.3 0.2-2.4 0.7-3.5 0.5-1 1.2-1.8 2.1-2.4s1.9-0.9 3.1-0.9c1.8 0 3.2 0.6 4.3 1.9s1.7 2.9 1.7 5v0.3c0 1.3-0.2 2.5-0.7 3.5s-1.2 1.8-2.1 2.4-1.9 0.8-3.1 0.8c-1.8 0-3.2-0.6-4.3-1.9s-1.7-2.9-1.7-5v-0.2zm1.5 0.4c0 1.6 0.4 2.9 1.2 3.9s1.9 1.5 3.3 1.5c1.3 0 2.4-0.5 3.2-1.5s1.2-2.4 1.2-4.1v-0.3c0-1-0.2-2-0.6-2.8s-0.9-1.5-1.6-2-1.5-0.7-2.4-0.7c-1.3 0-2.4 0.5-3.2 1.6s-1.2 2.4-1.2 4.1v0.3z"/>
	<path class="st10" d="m441.2 761.3v-12.2h-2.2v-1.2h2.2v-1.6c0-1.4 0.3-2.4 1-3.2 0.7-0.7 1.7-1.1 2.9-1.1 0.6 0 1.1 0.1 1.6 0.2l-0.1 1.2c-0.4-0.1-0.9-0.1-1.3-0.1-0.8 0-1.5 0.3-1.9 0.8-0.5 0.5-0.7 1.2-0.7 2.2v1.7h3.2v1.2h-3.2v12.2h-1.5z"/>
	<path class="st10" d="m454.6 744c0-0.3 0.1-0.5 0.3-0.7s0.4-0.3 0.7-0.3 0.6 0.1 0.7 0.3 0.3 0.4 0.3 0.7-0.1 0.5-0.3 0.7-0.4 0.3-0.7 0.3-0.6-0.1-0.7-0.3-0.3-0.4-0.3-0.7zm1.7 17.3h-1.5v-13.4h1.5v13.4z"/>
	<path class="st10" d="m462.6 744.4v3.4h2.8v1.2h-2.8v8.9c0 0.7 0.1 1.3 0.4 1.7s0.7 0.5 1.3 0.5c0.2 0 0.6 0 1.2-0.1l0.1 1.2c-0.4 0.1-0.9 0.2-1.6 0.2-1 0-1.8-0.3-2.2-0.9s-0.7-1.5-0.7-2.6v-8.9h-2.5v-1.2h2.5v-3.4h1.5z"/>
	<path class="st10" d="m468.4 760.4c0-0.3 0.1-0.5 0.3-0.7s0.4-0.3 0.7-0.3 0.6 0.1 0.7 0.3c0.2 0.2 0.3 0.4 0.3 0.7s-0.1 0.5-0.3 0.7-0.4 0.3-0.7 0.3-0.6-0.1-0.7-0.3c-0.2-0.2-0.3-0.4-0.3-0.7zm1.6-4.2h-1.4l-0.1-13h1.5v13z"/>
	<linearGradient id="a" x1="213.86" x2="258.14" y1="89.993" y2="45.709" gradientUnits="userSpaceOnUse">
		<stop stop-color="#D57D2F" offset="0"/>
		<stop stop-color="#C52337" offset=".33"/>
		<stop stop-color="#8E5199" offset=".66"/>
		<stop stop-color="#6590CA" offset="1"/>
	</linearGradient>
	<path d="m238.7 34.6l5.5 16.9c0.4 1.2 1.5 2 2.7 2h17.8c2.8 0 4 3.6 1.7 5.2l-14.4 10.5c-1 0.7-1.4 2-1 3.2l5.5 16.9c0.9 2.7-2.2 4.9-4.4 3.2l-14.4-10.5c-1-0.7-2.4-0.7-3.4 0l-14.4 10.5c-2.3 1.6-5.3-0.6-4.4-3.2l5.5-16.9c0.4-1.2 0-2.5-1-3.2l-14.4-10.5c-2.3-1.6-1.1-5.2 1.7-5.2h17.7c1.3 0 2.4-0.8 2.7-2l5.5-16.9c0.9-2.6 4.7-2.6 5.5 0z" fill="url(#a)"/>
</svg>
