<?xml version="1.0" encoding="utf-8"?>
<!-- Generator: Adobe Illustrator 22.1.0, SVG Export Plug-In . SVG Version: 6.00 Build 0)  -->
<svg version="1.1" id="Camada_1" xmlns="http://www.w3.org/2000/svg" xmlns:xlink="http://www.w3.org/1999/xlink" x="0px" y="0px"
	 viewBox="0 0 618 754.7" style="enable-background:new 0 0 618 754.7;" xml:space="preserve">
<style type="text/css">
	.st0{fill:none;stroke:#C2C3C9;stroke-width:4;stroke-linecap:round;stroke-miterlimit:10;stroke-dasharray:0,9;}
	.st1{fill:#F8F8FF;}
	.st2{fill:url(#SVGID_1_);}
	.st3{fill:none;stroke:url(#SVGID_2_);stroke-width:10;stroke-linecap:round;stroke-miterlimit:10;}
	.st4{fill:none;stroke:url(#SVGID_3_);stroke-width:10;stroke-linecap:round;stroke-miterlimit:10;}
	.st5{opacity:0.24;fill:none;stroke:#FFFFFF;stroke-width:10;stroke-linecap:round;stroke-miterlimit:10;stroke-dasharray:10,25;}
	.st6{fill:url(#SVGID_4_);}
	.st7{fill:url(#SVGID_5_);}
	.st8{fill:none;stroke:url(#SVGID_6_);stroke-width:10;stroke-miterlimit:10;}
	.st9{fill:none;stroke:url(#SVGID_7_);stroke-width:10;stroke-miterlimit:10;}
	.st10{fill:url(#SVGID_8_);}
	.st11{fill:#222222;}
	.st12{fill:url(#SVGID_9_);}
	.st13{fill:#FFFFFF;}
</style>
<line class="st0" x1="236" y1="372.2" x2="315.3" y2="372.2"/>
<line class="st0" x1="236" y1="195.9" x2="315.3" y2="195.9"/>
<line class="st0" x1="236" y1="140.7" x2="315.3" y2="140.7"/>
<line class="st0" x1="236" y1="445.3" x2="315.3" y2="445.3"/>
<g>
	<path class="st1" d="M553.6,576.7H236c0,0,22.7-7.7,22.7-27.3c0-19.7-22.7-27.3-22.7-27.3h317.6c15.1,0,27.3,12.2,27.3,27.3v0
		C580.9,564.4,568.7,576.7,553.6,576.7z"/>
	<path class="st1" d="M553.6,333.4H236c0,0,22.7-7.7,22.7-27.3S236,278.8,236,278.8h317.6c15.1,0,27.3,12.2,27.3,27.3v0
		C580.9,321.2,568.7,333.4,553.6,333.4z"/>
</g>
<path class="st1" d="M550.7,93.2H253.3L236,32.6h314.7c16.7,0,30.3,13.5,30.3,30.3v0C580.9,79.6,567.4,93.2,550.7,93.2z"/>
<linearGradient id="SVGID_1_" gradientUnits="userSpaceOnUse" x1="177.3422" y1="254.5085" x2="294.6578" y2="137.1929">
	<stop  offset="0" style="stop-color:#D57D2F"/>
	<stop  offset="0.33" style="stop-color:#C52337"/>
	<stop  offset="0.66" style="stop-color:#8E5199"/>
	<stop  offset="1" style="stop-color:#6590CA"/>
</linearGradient>
<line style="fill:none;stroke:url(#SVGID_1_);stroke-width:10;stroke-linecap:round;stroke-miterlimit:10;" x1="236" y1="85.6" x2="236" y2="306.1"/>
<linearGradient id="SVGID_2_" gradientUnits="userSpaceOnUse" x1="177.3422" y1="497.6971" x2="294.6578" y2="380.3815">
	<stop  offset="0" style="stop-color:#D57D2F"/>
	<stop  offset="0.33" style="stop-color:#C52337"/>
	<stop  offset="0.66" style="stop-color:#8E5199"/>
	<stop  offset="1" style="stop-color:#6590CA"/>
</linearGradient>
<line class="st3" x1="236" y1="328.8" x2="236" y2="549.3"/>
<line class="st5" x1="236" y1="328.8" x2="236" y2="549.3"/>
<line class="st5" x1="236" y1="85.6" x2="236" y2="306.1"/>
<g>
	<linearGradient id="SVGID_3_" gradientUnits="userSpaceOnUse" x1="115.5263" y1="692.4553" x2="239.5374" y2="568.4442">
		<stop  offset="0" style="stop-color:#D57D2F"/>
		<stop  offset="0.33" style="stop-color:#C52337"/>
		<stop  offset="0.66" style="stop-color:#8E5199"/>
		<stop  offset="1" style="stop-color:#6590CA"/>
	</linearGradient>
	<path style="fill:url(#SVGID_3_);" d="M236,577c-0.3,0-0.7,0-1-0.1c-0.3-0.1-0.6-0.2-0.9-0.3c-0.3-0.1-0.6-0.3-0.9-0.5
		c-0.3-0.2-0.5-0.4-0.8-0.6c-0.2-0.2-0.4-0.5-0.6-0.8c-0.2-0.3-0.3-0.6-0.5-0.9c-0.1-0.3-0.2-0.6-0.3-0.9c-0.1-0.3-0.1-0.7-0.1-1
		c0-0.3,0-0.6,0.1-1c0.1-0.3,0.2-0.6,0.3-0.9c0.1-0.3,0.3-0.6,0.5-0.9c0.2-0.3,0.4-0.5,0.6-0.8c0.2-0.2,0.5-0.4,0.8-0.6
		c0.3-0.2,0.6-0.3,0.9-0.5c0.3-0.1,0.6-0.2,0.9-0.3c1.6-0.3,3.4,0.2,4.5,1.4c0.2,0.2,0.4,0.5,0.6,0.8c0.2,0.3,0.3,0.6,0.5,0.9
		c0.1,0.3,0.2,0.6,0.3,0.9c0.1,0.3,0.1,0.7,0.1,1c0,0.3,0,0.7-0.1,1c-0.1,0.3-0.2,0.6-0.3,0.9c-0.1,0.3-0.3,0.6-0.5,0.9
		c-0.2,0.3-0.4,0.5-0.6,0.8C238.6,576.4,237.3,577,236,577z"/>
</g>
<linearGradient id="SVGID_4_" gradientUnits="userSpaceOnUse" x1="200.3289" y1="685.5707" x2="274.5886" y2="611.311">
	<stop  offset="0" style="stop-color:#D57D2F"/>
	<stop  offset="0.33" style="stop-color:#C52337"/>
	<stop  offset="0.66" style="stop-color:#8E5199"/>
	<stop  offset="1" style="stop-color:#6590CA"/>
</linearGradient>
<path class="st6" d="M231,708.3c0-2.8,2.2-5,5-5l0,0c2.8,0,5,2.2,5,5l0,0c0,2.8-2.2,5-5,5l0,0C233.2,713.3,231,711.1,231,708.3z
	 M231,688.9c0-2.8,2.2-5,5-5l0,0c2.8,0,5,2.2,5,5l0,0c0,2.8-2.2,5-5,5l0,0C233.2,693.9,231,691.6,231,688.9z M231,669.4
	c0-2.8,2.2-5,5-5l0,0c2.8,0,5,2.2,5,5l0,0c0,2.8-2.2,5-5,5l0,0C233.2,674.4,231,672.1,231,669.4z M231,649.9c0-2.8,2.2-5,5-5l0,0
	c2.8,0,5,2.2,5,5l0,0c0,2.8-2.2,5-5,5l0,0C233.2,654.9,231,652.7,231,649.9z M231,630.4c0-2.8,2.2-5,5-5l0,0c2.8,0,5,2.2,5,5l0,0
	c0,2.8-2.2,5-5,5l0,0C233.2,635.4,231,633.2,231,630.4z M231,610.9c0-2.8,2.2-5,5-5l0,0c2.8,0,5,2.2,5,5l0,0c0,2.8-2.2,5-5,5l0,0
	C233.2,615.9,231,613.7,231,610.9z M231,591.5c0-2.8,2.2-5,5-5l0,0c2.8,0,5,2.2,5,5l0,0c0,2.8-2.2,5-5,5l0,0
	C233.2,596.5,231,594.2,231,591.5z"/>
<linearGradient id="SVGID_5_" gradientUnits="userSpaceOnUse" x1="216.4134" y1="325.6818" x2="255.5866" y2="286.5085">
	<stop  offset="0" style="stop-color:#D57D2F"/>
	<stop  offset="0.33" style="stop-color:#C52337"/>
	<stop  offset="0.66" style="stop-color:#8E5199"/>
	<stop  offset="1" style="stop-color:#6590CA"/>
</linearGradient>
<circle style="fill:none;stroke:url(#SVGID_5_);stroke-width:10;stroke-miterlimit:10;" cx="236" cy="306.1" r="22.7"/>
<linearGradient id="SVGID_6_" gradientUnits="userSpaceOnUse" x1="216.4134" y1="568.8704" x2="255.5866" y2="529.6971">
	<stop  offset="0" style="stop-color:#D57D2F"/>
	<stop  offset="0.33" style="stop-color:#C52337"/>
	<stop  offset="0.66" style="stop-color:#8E5199"/>
	<stop  offset="1" style="stop-color:#6590CA"/>
</linearGradient>
<circle class="st8" cx="236" cy="549.3" r="22.7"/>
<g>
	<linearGradient id="SVGID_7_" gradientUnits="userSpaceOnUse" x1="218.6225" y1="725.709" x2="253.3725" y2="690.959">
		<stop  offset="0" style="stop-color:#D57D2F"/>
		<stop  offset="0.33" style="stop-color:#C52337"/>
		<stop  offset="0.66" style="stop-color:#8E5199"/>
		<stop  offset="1" style="stop-color:#6590CA"/>
	</linearGradient>
	<path style="fill:url(#SVGID_7_);" d="M231,727.9c0-2.8,2.2-5,5-5l0,0c2.8,0,5,2.2,5,5l0,0c0,2.8-2.2,5-5,5l0,0
		C233.3,732.9,231,730.7,231,727.9z M218.6,725.7c-2-2-2-5.1,0-7.1l0,0c2-2,5.1-2,7.1,0l0,0c2,2,2,5.1,0,7.1l0,0
		c-1,1-2.3,1.5-3.6,1.5l0,0C220.9,727.2,219.6,726.7,218.6,725.7z M246.3,725.7c-2-2-2-5.1,0-7.1l0,0c1.9-1.9,5.1-1.9,7.1,0l0,0
		c1.9,2,1.9,5.1,0,7.1l0,0l0,0l0,0c-1,1-2.3,1.5-3.5,1.5l0,0C248.6,727.2,247.3,726.7,246.3,725.7z M211.4,708.4c0-2.8,2.2-5,5-5
		l0,0c2.8,0,5,2.2,5,5l0,0c0,2.8-2.2,5-5,5l0,0C213.7,713.4,211.4,711.1,211.4,708.4z M250.6,708.3
		C250.6,708.3,250.6,708.3,250.6,708.3L250.6,708.3C250.6,708.3,250.6,708.3,250.6,708.3L250.6,708.3c0-2.8,2.2-5.1,5-5.1l0,0
		c2.8,0,5,2.2,5,5l0,0c0,0,0,0,0,0.1l0,0c0,0,0,0,0,0l0,0c0,2.8-2.2,5-5,5l0,0C252.8,713.3,250.6,711.1,250.6,708.3z M218.6,698.1
		c-2-2-2-5.1,0-7.1l0,0c2-2,5.1-2,7.1,0l0,0c2,2,2,5.1,0,7.1l0,0c-1,1-2.3,1.5-3.5,1.5l0,0C220.8,699.5,219.6,699,218.6,698.1z
		 M246.3,698c-1.9-1.9-2-5.1,0-7.1l0,0c2-2,5.1-2,7.1,0l0,0c2,2,2,5.1,0,7.1l0,0c-1,1-2.3,1.5-3.5,1.5l0,0
		C248.5,699.4,247.2,699,246.3,698z M230.9,688.8c0-2.8,2.2-5,5-5l0,0c0,0,0,0,0,0l0,0c2.8,0,5,2.2,5,5l0,0c0,2.8-2.2,5-5,5l0,0h0
		l0,0C233.2,693.8,230.9,691.5,230.9,688.8z"/>
</g>
<g>
	<path class="st11" d="M141.8,80.6h-11.3v-1.1l6.2-7c1-1.2,1.7-2.2,2.1-2.9c0.4-0.8,0.6-1.5,0.6-2.2c0-1.1-0.3-2-1-2.7
		c-0.7-0.7-1.6-1-2.8-1c-1.2,0-2.2,0.4-2.9,1.2s-1.1,1.8-1.1,3h-1.5c0-1,0.2-1.9,0.7-2.8c0.5-0.8,1.1-1.5,2-2s1.8-0.7,2.9-0.7
		c1.6,0,2.9,0.4,3.9,1.3c0.9,0.9,1.4,2,1.4,3.5c0,0.8-0.3,1.8-0.8,2.8c-0.5,1-1.4,2.2-2.8,3.7l-5,5.7h9.5V80.6z"/>
	<path class="st11" d="M155.4,73.1c0,2.5-0.5,4.5-1.4,5.8s-2.3,2-4.1,2c-1.8,0-3.1-0.6-4.1-1.9c-0.9-1.3-1.4-3.2-1.5-5.6v-3.2
		c0-2.5,0.5-4.4,1.4-5.8c0.9-1.3,2.3-2,4.1-2c1.8,0,3.1,0.6,4.1,1.9c0.9,1.3,1.4,3.1,1.5,5.6V73.1z M153.9,69.9c0-2.1-0.3-3.6-1-4.7
		c-0.7-1.1-1.7-1.6-3-1.6c-1.3,0-2.3,0.5-3,1.5c-0.7,1-1,2.6-1,4.6v3.5c0,2.1,0.3,3.6,1,4.7c0.7,1.1,1.7,1.6,3,1.6
		c1.3,0,2.3-0.5,3-1.6c0.7-1.1,1-2.6,1-4.7V69.9z"/>
	<path class="st11" d="M165.5,80.6H164V64.4l-4.9,1.8v-1.4l6.1-2.3h0.2V80.6z"/>
	<path class="st11" d="M183.7,63.5L176,80.6h-1.5l7.6-16.7h-10.2v-1.3h11.8V63.5z"/>
</g>
<g>
	<path class="st11" d="M141.8,317.6h-11.3v-1.1l6.2-7c1-1.2,1.7-2.2,2.1-2.9c0.4-0.8,0.6-1.5,0.6-2.2c0-1.1-0.3-2-1-2.7
		c-0.7-0.7-1.6-1-2.8-1c-1.2,0-2.2,0.4-2.9,1.2s-1.1,1.8-1.1,3h-1.5c0-1,0.2-1.9,0.7-2.8c0.5-0.8,1.1-1.5,2-2s1.8-0.7,2.9-0.7
		c1.6,0,2.9,0.4,3.9,1.3c0.9,0.9,1.4,2,1.4,3.5c0,0.8-0.3,1.8-0.8,2.8c-0.5,1-1.4,2.2-2.8,3.7l-5,5.7h9.5V317.6z"/>
	<path class="st11" d="M155.4,310.1c0,2.5-0.5,4.5-1.4,5.8s-2.3,2-4.1,2c-1.8,0-3.1-0.6-4.1-1.9c-0.9-1.3-1.4-3.2-1.5-5.6v-3.2
		c0-2.5,0.5-4.4,1.4-5.8s2.3-2,4.1-2c1.8,0,3.1,0.6,4.1,1.9c0.9,1.3,1.4,3.1,1.5,5.6V310.1z M153.9,306.9c0-2.1-0.3-3.6-1-4.7
		c-0.7-1.1-1.7-1.6-3-1.6c-1.3,0-2.3,0.5-3,1.5c-0.7,1-1,2.6-1,4.6v3.5c0,2.1,0.3,3.6,1,4.7c0.7,1.1,1.7,1.6,3,1.6
		c1.3,0,2.3-0.5,3-1.6c0.7-1.1,1-2.6,1-4.7V306.9z"/>
	<path class="st11" d="M165.5,317.6H164v-16.2l-4.9,1.8v-1.4l6.1-2.3h0.2V317.6z"/>
	<path class="st11" d="M183.2,304.2c0,0.9-0.3,1.8-0.8,2.5c-0.5,0.7-1.3,1.3-2.2,1.6c1,0.4,1.9,0.9,2.5,1.7c0.6,0.8,0.9,1.7,0.9,2.7
		c0,1.5-0.5,2.8-1.6,3.7c-1,0.9-2.4,1.4-4.2,1.4c-1.7,0-3.1-0.4-4.2-1.3s-1.6-2.1-1.6-3.7c0-1,0.3-1.9,0.9-2.7
		c0.6-0.8,1.4-1.4,2.5-1.7c-0.9-0.3-1.6-0.9-2.1-1.6c-0.5-0.7-0.8-1.6-0.8-2.5c0-1.5,0.5-2.7,1.4-3.6c1-0.9,2.2-1.3,3.8-1.3
		c1.6,0,2.9,0.4,3.8,1.3C182.7,301.6,183.2,302.8,183.2,304.2z M182.2,312.8c0-1.1-0.4-2-1.2-2.8c-0.8-0.7-1.8-1.1-3.1-1.1
		c-1.2,0-2.3,0.4-3.1,1.1c-0.8,0.7-1.2,1.6-1.2,2.8s0.4,2.1,1.2,2.7s1.8,1,3.1,1c1.3,0,2.3-0.3,3.1-1
		C181.8,314.9,182.2,314,182.2,312.8z M181.7,304.2c0-1-0.4-1.9-1.1-2.6c-0.7-0.7-1.6-1-2.7-1c-1.1,0-2,0.3-2.7,1
		c-0.7,0.7-1,1.5-1,2.6c0,1.1,0.3,1.9,1,2.5c0.7,0.6,1.6,1,2.7,1c1.1,0,2-0.3,2.7-1C181.4,306.1,181.7,305.3,181.7,304.2z"/>
</g>
<g>
	<path class="st11" d="M141.8,557h-11.3v-1.1l6.2-7c1-1.2,1.7-2.2,2.1-2.9c0.4-0.8,0.6-1.5,0.6-2.2c0-1.1-0.3-2-1-2.7
		c-0.7-0.7-1.6-1-2.8-1c-1.2,0-2.2,0.4-2.9,1.2c-0.7,0.8-1.1,1.8-1.1,3h-1.5c0-1,0.2-1.9,0.7-2.8c0.5-0.8,1.1-1.5,2-2
		c0.8-0.5,1.8-0.7,2.9-0.7c1.6,0,2.9,0.4,3.9,1.3c0.9,0.9,1.4,2,1.4,3.5c0,0.8-0.3,1.8-0.8,2.8s-1.4,2.2-2.8,3.7l-5,5.7h9.5V557z"/>
	<path class="st11" d="M155.4,549.5c0,2.5-0.5,4.5-1.4,5.8c-0.9,1.3-2.3,2-4.1,2c-1.8,0-3.1-0.6-4.1-1.9c-0.9-1.3-1.4-3.2-1.5-5.6
		v-3.2c0-2.5,0.5-4.4,1.4-5.8s2.3-2,4.1-2c1.8,0,3.1,0.6,4.1,1.9c0.9,1.3,1.4,3.1,1.5,5.6V549.5z M153.9,546.2c0-2.1-0.3-3.6-1-4.7
		c-0.7-1.1-1.7-1.6-3-1.6c-1.3,0-2.3,0.5-3,1.5c-0.7,1-1,2.6-1,4.6v3.5c0,2.1,0.3,3.6,1,4.7c0.7,1.1,1.7,1.6,3,1.6
		c1.3,0,2.3-0.5,3-1.6c0.7-1.1,1-2.6,1-4.7V546.2z"/>
	<path class="st11" d="M165.5,557H164v-16.2l-4.9,1.8v-1.4l6.1-2.3h0.2V557z"/>
	<path class="st11" d="M181.8,548.6c-0.5,0.8-1.2,1.4-2,1.8c-0.8,0.4-1.6,0.6-2.5,0.6c-1,0-1.9-0.3-2.7-0.8s-1.4-1.3-1.8-2.2
		s-0.6-1.9-0.6-3.1c0-1.2,0.2-2.3,0.7-3.2c0.5-1,1.1-1.7,1.9-2.3c0.8-0.5,1.8-0.8,2.8-0.8c1.8,0,3.2,0.6,4.2,1.9
		c1,1.3,1.5,3.1,1.5,5.4v1.3c0,3.2-0.7,5.7-2.1,7.3c-1.4,1.6-3.5,2.4-6.3,2.4h-0.3l0-1.3h0.5c2.2,0,3.8-0.6,4.9-1.8
		C181.2,552.8,181.8,551,181.8,548.6z M177.5,549.8c1,0,1.9-0.3,2.7-0.9s1.3-1.4,1.7-2.3v-0.9c0-1.8-0.4-3.2-1.1-4.3
		c-0.8-1-1.8-1.5-3.1-1.5c-1.2,0-2.1,0.5-2.9,1.4c-0.8,0.9-1.1,2.1-1.1,3.6c0,1.4,0.4,2.5,1.1,3.4S176.4,549.8,177.5,549.8z"/>
</g>
<g>
	<path class="st11" d="M297.4,64.9v7H295V54h6.6c2,0,3.5,0.5,4.6,1.5s1.7,2.3,1.7,4c0,1.7-0.5,3.1-1.6,4c-1.1,0.9-2.7,1.4-4.7,1.4
		H297.4z M297.4,63h4.3c1.3,0,2.2-0.3,2.9-0.9s1-1.5,1-2.6c0-1.1-0.3-1.9-1-2.6c-0.7-0.6-1.6-1-2.8-1h-4.4V63z"/>
	<path class="st11" d="M313.1,72h-2.3V53h2.3V72z"/>
	<path class="st11" d="M325.1,72c-0.1-0.3-0.2-0.7-0.3-1.4c-1.1,1.1-2.3,1.7-3.8,1.7c-1.3,0-2.4-0.4-3.2-1.1s-1.3-1.7-1.3-2.8
		c0-1.4,0.5-2.5,1.6-3.2c1.1-0.8,2.5-1.2,4.5-1.2h2.2v-1.1c0-0.8-0.2-1.4-0.7-1.9c-0.5-0.5-1.2-0.7-2.1-0.7c-0.8,0-1.5,0.2-2.1,0.6
		c-0.6,0.4-0.8,0.9-0.8,1.5h-2.3c0-0.7,0.2-1.3,0.7-1.9c0.5-0.6,1.1-1.1,1.9-1.5c0.8-0.4,1.7-0.5,2.7-0.5c1.5,0,2.7,0.4,3.6,1.2
		s1.3,1.8,1.4,3.2v6.2c0,1.2,0.2,2.2,0.5,2.9V72H325.1z M321.3,70.2c0.7,0,1.4-0.2,2-0.6c0.6-0.4,1.1-0.9,1.4-1.4v-2.7h-1.8
		c-2.8,0-4.2,0.8-4.2,2.5c0,0.7,0.2,1.3,0.7,1.7C319.9,70,320.5,70.2,321.3,70.2z"/>
	<path class="st11" d="M334.8,68.6l3.1-10h2.4L335,74c-0.8,2.2-2.2,3.3-4,3.3l-0.4,0l-0.9-0.2v-1.9l0.6,0c0.8,0,1.4-0.2,1.8-0.5
		s0.8-0.9,1.1-1.7l0.5-1.4l-4.8-13.2h2.5L334.8,68.6z"/>
	<path class="st11" d="M344.5,58.6l0.1,1.5c1-1.2,2.3-1.7,4-1.7c1.9,0,3.1,0.7,3.8,2.2c0.4-0.6,1-1.2,1.7-1.6
		c0.7-0.4,1.6-0.6,2.5-0.6c2.9,0,4.4,1.6,4.5,4.7v9h-2.3v-8.8c0-1-0.2-1.7-0.7-2.1c-0.4-0.5-1.2-0.7-2.2-0.7c-0.8,0-1.6,0.3-2.1,0.8
		c-0.6,0.5-0.9,1.2-1,2V72h-2.3v-8.8c0-1.9-1-2.9-2.9-2.9c-1.5,0-2.5,0.6-3.1,1.9V72h-2.3V58.6H344.5z"/>
	<path class="st11" d="M372.8,72c-0.1-0.3-0.2-0.7-0.3-1.4c-1.1,1.1-2.3,1.7-3.8,1.7c-1.3,0-2.4-0.4-3.2-1.1s-1.3-1.7-1.3-2.8
		c0-1.4,0.5-2.5,1.6-3.2c1.1-0.8,2.5-1.2,4.5-1.2h2.2v-1.1c0-0.8-0.2-1.4-0.7-1.9c-0.5-0.5-1.2-0.7-2.1-0.7c-0.8,0-1.5,0.2-2.1,0.6
		c-0.6,0.4-0.8,0.9-0.8,1.5h-2.3c0-0.7,0.2-1.3,0.7-1.9c0.5-0.6,1.1-1.1,1.9-1.5c0.8-0.4,1.7-0.5,2.7-0.5c1.5,0,2.7,0.4,3.6,1.2
		s1.3,1.8,1.4,3.2v6.2c0,1.2,0.2,2.2,0.5,2.9V72H372.8z M369,70.2c0.7,0,1.4-0.2,2-0.6c0.6-0.4,1.1-0.9,1.4-1.4v-2.7h-1.8
		c-2.8,0-4.2,0.8-4.2,2.5c0,0.7,0.2,1.3,0.7,1.7C367.7,70,368.3,70.2,369,70.2z"/>
	<path class="st11" d="M381.5,55.3v3.2h2.5v1.8h-2.5v8.3c0,0.5,0.1,0.9,0.3,1.2c0.2,0.3,0.6,0.4,1.1,0.4c0.3,0,0.6,0,1.1-0.1V72
		c-0.6,0.2-1.2,0.2-1.8,0.2c-1,0-1.8-0.3-2.3-0.9s-0.8-1.5-0.8-2.6v-8.3h-2.4v-1.8h2.4v-3.2H381.5z"/>
	<path class="st11" d="M392,70.3c0.8,0,1.5-0.2,2.1-0.7c0.6-0.5,0.9-1.1,1-1.9h2.2c0,0.8-0.3,1.5-0.8,2.2c-0.5,0.7-1.1,1.2-1.9,1.7
		c-0.8,0.4-1.7,0.6-2.6,0.6c-1.8,0-3.3-0.6-4.3-1.8c-1.1-1.2-1.6-2.9-1.6-5V65c0-1.3,0.2-2.5,0.7-3.5c0.5-1,1.2-1.8,2.1-2.4
		s2-0.8,3.2-0.8c1.5,0,2.7,0.4,3.7,1.3s1.5,2.1,1.6,3.5h-2.2c-0.1-0.9-0.4-1.6-1-2.1c-0.6-0.6-1.3-0.8-2.2-0.8
		c-1.2,0-2.1,0.4-2.7,1.3s-1,2-1,3.6v0.4c0,1.5,0.3,2.7,1,3.6C389.9,69.9,390.8,70.3,392,70.3z"/>
	<path class="st11" d="M402.2,60.2c1-1.2,2.3-1.9,4-1.9c2.8,0,4.3,1.6,4.3,4.8V72h-2.3v-8.9c0-1-0.2-1.7-0.7-2.1s-1.1-0.7-2-0.7
		c-0.7,0-1.4,0.2-2,0.6c-0.6,0.4-1,0.9-1.3,1.6V72h-2.3V53h2.3V60.2z"/>
	<path class="st11" d="M423,72h-2.4V54h2.4V72z"/>
	<path class="st11" d="M426.4,65.2c0-2.1,0.5-3.7,1.5-5s2.2-1.9,3.8-1.9c1.6,0,2.8,0.5,3.7,1.6v-7h2.3v19h-2.1l-0.1-1.4
		c-0.9,1.1-2.2,1.7-3.8,1.7c-1.6,0-2.8-0.6-3.8-1.9c-1-1.3-1.5-2.9-1.5-5V65.2z M428.7,65.4c0,1.5,0.3,2.7,0.9,3.6
		c0.6,0.9,1.5,1.3,2.6,1.3c1.5,0,2.5-0.7,3.2-2v-6.1c-0.7-1.3-1.7-1.9-3.2-1.9c-1.1,0-2,0.4-2.6,1.3C429,62.4,428.7,63.7,428.7,65.4
		z"/>
	<path class="st11" d="M446.8,72.2c-1.8,0-3.3-0.6-4.4-1.8s-1.7-2.8-1.7-4.8v-0.4c0-1.3,0.3-2.5,0.8-3.6c0.5-1,1.2-1.9,2.1-2.4
		c0.9-0.6,1.9-0.9,3-0.9c1.7,0,3.1,0.6,4.1,1.7c1,1.1,1.4,2.8,1.4,4.9v1H443c0,1.3,0.4,2.4,1.2,3.2c0.7,0.8,1.7,1.2,2.8,1.2
		c0.8,0,1.5-0.2,2.1-0.5s1.1-0.8,1.5-1.3l1.4,1.1C450.7,71.3,449.1,72.2,446.8,72.2z M446.5,60.2c-0.9,0-1.7,0.3-2.3,1
		c-0.6,0.7-1,1.6-1.2,2.8h6.7v-0.2c-0.1-1.2-0.4-2.1-0.9-2.7S447.5,60.2,446.5,60.2z"/>
	<path class="st11" d="M462.9,72c-0.1-0.3-0.2-0.7-0.3-1.4c-1.1,1.1-2.3,1.7-3.8,1.7c-1.3,0-2.4-0.4-3.2-1.1s-1.3-1.7-1.3-2.8
		c0-1.4,0.5-2.5,1.6-3.2c1.1-0.8,2.5-1.2,4.5-1.2h2.2v-1.1c0-0.8-0.2-1.4-0.7-1.9c-0.5-0.5-1.2-0.7-2.1-0.7c-0.8,0-1.5,0.2-2.1,0.6
		c-0.6,0.4-0.8,0.9-0.8,1.5h-2.3c0-0.7,0.2-1.3,0.7-1.9c0.5-0.6,1.1-1.1,1.9-1.5c0.8-0.4,1.7-0.5,2.7-0.5c1.5,0,2.7,0.4,3.6,1.2
		s1.3,1.8,1.4,3.2v6.2c0,1.2,0.2,2.2,0.5,2.9V72H462.9z M459.1,70.2c0.7,0,1.4-0.2,2-0.6c0.6-0.4,1.1-0.9,1.4-1.4v-2.7h-1.8
		c-2.8,0-4.2,0.8-4.2,2.5c0,0.7,0.2,1.3,0.7,1.7C457.8,70,458.4,70.2,459.1,70.2z"/>
	<path class="st11" d="M474.7,55c0-0.4,0.1-0.7,0.3-0.9c0.2-0.3,0.6-0.4,1-0.4s0.8,0.1,1,0.4c0.2,0.3,0.3,0.6,0.3,0.9
		s-0.1,0.7-0.3,0.9c-0.2,0.2-0.6,0.4-1,0.4s-0.8-0.1-1-0.4C474.9,55.7,474.7,55.4,474.7,55z M477.2,72h-2.3V58.6h2.3V72z"/>
	<path class="st11" d="M488.7,68.4c0-0.6-0.2-1.1-0.7-1.4s-1.3-0.6-2.4-0.9c-1.2-0.2-2.1-0.5-2.8-0.9c-0.7-0.3-1.2-0.8-1.5-1.2
		c-0.3-0.5-0.5-1-0.5-1.7c0-1.1,0.5-2,1.4-2.8s2.1-1.1,3.6-1.1c1.5,0,2.7,0.4,3.7,1.2c0.9,0.8,1.4,1.8,1.4,3h-2.3
		c0-0.6-0.3-1.2-0.8-1.6c-0.5-0.5-1.2-0.7-2-0.7c-0.8,0-1.5,0.2-2,0.5c-0.5,0.4-0.7,0.8-0.7,1.4c0,0.6,0.2,1,0.7,1.2
		c0.4,0.3,1.2,0.5,2.4,0.8c1.1,0.3,2.1,0.6,2.8,0.9s1.2,0.8,1.6,1.3c0.3,0.5,0.5,1.1,0.5,1.8c0,1.2-0.5,2.2-1.4,2.9
		c-1,0.7-2.2,1.1-3.7,1.1c-1.1,0-2-0.2-2.8-0.6s-1.5-0.9-1.9-1.6c-0.5-0.7-0.7-1.4-0.7-2.2h2.3c0,0.8,0.3,1.4,0.9,1.8
		c0.6,0.5,1.3,0.7,2.3,0.7c0.9,0,1.6-0.2,2.1-0.5C488.4,69.5,488.7,69,488.7,68.4z"/>
	<path class="st11" d="M500.6,72V54h5.9c2,0,3.4,0.4,4.4,1.2c1,0.8,1.5,2,1.5,3.6c0,0.8-0.2,1.6-0.7,2.2c-0.5,0.6-1.1,1.1-2,1.5
		c1,0.3,1.7,0.8,2.3,1.6c0.6,0.8,0.8,1.7,0.8,2.7c0,1.6-0.5,2.9-1.6,3.8c-1,0.9-2.5,1.4-4.4,1.4H500.6z M502.9,61.6h3.6
		c1,0,1.9-0.3,2.5-0.8s0.9-1.2,0.9-2.1c0-1-0.3-1.7-0.9-2.2c-0.6-0.5-1.5-0.7-2.6-0.7h-3.5V61.6z M502.9,63.5V70h3.9
		c1.1,0,2-0.3,2.6-0.9c0.6-0.6,1-1.4,1-2.4c0-2.2-1.2-3.3-3.5-3.3H502.9z"/>
	<path class="st11" d="M515.4,65.1c0-1.3,0.3-2.5,0.8-3.5c0.5-1,1.2-1.9,2.2-2.4c0.9-0.6,2-0.9,3.1-0.9c1.8,0,3.3,0.6,4.4,1.9
		c1.1,1.3,1.7,2.9,1.7,5v0.2c0,1.3-0.2,2.5-0.7,3.5c-0.5,1-1.2,1.8-2.1,2.4c-0.9,0.6-2,0.9-3.2,0.9c-1.8,0-3.3-0.6-4.4-1.9
		c-1.1-1.3-1.7-2.9-1.7-5V65.1z M517.7,65.4c0,1.5,0.3,2.7,1,3.6s1.6,1.3,2.8,1.3c1.2,0,2.1-0.5,2.8-1.4c0.7-0.9,1-2.2,1-3.8
		c0-1.5-0.3-2.7-1-3.6c-0.7-0.9-1.6-1.4-2.8-1.4c-1.1,0-2,0.4-2.7,1.3S517.7,63.7,517.7,65.4z"/>
	<path class="st11" d="M536.9,60.6c-0.3-0.1-0.7-0.1-1.1-0.1c-1.5,0-2.5,0.6-3.1,1.9V72h-2.3V58.6h2.2l0,1.5
		c0.8-1.2,1.8-1.8,3.2-1.8c0.4,0,0.8,0.1,1,0.2V60.6z"/>
	<path class="st11" d="M541.1,58.6l0.1,1.7c1-1.3,2.4-1.9,4-1.9c2.8,0,4.3,1.6,4.3,4.8V72h-2.3v-8.9c0-1-0.2-1.7-0.7-2.1
		s-1.1-0.7-2-0.7c-0.7,0-1.4,0.2-2,0.6c-0.6,0.4-1,0.9-1.3,1.6V72H539V58.6H541.1z"/>
</g>
<g>
	<path class="st11" d="M301,311.1l5.1-14.9h2.6l-6.7,18H300l-6.7-18h2.6L301,311.1z"/>
	<path class="st11" d="M310.8,297.4c0-0.4,0.1-0.7,0.3-0.9c0.2-0.3,0.6-0.4,1-0.4s0.8,0.1,1,0.4c0.2,0.3,0.3,0.6,0.3,0.9
		s-0.1,0.7-0.3,0.9c-0.2,0.2-0.6,0.4-1,0.4s-0.8-0.1-1-0.4C310.9,298,310.8,297.7,310.8,297.4z M313.3,314.3H311v-13.4h2.3V314.3z"
		/>
	<path class="st11" d="M324.7,310.7c0-0.6-0.2-1.1-0.7-1.4c-0.5-0.3-1.3-0.6-2.4-0.9c-1.2-0.2-2.1-0.5-2.8-0.9
		c-0.7-0.3-1.2-0.8-1.5-1.2c-0.3-0.5-0.5-1-0.5-1.7c0-1.1,0.5-2,1.4-2.8c0.9-0.8,2.1-1.1,3.6-1.1c1.5,0,2.7,0.4,3.7,1.2
		c0.9,0.8,1.4,1.8,1.4,3h-2.3c0-0.6-0.3-1.2-0.8-1.6c-0.5-0.5-1.2-0.7-2-0.7c-0.8,0-1.5,0.2-2,0.5s-0.7,0.8-0.7,1.4
		c0,0.6,0.2,1,0.7,1.2c0.4,0.3,1.2,0.5,2.4,0.8c1.1,0.3,2.1,0.6,2.8,0.9s1.2,0.8,1.6,1.3c0.3,0.5,0.5,1.1,0.5,1.8
		c0,1.2-0.5,2.2-1.4,2.9c-1,0.7-2.2,1.1-3.7,1.1c-1.1,0-2-0.2-2.8-0.6c-0.8-0.4-1.5-0.9-1.9-1.6s-0.7-1.4-0.7-2.2h2.3
		c0,0.8,0.3,1.4,0.9,1.8c0.6,0.4,1.3,0.7,2.3,0.7c0.9,0,1.6-0.2,2.1-0.5C324.5,311.8,324.7,311.3,324.7,310.7z"/>
	<path class="st11" d="M338.3,313c-0.9,1-2.2,1.6-3.9,1.6c-1.4,0-2.5-0.4-3.3-1.2s-1.1-2.1-1.1-3.7v-8.7h2.3v8.6c0,2,0.8,3,2.5,3
		c1.7,0,2.9-0.7,3.5-2v-9.7h2.3v13.4h-2.2L338.3,313z"/>
	<path class="st11" d="M352.2,314.3c-0.1-0.3-0.2-0.7-0.3-1.4c-1.1,1.1-2.3,1.7-3.8,1.7c-1.3,0-2.4-0.4-3.2-1.1s-1.3-1.7-1.3-2.8
		c0-1.4,0.5-2.5,1.6-3.2c1.1-0.8,2.5-1.2,4.5-1.2h2.2v-1.1c0-0.8-0.2-1.4-0.7-1.9c-0.5-0.5-1.2-0.7-2.1-0.7c-0.8,0-1.5,0.2-2.1,0.6
		c-0.6,0.4-0.8,0.9-0.8,1.5h-2.3c0-0.7,0.2-1.3,0.7-1.9c0.5-0.6,1.1-1.1,1.9-1.5c0.8-0.4,1.7-0.5,2.7-0.5c1.5,0,2.7,0.4,3.6,1.2
		c0.9,0.8,1.3,1.8,1.4,3.2v6.2c0,1.2,0.2,2.2,0.5,2.9v0.2H352.2z M348.4,312.5c0.7,0,1.4-0.2,2-0.6c0.6-0.4,1.1-0.9,1.4-1.4v-2.7
		h-1.8c-2.8,0-4.2,0.8-4.2,2.5c0,0.7,0.2,1.3,0.7,1.7C347.1,312.3,347.7,312.5,348.4,312.5z"/>
	<path class="st11" d="M360.2,314.3h-2.3v-19h2.3V314.3z"/>
	<path class="st11" d="M372.9,307.2v7h-2.4v-18h6.6c2,0,3.5,0.5,4.6,1.5s1.7,2.3,1.7,4c0,1.7-0.5,3.1-1.6,4s-2.7,1.4-4.7,1.4H372.9z
		 M372.9,305.3h4.3c1.3,0,2.2-0.3,2.9-0.9s1-1.5,1-2.6c0-1.1-0.3-1.9-1-2.6s-1.6-1-2.8-1h-4.4V305.3z"/>
	<path class="st11" d="M392.6,303c-0.3-0.1-0.7-0.1-1.1-0.1c-1.5,0-2.5,0.6-3.1,1.9v9.5h-2.3v-13.4h2.2l0,1.5
		c0.8-1.2,1.8-1.8,3.2-1.8c0.4,0,0.8,0.1,1,0.2V303z"/>
	<path class="st11" d="M393.8,307.5c0-1.3,0.3-2.5,0.8-3.5c0.5-1,1.2-1.9,2.2-2.4s2-0.9,3.1-0.9c1.8,0,3.3,0.6,4.4,1.9
		c1.1,1.3,1.7,2.9,1.7,5v0.2c0,1.3-0.2,2.5-0.7,3.5s-1.2,1.8-2.1,2.4c-0.9,0.6-2,0.9-3.2,0.9c-1.8,0-3.3-0.6-4.4-1.9
		c-1.1-1.3-1.7-2.9-1.7-5V307.5z M396.1,307.7c0,1.5,0.3,2.7,1,3.6s1.6,1.3,2.8,1.3c1.2,0,2.1-0.5,2.8-1.4c0.7-0.9,1-2.2,1-3.8
		c0-1.5-0.3-2.7-1-3.6c-0.7-0.9-1.6-1.4-2.8-1.4c-1.1,0-2,0.4-2.7,1.3C396.5,304.8,396.1,306.1,396.1,307.7z"/>
	<path class="st11" d="M412,297.7v3.2h2.5v1.8H412v8.3c0,0.5,0.1,0.9,0.3,1.2c0.2,0.3,0.6,0.4,1.1,0.4c0.3,0,0.6,0,1.1-0.1v1.8
		c-0.6,0.2-1.2,0.2-1.8,0.2c-1,0-1.8-0.3-2.3-0.9s-0.8-1.5-0.8-2.6v-8.3h-2.4v-1.8h2.4v-3.2H412z"/>
	<path class="st11" d="M416.3,307.5c0-1.3,0.3-2.5,0.8-3.5c0.5-1,1.2-1.9,2.2-2.4s2-0.9,3.1-0.9c1.8,0,3.3,0.6,4.4,1.9
		c1.1,1.3,1.7,2.9,1.7,5v0.2c0,1.3-0.2,2.5-0.7,3.5s-1.2,1.8-2.1,2.4c-0.9,0.6-2,0.9-3.2,0.9c-1.8,0-3.3-0.6-4.4-1.9
		c-1.1-1.3-1.7-2.9-1.7-5V307.5z M418.6,307.7c0,1.5,0.3,2.7,1,3.6s1.6,1.3,2.8,1.3c1.2,0,2.1-0.5,2.8-1.4c0.7-0.9,1-2.2,1-3.8
		c0-1.5-0.3-2.7-1-3.6c-0.7-0.9-1.6-1.4-2.8-1.4c-1.1,0-2,0.4-2.7,1.3C419,304.8,418.6,306.1,418.6,307.7z"/>
	<path class="st11" d="M434.5,297.7v3.2h2.5v1.8h-2.5v8.3c0,0.5,0.1,0.9,0.3,1.2c0.2,0.3,0.6,0.4,1.1,0.4c0.3,0,0.6,0,1.1-0.1v1.8
		c-0.6,0.2-1.2,0.2-1.8,0.2c-1,0-1.8-0.3-2.3-0.9s-0.8-1.5-0.8-2.6v-8.3h-2.4v-1.8h2.4v-3.2H434.5z"/>
	<path class="st11" d="M444,310.9l3.1-10h2.4l-5.4,15.4c-0.8,2.2-2.2,3.3-4,3.3l-0.4,0l-0.9-0.2v-1.9l0.6,0c0.8,0,1.4-0.2,1.8-0.5
		s0.8-0.9,1.1-1.7l0.5-1.4l-4.8-13.2h2.5L444,310.9z"/>
	<path class="st11" d="M462.9,307.7c0,2-0.5,3.7-1.4,4.9c-0.9,1.2-2.2,1.9-3.8,1.9c-1.6,0-2.9-0.5-3.8-1.5v6.4h-2.3v-18.5h2.1
		l0.1,1.5c0.9-1.2,2.2-1.7,3.9-1.7c1.6,0,2.9,0.6,3.8,1.8s1.4,2.9,1.4,5.1V307.7z M460.6,307.5c0-1.5-0.3-2.7-1-3.6
		c-0.6-0.9-1.5-1.3-2.6-1.3c-1.4,0-2.4,0.6-3.1,1.8v6.4c0.7,1.2,1.7,1.8,3.1,1.8c1.1,0,2-0.4,2.6-1.3
		C460.3,310.5,460.6,309.2,460.6,307.5z"/>
	<path class="st11" d="M471.4,314.5c-1.8,0-3.3-0.6-4.4-1.8s-1.7-2.8-1.7-4.8v-0.4c0-1.3,0.3-2.5,0.8-3.6c0.5-1,1.2-1.9,2.1-2.4
		c0.9-0.6,1.9-0.9,3-0.9c1.7,0,3.1,0.6,4.1,1.7c1,1.1,1.4,2.8,1.4,4.9v1h-9.1c0,1.3,0.4,2.4,1.2,3.2c0.7,0.8,1.7,1.2,2.8,1.2
		c0.8,0,1.5-0.2,2.1-0.5c0.6-0.3,1.1-0.8,1.5-1.3l1.4,1.1C475.3,313.7,473.6,314.5,471.4,314.5z M471.1,302.5c-0.9,0-1.7,0.3-2.3,1
		c-0.6,0.7-1,1.6-1.2,2.8h6.7v-0.2c-0.1-1.2-0.4-2.1-0.9-2.7C472.8,302.9,472,302.5,471.1,302.5z"/>
	<path class="st11" d="M487,310.7c0-0.6-0.2-1.1-0.7-1.4c-0.5-0.3-1.3-0.6-2.4-0.9c-1.2-0.2-2.1-0.5-2.8-0.9
		c-0.7-0.3-1.2-0.8-1.5-1.2c-0.3-0.5-0.5-1-0.5-1.7c0-1.1,0.5-2,1.4-2.8c0.9-0.8,2.1-1.1,3.6-1.1c1.5,0,2.7,0.4,3.7,1.2
		c0.9,0.8,1.4,1.8,1.4,3h-2.3c0-0.6-0.3-1.2-0.8-1.6c-0.5-0.5-1.2-0.7-2-0.7c-0.8,0-1.5,0.2-2,0.5s-0.7,0.8-0.7,1.4
		c0,0.6,0.2,1,0.7,1.2c0.4,0.3,1.2,0.5,2.4,0.8c1.1,0.3,2.1,0.6,2.8,0.9s1.2,0.8,1.6,1.3c0.3,0.5,0.5,1.1,0.5,1.8
		c0,1.2-0.5,2.2-1.4,2.9c-1,0.7-2.2,1.1-3.7,1.1c-1.1,0-2-0.2-2.8-0.6c-0.8-0.4-1.5-0.9-1.9-1.6s-0.7-1.4-0.7-2.2h2.3
		c0,0.8,0.3,1.4,0.9,1.8c0.6,0.4,1.3,0.7,2.3,0.7c0.9,0,1.6-0.2,2.1-0.5C486.8,311.8,487,311.3,487,310.7z"/>
</g>
<g>
	<path class="st11" d="M297.4,555h8.5v1.9H295v-18h2.4V555z"/>
	<path class="st11" d="M316.6,557c-0.1-0.3-0.2-0.7-0.3-1.4c-1.1,1.1-2.3,1.7-3.8,1.7c-1.3,0-2.4-0.4-3.2-1.1
		c-0.8-0.7-1.3-1.7-1.3-2.8c0-1.4,0.5-2.5,1.6-3.2c1.1-0.8,2.5-1.2,4.5-1.2h2.2v-1.1c0-0.8-0.2-1.4-0.7-1.9
		c-0.5-0.5-1.2-0.7-2.1-0.7c-0.8,0-1.5,0.2-2.1,0.6c-0.6,0.4-0.8,0.9-0.8,1.5h-2.3c0-0.7,0.2-1.3,0.7-1.9c0.5-0.6,1.1-1.1,1.9-1.5
		c0.8-0.4,1.7-0.5,2.7-0.5c1.5,0,2.7,0.4,3.6,1.2s1.3,1.8,1.4,3.2v6.2c0,1.2,0.2,2.2,0.5,2.9v0.2H316.6z M312.8,555.2
		c0.7,0,1.4-0.2,2-0.6c0.6-0.4,1.1-0.9,1.4-1.4v-2.7h-1.8c-2.8,0-4.2,0.8-4.2,2.5c0,0.7,0.2,1.3,0.7,1.7
		C311.4,555,312,555.2,312.8,555.2z"/>
	<path class="st11" d="M330.3,555.6c-0.9,1-2.2,1.6-3.9,1.6c-1.4,0-2.5-0.4-3.3-1.2c-0.7-0.8-1.1-2.1-1.1-3.7v-8.7h2.3v8.6
		c0,2,0.8,3,2.5,3c1.7,0,2.9-0.7,3.5-2v-9.7h2.3V557h-2.2L330.3,555.6z"/>
	<path class="st11" d="M338.2,543.6l0.1,1.7c1-1.3,2.4-1.9,4-1.9c2.8,0,4.3,1.6,4.3,4.8v8.8h-2.3v-8.9c0-1-0.2-1.7-0.7-2.1
		s-1.1-0.7-2-0.7c-0.7,0-1.4,0.2-2,0.6c-0.6,0.4-1,0.9-1.3,1.6v9.5H336v-13.4H338.2z"/>
	<path class="st11" d="M355.4,555.3c0.8,0,1.5-0.2,2.1-0.7c0.6-0.5,0.9-1.1,1-1.9h2.2c0,0.8-0.3,1.5-0.8,2.2
		c-0.5,0.7-1.1,1.2-1.9,1.7c-0.8,0.4-1.7,0.6-2.6,0.6c-1.8,0-3.3-0.6-4.3-1.8c-1.1-1.2-1.6-2.9-1.6-5V550c0-1.3,0.2-2.5,0.7-3.5
		c0.5-1,1.2-1.8,2.1-2.4s2-0.8,3.2-0.8c1.5,0,2.7,0.4,3.7,1.3s1.5,2.1,1.6,3.5h-2.2c-0.1-0.9-0.4-1.6-1-2.1
		c-0.6-0.6-1.3-0.8-2.2-0.8c-1.2,0-2.1,0.4-2.7,1.3s-1,2-1,3.6v0.4c0,1.5,0.3,2.7,1,3.6C353.3,554.9,354.2,555.3,355.4,555.3z"/>
	<path class="st11" d="M365.6,545.2c1-1.2,2.3-1.9,4-1.9c2.8,0,4.3,1.6,4.3,4.8v8.8h-2.3v-8.9c0-1-0.2-1.7-0.7-2.1s-1.1-0.7-2-0.7
		c-0.7,0-1.4,0.2-2,0.6c-0.6,0.4-1,0.9-1.3,1.6v9.5h-2.3v-19h2.3V545.2z"/>
	<path class="st11" d="M382.9,550.1c0-1.3,0.3-2.5,0.8-3.5c0.5-1,1.2-1.9,2.2-2.4c0.9-0.6,2-0.9,3.1-0.9c1.8,0,3.3,0.6,4.4,1.9
		c1.1,1.3,1.7,2.9,1.7,5v0.2c0,1.3-0.2,2.5-0.7,3.5c-0.5,1-1.2,1.8-2.1,2.4c-0.9,0.6-2,0.9-3.2,0.9c-1.8,0-3.3-0.6-4.4-1.9
		c-1.1-1.3-1.7-2.9-1.7-5V550.1z M385.2,550.4c0,1.5,0.3,2.7,1,3.6s1.6,1.3,2.8,1.3c1.2,0,2.1-0.5,2.8-1.4c0.7-0.9,1-2.2,1-3.8
		c0-1.5-0.3-2.7-1-3.6c-0.7-0.9-1.6-1.4-2.8-1.4c-1.1,0-2,0.4-2.7,1.3S385.2,548.7,385.2,550.4z"/>
	<path class="st11" d="M400.1,543.6l0.1,1.7c1-1.3,2.4-1.9,4-1.9c2.8,0,4.3,1.6,4.3,4.8v8.8h-2.3v-8.9c0-1-0.2-1.7-0.7-2.1
		s-1.1-0.7-2-0.7c-0.7,0-1.4,0.2-2,0.6c-0.6,0.4-1,0.9-1.3,1.6v9.5h-2.3v-13.4H400.1z"/>
	<path class="st11" d="M421.1,557h-2.4v-18h2.4V557z"/>
	<path class="st11" d="M427.2,543.6l0.1,1.7c1-1.3,2.4-1.9,4-1.9c2.8,0,4.3,1.6,4.3,4.8v8.8h-2.3v-8.9c0-1-0.2-1.7-0.7-2.1
		s-1.1-0.7-2-0.7c-0.7,0-1.4,0.2-2,0.6c-0.6,0.4-1,0.9-1.3,1.6v9.5h-2.3v-13.4H427.2z"/>
	<path class="st11" d="M438.5,550.2c0-2.1,0.5-3.7,1.5-5s2.2-1.9,3.8-1.9c1.6,0,2.8,0.5,3.7,1.6v-7h2.3v19h-2.1l-0.1-1.4
		c-0.9,1.1-2.2,1.7-3.8,1.7c-1.6,0-2.8-0.6-3.8-1.9c-1-1.3-1.5-2.9-1.5-5V550.2z M440.8,550.4c0,1.5,0.3,2.7,0.9,3.6
		c0.6,0.9,1.5,1.3,2.6,1.3c1.5,0,2.5-0.7,3.2-2v-6.1c-0.7-1.3-1.7-1.9-3.2-1.9c-1.1,0-2,0.4-2.6,1.3
		C441.1,547.4,440.8,548.7,440.8,550.4z"/>
	<path class="st11" d="M453.3,540c0-0.4,0.1-0.7,0.3-0.9c0.2-0.3,0.6-0.4,1-0.4s0.8,0.1,1,0.4c0.2,0.3,0.3,0.6,0.3,0.9
		s-0.1,0.7-0.3,0.9c-0.2,0.2-0.6,0.4-1,0.4s-0.8-0.1-1-0.4C453.4,540.7,453.3,540.4,453.3,540z M455.8,557h-2.3v-13.4h2.3V557z"/>
	<path class="st11" d="M465,557.2c-1.8,0-3.3-0.6-4.4-1.8s-1.7-2.8-1.7-4.8v-0.4c0-1.3,0.3-2.5,0.8-3.6c0.5-1,1.2-1.9,2.1-2.4
		c0.9-0.6,1.9-0.9,3-0.9c1.7,0,3.1,0.6,4.1,1.7c1,1.1,1.4,2.8,1.4,4.9v1h-9.1c0,1.3,0.4,2.4,1.2,3.2c0.7,0.8,1.7,1.2,2.8,1.2
		c0.8,0,1.5-0.2,2.1-0.5s1.1-0.8,1.5-1.3l1.4,1.1C468.9,556.3,467.3,557.2,465,557.2z M464.7,545.2c-0.9,0-1.7,0.3-2.3,1
		c-0.6,0.7-1,1.6-1.2,2.8h6.7v-0.2c-0.1-1.2-0.4-2.1-0.9-2.7S465.7,545.2,464.7,545.2z"/>
	<path class="st11" d="M472.3,550.2c0-2.1,0.5-3.7,1.4-5s2.2-1.8,3.8-1.8c1.6,0,2.9,0.6,3.8,1.7l0.1-1.5h2.1v13.1
		c0,1.7-0.5,3.1-1.5,4.1c-1,1-2.4,1.5-4.1,1.5c-1,0-1.9-0.2-2.8-0.6c-0.9-0.4-1.6-1-2.1-1.7l1.2-1.4c1,1.2,2.2,1.8,3.6,1.8
		c1.1,0,2-0.3,2.6-0.9c0.6-0.6,0.9-1.5,0.9-2.6v-1.1c-0.9,1.1-2.2,1.6-3.7,1.6c-1.6,0-2.8-0.6-3.8-1.9
		C472.8,554.1,472.3,552.3,472.3,550.2z M474.6,550.4c0,1.5,0.3,2.7,0.9,3.6c0.6,0.9,1.5,1.3,2.6,1.3c1.4,0,2.5-0.7,3.2-2v-6.1
		c-0.7-1.3-1.8-1.9-3.2-1.9c-1.1,0-2,0.4-2.6,1.3C475,547.4,474.6,548.7,474.6,550.4z"/>
	<path class="st11" d="M486.5,550.1c0-1.3,0.3-2.5,0.8-3.5c0.5-1,1.2-1.9,2.2-2.4c0.9-0.6,2-0.9,3.1-0.9c1.8,0,3.3,0.6,4.4,1.9
		c1.1,1.3,1.7,2.9,1.7,5v0.2c0,1.3-0.2,2.5-0.7,3.5c-0.5,1-1.2,1.8-2.1,2.4c-0.9,0.6-2,0.9-3.2,0.9c-1.8,0-3.3-0.6-4.4-1.9
		c-1.1-1.3-1.7-2.9-1.7-5V550.1z M488.8,550.4c0,1.5,0.3,2.7,1,3.6s1.6,1.3,2.8,1.3c1.2,0,2.1-0.5,2.8-1.4c0.7-0.9,1-2.2,1-3.8
		c0-1.5-0.3-2.7-1-3.6c-0.7-0.9-1.6-1.4-2.8-1.4c-1.1,0-2,0.4-2.7,1.3S488.8,548.7,488.8,550.4z"/>
	<path class="st11" d="M501,550.2c0-2.1,0.5-3.7,1.4-5s2.2-1.8,3.8-1.8c1.6,0,2.9,0.6,3.8,1.7l0.1-1.5h2.1v13.1
		c0,1.7-0.5,3.1-1.5,4.1c-1,1-2.4,1.5-4.1,1.5c-1,0-1.9-0.2-2.8-0.6c-0.9-0.4-1.6-1-2.1-1.7l1.2-1.4c1,1.2,2.2,1.8,3.6,1.8
		c1.1,0,2-0.3,2.6-0.9c0.6-0.6,0.9-1.5,0.9-2.6v-1.1c-0.9,1.1-2.2,1.6-3.7,1.6c-1.6,0-2.8-0.6-3.8-1.9
		C501.5,554.1,501,552.3,501,550.2z M503.3,550.4c0,1.5,0.3,2.7,0.9,3.6c0.6,0.9,1.5,1.3,2.6,1.3c1.4,0,2.5-0.7,3.2-2v-6.1
		c-0.7-1.3-1.8-1.9-3.2-1.9c-1.1,0-2,0.4-2.6,1.3C503.6,547.4,503.3,548.7,503.3,550.4z"/>
	<path class="st11" d="M515.1,550.1c0-1.3,0.3-2.5,0.8-3.5c0.5-1,1.2-1.9,2.2-2.4c0.9-0.6,2-0.9,3.1-0.9c1.8,0,3.3,0.6,4.4,1.9
		c1.1,1.3,1.7,2.9,1.7,5v0.2c0,1.3-0.2,2.5-0.7,3.5c-0.5,1-1.2,1.8-2.1,2.4c-0.9,0.6-2,0.9-3.2,0.9c-1.8,0-3.3-0.6-4.4-1.9
		c-1.1-1.3-1.7-2.9-1.7-5V550.1z M517.4,550.4c0,1.5,0.3,2.7,1,3.6s1.6,1.3,2.8,1.3c1.2,0,2.1-0.5,2.8-1.4c0.7-0.9,1-2.2,1-3.8
		c0-1.5-0.3-2.7-1-3.6c-0.7-0.9-1.6-1.4-2.8-1.4c-1.1,0-2,0.4-2.7,1.3S517.4,548.7,517.4,550.4z"/>
</g>
<g>
	<path class="st11" d="M301.6,159.2h-5.5v5.8h-1.7v-13h8.1v1.4h-6.4v4.5h5.5V159.2z"/>
	<path class="st11" d="M308.2,165.1c-1.3,0-2.4-0.4-3.2-1.3c-0.8-0.9-1.2-2-1.2-3.5v-0.3c0-1,0.2-1.8,0.6-2.6
		c0.4-0.8,0.9-1.3,1.5-1.8c0.7-0.4,1.4-0.6,2.1-0.6c1.3,0,2.2,0.4,2.9,1.2c0.7,0.8,1,2,1,3.6v0.7h-6.6c0,1,0.3,1.7,0.8,2.3
		c0.5,0.6,1.2,0.9,2,0.9c0.6,0,1.1-0.1,1.5-0.4c0.4-0.2,0.8-0.6,1.1-0.9l1,0.8C311,164.5,309.8,165.1,308.2,165.1z M308,156.5
		c-0.7,0-1.2,0.2-1.7,0.7s-0.7,1.2-0.8,2h4.9v-0.1c0-0.8-0.3-1.5-0.7-2C309.2,156.7,308.6,156.5,308,156.5z"/>
	<path class="st11" d="M319.8,165c-0.1-0.2-0.2-0.5-0.2-1c-0.8,0.8-1.7,1.2-2.8,1.2c-1,0-1.7-0.3-2.3-0.8s-0.9-1.2-0.9-2.1
		c0-1,0.4-1.8,1.2-2.3c0.8-0.6,1.8-0.8,3.2-0.8h1.6v-0.8c0-0.6-0.2-1-0.5-1.4c-0.3-0.3-0.9-0.5-1.5-0.5c-0.6,0-1.1,0.1-1.5,0.4
		s-0.6,0.7-0.6,1.1h-1.7c0-0.5,0.2-1,0.5-1.4c0.3-0.5,0.8-0.8,1.4-1.1c0.6-0.3,1.2-0.4,1.9-0.4c1.1,0,2,0.3,2.6,0.8
		c0.6,0.6,1,1.3,1,2.3v4.5c0,0.9,0.1,1.6,0.3,2.1v0.1H319.8z M317.1,163.7c0.5,0,1-0.1,1.5-0.4c0.5-0.3,0.8-0.6,1-1v-2h-1.3
		c-2,0-3,0.6-3,1.8c0,0.5,0.2,0.9,0.5,1.2C316.1,163.5,316.5,163.7,317.1,163.7z"/>
	<path class="st11" d="M326.1,152.9v2.3h1.8v1.3h-1.8v6c0,0.4,0.1,0.7,0.2,0.9c0.2,0.2,0.4,0.3,0.8,0.3c0.2,0,0.5,0,0.8-0.1v1.3
		c-0.4,0.1-0.9,0.2-1.3,0.2c-0.7,0-1.3-0.2-1.7-0.7s-0.6-1.1-0.6-1.9v-6h-1.8v-1.3h1.8v-2.3H326.1z"/>
	<path class="st11" d="M335.8,164c-0.6,0.8-1.6,1.1-2.8,1.1c-1,0-1.8-0.3-2.4-0.9s-0.8-1.5-0.8-2.7v-6.3h1.7v6.3
		c0,1.5,0.6,2.2,1.8,2.2c1.3,0,2.1-0.5,2.5-1.4v-7h1.7v9.7h-1.6L335.8,164z"/>
	<path class="st11" d="M344.6,156.8c-0.3,0-0.5-0.1-0.8-0.1c-1.1,0-1.8,0.5-2.2,1.4v6.9h-1.7v-9.7h1.6l0,1.1
		c0.5-0.9,1.3-1.3,2.3-1.3c0.3,0,0.6,0,0.7,0.1V156.8z"/>
	<path class="st11" d="M350,165.1c-1.3,0-2.4-0.4-3.2-1.3c-0.8-0.9-1.2-2-1.2-3.5v-0.3c0-1,0.2-1.8,0.6-2.6c0.4-0.8,0.9-1.3,1.5-1.8
		c0.7-0.4,1.4-0.6,2.1-0.6c1.3,0,2.2,0.4,2.9,1.2c0.7,0.8,1,2,1,3.6v0.7h-6.6c0,1,0.3,1.7,0.8,2.3c0.5,0.6,1.2,0.9,2,0.9
		c0.6,0,1.1-0.1,1.5-0.4c0.4-0.2,0.8-0.6,1.1-0.9l1,0.8C352.8,164.5,351.6,165.1,350,165.1z M349.8,156.5c-0.7,0-1.2,0.2-1.7,0.7
		s-0.7,1.2-0.8,2h4.9v-0.1c0-0.8-0.3-1.5-0.7-2C351,156.7,350.5,156.5,349.8,156.5z"/>
	<path class="st11" d="M361.3,162.4c0-0.4-0.2-0.8-0.5-1c-0.3-0.2-0.9-0.5-1.8-0.6c-0.8-0.2-1.5-0.4-2-0.6c-0.5-0.3-0.9-0.5-1.1-0.9
		c-0.2-0.3-0.4-0.8-0.4-1.2c0-0.8,0.3-1.5,1-2c0.7-0.5,1.5-0.8,2.6-0.8c1.1,0,2,0.3,2.7,0.9c0.7,0.6,1,1.3,1,2.2h-1.7
		c0-0.5-0.2-0.8-0.6-1.2s-0.9-0.5-1.5-0.5c-0.6,0-1.1,0.1-1.4,0.4c-0.3,0.3-0.5,0.6-0.5,1c0,0.4,0.2,0.7,0.5,0.9
		c0.3,0.2,0.9,0.4,1.7,0.6c0.8,0.2,1.5,0.4,2,0.7c0.5,0.3,0.9,0.6,1.1,0.9c0.2,0.4,0.4,0.8,0.4,1.3c0,0.9-0.3,1.6-1,2.1
		c-0.7,0.5-1.6,0.8-2.7,0.8c-0.8,0-1.5-0.1-2.1-0.4c-0.6-0.3-1.1-0.7-1.4-1.1s-0.5-1-0.5-1.6h1.7c0,0.6,0.3,1,0.7,1.3
		c0.4,0.3,1,0.5,1.6,0.5c0.6,0,1.1-0.1,1.5-0.4C361.1,163.2,361.3,162.8,361.3,162.4z"/>
	<path class="st11" d="M379.5,160.8c-0.2,1.4-0.7,2.4-1.5,3.2c-0.9,0.7-2,1.1-3.4,1.1c-1.5,0-2.8-0.6-3.7-1.7s-1.4-2.6-1.4-4.4v-1.3
		c0-1.2,0.2-2.3,0.6-3.2s1-1.6,1.8-2.1c0.8-0.5,1.7-0.7,2.8-0.7c1.4,0,2.5,0.4,3.3,1.2c0.8,0.8,1.3,1.8,1.5,3.2h-1.7
		c-0.1-1-0.5-1.8-1-2.3c-0.5-0.5-1.2-0.7-2.1-0.7c-1.1,0-2,0.4-2.6,1.2c-0.6,0.8-0.9,2-0.9,3.5v1.3c0,1.4,0.3,2.5,0.9,3.4
		c0.6,0.8,1.4,1.3,2.5,1.3c1,0,1.7-0.2,2.2-0.6c0.5-0.4,0.8-1.2,1-2.3H379.5z"/>
	<path class="st11" d="M381.1,160c0-0.9,0.2-1.8,0.6-2.6c0.4-0.8,0.9-1.3,1.6-1.8s1.4-0.6,2.3-0.6c1.3,0,2.4,0.5,3.2,1.4
		c0.8,0.9,1.2,2.1,1.2,3.6v0.1c0,0.9-0.2,1.8-0.5,2.5c-0.4,0.7-0.9,1.3-1.5,1.8c-0.7,0.4-1.4,0.6-2.3,0.6c-1.3,0-2.4-0.5-3.2-1.4
		c-0.8-0.9-1.2-2.1-1.2-3.6V160z M382.8,160.2c0,1.1,0.3,1.9,0.7,2.6s1.2,1,2,1c0.8,0,1.5-0.3,2-1s0.7-1.6,0.7-2.8
		c0-1.1-0.3-1.9-0.8-2.6c-0.5-0.7-1.2-1-2-1c-0.8,0-1.5,0.3-2,1S382.8,159,382.8,160.2z"/>
	<path class="st11" d="M393.6,155.3l0.1,1.2c0.7-0.9,1.7-1.4,2.9-1.4c2,0,3.1,1.2,3.1,3.5v6.4H398v-6.4c0-0.7-0.2-1.2-0.5-1.5
		s-0.8-0.5-1.5-0.5c-0.5,0-1,0.1-1.4,0.4c-0.4,0.3-0.7,0.7-0.9,1.1v6.9H392v-9.7H393.6z"/>
	<path class="st11" d="M406,163.8c0.6,0,1.1-0.2,1.5-0.5s0.7-0.8,0.7-1.3h1.6c0,0.6-0.2,1.1-0.6,1.6c-0.4,0.5-0.8,0.9-1.4,1.2
		s-1.2,0.4-1.9,0.4c-1.3,0-2.4-0.4-3.1-1.3c-0.8-0.9-1.2-2.1-1.2-3.6v-0.3c0-0.9,0.2-1.8,0.5-2.5c0.3-0.7,0.8-1.3,1.5-1.7
		c0.6-0.4,1.4-0.6,2.3-0.6c1.1,0,2,0.3,2.7,1s1.1,1.5,1.2,2.5h-1.6c0-0.6-0.3-1.1-0.7-1.5c-0.4-0.4-1-0.6-1.6-0.6
		c-0.8,0-1.5,0.3-2,0.9c-0.5,0.6-0.7,1.5-0.7,2.6v0.3c0,1.1,0.2,2,0.7,2.6C404.5,163.5,405.2,163.8,406,163.8z"/>
	<path class="st11" d="M415.8,165.1c-1.3,0-2.4-0.4-3.2-1.3c-0.8-0.9-1.2-2-1.2-3.5v-0.3c0-1,0.2-1.8,0.6-2.6
		c0.4-0.8,0.9-1.3,1.5-1.8c0.7-0.4,1.4-0.6,2.1-0.6c1.3,0,2.2,0.4,2.9,1.2c0.7,0.8,1,2,1,3.6v0.7H413c0,1,0.3,1.7,0.8,2.3
		c0.5,0.6,1.2,0.9,2,0.9c0.6,0,1.1-0.1,1.5-0.4c0.4-0.2,0.8-0.6,1.1-0.9l1,0.8C418.6,164.5,417.4,165.1,415.8,165.1z M415.5,156.5
		c-0.7,0-1.2,0.2-1.7,0.7s-0.7,1.2-0.8,2h4.9v-0.1c0-0.8-0.3-1.5-0.7-2C416.8,156.7,416.2,156.5,415.5,156.5z"/>
	<path class="st11" d="M429.6,160.2c0,1.5-0.3,2.7-1,3.6c-0.7,0.9-1.6,1.4-2.7,1.4c-1.2,0-2.1-0.4-2.8-1.1v4.7h-1.7v-13.4h1.5
		l0.1,1.1c0.7-0.8,1.6-1.3,2.8-1.3c1.2,0,2.1,0.4,2.8,1.3s1,2.1,1,3.7V160.2z M428,160c0-1.1-0.2-2-0.7-2.6
		c-0.5-0.6-1.1-0.9-1.9-0.9c-1,0-1.8,0.4-2.3,1.3v4.6c0.5,0.9,1.3,1.3,2.3,1.3c0.8,0,1.4-0.3,1.9-0.9C427.7,162.2,428,161.3,428,160
		z"/>
	<path class="st11" d="M434,152.9v2.3h1.8v1.3H434v6c0,0.4,0.1,0.7,0.2,0.9c0.2,0.2,0.4,0.3,0.8,0.3c0.2,0,0.5,0,0.8-0.1v1.3
		c-0.4,0.1-0.9,0.2-1.3,0.2c-0.7,0-1.3-0.2-1.7-0.7s-0.6-1.1-0.6-1.9v-6h-1.8v-1.3h1.8v-2.3H434z"/>
	<path class="st11" d="M443.7,164c-0.6,0.8-1.6,1.1-2.8,1.1c-1,0-1.8-0.3-2.4-0.9s-0.8-1.5-0.8-2.7v-6.3h1.7v6.3
		c0,1.5,0.6,2.2,1.8,2.2c1.3,0,2.1-0.5,2.5-1.4v-7h1.7v9.7h-1.6L443.7,164z"/>
	<path class="st11" d="M453.8,165c-0.1-0.2-0.2-0.5-0.2-1c-0.8,0.8-1.7,1.2-2.8,1.2c-1,0-1.7-0.3-2.3-0.8s-0.9-1.2-0.9-2.1
		c0-1,0.4-1.8,1.2-2.3c0.8-0.6,1.8-0.8,3.2-0.8h1.6v-0.8c0-0.6-0.2-1-0.5-1.4c-0.3-0.3-0.9-0.5-1.5-0.5c-0.6,0-1.1,0.1-1.5,0.4
		s-0.6,0.7-0.6,1.1h-1.7c0-0.5,0.2-1,0.5-1.4c0.3-0.5,0.8-0.8,1.4-1.1c0.6-0.3,1.2-0.4,1.9-0.4c1.1,0,2,0.3,2.6,0.8
		c0.6,0.6,1,1.3,1,2.3v4.5c0,0.9,0.1,1.6,0.3,2.1v0.1H453.8z M451,163.7c0.5,0,1-0.1,1.5-0.4c0.5-0.3,0.8-0.6,1-1v-2h-1.3
		c-2,0-3,0.6-3,1.8c0,0.5,0.2,0.9,0.5,1.2C450.1,163.5,450.5,163.7,451,163.7z"/>
	<path class="st11" d="M459.6,165h-1.7v-13.7h1.7V165z"/>
	<path class="st11" d="M462.2,152.7c0-0.3,0.1-0.5,0.2-0.7c0.2-0.2,0.4-0.3,0.7-0.3s0.6,0.1,0.7,0.3c0.2,0.2,0.3,0.4,0.3,0.7
		s-0.1,0.5-0.3,0.7c-0.2,0.2-0.4,0.3-0.7,0.3s-0.6-0.1-0.7-0.3C462.3,153.2,462.2,153,462.2,152.7z M464,165h-1.7v-9.7h1.7V165z"/>
	<path class="st11" d="M468.2,163.6h5.7v1.4h-7.7v-1.2l5.3-7.1h-5.3v-1.4h7.3v1.2L468.2,163.6z"/>
	<path class="st11" d="M481.7,165c-0.1-0.2-0.2-0.5-0.2-1c-0.8,0.8-1.7,1.2-2.8,1.2c-1,0-1.7-0.3-2.3-0.8s-0.9-1.2-0.9-2.1
		c0-1,0.4-1.8,1.2-2.3c0.8-0.6,1.8-0.8,3.2-0.8h1.6v-0.8c0-0.6-0.2-1-0.5-1.4c-0.3-0.3-0.9-0.5-1.5-0.5c-0.6,0-1.1,0.1-1.5,0.4
		s-0.6,0.7-0.6,1.1h-1.7c0-0.5,0.2-1,0.5-1.4c0.3-0.5,0.8-0.8,1.4-1.1c0.6-0.3,1.2-0.4,1.9-0.4c1.1,0,2,0.3,2.6,0.8
		c0.6,0.6,1,1.3,1,2.3v4.5c0,0.9,0.1,1.6,0.3,2.1v0.1H481.7z M479,163.7c0.5,0,1-0.1,1.5-0.4c0.5-0.3,0.8-0.6,1-1v-2h-1.3
		c-2,0-3,0.6-3,1.8c0,0.5,0.2,0.9,0.5,1.2C478,163.5,478.5,163.7,479,163.7z"/>
	<path class="st11" d="M488,152.9v2.3h1.8v1.3H488v6c0,0.4,0.1,0.7,0.2,0.9c0.2,0.2,0.4,0.3,0.8,0.3c0.2,0,0.5,0,0.8-0.1v1.3
		c-0.4,0.1-0.9,0.2-1.3,0.2c-0.7,0-1.3-0.2-1.7-0.7s-0.6-1.1-0.6-1.9v-6h-1.8v-1.3h1.8v-2.3H488z"/>
	<path class="st11" d="M491.7,152.7c0-0.3,0.1-0.5,0.2-0.7c0.2-0.2,0.4-0.3,0.7-0.3s0.6,0.1,0.7,0.3c0.2,0.2,0.3,0.4,0.3,0.7
		s-0.1,0.5-0.3,0.7c-0.2,0.2-0.4,0.3-0.7,0.3s-0.6-0.1-0.7-0.3C491.8,153.2,491.7,153,491.7,152.7z M493.5,165h-1.7v-9.7h1.7V165z"
		/>
	<path class="st11" d="M495.7,160c0-0.9,0.2-1.8,0.6-2.6c0.4-0.8,0.9-1.3,1.6-1.8s1.4-0.6,2.3-0.6c1.3,0,2.4,0.5,3.2,1.4
		c0.8,0.9,1.2,2.1,1.2,3.6v0.1c0,0.9-0.2,1.8-0.5,2.5c-0.4,0.7-0.9,1.3-1.5,1.8c-0.7,0.4-1.4,0.6-2.3,0.6c-1.3,0-2.4-0.5-3.2-1.4
		c-0.8-0.9-1.2-2.1-1.2-3.6V160z M497.4,160.2c0,1.1,0.3,1.9,0.7,2.6s1.2,1,2,1c0.8,0,1.5-0.3,2-1s0.7-1.6,0.7-2.8
		c0-1.1-0.3-1.9-0.8-2.6c-0.5-0.7-1.2-1-2-1c-0.8,0-1.5,0.3-2,1S497.4,159,497.4,160.2z"/>
	<path class="st11" d="M508.2,155.3l0.1,1.2c0.7-0.9,1.7-1.4,2.9-1.4c2,0,3.1,1.2,3.1,3.5v6.4h-1.7v-6.4c0-0.7-0.2-1.2-0.5-1.5
		s-0.8-0.5-1.5-0.5c-0.5,0-1,0.1-1.4,0.4c-0.4,0.3-0.7,0.7-0.9,1.1v6.9h-1.7v-9.7H508.2z"/>
</g>
<g>
	<path class="st11" d="M296.3,217.2h-1.7v-13h1.7V217.2z"/>
	<path class="st11" d="M300.8,207.5l0.1,1.2c0.7-0.9,1.7-1.4,2.9-1.4c2,0,3.1,1.2,3.1,3.5v6.4h-1.7v-6.4c0-0.7-0.2-1.2-0.5-1.5
		s-0.8-0.5-1.5-0.5c-0.5,0-1,0.1-1.4,0.4c-0.4,0.3-0.7,0.7-0.9,1.1v6.9h-1.7v-9.7H300.8z"/>
	<path class="st11" d="M311.5,205.2v2.3h1.8v1.3h-1.8v6c0,0.4,0.1,0.7,0.2,0.9c0.2,0.2,0.4,0.3,0.8,0.3c0.2,0,0.5,0,0.8-0.1v1.3
		c-0.4,0.1-0.9,0.2-1.3,0.2c-0.7,0-1.3-0.2-1.7-0.7s-0.6-1.1-0.6-1.9v-6h-1.8v-1.3h1.8v-2.3H311.5z"/>
	<path class="st11" d="M319.3,217.4c-1.3,0-2.4-0.4-3.2-1.3c-0.8-0.9-1.2-2-1.2-3.5v-0.3c0-1,0.2-1.8,0.6-2.6
		c0.4-0.8,0.9-1.3,1.5-1.8c0.7-0.4,1.4-0.6,2.1-0.6c1.3,0,2.2,0.4,2.9,1.2c0.7,0.8,1,2,1,3.6v0.7h-6.6c0,1,0.3,1.7,0.8,2.3
		c0.5,0.6,1.2,0.9,2,0.9c0.6,0,1.1-0.1,1.5-0.4c0.4-0.2,0.8-0.6,1.1-0.9l1,0.8C322.1,216.7,320.9,217.4,319.3,217.4z M319.1,208.7
		c-0.7,0-1.2,0.2-1.7,0.7s-0.7,1.2-0.8,2h4.9v-0.1c0-0.8-0.3-1.5-0.7-2C320.3,208.9,319.8,208.7,319.1,208.7z"/>
	<path class="st11" d="M329.7,209c-0.3,0-0.5-0.1-0.8-0.1c-1.1,0-1.8,0.5-2.2,1.4v6.9H325v-9.7h1.6l0,1.1c0.5-0.9,1.3-1.3,2.3-1.3
		c0.3,0,0.6,0,0.7,0.1V209z"/>
	<path class="st11" d="M332.1,217.2v-8.4h-1.5v-1.3h1.5v-1c0-1,0.3-1.8,0.8-2.4s1.3-0.9,2.4-0.9c0.4,0,0.8,0.1,1.1,0.2l-0.1,1.3
		c-0.3-0.1-0.6-0.1-0.9-0.1c-0.5,0-1,0.2-1.2,0.5c-0.3,0.3-0.4,0.8-0.4,1.4v1h2.1v1.3h-2.1v8.4H332.1z"/>
	<path class="st11" d="M343.7,217.2c-0.1-0.2-0.2-0.5-0.2-1c-0.8,0.8-1.7,1.2-2.8,1.2c-1,0-1.7-0.3-2.3-0.8s-0.9-1.2-0.9-2.1
		c0-1,0.4-1.8,1.2-2.3c0.8-0.6,1.8-0.8,3.2-0.8h1.6v-0.8c0-0.6-0.2-1-0.5-1.4c-0.3-0.3-0.9-0.5-1.5-0.5c-0.6,0-1.1,0.1-1.5,0.4
		s-0.6,0.7-0.6,1.1h-1.7c0-0.5,0.2-1,0.5-1.4c0.3-0.5,0.8-0.8,1.4-1.1c0.6-0.3,1.2-0.4,1.9-0.4c1.1,0,2,0.3,2.6,0.8
		c0.6,0.6,1,1.3,1,2.3v4.5c0,0.9,0.1,1.6,0.3,2.1v0.1H343.7z M340.9,215.9c0.5,0,1-0.1,1.5-0.4c0.5-0.3,0.8-0.6,1-1v-2h-1.3
		c-2,0-3,0.6-3,1.8c0,0.5,0.2,0.9,0.5,1.2C339.9,215.8,340.4,215.9,340.9,215.9z"/>
	<path class="st11" d="M351.5,216c0.6,0,1.1-0.2,1.5-0.5s0.7-0.8,0.7-1.3h1.6c0,0.6-0.2,1.1-0.6,1.6c-0.4,0.5-0.8,0.9-1.4,1.2
		s-1.2,0.4-1.9,0.4c-1.3,0-2.4-0.4-3.1-1.3c-0.8-0.9-1.2-2.1-1.2-3.6v-0.3c0-0.9,0.2-1.8,0.5-2.5c0.3-0.7,0.8-1.3,1.5-1.7
		c0.6-0.4,1.4-0.6,2.3-0.6c1.1,0,2,0.3,2.7,1s1.1,1.5,1.2,2.5h-1.6c0-0.6-0.3-1.1-0.7-1.5c-0.4-0.4-1-0.6-1.6-0.6
		c-0.8,0-1.5,0.3-2,0.9c-0.5,0.6-0.7,1.5-0.7,2.6v0.3c0,1.1,0.2,2,0.7,2.6C350,215.7,350.7,216,351.5,216z"/>
	<path class="st11" d="M361.3,217.4c-1.3,0-2.4-0.4-3.2-1.3c-0.8-0.9-1.2-2-1.2-3.5v-0.3c0-1,0.2-1.8,0.6-2.6
		c0.4-0.8,0.9-1.3,1.5-1.8c0.7-0.4,1.4-0.6,2.1-0.6c1.3,0,2.2,0.4,2.9,1.2c0.7,0.8,1,2,1,3.6v0.7h-6.6c0,1,0.3,1.7,0.8,2.3
		c0.5,0.6,1.2,0.9,2,0.9c0.6,0,1.1-0.1,1.5-0.4c0.4-0.2,0.8-0.6,1.1-0.9l1,0.8C364.1,216.7,362.9,217.4,361.3,217.4z M361.1,208.7
		c-0.7,0-1.2,0.2-1.7,0.7s-0.7,1.2-0.8,2h4.9v-0.1c0-0.8-0.3-1.5-0.7-2C362.3,208.9,361.8,208.7,361.1,208.7z"/>
	<path class="st11" d="M371.8,217.2v-13h3.7c1.1,0,2.1,0.3,3,0.8c0.9,0.5,1.5,1.2,2,2.1s0.7,2,0.7,3.2v0.8c0,1.2-0.2,2.3-0.7,3.2
		s-1.2,1.6-2,2.1s-1.9,0.7-3.1,0.8H371.8z M373.5,205.6v10.2h1.8c1.3,0,2.4-0.4,3.1-1.2c0.7-0.8,1.1-2,1.1-3.5v-0.8
		c0-1.5-0.3-2.6-1-3.5c-0.7-0.8-1.7-1.2-3-1.2H373.5z"/>
	<path class="st11" d="M387.5,217.4c-1.3,0-2.4-0.4-3.2-1.3c-0.8-0.9-1.2-2-1.2-3.5v-0.3c0-1,0.2-1.8,0.6-2.6
		c0.4-0.8,0.9-1.3,1.5-1.8c0.7-0.4,1.4-0.6,2.1-0.6c1.3,0,2.2,0.4,2.9,1.2c0.7,0.8,1,2,1,3.6v0.7h-6.6c0,1,0.3,1.7,0.8,2.3
		c0.5,0.6,1.2,0.9,2,0.9c0.6,0,1.1-0.1,1.5-0.4c0.4-0.2,0.8-0.6,1.1-0.9l1,0.8C390.4,216.7,389.2,217.4,387.5,217.4z M387.3,208.7
		c-0.7,0-1.2,0.2-1.7,0.7s-0.7,1.2-0.8,2h4.9v-0.1c0-0.8-0.3-1.5-0.7-2C388.6,208.9,388,208.7,387.3,208.7z"/>
	<path class="st11" d="M398.9,214.6c0-0.4-0.2-0.8-0.5-1c-0.3-0.2-0.9-0.5-1.8-0.6c-0.8-0.2-1.5-0.4-2-0.6c-0.5-0.3-0.9-0.5-1.1-0.9
		c-0.2-0.3-0.4-0.8-0.4-1.2c0-0.8,0.3-1.5,1-2c0.7-0.5,1.5-0.8,2.6-0.8c1.1,0,2,0.3,2.7,0.9c0.7,0.6,1,1.3,1,2.2h-1.7
		c0-0.5-0.2-0.8-0.6-1.2s-0.9-0.5-1.5-0.5c-0.6,0-1.1,0.1-1.4,0.4c-0.3,0.3-0.5,0.6-0.5,1c0,0.4,0.2,0.7,0.5,0.9
		c0.3,0.2,0.9,0.4,1.7,0.6c0.8,0.2,1.5,0.4,2,0.7c0.5,0.3,0.9,0.6,1.1,0.9c0.2,0.4,0.4,0.8,0.4,1.3c0,0.9-0.3,1.6-1,2.1
		c-0.7,0.5-1.6,0.8-2.7,0.8c-0.8,0-1.5-0.1-2.1-0.4c-0.6-0.3-1.1-0.7-1.4-1.1s-0.5-1-0.5-1.6h1.7c0,0.6,0.3,1,0.7,1.3
		c0.4,0.3,1,0.5,1.6,0.5c0.6,0,1.1-0.1,1.5-0.4C398.7,215.4,398.9,215,398.9,214.6z"/>
	<path class="st11" d="M402.7,204.9c0-0.3,0.1-0.5,0.2-0.7c0.2-0.2,0.4-0.3,0.7-0.3s0.6,0.1,0.7,0.3c0.2,0.2,0.3,0.4,0.3,0.7
		s-0.1,0.5-0.3,0.7c-0.2,0.2-0.4,0.3-0.7,0.3s-0.6-0.1-0.7-0.3C402.8,205.4,402.7,205.2,402.7,204.9z M404.5,217.2h-1.7v-9.7h1.7
		V217.2z"/>
	<path class="st11" d="M406.7,212.3c0-1.5,0.3-2.7,1-3.6c0.7-0.9,1.6-1.3,2.8-1.3c1.2,0,2.1,0.4,2.8,1.3l0.1-1.1h1.5v9.5
		c0,1.3-0.4,2.2-1.1,3c-0.7,0.7-1.7,1.1-3,1.1c-0.7,0-1.4-0.1-2-0.4c-0.7-0.3-1.2-0.7-1.5-1.2l0.9-1c0.7,0.9,1.6,1.3,2.6,1.3
		c0.8,0,1.4-0.2,1.9-0.7c0.5-0.5,0.7-1.1,0.7-1.9v-0.8c-0.7,0.8-1.6,1.1-2.7,1.1c-1.1,0-2.1-0.5-2.8-1.4
		C407.1,215.1,406.7,213.8,406.7,212.3z M408.4,212.4c0,1.1,0.2,1.9,0.7,2.6c0.4,0.6,1.1,0.9,1.9,0.9c1,0,1.8-0.5,2.3-1.4v-4.4
		c-0.5-0.9-1.3-1.4-2.3-1.4c-0.8,0-1.4,0.3-1.9,0.9C408.6,210.3,408.4,211.2,408.4,212.4z"/>
	<path class="st11" d="M419,207.5l0.1,1.2c0.7-0.9,1.7-1.4,2.9-1.4c2,0,3.1,1.2,3.1,3.5v6.4h-1.7v-6.4c0-0.7-0.2-1.2-0.5-1.5
		s-0.8-0.5-1.5-0.5c-0.5,0-1,0.1-1.4,0.4c-0.4,0.3-0.7,0.7-0.9,1.1v6.9h-1.7v-9.7H419z"/>
	<path class="st11" d="M436.2,211.4c-1.5-0.4-2.5-0.9-3.2-1.6c-0.7-0.6-1-1.4-1-2.3c0-1,0.4-1.9,1.2-2.5s1.9-1,3.2-1
		c0.9,0,1.7,0.2,2.4,0.5c0.7,0.3,1.2,0.8,1.6,1.4c0.4,0.6,0.6,1.3,0.6,2h-1.7c0-0.8-0.3-1.4-0.8-1.9c-0.5-0.5-1.2-0.7-2.1-0.7
		c-0.8,0-1.5,0.2-2,0.6c-0.5,0.4-0.7,0.9-0.7,1.6c0,0.5,0.2,1,0.7,1.3c0.5,0.4,1.2,0.7,2.3,1c1.1,0.3,1.9,0.6,2.5,1
		c0.6,0.4,1.1,0.8,1.4,1.3c0.3,0.5,0.4,1.1,0.4,1.7c0,1.1-0.4,1.9-1.2,2.5c-0.8,0.6-1.9,1-3.3,1c-0.9,0-1.7-0.2-2.5-0.5
		c-0.8-0.3-1.4-0.8-1.8-1.4c-0.4-0.6-0.6-1.3-0.6-2h1.7c0,0.8,0.3,1.4,0.9,1.9c0.6,0.5,1.4,0.7,2.3,0.7c0.9,0,1.6-0.2,2.1-0.6
		c0.5-0.4,0.7-0.9,0.7-1.5c0-0.6-0.2-1.1-0.7-1.5S437.3,211.7,436.2,211.4z"/>
	<path class="st11" d="M445.2,205.2v2.3h1.8v1.3h-1.8v6c0,0.4,0.1,0.7,0.2,0.9c0.2,0.2,0.4,0.3,0.8,0.3c0.2,0,0.5,0,0.8-0.1v1.3
		c-0.4,0.1-0.9,0.2-1.3,0.2c-0.7,0-1.3-0.2-1.7-0.7s-0.6-1.1-0.6-1.9v-6h-1.8v-1.3h1.8v-2.3H445.2z"/>
	<path class="st11" d="M454.9,216.2c-0.6,0.8-1.6,1.1-2.8,1.1c-1,0-1.8-0.3-2.4-0.9s-0.8-1.5-0.8-2.7v-6.3h1.7v6.3
		c0,1.5,0.6,2.2,1.8,2.2c1.3,0,2.1-0.5,2.5-1.4v-7h1.7v9.7h-1.6L454.9,216.2z"/>
	<path class="st11" d="M458.6,212.3c0-1.5,0.4-2.7,1.1-3.6s1.6-1.4,2.8-1.4c1.1,0,2,0.4,2.7,1.2v-5h1.7v13.7h-1.5l-0.1-1
		c-0.7,0.8-1.6,1.2-2.8,1.2c-1.1,0-2-0.5-2.7-1.4s-1.1-2.1-1.1-3.6V212.3z M460.3,212.4c0,1.1,0.2,2,0.7,2.6
		c0.5,0.6,1.1,0.9,1.9,0.9c1,0,1.8-0.5,2.3-1.4v-4.4c-0.5-0.9-1.3-1.4-2.3-1.4c-0.8,0-1.4,0.3-1.9,0.9
		C460.5,210.3,460.3,211.2,460.3,212.4z"/>
	<path class="st11" d="M472.5,214.8l2.3-7.3h1.8l-3.9,11.2c-0.6,1.6-1.6,2.4-2.9,2.4l-0.3,0l-0.6-0.1v-1.3l0.4,0
		c0.6,0,1-0.1,1.3-0.3c0.3-0.2,0.6-0.6,0.8-1.2l0.4-1l-3.5-9.6h1.8L472.5,214.8z"/>
</g>
<g>
	<path class="st11" d="M294.5,396.3v-13h3.7c1.1,0,2.1,0.3,3,0.8c0.9,0.5,1.5,1.2,2,2.1s0.7,2,0.7,3.2v0.8c0,1.2-0.2,2.3-0.7,3.2
		s-1.2,1.6-2,2.1s-1.9,0.7-3.1,0.8H294.5z M296.2,384.7v10.2h1.8c1.3,0,2.4-0.4,3.1-1.2c0.7-0.8,1.1-2,1.1-3.5v-0.8
		c0-1.5-0.3-2.6-1-3.5c-0.7-0.8-1.7-1.2-3-1.2H296.2z"/>
	<path class="st11" d="M310.2,396.5c-1.3,0-2.4-0.4-3.2-1.3c-0.8-0.9-1.2-2-1.2-3.5v-0.3c0-1,0.2-1.8,0.6-2.6
		c0.4-0.8,0.9-1.3,1.5-1.8c0.7-0.4,1.4-0.6,2.1-0.6c1.3,0,2.2,0.4,2.9,1.2c0.7,0.8,1,2,1,3.6v0.7h-6.6c0,1,0.3,1.7,0.8,2.3
		c0.5,0.6,1.2,0.9,2,0.9c0.6,0,1.1-0.1,1.5-0.4c0.4-0.2,0.8-0.6,1.1-0.9l1,0.8C313.1,395.9,311.9,396.5,310.2,396.5z M310,387.8
		c-0.7,0-1.2,0.2-1.7,0.7s-0.7,1.2-0.8,2h4.9v-0.1c0-0.8-0.3-1.5-0.7-2C311.3,388.1,310.7,387.8,310,387.8z"/>
	<path class="st11" d="M319,394.1l2.4-7.4h1.7l-3.5,9.7h-1.3l-3.5-9.7h1.7L319,394.1z"/>
	<path class="st11" d="M328.6,396.5c-1.3,0-2.4-0.4-3.2-1.3c-0.8-0.9-1.2-2-1.2-3.5v-0.3c0-1,0.2-1.8,0.6-2.6
		c0.4-0.8,0.9-1.3,1.5-1.8c0.7-0.4,1.4-0.6,2.1-0.6c1.3,0,2.2,0.4,2.9,1.2c0.7,0.8,1,2,1,3.6v0.7h-6.6c0,1,0.3,1.7,0.8,2.3
		c0.5,0.6,1.2,0.9,2,0.9c0.6,0,1.1-0.1,1.5-0.4c0.4-0.2,0.8-0.6,1.1-0.9l1,0.8C331.4,395.9,330.2,396.5,328.6,396.5z M328.4,387.8
		c-0.7,0-1.2,0.2-1.7,0.7s-0.7,1.2-0.8,2h4.9v-0.1c0-0.8-0.3-1.5-0.7-2C329.6,388.1,329.1,387.8,328.4,387.8z"/>
	<path class="st11" d="M336.1,396.3h-1.7v-13.7h1.7V396.3z"/>
	<path class="st11" d="M338.3,391.4c0-0.9,0.2-1.8,0.6-2.6c0.4-0.8,0.9-1.3,1.6-1.8s1.4-0.6,2.3-0.6c1.3,0,2.4,0.5,3.2,1.4
		c0.8,0.9,1.2,2.1,1.2,3.6v0.1c0,0.9-0.2,1.8-0.5,2.5c-0.4,0.7-0.9,1.3-1.5,1.8c-0.7,0.4-1.4,0.6-2.3,0.6c-1.3,0-2.4-0.5-3.2-1.4
		c-0.8-0.9-1.2-2.1-1.2-3.6V391.4z M340,391.6c0,1.1,0.3,1.9,0.7,2.6s1.2,1,2,1c0.8,0,1.5-0.3,2-1s0.7-1.6,0.7-2.8
		c0-1.1-0.3-1.9-0.8-2.6c-0.5-0.7-1.2-1-2-1c-0.8,0-1.5,0.3-2,1S340,390.4,340,391.6z"/>
	<path class="st11" d="M357.4,391.6c0,1.5-0.3,2.7-1,3.6c-0.7,0.9-1.6,1.4-2.7,1.4c-1.2,0-2.1-0.4-2.8-1.1v4.7h-1.7v-13.4h1.5
		l0.1,1.1c0.7-0.8,1.6-1.3,2.8-1.3c1.2,0,2.1,0.4,2.8,1.3s1,2.1,1,3.7V391.6z M355.7,391.4c0-1.1-0.2-2-0.7-2.6
		c-0.5-0.6-1.1-0.9-1.9-0.9c-1,0-1.8,0.4-2.3,1.3v4.6c0.5,0.9,1.3,1.3,2.3,1.3c0.8,0,1.4-0.3,1.9-0.9
		C355.5,393.6,355.7,392.7,355.7,391.4z"/>
	<path class="st11" d="M361,386.7l0,1.1c0.7-0.8,1.7-1.3,2.9-1.3c1.4,0,2.3,0.5,2.8,1.6c0.3-0.5,0.7-0.8,1.3-1.1
		c0.5-0.3,1.1-0.4,1.8-0.4c2.1,0,3.2,1.1,3.2,3.4v6.5h-1.7v-6.4c0-0.7-0.2-1.2-0.5-1.6c-0.3-0.3-0.8-0.5-1.6-0.5
		c-0.6,0-1.1,0.2-1.5,0.6c-0.4,0.4-0.6,0.9-0.7,1.5v6.4h-1.7V390c0-1.4-0.7-2.1-2.1-2.1c-1.1,0-1.8,0.5-2.2,1.4v7.1h-1.7v-9.7H361z"
		/>
	<path class="st11" d="M379.6,396.5c-1.3,0-2.4-0.4-3.2-1.3c-0.8-0.9-1.2-2-1.2-3.5v-0.3c0-1,0.2-1.8,0.6-2.6
		c0.4-0.8,0.9-1.3,1.5-1.8c0.7-0.4,1.4-0.6,2.1-0.6c1.3,0,2.2,0.4,2.9,1.2c0.7,0.8,1,2,1,3.6v0.7h-6.6c0,1,0.3,1.7,0.8,2.3
		c0.5,0.6,1.2,0.9,2,0.9c0.6,0,1.1-0.1,1.5-0.4c0.4-0.2,0.8-0.6,1.1-0.9l1,0.8C382.4,395.9,381.2,396.5,379.6,396.5z M379.3,387.8
		c-0.7,0-1.2,0.2-1.7,0.7s-0.7,1.2-0.8,2h4.9v-0.1c0-0.8-0.3-1.5-0.7-2C380.6,388.1,380,387.8,379.3,387.8z"/>
	<path class="st11" d="M386.8,386.7l0.1,1.2c0.7-0.9,1.7-1.4,2.9-1.4c2,0,3.1,1.2,3.1,3.5v6.4h-1.7v-6.4c0-0.7-0.2-1.2-0.5-1.5
		s-0.8-0.5-1.5-0.5c-0.5,0-1,0.1-1.4,0.4c-0.4,0.3-0.7,0.7-0.9,1.1v6.9h-1.7v-9.7H386.8z"/>
	<path class="st11" d="M397.6,384.3v2.3h1.8v1.3h-1.8v6c0,0.4,0.1,0.7,0.2,0.9c0.2,0.2,0.4,0.3,0.8,0.3c0.2,0,0.5,0,0.8-0.1v1.3
		c-0.4,0.1-0.9,0.2-1.3,0.2c-0.7,0-1.3-0.2-1.7-0.7s-0.6-1.1-0.6-1.9v-6h-1.8v-1.3h1.8v-2.3H397.6z"/>
	<path class="st11" d="M405.4,391.4c0-0.9,0.2-1.8,0.6-2.6c0.4-0.8,0.9-1.3,1.6-1.8s1.4-0.6,2.3-0.6c1.3,0,2.4,0.5,3.2,1.4
		c0.8,0.9,1.2,2.1,1.2,3.6v0.1c0,0.9-0.2,1.8-0.5,2.5c-0.4,0.7-0.9,1.3-1.5,1.8c-0.7,0.4-1.4,0.6-2.3,0.6c-1.3,0-2.4-0.5-3.2-1.4
		c-0.8-0.9-1.2-2.1-1.2-3.6V391.4z M407.1,391.6c0,1.1,0.3,1.9,0.7,2.6s1.2,1,2,1c0.8,0,1.5-0.3,2-1s0.7-1.6,0.7-2.8
		c0-1.1-0.3-1.9-0.8-2.6c-0.5-0.7-1.2-1-2-1c-0.8,0-1.5,0.3-2,1S407.1,390.4,407.1,391.6z"/>
	<path class="st11" d="M417.1,396.3v-8.4h-1.5v-1.3h1.5v-1c0-1,0.3-1.8,0.8-2.4s1.3-0.9,2.4-0.9c0.4,0,0.8,0.1,1.1,0.2l-0.1,1.3
		c-0.3-0.1-0.6-0.1-0.9-0.1c-0.5,0-1,0.2-1.2,0.5c-0.3,0.3-0.4,0.8-0.4,1.4v1h2.1v1.3h-2.1v8.4H417.1z"/>
	<path class="st11" d="M428.8,386.7l0,1.1c0.7-0.8,1.7-1.3,2.9-1.3c1.4,0,2.3,0.5,2.8,1.6c0.3-0.5,0.7-0.8,1.3-1.1
		c0.5-0.3,1.1-0.4,1.8-0.4c2.1,0,3.2,1.1,3.2,3.4v6.5h-1.7v-6.4c0-0.7-0.2-1.2-0.5-1.6c-0.3-0.3-0.8-0.5-1.6-0.5
		c-0.6,0-1.1,0.2-1.5,0.6c-0.4,0.4-0.6,0.9-0.7,1.5v6.4h-1.7V390c0-1.4-0.7-2.1-2.1-2.1c-1.1,0-1.8,0.5-2.2,1.4v7.1h-1.7v-9.7H428.8
		z"/>
	<path class="st11" d="M449.3,396.3c-0.1-0.2-0.2-0.5-0.2-1c-0.8,0.8-1.7,1.2-2.8,1.2c-1,0-1.7-0.3-2.3-0.8s-0.9-1.2-0.9-2.1
		c0-1,0.4-1.8,1.2-2.3c0.8-0.6,1.8-0.8,3.2-0.8h1.6v-0.8c0-0.6-0.2-1-0.5-1.4c-0.3-0.3-0.9-0.5-1.5-0.5c-0.6,0-1.1,0.1-1.5,0.4
		s-0.6,0.7-0.6,1.1h-1.7c0-0.5,0.2-1,0.5-1.4c0.3-0.5,0.8-0.8,1.4-1.1c0.6-0.3,1.2-0.4,1.9-0.4c1.1,0,2,0.3,2.6,0.8
		c0.6,0.6,1,1.3,1,2.3v4.5c0,0.9,0.1,1.6,0.3,2.1v0.1H449.3z M446.5,395.1c0.5,0,1-0.1,1.5-0.4c0.5-0.3,0.8-0.6,1-1v-2h-1.3
		c-2,0-3,0.6-3,1.8c0,0.5,0.2,0.9,0.5,1.2C445.5,394.9,446,395.1,446.5,395.1z"/>
	<path class="st11" d="M454.8,386.7l0.1,1.2c0.7-0.9,1.7-1.4,2.9-1.4c2,0,3.1,1.2,3.1,3.5v6.4h-1.7v-6.4c0-0.7-0.2-1.2-0.5-1.5
		s-0.8-0.5-1.5-0.5c-0.5,0-1,0.1-1.4,0.4c-0.4,0.3-0.7,0.7-0.9,1.1v6.9h-1.7v-9.7H454.8z"/>
	<path class="st11" d="M466.6,393.9l2.3-7.3h1.8l-3.9,11.2c-0.6,1.6-1.6,2.4-2.9,2.4l-0.3,0l-0.6-0.1v-1.3l0.4,0
		c0.6,0,1-0.1,1.3-0.3c0.3-0.2,0.6-0.6,0.8-1.2l0.4-1l-3.5-9.6h1.8L466.6,393.9z"/>
	<path class="st11" d="M479.8,394.1l2.4-7.4h1.7l-3.5,9.7h-1.3l-3.5-9.7h1.7L479.8,394.1z"/>
	<path class="st11" d="M489.4,396.5c-1.3,0-2.4-0.4-3.2-1.3c-0.8-0.9-1.2-2-1.2-3.5v-0.3c0-1,0.2-1.8,0.6-2.6
		c0.4-0.8,0.9-1.3,1.5-1.8c0.7-0.4,1.4-0.6,2.1-0.6c1.3,0,2.2,0.4,2.9,1.2c0.7,0.8,1,2,1,3.6v0.7h-6.6c0,1,0.3,1.7,0.8,2.3
		c0.5,0.6,1.2,0.9,2,0.9c0.6,0,1.1-0.1,1.5-0.4c0.4-0.2,0.8-0.6,1.1-0.9l1,0.8C492.2,395.9,491,396.5,489.4,396.5z M489.2,387.8
		c-0.7,0-1.2,0.2-1.7,0.7s-0.7,1.2-0.8,2h4.9v-0.1c0-0.8-0.3-1.5-0.7-2C490.4,388.1,489.9,387.8,489.2,387.8z"/>
	<path class="st11" d="M499.7,388.1c-0.3,0-0.5-0.1-0.8-0.1c-1.1,0-1.8,0.5-2.2,1.4v6.9h-1.7v-9.7h1.6l0,1.1
		c0.5-0.9,1.3-1.3,2.3-1.3c0.3,0,0.6,0,0.7,0.1V388.1z"/>
	<path class="st11" d="M506.9,393.8c0-0.4-0.2-0.8-0.5-1c-0.3-0.2-0.9-0.5-1.8-0.6c-0.8-0.2-1.5-0.4-2-0.6c-0.5-0.3-0.9-0.5-1.1-0.9
		c-0.2-0.3-0.4-0.8-0.4-1.2c0-0.8,0.3-1.5,1-2c0.7-0.5,1.5-0.8,2.6-0.8c1.1,0,2,0.3,2.7,0.9c0.7,0.6,1,1.3,1,2.2h-1.7
		c0-0.5-0.2-0.8-0.6-1.2s-0.9-0.5-1.5-0.5c-0.6,0-1.1,0.1-1.4,0.4c-0.3,0.3-0.5,0.6-0.5,1c0,0.4,0.2,0.7,0.5,0.9
		c0.3,0.2,0.9,0.4,1.7,0.6c0.8,0.2,1.5,0.4,2,0.7c0.5,0.3,0.9,0.6,1.1,0.9c0.2,0.4,0.4,0.8,0.4,1.3c0,0.9-0.3,1.6-1,2.1
		c-0.7,0.5-1.6,0.8-2.7,0.8c-0.8,0-1.5-0.1-2.1-0.4c-0.6-0.3-1.1-0.7-1.4-1.1s-0.5-1-0.5-1.6h1.7c0,0.6,0.3,1,0.7,1.3
		c0.4,0.3,1,0.5,1.6,0.5c0.6,0,1.1-0.1,1.5-0.4C506.7,394.5,506.9,394.2,506.9,393.8z"/>
	<path class="st11" d="M510.7,384.1c0-0.3,0.1-0.5,0.2-0.7c0.2-0.2,0.4-0.3,0.7-0.3s0.6,0.1,0.7,0.3c0.2,0.2,0.3,0.4,0.3,0.7
		s-0.1,0.5-0.3,0.7c-0.2,0.2-0.4,0.3-0.7,0.3s-0.6-0.1-0.7-0.3C510.8,384.6,510.7,384.3,510.7,384.1z M512.5,396.3h-1.7v-9.7h1.7
		V396.3z"/>
	<path class="st11" d="M514.7,391.4c0-0.9,0.2-1.8,0.6-2.6c0.4-0.8,0.9-1.3,1.6-1.8s1.4-0.6,2.3-0.6c1.3,0,2.4,0.5,3.2,1.4
		c0.8,0.9,1.2,2.1,1.2,3.6v0.1c0,0.9-0.2,1.8-0.5,2.5c-0.4,0.7-0.9,1.3-1.5,1.8c-0.7,0.4-1.4,0.6-2.3,0.6c-1.3,0-2.4-0.5-3.2-1.4
		c-0.8-0.9-1.2-2.1-1.2-3.6V391.4z M516.4,391.6c0,1.1,0.3,1.9,0.7,2.6s1.2,1,2,1c0.8,0,1.5-0.3,2-1s0.7-1.6,0.7-2.8
		c0-1.1-0.3-1.9-0.8-2.6c-0.5-0.7-1.2-1-2-1c-0.8,0-1.5,0.3-2,1S516.4,390.4,516.4,391.6z"/>
	<path class="st11" d="M527.2,386.7l0.1,1.2c0.7-0.9,1.7-1.4,2.9-1.4c2,0,3.1,1.2,3.1,3.5v6.4h-1.7v-6.4c0-0.7-0.2-1.2-0.5-1.5
		s-0.8-0.5-1.5-0.5c-0.5,0-1,0.1-1.4,0.4c-0.4,0.3-0.7,0.7-0.9,1.1v6.9h-1.7v-9.7H527.2z"/>
	<path class="st11" d="M541.4,393.8c0-0.4-0.2-0.8-0.5-1c-0.3-0.2-0.9-0.5-1.8-0.6c-0.8-0.2-1.5-0.4-2-0.6c-0.5-0.3-0.9-0.5-1.1-0.9
		c-0.2-0.3-0.4-0.8-0.4-1.2c0-0.8,0.3-1.5,1-2c0.7-0.5,1.5-0.8,2.6-0.8c1.1,0,2,0.3,2.7,0.9c0.7,0.6,1,1.3,1,2.2h-1.7
		c0-0.5-0.2-0.8-0.6-1.2s-0.9-0.5-1.5-0.5c-0.6,0-1.1,0.1-1.4,0.4c-0.3,0.3-0.5,0.6-0.5,1c0,0.4,0.2,0.7,0.5,0.9
		c0.3,0.2,0.9,0.4,1.7,0.6c0.8,0.2,1.5,0.4,2,0.7c0.5,0.3,0.9,0.6,1.1,0.9c0.2,0.4,0.4,0.8,0.4,1.3c0,0.9-0.3,1.6-1,2.1
		c-0.7,0.5-1.6,0.8-2.7,0.8c-0.8,0-1.5-0.1-2.1-0.4c-0.6-0.3-1.1-0.7-1.4-1.1s-0.5-1-0.5-1.6h1.7c0,0.6,0.3,1,0.7,1.3
		c0.4,0.3,1,0.5,1.6,0.5c0.6,0,1.1-0.1,1.5-0.4C541.2,394.5,541.4,394.2,541.4,393.8z"/>
	<path class="st11" d="M294.2,406.1c0-0.3,0.1-0.5,0.2-0.7c0.2-0.2,0.4-0.3,0.7-0.3s0.6,0.1,0.7,0.3c0.2,0.2,0.3,0.4,0.3,0.7
		s-0.1,0.5-0.3,0.7c-0.2,0.2-0.4,0.3-0.7,0.3s-0.6-0.1-0.7-0.3C294.3,406.6,294.2,406.3,294.2,406.1z M296,418.3h-1.7v-9.7h1.7
		V418.3z"/>
	<path class="st11" d="M300.2,408.6l0.1,1.2c0.7-0.9,1.7-1.4,2.9-1.4c2,0,3.1,1.2,3.1,3.5v6.4h-1.7v-6.4c0-0.7-0.2-1.2-0.5-1.5
		c-0.3-0.3-0.8-0.5-1.5-0.5c-0.5,0-1,0.1-1.4,0.4c-0.4,0.3-0.7,0.7-0.9,1.1v6.9h-1.7v-9.7H300.2z"/>
	<path class="st11" d="M323.6,418.3h-1.7v-6h-6.6v6h-1.7v-13h1.7v5.6h6.6v-5.6h1.7V418.3z"/>
	<path class="st11" d="M335.4,406.7h-4.2v11.6h-1.7v-11.6h-4.2v-1.4h10.1V406.7z"/>
	<path class="st11" d="M339.5,405.3l4.3,10.6l4.3-10.6h2.2v13h-1.7v-5.1l0.2-5.5l-4.3,10.6h-1.3l-4.3-10.5l0.2,5.4v5.1h-1.7v-13
		H339.5z"/>
	<path class="st11" d="M355,416.9h6.2v1.4h-7.9v-13h1.7V416.9z"/>
	<path class="st11" d="M362.9,420.9l-0.9-0.6c0.6-0.8,0.9-1.6,0.9-2.4v-1.5h1.6v1.3c0,0.6-0.1,1.2-0.4,1.8S363.3,420.6,362.9,420.9z
		"/>
	<path class="st11" d="M380.9,414.2c-0.2,1.4-0.7,2.4-1.5,3.2c-0.9,0.7-2,1.1-3.4,1.1c-1.5,0-2.8-0.6-3.7-1.7
		c-0.9-1.1-1.4-2.6-1.4-4.4v-1.3c0-1.2,0.2-2.3,0.6-3.2s1-1.6,1.8-2.1c0.8-0.5,1.7-0.7,2.8-0.7c1.4,0,2.5,0.4,3.3,1.2
		c0.8,0.8,1.3,1.8,1.5,3.2h-1.7c-0.1-1-0.5-1.8-1-2.3c-0.5-0.5-1.2-0.7-2.1-0.7c-1.1,0-2,0.4-2.6,1.2c-0.6,0.8-0.9,2-0.9,3.5v1.3
		c0,1.4,0.3,2.5,0.9,3.4c0.6,0.8,1.4,1.3,2.5,1.3c1,0,1.7-0.2,2.2-0.6c0.5-0.4,0.8-1.2,1-2.3H380.9z"/>
	<path class="st11" d="M387.1,412.5c-1.5-0.4-2.5-0.9-3.2-1.6c-0.7-0.6-1-1.4-1-2.3c0-1,0.4-1.9,1.2-2.5s1.9-1,3.2-1
		c0.9,0,1.7,0.2,2.4,0.5c0.7,0.3,1.2,0.8,1.6,1.4c0.4,0.6,0.6,1.3,0.6,2h-1.7c0-0.8-0.3-1.4-0.8-1.9c-0.5-0.5-1.2-0.7-2.1-0.7
		c-0.8,0-1.5,0.2-2,0.6c-0.5,0.4-0.7,0.9-0.7,1.6c0,0.5,0.2,1,0.7,1.3c0.5,0.4,1.2,0.7,2.3,1s1.9,0.6,2.5,1c0.6,0.4,1.1,0.8,1.4,1.3
		c0.3,0.5,0.4,1.1,0.4,1.7c0,1.1-0.4,1.9-1.2,2.5c-0.8,0.6-1.9,1-3.3,1c-0.9,0-1.7-0.2-2.5-0.5c-0.8-0.3-1.4-0.8-1.8-1.4
		c-0.4-0.6-0.6-1.3-0.6-2h1.7c0,0.8,0.3,1.4,0.9,1.9c0.6,0.5,1.4,0.7,2.3,0.7c0.9,0,1.6-0.2,2.1-0.6c0.5-0.4,0.7-0.9,0.7-1.5
		s-0.2-1.1-0.7-1.5C389.1,413.2,388.2,412.9,387.1,412.5z"/>
	<path class="st11" d="M397.9,412.5c-1.5-0.4-2.5-0.9-3.2-1.6c-0.7-0.6-1-1.4-1-2.3c0-1,0.4-1.9,1.2-2.5s1.9-1,3.2-1
		c0.9,0,1.7,0.2,2.4,0.5c0.7,0.3,1.2,0.8,1.6,1.4c0.4,0.6,0.6,1.3,0.6,2H401c0-0.8-0.3-1.4-0.8-1.9c-0.5-0.5-1.2-0.7-2.1-0.7
		c-0.8,0-1.5,0.2-2,0.6c-0.5,0.4-0.7,0.9-0.7,1.6c0,0.5,0.2,1,0.7,1.3c0.5,0.4,1.2,0.7,2.3,1s1.9,0.6,2.5,1c0.6,0.4,1.1,0.8,1.4,1.3
		c0.3,0.5,0.4,1.1,0.4,1.7c0,1.1-0.4,1.9-1.2,2.5c-0.8,0.6-1.9,1-3.3,1c-0.9,0-1.7-0.2-2.5-0.5c-0.8-0.3-1.4-0.8-1.8-1.4
		c-0.4-0.6-0.6-1.3-0.6-2h1.7c0,0.8,0.3,1.4,0.9,1.9c0.6,0.5,1.4,0.7,2.3,0.7c0.9,0,1.6-0.2,2.1-0.6c0.5-0.4,0.7-0.9,0.7-1.5
		s-0.2-1.1-0.7-1.5C399.9,413.2,399.1,412.9,397.9,412.5z"/>
	<path class="st11" d="M415.2,418.3c-0.1-0.2-0.2-0.5-0.2-1c-0.8,0.8-1.7,1.2-2.8,1.2c-1,0-1.7-0.3-2.3-0.8s-0.9-1.2-0.9-2.1
		c0-1,0.4-1.8,1.2-2.3c0.8-0.6,1.8-0.8,3.2-0.8h1.6v-0.8c0-0.6-0.2-1-0.5-1.4c-0.3-0.3-0.9-0.5-1.5-0.5c-0.6,0-1.1,0.1-1.5,0.4
		s-0.6,0.7-0.6,1.1h-1.7c0-0.5,0.2-1,0.5-1.4c0.3-0.5,0.8-0.8,1.4-1.1c0.6-0.3,1.2-0.4,1.9-0.4c1.1,0,2,0.3,2.6,0.8
		c0.6,0.6,1,1.3,1,2.3v4.5c0,0.9,0.1,1.6,0.3,2.1v0.1H415.2z M412.5,417.1c0.5,0,1-0.1,1.5-0.4c0.5-0.3,0.8-0.6,1-1v-2h-1.3
		c-2,0-3,0.6-3,1.8c0,0.5,0.2,0.9,0.5,1.2C411.5,416.9,411.9,417.1,412.5,417.1z"/>
	<path class="st11" d="M420.8,408.6l0.1,1.2c0.7-0.9,1.7-1.4,2.9-1.4c2,0,3.1,1.2,3.1,3.5v6.4h-1.7v-6.4c0-0.7-0.2-1.2-0.5-1.5
		c-0.3-0.3-0.8-0.5-1.5-0.5c-0.5,0-1,0.1-1.4,0.4c-0.4,0.3-0.7,0.7-0.9,1.1v6.9h-1.7v-9.7H420.8z"/>
	<path class="st11" d="M428.9,413.4c0-1.5,0.4-2.7,1.1-3.6c0.7-0.9,1.6-1.4,2.8-1.4c1.1,0,2,0.4,2.7,1.2v-5h1.7v13.7h-1.5l-0.1-1
		c-0.7,0.8-1.6,1.2-2.8,1.2c-1.1,0-2-0.5-2.7-1.4s-1.1-2.1-1.1-3.6V413.4z M430.6,413.6c0,1.1,0.2,2,0.7,2.6
		c0.5,0.6,1.1,0.9,1.9,0.9c1,0,1.8-0.5,2.3-1.4v-4.4c-0.5-0.9-1.3-1.4-2.3-1.4c-0.8,0-1.4,0.3-1.9,0.9
		C430.8,411.4,430.6,412.4,430.6,413.6z"/>
	<path class="st11" d="M449.9,405.3h1.7v9.2c0,1.2-0.4,2.2-1.1,2.9c-0.7,0.7-1.7,1.1-3,1.1c-1.3,0-2.3-0.3-3-1
		c-0.7-0.7-1.1-1.6-1.1-2.8h1.7c0,0.7,0.2,1.3,0.6,1.7c0.4,0.4,1,0.6,1.8,0.6c0.7,0,1.3-0.2,1.7-0.7c0.4-0.4,0.7-1.1,0.7-1.9V405.3z
		"/>
	<path class="st11" d="M460.3,418.3c-0.1-0.2-0.2-0.5-0.2-1c-0.8,0.8-1.7,1.2-2.8,1.2c-1,0-1.7-0.3-2.3-0.8s-0.9-1.2-0.9-2.1
		c0-1,0.4-1.8,1.2-2.3c0.8-0.6,1.8-0.8,3.2-0.8h1.6v-0.8c0-0.6-0.2-1-0.5-1.4c-0.3-0.3-0.9-0.5-1.5-0.5c-0.6,0-1.1,0.1-1.5,0.4
		s-0.6,0.7-0.6,1.1h-1.7c0-0.5,0.2-1,0.5-1.4c0.3-0.5,0.8-0.8,1.4-1.1c0.6-0.3,1.2-0.4,1.9-0.4c1.1,0,2,0.3,2.6,0.8
		c0.6,0.6,1,1.3,1,2.3v4.5c0,0.9,0.1,1.6,0.3,2.1v0.1H460.3z M457.6,417.1c0.5,0,1-0.1,1.5-0.4c0.5-0.3,0.8-0.6,1-1v-2h-1.3
		c-2,0-3,0.6-3,1.8c0,0.5,0.2,0.9,0.5,1.2C456.6,416.9,457,417.1,457.6,417.1z"/>
	<path class="st11" d="M467.4,416.1l2.4-7.4h1.7l-3.5,9.7h-1.3l-3.5-9.7h1.7L467.4,416.1z"/>
	<path class="st11" d="M478.9,418.3c-0.1-0.2-0.2-0.5-0.2-1c-0.8,0.8-1.7,1.2-2.8,1.2c-1,0-1.7-0.3-2.3-0.8s-0.9-1.2-0.9-2.1
		c0-1,0.4-1.8,1.2-2.3c0.8-0.6,1.8-0.8,3.2-0.8h1.6v-0.8c0-0.6-0.2-1-0.5-1.4c-0.3-0.3-0.9-0.5-1.5-0.5c-0.6,0-1.1,0.1-1.5,0.4
		s-0.6,0.7-0.6,1.1h-1.7c0-0.5,0.2-1,0.5-1.4c0.3-0.5,0.8-0.8,1.4-1.1c0.6-0.3,1.2-0.4,1.9-0.4c1.1,0,2,0.3,2.6,0.8
		c0.6,0.6,1,1.3,1,2.3v4.5c0,0.9,0.1,1.6,0.3,2.1v0.1H478.9z M476.1,417.1c0.5,0,1-0.1,1.5-0.4c0.5-0.3,0.8-0.6,1-1v-2h-1.3
		c-2,0-3,0.6-3,1.8c0,0.5,0.2,0.9,0.5,1.2C475.1,416.9,475.6,417.1,476.1,417.1z"/>
	<path class="st11" d="M487,412.5c-1.5-0.4-2.5-0.9-3.2-1.6c-0.7-0.6-1-1.4-1-2.3c0-1,0.4-1.9,1.2-2.5s1.9-1,3.2-1
		c0.9,0,1.7,0.2,2.4,0.5c0.7,0.3,1.2,0.8,1.6,1.4c0.4,0.6,0.6,1.3,0.6,2h-1.7c0-0.8-0.3-1.4-0.8-1.9c-0.5-0.5-1.2-0.7-2.1-0.7
		c-0.8,0-1.5,0.2-2,0.6c-0.5,0.4-0.7,0.9-0.7,1.6c0,0.5,0.2,1,0.7,1.3c0.5,0.4,1.2,0.7,2.3,1s1.9,0.6,2.5,1c0.6,0.4,1.1,0.8,1.4,1.3
		c0.3,0.5,0.4,1.1,0.4,1.7c0,1.1-0.4,1.9-1.2,2.5c-0.8,0.6-1.9,1-3.3,1c-0.9,0-1.7-0.2-2.5-0.5c-0.8-0.3-1.4-0.8-1.8-1.4
		c-0.4-0.6-0.6-1.3-0.6-2h1.7c0,0.8,0.3,1.4,0.9,1.9c0.6,0.5,1.4,0.7,2.3,0.7c0.9,0,1.6-0.2,2.1-0.6c0.5-0.4,0.7-0.9,0.7-1.5
		s-0.2-1.1-0.7-1.5C489,413.2,488.1,412.9,487,412.5z"/>
	<path class="st11" d="M497.6,417.2c0.6,0,1.1-0.2,1.5-0.5c0.4-0.4,0.7-0.8,0.7-1.3h1.6c0,0.6-0.2,1.1-0.6,1.6
		c-0.4,0.5-0.8,0.9-1.4,1.2c-0.6,0.3-1.2,0.4-1.9,0.4c-1.3,0-2.4-0.4-3.1-1.3s-1.2-2.1-1.2-3.6v-0.3c0-0.9,0.2-1.8,0.5-2.5
		c0.3-0.7,0.8-1.3,1.5-1.7c0.6-0.4,1.4-0.6,2.3-0.6c1.1,0,2,0.3,2.7,1s1.1,1.5,1.2,2.5h-1.6c0-0.6-0.3-1.1-0.7-1.5
		c-0.4-0.4-1-0.6-1.6-0.6c-0.8,0-1.5,0.3-2,0.9c-0.5,0.6-0.7,1.5-0.7,2.6v0.3c0,1.1,0.2,2,0.7,2.6
		C496.1,416.9,496.8,417.2,497.6,417.2z"/>
	<path class="st11" d="M508,410.1c-0.3,0-0.5-0.1-0.8-0.1c-1.1,0-1.8,0.5-2.2,1.4v6.9h-1.7v-9.7h1.6l0,1.1c0.5-0.9,1.3-1.3,2.3-1.3
		c0.3,0,0.6,0,0.7,0.1V410.1z"/>
	<path class="st11" d="M509.6,406.1c0-0.3,0.1-0.5,0.2-0.7c0.2-0.2,0.4-0.3,0.7-0.3s0.6,0.1,0.7,0.3c0.2,0.2,0.3,0.4,0.3,0.7
		s-0.1,0.5-0.3,0.7c-0.2,0.2-0.4,0.3-0.7,0.3s-0.6-0.1-0.7-0.3C509.6,406.6,509.6,406.3,509.6,406.1z M511.3,418.3h-1.7v-9.7h1.7
		V418.3z"/>
	<path class="st11" d="M522.2,413.6c0,1.5-0.3,2.7-1,3.6c-0.7,0.9-1.6,1.4-2.7,1.4c-1.2,0-2.1-0.4-2.8-1.1v4.7H514v-13.4h1.5
		l0.1,1.1c0.7-0.8,1.6-1.3,2.8-1.3c1.2,0,2.1,0.4,2.8,1.3s1,2.1,1,3.7V413.6z M520.5,413.4c0-1.1-0.2-2-0.7-2.6
		c-0.5-0.6-1.1-0.9-1.9-0.9c-1,0-1.8,0.4-2.3,1.3v4.6c0.5,0.9,1.3,1.3,2.3,1.3c0.8,0,1.4-0.3,1.9-0.9
		C520.3,415.6,520.5,414.6,520.5,413.4z"/>
	<path class="st11" d="M526.5,406.3v2.3h1.8v1.3h-1.8v6c0,0.4,0.1,0.7,0.2,0.9c0.2,0.2,0.4,0.3,0.8,0.3c0.2,0,0.5,0,0.8-0.1v1.3
		c-0.4,0.1-0.9,0.2-1.3,0.2c-0.7,0-1.3-0.2-1.7-0.7s-0.6-1.1-0.6-1.9v-6h-1.8v-1.3h1.8v-2.3H526.5z"/>
</g>
<g>
	<path class="st11" d="M299.2,464.4h-3.1v5.3h-1.7v-13h4.3c1.5,0,2.6,0.3,3.4,1c0.8,0.7,1.2,1.6,1.2,2.9c0,0.8-0.2,1.5-0.7,2.1
		c-0.4,0.6-1,1.1-1.8,1.4l3.1,5.5v0.1h-1.8L299.2,464.4z M296.2,463h2.6c0.9,0,1.5-0.2,2-0.7c0.5-0.4,0.8-1,0.8-1.8
		c0-0.8-0.2-1.4-0.7-1.9c-0.5-0.4-1.2-0.6-2.1-0.7h-2.6V463z"/>
	<path class="st11" d="M309.5,469.8c-1.3,0-2.4-0.4-3.2-1.3s-1.2-2-1.2-3.5v-0.3c0-1,0.2-1.8,0.6-2.6c0.4-0.8,0.9-1.3,1.5-1.8
		s1.4-0.6,2.1-0.6c1.3,0,2.2,0.4,2.9,1.2c0.7,0.8,1,2,1,3.6v0.7h-6.6c0,1,0.3,1.7,0.8,2.3c0.5,0.6,1.2,0.9,2,0.9
		c0.6,0,1.1-0.1,1.5-0.4c0.4-0.2,0.8-0.6,1.1-0.9l1,0.8C312.3,469.2,311.1,469.8,309.5,469.8z M309.3,461.2c-0.7,0-1.2,0.2-1.7,0.7
		s-0.7,1.2-0.8,2h4.9v-0.1c0-0.8-0.3-1.5-0.7-2C310.5,461.4,310,461.2,309.3,461.2z"/>
	<path class="st11" d="M316,469.7v-8.4h-1.5V460h1.5v-1c0-1,0.3-1.8,0.8-2.4c0.6-0.6,1.3-0.9,2.4-0.9c0.4,0,0.8,0.1,1.1,0.2
		l-0.1,1.3c-0.3-0.1-0.6-0.1-0.9-0.1c-0.5,0-1,0.2-1.2,0.5c-0.3,0.3-0.4,0.8-0.4,1.4v1h2.1v1.3h-2.1v8.4H316z"/>
	<path class="st11" d="M321.6,457.4c0-0.3,0.1-0.5,0.2-0.7c0.2-0.2,0.4-0.3,0.7-0.3s0.6,0.1,0.7,0.3c0.2,0.2,0.3,0.4,0.3,0.7
		s-0.1,0.5-0.3,0.7c-0.2,0.2-0.4,0.3-0.7,0.3s-0.6-0.1-0.7-0.3S321.6,457.7,321.6,457.4z M323.4,469.7h-1.7V460h1.7V469.7z"/>
	<path class="st11" d="M327.6,460l0.1,1.2c0.7-0.9,1.7-1.4,2.9-1.4c2,0,3.1,1.2,3.1,3.5v6.4H332v-6.4c0-0.7-0.2-1.2-0.5-1.5
		s-0.8-0.5-1.5-0.5c-0.5,0-1,0.1-1.4,0.4c-0.4,0.3-0.7,0.7-0.9,1.1v6.9H326V460H327.6z"/>
	<path class="st11" d="M340.1,469.8c-1.3,0-2.4-0.4-3.2-1.3s-1.2-2-1.2-3.5v-0.3c0-1,0.2-1.8,0.6-2.6c0.4-0.8,0.9-1.3,1.5-1.8
		s1.4-0.6,2.1-0.6c1.3,0,2.2,0.4,2.9,1.2c0.7,0.8,1,2,1,3.6v0.7h-6.6c0,1,0.3,1.7,0.8,2.3c0.5,0.6,1.2,0.9,2,0.9
		c0.6,0,1.1-0.1,1.5-0.4c0.4-0.2,0.8-0.6,1.1-0.9l1,0.8C343,469.2,341.8,469.8,340.1,469.8z M339.9,461.2c-0.7,0-1.2,0.2-1.7,0.7
		s-0.7,1.2-0.8,2h4.9v-0.1c0-0.8-0.3-1.5-0.7-2C341.2,461.4,340.6,461.2,339.9,461.2z"/>
	<path class="st11" d="M347.4,460l0,1.1c0.7-0.8,1.7-1.3,2.9-1.3c1.4,0,2.3,0.5,2.8,1.6c0.3-0.5,0.7-0.8,1.3-1.1
		c0.5-0.3,1.1-0.4,1.8-0.4c2.1,0,3.2,1.1,3.2,3.4v6.5h-1.7v-6.4c0-0.7-0.2-1.2-0.5-1.6c-0.3-0.3-0.8-0.5-1.6-0.5
		c-0.6,0-1.1,0.2-1.5,0.5c-0.4,0.4-0.6,0.9-0.7,1.5v6.4h-1.7v-6.3c0-1.4-0.7-2.1-2.1-2.1c-1.1,0-1.8,0.5-2.2,1.4v7.1h-1.7V460H347.4
		z"/>
	<path class="st11" d="M365.9,469.8c-1.3,0-2.4-0.4-3.2-1.3s-1.2-2-1.2-3.5v-0.3c0-1,0.2-1.8,0.6-2.6c0.4-0.8,0.9-1.3,1.5-1.8
		s1.4-0.6,2.1-0.6c1.3,0,2.2,0.4,2.9,1.2c0.7,0.8,1,2,1,3.6v0.7h-6.6c0,1,0.3,1.7,0.8,2.3c0.5,0.6,1.2,0.9,2,0.9
		c0.6,0,1.1-0.1,1.5-0.4c0.4-0.2,0.8-0.6,1.1-0.9l1,0.8C368.8,469.2,367.5,469.8,365.9,469.8z M365.7,461.2c-0.7,0-1.2,0.2-1.7,0.7
		s-0.7,1.2-0.8,2h4.9v-0.1c0-0.8-0.3-1.5-0.7-2C366.9,461.4,366.4,461.2,365.7,461.2z"/>
	<path class="st11" d="M373.2,460l0.1,1.2c0.7-0.9,1.7-1.4,2.9-1.4c2,0,3.1,1.2,3.1,3.5v6.4h-1.7v-6.4c0-0.7-0.2-1.2-0.5-1.5
		s-0.8-0.5-1.5-0.5c-0.5,0-1,0.1-1.4,0.4c-0.4,0.3-0.7,0.7-0.9,1.1v6.9h-1.7V460H373.2z"/>
	<path class="st11" d="M384,457.6v2.3h1.8v1.3H384v6c0,0.4,0.1,0.7,0.2,0.9s0.4,0.3,0.8,0.3c0.2,0,0.5,0,0.8-0.1v1.3
		c-0.4,0.1-0.9,0.2-1.3,0.2c-0.7,0-1.3-0.2-1.7-0.7s-0.6-1.1-0.6-1.9v-6h-1.8V460h1.8v-2.3H384z"/>
	<path class="st11" d="M391.8,464.7c0-0.9,0.2-1.8,0.6-2.6c0.4-0.8,0.9-1.3,1.6-1.8c0.7-0.4,1.4-0.6,2.3-0.6c1.3,0,2.4,0.5,3.2,1.4
		s1.2,2.1,1.2,3.6v0.1c0,0.9-0.2,1.8-0.5,2.5c-0.4,0.7-0.9,1.3-1.5,1.8c-0.7,0.4-1.4,0.6-2.3,0.6c-1.3,0-2.4-0.5-3.2-1.4
		s-1.2-2.1-1.2-3.6V464.7z M393.5,464.9c0,1.1,0.3,1.9,0.7,2.6s1.2,1,2,1c0.8,0,1.5-0.3,2-1s0.7-1.6,0.7-2.8c0-1.1-0.3-1.9-0.8-2.6
		c-0.5-0.7-1.2-1-2-1c-0.8,0-1.5,0.3-2,1S393.5,463.7,393.5,464.9z"/>
	<path class="st11" d="M403.5,469.7v-8.4H402V460h1.5v-1c0-1,0.3-1.8,0.8-2.4c0.6-0.6,1.3-0.9,2.4-0.9c0.4,0,0.8,0.1,1.1,0.2
		l-0.1,1.3c-0.3-0.1-0.6-0.1-0.9-0.1c-0.5,0-1,0.2-1.2,0.5c-0.3,0.3-0.4,0.8-0.4,1.4v1h2.1v1.3h-2.1v8.4H403.5z"/>
	<path class="st11" d="M415.8,457.6v2.3h1.8v1.3h-1.8v6c0,0.4,0.1,0.7,0.2,0.9s0.4,0.3,0.8,0.3c0.2,0,0.5,0,0.8-0.1v1.3
		c-0.4,0.1-0.9,0.2-1.3,0.2c-0.7,0-1.3-0.2-1.7-0.7s-0.6-1.1-0.6-1.9v-6h-1.8V460h1.8v-2.3H415.8z"/>
	<path class="st11" d="M421.2,461.2c0.7-0.9,1.7-1.4,2.9-1.4c2,0,3.1,1.2,3.1,3.5v6.4h-1.7v-6.4c0-0.7-0.2-1.2-0.5-1.5
		s-0.8-0.5-1.5-0.5c-0.5,0-1,0.1-1.4,0.4c-0.4,0.3-0.7,0.7-0.9,1.1v6.9h-1.7v-13.7h1.7V461.2z"/>
	<path class="st11" d="M433.7,469.8c-1.3,0-2.4-0.4-3.2-1.3s-1.2-2-1.2-3.5v-0.3c0-1,0.2-1.8,0.6-2.6c0.4-0.8,0.9-1.3,1.5-1.8
		s1.4-0.6,2.1-0.6c1.3,0,2.2,0.4,2.9,1.2c0.7,0.8,1,2,1,3.6v0.7h-6.6c0,1,0.3,1.7,0.8,2.3c0.5,0.6,1.2,0.9,2,0.9
		c0.6,0,1.1-0.1,1.5-0.4c0.4-0.2,0.8-0.6,1.1-0.9l1,0.8C436.5,469.2,435.3,469.8,433.7,469.8z M433.5,461.2c-0.7,0-1.2,0.2-1.7,0.7
		s-0.7,1.2-0.8,2h4.9v-0.1c0-0.8-0.3-1.5-0.7-2C434.7,461.4,434.2,461.2,433.5,461.2z"/>
	<path class="st11" d="M452.1,464.9c0,1.5-0.3,2.7-1,3.6c-0.7,0.9-1.6,1.4-2.7,1.4c-1.2,0-2.1-0.4-2.8-1.1v4.7h-1.7V460h1.5l0.1,1.1
		c0.7-0.8,1.6-1.3,2.8-1.3c1.2,0,2.1,0.4,2.8,1.3s1,2.1,1,3.7V464.9z M450.5,464.7c0-1.1-0.2-2-0.7-2.6c-0.5-0.6-1.1-0.9-1.9-0.9
		c-1,0-1.8,0.4-2.3,1.3v4.6c0.5,0.9,1.3,1.3,2.3,1.3c0.8,0,1.4-0.3,1.9-0.9C450.2,466.9,450.5,466,450.5,464.7z"/>
	<path class="st11" d="M458.9,461.5c-0.3,0-0.5-0.1-0.8-0.1c-1.1,0-1.8,0.5-2.2,1.4v6.9h-1.7V460h1.6l0,1.1c0.5-0.9,1.3-1.3,2.3-1.3
		c0.3,0,0.6,0,0.7,0.1V461.5z"/>
	<path class="st11" d="M459.8,464.7c0-0.9,0.2-1.8,0.6-2.6c0.4-0.8,0.9-1.3,1.6-1.8c0.7-0.4,1.4-0.6,2.3-0.6c1.3,0,2.4,0.5,3.2,1.4
		s1.2,2.1,1.2,3.6v0.1c0,0.9-0.2,1.8-0.5,2.5c-0.4,0.7-0.9,1.3-1.5,1.8c-0.7,0.4-1.4,0.6-2.3,0.6c-1.3,0-2.4-0.5-3.2-1.4
		s-1.2-2.1-1.2-3.6V464.7z M461.5,464.9c0,1.1,0.3,1.9,0.7,2.6s1.2,1,2,1c0.8,0,1.5-0.3,2-1s0.7-1.6,0.7-2.8c0-1.1-0.3-1.9-0.8-2.6
		c-0.5-0.7-1.2-1-2-1c-0.8,0-1.5,0.3-2,1S461.5,463.7,461.5,464.9z"/>
	<path class="st11" d="M472.4,460v10.8c0,1.9-0.8,2.8-2.5,2.8c-0.4,0-0.7-0.1-1-0.2v-1.3c0.2,0,0.4,0.1,0.8,0.1
		c0.4,0,0.7-0.1,0.8-0.3c0.2-0.2,0.3-0.5,0.3-1V460H472.4z M470.6,457.4c0-0.3,0.1-0.5,0.2-0.7s0.4-0.3,0.7-0.3
		c0.3,0,0.6,0.1,0.7,0.3c0.2,0.2,0.3,0.4,0.3,0.7s-0.1,0.5-0.3,0.7s-0.4,0.3-0.7,0.3s-0.6-0.1-0.7-0.3S470.6,457.7,470.6,457.4z"/>
	<path class="st11" d="M479.1,469.8c-1.3,0-2.4-0.4-3.2-1.3s-1.2-2-1.2-3.5v-0.3c0-1,0.2-1.8,0.6-2.6c0.4-0.8,0.9-1.3,1.5-1.8
		s1.4-0.6,2.1-0.6c1.3,0,2.2,0.4,2.9,1.2c0.7,0.8,1,2,1,3.6v0.7h-6.6c0,1,0.3,1.7,0.8,2.3c0.5,0.6,1.2,0.9,2,0.9
		c0.6,0,1.1-0.1,1.5-0.4c0.4-0.2,0.8-0.6,1.1-0.9l1,0.8C481.9,469.2,480.7,469.8,479.1,469.8z M478.9,461.2c-0.7,0-1.2,0.2-1.7,0.7
		s-0.7,1.2-0.8,2h4.9v-0.1c0-0.8-0.3-1.5-0.7-2C480.1,461.4,479.6,461.2,478.9,461.2z"/>
	<path class="st11" d="M488.7,468.5c0.6,0,1.1-0.2,1.5-0.5c0.4-0.4,0.7-0.8,0.7-1.3h1.6c0,0.6-0.2,1.1-0.6,1.6
		c-0.4,0.5-0.8,0.9-1.4,1.2c-0.6,0.3-1.2,0.4-1.9,0.4c-1.3,0-2.4-0.4-3.1-1.3c-0.8-0.9-1.2-2.1-1.2-3.6v-0.3c0-0.9,0.2-1.8,0.5-2.5
		c0.3-0.7,0.8-1.3,1.5-1.7c0.6-0.4,1.4-0.6,2.3-0.6c1.1,0,2,0.3,2.7,1s1.1,1.5,1.2,2.5h-1.6c0-0.6-0.3-1.1-0.7-1.5
		c-0.4-0.4-1-0.6-1.6-0.6c-0.8,0-1.5,0.3-2,0.9c-0.5,0.6-0.7,1.5-0.7,2.6v0.3c0,1.1,0.2,2,0.7,2.6
		C487.1,468.2,487.8,468.5,488.7,468.5z"/>
	<path class="st11" d="M496.6,457.6v2.3h1.8v1.3h-1.8v6c0,0.4,0.1,0.7,0.2,0.9s0.4,0.3,0.8,0.3c0.2,0,0.5,0,0.8-0.1v1.3
		c-0.4,0.1-0.9,0.2-1.3,0.2c-0.7,0-1.3-0.2-1.7-0.7s-0.6-1.1-0.6-1.9v-6h-1.8V460h1.8v-2.3H496.6z"/>
</g>
<g>
	<path class="st11" d="M303.3,625.4c-0.1-0.4-0.2-1-0.3-1.9c-0.5,0.7-1.2,1.2-2,1.6c-0.8,0.4-1.7,0.6-2.6,0.6
		c-1.3,0-2.3-0.4-3.1-1.1c-0.8-0.7-1.2-1.6-1.2-2.7c0-1.3,0.5-2.3,1.6-3.1s2.6-1.1,4.5-1.1h2.7v-1.5c0-1-0.3-1.7-0.9-2.3
		s-1.4-0.8-2.6-0.8c-1,0-1.9,0.3-2.6,0.8c-0.7,0.5-1,1.2-1,1.9l-1.5,0c0-1.1,0.5-2,1.5-2.8s2.2-1.2,3.6-1.2c1.5,0,2.7,0.4,3.5,1.1
		c0.9,0.7,1.3,1.8,1.3,3.1v6.3c0,1.3,0.1,2.3,0.4,2.9v0.1H303.3z M298.7,624.4c1,0,1.9-0.2,2.7-0.7c0.8-0.5,1.3-1.1,1.7-1.9v-2.9
		h-2.6c-1.5,0-2.6,0.3-3.5,0.8c-0.8,0.5-1.2,1.2-1.2,2.2c0,0.8,0.3,1.4,0.8,1.9C297.1,624.1,297.8,624.4,298.7,624.4z"/>
	<path class="st11" d="M309.9,612l0,2.3c0.5-0.8,1.1-1.5,1.9-1.9c0.8-0.4,1.6-0.6,2.5-0.6c1.4,0,2.5,0.4,3.2,1.2
		c0.7,0.8,1.1,2,1.1,3.6v8.8h-1.5v-8.8c0-1.2-0.3-2.1-0.8-2.7c-0.5-0.6-1.3-0.9-2.4-0.9c-0.9,0-1.7,0.3-2.4,0.9s-1.2,1.3-1.6,2.3
		v9.2h-1.5V612H309.9z"/>
	<path class="st11" d="M321.8,618.6c0-2.1,0.5-3.7,1.4-5s2.2-1.8,3.8-1.8c1.8,0,3.2,0.7,4.1,2.1v-7.5h1.5v19h-1.4l-0.1-1.8
		c-0.9,1.4-2.3,2-4.2,2c-1.5,0-2.8-0.6-3.7-1.9c-0.9-1.2-1.4-2.9-1.4-5V618.6z M323.3,618.9c0,1.7,0.3,3.1,1,4s1.6,1.5,2.9,1.5
		c1.8,0,3.1-0.8,3.9-2.4v-6.3c-0.8-1.7-2.1-2.6-3.9-2.6c-1.2,0-2.2,0.5-2.9,1.5C323.6,615.5,323.3,617,323.3,618.9z"/>
	<path class="st11" d="M344,612l0,2.3c0.5-0.8,1.1-1.5,1.9-1.9c0.8-0.4,1.6-0.6,2.5-0.6c1.4,0,2.5,0.4,3.2,1.2
		c0.7,0.8,1.1,2,1.1,3.6v8.8h-1.5v-8.8c0-1.2-0.3-2.1-0.8-2.7c-0.5-0.6-1.3-0.9-2.4-0.9c-0.9,0-1.7,0.3-2.4,0.9s-1.2,1.3-1.6,2.3
		v9.2h-1.5V612H344z"/>
	<path class="st11" d="M355.7,618.5c0-1.3,0.2-2.4,0.7-3.5c0.5-1,1.2-1.8,2.1-2.4s1.9-0.9,3.1-0.9c1.8,0,3.2,0.6,4.3,1.9
		s1.7,2.9,1.7,5v0.3c0,1.3-0.2,2.5-0.7,3.5c-0.5,1-1.2,1.8-2.1,2.4c-0.9,0.6-1.9,0.8-3.1,0.8c-1.8,0-3.2-0.6-4.3-1.9
		c-1.1-1.3-1.7-2.9-1.7-5V618.5z M357.2,618.9c0,1.6,0.4,2.9,1.2,3.9c0.8,1,1.9,1.5,3.3,1.5c1.3,0,2.4-0.5,3.2-1.5
		c0.8-1,1.2-2.4,1.2-4.1v-0.3c0-1-0.2-2-0.6-2.8c-0.4-0.8-0.9-1.5-1.6-2c-0.7-0.5-1.5-0.7-2.4-0.7c-1.3,0-2.4,0.5-3.2,1.6
		s-1.2,2.4-1.2,4.1V618.9z"/>
	<path class="st11" d="M373.9,622.3l0.2,1.2l0.3-1.2l3.2-10.2h1.3l3.2,10.2l0.3,1.4l0.3-1.3l2.7-10.3h1.5l-3.9,13.4h-1.3l-3.4-10.6
		l-0.2-0.7l-0.2,0.7l-3.4,10.6h-1.3l-3.9-13.4h1.5L373.9,622.3z"/>
	<path class="st11" d="M400.2,623.3l3.9-11.3h1.6l-5.7,15.7l-0.3,0.7c-0.7,1.6-1.9,2.4-3.4,2.4c-0.4,0-0.7-0.1-1.1-0.2l0-1.2
		l0.8,0.1c0.7,0,1.3-0.2,1.8-0.5s0.8-1,1.1-1.8l0.7-1.8l-5-13.3h1.6L400.2,623.3z"/>
	<path class="st11" d="M407,618.5c0-1.3,0.2-2.4,0.7-3.5c0.5-1,1.2-1.8,2.1-2.4s1.9-0.9,3.1-0.9c1.8,0,3.2,0.6,4.3,1.9
		s1.7,2.9,1.7,5v0.3c0,1.3-0.2,2.5-0.7,3.5c-0.5,1-1.2,1.8-2.1,2.4c-0.9,0.6-1.9,0.8-3.1,0.8c-1.8,0-3.2-0.6-4.3-1.9
		c-1.1-1.3-1.7-2.9-1.7-5V618.5z M408.5,618.9c0,1.6,0.4,2.9,1.2,3.9c0.8,1,1.9,1.5,3.3,1.5c1.3,0,2.4-0.5,3.2-1.5
		c0.8-1,1.2-2.4,1.2-4.1v-0.3c0-1-0.2-2-0.6-2.8c-0.4-0.8-0.9-1.5-1.6-2c-0.7-0.5-1.5-0.7-2.4-0.7c-1.3,0-2.4,0.5-3.2,1.6
		s-1.2,2.4-1.2,4.1V618.9z"/>
	<path class="st11" d="M430.6,623.7c-0.9,1.3-2.3,1.9-4.3,1.9c-1.4,0-2.5-0.4-3.3-1.2c-0.7-0.8-1.1-2.1-1.1-3.7V612h1.5v8.5
		c0,2.5,1,3.8,3.1,3.8c2.1,0,3.5-0.9,4.1-2.7V612h1.5v13.4h-1.4L430.6,623.7z"/>
	<path class="st11" d="M299.8,654.8c1,0,1.9-0.3,2.6-0.9c0.7-0.6,1.1-1.3,1.1-2.3h1.4c0,0.8-0.3,1.6-0.8,2.2s-1.1,1.2-1.9,1.6
		s-1.6,0.6-2.5,0.6c-1.8,0-3.1-0.6-4.2-1.8c-1-1.2-1.5-2.9-1.5-4.9v-0.4c0-1.3,0.2-2.5,0.7-3.5c0.5-1,1.1-1.8,2-2.3
		c0.9-0.6,1.9-0.8,3-0.8c1.5,0,2.7,0.4,3.6,1.3s1.5,2,1.5,3.5h-1.4c-0.1-1-0.4-1.9-1.1-2.5c-0.7-0.6-1.6-1-2.6-1
		c-1.3,0-2.4,0.5-3.1,1.4s-1.1,2.3-1.1,4.1v0.4c0,1.7,0.4,3,1.1,4C297.4,654.3,298.5,654.8,299.8,654.8z"/>
	<path class="st11" d="M316.4,655.8c-0.1-0.4-0.2-1-0.3-1.9c-0.5,0.7-1.2,1.2-2,1.6c-0.8,0.4-1.7,0.6-2.6,0.6
		c-1.3,0-2.3-0.4-3.1-1.1c-0.8-0.7-1.2-1.6-1.2-2.7c0-1.3,0.5-2.3,1.6-3.1s2.6-1.1,4.5-1.1h2.7v-1.5c0-1-0.3-1.7-0.9-2.3
		s-1.4-0.8-2.6-0.8c-1,0-1.9,0.3-2.6,0.8c-0.7,0.5-1,1.2-1,1.9l-1.5,0c0-1.1,0.5-2,1.5-2.8c1-0.8,2.2-1.2,3.6-1.2
		c1.5,0,2.7,0.4,3.5,1.1c0.9,0.7,1.3,1.8,1.3,3.1v6.3c0,1.3,0.1,2.3,0.4,2.9v0.1H316.4z M311.7,654.8c1,0,1.9-0.2,2.7-0.7
		c0.8-0.5,1.3-1.1,1.7-1.9v-2.9h-2.6c-1.5,0-2.6,0.3-3.5,0.8c-0.8,0.5-1.2,1.2-1.2,2.2c0,0.8,0.3,1.4,0.8,1.9
		C310.1,654.5,310.8,654.8,311.7,654.8z"/>
	<path class="st11" d="M322.9,642.4l0,2.3c0.5-0.8,1.1-1.5,1.9-1.9c0.8-0.4,1.6-0.6,2.5-0.6c1.4,0,2.5,0.4,3.2,1.2
		c0.7,0.8,1.1,2,1.1,3.6v8.8h-1.5V647c0-1.2-0.3-2.1-0.8-2.7c-0.5-0.6-1.3-0.9-2.4-0.9c-0.9,0-1.7,0.3-2.4,0.9s-1.2,1.3-1.6,2.3v9.2
		h-1.5v-13.4H322.9z"/>
	<path class="st11" d="M352.3,649.3c0,2.1-0.5,3.7-1.4,5c-0.9,1.2-2.2,1.8-3.7,1.8c-1.9,0-3.3-0.7-4.2-2.1l-0.1,1.8h-1.4v-19h1.5
		v7.6c0.9-1.5,2.3-2.2,4.2-2.2c1.6,0,2.8,0.6,3.8,1.8c0.9,1.2,1.4,2.9,1.4,5V649.3z M350.9,649c0-1.8-0.3-3.1-1-4.1
		c-0.7-1-1.6-1.4-2.9-1.4c-0.9,0-1.8,0.2-2.4,0.7s-1.2,1.1-1.5,2v6c0.7,1.7,2.1,2.5,3.9,2.5c1.2,0,2.2-0.5,2.9-1.4
		S350.9,650.9,350.9,649z"/>
	<path class="st11" d="M360.8,656.1c-1.1,0-2.2-0.3-3.1-0.8c-0.9-0.6-1.6-1.3-2.1-2.3c-0.5-1-0.8-2.1-0.8-3.4V649
		c0-1.3,0.2-2.4,0.7-3.5c0.5-1,1.2-1.8,2.1-2.4c0.9-0.6,1.9-0.9,2.9-0.9c1.6,0,2.9,0.6,3.9,1.7c1,1.1,1.4,2.6,1.4,4.5v0.8h-9.5v0.3
		c0,1.5,0.4,2.8,1.3,3.8c0.9,1,2,1.5,3.3,1.5c0.8,0,1.5-0.1,2.1-0.4c0.6-0.3,1.2-0.8,1.7-1.4l0.9,0.7
		C364.4,655.3,362.9,656.1,360.8,656.1z M360.5,643.4c-1.1,0-2.1,0.4-2.8,1.2s-1.2,1.9-1.4,3.3h8v-0.2c0-1.3-0.4-2.3-1.1-3.1
		C362.6,643.9,361.6,643.4,360.5,643.4z"/>
	<path class="st11" d="M385.6,649.3c0,2.1-0.5,3.7-1.4,5c-0.9,1.2-2.2,1.8-3.7,1.8c-1.8,0-3.2-0.6-4.2-1.9v6.8h-1.5v-18.5h1.4
		l0.1,1.9c1-1.4,2.4-2.1,4.2-2.1c1.6,0,2.9,0.6,3.8,1.8s1.4,2.9,1.4,5V649.3z M384.1,649c0-1.7-0.4-3.1-1.1-4
		c-0.7-1-1.7-1.5-2.9-1.5c-0.9,0-1.7,0.2-2.3,0.7s-1.2,1.1-1.5,1.9v6.4c0.4,0.8,0.9,1.4,1.5,1.8c0.7,0.4,1.4,0.6,2.3,0.6
		c1.2,0,2.2-0.5,2.9-1.5C383.8,652.3,384.1,650.9,384.1,649z"/>
	<path class="st11" d="M397.3,655.8c-0.1-0.4-0.2-1-0.3-1.9c-0.5,0.7-1.2,1.2-2,1.6c-0.8,0.4-1.7,0.6-2.6,0.6
		c-1.3,0-2.3-0.4-3.1-1.1c-0.8-0.7-1.2-1.6-1.2-2.7c0-1.3,0.5-2.3,1.6-3.1s2.6-1.1,4.5-1.1h2.7v-1.5c0-1-0.3-1.7-0.9-2.3
		s-1.4-0.8-2.6-0.8c-1,0-1.9,0.3-2.6,0.8c-0.7,0.5-1,1.2-1,1.9l-1.5,0c0-1.1,0.5-2,1.5-2.8s2.2-1.2,3.6-1.2c1.5,0,2.7,0.4,3.5,1.1
		c0.9,0.7,1.3,1.8,1.3,3.1v6.3c0,1.3,0.1,2.3,0.4,2.9v0.1H397.3z M392.7,654.8c1,0,1.9-0.2,2.7-0.7c0.8-0.5,1.3-1.1,1.7-1.9v-2.9
		h-2.6c-1.5,0-2.6,0.3-3.5,0.8c-0.8,0.5-1.2,1.2-1.2,2.2c0,0.8,0.3,1.4,0.8,1.9C391.1,654.5,391.8,654.8,392.7,654.8z"/>
	<path class="st11" d="M408.7,643.7c-0.3-0.1-0.6-0.1-1-0.1c-0.9,0-1.7,0.3-2.3,0.8c-0.6,0.5-1.1,1.3-1.4,2.2v9.2h-1.5v-13.4h1.4
		l0,2.1c0.8-1.6,2-2.4,3.8-2.4c0.4,0,0.7,0.1,1,0.2L408.7,643.7z"/>
	<path class="st11" d="M413.9,639v3.4h2.8v1.2h-2.8v8.9c0,0.7,0.1,1.3,0.4,1.7c0.3,0.4,0.7,0.5,1.3,0.5c0.2,0,0.6,0,1.2-0.1l0.1,1.2
		c-0.4,0.1-0.9,0.2-1.6,0.2c-1,0-1.8-0.3-2.2-0.9s-0.7-1.5-0.7-2.6v-8.9H410v-1.2h2.5V639H413.9z"/>
	<path class="st11" d="M425.1,648.9c0-1.3,0.2-2.4,0.7-3.5c0.5-1,1.2-1.8,2.1-2.4s1.9-0.9,3.1-0.9c1.8,0,3.2,0.6,4.3,1.9
		s1.7,2.9,1.7,5v0.3c0,1.3-0.2,2.5-0.7,3.5c-0.5,1-1.2,1.8-2.1,2.4c-0.9,0.6-1.9,0.8-3.1,0.8c-1.8,0-3.2-0.6-4.3-1.9
		c-1.1-1.3-1.7-2.9-1.7-5V648.9z M426.6,649.3c0,1.6,0.4,2.9,1.2,3.9c0.8,1,1.9,1.5,3.3,1.5c1.3,0,2.4-0.5,3.2-1.5
		c0.8-1,1.2-2.4,1.2-4.1v-0.3c0-1-0.2-2-0.6-2.8c-0.4-0.8-0.9-1.5-1.6-2c-0.7-0.5-1.5-0.7-2.4-0.7c-1.3,0-2.4,0.5-3.2,1.6
		s-1.2,2.4-1.2,4.1V649.3z"/>
	<path class="st11" d="M441.2,655.8v-12.2h-2.2v-1.2h2.2v-1.6c0-1.4,0.3-2.4,1-3.2c0.7-0.7,1.7-1.1,2.9-1.1c0.6,0,1.1,0.1,1.6,0.2
		l-0.1,1.2c-0.4-0.1-0.9-0.1-1.3-0.1c-0.8,0-1.5,0.3-1.9,0.8c-0.5,0.5-0.7,1.2-0.7,2.2v1.7h3.2v1.2h-3.2v12.2H441.2z"/>
	<path class="st11" d="M454.6,638.6c0-0.3,0.1-0.5,0.3-0.7s0.4-0.3,0.7-0.3s0.6,0.1,0.7,0.3s0.3,0.4,0.3,0.7c0,0.3-0.1,0.5-0.3,0.7
		s-0.4,0.3-0.7,0.3s-0.6-0.1-0.7-0.3S454.6,638.8,454.6,638.6z M456.3,655.8h-1.5v-13.4h1.5V655.8z"/>
	<path class="st11" d="M462.6,639v3.4h2.8v1.2h-2.8v8.9c0,0.7,0.1,1.3,0.4,1.7c0.3,0.4,0.7,0.5,1.3,0.5c0.2,0,0.6,0,1.2-0.1l0.1,1.2
		c-0.4,0.1-0.9,0.2-1.6,0.2c-1,0-1.8-0.3-2.2-0.9s-0.7-1.5-0.7-2.6v-8.9h-2.5v-1.2h2.5V639H462.6z"/>
	<path class="st11" d="M468.4,654.9c0-0.3,0.1-0.5,0.3-0.7c0.2-0.2,0.4-0.3,0.7-0.3c0.3,0,0.6,0.1,0.7,0.3c0.2,0.2,0.3,0.4,0.3,0.7
		c0,0.3-0.1,0.5-0.3,0.7s-0.4,0.3-0.7,0.3c-0.3,0-0.6-0.1-0.7-0.3C468.5,655.4,468.4,655.2,468.4,654.9z M470,650.8h-1.4l-0.1-13
		h1.5L470,650.8z"/>
</g>
<g>
	<linearGradient id="SVGID_8_" gradientUnits="userSpaceOnUse" x1="211.0317" y1="92.8242" x2="260.9683" y2="42.8876">
		<stop  offset="0" style="stop-color:#D57D2F"/>
		<stop  offset="0.33" style="stop-color:#C52337"/>
		<stop  offset="0.66" style="stop-color:#8E5199"/>
		<stop  offset="1" style="stop-color:#6590CA"/>
	</linearGradient>
	<path class="st10" d="M253.8,97.2c-1.4,0-2.8-0.5-4-1.3l-13.7-10l-13.7,10c-1.2,0.9-2.6,1.3-4,1.3c-2.2,0-4.3-1.1-5.6-2.9
		c-1.3-1.8-1.6-4-1-6.2l5.2-16.1l-13.7-10c-2.4-1.8-3.4-4.9-2.5-7.7c0.9-2.8,3.6-4.8,6.6-4.8h17l5.2-16.1c0.9-2.8,3.6-4.8,6.6-4.8
		s5.6,1.9,6.6,4.8l5.2,16.1h17c3,0,5.6,1.9,6.6,4.8c0.9,2.8-0.1,5.9-2.5,7.7l-13.7,10l5.2,16.1c0.7,2.1,0.3,4.4-1,6.2
		C258.1,96.1,256,97.2,253.8,97.2z"/>
	<path class="st13" d="M236,32.6c1.2,0,2.3,0.7,2.7,2l5.5,16.9c0.4,1.2,1.5,2,2.7,2h17.8c2.8,0,4,3.6,1.7,5.2l-14.4,10.5
		c-1,0.7-1.4,2-1,3.2l5.5,16.9c0.7,2-1,3.8-2.8,3.8c-0.6,0-1.1-0.2-1.7-0.6l-14.4-10.5c-0.5-0.4-1.1-0.6-1.7-0.6s-1.2,0.2-1.7,0.6
		l-14.4,10.5c-0.5,0.4-1.1,0.6-1.7,0.6c-1.8,0-3.4-1.8-2.8-3.8l5.5-16.9c0.4-1.2,0-2.5-1-3.2l-14.4-10.5c-2.3-1.6-1.1-5.2,1.7-5.2
		H225c1.3,0,2.4-0.8,2.7-2l5.5-16.9C233.7,33.3,234.8,32.6,236,32.6 M236,24.6c-4.7,0-8.9,3-10.4,7.5l-4.3,13.4h-14.1
		c-4.7,0-8.9,3-10.4,7.5c-1.5,4.5,0.1,9.4,4,12.2l11.4,8.3l-4.3,13.4c-1.1,3.4-0.5,6.9,1.5,9.7c2.1,2.8,5.4,4.5,8.8,4.5
		c2.3,0,4.5-0.7,6.4-2.1l11.4-8.3l11.4,8.3c1.9,1.4,4.1,2.1,6.4,2.1c3.5,0,6.8-1.7,8.8-4.5c2.1-2.8,2.6-6.4,1.5-9.7l-4.3-13.4
		l11.4-8.3c3.8-2.8,5.4-7.7,4-12.2c-1.5-4.5-5.6-7.5-10.4-7.5h-14.1l-4.3-13.4C244.9,27.7,240.7,24.6,236,24.6L236,24.6z"/>
</g>
</svg>
