<?xml version="1.0" encoding="utf-8"?>
<!-- Generator: Adobe Illustrator 22.1.0, SVG Export Plug-In . SVG Version: 6.00 Build 0)  -->
<svg version="1.1" id="Camada_1" xmlns="http://www.w3.org/2000/svg" xmlns:xlink="http://www.w3.org/1999/xlink" x="0px" y="0px"
	 viewBox="0 0 150 168.1" style="enable-background:new 0 0 150 168.1;" xml:space="preserve">
<style type="text/css">
	.st0{fill:none;stroke:#FAFAFA;stroke-width:5;stroke-miterlimit:10;}
</style>
<path class="st0" d="M-4.7,40.6l-28-16.2c-2.9-1.7-4.7-4.8-4.7-8.2v-32.4c0-3.4,1.8-6.5,4.7-8.2l28-16.2c2.9-1.7,6.5-1.7,9.5,0
	l28,16.2c2.9,1.7,4.7,4.8,4.7,8.2v32.4c0,3.4-1.8,6.5-4.7,8.2l-28,16.2C1.8,42.3-1.8,42.3-4.7,40.6z"/>
<path class="st0" d="M145.3,40.6l-28-16.2c-2.9-1.7-4.7-4.8-4.7-8.2v-32.4c0-3.4,1.8-6.5,4.7-8.2l28-16.2c2.9-1.7,6.5-1.7,9.5,0
	l28,16.2c2.9,1.7,4.7,4.8,4.7,8.2v32.4c0,3.4-1.8,6.5-4.7,8.2l-28,16.2C151.8,42.3,148.2,42.3,145.3,40.6z"/>
<path class="st0" d="M70.3,40.6l-28-16.2c-2.9-1.7-4.7-4.8-4.7-8.2v-32.4c0-3.4,1.8-6.5,4.7-8.2l28-16.2c2.9-1.7,6.5-1.7,9.5,0
	l28,16.2c2.9,1.7,4.7,4.8,4.7,8.2v32.4c0,3.4-1.8,6.5-4.7,8.2l-28,16.2C76.8,42.3,73.2,42.3,70.3,40.6z"/>
<path class="st0" d="M-4.7,124.6l-28-16.2c-2.9-1.7-4.7-4.8-4.7-8.2V67.9c0-3.4,1.8-6.5,4.7-8.2l28-16.2c2.9-1.7,6.5-1.7,9.5,0
	l28,16.2c2.9,1.7,4.7,4.8,4.7,8.2v32.4c0,3.4-1.8,6.5-4.7,8.2l-28,16.2C1.8,126.3-1.8,126.3-4.7,124.6z"/>
<path class="st0" d="M145.3,124.6l-28-16.2c-2.9-1.7-4.7-4.8-4.7-8.2V67.9c0-3.4,1.8-6.5,4.7-8.2l28-16.2c2.9-1.7,6.5-1.7,9.5,0
	l28,16.2c2.9,1.7,4.7,4.8,4.7,8.2v32.4c0,3.4-1.8,6.5-4.7,8.2l-28,16.2C151.8,126.3,148.2,126.3,145.3,124.6z"/>
<path class="st0" d="M70.3,124.6l-28-16.2c-2.9-1.7-4.7-4.8-4.7-8.2V67.9c0-3.4,1.8-6.5,4.7-8.2l28-16.2c2.9-1.7,6.5-1.7,9.5,0
	l28,16.2c2.9,1.7,4.7,4.8,4.7,8.2v32.4c0,3.4-1.8,6.5-4.7,8.2l-28,16.2C76.8,126.3,73.2,126.3,70.3,124.6z"/>
<path class="st0" d="M-4.7,208.7l-28-16.2c-2.9-1.7-4.7-4.8-4.7-8.2v-32.4c0-3.4,1.8-6.5,4.7-8.2l28-16.2c2.9-1.7,6.5-1.7,9.5,0
	l28,16.2c2.9,1.7,4.7,4.8,4.7,8.2v32.4c0,3.4-1.8,6.5-4.7,8.2l-28,16.2C1.8,210.4-1.8,210.4-4.7,208.7z"/>
<path class="st0" d="M145.3,208.7l-28-16.2c-2.9-1.7-4.7-4.8-4.7-8.2v-32.4c0-3.4,1.8-6.5,4.7-8.2l28-16.2c2.9-1.7,6.5-1.7,9.5,0
	l28,16.2c2.9,1.7,4.7,4.8,4.7,8.2v32.4c0,3.4-1.8,6.5-4.7,8.2l-28,16.2C151.8,210.4,148.2,210.4,145.3,208.7z"/>
<path class="st0" d="M70.3,208.7l-28-16.2c-2.9-1.7-4.7-4.8-4.7-8.2v-32.4c0-3.4,1.8-6.5,4.7-8.2l28-16.2c2.9-1.7,6.5-1.7,9.5,0
	l28,16.2c2.9,1.7,4.7,4.8,4.7,8.2v32.4c0,3.4-1.8,6.5-4.7,8.2l-28,16.2C76.8,210.4,73.2,210.4,70.3,208.7z"/>
</svg>
