<?xml version="1.0" encoding="utf-8"?>
<!-- Generator: Adobe Illustrator 22.1.0, SVG Export Plug-In . SVG Version: 6.00 Build 0)  -->
<svg version="1.1" id="Camada_1" xmlns="http://www.w3.org/2000/svg" xmlns:xlink="http://www.w3.org/1999/xlink" x="0px" y="0px"
	 viewBox="0 0 150 150" style="enable-background:new 0 0 150 150;" xml:space="preserve">
<style type="text/css">
	.st0{fill:none;stroke:#FAFAFA;stroke-width:5;stroke-miterlimit:10;}
</style>
<path class="st0" d="M70.6,111.6L42.8,97.1c-3.1-1.6-5.1-4.9-5.1-8.4V61.3c0-3.5,2-6.8,5.1-8.4l27.8-14.5c2.7-1.4,6-1.4,8.8,0
	l27.8,14.5c3.1,1.6,5.1,4.9,5.1,8.4v27.4c0,3.5-2,6.8-5.1,8.4l-27.8,14.5C76.6,113,73.4,113,70.6,111.6z"/>
<path class="st0" d="M145.6,111.6l-27.8-14.5c-3.1-1.6-5.1-4.9-5.1-8.4V61.3c0-3.5,2-6.8,5.1-8.4l27.8-14.5c2.7-1.4,6-1.4,8.8,0
	l27.8,14.5c3.1,1.6,5.1,4.9,5.1,8.4v27.4c0,3.5-2,6.8-5.1,8.4l-27.8,14.5C151.6,113,148.4,113,145.6,111.6z"/>
<path class="st0" d="M70.6,36.6L42.8,22.1c-3.1-1.6-5.1-4.9-5.1-8.4v-27.4c0-3.5,2-6.8,5.1-8.4l27.8-14.5c2.7-1.4,6-1.4,8.8,0
	l27.8,14.5c3.1,1.6,5.1,4.9,5.1,8.4v27.4c0,3.5-2,6.8-5.1,8.4L79.4,36.6C76.6,38,73.4,38,70.6,36.6z"/>
<path class="st0" d="M70.6,186.6l-27.8-14.5c-3.1-1.6-5.1-4.9-5.1-8.4v-27.4c0-3.5,2-6.8,5.1-8.4l27.8-14.5c2.7-1.4,6-1.4,8.8,0
	l27.8,14.5c3.1,1.6,5.1,4.9,5.1,8.4v27.4c0,3.5-2,6.8-5.1,8.4l-27.8,14.5C76.6,188,73.4,188,70.6,186.6z"/>
<path class="st0" d="M-4.4,111.6l-27.8-14.5c-3.1-1.6-5.1-4.9-5.1-8.4V61.3c0-3.5,2-6.8,5.1-8.4l27.8-14.5c2.7-1.4,6-1.4,8.8,0
	l27.8,14.5c3.1,1.6,5.1,4.9,5.1,8.4v27.4c0,3.5-2,6.8-5.1,8.4L4.4,111.6C1.6,113-1.6,113-4.4,111.6z"/>
<path class="st0" d="M145.6,111.6l-27.8-14.5c-3.1-1.6-5.1-4.9-5.1-8.4V61.3c0-3.5,2-6.8,5.1-8.4l27.8-14.5c2.7-1.4,6-1.4,8.8,0
	l27.8,14.5c3.1,1.6,5.1,4.9,5.1,8.4v27.4c0,3.5-2,6.8-5.1,8.4l-27.8,14.5C151.6,113,148.4,113,145.6,111.6z"/>
<path class="st0" d="M70.6,36.6L42.8,22.1c-3.1-1.6-5.1-4.9-5.1-8.4v-27.4c0-3.5,2-6.8,5.1-8.4l27.8-14.5c2.7-1.4,6-1.4,8.8,0
	l27.8,14.5c3.1,1.6,5.1,4.9,5.1,8.4v27.4c0,3.5-2,6.8-5.1,8.4L79.4,36.6C76.6,38,73.4,38,70.6,36.6z"/>
<path class="st0" d="M145.6,36.6l-27.8-14.5c-3.1-1.6-5.1-4.9-5.1-8.4v-27.4c0-3.5,2-6.8,5.1-8.4l27.8-14.5c2.7-1.4,6-1.4,8.8,0
	l27.8,14.5c3.1,1.6,5.1,4.9,5.1,8.4v27.4c0,3.5-2,6.8-5.1,8.4l-27.8,14.5C151.6,38,148.4,38,145.6,36.6z"/>
<path class="st0" d="M-4.4,36.6l-27.8-14.5c-3.1-1.6-5.1-4.9-5.1-8.4v-27.4c0-3.5,2-6.8,5.1-8.4l27.8-14.5c2.7-1.4,6-1.4,8.8,0
	l27.8,14.5c3.1,1.6,5.1,4.9,5.1,8.4v27.4c0,3.5-2,6.8-5.1,8.4L4.4,36.6C1.6,38-1.6,38-4.4,36.6z"/>
<path class="st0" d="M-4.4,186.6l-27.8-14.5c-3.1-1.6-5.1-4.9-5.1-8.4v-27.4c0-3.5,2-6.8,5.1-8.4l27.8-14.5c2.7-1.4,6-1.4,8.8,0
	l27.8,14.5c3.1,1.6,5.1,4.9,5.1,8.4v27.4c0,3.5-2,6.8-5.1,8.4L4.4,186.6C1.6,188-1.6,188-4.4,186.6z"/>
<path class="st0" d="M145.6,186.6l-27.8-14.5c-3.1-1.6-5.1-4.9-5.1-8.4v-27.4c0-3.5,2-6.8,5.1-8.4l27.8-14.5c2.7-1.4,6-1.4,8.8,0
	l27.8,14.5c3.1,1.6,5.1,4.9,5.1,8.4v27.4c0,3.5-2,6.8-5.1,8.4l-27.8,14.5C151.6,188,148.4,188,145.6,186.6z"/>
<path class="st0" d="M70.6,186.6l-27.8-14.5c-3.1-1.6-5.1-4.9-5.1-8.4v-27.4c0-3.5,2-6.8,5.1-8.4l27.8-14.5c2.7-1.4,6-1.4,8.8,0
	l27.8,14.5c3.1,1.6,5.1,4.9,5.1,8.4v27.4c0,3.5-2,6.8-5.1,8.4l-27.8,14.5C76.6,188,73.4,188,70.6,186.6z"/>
<path class="st0" d="M-4.4,111.6l-27.8-14.5c-3.1-1.6-5.1-4.9-5.1-8.4V61.3c0-3.5,2-6.8,5.1-8.4l27.8-14.5c2.7-1.4,6-1.4,8.8,0
	l27.8,14.5c3.1,1.6,5.1,4.9,5.1,8.4v27.4c0,3.5-2,6.8-5.1,8.4L4.4,111.6C1.6,113-1.6,113-4.4,111.6z"/>
</svg>
