<?xml version="1.0" encoding="utf-8"?>
<!-- Generator: Adobe Illustrator 22.1.0, SVG Export Plug-In . SVG Version: 6.00 Build 0)  -->
<svg version="1.1" id="Camada_1" xmlns="http://www.w3.org/2000/svg" xmlns:xlink="http://www.w3.org/1999/xlink" x="0px" y="0px"
	 viewBox="0 0 150 130.1" style="enable-background:new 0 0 150 130.1;" xml:space="preserve">
<style type="text/css">
	.st0{fill:none;stroke:#FAFAFA;stroke-width:5;stroke-miterlimit:10;}
</style>
<g>
	<path class="st0" d="M-4.7,40.6l-28-16.2c-2.9-1.7-4.7-4.8-4.7-8.2v-32.4c0-3.4,1.8-6.5,4.7-8.2l28-16.2c2.9-1.7,6.5-1.7,9.5,0
		l28,16.2c2.9,1.7,4.7,4.8,4.7,8.2v32.4c0,3.4-1.8,6.5-4.7,8.2l-28,16.2C1.8,42.3-1.8,42.3-4.7,40.6z"/>
	<path class="st0" d="M145.3,40.6l-28-16.2c-2.9-1.7-4.7-4.8-4.7-8.2v-32.4c0-3.4,1.8-6.5,4.7-8.2l28-16.2c2.9-1.7,6.5-1.7,9.5,0
		l28,16.2c2.9,1.7,4.7,4.8,4.7,8.2v32.4c0,3.4-1.8,6.5-4.7,8.2l-28,16.2C151.8,42.3,148.1,42.3,145.3,40.6z"/>
	<path class="st0" d="M70.3,40.6l-28-16.2c-2.9-1.7-4.7-4.8-4.7-8.2v-32.4c0-3.4,1.8-6.5,4.7-8.2l28-16.2c2.9-1.7,6.5-1.7,9.5,0
		l28,16.2c2.9,1.7,4.7,4.8,4.7,8.2v32.4c0,3.4-1.8,6.5-4.7,8.2l-28,16.2C76.8,42.3,73.2,42.3,70.3,40.6z"/>
	<path class="st0" d="M32.7,105.6l-28-16.2C1.8,87.7,0,84.6,0,81.2V48.9c0-3.4,1.8-6.5,4.7-8.2l28-16.2c2.9-1.7,6.5-1.7,9.5,0
		l28,16.2c2.9,1.7,4.7,4.8,4.7,8.2v32.4c0,3.4-1.8,6.5-4.7,8.2l-28,16.2C39.2,107.3,35.6,107.3,32.7,105.6z"/>
	<path class="st0" d="M182.7,105.6l-28-16.2c-2.9-1.7-4.7-4.8-4.7-8.2V48.9c0-3.4,1.8-6.5,4.7-8.2l28-16.2c2.9-1.7,6.5-1.7,9.5,0
		l28,16.2c2.9,1.7,4.7,4.8,4.7,8.2v32.4c0,3.4-1.8,6.5-4.7,8.2l-28,16.2C189.2,107.3,185.6,107.3,182.7,105.6z"/>
	<path class="st0" d="M107.7,105.6l-28-16.2c-2.9-1.7-4.7-4.8-4.7-8.2V48.9c0-3.4,1.8-6.5,4.7-8.2l28-16.2c2.9-1.7,6.5-1.7,9.5,0
		l28,16.2c2.9,1.7,4.7,4.8,4.7,8.2v32.4c0,3.4-1.8,6.5-4.7,8.2l-28,16.2C114.2,107.3,110.6,107.3,107.7,105.6z"/>
	<path class="st0" d="M-42.2,105.6l-28-16.2c-2.9-1.7-4.7-4.8-4.7-8.2V48.9c0-3.4,1.8-6.5,4.7-8.2l28-16.2c2.9-1.7,6.5-1.7,9.5,0
		l28,16.2c2.9,1.7,4.7,4.8,4.7,8.2v32.4c0,3.4-1.8,6.5-4.7,8.2l-28,16.2C-35.7,107.3-39.3,107.3-42.2,105.6z"/>
	<path class="st0" d="M-4.8,170.7l-28-16.2c-2.9-1.7-4.7-4.8-4.7-8.2v-32.4c0-3.4,1.8-6.5,4.7-8.2l28-16.2c2.9-1.7,6.5-1.7,9.5,0
		l28,16.2c2.9,1.7,4.7,4.8,4.7,8.2v32.4c0,3.4-1.8,6.5-4.7,8.2l-28,16.2C1.7,172.4-1.9,172.4-4.8,170.7z"/>
	<path class="st0" d="M145.3,170.7l-28-16.2c-2.9-1.7-4.7-4.8-4.7-8.2v-32.4c0-3.4,1.8-6.5,4.7-8.2l28-16.2c2.9-1.7,6.5-1.7,9.5,0
		l28,16.2c2.9,1.7,4.7,4.8,4.7,8.2v32.4c0,3.4-1.8,6.5-4.7,8.2l-28,16.2C151.8,172.4,148.1,172.4,145.3,170.7z"/>
	<path class="st0" d="M70.3,170.7l-28-16.2c-2.9-1.7-4.7-4.8-4.7-8.2v-32.4c0-3.4,1.8-6.5,4.7-8.2l28-16.2c2.9-1.7,6.5-1.7,9.5,0
		l28,16.2c2.9,1.7,4.7,4.8,4.7,8.2v32.4c0,3.4-1.8,6.5-4.7,8.2l-28,16.2C76.8,172.4,73.1,172.4,70.3,170.7z"/>
</g>
</svg>
