<?xml version="1.0" encoding="UTF-8"?>
<svg enable-background="new 0 0 37.3 35.6" version="1.1" viewBox="0 0 37.3 35.6" xml:space="preserve" xmlns="http://www.w3.org/2000/svg">
<style type="text/css">
	.st0{fill:#FFff55;}
</style>
	<path class="st0" d="m20.3 1l4.3 8.7c0.3 0.6 0.8 0.9 1.4 1l9.6 1.4c1.5 0.2 2.2 2.1 1 3.2l-7 6.8c-0.4 0.4-0.6 1.1-0.5 1.7l1.6 9.6c0.3 1.5-1.3 2.7-2.7 2l-8.6-4.5c-0.5-0.3-1.2-0.3-1.7 0l-8.6 4.5c-1.4 0.7-3-0.4-2.7-2l1.6-9.6c0.1-0.6-0.1-1.2-0.5-1.7l-7-6.8c-1.1-1.1-0.5-3 1-3.2l9.6-1.4c0.6-0.1 1.1-0.5 1.4-1l4.4-8.7c0.7-1.3 2.7-1.3 3.4 0z"/>
</svg>
